<svg
  xmlns="http://www.w3.org/2000/svg"
  width="130"
  height="100"
  fill="none"
  xmlns:v="https://vecta.io/nano"
>
  <rect
    x="1"
    y="1"
    width="128"
    height="98"
    rx="3"
    fill="#fff"
    fill-opacity=".03"
    stroke="#4d508e"
    stroke-width="2"
  />
  <g fill="#4d508e">
    <circle cx="109" cy="13" r="1" />
    <circle cx="113" cy="13" r="1" />
    <circle cx="117" cy="13" r="1" />
  </g>
  <g stroke-width="2" stroke-linecap="round">
    <path d="M20 25v12" stroke="#0078e8" />
    <g stroke="#4d508e">
      <path d="M20 42v8m0 4v4m0 4v4m0 4v4m0 4v4" />
      <path d="M20 70v4m90-26v6" />
    </g>
    <path d="M103 61v4m0 3v.5" stroke="#f5f7f9" />
    <path d="M110 58v4m0 4v4m0 12v4m0-12v4" stroke="#4d508e" />
    <path d="M20.5 37c33.5 0 35 48.5 83 48.5M20.5 25c33.5 0 43.5 22.5 83 23.503" stroke="#0078e8" />
    <path
      d="M116 78l-7.895-7.898m2.245-5.425a7.68 7.68 0 0 1-2.248 5.429c-1.44 1.44-3.392 2.249-5.427 2.249s-3.988-.809-5.427-2.249a7.68 7.68 0 0 1 0-10.858c1.439-1.44 3.391-2.249 5.427-2.249s3.987.809 5.427 2.249a7.68 7.68 0 0 1 2.248 5.429z"
      stroke="#f5f7f9"
    />
  </g>
</svg>
