<svg id="bonk" data-name="bonk" xmlns="http://www.w3.org/2000/svg"
  viewBox="0 0 512 512">
  <circle cx="256" cy="256" r="255.99999" fill="#fdde00" />
  <path
    d="M131.38959,180.995s-13.237,16.66882-8.82466,92.16875c0,0-28.9253,74.02915-19.12012,111.77912s48.04541,35.78893,48.04541,35.78893,61.28242,53.92852,108.34731,6.37337-39.22075-231.89265-39.22075-231.89265l-10.7857-63.7337s-11.76622,9.31492-10.29545,70.59733-24.0227,18.1396-24.0227,18.1396Z"
    fill="#3c2d0c" />
  <path
    d="M136.29219,247.67027l-16.17856,45.59411-5.88311,31.86686s-20.10063,71.08759,62.75319,70.10707c0,0,64.71422,57.8506,106.87652,19.12012l11.276-12.25648,19.61037-30.39608,32.35711-96.58108s-10.29544-66.185-75.49993-93.63953c0,0-5.39285-2.94155-15.198.98052,0,0-26.96426-60.79215-44.12333-53.43826,0,0-14.70778,7.84415-1.961,67.65578l-23.04219,10.29545s-25.2035-47.7852-48.53567-38.24023C117.17207,177.56319,136.29219,247.67027,136.29219,247.67027Z"
    fill="#e78c19" />
  <path
    d="M220.12652,158.93334l1.961,26.474s1.47078,15.198,17.64938,9.80517c4.57253-1.52418,8.58868-4.70871,8.16585-9.93588-.3166-3.914-3.04984-7.45769-4.82791-10.83438-3.32906-6.32212-5.99567-13.03075-9.86694-19.05272-1.98121-3.092-6.05921-10.00957-10.63012-9.20293C222.57782,146.1866,219.20729,145.20608,220.12652,158.93334Z"
    fill="#efb99d" />
  <path
    d="M149.2535,188.65525c.30914-.20238,6.89548-8.54693,20.59081,11.67436,13.69662,20.22319,12.31776,17.55741,12.31776,17.55741s7.35388,8.08926-7.72158,18.47664a47.81623,47.81623,0,0,1-10.66622,5.95938,19.68415,19.68415,0,0,1-7.41837,1.42041c-2.86161-.13625-4.15007-1.59795-4.857-4.291-2.31669-8.82509-4.92653-17.60208-6.249-26.64485C144.253,205.99092,142.26136,193.23277,149.2535,188.65525Z"
    fill="#efb99d" />
  <path
    d="M308.47437,229.40138c0,4.806-7.02593,8.70211-15.69284,8.70211s-15.69284-3.89607-15.69284-8.70211,7.17442-11.88206,15.84134-11.88206S308.47437,224.59535,308.47437,229.40138Z"
    fill="#fbfbfb" />
  <ellipse cx="208.43967" cy="261.53786" rx="17.1433" ry="10.95428"
    transform="translate(-121.83855 314.12531) rotate(-60.49275)" fill="#fbfbfb" />
  <path
    d="M240.22716,306.74651l42.89768-22.30679s53.43827-27.94478,66.43014-6.37338,0,54.41879,0,54.41879-5.638,38.48535-44.85873,41.91717l-21.08115,2.94155-26.96426.73539s-43.388,2.4513-75.2548-21.08115l-10.05031-12.25648S151,316.79683,165.21748,296.6962,227.97067,307.727,227.97067,307.727,234.58917,311.15885,240.22716,306.74651Z"
    fill="#fbfbfb" />
  <circle cx="337.54363" cy="185.16221" r="10.29545" fill="#e72d36" />
  <circle cx="314.74657" cy="159.91386" r="10.29545" fill="#e72d36" />
  <circle cx="278.22225" cy="151.82458" r="10.29545" fill="#e72d36" />
  <path
    d="M286.31153,78.77594c2.20617,30.39608-2.18177,57.8506-9.56006,57.8506s-17.15907-29.66069-17.15907-57.8506c0-11.64279,6.10384-13.48213,13.48213-13.48213S285.4687,67.16369,286.31153,78.77594Z"
    fill="#e72d36" />
  <path
    d="M354.51511,97.74653c-11.21011,28.33708-27.08358,51.162-33.73058,47.959s-2.58008-34.16591,9.65964-59.55806c5.05517-10.48728,11.35266-9.49432,17.99967-6.29132S358.79772,86.92088,354.51511,97.74653Z"
    fill="#e72d36" />
  <path
    d="M403.26341,152.861c-24.67557,17.90385-50.326,28.65182-54.21464,22.38059s16.16969-30.22538,40.13263-45.0907c9.897-6.13957,14.67749-1.9215,18.56613,4.34973S412.69024,146.02116,403.26341,152.861Z"
    fill="#e72d36" />
  <path
    d="M238.1967,276.83744c-.92483.07189-1.82334.18831-2.69206.339a3.08515,3.08515,0,0,1,.1708.96611c0,3.13789-4.87857,5.69464-11.02,5.86671a3.46038,3.46038,0,0,0-.03884.79775c.29475,3.796,6.85265,6.38293,14.64741,5.77766,7.79488-.60527,13.87482-4.17335,13.58007-7.96962C252.54936,278.81906,245.99158,276.23217,238.1967,276.83744Z" />
  <path
    d="M292.43164,263.41659c-.92484.07189-1.82335.18831-2.69206.33905a3.08514,3.08514,0,0,1,.17079.96611c0,3.13789-4.87856,5.69464-11.02,5.86671a3.46039,3.46039,0,0,0-.03885.79775c.29475,3.796,6.85265,6.38293,14.64741,5.77766,7.79488-.60527,13.87483-4.17335,13.58008-7.96962C306.7843,265.39821,300.22651,262.81132,292.43164,263.41659Z" />
  <path
    d="M310.21167,279.292s-21.51013,6.25081-20.2232,18.38473,27.20939,18.38472,27.20939,18.38472,6.9862,2.75771,11.03084-3.86079,9.92775-15.627,8.27312-28.49632C336.50182,283.70433,335.95028,274.14427,310.21167,279.292Z" />
</svg>