<svg xmlns="http://www.w3.org/2000/svg" width="32" height="25" viewBox="0 -1 32 25" fill="none">
  <path
    d="M17.0987 13.2152C17.0926 12.4629 17.3706 11.7359 17.8772 11.1796C18.3838 10.6234 19.0816 10.2788 19.8313 10.2147H32.3691L28.297 12.9272H21.4722C21.0322 12.929 20.6107 13.1045 20.2996 13.4157C19.9885 13.7268 19.8129 14.1482 19.8112 14.5882V21.3729L17.1322 24.5944L17.0987 13.2152Z"
    fill="#ffffff"
  />
  <path
    d="M16.1508 9.57851C15.4519 9.59524 14.7741 9.33806 14.2621 8.86187L5.2137 0.000976562L10.1364 0.965428L15.0658 5.80108C15.3814 6.11073 15.8058 6.2842 16.248 6.2842C16.6901 6.2842 17.1145 6.11073 17.4301 5.80108L22.3729 0.972125L27.2822 0.000976562L18.4347 8.70783C17.8103 9.27544 16.9946 9.5864 16.1508 9.57851Z"
    fill="#ffffff"
  />
  <path
    d="M12.5508 21.3657V14.5877C12.5508 14.1466 12.376 13.7234 12.0647 13.4108C11.7534 13.0983 11.3309 12.9218 10.8898 12.92H4.05824L-0.000488281 10.2075H12.2628C13.0376 10.2189 13.7812 10.5144 14.3524 11.038C14.6299 11.2742 14.8545 11.5664 15.0114 11.8953C15.1684 12.2242 15.2542 12.5825 15.2633 12.9468V24.5939L12.5508 21.3657Z"
    fill="#ffffff"
  />
</svg>
