<svg id="svg" version="1.1" xmlns="http://www.w3.org/2000/svg" xmlns:xlink="http://www.w3.org/1999/xlink" width="400"
  height="400" viewBox="0, 0, 400,400">
  <g id="svgg">
    <circle id="circle0" cx="200" cy="200" r="200" stroke="none" fill="#020321" fill-rule="evenodd"></circle>
    <path id="path0"
      d="M159.400 91.978 C 129.196 92.225,130.841 92.069,128.061 94.937 C 124.934 98.163,125.200 88.117,125.200 203.112 L 125.200 305.445 126.062 307.998 C 128.965 316.594,141.305 316.892,143.596 308.421 C 143.807 307.640,144.225 306.640,144.524 306.200 C 144.823 305.760,145.302 304.540,145.589 303.490 C 145.875 302.439,146.253 301.491,146.429 301.382 C 146.604 301.274,147.045 300.161,147.409 298.910 C 147.773 297.659,148.325 296.272,148.635 295.828 C 148.946 295.385,149.200 294.733,149.200 294.379 C 149.200 294.025,149.649 292.850,150.198 291.768 C 150.747 290.686,151.197 289.516,151.198 289.168 C 151.199 288.820,151.643 287.660,152.186 286.589 C 152.728 285.518,153.285 284.093,153.424 283.421 C 153.564 282.749,153.991 281.655,154.373 280.988 C 154.756 280.322,155.201 279.252,155.362 278.610 C 155.523 277.969,155.939 276.804,156.286 276.022 C 157.038 274.331,158.166 271.423,159.235 268.422 C 159.662 267.223,160.255 265.871,160.553 265.416 C 160.851 264.961,161.228 263.961,161.391 263.194 C 161.554 262.427,162.015 261.170,162.417 260.400 C 162.818 259.630,163.359 258.280,163.618 257.400 C 163.877 256.520,164.311 255.440,164.581 255.000 C 164.852 254.560,165.202 253.660,165.360 253.000 C 165.518 252.340,165.978 251.080,166.384 250.200 C 166.789 249.320,167.344 247.880,167.617 247.000 C 167.890 246.120,168.358 245.045,168.657 244.611 C 168.956 244.177,169.200 243.533,169.200 243.179 C 169.200 242.825,169.643 241.660,170.186 240.589 C 170.728 239.518,171.287 238.093,171.429 237.421 C 171.571 236.749,172.015 235.570,172.416 234.800 C 172.817 234.030,173.441 232.457,173.803 231.305 C 174.165 230.152,174.607 229.119,174.785 229.009 C 174.963 228.899,175.235 228.132,175.389 227.304 C 175.542 226.477,176.001 225.170,176.407 224.400 C 176.814 223.630,177.364 222.280,177.630 221.400 C 177.896 220.520,178.358 219.445,178.657 219.011 C 178.956 218.577,179.200 217.933,179.200 217.579 C 179.200 217.225,179.643 216.060,180.186 214.989 C 180.728 213.918,181.287 212.493,181.429 211.821 C 181.571 211.149,182.015 209.970,182.417 209.200 C 182.818 208.430,183.359 207.080,183.618 206.200 C 183.877 205.320,184.308 204.240,184.575 203.800 C 184.842 203.360,185.297 202.140,185.585 201.090 C 185.874 200.039,186.253 199.091,186.429 198.982 C 186.604 198.874,187.046 197.754,187.412 196.493 C 187.777 195.232,188.239 194.001,188.439 193.757 C 188.640 193.513,189.163 192.298,189.602 191.057 C 190.041 189.816,190.762 187.775,191.205 186.522 C 191.648 185.268,192.255 183.871,192.553 183.416 C 192.851 182.961,193.226 181.961,193.386 181.194 C 193.546 180.427,193.986 179.260,194.362 178.600 C 194.739 177.940,195.286 176.540,195.578 175.490 C 195.871 174.439,196.253 173.491,196.429 173.382 C 196.604 173.274,197.047 172.154,197.412 170.893 C 197.778 169.632,198.327 168.150,198.633 167.600 C 199.163 166.647,199.474 165.840,201.243 160.822 C 201.665 159.623,202.255 158.271,202.553 157.816 C 202.851 157.361,203.226 156.361,203.386 155.594 C 203.546 154.827,203.991 153.655,204.373 152.988 C 204.756 152.322,205.199 151.242,205.358 150.588 C 205.517 149.935,205.966 148.680,206.355 147.800 C 207.731 144.690,208.868 141.776,209.474 139.805 C 209.811 138.708,210.338 137.453,210.644 137.016 C 210.950 136.579,211.200 135.933,211.200 135.579 C 211.200 135.225,211.643 134.060,212.186 132.989 C 212.728 131.918,213.287 130.493,213.429 129.821 C 213.571 129.149,214.015 127.970,214.417 127.200 C 214.818 126.430,215.359 125.080,215.618 124.200 C 215.877 123.320,216.308 122.240,216.575 121.800 C 216.842 121.360,217.297 120.140,217.585 119.090 C 217.874 118.039,218.253 117.091,218.429 116.982 C 218.604 116.874,219.023 115.844,219.361 114.693 C 219.698 113.542,220.339 111.887,220.787 111.015 C 221.234 110.144,221.601 109.154,221.601 108.815 C 221.602 108.477,221.955 107.622,222.386 106.917 C 225.386 101.995,222.743 94.310,217.400 92.422 C 215.488 91.746,201.146 91.636,159.400 91.978 "
      stroke="none" fill="#f904aa" fill-rule="evenodd">
    </path>
    <path id="path1"
      d="M255.864 118.659 C 252.840 119.536,249.828 123.380,248.389 128.200 C 248.126 129.080,247.689 130.160,247.419 130.600 C 247.148 131.040,246.800 131.915,246.645 132.544 C 246.489 133.173,246.027 134.433,245.616 135.344 C 245.206 136.255,244.649 137.720,244.378 138.600 C 244.108 139.480,243.642 140.555,243.343 140.989 C 243.044 141.423,242.800 142.067,242.800 142.421 C 242.800 142.775,242.357 143.940,241.814 145.011 C 241.272 146.082,240.715 147.507,240.576 148.179 C 240.436 148.851,239.999 149.963,239.604 150.651 C 239.209 151.338,238.757 152.508,238.599 153.251 C 238.442 153.993,237.985 155.230,237.584 156.000 C 237.183 156.770,236.559 158.343,236.197 159.495 C 235.835 160.648,235.373 161.693,235.169 161.819 C 234.966 161.944,234.800 162.361,234.800 162.745 C 234.800 163.129,234.372 164.333,233.849 165.421 C 233.326 166.510,232.623 168.210,232.287 169.200 C 231.208 172.376,229.557 176.569,229.220 176.991 C 229.040 177.216,228.762 178.030,228.603 178.800 C 228.443 179.570,227.985 180.830,227.583 181.600 C 227.182 182.370,226.638 183.720,226.375 184.600 C 226.111 185.480,225.756 186.380,225.585 186.600 C 225.414 186.820,224.915 187.990,224.476 189.200 C 224.037 190.410,223.224 192.570,222.669 194.000 C 222.115 195.430,221.185 197.856,220.604 199.391 C 220.023 200.926,219.400 202.366,219.220 202.591 C 219.040 202.816,218.762 203.630,218.603 204.400 C 218.443 205.170,217.985 206.430,217.583 207.200 C 217.182 207.970,216.636 209.320,216.370 210.200 C 216.104 211.080,215.642 212.155,215.343 212.589 C 215.044 213.023,214.800 213.663,214.800 214.010 C 214.800 214.358,214.369 215.533,213.841 216.621 C 213.314 217.710,212.580 219.543,212.211 220.695 C 211.841 221.848,211.393 222.881,211.215 222.991 C 211.037 223.101,210.767 223.868,210.616 224.696 C 210.465 225.523,210.029 226.740,209.647 227.400 C 209.266 228.060,208.714 229.460,208.422 230.510 C 208.129 231.561,207.747 232.509,207.571 232.618 C 207.396 232.726,206.977 233.756,206.639 234.907 C 206.302 236.058,205.661 237.713,205.213 238.585 C 204.766 239.456,204.399 240.446,204.399 240.785 C 204.398 241.123,204.038 241.989,203.599 242.710 C 203.159 243.430,202.800 244.344,202.800 244.742 C 202.800 245.139,202.357 246.340,201.814 247.411 C 201.272 248.482,200.715 249.907,200.576 250.579 C 200.436 251.251,200.009 252.345,199.627 253.012 C 199.244 253.678,198.801 254.758,198.642 255.412 C 198.483 256.065,198.014 257.320,197.600 258.200 C 196.851 259.790,196.226 261.411,194.757 265.578 C 194.335 266.777,193.745 268.129,193.447 268.584 C 193.149 269.039,192.774 270.039,192.614 270.806 C 192.454 271.573,192.014 272.740,191.638 273.400 C 191.261 274.060,190.714 275.460,190.422 276.510 C 190.129 277.561,189.747 278.509,189.571 278.618 C 189.396 278.726,188.953 279.846,188.588 281.107 C 188.222 282.368,187.673 283.850,187.367 284.400 C 186.837 285.353,186.526 286.160,184.757 291.178 C 184.335 292.377,183.745 293.729,183.447 294.184 C 183.149 294.639,182.772 295.639,182.609 296.406 C 182.446 297.173,181.985 298.430,181.584 299.200 C 181.183 299.970,180.559 301.543,180.197 302.695 C 179.835 303.848,179.373 304.893,179.169 305.019 C 178.966 305.144,178.814 306.542,178.831 308.124 C 178.870 311.660,180.033 313.850,183.004 315.986 L 184.973 317.400 189.986 317.522 C 198.387 317.727,214.999 315.960,217.147 314.633 C 217.379 314.489,219.061 314.025,220.885 313.600 C 224.893 312.667,228.904 311.373,230.800 310.403 C 231.570 310.009,232.830 309.557,233.600 309.399 C 234.370 309.241,235.270 308.884,235.600 308.606 C 235.930 308.328,236.920 307.872,237.800 307.592 C 238.680 307.313,239.813 306.762,240.319 306.369 C 240.824 305.977,241.769 305.539,242.419 305.396 C 243.068 305.253,243.600 304.998,243.600 304.829 C 243.600 304.660,244.364 304.179,245.297 303.761 C 246.230 303.342,247.310 302.685,247.697 302.300 C 248.084 301.915,248.645 301.600,248.945 301.600 C 249.245 301.600,250.169 301.060,251.000 300.400 C 251.831 299.740,252.755 299.200,253.055 299.200 C 253.355 299.200,253.600 299.025,253.600 298.810 C 253.600 298.596,254.185 298.121,254.900 297.754 C 255.615 297.387,256.740 296.655,257.400 296.127 C 258.060 295.598,259.050 294.811,259.600 294.378 C 267.660 288.022,274.436 281.405,278.600 275.827 C 279.040 275.237,279.798 274.270,280.284 273.677 C 282.548 270.917,283.133 270.110,283.754 268.900 C 284.121 268.185,284.596 267.600,284.810 267.600 C 285.025 267.600,285.200 267.355,285.200 267.055 C 285.200 266.755,285.740 265.831,286.400 265.000 C 287.060 264.169,287.600 263.279,287.600 263.020 C 287.600 262.762,287.915 262.202,288.300 261.775 C 289.060 260.934,294.000 251.163,294.000 250.502 C 294.000 250.280,294.251 249.890,294.558 249.635 C 294.865 249.380,295.240 248.503,295.392 247.686 C 295.544 246.869,296.002 245.570,296.411 244.800 C 296.819 244.030,297.450 242.320,297.814 241.000 C 298.178 239.680,298.615 238.420,298.786 238.200 C 298.956 237.980,299.218 237.080,299.367 236.200 C 299.517 235.320,299.980 233.520,300.396 232.200 C 300.813 230.880,301.438 227.958,301.784 225.707 C 302.131 223.456,302.622 221.116,302.875 220.507 C 303.578 218.818,303.548 191.983,302.841 189.600 C 302.547 188.610,301.972 185.910,301.562 183.600 C 300.510 177.664,298.023 168.947,296.371 165.400 C 295.961 164.520,295.505 163.260,295.359 162.600 C 295.212 161.940,294.869 161.130,294.597 160.800 C 294.324 160.470,293.871 159.485,293.590 158.611 C 293.309 157.737,292.841 156.784,292.550 156.493 C 292.259 156.202,291.808 155.252,291.547 154.382 C 291.287 153.512,290.944 152.800,290.786 152.800 C 290.628 152.800,290.111 151.900,289.638 150.800 C 289.165 149.700,288.620 148.800,288.428 148.800 C 288.236 148.800,287.890 148.260,287.660 147.601 C 287.430 146.942,286.783 145.800,286.221 145.063 C 285.660 144.327,285.200 143.560,285.200 143.358 C 285.200 143.157,284.840 142.768,284.400 142.493 C 283.960 142.218,283.600 141.751,283.600 141.455 C 283.600 141.159,283.195 140.448,282.700 139.875 C 282.205 139.302,281.260 138.108,280.600 137.222 C 279.940 136.335,278.950 135.095,278.400 134.465 C 277.850 133.836,276.680 132.441,275.800 131.366 C 273.638 128.725,265.187 120.400,264.668 120.400 C 264.439 120.400,263.840 120.013,263.337 119.541 C 262.414 118.673,257.724 118.120,255.864 118.659 "
      stroke="none" fill="#04d9f9" fill-rule="evenodd">
    </path>
  </g>
</svg>