<svg version="1.1" id="Layer_1" xmlns="http://www.w3.org/2000/svg" xmlns:xlink="http://www.w3.org/1999/xlink" x="0px"
  y="0px" width="100%" viewBox="0 0 64 64" enable-background="new 0 0 64 64" xml:space="preserve">

  <circle cx="32" cy="32" r="32" fill="#2474DA" />

  <path fill="#F2F2F2" opacity="1.000000" stroke="none" d="
M26.488712,46.162697 
	C20.677143,47.432186 15.636539,44.773388 12.656308,39.192001 
	C9.557394,33.388340 10.663819,27.508976 15.751006,22.747271 
	C19.454609,19.280626 23.699598,18.475660 27.285606,20.559992 
	C19.095428,27.297892 17.488155,34.916508 22.974119,41.659306 
	C24.157907,43.114304 25.817904,44.181198 27.248024,45.438828 
	C27.305052,45.488976 27.300827,45.711491 27.242228,45.768547 
	C27.128378,45.879406 26.955574,45.929718 26.488712,46.162697 
z" />
  <path fill="#F2F2F2" opacity="1.000000" stroke="none" d="
M51.278263,23.773609 
	C56.918736,30.634624 55.684292,36.702969 51.933662,41.499569 
	C48.371548,46.055084 43.098202,47.650963 38.525097,45.680817 
	C42.613506,42.317436 46.163288,38.899643 46.108757,32.933132 
	C46.055141,27.066837 42.670052,23.687643 38.273464,20.170721 
	C43.500317,18.474724 47.498531,19.995611 51.278263,23.773609 
z" />
</svg>