<svg
  xmlns="http://www.w3.org/2000/svg"
  width="32"
  height="32"
  fill="none"
  xmlns:v="https://vecta.io/nano"
>
  <path
    d="M15 .577a2 2 0 0 1 2 0l11.856 6.845a2 2 0 0 1 1 1.732v13.691a2 2 0 0 1-1 1.732L17 31.423a2 2 0 0 1-2 0L3.144 24.577a2 2 0 0 1-1-1.732V9.155a2 2 0 0 1 1-1.732L15 .577z"
    fill="#f3f4fc"
  />
  <circle cx="16.001" cy="16" r="9.917" stroke="#000" stroke-width="1.5" />
  <path
    d="M16.104 21.333c-.283 0-.513-.23-.513-.513v-.589c-.525-.049-.967-.194-1.326-.433-.225-.155-.432-.334-.619-.534-.196-.21-.174-.533.02-.745.26-.284.713-.249 1.005.003l.174.138c.248.173.528.285.839.334v-2.512c-.759-.19-1.308-.478-1.647-.866-.331-.396-.497-.899-.497-1.51 0-.66.179-1.188.538-1.584.359-.404.863-.652 1.512-.742v-.601c0-.283.229-.513.513-.513s.513.23.513.513v.601a2.72 2.72 0 0 1 1.118.384c.19.118.364.263.524.434.195.208.159.533-.039.738-.26.269-.707.232-1.003.004a1.75 1.75 0 0 0-.694-.322v2.302c.739.206 1.281.495 1.626.866.345.363.518.866.518 1.51 0 .635-.173 1.184-.518 1.646-.345.454-.856.738-1.533.854v.626c0 .283-.23.513-.513.513zm-1.31-7.289c0 .289.069.511.207.668.145.157.373.285.683.384v-2.091c-.594.124-.891.47-.891 1.039zm2.63 3.762a1.07 1.07 0 0 0-.197-.643c-.124-.19-.359-.342-.704-.458v2.277c.29-.074.511-.214.663-.421.159-.214.238-.466.238-.755z"
    fill="#010014"
  />
</svg>
