<svg
  xmlns="http://www.w3.org/2000/svg"
  version="1.1"
  width="260px"
  height="260px"
  style="
    shape-rendering: geometricPrecision;
    text-rendering: geometricPrecision;
    image-rendering: optimizeQuality;
    fill-rule: evenodd;
    clip-rule: evenodd;
  "
  xmlns:xlink="http://www.w3.org/1999/xlink"
>
  <g>
    <path
      style="opacity: 0.994"
      fill="#dddddd"
      d="M 142.5,257.5 C 143.056,221.585 126.722,197.085 93.5,184C 89.2464,182.686 84.913,181.853 80.5,181.5C 80.8323,124.664 80.499,67.9975 79.5,11.5C 124.228,-6.056 166.561,-1.22267 206.5,26C 246.914,58.5402 263.414,100.707 256,152.5C 246.538,198.257 220.372,230.423 177.5,249C 166.166,253.25 154.499,256.084 142.5,257.5 Z"
    />
  </g>
  <g>
    <path
      style="opacity: 0.992"
      fill="#172f52"
      d="M 79.5,11.5 C 80.499,67.9975 80.8323,124.664 80.5,181.5C 84.913,181.853 89.2464,182.686 93.5,184C 126.722,197.085 143.056,221.585 142.5,257.5C 96.1097,260.66 57.943,244.66 28,209.5C 25.6422,206.778 23.8089,203.778 22.5,200.5C 34.4851,189.843 48.4851,183.51 64.5,181.5C 64.8323,127.331 64.499,73.3308 63.5,19.5C 68.2363,15.7985 73.5696,13.1318 79.5,11.5 Z"
    />
  </g>
  <g>
    <path
      style="opacity: 0.989"
      fill="#dcdcdc"
      d="M 63.5,19.5 C 64.499,73.3308 64.8323,127.331 64.5,181.5C 48.4851,183.51 34.4851,189.843 22.5,200.5C 8.16941,179.502 0.836072,156.168 0.5,130.5C 1.2875,89.9403 16.9542,56.4403 47.5,30C 52.4453,25.8842 57.7786,22.3842 63.5,19.5 Z"
    />
  </g>
</svg>
