<svg xmlns="http://www.w3.org/2000/svg" width="24" height="24" fill="none" xmlns:v="https://vecta.io/nano">
  <mask id="A" maskUnits="userSpaceOnUse" x="4" y="4" width="16" height="16" mask-type="alpha">
    <path fill="#d9d9d9" d="M4 4h16v16H4z" />
  </mask>
  <g mask="url(#A)">
    <path fill-rule="evenodd"
      d="M5.523 10.597h11.185c.14 0 .273.055.37.154l1.77 1.769a.52.52 0 0 1-.37.883H7.293c-.14 0-.273-.055-.37-.154l-1.769-1.769a.52.52 0 0 1 .37-.883zm-.37-2.345l1.769-1.769c.099-.098.232-.154.37-.154h11.182a.52.52 0 0 1 .37.883l-1.767 1.769c-.099.098-.232.154-.37.154H5.523a.52.52 0 0 1-.37-.883zm13.692 7.495l-1.769 1.769c-.099.098-.232.154-.37.154H5.523a.52.52 0 0 1-.37-.883l1.769-1.769c.099-.098.232-.154.37-.154h11.182a.52.52 0 0 1 .37.883z"
      fill="#fff" />
  </g>
</svg>