<svg version="1.1" id="Layer_1" xmlns="http://www.w3.org/2000/svg" xmlns:xlink="http://www.w3.org/1999/xlink" x="0px"
  y="0px" width="100%" viewBox="0 0 300 296" enable-background="new 0 0 300 296" xml:space="preserve">
  <path fill="#5493F7" opacity="1.000000" stroke="none" d="
M301.000000,131.000000 
	C301.000000,143.354233 301.000000,155.708450 300.660004,168.757111 
	C298.480377,177.734100 296.640717,186.016663 294.682190,193.850586 
	C294.367004,191.900940 294.170654,190.399918 294.187988,188.501373 
	C294.504120,185.859024 294.606567,183.614212 294.734192,180.817276 
	C279.230316,181.753174 264.361572,182.683456 249.488586,183.540863 
	C227.288162,184.820663 205.084763,186.049057 182.557434,187.138687 
	C174.818817,184.362045 167.405426,181.746017 159.625275,179.054169 
	C144.623871,171.600510 129.792892,164.581497 115.422310,156.720871 
	C105.552605,151.322189 97.152054,143.820190 90.857384,134.307938 
	C81.238892,119.772835 77.264587,104.578651 86.217514,87.853409 
	C94.307671,75.231384 104.892303,65.661858 117.824081,59.042717 
	C128.750458,53.450047 139.897324,47.987190 151.482971,44.042084 
	C181.739838,33.739147 212.210281,23.711010 244.992538,31.052481 
	C244.996979,31.023895 244.939575,31.032322 245.027740,31.273571 
	C245.425552,31.635420 245.735214,31.756018 246.350769,32.033340 
	C249.877274,34.734245 253.289566,37.072006 256.287445,39.856007 
	C276.183014,58.332165 289.269623,80.893906 295.946289,107.146088 
	C297.947998,115.016731 299.332642,123.044319 301.000000,131.000000 
z" />
  <path fill="#5493F7" opacity="1.000000" stroke="none" d="
M1.000001,136.468658 
	C1.997594,129.908890 2.826135,123.783897 4.038605,117.735870 
	C5.345540,111.216629 7.011966,104.769447 8.818072,97.018311 
	C13.115768,102.595016 16.487078,107.018890 19.910067,111.402412 
	C31.913240,126.773827 44.686100,141.613785 55.723606,157.648880 
	C65.522919,171.885147 73.728615,187.264618 82.031387,202.470551 
	C89.039864,215.306076 91.669014,229.557297 91.860580,244.020157 
	C92.041542,257.681854 91.059792,271.358948 90.574585,285.461853 
	C53.412388,271.791840 6.444066,232.173859 1.343094,168.235352 
	C1.000000,157.645767 1.000000,147.291550 1.000001,136.468658 
z" />
  <path fill="#2844AD" opacity="1.000000" stroke="none" d="
M86.217514,87.853409 
	C76.416588,84.121452 69.755875,77.357101 66.230896,67.113678 
	C72.518250,63.586796 78.641464,60.659775 84.748047,57.698467 
	C94.664719,52.889507 102.936371,46.197067 108.511528,36.535801 
	C114.558495,26.056946 113.207314,18.997057 103.986130,12.155594 
	C116.234154,6.546619 129.092316,3.155947 142.724335,1.288306 
	C153.354233,1.000000 163.708450,1.000000 174.805817,1.287930 
	C201.375473,5.103322 224.797546,14.289584 244.988098,31.081066 
	C212.210281,23.711010 181.739838,33.739147 151.482971,44.042084 
	C139.897324,47.987190 128.750458,53.450047 117.824081,59.042717 
	C104.892303,65.661858 94.307671,75.231384 86.217514,87.853409 
z" />
  <path fill="#B32436" opacity="1.000000" stroke="none" d="
M109.468636,297.000000 
	C109.008690,294.769592 109.017380,292.539215 109.487419,289.785034 
	C142.840286,287.253265 175.729706,285.210480 208.623901,283.247559 
	C238.692841,281.453217 268.766937,279.745300 298.892090,278.427979 
	C298.945404,281.266968 298.945404,283.677277 298.945404,286.201416 
	C296.317169,286.201416 294.518402,286.065186 292.746338,286.225098 
	C285.201538,286.905884 277.678528,287.918671 270.121307,288.346588 
	C261.463257,288.836945 252.760818,288.568512 244.107101,289.104767 
	C225.794830,290.239471 207.510193,291.820465 189.197937,292.955780 
	C174.818054,293.847260 160.407639,294.240295 146.023911,295.079773 
	C141.660110,295.334503 137.340073,296.338959 133.000000,297.000000 
	C125.312424,297.000000 117.624847,297.000000 109.468636,297.000000 
z" />
  <path fill="#FAF6F7" opacity="1.000000" stroke="none" d="
M294.682190,193.850586 
	C294.886353,194.964264 294.971619,195.629288 294.706970,196.566193 
	C266.928040,198.577835 239.497101,200.288132 212.071014,202.072968 
	C202.115814,202.720840 192.172195,203.546753 181.826401,204.088257 
	C181.387009,201.185089 181.344513,198.485107 181.707001,195.789307 
	C219.399429,193.495285 256.686859,191.197098 293.974304,188.898911 
	C294.170654,190.399918 294.367004,191.900940 294.682190,193.850586 
z" />
  <path fill="#B0263A" opacity="1.000000" stroke="none" d="
M294.187988,188.501373 
	C256.686859,191.197098 219.399429,193.495285 181.646545,195.385132 
	C181.748276,192.417633 182.315460,189.858475 182.882629,187.299316 
	C205.084763,186.049057 227.288162,184.820663 249.488586,183.540863 
	C264.361572,182.683456 279.230316,181.753174 294.734192,180.817276 
	C294.606567,183.614212 294.504120,185.859024 294.187988,188.501373 
z" />
  <path fill="#2A44AB" opacity="1.000000" stroke="none" d="
M182.557434,187.138687 
	C182.315460,189.858475 181.748276,192.417633 181.241547,195.380951 
	C181.344513,198.485107 181.387009,201.185089 181.846756,204.519730 
	C182.358612,207.468704 182.453232,209.783020 182.456116,212.523712 
	C182.425583,215.266510 182.486771,217.582916 182.467316,220.349579 
	C182.440247,223.234482 182.493805,225.669144 182.454742,228.540451 
	C182.424255,231.348602 182.486389,233.720123 182.466766,236.470215 
	C182.478775,239.211777 182.572540,241.574768 182.317383,244.042114 
	C181.240402,244.122940 180.512360,244.099365 179.828262,243.604309 
	C179.906433,226.816513 179.830887,210.498779 180.049454,194.184952 
	C180.106506,189.926102 178.477905,188.657242 174.464737,188.864059 
	C165.005722,189.351562 155.533401,189.580765 146.066452,189.914459 
	C150.568283,186.490555 155.070114,183.066681 159.781982,179.386383 
	C167.405426,181.746017 174.818817,184.362045 182.557434,187.138687 
z" />
  <path fill="#2844AD" opacity="1.000000" stroke="none" d="
M245.027740,31.273571 
	C245.276230,31.072062 245.558548,31.217327 245.915710,31.672367 
	C245.735214,31.756018 245.425552,31.635420 245.027740,31.273571 
z" />
  <path fill="#424274" opacity="1.000000" stroke="none" d="
M145.608047,189.937790 
	C155.533401,189.580765 165.005722,189.351562 174.464737,188.864059 
	C178.477905,188.657242 180.106506,189.926102 180.049454,194.184952 
	C179.830887,210.498779 179.906433,226.816513 179.465073,243.746735 
	C161.838623,245.245132 144.613556,246.032822 127.402893,247.061829 
	C120.552925,247.471390 113.734879,248.414993 106.902298,249.115479 
	C106.284149,243.556107 105.370186,238.010605 105.109161,232.434525 
	C104.558319,220.666992 104.367599,208.882874 103.987427,197.106903 
	C103.886253,193.972977 104.806366,192.128448 108.411659,191.965881 
	C120.662880,191.413467 132.904419,190.646286 145.608047,189.937790 
z" />
  <path fill="#5493F7" opacity="1.000000" stroke="none" d="
M103.578308,12.098042 
	C113.207314,18.997057 114.558495,26.056946 108.511528,36.535801 
	C102.936371,46.197067 94.664719,52.889507 84.748047,57.698467 
	C78.641464,60.659775 72.518250,63.586796 66.168304,66.790390 
	C51.199490,73.964973 36.264412,80.320366 20.058182,82.957230 
	C18.533710,83.205261 16.882853,82.676506 15.290676,82.508400 
	C15.665251,81.046013 15.715401,79.387321 16.463524,78.150970 
	C26.190382,62.076427 37.364975,47.064999 51.269344,34.381634 
	C62.426117,24.204580 74.804832,15.665652 89.998260,12.605510 
	C94.254280,11.748295 98.772522,12.192995 103.578308,12.098042 
z" />
  <path fill="#FBF7F7" opacity="1.000000" stroke="none" d="
M297.054077,268.897217 
	C301.250214,270.803772 297.977600,274.460693 298.909424,277.557495 
	C268.766937,279.745300 238.692841,281.453217 208.623901,283.247559 
	C175.729706,285.210480 142.840286,287.253265 109.498444,289.372253 
	C108.692604,287.260803 108.337105,285.038269 108.303040,282.116760 
	C109.763161,281.244904 110.896362,280.981232 112.041313,280.912170 
	C168.315384,277.517914 224.591934,274.164551 280.863037,270.722198 
	C286.277008,270.391052 291.657867,269.518463 297.054077,268.897217 
z" />
  <path fill="#F9F7F9" opacity="1.000000" stroke="none" d="
M106.941467,249.536377 
	C113.734879,248.414993 120.552925,247.471390 127.402893,247.061829 
	C144.613556,246.032822 161.838623,245.245132 179.421112,244.218246 
	C180.512360,244.099365 181.240402,244.122940 182.798706,244.121704 
	C215.334976,242.227341 247.042740,240.385971 278.745514,238.462585 
	C284.528931,238.111710 290.292084,237.426575 296.064575,236.895752 
	C296.707764,239.319016 297.350922,241.742264 297.532471,244.698395 
	C296.443054,245.407730 295.822479,245.705078 295.186340,245.743240 
	C271.450745,247.167206 247.711426,248.529739 223.977402,249.978958 
	C185.308365,252.340164 146.642670,254.755859 107.975555,257.148529 
	C107.643913,254.751434 107.312271,252.354355 106.941467,249.536377 
z" />
  <path fill="#B2273A" opacity="1.000000" stroke="none" d="
M107.979370,257.576294 
	C146.642670,254.755859 185.308365,252.340164 223.977402,249.978958 
	C247.711426,248.529739 271.450745,247.167206 295.186340,245.743240 
	C295.822479,245.705078 296.443054,245.407730 297.459747,245.113800 
	C297.882294,247.700333 297.915955,250.404358 297.445892,253.524170 
	C248.908127,256.794464 200.875519,259.673126 152.839218,262.489227 
	C137.889328,263.365662 122.929512,264.072754 107.974228,264.857391 
	C107.977211,262.572937 107.980194,260.288513 107.979370,257.576294 
z" />
  <path fill="#B32839" opacity="1.000000" stroke="none" d="
M297.040192,268.475128 
	C291.657867,269.518463 286.277008,270.391052 280.863037,270.722198 
	C224.591934,274.164551 168.315384,277.517914 112.041313,280.912170 
	C110.896362,280.981232 109.763161,281.244904 108.300774,281.673248 
	C107.668144,279.235474 107.359215,276.542206 107.544556,273.415710 
	C110.367584,272.865112 112.697601,272.768433 115.024925,272.627411 
	C173.873489,269.061554 232.721481,265.486084 291.571472,261.944336 
	C293.378143,261.835571 295.205383,262.068298 297.023010,262.141846 
	C297.024109,264.112244 297.025208,266.082642 297.040192,268.475128 
z" />
  <path fill="#FBF6F7" opacity="1.000000" stroke="none" d="
M297.380310,261.916748 
	C295.205383,262.068298 293.378143,261.835571 291.571472,261.944336 
	C232.721481,265.486084 173.873489,269.061554 115.024925,272.627411 
	C112.697601,272.768433 110.367584,272.865112 107.599411,272.981293 
	C107.194855,270.423950 107.229706,267.867767 107.619400,265.084503 
	C122.929512,264.072754 137.889328,263.365662 152.839218,262.489227 
	C200.875519,259.673126 248.908127,256.794464 297.390533,253.972504 
	C297.805115,256.567261 297.771332,259.129456 297.380310,261.916748 
z" />
  <path fill="#B3283A" opacity="1.000000" stroke="none" d="
M182.547363,228.103806 
	C182.493805,225.669144 182.440247,223.234482 182.878143,220.373260 
	C193.977478,219.317810 204.587280,218.719910 215.192810,218.053955 
	C242.203110,216.357880 269.211517,214.631378 296.220673,212.917068 
	C296.463989,215.311325 296.707275,217.705597 296.478821,220.607101 
	C258.187164,223.444168 220.367264,225.773987 182.547363,228.103806 
z" />
  <path fill="#B3283A" opacity="1.000000" stroke="none" d="
M182.547852,212.097321 
	C182.453232,209.783020 182.358612,207.468704 182.243637,204.722916 
	C192.172195,203.546753 202.115814,202.720840 212.071014,202.072968 
	C239.497101,200.288132 266.928040,198.577835 294.747620,196.817886 
	C295.408966,199.304199 295.679810,201.810684 295.461548,204.746826 
	C257.497589,207.483429 220.022720,209.790375 182.547852,212.097321 
z" />
  <path fill="#FAF5F7" opacity="1.000000" stroke="none" d="
M182.456116,212.523712 
	C220.022720,209.790375 257.497589,207.483429 295.405396,205.225067 
	C295.943787,207.571259 296.049255,209.868866 296.187683,212.541763 
	C269.211517,214.631378 242.203110,216.357880 215.192810,218.053955 
	C204.587280,218.719910 193.977478,219.317810 182.958801,219.923035 
	C182.486771,217.582916 182.425583,215.266510 182.456116,212.523712 
z" />
  <path fill="#FBF5F6" opacity="1.000000" stroke="none" d="
M182.454742,228.540451 
	C220.367264,225.773987 258.187164,223.444168 296.421906,221.061920 
	C296.822754,223.885620 296.808777,226.761765 296.133942,229.628601 
	C293.994995,229.602234 292.511444,229.493637 291.039612,229.581421 
	C254.875153,231.738846 218.711960,233.917114 182.548523,236.091629 
	C182.486389,233.720123 182.424255,231.348602 182.454742,228.540451 
z" />
  <path fill="#B1273A" opacity="1.000000" stroke="none" d="
M182.466766,236.470215 
	C218.711960,233.917114 254.875153,231.738846 291.039612,229.581421 
	C292.511444,229.493637 293.994995,229.602234 295.775787,229.852798 
	C296.063232,232.072571 296.047943,234.058884 296.048645,236.470459 
	C290.292084,237.426575 284.528931,238.111710 278.745514,238.462585 
	C247.042740,240.385971 215.334976,242.227341 183.147614,244.017319 
	C182.572540,241.574768 182.478775,239.211777 182.466766,236.470215 
z" />
</svg>