<svg viewBox="0 0 34 34" xmlns="http://www.w3.org/2000/svg">
  <ellipse style="fill: #fff;" cx="17" cy="17" rx="17" ry="17"></ellipse>
  <path fill="#000"
    d="M 25.208 22.516 C 24.35 24.011 22.758 24.932 21.035 24.931 L 18.247 24.931 L 18.247 15.533 L 14.225 22.518 C 13.367 24.013 11.775 24.935 10.051 24.934 L 7.283 24.934 L 7.283 11.064 L 12.851 11.064 L 12.851 20.438 L 18.247 11.068 L 18.247 11.064 L 23.813 11.064 L 23.813 20.477 L 29.661 10.318 C 29.9 9.906 29.891 9.396 29.637 8.992 C 26.94 4.733 22.159 1.925 16.726 2.007 C 8.442 2.135 1.916 8.803 1.958 17.087 C 2.001 25.332 8.702 32.005 16.958 32.005 C 25.214 32.005 31.958 25.29 31.958 17.007 C 31.958 15.673 31.782 14.379 31.453 13.146 C 31.369 12.825 30.968 12.715 30.731 12.949 C 30.705 12.975 30.682 13.004 30.663 13.036 L 25.206 22.514 L 25.208 22.516 Z">
  </path>
</svg>