<svg xmlns="http://www.w3.org/2000/svg" width="24" height="24" fill="none"><rect width="24" height="24" fill="#fff" rx="12"/><mask id="A" width="16" height="16" x="4" y="4" mask-type="alpha" maskUnits="userSpaceOnUse"><path fill="#d9d9d9" d="M4 4h16v16H4z"/></mask><g mask="url('#A')"><path fill="#000" d="m7.428 18.55 2.033-3.519 2.031-3.506 2.02-3.519.335-.558.147.558.62 2.316-.694 1.202-2.031 3.506-2.02 3.519h2.428l2.032-3.519 1.053-1.821.496 1.821.941 3.519H19l-.941-3.519-.942-3.506-.247-.905 1.511-2.614h-2.205l-.075-.26-.768-2.874-.099-.372h-2.119l-.049.074-1.983 3.432-2.032 3.519-2.019 3.506L5 18.55z"/></g></svg>