<svg xmlns="http://www.w3.org/2000/svg" width="24" height="24" fill="none"><mask id="A" width="16" height="16" x="4" y="4" mask-type="alpha" maskUnits="userSpaceOnUse"><path fill="#d9d9d9" d="M4 4h16v16H4z"/></mask><g fill="#fff" mask="url('#A')"><path d="m12.041 14.178 2.044 3.248 1.889-1.108-2.685-4.283zm5.653.839-.001-.888-2.934-4.625-1.088 1.869 2.832 4.636 1.024-.601a.46.46 0 0 0 .168-.335v-.058zM5.4 15.853l1.446.843 4.812-7.811-.817-.022c-.696-.01-1.445.173-1.789.742L6.32 13.892l-.919 1.43zm9.035-6.968-2.152.008-4.87 8.133 1.702.992.463-.795z"/><path d="M18.601 8.874a1.39 1.39 0 0 0-.643-1.115l-5.351-3.114a1.38 1.38 0 0 0-1.228 0c-.045.023-5.204 3.051-5.204 3.051a1.4 1.4 0 0 0-.205.123 1.38 1.38 0 0 0-.57 1.053v6.45l.919-1.43-.008-4.977.007-.054a.46.46 0 0 1 .183-.292c.024-.018 5.271-3.092 5.288-3.1a.46.46 0 0 1 .403-.002l5.282 3.075a.46.46 0 0 1 .21.366v6.165a.45.45 0 0 1-.158.334l-1.024.601-.528.31-1.888 1.108-1.915 1.123a.46.46 0 0 1-.326-.006l-2.266-1.319-.463.794 2.036 1.187.177.101.146.081a1.3 1.3 0 0 0 .541.113q.26 0 .499-.095l5.563-3.26a1.38 1.38 0 0 0 .524-1.037z"/></g></svg>