<svg width="51mm" height="51mm" viewBox="0 0 51 51" version="1.1" id="svg1" xml:space="preserve" xmlns="http://www.w3.org/2000/svg"><g id="layer1"><path style="fill:#ccc;fill-opacity:1;stroke:#ccc;stroke-width:.264583px;stroke-opacity:1" d="m12.541 6.89 17.8.089 1.892 5.772H10.848Z" id="path1"/><path style="fill:#ccc;fill-opacity:1;stroke:#ccc;stroke-width:.264583px;stroke-opacity:1" d="m38.147 7.026 5.44 16.843-4.873 3.548-6.528-20.533z" id="path2"/><path style="fill:#ccc;fill-opacity:1;stroke:#ccc;stroke-width:.264583px;stroke-opacity:1" d="m46 31.06-1.892-5.63-17.221 12.585 4.778 3.548z" id="path3"/><path style="fill:#ccc;fill-opacity:1;stroke:#ccc;stroke-width:.264583px;stroke-opacity:1" d="m26.792 14.265 6.009.094 2.223 6.624-4.826 3.738z" id="path4"/><path style="fill:#ccc;fill-opacity:1;stroke:#ccc;stroke-width:.264583px;stroke-opacity:1" d="m18.04 14.36 7.002.047 1.987 5.582H16.242Z" id="path5"/><path style="fill:#ccc;fill-opacity:1;stroke:#ccc;stroke-width:.264583px;stroke-opacity:1" d="m10.28 14.36 6.151.047-6.624 20.296-4.92-3.548z" id="path6"/><path style="fill:#ccc;fill-opacity:1;stroke:#ccc;stroke-width:.264583px;stroke-opacity:1" d="m21.635 21.55-3.312 10.315-4.825-3.36 2.365-7.096z" id="path7"/><path style="fill:#ccc;fill-opacity:1;stroke:#ccc;stroke-width:.264583px;stroke-opacity:1" d="m30.293 33.378-8.563-6.245-1.987 5.82 5.724 4.021z" id="path8"/><path style="fill:#ccc;fill-opacity:1;stroke:#ccc;stroke-width:.264583px;stroke-opacity:1" d="m35.497 22.686-8.61 6.482 4.683 3.359 5.867-4.21z" id="path9"/><path style="fill:#ccc;fill-opacity:1;stroke:#ccc;stroke-width:.264583px;stroke-opacity:1" d="m13.025 29.972 17.079 12.585-4.684 3.5-14.288-10.36z" id="path10"/></g></svg>