<svg xmlns="http://www.w3.org/2000/svg" width="218" height="228" fill="none"><rect width="106.746" height="100.205" fill="#4D508E" rx="15" transform="rotate(33.299 -5.156 189.304)skewX(-.003)"/><path fill="#6A6DA0" d="m88.135 56.67 89.22 58.604-1.196 1.82-89.22-58.604zM82.154 65.773l89.22 58.604-1.197 1.82-89.219-58.604z"/><circle cx="2.178" cy="2.178" r="2.178" fill="#31347C" transform="rotate(33.299 -35.924 186.054)skewX(-.002)"/><circle cx="2.178" cy="2.178" r="2.178" fill="#31347C" transform="rotate(33.3 -82.76 342.666)skewX(-.002)"/><circle cx="2.178" cy="2.178" r="2.178" fill="#31347C" transform="rotate(33.299 -77.807 173.527)skewX(-.002)"/><circle cx="2.178" cy="2.178" r="2.178" fill="#31347C" transform="rotate(33.299 -124.645 330.14)skewX(-.002)"/><rect width="20.695" height="55.548" fill="#D6D6D6" rx="10" transform="rotate(-2.116 3147.378 -3557.658)skewX(-.003)"/><circle cx="7.08" cy="7.08" r="7.08" fill="url('#paint0_radial_5329_6532')" transform="rotate(-2.116 4322.978 -3785.773)skewX(-.003)"/><rect width="20.695" height="55.548" fill="#D6D6D6" rx="10" transform="matrix(-.29427 -.95572 -.95571 .29431 100.119 93.339)"/><circle cx="7.08" cy="7.08" r="7.08" fill="url('#paint1_radial_5329_6532')" transform="matrix(-.29427 -.95572 -.95571 .29431 56.875 99.025)"/><path fill="#D6D6D6" d="m114.454 159.321-46.43-30.499-24.411 37.159c-3.032 4.616-1.748 10.816 2.868 13.848l1.036.681c4.616 3.032 10.816 1.748 13.849-2.868l10.58-16.107a6.127 6.127 0 0 1 10.243 6.728L71.608 184.37c-3.032 4.615-1.749 10.815 2.867 13.848l1.72 1.129c4.616 3.032 10.816 1.748 13.849-2.868z"/><path fill="#E1E1E1" d="m98.129 69.106 59.176 38.871-37.675 57.351-59.176-38.87z"/><path fill="#E1E1E1" d="m68.256 118.55 55.535 36.479-10.764 16.385-55.535-36.478z"/><path fill="#4D508E" d="m107.234 75.086 4.552 2.99-37.675 57.351-4.552-2.99zM141.828 97.81l4.552 2.99-37.676 57.352-4.551-2.99z"/><path fill="#9A9A9A" d="m61.65 124.636 59.177 38.87-1.196 1.821-59.176-38.87z"/><rect width="7.625" height="17.427" fill="#D6D6D6" rx="3.812" transform="rotate(33.299 -56.352 330.608)skewX(-.003)"/><rect width="7.625" height="17.427" fill="#D6D6D6" rx="3.812" transform="rotate(33.299 -17.138 199.486)skewX(-.002)"/><path fill="#D6D6D6" stroke="#E1E1E1" stroke-width=".5" d="M169.993 94.158c-11.814 17.984-35.972 22.986-53.957 11.172s-22.988-35.97-11.174-53.954 35.971-22.986 53.957-11.172c17.985 11.814 22.988 35.97 11.174 53.954Z"/><path fill="#DDD" fill-rule="evenodd" d="M169.558 95.168c-12.277 16.636-35.569 20.95-53.061 9.46-17.488-11.487-22.78-34.569-12.395-52.441q-.642.87-1.242 1.783c-11.89 18.099-6.855 42.41 11.246 54.3s42.413 6.856 54.303-11.244q.604-.918 1.149-1.858" clip-rule="evenodd"/><path fill="#D6D6D6" fill-rule="evenodd" d="M167.166 98.81c-12.277 16.635-35.57 20.95-53.061 9.46-17.488-11.487-22.78-34.569-12.396-52.441q-.64.869-1.241 1.782c-11.89 18.1-6.855 42.411 11.245 54.3 18.101 11.89 42.414 6.856 54.304-11.243q.603-.92 1.149-1.859" clip-rule="evenodd"/><path fill="#080530" d="M173.959 81.125c-5.842-14.914-35.742-35.857-54.807-40.561-14.277 10.82-21.81 27.068-15.259 44.057 3.638 9.434 8.68 14.017 17.351 19.217 6.416 3.846 10.692 5.81 18.168 6.069 17.55.608 32.351-18.496 34.547-28.782"/><rect width="2.178" height="1.089" x="126.215" y="115.406" fill="#C4C4C4" rx=".545" transform="rotate(13.3 126.215 115.406)"/><rect width="1.089" height="1.089" fill="#C4C4C4" rx=".545" transform="rotate(13.301 -431.83 619.994)"/><mask id="mask0_5329_6532" width="73" height="70" x="101" y="40" maskUnits="userSpaceOnUse" style="mask-type:alpha"><path fill="#0F0C48" d="M173.959 81.126c-5.842-14.914-35.742-35.857-54.807-40.562-14.277 10.821-21.81 27.069-15.259 44.058 3.638 9.434 8.68 14.017 17.351 19.216 6.416 3.847 10.692 5.811 18.168 6.07 17.55.608 32.351-18.496 34.547-28.782"/></mask><g fill="#2C2D74" mask="url('#mask0_5329_6532')"><path d="m148.383 44.183 4.027 10.12-56.076 22.313-4.028-10.12zM159.648 58.971l2.273 5.71-59.117 23.523-2.272-5.71z"/></g><circle cx="7.08" cy="7.08" r="7.08" fill="#7172B4" fill-opacity=".15" transform="rotate(33.299 -16.39 223.517)skewX(-.002)"/><circle cx="3.812" cy="3.812" r="3.812" fill="#7172B4" fill-opacity=".15" transform="rotate(33.299 -21.836 241.729)skewX(-.003)"/><circle cx="2.723" cy="2.723" r="2.723" fill="#7172B4" fill-opacity=".15" transform="rotate(33.3 -34.6 218.07)skewX(-.002)"/><circle cx="2.723" cy="2.723" r="2.723" fill="#FF2A57" transform="rotate(33.299 7.657 242.612)skewX(-.002)"/><circle cx="2.723" cy="2.723" r="2.723" fill="#FF2A57" transform="rotate(33.299 8.95 264.827)skewX(-.003)"/><rect width="29.41" height="15.249" fill="#FF2A57" rx="5" transform="rotate(33.299 -134.55 213.97)skewX(-.002)"/><defs><radialGradient id="paint0_radial_5329_6532" cx="0" cy="0" r="1" gradientTransform="matrix(-3.81233 -1.6338 1.63375 -3.81219 8.714 8.713)" gradientUnits="userSpaceOnUse"><stop stop-color="#fff"/><stop offset="1" stop-color="#DDD"/></radialGradient><radialGradient id="paint1_radial_5329_6532" cx="0" cy="0" r="1" gradientTransform="matrix(-3.81233 -1.6338 1.63375 -3.81219 8.714 8.713)" gradientUnits="userSpaceOnUse"><stop stop-color="#fff"/><stop offset="1" stop-color="#DDD"/></radialGradient></defs></svg>