<svg width="218" height="228" fill="none" xmlns="http://www.w3.org/2000/svg"><rect width="106.746" height="100.205" rx="15" transform="rotate(33.299 -5.156 189.304) skewX(-.003)" fill="#4D508E"/><path fill="#6A6DA0" d="m88.135 56.67 89.22 58.604-1.196 1.82-89.22-58.604zM82.154 65.773l89.22 58.604-1.197 1.82-89.219-58.604z"/><circle cx="2.178" cy="2.178" transform="rotate(33.299 -35.924 186.054) skewX(-.002)" fill="#31347C" r="2.178"/><circle cx="2.178" cy="2.178" transform="rotate(33.3 -82.76 342.666) skewX(-.002)" fill="#31347C" r="2.178"/><circle cx="2.178" cy="2.178" transform="rotate(33.299 -77.807 173.527) skewX(-.002)" fill="#31347C" r="2.178"/><circle cx="2.178" cy="2.178" transform="rotate(33.299 -124.645 330.14) skewX(-.002)" fill="#31347C" r="2.178"/><rect width="20.695" height="55.548" rx="10" transform="rotate(-2.116 3147.378 -3557.658) skewX(-.003)" fill="#D6D6D6"/><circle cx="7.08" cy="7.08" transform="rotate(-2.116 4322.978 -3785.773) skewX(-.003)" fill="url('#paint0_radial_5329_6532')" r="7.08"/><rect width="20.695" height="55.548" rx="10" transform="matrix(-.29427 -.95572 -.95571 .29431 100.119 93.339)" fill="#D6D6D6"/><circle cx="7.08" cy="7.08" transform="matrix(-.29427 -.95572 -.95571 .29431 56.875 99.025)" fill="url('#paint1_radial_5329_6532')" r="7.08"/><path d="m114.454 159.321-46.43-30.499-24.411 37.159c-3.032 4.616-1.748 10.816 2.868 13.848l1.036.681c4.616 3.032 10.816 1.748 13.849-2.868l10.58-16.107a6.127 6.127 0 0 1 10.243 6.728L71.608 184.37c-3.032 4.615-1.749 10.815 2.867 13.848l1.72 1.129c4.616 3.032 10.816 1.748 13.849-2.868l24.41-37.158Z" fill="#D6D6D6"/><path fill="#E1E1E1" d="m98.129 69.106 59.176 38.871-37.675 57.351-59.176-38.87z"/><path fill="#E1E1E1" d="m68.256 118.55 55.535 36.479-10.764 16.385-55.535-36.478z"/><path fill="#4D508E" d="m107.234 75.086 4.552 2.99-37.675 57.351-4.552-2.99zM141.828 97.81l4.552 2.99-37.676 57.352-4.551-2.99z"/><path fill="#9A9A9A" d="m61.65 124.636 59.177 38.87-1.196 1.821-59.176-38.87z"/><rect width="7.625" height="17.427" rx="3.812" transform="rotate(33.299 -56.352 330.608) skewX(-.003)" fill="#D6D6D6"/><rect width="7.625" height="17.427" rx="3.812" transform="rotate(33.299 -17.138 199.486) skewX(-.002)" fill="#D6D6D6"/><path d="M169.993 94.158c-11.814 17.984-35.972 22.986-53.957 11.172s-22.988-35.97-11.174-53.954 35.971-22.986 53.957-11.172c17.985 11.814 22.988 35.97 11.174 53.954Z" fill="#D6D6D6" stroke="#E1E1E1" stroke-width=".5"/><path fill-rule="evenodd" clip-rule="evenodd" d="M169.558 95.168c-12.277 16.636-35.569 20.95-53.061 9.46-17.488-11.487-22.78-34.569-12.395-52.441-.428.58-.842 1.174-1.242 1.783-11.89 18.099-6.855 42.41 11.246 54.3s42.413 6.856 54.303-11.244c.403-.612.786-1.232 1.149-1.858Z" fill="#DDD"/><path fill-rule="evenodd" clip-rule="evenodd" d="M167.166 98.81c-12.277 16.635-35.57 20.95-53.061 9.46-17.488-11.487-22.78-34.569-12.396-52.441-.427.579-.841 1.173-1.241 1.782-11.89 18.1-6.855 42.411 11.245 54.3 18.101 11.89 42.414 6.856 54.304-11.243.402-.613.785-1.233 1.149-1.859Z" fill="#D6D6D6"/><path d="M173.959 81.125c-5.842-14.914-35.742-35.857-54.807-40.561-14.277 10.82-21.81 27.068-15.259 44.057 3.638 9.434 8.68 14.017 17.351 19.217 6.416 3.846 10.692 5.81 18.168 6.069 17.55.608 32.351-18.496 34.547-28.782Z" fill="#080530"/><rect x="126.215" y="115.406" width="2.178" height="1.089" rx=".545" transform="rotate(13.3 126.215 115.406)" fill="#C4C4C4"/><rect width="1.089" height="1.089" rx=".545" transform="rotate(13.301 -431.83 619.994)" fill="#C4C4C4"/><mask id="mask0_5329_6532" style="mask-type:alpha" maskUnits="userSpaceOnUse" x="101" y="40" width="73" height="70"><path d="M173.959 81.126c-5.842-14.914-35.742-35.858-54.807-40.562-14.277 10.821-21.81 27.069-15.259 44.058 3.638 9.434 8.68 14.017 17.351 19.216 6.416 3.847 10.692 5.811 18.168 6.07 17.55.608 32.351-18.496 34.547-28.782Z" fill="#0F0C48"/></mask><g mask="url('#mask0_5329_6532')" fill="#2C2D74"><path d="m148.383 44.183 4.027 10.12-56.076 22.313-4.028-10.12zM159.648 58.971l2.273 5.71-59.117 23.523-2.272-5.71z"/></g><circle cx="7.08" cy="7.08" transform="rotate(33.299 -16.39 223.517) skewX(-.002)" fill="#7172B4" fill-opacity=".15" r="7.08"/><circle cx="3.812" cy="3.812" transform="rotate(33.299 -21.836 241.729) skewX(-.003)" fill="#7172B4" fill-opacity=".15" r="3.812"/><circle cx="2.723" cy="2.723" transform="rotate(33.3 -34.6 218.07) skewX(-.002)" fill="#7172B4" fill-opacity=".15" r="2.723"/><circle cx="2.723" cy="2.723" transform="rotate(33.299 7.657 242.612) skewX(-.002)" fill="#FF2A57" r="2.723"/><circle cx="2.723" cy="2.723" transform="rotate(33.299 8.95 264.827) skewX(-.003)" fill="#FF2A57" r="2.723"/><rect width="29.41" height="15.249" rx="5" transform="rotate(33.299 -134.55 213.97) skewX(-.002)" fill="#FF2A57"/><defs><radialGradient id="paint0_radial_5329_6532" cx="0" cy="0" r="1" gradientUnits="userSpaceOnUse" gradientTransform="matrix(-3.81233 -1.6338 1.63375 -3.81219 8.714 8.713)"><stop stop-color="#fff"/><stop offset="1" stop-color="#DDD"/></radialGradient><radialGradient id="paint1_radial_5329_6532" cx="0" cy="0" r="1" gradientUnits="userSpaceOnUse" gradientTransform="matrix(-3.81233 -1.6338 1.63375 -3.81219 8.714 8.713)"><stop stop-color="#fff"/><stop offset="1" stop-color="#DDD"/></radialGradient></defs></svg>