<svg xmlns="http://www.w3.org/2000/svg" width="24" height="24" fill="none"><mask id="A" width="16" height="16" x="4" y="4" mask-type="alpha" maskUnits="userSpaceOnUse"><path fill="#d9d9d9" d="M4 4h16v16H4z"/></mask><g mask="url('#A')"><path fill="#fff" d="M11.993 5.145c.635 0 1.208.354 1.489.916l4.684 9.369a1.665 1.665 0 0 1-.739 2.238 1.7 1.7 0 0 1-.75.177H7.308a1.67 1.67 0 0 1-1.666-1.665c0-.26.062-.51.177-.75l4.684-9.369a1.66 1.66 0 0 1 1.489-.916zm0-1.145c-1.062 0-2.04.604-2.509 1.551L4.799 14.92a2.8 2.8 0 0 0 1.26 3.768c.396.198.822.302 1.26.302h9.369a2.813 2.813 0 0 0 2.811-2.811c0-.437-.104-.864-.302-1.26L14.513 5.55A2.83 2.83 0 0 0 11.993 4"/></g></svg>