<svg xmlns="http://www.w3.org/2000/svg" width="24" height="24" fill="none"><mask id="A" width="16" height="16" x="4" y="4" mask-type="alpha" maskUnits="userSpaceOnUse"><path fill="#d9d9d9" d="M4 4h16v16H4z"/></mask><g mask="url('#A')"><path stroke="#fff" stroke-miterlimit="10" stroke-width="1.062" d="M19.468 17.443a.64.64 0 0 1-.289.503c-.158.105-.425.105-.956.105h-3.597c-.53 0-.797 0-.952-.102a.64.64 0 0 1-.289-.503c-.009-.186.122-.413.384-.866l.007-.01 1.794-3.083c.264-.455.398-.68.563-.766a.64.64 0 0 1 .575 0c.164.084.291.3.544.728l.021.034 1.801 3.082.026.045c.25.43.377.651.369.832zm-4.867-7.659c-.064.267-.207.522-.496 1.026l-3.255 5.755-.009.015c-.286.501-.432.756-.634.947-.219.21-.482.362-.772.448-.263.072-.56.072-1.15.072H5.777c-.527 0-.787 0-.947-.102a.64.64 0 0 1-.289-.499c-.009-.188.121-.417.381-.873L11.12 5.65c.263-.463.398-.696.567-.782a.64.64 0 0 1 .579 0c.169.086.301.317.565.782l1.274 2.225.007.012c.284.498.429.749.492 1.014a1.9 1.9 0 0 1-.002.882z"/></g></svg>