<svg width="1446" height="2853" fill="none" xmlns="http://www.w3.org/2000/svg"><g clip-path="url('#clip0_622_23651')"><path fill="#010014" d="M0 0h1446v2853H0z"/><g opacity=".4" filter="url('#filter0_f_622_23651')"><path d="M850.519 375.686c-135.512 27.269-302.348-21.158-372.638-108.166-70.29-87.007-17.418-179.647 118.094-206.917 135.513-27.27 302.348 21.158 372.639 108.166 70.286 87.008 17.417 179.648-118.095 206.917Z" fill="#FF2A57" fill-opacity=".81"/></g><path opacity=".25" d="M568.091 2525.01c-35.468-55.67 11.757-128.93 105.478-163.63 93.722-34.71 198.45-17.72 233.918 37.95 35.467 55.66-11.757 128.92-105.479 163.63-93.721 34.7-198.45 17.71-233.917-37.95Z" stroke="url('#paint0_linear_622_23651')" stroke-opacity=".5" stroke-width="1.5" stroke-miterlimit="10"/><path opacity=".25" d="M622.116 2498.58c-28.319-44.44 9.387-102.94 84.219-130.65 74.832-27.71 158.453-14.14 186.772 30.3 28.32 44.45-9.387 102.94-84.219 130.65-74.832 27.71-158.453 14.15-186.772-30.3Z" stroke="url('#paint1_linear_622_23651')" stroke-opacity=".5" stroke-width="1.5" stroke-miterlimit="10"/><path opacity=".25" d="M670.699 2467.76c-21.171-33.22 7.017-76.95 62.961-97.67 55.943-20.71 118.456-10.57 139.627 22.66 21.171 33.22-7.018 76.95-62.961 97.67-55.943 20.71-118.456 10.57-139.627-22.66Z" stroke="url('#paint2_linear_622_23651')" stroke-opacity=".5" stroke-width="1.5" stroke-miterlimit="10"/><path opacity=".25" d="M859.003 2391.03c15.499 23.68-4.408 55.14-44.463 70.27-40.055 15.13-85.091 8.2-100.59-15.48-15.499-23.68 4.408-55.14 44.463-70.27 40.055-15.13 85.091-8.2 100.59 15.48Z" stroke="url('#paint3_linear_622_23651')" stroke-opacity=".5" stroke-width="1.5" stroke-miterlimit="10"/><g opacity=".8"><g filter="url('#filter1_f_622_23651')"><path d="M301.823 1362.21c-166.692-100.01-184.395-329.03-39.541-511.525 144.854-182.493 397.412-249.354 564.104-149.339 166.692 100.015 184.394 329.034 39.541 511.524-144.854 182.49-397.412 249.36-564.104 149.34Z" fill="#FF2A57" fill-opacity=".34"/></g><g opacity=".4" filter="url('#filter2_f_622_23651')"><path d="M892.47 1695.5c-305.707 81.26-606.483-3.45-671.803-189.2-65.319-185.76 129.553-402.21 435.259-483.47 305.707-81.264 606.484 3.44 671.804 189.2 65.32 185.75-129.55 402.21-435.26 483.47Z" fill="#164094"/></g></g><g opacity=".8"><g opacity=".4" filter="url('#filter3_f_622_23651')"><path d="M1070.32 2479.43c-167.174 115.2-410.7 72.96-543.933-94.34-133.233-167.31-105.72-396.33 61.451-511.53 167.172-115.2 410.698-72.96 543.932 94.35 133.23 167.3 105.72 396.32-61.45 511.52Z" fill="#FF2A57"/></g><g opacity=".4" filter="url('#filter4_f_622_23651')"><path d="M898.528 2742.51c-257.29 73.17-549.102-120.77-651.78-433.19s22.66-625 279.95-698.17c257.291-73.18 549.102 120.77 651.782 433.18 102.68 312.42-22.66 625-279.952 698.18Z" fill="#164094" fill-opacity=".88"/></g></g><g opacity=".6" filter="url('#filter5_f_622_23651')"><path d="M847.121 749.889c-191.406 38.833-416.658-81.814-503.114-269.473-86.456-187.66-1.378-371.268 190.028-410.102 191.405-38.833 416.657 81.814 503.115 269.473 86.45 187.66 1.38 371.268-190.029 410.102Z" fill="#164094" fill-opacity=".66"/></g></g><defs><filter id="filter0_f_622_23651" x="-3.221" y="-396.997" width="1452.94" height="1230.28" filterUnits="userSpaceOnUse" color-interpolation-filters="sRGB"><feFlood flood-opacity="0" result="BackgroundImageFix"/><feBlend in="SourceGraphic" in2="BackgroundImageFix" result="shape"/><feGaussianBlur stdDeviation="225" result="effect1_foregroundBlur_622_23651"/></filter><filter id="filter1_f_622_23651" x="-535.762" y="-45.095" width="2199.73" height="2153.75" filterUnits="userSpaceOnUse" color-interpolation-filters="sRGB"><feFlood flood-opacity="0" result="BackgroundImageFix"/><feBlend in="SourceGraphic" in2="BackgroundImageFix" result="shape"/><feGaussianBlur stdDeviation="350" result="effect1_foregroundBlur_622_23651"/></filter><filter id="filter2_f_622_23651" x="-541.944" y="241.958" width="2632.28" height="2234.41" filterUnits="userSpaceOnUse" color-interpolation-filters="sRGB"><feFlood flood-opacity="0" result="BackgroundImageFix"/><feBlend in="SourceGraphic" in2="BackgroundImageFix" result="shape"/><feGaussianBlur stdDeviation="375" result="effect1_foregroundBlur_622_23651"/></filter><filter id="filter3_f_622_23651" x="-258.001" y="1108.66" width="2174.16" height="2135.67" filterUnits="userSpaceOnUse" color-interpolation-filters="sRGB"><feFlood flood-opacity="0" result="BackgroundImageFix"/><feBlend in="SourceGraphic" in2="BackgroundImageFix" result="shape"/><feGaussianBlur stdDeviation="350" result="effect1_foregroundBlur_622_23651"/></filter><filter id="filter4_f_622_23651" x="-539.112" y="845.707" width="2503.45" height="2662.24" filterUnits="userSpaceOnUse" color-interpolation-filters="sRGB"><feFlood flood-opacity="0" result="BackgroundImageFix"/><feBlend in="SourceGraphic" in2="BackgroundImageFix" result="shape"/><feGaussianBlur stdDeviation="375" result="effect1_foregroundBlur_622_23651"/></filter><filter id="filter5_f_622_23651" x="-439.802" y="-686.954" width="2260.76" height="2194.11" filterUnits="userSpaceOnUse" color-interpolation-filters="sRGB"><feFlood flood-opacity="0" result="BackgroundImageFix"/><feBlend in="SourceGraphic" in2="BackgroundImageFix" result="shape"/><feGaussianBlur stdDeviation="375" result="effect1_foregroundBlur_622_23651"/></filter><linearGradient id="paint0_linear_622_23651" x1="907.487" y1="2399.33" x2="609.136" y2="2589.43" gradientUnits="userSpaceOnUse"><stop stop-color="#fff"/><stop offset="1" stop-color="#fff" stop-opacity="0"/></linearGradient><linearGradient id="paint1_linear_622_23651" x1="893.107" y1="2398.23" x2="654.889" y2="2550.02" gradientUnits="userSpaceOnUse"><stop stop-color="#fff"/><stop offset="1" stop-color="#fff" stop-opacity="0"/></linearGradient><linearGradient id="paint2_linear_622_23651" x1="873.287" y1="2392.75" x2="695.199" y2="2506.22" gradientUnits="userSpaceOnUse"><stop stop-color="#fff"/><stop offset="1" stop-color="#fff" stop-opacity="0"/></linearGradient><linearGradient id="paint3_linear_622_23651" x1="852.374" y1="2363.5" x2="784.121" y2="2514.73" gradientUnits="userSpaceOnUse"><stop stop-color="#fff"/><stop offset="1" stop-color="#fff" stop-opacity="0"/></linearGradient><clipPath id="clip0_622_23651"><path fill="#fff" d="M0 0h1446v2853H0z"/></clipPath></defs></svg>