<svg xmlns="http://www.w3.org/2000/svg" xmlns:xlink="http://www.w3.org/1999/xlink" width="1090" height="584" fill="none"><style>.B{stroke-opacity:.5}</style><g stroke-miterlimit="10" stroke-width=".619"><path stroke="url('#A')" d="m1048.79 544.755 10.39-37.688"/><path stroke="url('#B')" d="m1048.79 544.754 20.03-33.776"/><path stroke="url('#C')" d="m1048.79 544.755 28.56-27.377"/><path stroke="url('#D')" d="m1048.79 544.754 34.86-19.199"/><path stroke="url('#E')" d="m1048.79 544.754 38.94-9.955"/><path stroke="url('#F')" d="M1048.79 544.754h40.42"/><path stroke="url('#G')" d="m1048.79 544.754 38.94 10.311"/><path stroke="url('#H')" d="m1048.79 544.754 34.86 19.555"/><path stroke="url('#I')" d="m1048.79 544.754 28.56 27.732"/><path stroke="url('#J')" d="m1048.79 544.754 20.03 33.777"/><path stroke="url('#K')" d="m1048.79 544.754 10.39 37.688"/><path stroke="url('#L')" d="M1048.79 544.754v39.11"/><path stroke="url('#M')" d="m1048.79 544.754-10.75 37.688"/><path stroke="url('#N')" d="m1048.79 544.754-20.39 33.777"/><path stroke="url('#O')" d="m1048.79 544.754-28.92 27.732"/><path stroke="url('#P')" d="m1048.79 544.754-35.23 19.555"/><path stroke="url('#Q')" d="m1048.79 544.754-39.31 10.311"/><path stroke="url('#R')" d="M1048.79 544.754H1008"/><path stroke="url('#S')" d="m1048.79 544.754-39.31-9.955"/><path stroke="url('#T')" d="m1048.79 544.754-35.23-19.199"/><path stroke="url('#U')" d="m1048.79 544.755-28.92-27.377"/><path stroke="url('#V')" d="m1048.79 544.754-20.39-33.776"/><path stroke="url('#W')" d="m1048.79 544.755-10.75-37.688"/><path stroke="url('#X')" d="M1048.79 544.754V506"/><path stroke="url('#Y')" d="m592.59 283.734 4.986-18.097" class="B"/><path stroke="url('#Z')" d="m592.59 283.734 9.616-16.219" class="B"/><path stroke="url('#a')" d="m592.59 283.734 13.712-13.146" class="B"/><path stroke="url('#b')" d="m592.59 283.734 16.739-9.22" class="B"/><path stroke="url('#c')" d="m592.59 283.734 18.698-4.78" class="B"/><path stroke="url('#d')" d="M592.59 283.734H612" class="B"/><path stroke="url('#e')" d="m592.59 283.734 18.698 4.951" class="B"/><path stroke="url('#f')" d="m592.59 283.734 16.739 9.39" class="B"/><path stroke="url('#g')" d="m592.59 283.734 13.712 13.317" class="B"/><path stroke="url('#h')" d="m592.59 283.734 9.616 16.219" class="B"/><path stroke="url('#i')" d="m592.59 283.734 4.986 18.097" class="B"/><path stroke="url('#j')" d="M592.59 283.734v18.78" class="B"/><path stroke="url('#k')" d="m592.588 283.734-5.164 18.097" class="B"/><path stroke="url('#l')" d="m592.587 283.734-9.794 16.219" class="B"/><path stroke="url('#m')" d="m592.589 283.734-13.89 13.317" class="B"/><path stroke="url('#n')" d="m592.591 283.734-16.917 9.39" class="B"/><path stroke="url('#o')" d="m592.589 283.734-18.876 4.951" class="B"/><path stroke="url('#p')" d="M592.588 283.734H573" class="B"/><path stroke="url('#q')" d="m592.589 283.734-18.876-4.78" class="B"/><path stroke="url('#r')" d="m592.591 283.734-16.917-9.22" class="B"/><path stroke="url('#s')" d="m592.589 283.734-13.89-13.146" class="B"/><path stroke="url('#t')" d="m592.587 283.734-9.794-16.219" class="B"/><path stroke="url('#u')" d="m592.588 283.734-5.164-18.097" class="B"/><path stroke="url('#v')" d="M592.59 283.734v-18.61" class="B"/><path stroke="url('#w')" d="M40.793 38.755 51.176 1.067" class="B"/><path stroke="url('#x')" d="M40.793 38.755 60.818 4.977" class="B"/><path stroke="url('#y')" d="m40.793 38.755 28.554-27.377" class="B"/><path stroke="url('#z')" d="m40.793 38.754 34.859-19.2" class="B"/><path stroke="url('#AA')" d="M40.793 38.754 79.731 28.8" class="B"/><path stroke="url('#AB')" d="M40.793 38.754h40.421"/><path stroke="url('#AC')" d="m40.793 38.754 38.938 10.31" class="B"/><path stroke="url('#AD')" d="m40.793 38.754 34.859 19.555" class="B"/><path stroke="url('#AE')" d="m40.793 38.754 28.554 27.732" class="B"/><path stroke="url('#AF')" d="M40.793 38.754 60.818 72.53" class="B"/><path stroke="url('#AG')" d="m40.793 38.754 10.383 37.688" class="B"/><path stroke="url('#AH')" d="M40.793 38.754v39.11" class="B"/><path stroke="url('#AI')" d="M40.791 38.754 30.037 76.442" class="B"/><path stroke="url('#AJ')" d="M40.793 38.754 20.396 72.53" class="B"/><path stroke="url('#AK')" d="M40.792 38.754 11.867 66.486" class="B"/><path stroke="url('#AL')" d="M40.792 38.754 5.562 58.309" class="B"/><path stroke="url('#AM')" d="M40.791 38.754 1.482 49.064" class="B"/><path stroke="url('#AN')" d="M40.792 38.754H0"/><path stroke="url('#AO')" d="M40.791 38.754 1.482 28.8" class="B"/><path stroke="url('#AP')" d="m40.792 38.754-35.23-19.2" class="B"/><path stroke="url('#AQ')" d="M40.792 38.755 11.867 11.378" class="B"/><path stroke="url('#AR')" d="M40.793 38.755 20.396 4.977" class="B"/><path stroke="url('#AS')" d="M40.791 38.755 30.037 1.067" class="B"/><path stroke="url('#AT')" d="M40.793 38.754V0" class="B"/></g><defs><linearGradient xlink:href="#AU" id="A" x1="1053.98" x2="1053.98" y1="507.067" y2="544.755"><stop stop-color="#fff" stop-opacity="0"/><stop offset="1" stop-color="#fff"/></linearGradient><linearGradient xlink:href="#AU" id="B" x1="1058.81" x2="1058.81" y1="510.978" y2="544.754"><stop stop-color="#fff" stop-opacity="0"/><stop offset="1" stop-color="#fff"/></linearGradient><linearGradient xlink:href="#AU" id="C" x1="1063.07" x2="1063.07" y1="517.378" y2="544.755"><stop stop-color="#fff" stop-opacity="0"/><stop offset="1" stop-color="#fff"/></linearGradient><linearGradient xlink:href="#AU" id="D" x1="1066.22" x2="1066.22" y1="525.555" y2="544.754"><stop stop-color="#fff" stop-opacity="0"/><stop offset="1" stop-color="#fff"/></linearGradient><linearGradient xlink:href="#AU" id="E" x1="1068.26" x2="1068.26" y1="534.799" y2="544.754"><stop stop-color="#fff" stop-opacity="0"/><stop offset="1" stop-color="#fff"/></linearGradient><linearGradient xlink:href="#AU" id="F" x1="1050.28" x2="1092.56" y1="544.476" y2="544.476"><stop stop-color="#fff"/><stop offset="1" stop-color="#fff" stop-opacity="0"/></linearGradient><linearGradient xlink:href="#AU" id="G" x1="1068.26" x2="1068.26" y1="544.754" y2="555.065"><stop stop-color="#fff"/><stop offset="1" stop-color="#fff" stop-opacity="0"/></linearGradient><linearGradient xlink:href="#AU" id="H" x1="1066.22" x2="1066.22" y1="544.754" y2="564.309"><stop stop-color="#fff"/><stop offset="1" stop-color="#fff" stop-opacity="0"/></linearGradient><linearGradient xlink:href="#AU" id="I" x1="1063.07" x2="1063.07" y1="544.754" y2="572.486"><stop stop-color="#fff"/><stop offset="1" stop-color="#fff" stop-opacity="0"/></linearGradient><linearGradient xlink:href="#AU" id="J" x1="1058.81" x2="1058.81" y1="544.754" y2="578.531"><stop stop-color="#fff"/><stop offset="1" stop-color="#fff" stop-opacity="0"/></linearGradient><linearGradient xlink:href="#AU" id="K" x1="1053.98" x2="1053.98" y1="544.754" y2="582.442"><stop stop-color="#fff"/><stop offset="1" stop-color="#fff" stop-opacity="0"/></linearGradient><linearGradient xlink:href="#AU" id="L" x1="1049.29" x2="1049.29" y1="544.754" y2="583.864"><stop stop-color="#fff"/><stop offset="1" stop-color="#fff" stop-opacity="0"/></linearGradient><linearGradient xlink:href="#AU" id="M" x1="1043.41" x2="1043.41" y1="544.754" y2="582.442"><stop stop-color="#fff"/><stop offset="1" stop-color="#fff" stop-opacity="0"/></linearGradient><linearGradient xlink:href="#AU" id="N" x1="1038.59" x2="1038.59" y1="544.754" y2="578.531"><stop stop-color="#fff"/><stop offset="1" stop-color="#fff" stop-opacity="0"/></linearGradient><linearGradient xlink:href="#AU" id="O" x1="1034.33" x2="1034.33" y1="544.754" y2="572.486"><stop stop-color="#fff"/><stop offset="1" stop-color="#fff" stop-opacity="0"/></linearGradient><linearGradient xlink:href="#AU" id="P" x1="1031.18" x2="1031.18" y1="544.754" y2="564.309"><stop stop-color="#fff"/><stop offset="1" stop-color="#fff" stop-opacity="0"/></linearGradient><linearGradient xlink:href="#AU" id="Q" x1="1029.14" x2="1029.14" y1="544.754" y2="555.065"><stop stop-color="#fff"/><stop offset="1" stop-color="#fff" stop-opacity="0"/></linearGradient><linearGradient xlink:href="#AU" id="R" x1="1008.84" x2="1049.03" y1="544.476" y2="544.476"><stop stop-color="#fff" stop-opacity="0"/><stop offset="1" stop-color="#fff"/></linearGradient><linearGradient xlink:href="#AU" id="S" x1="1029.14" x2="1029.14" y1="534.799" y2="544.754"><stop stop-color="#fff" stop-opacity="0"/><stop offset="1" stop-color="#fff"/></linearGradient><linearGradient xlink:href="#AU" id="T" x1="1031.18" x2="1031.18" y1="525.555" y2="544.754"><stop stop-color="#fff" stop-opacity="0"/><stop offset="1" stop-color="#fff"/></linearGradient><linearGradient xlink:href="#AU" id="U" x1="1034.33" x2="1034.33" y1="517.378" y2="544.755"><stop stop-color="#fff" stop-opacity="0"/><stop offset="1" stop-color="#fff"/></linearGradient><linearGradient xlink:href="#AU" id="V" x1="1038.59" x2="1038.59" y1="510.978" y2="544.754"><stop stop-color="#fff" stop-opacity="0"/><stop offset="1" stop-color="#fff"/></linearGradient><linearGradient xlink:href="#AU" id="W" x1="1043.41" x2="1043.41" y1="507.067" y2="544.755"><stop stop-color="#fff" stop-opacity="0"/><stop offset="1" stop-color="#fff"/></linearGradient><linearGradient xlink:href="#AU" id="X" x1="1049.29" x2="1049.29" y1="506" y2="544.754"><stop stop-color="#fff" stop-opacity="0"/><stop offset="1" stop-color="#fff"/></linearGradient><linearGradient xlink:href="#AU" id="Y" x1="595.083" x2="595.083" y1="265.637" y2="283.734"><stop stop-color="#fff" stop-opacity="0"/><stop offset="1" stop-color="#fff"/></linearGradient><linearGradient xlink:href="#AU" id="Z" x1="597.398" x2="597.398" y1="267.515" y2="283.734"><stop stop-color="#fff" stop-opacity="0"/><stop offset="1" stop-color="#fff"/></linearGradient><linearGradient xlink:href="#AU" id="a" x1="599.446" x2="599.446" y1="270.588" y2="283.734"><stop stop-color="#fff" stop-opacity="0"/><stop offset="1" stop-color="#fff"/></linearGradient><linearGradient xlink:href="#AU" id="b" x1="600.959" x2="600.959" y1="274.514" y2="283.734"><stop stop-color="#fff" stop-opacity="0"/><stop offset="1" stop-color="#fff"/></linearGradient><linearGradient xlink:href="#AU" id="c" x1="601.939" x2="601.939" y1="278.954" y2="283.734"><stop stop-color="#fff" stop-opacity="0"/><stop offset="1" stop-color="#fff"/></linearGradient><linearGradient xlink:href="#AU" id="d" x1="593.305" x2="613.608" y1="283.455" y2="283.455"><stop stop-color="#fff"/><stop offset="1" stop-color="#fff" stop-opacity="0"/></linearGradient><linearGradient xlink:href="#AU" id="e" x1="601.939" x2="601.939" y1="283.734" y2="288.685"><stop stop-color="#fff"/><stop offset="1" stop-color="#fff" stop-opacity="0"/></linearGradient><linearGradient xlink:href="#AU" id="f" x1="600.959" x2="600.959" y1="283.734" y2="293.124"><stop stop-color="#fff"/><stop offset="1" stop-color="#fff" stop-opacity="0"/></linearGradient><linearGradient xlink:href="#AU" id="g" x1="599.446" x2="599.446" y1="283.734" y2="297.051"><stop stop-color="#fff"/><stop offset="1" stop-color="#fff" stop-opacity="0"/></linearGradient><linearGradient xlink:href="#AU" id="h" x1="597.398" x2="597.398" y1="283.734" y2="299.953"><stop stop-color="#fff"/><stop offset="1" stop-color="#fff" stop-opacity="0"/></linearGradient><linearGradient xlink:href="#AU" id="i" x1="595.083" x2="595.083" y1="283.734" y2="301.831"><stop stop-color="#fff"/><stop offset="1" stop-color="#fff" stop-opacity="0"/></linearGradient><linearGradient xlink:href="#AU" id="j" x1="593.09" x2="593.09" y1="283.734" y2="302.514"><stop stop-color="#fff"/><stop offset="1" stop-color="#fff" stop-opacity="0"/></linearGradient><linearGradient xlink:href="#AU" id="k" x1="590.006" x2="590.006" y1="283.734" y2="301.831"><stop stop-color="#fff"/><stop offset="1" stop-color="#fff" stop-opacity="0"/></linearGradient><linearGradient xlink:href="#AU" id="l" x1="587.69" x2="587.69" y1="283.734" y2="299.953"><stop stop-color="#fff"/><stop offset="1" stop-color="#fff" stop-opacity="0"/></linearGradient><linearGradient xlink:href="#AU" id="m" x1="585.644" x2="585.644" y1="283.734" y2="297.051"><stop stop-color="#fff"/><stop offset="1" stop-color="#fff" stop-opacity="0"/></linearGradient><linearGradient xlink:href="#AU" id="n" x1="584.132" x2="584.132" y1="283.734" y2="293.124"><stop stop-color="#fff"/><stop offset="1" stop-color="#fff" stop-opacity="0"/></linearGradient><linearGradient xlink:href="#AU" id="o" x1="583.151" x2="583.151" y1="283.734" y2="288.685"><stop stop-color="#fff"/><stop offset="1" stop-color="#fff" stop-opacity="0"/></linearGradient><linearGradient xlink:href="#AU" id="p" x1="573.402" x2="592.7" y1="283.455" y2="283.455"><stop stop-color="#fff" stop-opacity="0"/><stop offset="1" stop-color="#fff"/></linearGradient><linearGradient xlink:href="#AU" id="q" x1="583.151" x2="583.151" y1="278.954" y2="283.734"><stop stop-color="#fff" stop-opacity="0"/><stop offset="1" stop-color="#fff"/></linearGradient><linearGradient xlink:href="#AU" id="r" x1="584.132" x2="584.132" y1="274.514" y2="283.734"><stop stop-color="#fff" stop-opacity="0"/><stop offset="1" stop-color="#fff"/></linearGradient><linearGradient xlink:href="#AU" id="s" x1="585.644" x2="585.644" y1="270.588" y2="283.734"><stop stop-color="#fff" stop-opacity="0"/><stop offset="1" stop-color="#fff"/></linearGradient><linearGradient xlink:href="#AU" id="t" x1="587.69" x2="587.69" y1="267.515" y2="283.734"><stop stop-color="#fff" stop-opacity="0"/><stop offset="1" stop-color="#fff"/></linearGradient><linearGradient xlink:href="#AU" id="u" x1="590.006" x2="590.006" y1="265.637" y2="283.734"><stop stop-color="#fff" stop-opacity="0"/><stop offset="1" stop-color="#fff"/></linearGradient><linearGradient xlink:href="#AU" id="v" x1="593.09" x2="593.09" y1="265.124" y2="283.734"><stop stop-color="#fff" stop-opacity="0"/><stop offset="1" stop-color="#fff"/></linearGradient><linearGradient xlink:href="#AU" id="w" x1="45.985" x2="45.985" y1="1.067" y2="38.755"><stop stop-color="#fff" stop-opacity="0"/><stop offset="1" stop-color="#fff"/></linearGradient><linearGradient xlink:href="#AU" id="x" x1="50.806" x2="50.806" y1="4.978" y2="38.755"><stop stop-color="#fff" stop-opacity="0"/><stop offset="1" stop-color="#fff"/></linearGradient><linearGradient xlink:href="#AU" id="y" x1="55.07" x2="55.07" y1="11.378" y2="38.755"><stop stop-color="#fff" stop-opacity="0"/><stop offset="1" stop-color="#fff"/></linearGradient><linearGradient xlink:href="#AU" id="z" x1="58.222" x2="58.222" y1="19.555" y2="38.754"><stop stop-color="#fff" stop-opacity="0"/><stop offset="1" stop-color="#fff"/></linearGradient><linearGradient xlink:href="#AU" id="AA" x1="60.262" x2="60.262" y1="28.799" y2="38.754"><stop stop-color="#fff" stop-opacity="0"/><stop offset="1" stop-color="#fff"/></linearGradient><linearGradient xlink:href="#AU" id="AB" x1="42.282" x2="84.563" y1="38.476" y2="38.476"><stop stop-color="#fff"/><stop offset="1" stop-color="#fff" stop-opacity="0"/></linearGradient><linearGradient xlink:href="#AU" id="AC" x1="60.262" x2="60.262" y1="38.754" y2="49.065"><stop stop-color="#fff"/><stop offset="1" stop-color="#fff" stop-opacity="0"/></linearGradient><linearGradient xlink:href="#AU" id="AD" x1="58.222" x2="58.222" y1="38.754" y2="58.309"><stop stop-color="#fff"/><stop offset="1" stop-color="#fff" stop-opacity="0"/></linearGradient><linearGradient xlink:href="#AU" id="AE" x1="55.07" x2="55.07" y1="38.754" y2="66.486"><stop stop-color="#fff"/><stop offset="1" stop-color="#fff" stop-opacity="0"/></linearGradient><linearGradient xlink:href="#AU" id="AF" x1="50.806" x2="50.806" y1="38.754" y2="72.531"><stop stop-color="#fff"/><stop offset="1" stop-color="#fff" stop-opacity="0"/></linearGradient><linearGradient xlink:href="#AU" id="AG" x1="45.985" x2="45.985" y1="38.754" y2="76.442"><stop stop-color="#fff"/><stop offset="1" stop-color="#fff" stop-opacity="0"/></linearGradient><linearGradient xlink:href="#AU" id="AH" x1="41.293" x2="41.293" y1="38.754" y2="77.864"><stop stop-color="#fff"/><stop offset="1" stop-color="#fff" stop-opacity="0"/></linearGradient><linearGradient xlink:href="#AU" id="AI" x1="35.414" x2="35.414" y1="38.754" y2="76.442"><stop stop-color="#fff"/><stop offset="1" stop-color="#fff" stop-opacity="0"/></linearGradient><linearGradient xlink:href="#AU" id="AJ" x1="30.595" x2="30.595" y1="38.754" y2="72.531"><stop stop-color="#fff"/><stop offset="1" stop-color="#fff" stop-opacity="0"/></linearGradient><linearGradient xlink:href="#AU" id="AK" x1="26.33" x2="26.33" y1="38.754" y2="66.486"><stop stop-color="#fff"/><stop offset="1" stop-color="#fff" stop-opacity="0"/></linearGradient><linearGradient xlink:href="#AU" id="AL" x1="23.177" x2="23.177" y1="38.754" y2="58.309"><stop stop-color="#fff"/><stop offset="1" stop-color="#fff" stop-opacity="0"/></linearGradient><linearGradient xlink:href="#AU" id="AM" x1="21.137" x2="21.137" y1="38.754" y2="49.065"><stop stop-color="#fff"/><stop offset="1" stop-color="#fff" stop-opacity="0"/></linearGradient><linearGradient xlink:href="#AU" id="AN" x1=".837" x2="41.025" y1="38.476" y2="38.476"><stop stop-color="#fff" stop-opacity="0"/><stop offset="1" stop-color="#fff"/></linearGradient><linearGradient xlink:href="#AU" id="AO" x1="21.137" x2="21.137" y1="28.799" y2="38.754"><stop stop-color="#fff" stop-opacity="0"/><stop offset="1" stop-color="#fff"/></linearGradient><linearGradient xlink:href="#AU" id="AP" x1="23.177" x2="23.177" y1="19.555" y2="38.754"><stop stop-color="#fff" stop-opacity="0"/><stop offset="1" stop-color="#fff"/></linearGradient><linearGradient xlink:href="#AU" id="AQ" x1="26.33" x2="26.33" y1="11.378" y2="38.755"><stop stop-color="#fff" stop-opacity="0"/><stop offset="1" stop-color="#fff"/></linearGradient><linearGradient xlink:href="#AU" id="AR" x1="30.595" x2="30.595" y1="4.978" y2="38.755"><stop stop-color="#fff" stop-opacity="0"/><stop offset="1" stop-color="#fff"/></linearGradient><linearGradient xlink:href="#AU" id="AS" x1="35.414" x2="35.414" y1="1.067" y2="38.755"><stop stop-color="#fff" stop-opacity="0"/><stop offset="1" stop-color="#fff"/></linearGradient><linearGradient xlink:href="#AU" id="AT" x1="41.293" x2="41.293" y1="0" y2="38.754"><stop stop-color="#fff" stop-opacity="0"/><stop offset="1" stop-color="#fff"/></linearGradient><linearGradient id="AU" gradientUnits="userSpaceOnUse"/></defs></svg>