<svg xmlns="http://www.w3.org/2000/svg" xmlns:xlink="http://www.w3.org/1999/xlink" width="1090" height="584" fill="none"><style>.B{stroke-opacity:.5}</style><g stroke-width=".619" stroke-miterlimit="10"><path d="m1048.79 544.755 10.39-37.688" stroke="url('#A')"/><path d="m1048.79 544.754 20.03-33.776" stroke="url('#B')"/><path d="m1048.79 544.755 28.56-27.377" stroke="url('#C')"/><path d="m1048.79 544.754 34.86-19.199" stroke="url('#D')"/><path d="m1048.79 544.754 38.94-9.955" stroke="url('#E')"/><path d="M1048.79 544.754h40.42" stroke="url('#F')"/><path d="m1048.79 544.754 38.94 10.311" stroke="url('#G')"/><path d="m1048.79 544.754 34.86 19.555" stroke="url('#H')"/><path d="m1048.79 544.754 28.56 27.732" stroke="url('#I')"/><path d="m1048.79 544.754 20.03 33.777" stroke="url('#J')"/><path d="m1048.79 544.754 10.39 37.688" stroke="url('#K')"/><path d="M1048.79 544.754v39.11" stroke="url('#L')"/><path d="m1048.79 544.754-10.75 37.688" stroke="url('#M')"/><path d="m1048.79 544.754-20.39 33.777" stroke="url('#N')"/><path d="m1048.79 544.754-28.92 27.732" stroke="url('#O')"/><path d="m1048.79 544.754-35.23 19.555" stroke="url('#P')"/><path d="m1048.79 544.754-39.31 10.311" stroke="url('#Q')"/><path d="M1048.79 544.754H1008" stroke="url('#R')"/><path d="m1048.79 544.754-39.31-9.955" stroke="url('#S')"/><path d="m1048.79 544.754-35.23-19.199" stroke="url('#T')"/><path d="m1048.79 544.755-28.92-27.377" stroke="url('#U')"/><path d="m1048.79 544.754-20.39-33.776" stroke="url('#V')"/><path d="m1048.79 544.755-10.75-37.688" stroke="url('#W')"/><path d="M1048.79 544.754V506" stroke="url('#X')"/><path d="m592.59 283.734 4.986-18.097" stroke="url('#Y')" class="B"/><path d="m592.59 283.734 9.616-16.219" stroke="url('#Z')" class="B"/><path d="m592.59 283.734 13.712-13.146" stroke="url('#a')" class="B"/><path d="m592.59 283.734 16.739-9.22" stroke="url('#b')" class="B"/><path d="m592.59 283.734 18.698-4.78" stroke="url('#c')" class="B"/><path d="M592.59 283.734H612" stroke="url('#d')" class="B"/><path d="m592.59 283.734 18.698 4.951" stroke="url('#e')" class="B"/><path d="m592.59 283.734 16.739 9.39" stroke="url('#f')" class="B"/><path d="m592.59 283.734 13.712 13.317" stroke="url('#g')" class="B"/><path d="m592.59 283.734 9.616 16.219" stroke="url('#h')" class="B"/><path d="m592.59 283.734 4.986 18.097" stroke="url('#i')" class="B"/><path d="M592.59 283.734v18.78" stroke="url('#j')" class="B"/><path d="m592.588 283.734-5.164 18.097" stroke="url('#k')" class="B"/><path d="m592.587 283.734-9.794 16.219" stroke="url('#l')" class="B"/><path d="m592.589 283.734-13.89 13.317" stroke="url('#m')" class="B"/><path d="m592.591 283.734-16.917 9.39" stroke="url('#n')" class="B"/><path d="m592.589 283.734-18.876 4.951" stroke="url('#o')" class="B"/><path d="M592.588 283.734H573" stroke="url('#p')" class="B"/><path d="m592.589 283.734-18.876-4.78" stroke="url('#q')" class="B"/><path d="m592.591 283.734-16.917-9.22" stroke="url('#r')" class="B"/><path d="m592.589 283.734-13.89-13.146" stroke="url('#s')" class="B"/><path d="m592.587 283.734-9.794-16.219" stroke="url('#t')" class="B"/><path d="m592.588 283.734-5.164-18.097" stroke="url('#u')" class="B"/><path d="M592.59 283.734v-18.61" stroke="url('#v')" class="B"/><path d="M40.793 38.755 51.176 1.067" stroke="url('#w')" class="B"/><path d="M40.793 38.755 60.818 4.977" stroke="url('#x')" class="B"/><path d="m40.793 38.755 28.554-27.377" stroke="url('#y')" class="B"/><path d="m40.793 38.754 34.859-19.2" stroke="url('#z')" class="B"/><path d="M40.793 38.754 79.731 28.8" stroke="url('#AA')" class="B"/><path d="M40.793 38.754h40.421" stroke="url('#AB')"/><path d="m40.793 38.754 38.938 10.31" stroke="url('#AC')" class="B"/><path d="m40.793 38.754 34.859 19.555" stroke="url('#AD')" class="B"/><path d="m40.793 38.754 28.554 27.732" stroke="url('#AE')" class="B"/><path d="M40.793 38.754 60.818 72.53" stroke="url('#AF')" class="B"/><path d="m40.793 38.754 10.383 37.688" stroke="url('#AG')" class="B"/><path d="M40.793 38.754v39.11" stroke="url('#AH')" class="B"/><path d="M40.791 38.754 30.037 76.442" stroke="url('#AI')" class="B"/><path d="M40.792 38.754 20.396 72.53" stroke="url('#AJ')" class="B"/><path d="M40.792 38.754 11.867 66.486" stroke="url('#AK')" class="B"/><path d="M40.792 38.754 5.562 58.309" stroke="url('#AL')" class="B"/><path d="M40.791 38.754 1.482 49.064" stroke="url('#AM')" class="B"/><path d="M40.792 38.754H0" stroke="url('#AN')"/><path d="M40.791 38.754 1.482 28.8" stroke="url('#AO')" class="B"/><path d="m40.792 38.754-35.23-19.2" stroke="url('#AP')" class="B"/><path d="M40.792 38.755 11.867 11.378" stroke="url('#AQ')" class="B"/><path d="M40.792 38.755 20.396 4.977" stroke="url('#AR')" class="B"/><path d="M40.791 38.755 30.037 1.067" stroke="url('#AS')" class="B"/><path d="M40.793 38.754V0" stroke="url('#AT')" class="B"/></g><defs><linearGradient id="A" x1="1053.98" y1="507.067" x2="1053.98" y2="544.755" xlink:href="#AU"><stop stop-color="#fff" stop-opacity="0"/><stop offset="1" stop-color="#fff"/></linearGradient><linearGradient id="B" x1="1058.81" y1="510.978" x2="1058.81" y2="544.754" xlink:href="#AU"><stop stop-color="#fff" stop-opacity="0"/><stop offset="1" stop-color="#fff"/></linearGradient><linearGradient id="C" x1="1063.07" y1="517.378" x2="1063.07" y2="544.755" xlink:href="#AU"><stop stop-color="#fff" stop-opacity="0"/><stop offset="1" stop-color="#fff"/></linearGradient><linearGradient id="D" x1="1066.22" y1="525.555" x2="1066.22" y2="544.754" xlink:href="#AU"><stop stop-color="#fff" stop-opacity="0"/><stop offset="1" stop-color="#fff"/></linearGradient><linearGradient id="E" x1="1068.26" y1="534.799" x2="1068.26" y2="544.754" xlink:href="#AU"><stop stop-color="#fff" stop-opacity="0"/><stop offset="1" stop-color="#fff"/></linearGradient><linearGradient id="F" x1="1050.28" y1="544.476" x2="1092.56" y2="544.476" xlink:href="#AU"><stop stop-color="#fff"/><stop offset="1" stop-color="#fff" stop-opacity="0"/></linearGradient><linearGradient id="G" x1="1068.26" y1="544.754" x2="1068.26" y2="555.065" xlink:href="#AU"><stop stop-color="#fff"/><stop offset="1" stop-color="#fff" stop-opacity="0"/></linearGradient><linearGradient id="H" x1="1066.22" y1="544.754" x2="1066.22" y2="564.309" xlink:href="#AU"><stop stop-color="#fff"/><stop offset="1" stop-color="#fff" stop-opacity="0"/></linearGradient><linearGradient id="I" x1="1063.07" y1="544.754" x2="1063.07" y2="572.486" xlink:href="#AU"><stop stop-color="#fff"/><stop offset="1" stop-color="#fff" stop-opacity="0"/></linearGradient><linearGradient id="J" x1="1058.81" y1="544.754" x2="1058.81" y2="578.531" xlink:href="#AU"><stop stop-color="#fff"/><stop offset="1" stop-color="#fff" stop-opacity="0"/></linearGradient><linearGradient id="K" x1="1053.98" y1="544.754" x2="1053.98" y2="582.442" xlink:href="#AU"><stop stop-color="#fff"/><stop offset="1" stop-color="#fff" stop-opacity="0"/></linearGradient><linearGradient id="L" x1="1049.29" y1="544.754" x2="1049.29" y2="583.864" xlink:href="#AU"><stop stop-color="#fff"/><stop offset="1" stop-color="#fff" stop-opacity="0"/></linearGradient><linearGradient id="M" x1="1043.41" y1="544.754" x2="1043.41" y2="582.442" xlink:href="#AU"><stop stop-color="#fff"/><stop offset="1" stop-color="#fff" stop-opacity="0"/></linearGradient><linearGradient id="N" x1="1038.59" y1="544.754" x2="1038.59" y2="578.531" xlink:href="#AU"><stop stop-color="#fff"/><stop offset="1" stop-color="#fff" stop-opacity="0"/></linearGradient><linearGradient id="O" x1="1034.33" y1="544.754" x2="1034.33" y2="572.486" xlink:href="#AU"><stop stop-color="#fff"/><stop offset="1" stop-color="#fff" stop-opacity="0"/></linearGradient><linearGradient id="P" x1="1031.18" y1="544.754" x2="1031.18" y2="564.309" xlink:href="#AU"><stop stop-color="#fff"/><stop offset="1" stop-color="#fff" stop-opacity="0"/></linearGradient><linearGradient id="Q" x1="1029.14" y1="544.754" x2="1029.14" y2="555.065" xlink:href="#AU"><stop stop-color="#fff"/><stop offset="1" stop-color="#fff" stop-opacity="0"/></linearGradient><linearGradient id="R" x1="1008.84" y1="544.476" x2="1049.03" y2="544.476" xlink:href="#AU"><stop stop-color="#fff" stop-opacity="0"/><stop offset="1" stop-color="#fff"/></linearGradient><linearGradient id="S" x1="1029.14" y1="534.799" x2="1029.14" y2="544.754" xlink:href="#AU"><stop stop-color="#fff" stop-opacity="0"/><stop offset="1" stop-color="#fff"/></linearGradient><linearGradient id="T" x1="1031.18" y1="525.555" x2="1031.18" y2="544.754" xlink:href="#AU"><stop stop-color="#fff" stop-opacity="0"/><stop offset="1" stop-color="#fff"/></linearGradient><linearGradient id="U" x1="1034.33" y1="517.378" x2="1034.33" y2="544.755" xlink:href="#AU"><stop stop-color="#fff" stop-opacity="0"/><stop offset="1" stop-color="#fff"/></linearGradient><linearGradient id="V" x1="1038.59" y1="510.978" x2="1038.59" y2="544.754" xlink:href="#AU"><stop stop-color="#fff" stop-opacity="0"/><stop offset="1" stop-color="#fff"/></linearGradient><linearGradient id="W" x1="1043.41" y1="507.067" x2="1043.41" y2="544.755" xlink:href="#AU"><stop stop-color="#fff" stop-opacity="0"/><stop offset="1" stop-color="#fff"/></linearGradient><linearGradient id="X" x1="1049.29" y1="506" x2="1049.29" y2="544.754" xlink:href="#AU"><stop stop-color="#fff" stop-opacity="0"/><stop offset="1" stop-color="#fff"/></linearGradient><linearGradient id="Y" x1="595.083" y1="265.637" x2="595.083" y2="283.734" xlink:href="#AU"><stop stop-color="#fff" stop-opacity="0"/><stop offset="1" stop-color="#fff"/></linearGradient><linearGradient id="Z" x1="597.398" y1="267.515" x2="597.398" y2="283.734" xlink:href="#AU"><stop stop-color="#fff" stop-opacity="0"/><stop offset="1" stop-color="#fff"/></linearGradient><linearGradient id="a" x1="599.446" y1="270.588" x2="599.446" y2="283.734" xlink:href="#AU"><stop stop-color="#fff" stop-opacity="0"/><stop offset="1" stop-color="#fff"/></linearGradient><linearGradient id="b" x1="600.959" y1="274.514" x2="600.959" y2="283.734" xlink:href="#AU"><stop stop-color="#fff" stop-opacity="0"/><stop offset="1" stop-color="#fff"/></linearGradient><linearGradient id="c" x1="601.939" y1="278.954" x2="601.939" y2="283.734" xlink:href="#AU"><stop stop-color="#fff" stop-opacity="0"/><stop offset="1" stop-color="#fff"/></linearGradient><linearGradient id="d" x1="593.305" y1="283.455" x2="613.608" y2="283.455" xlink:href="#AU"><stop stop-color="#fff"/><stop offset="1" stop-color="#fff" stop-opacity="0"/></linearGradient><linearGradient id="e" x1="601.939" y1="283.734" x2="601.939" y2="288.685" xlink:href="#AU"><stop stop-color="#fff"/><stop offset="1" stop-color="#fff" stop-opacity="0"/></linearGradient><linearGradient id="f" x1="600.959" y1="283.734" x2="600.959" y2="293.124" xlink:href="#AU"><stop stop-color="#fff"/><stop offset="1" stop-color="#fff" stop-opacity="0"/></linearGradient><linearGradient id="g" x1="599.446" y1="283.734" x2="599.446" y2="297.051" xlink:href="#AU"><stop stop-color="#fff"/><stop offset="1" stop-color="#fff" stop-opacity="0"/></linearGradient><linearGradient id="h" x1="597.398" y1="283.734" x2="597.398" y2="299.953" xlink:href="#AU"><stop stop-color="#fff"/><stop offset="1" stop-color="#fff" stop-opacity="0"/></linearGradient><linearGradient id="i" x1="595.083" y1="283.734" x2="595.083" y2="301.831" xlink:href="#AU"><stop stop-color="#fff"/><stop offset="1" stop-color="#fff" stop-opacity="0"/></linearGradient><linearGradient id="j" x1="593.09" y1="283.734" x2="593.09" y2="302.514" xlink:href="#AU"><stop stop-color="#fff"/><stop offset="1" stop-color="#fff" stop-opacity="0"/></linearGradient><linearGradient id="k" x1="590.006" y1="283.734" x2="590.006" y2="301.831" xlink:href="#AU"><stop stop-color="#fff"/><stop offset="1" stop-color="#fff" stop-opacity="0"/></linearGradient><linearGradient id="l" x1="587.69" y1="283.734" x2="587.69" y2="299.953" xlink:href="#AU"><stop stop-color="#fff"/><stop offset="1" stop-color="#fff" stop-opacity="0"/></linearGradient><linearGradient id="m" x1="585.644" y1="283.734" x2="585.644" y2="297.051" xlink:href="#AU"><stop stop-color="#fff"/><stop offset="1" stop-color="#fff" stop-opacity="0"/></linearGradient><linearGradient id="n" x1="584.132" y1="283.734" x2="584.132" y2="293.124" xlink:href="#AU"><stop stop-color="#fff"/><stop offset="1" stop-color="#fff" stop-opacity="0"/></linearGradient><linearGradient id="o" x1="583.151" y1="283.734" x2="583.151" y2="288.685" xlink:href="#AU"><stop stop-color="#fff"/><stop offset="1" stop-color="#fff" stop-opacity="0"/></linearGradient><linearGradient id="p" x1="573.402" y1="283.455" x2="592.7" y2="283.455" xlink:href="#AU"><stop stop-color="#fff" stop-opacity="0"/><stop offset="1" stop-color="#fff"/></linearGradient><linearGradient id="q" x1="583.151" y1="278.954" x2="583.151" y2="283.734" xlink:href="#AU"><stop stop-color="#fff" stop-opacity="0"/><stop offset="1" stop-color="#fff"/></linearGradient><linearGradient id="r" x1="584.132" y1="274.514" x2="584.132" y2="283.734" xlink:href="#AU"><stop stop-color="#fff" stop-opacity="0"/><stop offset="1" stop-color="#fff"/></linearGradient><linearGradient id="s" x1="585.644" y1="270.588" x2="585.644" y2="283.734" xlink:href="#AU"><stop stop-color="#fff" stop-opacity="0"/><stop offset="1" stop-color="#fff"/></linearGradient><linearGradient id="t" x1="587.69" y1="267.515" x2="587.69" y2="283.734" xlink:href="#AU"><stop stop-color="#fff" stop-opacity="0"/><stop offset="1" stop-color="#fff"/></linearGradient><linearGradient id="u" x1="590.006" y1="265.637" x2="590.006" y2="283.734" xlink:href="#AU"><stop stop-color="#fff" stop-opacity="0"/><stop offset="1" stop-color="#fff"/></linearGradient><linearGradient id="v" x1="593.09" y1="265.124" x2="593.09" y2="283.734" xlink:href="#AU"><stop stop-color="#fff" stop-opacity="0"/><stop offset="1" stop-color="#fff"/></linearGradient><linearGradient id="w" x1="45.985" y1="1.067" x2="45.985" y2="38.755" xlink:href="#AU"><stop stop-color="#fff" stop-opacity="0"/><stop offset="1" stop-color="#fff"/></linearGradient><linearGradient id="x" x1="50.806" y1="4.978" x2="50.806" y2="38.755" xlink:href="#AU"><stop stop-color="#fff" stop-opacity="0"/><stop offset="1" stop-color="#fff"/></linearGradient><linearGradient id="y" x1="55.07" y1="11.378" x2="55.07" y2="38.755" xlink:href="#AU"><stop stop-color="#fff" stop-opacity="0"/><stop offset="1" stop-color="#fff"/></linearGradient><linearGradient id="z" x1="58.222" y1="19.555" x2="58.222" y2="38.754" xlink:href="#AU"><stop stop-color="#fff" stop-opacity="0"/><stop offset="1" stop-color="#fff"/></linearGradient><linearGradient id="AA" x1="60.262" y1="28.799" x2="60.262" y2="38.754" xlink:href="#AU"><stop stop-color="#fff" stop-opacity="0"/><stop offset="1" stop-color="#fff"/></linearGradient><linearGradient id="AB" x1="42.282" y1="38.476" x2="84.563" y2="38.476" xlink:href="#AU"><stop stop-color="#fff"/><stop offset="1" stop-color="#fff" stop-opacity="0"/></linearGradient><linearGradient id="AC" x1="60.262" y1="38.754" x2="60.262" y2="49.065" xlink:href="#AU"><stop stop-color="#fff"/><stop offset="1" stop-color="#fff" stop-opacity="0"/></linearGradient><linearGradient id="AD" x1="58.222" y1="38.754" x2="58.222" y2="58.309" xlink:href="#AU"><stop stop-color="#fff"/><stop offset="1" stop-color="#fff" stop-opacity="0"/></linearGradient><linearGradient id="AE" x1="55.07" y1="38.754" x2="55.07" y2="66.486" xlink:href="#AU"><stop stop-color="#fff"/><stop offset="1" stop-color="#fff" stop-opacity="0"/></linearGradient><linearGradient id="AF" x1="50.806" y1="38.754" x2="50.806" y2="72.531" xlink:href="#AU"><stop stop-color="#fff"/><stop offset="1" stop-color="#fff" stop-opacity="0"/></linearGradient><linearGradient id="AG" x1="45.985" y1="38.754" x2="45.985" y2="76.442" xlink:href="#AU"><stop stop-color="#fff"/><stop offset="1" stop-color="#fff" stop-opacity="0"/></linearGradient><linearGradient id="AH" x1="41.293" y1="38.754" x2="41.293" y2="77.864" xlink:href="#AU"><stop stop-color="#fff"/><stop offset="1" stop-color="#fff" stop-opacity="0"/></linearGradient><linearGradient id="AI" x1="35.414" y1="38.754" x2="35.414" y2="76.442" xlink:href="#AU"><stop stop-color="#fff"/><stop offset="1" stop-color="#fff" stop-opacity="0"/></linearGradient><linearGradient id="AJ" x1="30.595" y1="38.754" x2="30.595" y2="72.531" xlink:href="#AU"><stop stop-color="#fff"/><stop offset="1" stop-color="#fff" stop-opacity="0"/></linearGradient><linearGradient id="AK" x1="26.33" y1="38.754" x2="26.33" y2="66.486" xlink:href="#AU"><stop stop-color="#fff"/><stop offset="1" stop-color="#fff" stop-opacity="0"/></linearGradient><linearGradient id="AL" x1="23.177" y1="38.754" x2="23.177" y2="58.309" xlink:href="#AU"><stop stop-color="#fff"/><stop offset="1" stop-color="#fff" stop-opacity="0"/></linearGradient><linearGradient id="AM" x1="21.137" y1="38.754" x2="21.137" y2="49.065" xlink:href="#AU"><stop stop-color="#fff"/><stop offset="1" stop-color="#fff" stop-opacity="0"/></linearGradient><linearGradient id="AN" x1=".837" y1="38.476" x2="41.025" y2="38.476" xlink:href="#AU"><stop stop-color="#fff" stop-opacity="0"/><stop offset="1" stop-color="#fff"/></linearGradient><linearGradient id="AO" x1="21.137" y1="28.799" x2="21.137" y2="38.754" xlink:href="#AU"><stop stop-color="#fff" stop-opacity="0"/><stop offset="1" stop-color="#fff"/></linearGradient><linearGradient id="AP" x1="23.177" y1="19.555" x2="23.177" y2="38.754" xlink:href="#AU"><stop stop-color="#fff" stop-opacity="0"/><stop offset="1" stop-color="#fff"/></linearGradient><linearGradient id="AQ" x1="26.33" y1="11.378" x2="26.33" y2="38.755" xlink:href="#AU"><stop stop-color="#fff" stop-opacity="0"/><stop offset="1" stop-color="#fff"/></linearGradient><linearGradient id="AR" x1="30.595" y1="4.978" x2="30.595" y2="38.755" xlink:href="#AU"><stop stop-color="#fff" stop-opacity="0"/><stop offset="1" stop-color="#fff"/></linearGradient><linearGradient id="AS" x1="35.414" y1="1.067" x2="35.414" y2="38.755" xlink:href="#AU"><stop stop-color="#fff" stop-opacity="0"/><stop offset="1" stop-color="#fff"/></linearGradient><linearGradient id="AT" x1="41.293" y1="0" x2="41.293" y2="38.754" xlink:href="#AU"><stop stop-color="#fff" stop-opacity="0"/><stop offset="1" stop-color="#fff"/></linearGradient><linearGradient id="AU" gradientUnits="userSpaceOnUse"/></defs></svg>