<svg xmlns="http://www.w3.org/2000/svg" xmlns:xlink="http://www.w3.org/1999/xlink" width="287" height="527" fill="none"><style>.B{stroke-opacity:.5}</style><g stroke-width=".619" stroke-miterlimit="10"><path d="m267.59 507.61 4.986-18.098" stroke="url('#A')" class="B"/><path d="m267.59 507.61 9.616-16.22" stroke="url('#B')" class="B"/><path d="m267.59 507.61 13.712-13.146" stroke="url('#C')" class="B"/><path d="m267.59 507.61 16.739-9.22" stroke="url('#D')" class="B"/><path d="m267.59 507.61 18.698-4.781" stroke="url('#E')" class="B"/><path d="M267.59 507.61H287" stroke="url('#F')" class="B"/><path d="m267.59 507.61 18.698 4.951" stroke="url('#G')" class="B"/><path d="m267.59 507.61 16.739 9.39" stroke="url('#H')" class="B"/><path d="m267.59 507.61 13.712 13.317" stroke="url('#I')" class="B"/><path d="m267.59 507.61 9.616 16.219" stroke="url('#J')" class="B"/><path d="m267.59 507.61 4.986 18.097" stroke="url('#K')" class="B"/><path d="M267.59 507.61v18.78" stroke="url('#L')" class="B"/><path d="m267.588 507.61-5.164 18.097" stroke="url('#M')" class="B"/><path d="m267.587 507.61-9.794 16.219" stroke="url('#N')" class="B"/><path d="m267.589 507.61-13.89 13.317" stroke="url('#O')" class="B"/><path d="M267.591 507.61 250.674 517" stroke="url('#P')" class="B"/><path d="m267.589 507.61-18.876 4.951" stroke="url('#Q')" class="B"/><path d="M267.588 507.61H248" stroke="url('#R')" class="B"/><path d="m267.589 507.61-18.876-4.781" stroke="url('#S')" class="B"/><path d="m267.591 507.61-16.917-9.22" stroke="url('#T')" class="B"/><path d="m267.589 507.61-13.89-13.146" stroke="url('#U')" class="B"/><path d="m267.587 507.61-9.794-16.22" stroke="url('#V')" class="B"/><path d="m267.588 507.61-5.164-18.098" stroke="url('#W')" class="B"/><path d="M267.59 507.61V489" stroke="url('#X')" class="B"/><path d="M35.102 33.348 44.036.918" stroke="url('#Y')" class="B"/><path d="m35.102 33.347 17.23-29.064" stroke="url('#Z')" class="B"/><path d="M35.102 33.348 59.672 9.79" stroke="url('#a')" class="B"/><path d="m35.102 33.347 29.995-16.52" stroke="url('#b')" class="B"/><path d="m35.102 33.347 33.505-8.566" stroke="url('#c')" class="B"/><path d="M35.102 33.347h34.781" stroke="url('#d')"/><path d="m35.102 33.347 33.505 8.872" stroke="url('#e')" class="B"/><path d="m35.102 33.347 29.995 16.826" stroke="url('#f')" class="B"/><path d="m35.102 33.347 24.57 23.863" stroke="url('#g')" class="B"/><path d="m35.102 33.347 17.23 29.064" stroke="url('#h')" class="B"/><path d="m35.102 33.347 8.934 32.43" stroke="url('#i')" class="B"/><path d="M35.102 33.347V67" stroke="url('#j')" class="B"/><path d="m35.1 33.347-9.254 32.43" stroke="url('#k')" class="B"/><path d="M35.101 33.347 17.551 62.41" stroke="url('#l')" class="B"/><path d="M35.1 33.347 10.21 57.21" stroke="url('#m')" class="B"/><path d="M35.101 33.347 4.787 50.173" stroke="url('#n')" class="B"/><path d="M35.1 33.347 1.275 42.219" stroke="url('#o')" class="B"/><path d="M35.1 33.347H0" stroke="url('#p')"/><path d="M35.1 33.347 1.275 24.781" stroke="url('#q')" class="B"/><path d="M35.101 33.347 4.787 16.827" stroke="url('#r')" class="B"/><path d="M35.1 33.348 10.21 9.79" stroke="url('#s')" class="B"/><path d="M35.101 33.347 17.551 4.283" stroke="url('#t')" class="B"/><path d="M35.1 33.348 25.846.918" stroke="url('#u')" class="B"/><path d="M35.102 33.347V0" stroke="url('#v')" class="B"/></g><defs><linearGradient id="A" x1="270.083" y1="489.512" x2="270.083" y2="507.61" xlink:href="#w"><stop stop-color="#fff" stop-opacity="0"/><stop offset="1" stop-color="#fff"/></linearGradient><linearGradient id="B" x1="272.398" y1="491.39" x2="272.398" y2="507.61" xlink:href="#w"><stop stop-color="#fff" stop-opacity="0"/><stop offset="1" stop-color="#fff"/></linearGradient><linearGradient id="C" x1="274.446" y1="494.464" x2="274.446" y2="507.61" xlink:href="#w"><stop stop-color="#fff" stop-opacity="0"/><stop offset="1" stop-color="#fff"/></linearGradient><linearGradient id="D" x1="275.959" y1="498.39" x2="275.959" y2="507.61" xlink:href="#w"><stop stop-color="#fff" stop-opacity="0"/><stop offset="1" stop-color="#fff"/></linearGradient><linearGradient id="E" x1="276.939" y1="502.829" x2="276.939" y2="507.61" xlink:href="#w"><stop stop-color="#fff" stop-opacity="0"/><stop offset="1" stop-color="#fff"/></linearGradient><linearGradient id="F" x1="268.305" y1="507.331" x2="288.608" y2="507.331" xlink:href="#w"><stop stop-color="#fff"/><stop offset="1" stop-color="#fff" stop-opacity="0"/></linearGradient><linearGradient id="G" x1="276.939" y1="507.61" x2="276.939" y2="512.561" xlink:href="#w"><stop stop-color="#fff"/><stop offset="1" stop-color="#fff" stop-opacity="0"/></linearGradient><linearGradient id="H" x1="275.959" y1="507.61" x2="275.959" y2="517" xlink:href="#w"><stop stop-color="#fff"/><stop offset="1" stop-color="#fff" stop-opacity="0"/></linearGradient><linearGradient id="I" x1="274.446" y1="507.61" x2="274.446" y2="520.927" xlink:href="#w"><stop stop-color="#fff"/><stop offset="1" stop-color="#fff" stop-opacity="0"/></linearGradient><linearGradient id="J" x1="272.398" y1="507.61" x2="272.398" y2="523.829" xlink:href="#w"><stop stop-color="#fff"/><stop offset="1" stop-color="#fff" stop-opacity="0"/></linearGradient><linearGradient id="K" x1="270.083" y1="507.61" x2="270.083" y2="525.707" xlink:href="#w"><stop stop-color="#fff"/><stop offset="1" stop-color="#fff" stop-opacity="0"/></linearGradient><linearGradient id="L" x1="268.09" y1="507.61" x2="268.09" y2="526.39" xlink:href="#w"><stop stop-color="#fff"/><stop offset="1" stop-color="#fff" stop-opacity="0"/></linearGradient><linearGradient id="M" x1="265.006" y1="507.61" x2="265.006" y2="525.707" xlink:href="#w"><stop stop-color="#fff"/><stop offset="1" stop-color="#fff" stop-opacity="0"/></linearGradient><linearGradient id="N" x1="262.69" y1="507.61" x2="262.69" y2="523.829" xlink:href="#w"><stop stop-color="#fff"/><stop offset="1" stop-color="#fff" stop-opacity="0"/></linearGradient><linearGradient id="O" x1="260.644" y1="507.61" x2="260.644" y2="520.927" xlink:href="#w"><stop stop-color="#fff"/><stop offset="1" stop-color="#fff" stop-opacity="0"/></linearGradient><linearGradient id="P" x1="259.132" y1="507.61" x2="259.132" y2="517" xlink:href="#w"><stop stop-color="#fff"/><stop offset="1" stop-color="#fff" stop-opacity="0"/></linearGradient><linearGradient id="Q" x1="258.151" y1="507.61" x2="258.151" y2="512.561" xlink:href="#w"><stop stop-color="#fff"/><stop offset="1" stop-color="#fff" stop-opacity="0"/></linearGradient><linearGradient id="R" x1="248.402" y1="507.331" x2="267.7" y2="507.331" xlink:href="#w"><stop stop-color="#fff" stop-opacity="0"/><stop offset="1" stop-color="#fff"/></linearGradient><linearGradient id="S" x1="258.151" y1="502.829" x2="258.151" y2="507.61" xlink:href="#w"><stop stop-color="#fff" stop-opacity="0"/><stop offset="1" stop-color="#fff"/></linearGradient><linearGradient id="T" x1="259.132" y1="498.39" x2="259.132" y2="507.61" xlink:href="#w"><stop stop-color="#fff" stop-opacity="0"/><stop offset="1" stop-color="#fff"/></linearGradient><linearGradient id="U" x1="260.644" y1="494.464" x2="260.644" y2="507.61" xlink:href="#w"><stop stop-color="#fff" stop-opacity="0"/><stop offset="1" stop-color="#fff"/></linearGradient><linearGradient id="V" x1="262.69" y1="491.39" x2="262.69" y2="507.61" xlink:href="#w"><stop stop-color="#fff" stop-opacity="0"/><stop offset="1" stop-color="#fff"/></linearGradient><linearGradient id="W" x1="265.006" y1="489.512" x2="265.006" y2="507.61" xlink:href="#w"><stop stop-color="#fff" stop-opacity="0"/><stop offset="1" stop-color="#fff"/></linearGradient><linearGradient id="X" x1="268.09" y1="489" x2="268.09" y2="507.61" xlink:href="#w"><stop stop-color="#fff" stop-opacity="0"/><stop offset="1" stop-color="#fff"/></linearGradient><linearGradient id="Y" x1="39.569" y1=".918" x2="39.569" y2="33.348" xlink:href="#w"><stop stop-color="#fff" stop-opacity="0"/><stop offset="1" stop-color="#fff"/></linearGradient><linearGradient id="Z" x1="43.717" y1="4.283" x2="43.717" y2="33.347" xlink:href="#w"><stop stop-color="#fff" stop-opacity="0"/><stop offset="1" stop-color="#fff"/></linearGradient><linearGradient id="a" x1="47.387" y1="9.79" x2="47.387" y2="33.348" xlink:href="#w"><stop stop-color="#fff" stop-opacity="0"/><stop offset="1" stop-color="#fff"/></linearGradient><linearGradient id="b" x1="50.099" y1="16.826" x2="50.099" y2="33.347" xlink:href="#w"><stop stop-color="#fff" stop-opacity="0"/><stop offset="1" stop-color="#fff"/></linearGradient><linearGradient id="c" x1="51.854" y1="24.781" x2="51.854" y2="33.347" xlink:href="#w"><stop stop-color="#fff" stop-opacity="0"/><stop offset="1" stop-color="#fff"/></linearGradient><linearGradient id="d" x1="36.383" y1="33.069" x2="72.765" y2="33.069" xlink:href="#w"><stop stop-color="#fff"/><stop offset="1" stop-color="#fff" stop-opacity="0"/></linearGradient><linearGradient id="e" x1="51.854" y1="33.347" x2="51.854" y2="42.219" xlink:href="#w"><stop stop-color="#fff"/><stop offset="1" stop-color="#fff" stop-opacity="0"/></linearGradient><linearGradient id="f" x1="50.099" y1="33.347" x2="50.099" y2="50.173" xlink:href="#w"><stop stop-color="#fff"/><stop offset="1" stop-color="#fff" stop-opacity="0"/></linearGradient><linearGradient id="g" x1="47.387" y1="33.347" x2="47.387" y2="57.21" xlink:href="#w"><stop stop-color="#fff"/><stop offset="1" stop-color="#fff" stop-opacity="0"/></linearGradient><linearGradient id="h" x1="43.717" y1="33.347" x2="43.717" y2="62.411" xlink:href="#w"><stop stop-color="#fff"/><stop offset="1" stop-color="#fff" stop-opacity="0"/></linearGradient><linearGradient id="i" x1="39.569" y1="33.347" x2="39.569" y2="65.776" xlink:href="#w"><stop stop-color="#fff"/><stop offset="1" stop-color="#fff" stop-opacity="0"/></linearGradient><linearGradient id="j" x1="35.602" y1="33.347" x2="35.602" y2="67" xlink:href="#w"><stop stop-color="#fff"/><stop offset="1" stop-color="#fff" stop-opacity="0"/></linearGradient><linearGradient id="k" x1="30.473" y1="33.347" x2="30.473" y2="65.776" xlink:href="#w"><stop stop-color="#fff"/><stop offset="1" stop-color="#fff" stop-opacity="0"/></linearGradient><linearGradient id="l" x1="26.326" y1="33.347" x2="26.326" y2="62.411" xlink:href="#w"><stop stop-color="#fff"/><stop offset="1" stop-color="#fff" stop-opacity="0"/></linearGradient><linearGradient id="m" x1="22.656" y1="33.347" x2="22.656" y2="57.21" xlink:href="#w"><stop stop-color="#fff"/><stop offset="1" stop-color="#fff" stop-opacity="0"/></linearGradient><linearGradient id="n" x1="19.944" y1="33.347" x2="19.944" y2="50.173" xlink:href="#w"><stop stop-color="#fff"/><stop offset="1" stop-color="#fff" stop-opacity="0"/></linearGradient><linearGradient id="o" x1="18.188" y1="33.347" x2="18.188" y2="42.219" xlink:href="#w"><stop stop-color="#fff"/><stop offset="1" stop-color="#fff" stop-opacity="0"/></linearGradient><linearGradient id="p" x1=".72" y1="33.069" x2="35.301" y2="33.069" xlink:href="#w"><stop stop-color="#fff" stop-opacity="0"/><stop offset="1" stop-color="#fff"/></linearGradient><linearGradient id="q" x1="18.188" y1="24.781" x2="18.188" y2="33.347" xlink:href="#w"><stop stop-color="#fff" stop-opacity="0"/><stop offset="1" stop-color="#fff"/></linearGradient><linearGradient id="r" x1="19.944" y1="16.826" x2="19.944" y2="33.347" xlink:href="#w"><stop stop-color="#fff" stop-opacity="0"/><stop offset="1" stop-color="#fff"/></linearGradient><linearGradient id="s" x1="22.656" y1="9.79" x2="22.656" y2="33.348" xlink:href="#w"><stop stop-color="#fff" stop-opacity="0"/><stop offset="1" stop-color="#fff"/></linearGradient><linearGradient id="t" x1="26.326" y1="4.283" x2="26.326" y2="33.347" xlink:href="#w"><stop stop-color="#fff" stop-opacity="0"/><stop offset="1" stop-color="#fff"/></linearGradient><linearGradient id="u" x1="30.473" y1=".918" x2="30.473" y2="33.348" xlink:href="#w"><stop stop-color="#fff" stop-opacity="0"/><stop offset="1" stop-color="#fff"/></linearGradient><linearGradient id="v" x1="35.602" y1="0" x2="35.602" y2="33.347" xlink:href="#w"><stop stop-color="#fff" stop-opacity="0"/><stop offset="1" stop-color="#fff"/></linearGradient><linearGradient id="w" gradientUnits="userSpaceOnUse"/></defs></svg>