<svg xmlns="http://www.w3.org/2000/svg" xmlns:xlink="http://www.w3.org/1999/xlink" width="287" height="527" fill="none"><style>.B{stroke-opacity:.5}</style><g stroke-miterlimit="10" stroke-width=".619"><path stroke="url('#A')" d="m267.59 507.61 4.986-18.098" class="B"/><path stroke="url('#B')" d="m267.59 507.61 9.616-16.22" class="B"/><path stroke="url('#C')" d="m267.59 507.61 13.712-13.146" class="B"/><path stroke="url('#D')" d="m267.59 507.61 16.739-9.22" class="B"/><path stroke="url('#E')" d="m267.59 507.61 18.698-4.781" class="B"/><path stroke="url('#F')" d="M267.59 507.61H287" class="B"/><path stroke="url('#G')" d="m267.59 507.61 18.698 4.951" class="B"/><path stroke="url('#H')" d="m267.59 507.61 16.739 9.39" class="B"/><path stroke="url('#I')" d="m267.59 507.61 13.712 13.317" class="B"/><path stroke="url('#J')" d="m267.59 507.61 9.616 16.219" class="B"/><path stroke="url('#K')" d="m267.59 507.61 4.986 18.097" class="B"/><path stroke="url('#L')" d="M267.59 507.61v18.78" class="B"/><path stroke="url('#M')" d="m267.588 507.61-5.164 18.097" class="B"/><path stroke="url('#N')" d="m267.587 507.61-9.794 16.219" class="B"/><path stroke="url('#O')" d="m267.589 507.61-13.89 13.317" class="B"/><path stroke="url('#P')" d="M267.591 507.61 250.674 517" class="B"/><path stroke="url('#Q')" d="m267.589 507.61-18.876 4.951" class="B"/><path stroke="url('#R')" d="M267.588 507.61H248" class="B"/><path stroke="url('#S')" d="m267.589 507.61-18.876-4.781" class="B"/><path stroke="url('#T')" d="m267.591 507.61-16.917-9.22" class="B"/><path stroke="url('#U')" d="m267.589 507.61-13.89-13.146" class="B"/><path stroke="url('#V')" d="m267.587 507.61-9.794-16.22" class="B"/><path stroke="url('#W')" d="m267.588 507.61-5.164-18.098" class="B"/><path stroke="url('#X')" d="M267.59 507.61V489" class="B"/><path stroke="url('#Y')" d="M35.102 33.348 44.036.918" class="B"/><path stroke="url('#Z')" d="m35.102 33.347 17.23-29.064" class="B"/><path stroke="url('#a')" d="M35.102 33.348 59.672 9.79" class="B"/><path stroke="url('#b')" d="m35.102 33.347 29.995-16.52" class="B"/><path stroke="url('#c')" d="m35.102 33.347 33.505-8.566" class="B"/><path stroke="url('#d')" d="M35.102 33.347h34.781"/><path stroke="url('#e')" d="m35.102 33.347 33.505 8.872" class="B"/><path stroke="url('#f')" d="m35.102 33.347 29.995 16.826" class="B"/><path stroke="url('#g')" d="m35.102 33.347 24.57 23.863" class="B"/><path stroke="url('#h')" d="m35.102 33.347 17.23 29.064" class="B"/><path stroke="url('#i')" d="m35.102 33.347 8.934 32.43" class="B"/><path stroke="url('#j')" d="M35.102 33.347V67" class="B"/><path stroke="url('#k')" d="m35.1 33.347-9.254 32.43" class="B"/><path stroke="url('#l')" d="M35.101 33.347 17.551 62.41" class="B"/><path stroke="url('#m')" d="M35.1 33.347 10.21 57.21" class="B"/><path stroke="url('#n')" d="M35.101 33.347 4.787 50.173" class="B"/><path stroke="url('#o')" d="M35.1 33.347 1.275 42.219" class="B"/><path stroke="url('#p')" d="M35.1 33.347H0"/><path stroke="url('#q')" d="M35.1 33.347 1.275 24.781" class="B"/><path stroke="url('#r')" d="M35.101 33.347 4.787 16.827" class="B"/><path stroke="url('#s')" d="M35.1 33.348 10.21 9.79" class="B"/><path stroke="url('#t')" d="M35.101 33.347 17.551 4.283" class="B"/><path stroke="url('#u')" d="M35.1 33.348 25.846.918" class="B"/><path stroke="url('#v')" d="M35.102 33.347V0" class="B"/></g><defs><linearGradient xlink:href="#w" id="A" x1="270.083" x2="270.083" y1="489.512" y2="507.61"><stop stop-color="#fff" stop-opacity="0"/><stop offset="1" stop-color="#fff"/></linearGradient><linearGradient xlink:href="#w" id="B" x1="272.398" x2="272.398" y1="491.39" y2="507.61"><stop stop-color="#fff" stop-opacity="0"/><stop offset="1" stop-color="#fff"/></linearGradient><linearGradient xlink:href="#w" id="C" x1="274.446" x2="274.446" y1="494.464" y2="507.61"><stop stop-color="#fff" stop-opacity="0"/><stop offset="1" stop-color="#fff"/></linearGradient><linearGradient xlink:href="#w" id="D" x1="275.959" x2="275.959" y1="498.39" y2="507.61"><stop stop-color="#fff" stop-opacity="0"/><stop offset="1" stop-color="#fff"/></linearGradient><linearGradient xlink:href="#w" id="E" x1="276.939" x2="276.939" y1="502.829" y2="507.61"><stop stop-color="#fff" stop-opacity="0"/><stop offset="1" stop-color="#fff"/></linearGradient><linearGradient xlink:href="#w" id="F" x1="268.305" x2="288.608" y1="507.331" y2="507.331"><stop stop-color="#fff"/><stop offset="1" stop-color="#fff" stop-opacity="0"/></linearGradient><linearGradient xlink:href="#w" id="G" x1="276.939" x2="276.939" y1="507.61" y2="512.561"><stop stop-color="#fff"/><stop offset="1" stop-color="#fff" stop-opacity="0"/></linearGradient><linearGradient xlink:href="#w" id="H" x1="275.959" x2="275.959" y1="507.61" y2="517"><stop stop-color="#fff"/><stop offset="1" stop-color="#fff" stop-opacity="0"/></linearGradient><linearGradient xlink:href="#w" id="I" x1="274.446" x2="274.446" y1="507.61" y2="520.927"><stop stop-color="#fff"/><stop offset="1" stop-color="#fff" stop-opacity="0"/></linearGradient><linearGradient xlink:href="#w" id="J" x1="272.398" x2="272.398" y1="507.61" y2="523.829"><stop stop-color="#fff"/><stop offset="1" stop-color="#fff" stop-opacity="0"/></linearGradient><linearGradient xlink:href="#w" id="K" x1="270.083" x2="270.083" y1="507.61" y2="525.707"><stop stop-color="#fff"/><stop offset="1" stop-color="#fff" stop-opacity="0"/></linearGradient><linearGradient xlink:href="#w" id="L" x1="268.09" x2="268.09" y1="507.61" y2="526.39"><stop stop-color="#fff"/><stop offset="1" stop-color="#fff" stop-opacity="0"/></linearGradient><linearGradient xlink:href="#w" id="M" x1="265.006" x2="265.006" y1="507.61" y2="525.707"><stop stop-color="#fff"/><stop offset="1" stop-color="#fff" stop-opacity="0"/></linearGradient><linearGradient xlink:href="#w" id="N" x1="262.69" x2="262.69" y1="507.61" y2="523.829"><stop stop-color="#fff"/><stop offset="1" stop-color="#fff" stop-opacity="0"/></linearGradient><linearGradient xlink:href="#w" id="O" x1="260.644" x2="260.644" y1="507.61" y2="520.927"><stop stop-color="#fff"/><stop offset="1" stop-color="#fff" stop-opacity="0"/></linearGradient><linearGradient xlink:href="#w" id="P" x1="259.132" x2="259.132" y1="507.61" y2="517"><stop stop-color="#fff"/><stop offset="1" stop-color="#fff" stop-opacity="0"/></linearGradient><linearGradient xlink:href="#w" id="Q" x1="258.151" x2="258.151" y1="507.61" y2="512.561"><stop stop-color="#fff"/><stop offset="1" stop-color="#fff" stop-opacity="0"/></linearGradient><linearGradient xlink:href="#w" id="R" x1="248.402" x2="267.7" y1="507.331" y2="507.331"><stop stop-color="#fff" stop-opacity="0"/><stop offset="1" stop-color="#fff"/></linearGradient><linearGradient xlink:href="#w" id="S" x1="258.151" x2="258.151" y1="502.829" y2="507.61"><stop stop-color="#fff" stop-opacity="0"/><stop offset="1" stop-color="#fff"/></linearGradient><linearGradient xlink:href="#w" id="T" x1="259.132" x2="259.132" y1="498.39" y2="507.61"><stop stop-color="#fff" stop-opacity="0"/><stop offset="1" stop-color="#fff"/></linearGradient><linearGradient xlink:href="#w" id="U" x1="260.644" x2="260.644" y1="494.464" y2="507.61"><stop stop-color="#fff" stop-opacity="0"/><stop offset="1" stop-color="#fff"/></linearGradient><linearGradient xlink:href="#w" id="V" x1="262.69" x2="262.69" y1="491.39" y2="507.61"><stop stop-color="#fff" stop-opacity="0"/><stop offset="1" stop-color="#fff"/></linearGradient><linearGradient xlink:href="#w" id="W" x1="265.006" x2="265.006" y1="489.512" y2="507.61"><stop stop-color="#fff" stop-opacity="0"/><stop offset="1" stop-color="#fff"/></linearGradient><linearGradient xlink:href="#w" id="X" x1="268.09" x2="268.09" y1="489" y2="507.61"><stop stop-color="#fff" stop-opacity="0"/><stop offset="1" stop-color="#fff"/></linearGradient><linearGradient xlink:href="#w" id="Y" x1="39.569" x2="39.569" y1=".918" y2="33.348"><stop stop-color="#fff" stop-opacity="0"/><stop offset="1" stop-color="#fff"/></linearGradient><linearGradient xlink:href="#w" id="Z" x1="43.717" x2="43.717" y1="4.283" y2="33.347"><stop stop-color="#fff" stop-opacity="0"/><stop offset="1" stop-color="#fff"/></linearGradient><linearGradient xlink:href="#w" id="a" x1="47.387" x2="47.387" y1="9.79" y2="33.348"><stop stop-color="#fff" stop-opacity="0"/><stop offset="1" stop-color="#fff"/></linearGradient><linearGradient xlink:href="#w" id="b" x1="50.099" x2="50.099" y1="16.826" y2="33.347"><stop stop-color="#fff" stop-opacity="0"/><stop offset="1" stop-color="#fff"/></linearGradient><linearGradient xlink:href="#w" id="c" x1="51.854" x2="51.854" y1="24.781" y2="33.347"><stop stop-color="#fff" stop-opacity="0"/><stop offset="1" stop-color="#fff"/></linearGradient><linearGradient xlink:href="#w" id="d" x1="36.383" x2="72.765" y1="33.069" y2="33.069"><stop stop-color="#fff"/><stop offset="1" stop-color="#fff" stop-opacity="0"/></linearGradient><linearGradient xlink:href="#w" id="e" x1="51.854" x2="51.854" y1="33.347" y2="42.219"><stop stop-color="#fff"/><stop offset="1" stop-color="#fff" stop-opacity="0"/></linearGradient><linearGradient xlink:href="#w" id="f" x1="50.099" x2="50.099" y1="33.347" y2="50.173"><stop stop-color="#fff"/><stop offset="1" stop-color="#fff" stop-opacity="0"/></linearGradient><linearGradient xlink:href="#w" id="g" x1="47.387" x2="47.387" y1="33.347" y2="57.21"><stop stop-color="#fff"/><stop offset="1" stop-color="#fff" stop-opacity="0"/></linearGradient><linearGradient xlink:href="#w" id="h" x1="43.717" x2="43.717" y1="33.347" y2="62.411"><stop stop-color="#fff"/><stop offset="1" stop-color="#fff" stop-opacity="0"/></linearGradient><linearGradient xlink:href="#w" id="i" x1="39.569" x2="39.569" y1="33.347" y2="65.776"><stop stop-color="#fff"/><stop offset="1" stop-color="#fff" stop-opacity="0"/></linearGradient><linearGradient xlink:href="#w" id="j" x1="35.602" x2="35.602" y1="33.347" y2="67"><stop stop-color="#fff"/><stop offset="1" stop-color="#fff" stop-opacity="0"/></linearGradient><linearGradient xlink:href="#w" id="k" x1="30.473" x2="30.473" y1="33.347" y2="65.776"><stop stop-color="#fff"/><stop offset="1" stop-color="#fff" stop-opacity="0"/></linearGradient><linearGradient xlink:href="#w" id="l" x1="26.326" x2="26.326" y1="33.347" y2="62.411"><stop stop-color="#fff"/><stop offset="1" stop-color="#fff" stop-opacity="0"/></linearGradient><linearGradient xlink:href="#w" id="m" x1="22.656" x2="22.656" y1="33.347" y2="57.21"><stop stop-color="#fff"/><stop offset="1" stop-color="#fff" stop-opacity="0"/></linearGradient><linearGradient xlink:href="#w" id="n" x1="19.944" x2="19.944" y1="33.347" y2="50.173"><stop stop-color="#fff"/><stop offset="1" stop-color="#fff" stop-opacity="0"/></linearGradient><linearGradient xlink:href="#w" id="o" x1="18.188" x2="18.188" y1="33.347" y2="42.219"><stop stop-color="#fff"/><stop offset="1" stop-color="#fff" stop-opacity="0"/></linearGradient><linearGradient xlink:href="#w" id="p" x1=".72" x2="35.301" y1="33.069" y2="33.069"><stop stop-color="#fff" stop-opacity="0"/><stop offset="1" stop-color="#fff"/></linearGradient><linearGradient xlink:href="#w" id="q" x1="18.188" x2="18.188" y1="24.781" y2="33.347"><stop stop-color="#fff" stop-opacity="0"/><stop offset="1" stop-color="#fff"/></linearGradient><linearGradient xlink:href="#w" id="r" x1="19.944" x2="19.944" y1="16.826" y2="33.347"><stop stop-color="#fff" stop-opacity="0"/><stop offset="1" stop-color="#fff"/></linearGradient><linearGradient xlink:href="#w" id="s" x1="22.656" x2="22.656" y1="9.79" y2="33.348"><stop stop-color="#fff" stop-opacity="0"/><stop offset="1" stop-color="#fff"/></linearGradient><linearGradient xlink:href="#w" id="t" x1="26.326" x2="26.326" y1="4.283" y2="33.347"><stop stop-color="#fff" stop-opacity="0"/><stop offset="1" stop-color="#fff"/></linearGradient><linearGradient xlink:href="#w" id="u" x1="30.473" x2="30.473" y1=".918" y2="33.348"><stop stop-color="#fff" stop-opacity="0"/><stop offset="1" stop-color="#fff"/></linearGradient><linearGradient xlink:href="#w" id="v" x1="35.602" x2="35.602" y1="0" y2="33.347"><stop stop-color="#fff" stop-opacity="0"/><stop offset="1" stop-color="#fff"/></linearGradient><linearGradient id="w" gradientUnits="userSpaceOnUse"/></defs></svg>