<svg width="249" height="47" fill="none" xmlns="http://www.w3.org/2000/svg"><g clip-path="url('#clip0_5420_9368')"><path d="M248.416 35.25c.137 0 .228.09.228.227v10.84c0 .136-.091.227-.228.227h-.063a.377.377 0 0 1-.29-.11l-7.988-8.288v7.988c0 .137-.091.228-.227.228h-1.039c-.136 0-.227-.091-.227-.228v-10.84c0-.136.091-.227.227-.227h.059c.109 0 .2.018.29.11l7.993 8.288v-7.988c0-.137.09-.228.226-.228h1.039ZM233.407 46.093c.073.169-.004.269-.167.269h-1.248c-.118 0-.209-.046-.259-.169l-1.207-2.8h-5.201l-1.293 2.8a.268.268 0 0 1-.259.169h-1.107c-.164 0-.259-.1-.182-.269l5.119-10.858a.262.262 0 0 1 .259-.168h.363c.118 0 .209.06.259.168l4.923 10.858Zm-7.528-3.903h4.125l-1.993-4.623-2.132 4.623ZM217.844 43.315c.118.055.181.164.109.314-1.04 2.086-2.664 2.897-4.639 2.897-2.904 0-5.645-2.186-5.645-5.72 0-3.535 2.741-5.721 5.645-5.721 1.975 0 3.599.81 4.639 2.897.072.15.009.26-.109.314l-.799.387c-.118.055-.241.032-.318-.123-.794-1.576-2.01-2.2-3.413-2.2-2.368 0-4.079 1.813-4.079 4.445 0 2.633 1.711 4.446 4.079 4.446 1.403 0 2.619-.624 3.413-2.2.077-.155.2-.178.318-.123l.799.387ZM195.532 38.141c0 2.656 6.621 1.17 6.621 5.183 0 2.223-2.038 3.202-4.316 3.202-1.706 0-2.918-.547-3.966-1.184-.132-.078-.173-.173-.109-.31l.358-.788c.059-.123.177-.173.313-.095.945.546 1.834 1.102 3.477 1.102 1.597 0 2.678-.515 2.678-1.735 0-2.984-6.549-1.317-6.549-5.256 0-1.754 1.438-3.175 4.134-3.175 1.761 0 2.782.547 3.594 1.002.109.06.173.16.104.31l-.385.833c-.064.132-.159.173-.345.055-.535-.342-1.566-.961-2.977-.961-1.874 0-2.632.902-2.632 1.817Z" fill="#fff" fill-opacity=".65"/><path d="M248.297 27.467c.208 0 .347.139.347.348v1.252c0 .21-.139.348-.347.348H236.112a.353.353 0 0 1-.346-.348V12.782c0-.188.159-.348.346-.348h11.907c.208 0 .347.14.347.348v1.253c0 .208-.139.348-.347.348h-9.972V19.7h8.863c.208 0 .346.139.346.34v1.26c0 .21-.138.348-.346.348h-8.863v5.819h10.25ZM227.429 27.467c.208 0 .347.139.347.348v1.252c0 .21-.139.348-.347.348h-11.283a.353.353 0 0 1-.346-.348V12.782c0-.188.159-.348.346-.348h1.588c.188 0 .347.16.347.348v14.685h9.348ZM198.481 12.183c4.439 0 8.627 3.34 8.627 8.742 0 5.4-4.188 8.74-8.627 8.74-4.438 0-8.627-3.34-8.627-8.74 0-5.401 4.189-8.742 8.627-8.742Zm0 15.534c3.62 0 6.235-2.77 6.235-6.792 0-4.023-2.615-6.793-6.235-6.793s-6.234 2.77-6.234 6.793c0 4.022 2.614 6.792 6.234 6.792ZM180.813 12.434c.187 0 .346.16.346.348v16.285a.353.353 0 0 1-.346.348h-1.588a.353.353 0 0 1-.347-.348v-7.419h-10.534v7.42c0 .187-.16.347-.347.347h-1.588a.353.353 0 0 1-.347-.348V12.782c0-.188.16-.348.347-.348h1.588c.187 0 .347.16.347.348V19.7h10.534v-6.918c0-.188.159-.348.347-.348h1.588ZM155.824 12.392a.5.5 0 0 1 .423-.236h.52c.208 0 .347.139.347.348v16.563c0 .209-.139.348-.347.348h-1.588c-.208 0-.346-.139-.346-.348V17.312l-6.415 9.32c-.152.215-.347.194-.478 0l-6.415-9.32v11.755c0 .209-.139.348-.347.348h-1.588c-.208 0-.347-.139-.347-.348V12.504c0-.21.139-.348.347-.348h.513c.167 0 .312.076.43.236l7.642 10.71 7.649-10.71ZM126.452 22.79l3.988 5.936c.235.341.028.69-.368.69h-1.629a.32.32 0 0 1-.264-.154l-4.092-6.194h-4.396v6c0 .187-.16.347-.347.347h-1.588a.353.353 0 0 1-.347-.348V12.782c0-.188.16-.348.347-.348H124.018c4.383 0 6.546 2.31 6.546 5.317 0 2.387-1.359 4.336-4.112 5.039Zm-6.761-1.67h3.876c3.447 0 4.605-1.434 4.605-3.369 0-1.928-1.158-3.368-4.605-3.368h-3.876v6.737ZM100.09 12.183c4.439 0 8.627 3.34 8.627 8.742 0 5.4-4.188 8.74-8.627 8.74-4.438 0-8.626-3.34-8.626-8.74 0-5.401 4.188-8.742 8.626-8.742Zm0 15.534c3.62 0 6.235-2.77 6.235-6.792 0-4.023-2.615-6.793-6.235-6.793s-6.234 2.77-6.234 6.793c0 4.022 2.615 6.792 6.234 6.792ZM84.103 12.434c.256 0 .353.16.263.41L78.52 29.437c-.055.16-.187.258-.388.258h-.444a.408.408 0 0 1-.395-.258L72.91 17.8l-4.376 11.636a.393.393 0 0 1-.388.258h-.451a.39.39 0 0 1-.388-.258L61.46 12.852c-.09-.258.007-.418.257-.418h1.81c.187 0 .325.07.394.258l4.169 12.562 4.237-11.505a.4.4 0 0 1 .395-.257h.381c.188 0 .32.09.389.257l4.361 11.505 4.071-12.562c.07-.188.208-.258.396-.258h1.782ZM30.25 39.027c-1.979-.003-3.938-.4-5.765-1.166a15.007 15.007 0 0 1-4.876-3.298 15.352 15.352 0 0 1-4.42-10.765 15.334 15.334 0 0 1 4.42-10.764 15.008 15.008 0 0 1 4.877-3.297 14.966 14.966 0 0 1 5.765-1.165c1.98.003 3.939.398 5.766 1.164a15.011 15.011 0 0 1 4.877 3.298A15.339 15.339 0 0 1 45.313 23.8a15.343 15.343 0 0 1-4.42 10.767 15.009 15.009 0 0 1-4.876 3.299 14.967 14.967 0 0 1-5.765 1.165v-.004Zm0-29.467a13.993 13.993 0 0 0-5.39 1.089 14.034 14.034 0 0 0-4.561 3.084 14.335 14.335 0 0 0-4.132 10.065 14.34 14.34 0 0 0 4.134 10.064 14.033 14.033 0 0 0 4.56 3.082 13.994 13.994 0 0 0 5.39 1.088 13.994 13.994 0 0 0 5.39-1.088 14.033 14.033 0 0 0 4.56-3.082 14.34 14.34 0 0 0 4.133-10.064 14.354 14.354 0 0 0-4.131-10.065 14.034 14.034 0 0 0-4.561-3.084A13.993 13.993 0 0 0 30.25 9.56Z" fill="#fff"/><g filter="url('#filter0_f_5420_9368')"><path d="M30.25 27.95c1.86 0 3.368-1.527 3.368-3.41 0-1.883-1.507-3.41-3.368-3.41-1.86 0-3.368 1.527-3.368 3.41 0 1.883 1.508 3.41 3.368 3.41Z" fill="#fff"/></g><path d="m14.814 2.539 15.712 22.05-29.99-.587.65-4.476C4.04 10.113 6.471 5.02 14.814 2.54Z" fill="#fff" fill-opacity=".15"/><path d="M6.45 8.805c1.846-2.54 4.301-4.324 8.115-5.53l14.722 20.66-28.027-.55.541-3.72c1.422-4.686 2.717-8.204 4.648-10.86Z" stroke="url('#paint0_linear_5420_9368')" stroke-width="2.71"/><path d="M22.929 46.36a22.808 22.808 0 0 1-16.201-6.792C2.428 35.222.01 29.328 0 23.182A23.358 23.358 0 0 1 6.726 6.794 22.807 22.807 0 0 1 22.926 0c6.076-.004 11.904 2.448 16.201 6.794a23.358 23.358 0 0 1 6.726 16.388 23.358 23.358 0 0 1-6.726 16.388 22.805 22.805 0 0 1-16.2 6.792l.002-.002Zm0-44.575c-2.782.004-5.535.56-8.102 1.636a21.085 21.085 0 0 0-6.853 4.635 21.56 21.56 0 0 0-6.209 15.126A21.53 21.53 0 0 0 7.972 38.31a21.046 21.046 0 0 0 14.957 6.265c5.608 0 10.99-2.254 14.957-6.265a21.553 21.553 0 0 0 6.206-15.128 21.56 21.56 0 0 0-6.209-15.126 21.084 21.084 0 0 0-6.853-4.635 21.024 21.024 0 0 0-8.101-1.636Z" fill="#fff"/></g><defs><linearGradient id="paint0_linear_5420_9368" x1="11.349" y1="4.917" x2="30.551" y2="23.868" gradientUnits="userSpaceOnUse"><stop stop-color="#fff" stop-opacity="0"/><stop offset=".585" stop-color="#fff"/><stop offset="1" stop-color="#fff" stop-opacity="0"/></linearGradient><clipPath id="clip0_5420_9368"><path fill="#fff" d="M0 0h249v47H0z"/></clipPath><filter id="filter0_f_5420_9368" x="25.042" y="19.291" width="10.416" height="10.499" filterUnits="userSpaceOnUse" color-interpolation-filters="sRGB"><feFlood flood-opacity="0" result="BackgroundImageFix"/><feBlend in="SourceGraphic" in2="BackgroundImageFix" result="shape"/><feGaussianBlur stdDeviation=".92" result="effect1_foregroundBlur_5420_9368"/></filter></defs></svg>