<svg xmlns="http://www.w3.org/2000/svg" width="100" height="100" fill="none"><path fill="#F0B90B" d="M50.755 0 24.2 15.318l9.765 5.657 16.792-9.657 16.793 9.657 9.765-5.658zM67.55 28.975l9.765 5.66v11.318L60.52 55.61v19.317l-9.763 5.658-9.765-5.657V55.61l-16.795-9.66V34.632l9.765-5.66 16.793 9.66 16.795-9.66z"/><path fill="#F0B90B" d="M77.315 53.95v11.317l-9.765 5.66V59.61z"/><path fill="#F0B90B" d="m67.453 78.925 16.795-9.657V49.95l9.764-5.658v30.635l-26.56 15.318zm16.797-48.29-9.77-5.66 9.77-5.658 9.765 5.658v11.317l-9.765 5.66zM40.993 94.342V83.026l9.762 5.657 9.765-5.657v11.317L50.757 100zm-7.03-23.417-9.765-5.657V53.953l9.764 5.657zm16.792-40.29-9.763-5.66 9.763-5.658 9.765 5.658zm-23.725-5.66-9.765 5.66v11.317L7.5 36.293V24.975l9.765-5.658z"/><path fill="#F0B90B" d="m7.5 44.293 9.765 5.66v19.314l16.795 9.66v11.318L7.5 74.925z"/></svg>