<svg xmlns="http://www.w3.org/2000/svg" width="24" height="24" fill="none"><mask id="A" width="16" height="16" x="4" y="4" mask-type="alpha" maskUnits="userSpaceOnUse"><path fill="#fff" d="M4 4h16v16H4z"/></mask><g mask="url('#A')"><path fill="#fff" d="m6.732 12 .008 3.095 2.629 1.547v1.812l-4.168-2.445v-4.914l1.53.905zm0-3.095v1.803L5.2 9.803V8l1.531-.906L8.27 8l-1.539.906zM10.468 8l1.531-.906L13.538 8l-1.539.906zm-2.63 6.453v-1.812l1.531.906v1.803zm2.63 2.838 1.531.906 1.539-.906v1.803L11.999 20l-1.531-.906zM15.734 8l1.531-.906L18.804 8v1.803l-1.539.906V8.906zm1.531 7.095L17.274 12l1.531-.906v4.914l-4.168 2.445v-1.812l2.629-1.546zm-1.098-.642-1.531.897v-1.803l1.531-.906zm0-4.906.008 1.812-2.637 1.547v3.102l-1.531.897-1.531-.897v-3.102l-2.637-1.547V9.547l1.538-.906 2.621 1.555 2.637-1.555 1.539.906zM7.838 6.453 11.999 4l4.168 2.453-1.531.906-2.637-1.555L9.37 7.359z"/></g></svg>