<svg viewBox="0 0 233 233" xmlns="http://www.w3.org/2000/svg"><defs><linearGradient id="linear-gradient" x1="177.86" y1="291.18" x2="341.06" y2="127.98" gradientUnits="userSpaceOnUse" gradientTransform="translate(-102.115 -51.081)"><stop offset="0" stop-color="#B090F5"/><stop offset="1" stop-color="#5FBFFF"/></linearGradient><linearGradient id="linear-gradient-2" x1="96.43" y1="207.75" x2="259.64" y2="44.55" gradientUnits="userSpaceOnUse" gradientTransform="translate(-102.115 -51.081)"><stop offset="0" stop-color="#68D7FA"/><stop offset="1" stop-color="#7EF1B3"/></linearGradient></defs><path class="cls-1-1" d="m217.315 59.288-5-8.78c-1.682-2.952-5.714-3.489-8.11-1.08l-11.5 11.49a5.17 5.17 0 0 0-.64 6.51 90.168 90.168 0 0 1 10 20.58c19.693 58.449-23.772 118.98-85.45 119a89.386 89.386 0 0 1-42.26-10.49l19.45-19.46c46.377 17.541 94.351-21.7 86.353-70.634a64.38 64.38 0 0 0-5.583-17.656c-1.536-3.204-5.78-3.926-8.29-1.41l-11.64 11.56a5.143 5.143 0 0 0-1.37 4.82l1 4.18c6.804 28.949-20.282 54.406-48.754 45.824a38.664 38.664 0 0 1-7.996-3.434l-5.13-2.94a5.131 5.131 0 0 0-6.2.83l-47.51 47.5a5.15 5.15 0 0 0 .51 7.73l7 5.37a114.861 114.861 0 0 0 70.46 23.88c88.919-.114 144.652-96.116 100.66-173.39Z" style="fill:url(#linear-gradient)"/><path class="cls-2" d="M187.095 24.738a114.827 114.827 0 0 0-70.46-23.89C27.665.917-28.11 96.991 15.945 174.288l5 8.77c1.689 2.947 5.715 3.488 8.12 1.09l11.48-11.48a5.19 5.19 0 0 0 .64-6.5 89.86 89.86 0 0 1-10-20.58c-19.693-58.449 23.773-118.981 85.45-119a89.294 89.294 0 0 1 42.25 10.52l-19.46 19.45c-42.136-15.97-87.223 15.168-87.21 60.23 0 1.07.29 5.95.38 6.79a64.768 64.768 0 0 0 6.07 21.27c1.542 3.204 5.787 3.925 8.3 1.41l11.64-11.65a5.146 5.146 0 0 0 1.38-4.81l-1-4.19c-6.809-28.939 20.262-54.398 48.729-45.826a38.602 38.602 0 0 1 8.021 3.446l5.13 2.94a5.16 5.16 0 0 0 6.2-.83l47.5-47.5a5.159 5.159 0 0 0-.5-7.74l-6.97-5.36Z" style="fill:url(#linear-gradient-2)"/></svg>