<svg xmlns="http://www.w3.org/2000/svg" width="24" height="24" fill="none"><mask id="A" width="16" height="16" x="4" y="4" mask-type="alpha" maskUnits="userSpaceOnUse"><path fill="#d9d9d9" d="M4 4h16v16H4z"/></mask><g fill="#fff" stroke="#fff" stroke-width=".083" mask="url('#A')"><path d="M10.526 17.551a4.077 4.077 0 0 0 4.077-4.077 4.08 4.08 0 0 0-4.077-4.077 4.08 4.08 0 0 0-4.077 4.077 4.077 4.077 0 0 0 4.077 4.077zm0 1.425a5.502 5.502 0 1 1 0-11.003 5.502 5.502 0 0 1 0 11.003z" opacity=".8"/><path d="M13.474 14.603a4.077 4.077 0 1 0 0-8.154 4.08 4.08 0 0 0-4.077 4.077 4.08 4.08 0 0 0 4.077 4.077zm0 1.425a5.502 5.502 0 1 1 0-11.003 5.502 5.502 0 0 1 0 11.003z" opacity=".8"/><path d="M15.604 15.605a5.5 5.5 0 0 1-1.895.421 4.1 4.1 0 0 0 .771-1.547 4.1 4.1 0 0 0 1.547-.771 5.4 5.4 0 0 1-.423 1.896zm-5.313-7.631a4.1 4.1 0 0 0-.77 1.547 4.1 4.1 0 0 0-1.547.771 5.4 5.4 0 0 1 .423-1.895 5.5 5.5 0 0 1 1.895-.423z"/></g></svg>