<svg xmlns="http://www.w3.org/2000/svg" width="24" height="24" fill="none"><mask id="A" maskUnits="userSpaceOnUse" x="4" y="4" width="16" height="16" mask-type="alpha"><path fill="#d9d9d9" d="M4 4h16v16H4z"/></mask><g mask="url('#A')" fill="#fff" stroke="#fff" stroke-width=".083"><path opacity=".8" d="M10.526 17.551a4.077 4.077 0 0 0 4.077-4.077 4.08 4.08 0 0 0-4.077-4.077 4.08 4.08 0 0 0-4.077 4.077 4.077 4.077 0 0 0 4.077 4.077zm0 1.425a5.502 5.502 0 1 1 0-11.003 5.502 5.502 0 0 1 0 11.003z"/><path opacity=".8" d="M13.474 14.603a4.077 4.077 0 1 0 0-8.154 4.08 4.08 0 0 0-4.077 4.077 4.08 4.08 0 0 0 4.077 4.077zm0 1.425a5.502 5.502 0 1 1 0-11.003 5.502 5.502 0 0 1 0 11.003z"/><path d="M15.604 15.605a5.47 5.47 0 0 1-1.895.421 4.06 4.06 0 0 0 .771-1.547 4.066 4.066 0 0 0 1.547-.771 5.438 5.438 0 0 1-.423 1.896zm-5.313-7.631a4.06 4.06 0 0 0-.77 1.547 4.08 4.08 0 0 0-1.547.771 5.427 5.427 0 0 1 .423-1.895 5.524 5.524 0 0 1 1.895-.423z"/></g></svg>