<svg xmlns="http://www.w3.org/2000/svg" width="200" height="200" fill="none"><path fill="#F5AC37" d="M100 0c55.234 0 100 44.775 100 100 0 55.234-44.766 100-100 100C44.775 200 0 155.229 0 100 0 44.775 44.775 0 100 0"/><path fill="#FEFEFD" d="M103.686 107.06h37.998c.81 0 1.193 0 1.251-1.062a72.5 72.5 0 0 0 0-11.623c0-.752-.373-1.062-1.188-1.062H66.124c-.936 0-1.188.31-1.188 1.188v11.124c0 1.435 0 1.435 1.498 1.435zm35.005-26.748a1.22 1.22 0 0 0 0-.873 24.7 24.7 0 0 0-2.259-3.937 32 32 0 0 0-4.626-5.814 15.3 15.3 0 0 0-2.875-2.813 44.9 44.9 0 0 0-18.752-9.5 46.6 46.6 0 0 0-10.624-1.125H65.993c-.936 0-1.062.374-1.062 1.188v22.186c0 .936 0 1.188 1.188 1.188h72.122s.626-.126.752-.5h-.306zm0 39.749a14.6 14.6 0 0 0-3.195 0h-69.31c-.935 0-1.25 0-1.25 1.251v21.69c0 .999 0 1.251 1.25 1.251h32c1.53.117 3.061.009 4.559-.31a47.6 47.6 0 0 0 13.568-3.002 24.8 24.8 0 0 0 4.558-2.124h.437a40.6 40.6 0 0 0 17.437-17.554s.437-.945-.054-1.193zm-86.315 35.438v-34.56c0-.815 0-.936-.999-.936H37.814c-.751 0-1.062 0-1.062-.999v-11.876h14.5c.81 0 1.124 0 1.124-1.062v-11.75c0-.751 0-.936-.999-.936H37.814c-.751 0-1.062 0-1.062-.999V81.383c0-.688 0-.873.999-.873h13.437c.936 0 1.188 0 1.188-1.188V45.635c0-1 0-1.251 1.251-1.251H100.5c3.402.135 6.781.508 10.125 1.125a61.1 61.1 0 0 1 19.561 7.25 55 55 0 0 1 10.998 8.5 60 60 0 0 1 6.688 8.311 50 50 0 0 1 4.882 9.563 1.63 1.63 0 0 0 1.868 1.314h11.187c1.435 0 1.435 0 1.498 1.377v10.251c0 1-.373 1.251-1.377 1.251h-8.626c-.873 0-1.125 0-1.062 1.125a64 64 0 0 1 0 11.435c0 1.062 0 1.188 1.192 1.188h9.869c.436.562 0 1.125 0 1.692a12.6 12.6 0 0 1 0 2.182v7.565c0 1.062-.311 1.377-1.251 1.377h-11.813a1.564 1.564 0 0 0-1.813 1.188 50 50 0 0 1-13.127 19.125 75 75 0 0 1-6.687 5.373c-2.502 1.44-4.937 2.939-7.502 4.127a67.5 67.5 0 0 1-14.751 4.684 77 77 0 0 1-14.625 1.188H52.358v-.063z"/></svg>