<svg xmlns="http://www.w3.org/2000/svg" width="32" height="25" fill="none" viewBox="0 -1 32 25"><path fill="#fff" d="M17.099 13.215a2.987 2.987 0 0 1 2.732-3H32.37l-4.072 2.712h-6.825a1.67 1.67 0 0 0-1.66 1.661v6.785l-2.68 3.221zM16.15 9.579a2.68 2.68 0 0 1-1.888-.717L5.214 0l4.922.964 4.93 4.836a1.69 1.69 0 0 0 2.364 0L22.373.972l4.91-.971-8.848 8.707a3.35 3.35 0 0 1-2.284.87M12.55 21.366v-6.778a1.67 1.67 0 0 0-1.66-1.668H4.058L0 10.207h12.263a3.16 3.16 0 0 1 2.09.831 2.6 2.6 0 0 1 .91 1.909v11.647z"/></svg>