<svg xmlns="http://www.w3.org/2000/svg" width="32" height="25" viewBox="0 -1 32 25" fill="none"><path d="M17.099 13.215a2.987 2.987 0 0 1 2.732-3H32.37l-4.072 2.712h-6.825a1.668 1.668 0 0 0-1.66 1.661v6.785l-2.68 3.221-.033-11.379ZM16.15 9.579a2.68 2.68 0 0 1-1.888-.717L5.214 0l4.922.964 4.93 4.836a1.688 1.688 0 0 0 2.364 0L22.373.972l4.91-.971-8.848 8.707a3.349 3.349 0 0 1-2.284.87ZM12.55 21.366v-6.778a1.668 1.668 0 0 0-1.66-1.668H4.058L0 10.207h12.263a3.161 3.161 0 0 1 2.09.831 2.59 2.59 0 0 1 .91 1.909v11.647l-2.712-3.228Z" fill="#fff"/></svg>