<svg xmlns="http://www.w3.org/2000/svg" width="41" height="39" fill="none" viewBox="-10 -10 61 59"><path fill="#fff" d="M2.741 24.322q-1.313-1.309-1.76-3.023a6.9 6.9 0 0 1 0-3.449 6.5 6.5 0 0 1 1.75-3.033q1.324-1.32 3.052-1.755a6.96 6.96 0 0 1 3.46 0q1.728.435 3.042 1.745l2.167 2.16 3.209-3.2-2.167-2.16Q14.18 10.3 13.733 8.584a6.95 6.95 0 0 1-.01-3.438q.437-1.724 1.76-3.044Q16.796.794 18.525.357a6.84 6.84 0 0 1 3.449.01q1.73.437 3.042 1.746 1.313 1.308 1.75 3.033a6.8 6.8 0 0 1 .01 3.438q-.426 1.735-1.739 3.044l-2.157 2.15 3.199 3.19 2.156-2.151q1.313-1.31 3.032-1.755a6.84 6.84 0 0 1 3.449.01q1.729.436 3.053 1.755 1.312 1.31 1.75 3.034a6.67 6.67 0 0 1 0 3.428q-.438 1.724-1.75 3.033-1.324 1.32-3.053 1.755a7 7 0 0 1-3.449-.01q-1.708-.436-3.021-1.745l-2.157-2.15-3.209 3.199 2.157 2.15q1.313 1.309 1.74 3.023.438 1.725 0 3.449-.438 1.725-1.76 3.043a6.55 6.55 0 0 1-3.043 1.746 6.96 6.96 0 0 1-3.459 0q-1.71-.437-3.021-1.745-1.324-1.32-1.772-3.034a6.9 6.9 0 0 1 0-3.448 6.6 6.6 0 0 1 1.761-3.023l2.178-2.171-3.199-3.19-2.177 2.172a6.47 6.47 0 0 1-3.053 1.734 6.97 6.97 0 0 1-3.459 0q-1.72-.446-3.032-1.755m2.605-2.597a2.94 2.94 0 0 0 1.375.79 3.1 3.1 0 0 0 1.573.01 2.94 2.94 0 0 0 1.376-.79l2.177-2.17-2.167-2.161a2.86 2.86 0 0 0-1.386-.78 3.14 3.14 0 0 0-1.562 0q-.781.198-1.386.8a3 3 0 0 0-.802 1.361 3.1 3.1 0 0 0 0 1.558q.208.79.802 1.382M18.098 9.01l2.167 2.16 2.157-2.15q.605-.602.792-1.37a3.1 3.1 0 0 0-.01-1.57 2.93 2.93 0 0 0-.793-1.37 2.94 2.94 0 0 0-1.375-.79 3.14 3.14 0 0 0-1.562 0 2.9 2.9 0 0 0-1.376.79 3.1 3.1 0 0 0-.812 1.37 3.1 3.1 0 0 0 0 1.559q.218.78.812 1.371m9.986 10.565 2.156 2.15q.594.592 1.365.8c.521.131 1.649.128 2.163-.01q.78-.198 1.386-.8.603-.604.791-1.372a3 3 0 0 0 .01-1.547 2.93 2.93 0 0 0-.791-1.372 2.97 2.97 0 0 0-1.386-.8c-.52-.131-1.652-.131-2.173 0a2.97 2.97 0 0 0-1.365.8zM18.098 34.44a2.94 2.94 0 0 0 1.376.789q.78.198 1.552-.01a2.94 2.94 0 0 0 1.375-.79q.604-.602.802-1.381a3 3 0 0 0 .01-1.548 2.85 2.85 0 0 0-.78-1.382l-2.157-2.15-2.178 2.171a3 3 0 0 0-.802 1.36 3.1 3.1 0 0 0 0 1.559q.199.78.802 1.382m-1.031-14.865 3.198 3.189 3.21-3.2-3.2-3.189z"/></svg>