<svg xmlns="http://www.w3.org/2000/svg" width="336" height="336" version="1.0" viewBox="0 0 252 252"><path fill="#24201FFF" stroke="#24201FFF" d="M1 126v125h250V1H1v125m137.628-75.262c5.341 2.818 11.702 10.082 13.196 15.069 1.524 5.087 1.5 13.379-.054 18.566-.816 2.723-3.558 6.556-8.146 11.386-6.271 6.602-7.242 8.498-4.541 8.866.505.069.595.181.201.25-1.084.189 9.982 11.125 11.258 11.125.61 0 2.166-1.125 3.458-2.5s2.045-2.5 1.674-2.5-.42.031-.111.069c.574.07 9.581-7.974 9.165-8.184-.126-.064.222-.195.772-.292s3.025-.769 5.5-1.494c12.94-3.793 28.599 4.609 32.137 17.242 2.989 10.675.367 21.043-7.082 28.011-8.471 7.924-19.501 9.544-30.007 4.407-2.501-1.223-4.885-2.288-5.298-2.366-.412-.079-.428-.199-.034-.268s-1.727-2.598-4.712-5.621l-5.428-5.496-3.737 3.649c-2.055 2.007-3.707 3.918-3.67 4.246.038.328.015.429-.051.225-.065-.205-.788.183-1.607.863s-1.199 1.704-.845 2.277c.353.572.174.751-.398.398-.573-.354-1.573-.003-2.224.781-.959 1.155.113 2.82 5.679 8.824 4.384 4.728 7.298 8.856 8.069 11.431 1.534 5.119 1.548 13.43.032 18.491-1.505 5.023-7.892 12.287-13.196 15.009-3.814 1.957-17.628 4.142-17.628 2.788 0-.324-1.627-1.176-3.615-1.895-5.101-1.845-11.099-7.597-14.108-13.532-1.975-3.893-2.568-6.565-2.568-11.563 0-8.116 2.839-13.999 10.814-22.41l5.603-5.909-6.313-6.564c-3.472-3.611-6.437-6.776-6.589-7.034s-2.953 2.18-6.224 5.417-5.697 6.136-5.391 6.443.07.613-.526.682-1.56.181-2.142.25-.784.57-.448 1.114c.364.589-.117.727-1.191.34-.991-.356-1.462-.273-1.045.185.416.458-.259.925-1.5 1.037s-4.282.521-6.757.908c-2.607.408-6.393.22-9-.448-2.475-.633-5.4-1.307-6.5-1.498-1.1-.19-1.673-.384-1.272-.43.4-.045-1.265-1.92-3.701-4.164-6.358-5.861-8.395-10.729-8.545-20.419-.068-4.4-.091-7.792-.053-7.539.039.254.956-1.275 2.039-3.397 1.082-2.123 1.687-4.313 1.345-4.866-.342-.554-.174-.73.374-.391s2.506-.942 4.351-2.846 2.929-3.498 2.408-3.544-.046-.234 1.054-.417c1.1-.184 4.025-1.091 6.5-2.017 3.35-1.252 6.033-1.515 10.5-1.026 8.835.967 9.593 1.117 8.942 1.767-.498.498 1.922 1.682 4.808 2.352.413.096.428.23.034.299-1.059.185 9.966 11.125 11.211 11.125.584 0 3.962-2.925 7.505-6.5l6.442-6.5-6.177-6.25c-7.672-7.762-10.501-13.793-10.452-22.28.044-7.65 3.153-14.4 9.112-19.783 2.245-2.028 3.967-3.739 3.828-3.802-.312-.142 1.297-.528 3.056-.733.72-.083 1.095-.498.834-.92s3.425-.747 8.191-.72c6.909.038 9.503.489 12.794 2.226"/><path fill="#F2E1D4FF" stroke="#F2E1D4FF" d="M120.5 48.876c-11.411 3.002-19.618 13.667-19.687 25.586-.049 8.495 2.778 14.523 10.452 22.288l6.177 6.25-6.442 6.5c-3.543 3.575-6.921 6.5-7.505 6.5-.585 0-3.523-2.511-6.529-5.579-7.85-8.013-11.803-9.875-20.966-9.875-8.895 0-13.604 2.06-19.415 8.492C51.45 114.722 50 118.676 50 127s1.45 12.278 6.585 17.962c7.171 7.938 16.596 10.581 26.972 7.565 4.828-1.404 7.085-2.913 13.135-8.779 4.018-3.896 7.419-6.884 7.557-6.64s3.104 3.411 6.591 7.036l6.34 6.591-5.954 6.382c-7.919 8.49-10.469 13.66-10.525 21.343-.186 25.091 29.5 36.887 45.911 18.243C151.224 191.464 153 186.543 153 179c0-8.667-1.788-12.652-9.32-20.776l-6.905-7.447 6.792-6.845 6.793-6.845 7.265 6.902c5.6 5.32 8.465 7.257 12.502 8.456 6.576 1.953 9.181 1.95 15.815-.02 17.979-5.34 24.528-29.281 11.79-43.1-6.237-6.767-10.76-8.779-19.732-8.779-9.163 0-13.116 1.862-20.966 9.875-3.006 3.068-5.944 5.579-6.529 5.579-.584 0-3.94-2.903-7.457-6.452l-6.394-6.451 6.943-7.31c4.611-4.854 7.356-8.688 8.173-11.414 1.554-5.187 1.578-13.479.054-18.566-1.499-5.004-7.891-12.29-13.123-14.96-4.411-2.25-13.427-3.226-18.201-1.971m64.602 67.407c2.185 1.467 3.923 3.788 4.867 6.5 1.292 3.709 1.292 4.725 0 8.434-2.031 5.831-6.605 8.783-13.608 8.783-5.202 0-5.52-.169-12.102-6.43l-6.759-6.429 4.5-4.687c2.475-2.578 5.85-5.533 7.5-6.567 4.256-2.666 11.311-2.487 15.602.396M81.8 115.422c1.485.781 4.867 3.639 7.515 6.35l4.816 4.93-4.749 5.218c-2.612 2.87-5.994 5.862-7.516 6.649-11.062 5.721-23.074-6.531-17.317-17.663 3.107-6.009 11.304-8.615 17.251-5.484m52.267-51.156c1.878 1.266 3.982 3.895 4.767 5.957 2.273 5.973.897 9.961-5.884 17.054L127 93.5l-5.95-6.223c-6.781-7.093-8.157-11.081-5.884-17.054 2.877-7.558 12.176-10.489 18.901-5.957m-1.339 101.984c7.412 7.541 8.728 11.879 5.602 18.467-4.545 9.577-18.115 9.577-22.66 0-3.103-6.538-1.933-10.444 5.472-18.273 2.831-2.994 5.436-5.444 5.787-5.444.352 0 2.961 2.363 5.799 5.25m1.687-45.633 5.916 6.383-5.916 6.383c-3.253 3.51-6.378 6.435-6.944 6.5-.566.064-3.928-2.808-7.471-6.383l-6.442-6.5 6.442-6.5c3.543-3.575 6.905-6.447 7.471-6.383s3.691 2.99 6.944 6.5"/><path fill="#24201FFF" stroke="#24201FFF" d="M169.5 115.887c-1.65 1.034-4.994 3.944-7.431 6.468-4.349 4.504-4.396 4.626-2.589 6.623 1.013 1.119 2.106 1.769 2.431 1.445.324-.324.589.01.589.744 0 .733.675 1.353 1.5 1.378s1.394.57 1.264 1.21c-.131.64 1.262 2.307 3.094 3.704 6.703 5.113 18.111 2.451 21.202-4.949 1.649-3.945 1.929-8.93.451-8.017-.555.343-.74-.035-.423-.863.832-2.167-1.275-5.468-4.902-7.68-4.129-2.517-11.221-2.547-15.186-.063M69.299 115.96C58.262 122.689 63.088 140 76 140c4.439 0 7.965-2.128 13.375-8.073l4.742-5.211-3.308-3.482c-8.682-9.137-14.969-11.263-21.51-7.274M120.528 167.143c-3.89 4.202-5.533 6.73-5.201 8.001.268 1.022.078 1.607-.42 1.298-1.517-.937-1.013 4.533.763 8.275 6.418 13.525 26.631 6.36 23.851-8.455-.454-2.424-2.455-5.438-6.247-9.414-3.068-3.216-5.911-5.848-6.319-5.848-.407 0-3.299 2.764-6.427 6.143M122 63c-.825.533-1.275 1.03-1 1.103.275.074.106.062-.375-.026-1.549-.284-4.713 3.252-4.172 4.662.288.751.13 1.122-.351.824-.481-.297-1.145.467-1.475 1.698-.903 3.372-.745 6.93.28 6.297.498-.309.69.269.424 1.283-.331 1.267 1.419 3.843 5.608 8.251l6.09 6.408 5.935-6.223c6.766-7.094 8.14-11.088 5.87-17.054C136.394 63.812 126.989 59.776 122 63M120 120.5l-6.442 6.5 6.442 6.5c3.543 3.575 6.905 6.447 7.471 6.383s3.691-2.99 6.944-6.5l5.916-6.383-5.916-6.383c-3.253-3.51-6.378-6.435-6.944-6.5-.566-.064-3.928 2.808-7.471 6.383"/></svg>