<svg width="41" height="39" viewBox="-10 -10 61 59" fill="none" xmlns="http://www.w3.org/2000/svg"><path d="M2.741 24.322c-.875-.873-1.462-1.88-1.76-3.023a6.905 6.905 0 0 1 0-3.449 6.52 6.52 0 0 1 1.75-3.033c.882-.88 1.9-1.465 3.052-1.755a6.964 6.964 0 0 1 3.46 0c1.152.29 2.166.872 3.042 1.745l2.167 2.16 3.209-3.2-2.167-2.16c-.876-.872-1.463-1.88-1.761-3.023a6.945 6.945 0 0 1-.01-3.438c.291-1.15.878-2.164 1.76-3.044.875-.872 1.89-1.454 3.042-1.745a6.844 6.844 0 0 1 3.449.01c1.153.291 2.167.873 3.042 1.746.875.872 1.459 1.883 1.75 3.033a6.785 6.785 0 0 1 .01 3.438c-.284 1.157-.864 2.171-1.739 3.044l-2.157 2.15 3.199 3.19 2.156-2.151c.876-.873 1.886-1.458 3.032-1.755a6.844 6.844 0 0 1 3.449.01c1.153.29 2.17.876 3.053 1.755.875.873 1.458 1.884 1.75 3.034a6.669 6.669 0 0 1 0 3.428c-.292 1.15-.875 2.16-1.75 3.033-.883.88-1.9 1.465-3.053 1.755a7.006 7.006 0 0 1-3.449-.01c-1.139-.29-2.146-.873-3.021-1.745l-2.157-2.15-3.209 3.199 2.157 2.15c.875.873 1.455 1.88 1.74 3.023.292 1.15.292 2.3 0 3.449-.292 1.15-.879 2.164-1.76 3.043a6.548 6.548 0 0 1-3.043 1.746 6.964 6.964 0 0 1-3.459 0c-1.14-.291-2.146-.873-3.021-1.745-.883-.88-1.473-1.891-1.772-3.034a6.905 6.905 0 0 1 0-3.448 6.603 6.603 0 0 1 1.761-3.023l2.178-2.171-3.199-3.19-2.177 2.172a6.47 6.47 0 0 1-3.053 1.734 6.966 6.966 0 0 1-3.459 0c-1.146-.297-2.157-.883-3.032-1.755Zm2.605-2.597a2.94 2.94 0 0 0 1.375.79 3.105 3.105 0 0 0 1.573.01 2.94 2.94 0 0 0 1.376-.79l2.177-2.17-2.167-2.161a2.862 2.862 0 0 0-1.386-.78 3.142 3.142 0 0 0-1.562 0c-.521.132-.983.399-1.386.8a3.011 3.011 0 0 0-.802 1.361 3.116 3.116 0 0 0 0 1.558c.139.527.406.987.802 1.382ZM18.098 9.01l2.167 2.16 2.157-2.15c.403-.401.667-.858.792-1.37a3.079 3.079 0 0 0-.01-1.57 2.926 2.926 0 0 0-.793-1.37 2.94 2.94 0 0 0-1.375-.79 3.143 3.143 0 0 0-1.563 0 2.89 2.89 0 0 0-1.375.79 3.091 3.091 0 0 0-.812 1.37 3.115 3.115 0 0 0 0 1.559c.145.52.416.976.812 1.371Zm9.986 10.565 2.156 2.15c.396.395.851.661 1.365.8.521.131 1.649.128 2.163-.01.52-.132.983-.399 1.386-.8.402-.402.666-.86.791-1.372a2.998 2.998 0 0 0 .01-1.547 2.928 2.928 0 0 0-.791-1.372 2.968 2.968 0 0 0-1.386-.8c-.52-.131-1.652-.131-2.173 0a2.972 2.972 0 0 0-1.365.8l-2.156 2.15ZM18.098 34.44a2.94 2.94 0 0 0 1.376.789c.52.132 1.038.128 1.552-.01a2.94 2.94 0 0 0 1.375-.79c.403-.401.67-.862.802-1.381a2.998 2.998 0 0 0 .01-1.548 2.85 2.85 0 0 0-.78-1.382l-2.157-2.15-2.178 2.171a3.01 3.01 0 0 0-.802 1.36 3.115 3.115 0 0 0 0 1.559c.132.52.4.98.802 1.382Zm-1.031-14.865 3.198 3.189 3.21-3.2-3.2-3.189-3.208 3.2Z" fill="#fff"/></svg>