<svg xmlns="http://www.w3.org/2000/svg" width="342" height="350" fill="none"><path fill="url('#paint0_linear_5767_22913')" d="M108.031 193.232a.962.962 0 0 1-.953-1.171l5.186-23.902 2.944-22.884-2.948-20.594-3.325-9.882a.971.971 0 0 1 1.353-1.15.97.97 0 0 1 .492.536l3.354 9.967a1 1 0 0 1 .04.169l2.98 20.813a1 1 0 0 1 0 .258l-2.976 23.095-5.198 23.982a.97.97 0 0 1-.949.763"/><path fill="url('#paint1_linear_5767_22913')" d="M130.075 214.397h-.133a.98.98 0 0 1-.645-.373.98.98 0 0 1-.191-.718l3.163-23.336 3.288-23.555 2.583-23.393 1.622-16.084a.97.97 0 0 1 .68-.875q.19-.06.389-.04a.98.98 0 0 1 .672.37q.121.156.173.35.05.192.02.389l-1.622 16.092-2.587 23.421-3.288 23.579-3.163 23.329a.96.96 0 0 1-.321.6.98.98 0 0 1-.64.24"/><path fill="url('#paint2_linear_5767_22913')" d="M170.03 298.81a1 1 0 0 1-.406-.089l-23.922-10.854a1 1 0 0 1-.231-.146l-12.517-10.664-13.543-9.825-14.435-9.135-16.567-7.963-.102-.056-13.98-8.884-17.545-7.087-18.112-6.7-15.76-7.652a.97.97 0 0 1-.544-.808l-1.452-20.122a1 1 0 0 1 0-.153l3.791-43.612.102-21.253-1.123-20.999-.07-21.62-3.316-18.616a.96.96 0 0 1 .414-1.027.975.975 0 0 1 1.5.688l3.333 18.697a1 1 0 0 1 0 .165l.069 21.661 1.123 20.998-.105 21.403-3.788 43.612 1.407 19.488 15.169 7.37 18.06 6.671 17.65 7.131a1 1 0 0 1 .158.081l14.009 8.884 16.567 7.963.098.056 14.515 9.187 13.653 9.906 12.472 10.624 23.347 10.584 19.592-12.07 2.242-19.758L193 244.012l-1.886-22.646-.223-22.21-1.561-22.896-1.492-23.119-.989-22.613a.97.97 0 0 1 .254-.696.98.98 0 0 1 .674-.314.985.985 0 0 1 1.014.925l1.005 22.662 1.493 23.098 1.561 22.949.223 22.174 1.889 22.642q.005.069 0 .137l-1.216 20.999-2.303 20.275a.97.97 0 0 1-.454.715l-20.432 12.591a1 1 0 0 1-.511.145"/><path fill="url('#paint3_linear_5767_22913')" d="M182.957 339.709h-.109a.975.975 0 0 1-.86-1.07l1.622-14.461a1 1 0 0 1 0-.101l4.189-18.749a.97.97 0 0 1 .405-.598l14.342-9.493 3.061-19.081 2.749-19.843-.482-21.665-1.764-22.493-1.006-22.411a.97.97 0 0 1 .929-.969.967.967 0 0 1 1.013.88l1.002 22.379 1.764 22.513.486 21.806a1 1 0 0 1 0 .153l-2.765 19.941-3.134 19.52a.97.97 0 0 1-.406.655l-14.374 9.514-4.091 18.321-1.622 14.408a.97.97 0 0 1-.965.86"/><path fill="url('#paint4_linear_5767_22913')" d="M25.225 281.802h-.024a.974.974 0 0 1-.945-.993l.6-22.109a.994.994 0 0 1 .997-.941.974.974 0 0 1 .945.993l-.6 22.109a.974.974 0 0 1-.973.941"/><path fill="url('#paint5_linear_5767_22913')" d="M170.039 211.219a1 1 0 0 1-.406-.097l-22.402-10.786-.109-.061-14.411-9.368a1 1 0 0 1-.215-.194l-9.399-11.283-10.477-10.305-13.932-8.597-17.84-6.865-16.175-7.414-19.778-5.718-19.394-5.779-20.837-5.653a.98.98 0 0 1-.607-.45.964.964 0 0 1 .366-1.339.978.978 0 0 1 .752-.081l20.861 5.694 19.41 5.782 19.84 5.739.138.048 16.174 7.422 17.865 6.865q.084.032.162.081l14.102 8.702a1 1 0 0 1 .17.133l10.628 10.431 9.374 11.238 14.232 9.256 21.896 10.551 21.36-10.83 13.741-9.175-.377-21.778.349-22.209-.969-21.718a.965.965 0 0 1 .93-.964.976.976 0 0 1 1.012.879l.969 21.778-.349 22.255.385 22.27a.978.978 0 0 1-.429.808l-14.228 9.501-.102.061-21.842 11.057a1 1 0 0 1-.442.105"/><path fill="url('#paint6_linear_5767_22913')" d="M240.141 106.719q-.111 0-.219-.024l-17.464-4.018-17.155-3.162a1 1 0 0 1-.28-.097l-16.92-8.989a1 1 0 0 1-.13-.08l-16.681-12.54-16.438-10.777-16.369-12.753-16.141-15.001-15.335-9.078-16.499 8.355-17.115 12.147L55.9 60.862l-17.755 8.613a1 1 0 0 1-.203.073l-16.454 3.848a1 1 0 0 1-.657-.077L1.32 63.648a.97.97 0 0 1-.439-1.3.973.973 0 0 1 1.306-.437l19.195 9.51 16.008-3.743 17.58-8.529 17.355-10.095 17.099-12.143a1 1 0 0 1 .121-.072l17.03-8.63a.98.98 0 0 1 .937.028l15.918 9.405q.09.054.167.125L139.75 52.79l16.244 12.652 16.425 10.766 16.673 12.518 16.705 8.884 17.03 3.142 17.176 3.977 16.519-9.417.113-.052 16.576-6.825 16.259-7.382 16.178-10.244 14.82-10.633a.98.98 0 0 1 .88-.133l17.184 5.787a.97.97 0 0 1 .612 1.227.97.97 0 0 1-1.233.61l-16.725-5.613-14.447 10.37-16.284 10.297-.117.065-16.369 7.406-16.531 6.824-16.799 9.579a1 1 0 0 1-.482.129"/><path fill="url('#paint7_linear_5767_22913')" d="M8.977 273.257a.974.974 0 0 1-.973-.965l-.113-21.479.523-19.985a.93.93 0 0 1 .618-.887.9.9 0 0 1 .38-.054.975.975 0 0 1 .944.994l-.511 19.964.118 21.451a.97.97 0 0 1-.597.898 1 1 0 0 1-.373.075z"/><path fill="url('#paint8_linear_5767_22913')" d="M231.879 311.797a.974.974 0 0 1-.953-.82.965.965 0 0 1 .657-1.07l17.841-5.653.138-.033 19.016-3.149 17.991-4.333 17.172-4.959 13.461-10.94 13.73-9.287-.288-19.117a1 1 0 0 1 0-.145l2.745-19.856-1.947-20.066a1 1 0 0 1 0-.133l.872-20.356-.275-20.498.267-20.772.746-20.967a.97.97 0 0 1 1.008-.934.967.967 0 0 1 .938 1.003l-.742 20.942-.267 20.724.271 20.526-.871 20.344 1.95 20.114a1 1 0 0 1 0 .226l-2.749 19.896.259 19.569a.97.97 0 0 1-.425.808l-14.094 9.518-13.547 11.012a1 1 0 0 1-.345.182l-17.403 5.023-18.1 4.357-19.016 3.154-17.764 5.654a1 1 0 0 1-.296.044"/><path fill="url('#paint9_linear_5767_22913')" d="M154.853 83.144a1 1 0 0 1-.438-.105l-16.487-8.294a1 1 0 0 1-.186-.121l-16.328-13.661-16.098-13.621-15.736-8.747-19.677-6.974a.97.97 0 0 1-.565-1.229.97.97 0 0 1 1.218-.596l19.758 7.014q.076.027.146.065l15.903 8.823q.084.047.158.11l16.154 13.677 16.218 13.588 16.037 8.076 16.664-5.031.106-.024 16.685-3.106 16.47-6.776 16.292-8.314 16.085-7.443 9.094-7.042a.98.98 0 0 1 .729-.22.975.975 0 0 1 .837.716.969.969 0 0 1-.373 1.035l-9.18 7.11a1 1 0 0 1-.187.113l-16.15 7.471-16.328 8.33-16.624 6.866a1 1 0 0 1-.191.056l-16.733 3.114-16.986 5.128a1 1 0 0 1-.279.04"/><path fill="url('#paint10_linear_5767_22913')" d="M317.803 282.545h-.105a.98.98 0 0 1-.655-.357.97.97 0 0 1-.209-.713l2.226-20.215-.965-20.781a.97.97 0 0 1 .929-.968.97.97 0 0 1 1.013.879l.965 20.854a1 1 0 0 1 0 .149l-2.234 20.288a.973.973 0 0 1-.965.864"/><path fill="url('#paint11_linear_5767_22913')" d="M303.375 83.887h-.073l-13.445-1.013-17.605-2.98-17.278-3.833-17.001-4.712a1 1 0 0 1-.3-.141l-16.624-11.663-16.081-13.52-15.813 5.31-16.552 7.572-16.79 8.182-17.062 7.672-17.269 7.301a.97.97 0 0 1-.876-.06l-16.28-9.635a1 1 0 0 1-.162-.118L88.112 57.583 72.42 50.799 54.048 40.647a.97.97 0 0 1-.537-.968.97.97 0 0 1 .724-.84.98.98 0 0 1 .758.116l18.29 10.095 15.757 6.805q.151.063.272.173l16.097 14.707 15.773 9.336 16.811-7.095 17.029-7.648 16.783-8.181 16.624-7.6.097-.036 16.369-5.504a.97.97 0 0 1 .937.177L222.253 58l16.422 11.517 16.794 4.656 17.18 3.812 17.468 2.96 13.356 1.001a.971.971 0 0 1 .885 1.002.973.973 0 0 1-.958.933"/><path fill="url('#paint12_linear_5767_22913')" d="M238.311 280.768h-.02a.964.964 0 0 1-.887-.617 1 1 0 0 1-.066-.372l.454-20.708a.97.97 0 0 1 .973-.949h.021a.98.98 0 0 1 .886.617 1 1 0 0 1 .066.372l-.454 20.708a.973.973 0 0 1-.973.949"/><path fill="url('#paint13_linear_5767_22913')" d="M140.745 128.004a1 1 0 0 1-.329-.056l-13.907-4.967-33.61-14.941-17.565-8.214-17.707-8.403-18.286-8.933-18.514-9.174a.97.97 0 0 1-.438-1.3.973.973 0 0 1 1.306-.437l18.51 9.179 18.27 8.928 23.343 11.041 11.888 5.54 33.528 14.901 13.608 4.846 11.945-1.696 17.638-9.167a.98.98 0 0 1 .746-.065l17.216 5.456 17.216-3.041 17.184-5.427a1 1 0 0 1 .162-.037l13.762-1.857a.975.975 0 0 1 1.049.834.975.975 0 0 1-.785 1.084l-13.661 1.841-17.183 5.416-.122.028-17.516 3.093a.96.96 0 0 1-.467-.028l-17.058-5.399-17.435 9.094a1 1 0 0 1-.312.101l-12.351 1.752h-.138"/><path fill="url('#paint14_linear_5767_22913')" d="M286.786 298.612h-.032a.966.966 0 0 1-.941-.997l.681-21.233.053-20.485a.968.968 0 0 1 1.345-.89.97.97 0 0 1 .525.527 1 1 0 0 1 .072.371l-.053 20.514-.681 21.261a.97.97 0 0 1-.973.936"/><path fill="url('#paint15_linear_5767_22913')" d="M170.119 336.753a1 1 0 0 1-.454-.113l-18.218-9.55-.093-.057-14.504-9.857a.98.98 0 0 1-.405-.634l-3.325-19.23a1 1 0 0 1 0-.141l-.503-20.829-1.966-19.876-12.087-10.095a.96.96 0 0 1-.349-.695l-1.07-20.905a1 1 0 0 1 0-.121l1.658-21.871-11.394-9.792a.98.98 0 0 1-.373-.67.974.974 0 0 1 1.642-.796l11.759 10.095a.97.97 0 0 1 .333.808l-1.687 22.294 1.046 20.425 12.067 10.072a.96.96 0 0 1 .344.646l2.028 20.34.502 20.829 3.244 18.757 14.119 9.591 18.169 9.522a.967.967 0 0 1 .144 1.618.98.98 0 0 1-.598.207"/><path fill="url('#paint16_linear_5767_22913')" d="M206.109 190.664a.98.98 0 0 1-.944-.745.97.97 0 0 1 .506-1.088l16.462-8.226 17.886-7.337 13.137-9.147q.058-.04.121-.073l15.769-7.858 15.408-7.798q.07-.035.146-.06l19.057-6.013 15.996-7.135 13.583-6.215 6.763-20.53-1.719-21.16-1.042-20.482a.97.97 0 0 1 .92-1.056.98.98 0 0 1 .941.58q.079.182.081.38l1.038 20.453 1.736 21.325q.015.197-.045.384l-6.934 21.119a.98.98 0 0 1-.519.578l-13.98 6.396-16.057 7.16-.105.04-19.057 6.005-15.347 7.766-15.712 7.83-13.166 9.166a1 1 0 0 1-.186.105l-17.918 7.35-16.393 8.197a1 1 0 0 1-.434.101"/><path fill="url('#paint17_linear_5767_22913')" d="M41.465 287.948a.973.973 0 0 1-.974-.949l-.385-20.332-2.072-40.099a1 1 0 0 1 0-.141l2.028-21.681 3.243-22.412 1.363-21.64-.487-21.055-2.218-20.571a1 1 0 0 1 0-.121l.373-21.782-3.523-15.345a.965.965 0 0 1 .732-1.16.977.977 0 0 1 1.165.728l3.552 15.442a1 1 0 0 1 .025.234l-.373 21.839 2.218 20.594.486 21.221-1.37 21.806-3.264 22.44-2.004 21.56 2.068 40.058.386 20.365a.973.973 0 0 1-.953.985z"/><path fill="url('#paint18_linear_5767_22913')" d="M223.098 113.964a1 1 0 0 1-.324-.057l-17.436-6.102-17.175-6.089-.102-.04-16.928-8.279-.085-.048-16.268-10.096-16.733 7.443-17.411 10.697-17.792 8.73a.98.98 0 0 1-.937-.04l-16.474-9.958-16.251-9.579-16.13-10.773-15.87-10.362-16.604-12.955-18.473 7.228A.98.98 0 0 1 .971 63.1a.966.966 0 0 1 .424-1.2l18.989-7.43a.98.98 0 0 1 .956.14l16.973 13.25 15.814 10.317 16.093 10.75 19.353 11.444 12.874 7.782 17.232-8.452 17.387-10.669.113-.06 17.269-7.69a.97.97 0 0 1 .912.066l16.665 10.337 16.831 8.214 17.123 6.057 17.074 5.977 16.69-7.096a1 1 0 0 1 .291-.072l12.801-1.212 33.391-14.194 16.778-7.309 17.536-7.995 17.29-8.166a.976.976 0 0 1 1.256.477.966.966 0 0 1-.421 1.272l-17.301 8.173-17.582 7.988-16.798 7.32-33.508 14.316a1 1 0 0 1-.292.073l-12.801 1.211-16.9 7.184a1 1 0 0 1-.381.077"/><path fill="url('#paint19_linear_5767_22913')" d="M304.188 293.601a.977.977 0 0 1-.897-.602 1 1 0 0 1-.072-.371l.081-23.632 1.269-19.948a.96.96 0 0 1 .446-.751l13.085-8.396-.13-20.11-2.056-21.592a1 1 0 0 1 0-.165l1.561-20.26a.955.955 0 0 1 .667-.851 1 1 0 0 1 .379-.041.968.968 0 0 1 .896 1.038l-1.557 20.191 2.052 21.592.138 20.732a.96.96 0 0 1-.121.459.96.96 0 0 1-.325.348l-13.121 8.42-1.217 19.383-.081 23.575a.967.967 0 0 1-.973.965"/><path fill="url('#paint20_linear_5767_22913')" d="M23.336 219.872a1 1 0 0 1-.405-.085l-18.417-8.218a.974.974 0 0 1-.482-1.288.976.976 0 0 1 1.293-.48l18.416 8.217a.97.97 0 0 1-.405 1.854"/><path fill="url('#paint21_linear_5767_22913')" d="M170.11 163.189a1 1 0 0 1-.523-.154l-16.073-10.204-14.909-8.884a1 1 0 0 1-.134-.097l-11.641-9.918-14.134-8.646-13.713-8.569-17.938-6.663-18.38-6.364-19.617-5.697-18.753-5.924-18.92-5.383a.973.973 0 0 1-.67-1.198.97.97 0 0 1 1.202-.668l18.948 5.379 18.753 5.932 19.645 5.706 18.44 6.396 18.056 6.696a1 1 0 0 1 .178.088l13.786 8.618 14.204 8.682q.066.042.126.093l11.633 9.934 14.86 8.843 15.639 9.926 18.246-8.848 17.188-7.906 13.437-9.288q.059-.041.122-.073l16.097-7.931 15.793-7.866 15.7-7.697 17.646-6.756 16.555-6.93 18.745-5.963 19.292-5.573a.977.977 0 0 1 1.206.66.96.96 0 0 1-.081.737.98.98 0 0 1-.582.464l-19.251 5.577-18.652 5.916-16.502 6.909-17.594 6.732-15.614 7.672-15.789 7.863-16.061 7.919-13.445 9.287a1 1 0 0 1-.146.085l-17.245 7.931-18.7 9.078a1 1 0 0 1-.426.097"/><path fill="url('#paint22_linear_5767_22913')" d="M137.399 317.346a1 1 0 0 1-.406-.081l-18.011-7.886-16.389-8.521-15.663-8.601a1 1 0 0 1-.15-.105l-12.091-10.023a.97.97 0 0 1-.349-.678l-1.403-19.9a1 1 0 0 1 0-.109l.868-21.116 1.508-21.62.195-21.14 1.695-22.093 3.016-22.803 1.067-22.033-.872-21.2-5.53-9.994a.966.966 0 0 1 .406-1.271.977.977 0 0 1 1.296.338l5.653 10.172a.96.96 0 0 1 .121.428l.88 21.519-1.075 22.21-3.02 22.828-1.687 21.976-.195 21.135-1.508 21.653-.872 21.055 1.355 19.42 11.701 9.691 15.562 8.549 16.312 8.48 17.967 7.862a.968.968 0 0 1-.406 1.854"/><path fill="url('#paint23_linear_5767_22913')" d="M104.601 320.18a.974.974 0 0 1-.97-.888l-1.561-19.214-.811-20.369a1 1 0 0 1 0-.177l3.244-22.408 1.492-21.697a.984.984 0 0 1 1.038-.901.98.98 0 0 1 .856.659 1 1 0 0 1 .049.375l-1.497 21.77-3.243 22.392.811 20.239 1.557 19.173a.98.98 0 0 1-.229.707 1 1 0 0 1-.298.235 1 1 0 0 1-.365.104h-.082"/><path fill="url('#paint24_linear_5767_22913')" d="M170.12 336.753a.97.97 0 0 1-.973-.965l-.122-57.984.15-139.785a.97.97 0 0 1 .974-.965.973.973 0 0 1 .969.969l-.15 139.781.121 57.984a.97.97 0 0 1-.969.969z"/><path fill="url('#paint25_linear_5767_22913')" d="M287.519 256.886a.975.975 0 0 1-.952-.794.966.966 0 0 1 .608-1.08l18.019-6.8a.974.974 0 0 1 1.255.564.966.966 0 0 1-.566 1.249l-18.019 6.805a1 1 0 0 1-.345.06"/><path fill="url('#paint26_linear_5767_22913')" d="M120.989 328.422a.975.975 0 0 1-.969-.884l-1.622-18.98-1.37-20.146a1 1 0 0 1 0-.149l1.958-21.851-.778-20.32-11.889-9.865a.96.96 0 0 1-.348-.699l-.998-20.324-13.591-8.714-15.36-8.077-16.072-7.611-16.008-7.406-20.407-5.404-.122-.04-17.605-7.22a.966.966 0 0 1-.003-1.792.98.98 0 0 1 .745-.001l17.56 7.188 20.428 5.407q.081.022.158.056l16.097 7.447 16.118 7.636 15.468 8.153 14.086 9.025a.968.968 0 0 1 .446.768l1.002 20.396 11.892 9.87a.96.96 0 0 1 .349.706l.811 20.813q.003.06 0 .121l-1.958 21.834 1.362 20.054 1.622 18.947a.975.975 0 0 1-.888 1.046h-.081"/><path fill="url('#paint27_linear_5767_22913')" d="M189.355 7.938h-.036l-16.219-.59a1 1 0 0 1-.17-.024l-18.563-4.038a.975.975 0 0 1-.824-.767.96.96 0 0 1 .163-.759.97.97 0 0 1 1.067-.364l18.477 4.018 16.134.59a.97.97 0 0 1 .955.987.97.97 0 0 1-.992.95"/><path fill="url('#paint28_linear_5767_22913')" d="M205.833 119.403a1 1 0 0 1-.312-.053l-17.435-5.855-17.249-7.426-16.985-8.48-16.624-6.829-16.114-8.48-17.029 8.884a.99.99 0 0 1-.937 0L86.881 81.84l-.102-.069-16.068-12.179-15.794-8.706-16.721-11.27-17.107 6.638a.977.977 0 0 1-1.226-.564.965.965 0 0 1 .52-1.241l17.582-6.828a.98.98 0 0 1 .896.1l17.07 11.497 15.781 8.694q.061.034.118.077l16.076 12.183 15.749 9.017 16.977-8.884a.98.98 0 0 1 .908 0l16.483 8.686 16.624 6.82 17.001 8.481 17.123 7.374 17.196 5.79 14.435-.779 16.097-6.461 16.219-6.59a.976.976 0 0 1 1.31.513.97.97 0 0 1-.576 1.28l-16.219 6.59-16.251 6.505a1 1 0 0 1-.313.069l-14.783.808h-.053"/><path fill="url('#paint29_linear_5767_22913')" d="M216.454 322.086a.973.973 0 0 1-.974-.937l-.47-15.123a1 1 0 0 1 .041-.302l5.323-18.103a.97.97 0 0 1 .515-.602l17.03-8.077a.98.98 0 0 1 1.312.45.95.95 0 0 1 .037.748.973.973 0 0 1-.51.551l-16.624 7.907-5.157 17.542.466 14.969a.97.97 0 0 1-.941.997z"/><path fill="url('#paint30_linear_5767_22913')" d="M155.247 343.893a1 1 0 0 1-.47-.122l-16.434-9.025-17.686-6.38-.106-.049-16.389-8.241a1 1 0 0 1-.121-.073l-14.82-10.37a.97.97 0 0 1-.406-.662l-2.384-17.417a1 1 0 0 1 0-.158l.596-20.917.843-21.225 2.486-22.21.592-21.378a1 1 0 0 1 0-.125l3.678-22.977 3.515-23.046 1.168-22.133-.856-21.217-5.956-8.443a.97.97 0 0 1-.196-.739.97.97 0 0 1 .403-.65.97.97 0 0 1 .75-.158.97.97 0 0 1 .632.432l6.127 8.678a.95.95 0 0 1 .17.513l.868 21.592-1.176 22.319-3.528 23.147-3.649 22.92-.596 21.403-2.485 22.21-.84 21.143-.592 20.829 2.316 16.92 14.418 10.095 16.272 8.182 17.706 6.392.138.061 16.499 9.061a.965.965 0 0 1 .125 1.614.98.98 0 0 1-.595.204"/><path fill="url('#paint31_linear_5767_22913')" d="M25.822 259.689a1 1 0 0 1-.406-.093L8.46 251.681a.967.967 0 0 1 .028-1.838.97.97 0 0 1 .782.086l16.961 7.915a.97.97 0 0 1 .535 1.083.97.97 0 0 1-.94.762"/><path fill="url('#paint32_linear_5767_22913')" d="M170.091 186.497a1 1 0 0 1-.466-.117l-18.416-10.071-15.185-8.929a1 1 0 0 1-.333-.327l-7.298-11.803-12.711-9.155-15.814-7.802-17.934-6.727-17.467-6.764-21.73-4.894-.097-.029-18.286-6.162-17.663-5.71a.98.98 0 0 1-.601-.474.96.96 0 0 1 .123-1.1.97.97 0 0 1 .692-.33 1 1 0 0 1 .386.063l17.675 5.714 18.246 6.15 21.75 4.898a1 1 0 0 1 .137.045l17.52 6.788 18.012 6.76 15.991 7.874a1 1 0 0 1 .138.085l12.935 9.316a1 1 0 0 1 .259.279l7.27 11.759 14.95 8.787 17.958 9.825 19.779-9.078 15.322-8.816 16.43-8.197 15.246-8.403 14.698-8.428 15.233-8.02 16.483-7.301 18.651-6.223 19.832-5.552 18.85-6.776a.97.97 0 0 1 1.082.235q.136.146.203.332a.967.967 0 0 1-.624 1.254l-18.915 6.8-19.868 5.561L284 128.012l-16.336 7.241-15.145 7.971-14.682 8.42-15.298 8.431-16.418 8.19-15.355 8.827-20.306 9.324a1 1 0 0 1-.405.089"/><path fill="url('#paint33_linear_5767_22913')" d="M239.461 95.966a1 1 0 0 1-.178 0l-17.208-3.23a1 1 0 0 1-.227-.074L204.94 84.89l-.098-.052-16.669-10.096a1 1 0 0 1-.17-.133l-16.462-15.882-16.259-14.057-16.045-13.653L123.83 23.1l-16.426 6.893a.98.98 0 0 1-.681.029l-20.63-6.736-15.408 8.286L55 40.643l-16.219 8.734a.976.976 0 0 1-1.463-.744.965.965 0 0 1 .539-.96l16.219-8.722 15.683-9.07 15.813-8.48a.97.97 0 0 1 .767-.069l20.679 6.744 16.51-6.93a.98.98 0 0 1 .811.033l15.911 8.177q.101.051.187.125L156.563 43.2l16.308 14.097 16.422 15.842 16.531 10.003 16.745 7.7 16.754 3.142 16.296-8.71a.98.98 0 0 1 .637-.101l17.435 3.182 12.975.908a.98.98 0 0 1 .856.659c.041.12.057.248.048.375a.95.95 0 0 1-.331.664.95.95 0 0 1-.707.233l-13.027-.913h-.106l-17.176-3.134-16.299 8.71a1 1 0 0 1-.459.118"/><path fill="url('#paint34_linear_5767_22913')" d="M170.204 349.953a.97.97 0 0 1-.612-1.724l12.748-10.245.081-.06 15.566-10.043-.195-13.629a1 1 0 0 1 .028-.25l4.7-18.439a.96.96 0 0 1 .547-.646l17.318-7.672 2.303-19.291 2.526-19.956.405-21.152-1.853-22.46-2.161-22.812-.47-22.319-2.518-23.268a1 1 0 0 1 0-.157l1.038-18.233a.974.974 0 0 1 1.942.109l-1.034 18.172 2.518 23.272.471 22.335 2.157 22.751 1.857 22.521v.097l-.406 21.253a1 1 0 0 1 0 .105l-2.534 19.997-2.368 19.827a.97.97 0 0 1-.572.771l-17.39 7.721-4.554 17.861.203 14.037a.96.96 0 0 1-.446.808l-15.975 10.305-12.712 10.212a.96.96 0 0 1-.608.214"/><path fill="url('#paint35_linear_5767_22913')" d="M75.303 282.351a.95.95 0 0 1-.406-.097l-16.356-7.809-17.804-6.898-.098-.044-15.258-7.927a.98.98 0 0 1-.514-.743l-2.308-19.339v-.105l-.182-20.477a.965.965 0 0 1 .593-.901.975.975 0 0 1 1.057.205c.183.18.286.424.288.68l.183 20.425 2.238 18.777 14.755 7.673 17.82 6.909 16.422 7.838a.97.97 0 0 1 .526 1.08.97.97 0 0 1-.932.761"/><path fill="url('#paint36_linear_5767_22913')" d="M89.769 309.794a.97.97 0 0 1-.608-.214l-13.924-11.19-15.688-7.483-18.246-2.972a1 1 0 0 1-.19-.052l-16.22-6.146-.109-.049-16.243-8.544a.975.975 0 0 1-.553-.956.96.96 0 0 1 .357-.674.98.98 0 0 1 .735-.208q.197.026.37.125l16.19 8.517 16.097 6.093 18.295 2.977a1 1 0 0 1 .263.08l15.915 7.588a1 1 0 0 1 .19.121l14.01 11.263a.965.965 0 0 1-.05 1.547 1 1 0 0 1-.563.177"/><path fill="url('#paint37_linear_5767_22913')" d="M188.923 33.863a.97.97 0 0 1-.649-.247l-15.976-14.295-15.683-7.24-19.248-4.54-17.244 4.132a.976.976 0 0 1-1.174-.717.97.97 0 0 1 .719-1.17L137.14 5.6a.95.95 0 0 1 .45 0l19.564 4.612a1 1 0 0 1 .187.064l15.906 7.346q.132.061.239.158l15.684 14.036 15.647-4.405 12.282-2.258a.98.98 0 0 1 1.005.42q.106.164.142.355a.976.976 0 0 1-.795 1.131l-12.192 2.237-16.077 4.527a1 1 0 0 1-.263.036"/><path fill="url('#paint38_linear_5767_22913')" d="M170.015 256.361a1 1 0 0 1-.377-.077l-25.48-10.665a1 1 0 0 1-.202-.113l-13.567-9.974a.96.96 0 0 1-.406-.739l-.88-20.962-10.031-10.798a.957.957 0 0 1-.243-.808l4.054-23.558 5.271-24.14-1.707-21.302-.571-11.097a.97.97 0 0 1 1.305-.997.98.98 0 0 1 .555.521q.08.182.082.379l.572 11.069 1.715 21.402q.02.142 0 .283l-5.292 24.229-3.945 23.042 9.95 10.709a.97.97 0 0 1 .26.618l.876 20.853 13.1 9.631 24.937 10.443 23.517-11.15 14.836-9.376a1 1 0 0 1 .126-.069l17.711-7.822 16.17-8.274 17.84-7.386 16.061-7.887 15.728-7.87 13.596-8.524 11.896-8.642 1.472-20.05.122-21.224 2.027-20.708-2.064-22.488a1 1 0 0 1 0-.138l.912-17.856a.95.95 0 0 1 .316-.676.96.96 0 0 1 .706-.245.97.97 0 0 1 .921 1.018l-.909 17.788 2.068 22.512a.8.8 0 0 1 0 .182l-2.027 20.712-.122 21.2-1.508 20.562a.97.97 0 0 1-.405.711l-12.315 8.941-13.733 8.609-15.813 7.919-16.126 7.915-17.84 7.381-16.15 8.262-17.695 7.814-14.824 9.373-.101.056-23.976 11.36a1 1 0 0 1-.405.093"/><path fill="url('#paint39_linear_5767_22913')" d="M221.322 41.139a.97.97 0 0 1-.572-.186l-16.219-11.828-16.032-13.204-15.461-8.5-15.813 4.663-16.442 4.551a.96.96 0 0 1-.49 0l-20.359-4.91-16.888 5.112a.976.976 0 0 1-1.193-.65.966.966 0 0 1 .626-1.203l17.139-5.193c.167-.044.343-.044.511 0l20.371 4.914 16.182-4.478 16.186-4.773a.97.97 0 0 1 .746.08l15.895 8.739a1 1 0 0 1 .15.101l16.056 13.229 16.183 11.804c.166.12.289.29.353.485a.97.97 0 0 1-.001.6.97.97 0 0 1-.928.667"/><path fill="url('#paint40_linear_5767_22913')" d="M282.037 55.895h-.122l-19.462-2.423a1 1 0 0 1-.337-.105l-15.651-8.347-15.209-8.65-14.512-9.445a1 1 0 0 1-.174-.145l-11.84-12.434-15.594 1.74-16.028 3.353-16.345 6.162a.98.98 0 0 1-.811-.065l-15.517-8.759-16.219 6.159a.97.97 0 0 1-.616.024l-20.813-6.017-16.446 6.202a.976.976 0 0 1-1.254-.563.966.966 0 0 1 .565-1.25l16.75-6.315a.97.97 0 0 1 .616-.024l20.805 6.012 16.332-6.202a.97.97 0 0 1 .811.064l15.518 8.76 15.987-6.026.142-.04 16.195-3.384 16.166-1.81a1 1 0 0 1 .811.295l12.095 12.704 14.366 9.353 15.144 8.617 15.468 8.25 19.268 2.39a.973.973 0 0 1 .847 1.02.97.97 0 0 1-.964.911"/><path fill="url('#paint41_linear_5767_22913')" d="M106.952 236.461a1 1 0 0 1-.458-.113l-15.635-8.347-15.047-8.403-16.754-7.35-18.355-6.497-19.11-6.057a1 1 0 0 1-.138-.057l-17.03-8.428a.97.97 0 0 1-.507-.557.965.965 0 0 1 .282-1.055.98.98 0 0 1 .72-.232c.128.011.254.048.369.108l16.953 8.391 19.057 6.033 18.457 6.534 16.904 7.418 15.116 8.436 15.618 8.335a.96.96 0 0 1 .48 1.089.97.97 0 0 1-.942.732"/><path fill="url('#paint42_linear_5767_22913')" d="M205.102 14.294a1 1 0 0 1-.365-.073l-15.74-6.356-15.724-5.912-18.555 1.349-17.131 4.183a.975.975 0 0 1-1.145-.718.97.97 0 0 1 .683-1.164L154.337 1.4q.081-.018.162-.025L173.346.003a.9.9 0 0 1 .405.06l15.935 5.997 15.773 6.364a.97.97 0 0 1-.365 1.866"/><path fill="url('#paint43_linear_5767_22913')" d="M138.748 334.831a.97.97 0 0 1-.97-.892l-1.354-17.486a.97.97 0 0 1 .249-.675.979.979 0 0 1 1.339-.104.97.97 0 0 1 .35.63l1.355 17.485a.98.98 0 0 1-.231.706.99.99 0 0 1-.665.336h-.077"/><path fill="url('#paint44_linear_5767_22913')" d="M305.539 250.082a.97.97 0 0 1-.683-.295.98.98 0 0 1-.274-.69l.333-20.518-.171-20.914a.96.96 0 0 1 .341-.743l11.179-9.546a1 1 0 0 1 .288-.17l16.433-6.198a.98.98 0 0 1 .745.022.961.961 0 0 1 .573.914.96.96 0 0 1-.306.676 1 1 0 0 1-.322.201l-16.276 6.138-10.704 9.142.166 20.49-.333 20.542a.966.966 0 0 1-.973.953"/><path fill="url('#paint45_linear_5767_22913')" d="M319.069 241.404a.97.97 0 0 1-.882-1.365.96.96 0 0 1 .432-.46l15.326-7.983a.977.977 0 0 1 1.353.388.96.96 0 0 1-.139 1.096.95.95 0 0 1-.314.232l-15.33 7.983a.96.96 0 0 1-.451.109"/><path fill="url('#paint46_linear_5767_22913')" d="M170.087 317.547a1 1 0 0 1-.405-.088l-21.243-9.761a1 1 0 0 1-.125-.068l-14.771-9.664-15.992-8.758-15.813-8.69-14.29-9.216-14.037-8.976-16.028-7.855-17.682-6.893-16.572-7.317-.11-.056-14.134-8.525a.97.97 0 0 1-.446-.618l-4.46-20.166a1 1 0 0 1-.025-.206l-.06-20.333 1.31-20.594.608-20.627-1.858-20.853a1 1 0 0 1 0-.178l2.056-21.031-1.334-21.2-3.9-22.933a.965.965 0 0 1 .429-1.01.977.977 0 0 1 1.361.322q.101.17.127.365L6.586 85.6a1 1 0 0 1 0 .101l1.342 21.326a1 1 0 0 1 0 .153l-2.052 20.999 1.857 20.837a1 1 0 0 1 0 .113l-.612 20.716-1.31 20.55.053 20.162 4.36 19.658 13.72 8.282 16.482 7.269 17.728 6.909 16.154 7.911.097.053 14.09 9.009 14.232 9.183 31.789 17.44 14.779 9.664 20.707 9.526 17.817-10.532 1.654-19.787a.97.97 0 0 1 .495-.767l16.133-8.949 17.111-8.274 14.646-8.702 3.442-18.951.507-21.051-1.622-22.21-.693-22.064-3.094-23.276L234.731 128a1 1 0 0 1 0-.137l1.164-16.783a.984.984 0 0 1 1.038-.9.96.96 0 0 1 .667.33.98.98 0 0 1 .237.703l-1.159 16.714 1.682 22.808 3.094 23.268v.097l.693 22.072 1.622 22.271-.506 21.216q.004.075 0 .15l-3.536 19.46a.98.98 0 0 1-.458.662l-15.1 8.965-17.135 8.286-15.631 8.67-1.65 19.787a.96.96 0 0 1-.147.432.96.96 0 0 1-.328.319l-18.688 11.048a.97.97 0 0 1-.494.138"/><path fill="url('#paint47_linear_5767_22913')" d="M59.857 290.94a.975.975 0 0 1-.969-.917l-2.027-36.368-.673-20.396a1 1 0 0 1 0-.134l2.295-21.866.924-21.378 3.139-22.614 1.5-21.956-.272-21.402-1.743-20.885-4.866-12.09a.966.966 0 0 1 .553-1.227.977.977 0 0 1 1.251.504l4.939 12.223q.056.136.069.283l1.76 21.099.275 21.548-1.512 22.101-3.134 22.614-.92 21.349-2.292 21.859.67 20.308 2.027 36.343a.97.97 0 0 1-.917 1.022h-.052"/><path fill="url('#paint48_linear_5767_22913')" d="M75.772 298.532a.968.968 0 0 1-.973-.941l-.463-16.177a.96.96 0 0 1 .577-.912.99.99 0 0 1 .745-.02.98.98 0 0 1 .625.879l.462 16.177a.97.97 0 0 1-.575.913 1 1 0 0 1-.37.085z"/><path fill="url('#paint49_linear_5767_22913')" d="M170.206 349.957a1 1 0 0 1-.365-.072l-14.954-6.057a.97.97 0 0 1-.588-.707l-3.349-16.69-3.066-19.464-2.761-19.843-1.585-20.696.024-21.697-.336-21.657a1 1 0 0 1 0-.153l3.446-23.587 4.055-24.031 2.352-23.381 1.378-19.476a.97.97 0 0 1 1.04-.899.98.98 0 0 1 .667.332.974.974 0 0 1 .235.704l-1.382 19.504-2.36 23.474-4.055 24.072-3.43 23.49.336 21.596-.024 21.64 1.577 20.563 2.753 19.767 3.054 19.403 3.243 16.153 14.472 5.867c.208.085.38.239.486.437a.964.964 0 0 1-.235 1.206.98.98 0 0 1-.616.223"/><path fill="url('#paint50_linear_5767_22913')" d="M318.442 178.82a.976.976 0 0 1-.959-.762.97.97 0 0 1 .553-1.091l14.597-6.493a.977.977 0 0 1 1.293.48.97.97 0 0 1 .027.744.97.97 0 0 1-.509.544l-14.597 6.494a1 1 0 0 1-.405.084"/><path fill="url('#paint51_linear_5767_22913')" d="M170.001 278.765a1 1 0 0 1-.405-.085l-25.492-11.448a1 1 0 0 1-.211-.129l-12.947-10.37a.97.97 0 0 1-.36-.727l-.584-20.772-12.505-9.74-12.192-10.096a.96.96 0 0 1-.349-.836l2.047-21.879-11.908-9.126-17.297-7.135-.102-.049-14.597-8.112-17.788-6.595-19.9-5.56-18.923-6.057a.98.98 0 0 1-.637-1.228.98.98 0 0 1 1.233-.634l18.886 6.057 19.941 5.577 17.934 6.647a1 1 0 0 1 .134.064l14.621 8.121 17.363 7.164a1 1 0 0 1 .223.129l12.435 9.55a.97.97 0 0 1 .373.856l-2.051 21.899 11.758 9.732 12.841 10.003a.96.96 0 0 1 .374.735l.583 20.78 12.497 10.011 24.932 11.198 22.329-12.519 16.625-8.674 16.851-8.318 16.081-8.416a1 1 0 0 1 .13-.056l19.223-6.696 15.931-8.023 15.61-7.94 11.998-8.883.406-20.389-1.513-21.806-.588-21.713-1.715-22.283-.969-22.21a1 1 0 0 1 0-.166l2.028-15.777a.96.96 0 0 1 .707-.83.98.98 0 0 1 1.036.349.95.95 0 0 1 .187.728l-2.028 15.696.961 22.113 1.715 22.299.592 21.721 1.513 21.859-.406 20.95a.96.96 0 0 1-.405.759l-12.448 9.223a1 1 0 0 1-.138.085l-15.635 7.927-15.988 8.076-.117.048-19.215 6.676-16.037 8.391-16.855 8.306-16.584 8.65-22.73 12.753a1 1 0 0 1-.479.125"/><path fill="url('#paint52_linear_5767_22913')" d="M170.153 138.98a1 1 0 0 1-.34-.061l-14.735-5.504a.97.97 0 0 1-.539-1.237.97.97 0 0 1 1.224-.576l14.37 5.367 17.33-7.325a.98.98 0 0 1 .737.003.967.967 0 0 1 .021 1.781l-17.687 7.475a1 1 0 0 1-.381.077"/><path fill="url('#paint53_linear_5767_22913')" d="M155.422 133.476a1 1 0 0 1-.341-.061l-14.674-5.476a.969.969 0 0 1 .681-1.813l14.338 5.351 14.759-5.415 17.841-5.46a1 1 0 0 1 .405-.036l16.782 1.889q.192.023.362.115a.96.96 0 0 1 .464.581.96.96 0 0 1-.083.737 1 1 0 0 1-.583.462 1 1 0 0 1-.378.032l-16.584-1.87-17.61 5.383-15.047 5.524a1 1 0 0 1-.336.061"/><path fill="url('#paint54_linear_5767_22913')" d="M170.205 349.954a.974.974 0 0 1-.973-.961l-.085-13.205a.958.958 0 0 1 .364-.763l14.459-11.501 14.232-10.075q.068-.048.142-.085l17.2-8.246 16-8.585.093-.044 17.638-7.164 8.11-37.054 3.219-19.424-.977-21.608-3.584-23.062-3.293-23.139-1.622-22.613-.608-22.352a1 1 0 0 1 0-.125l1.594-15.506a.958.958 0 0 1 .682-.87.99.99 0 0 1 .761.077 1 1 0 0 1 .297.253q.121.158.173.349c.033.127.04.259.021.388l-1.59 15.446.604 22.243 1.622 22.508 3.285 23.058 3.588 23.103v.105l.985 21.761a1 1 0 0 1 0 .202l-3.243 19.573-8.223 37.599a.97.97 0 0 1-.584.691l-18.068 7.337-15.992 8.581-17.163 8.234-14.119 9.995-14.049 11.173.081 12.737a.97.97 0 0 1-.965.973z"/><path fill="url('#paint55_linear_5767_22913')" d="M268.727 302.982a.98.98 0 0 1-.664-.262.97.97 0 0 1-.305-.643l-1.33-19.544a1 1 0 0 1 0-.271l4.075-18.628a.964.964 0 0 1 .519-.662l15.59-7.673 2.721-18.931 2.931-19.52-.811-21.374-3.175-22.682-4.358-23.341a.7.7 0 0 1 0-.125l-1.172-22.166a1 1 0 0 1 0-.097l1.03-21.446 1.841-15.475a.97.97 0 0 1 1.074-.799.968.968 0 0 1 .856 1.03l-1.837 15.405-1.022 21.33 1.168 22.056 4.355 23.321 3.191 22.775v.097l.81 21.515q.007.089 0 .178l-2.943 19.605-2.79 19.432a.968.968 0 0 1-.531.731l-15.631 7.713-3.945 18.042 1.322 19.407a.97.97 0 0 1-.904 1.03h-.069"/><path fill="url('#paint56_linear_5767_22913')" d="M238.764 260.052a.968.968 0 0 1-.312-1.885l19.568-6.607 17.383-7.341 14.41-8.573 15.562-7.891 13.019-8.771 13.576-7.563a.973.973 0 0 1 1.424 1.11.97.97 0 0 1-.476.582l-13.502 7.519-12.999 8.763-.106.06-15.557 7.887-14.411 8.573-.121.06-17.513 7.394L239.073 260a1 1 0 0 1-.313.052"/><path fill="url('#paint57_linear_5767_22913')" d="M198.969 329.375a.97.97 0 0 1-.858-1.421.96.96 0 0 1 .481-.44l17.378-7.269 14.942-9.954.117-12.922a1 1 0 0 1 .057-.315l6.305-17.594a.97.97 0 0 1 .458-.529l15.895-8.42 16.887-7.378 4.25-18.208 1.711-20.102-.848-21.479-4.804-23.478-2.433-22.718-2.182-22.703-.117-22.089a1 1 0 0 1 0-.181l2.798-15.042a.97.97 0 0 1 .406-.622.977.977 0 0 1 1.353.251.96.96 0 0 1 .154.726l-2.781 14.941.113 21.911 2.178 22.614 2.408 22.614 4.805 23.465a1 1 0 0 1 0 .154l.852 21.616q.003.06 0 .121l-1.724 20.231a1 1 0 0 1-.02.138l-4.375 18.749a1 1 0 0 1-.198.401 1 1 0 0 1-.357.269l-17.265 7.544-15.497 8.209-6.123 17.086-.122 13.273a.965.965 0 0 1-.434.808l-15.444 10.293a1 1 0 0 1-.166.089l-17.468 7.289a.9.9 0 0 1-.377.076"/><path fill="url('#paint58_linear_5767_22913')" d="M249.714 306.132h-.025a.974.974 0 0 1-.945-.994l.406-15.131a.973.973 0 0 1 1.946.053l-.405 15.127a.975.975 0 0 1-.973.945"/><path fill="url('#paint59_linear_5767_22913')" d="M170.022 234.095a.9.9 0 0 1-.356-.069l-25.829-10.095a1 1 0 0 1-.194-.101l-14.127-9.623a.974.974 0 0 1 .365-1.766.98.98 0 0 1 .734.151l14.033 9.558 25.306 9.873 21.68-11.601 14.962-9.215.117-.061 17.618-7.782 16.413-8.076 15.814-8.149 14.856-8.339.11-.052 17.37-7.047 15.274-7.705 15.343-7.547 13.352-6.736a.975.975 0 0 1 1.382 1.166.97.97 0 0 1-.502.563l-13.381 6.739-15.343 7.548-15.338 7.733-17.387 7.059-14.836 8.322-15.858 8.173-16.466 8.109-17.598 7.774-14.953 9.207-22.127 11.844a1 1 0 0 1-.458.117"/><path fill="url('#paint60_linear_5767_22913')" d="M250.115 291.004a.975.975 0 0 1-.958-.762.97.97 0 0 1 .553-1.091l17.277-7.568.109-.04 20.014-6.017 16.75-7.398 15.643-7.672 11.524-8.812a1 1 0 0 1 .343-.19q.192-.06.391-.04a.99.99 0 0 1 .673.374.963.963 0 0 1-.223 1.391l-11.601 8.884a1 1 0 0 1-.162.101l-15.765 7.717-16.839 7.442-.113.041-20.014 6.02-17.225 7.544a1 1 0 0 1-.405.081"/><path fill="url('#paint61_linear_5767_22913')" d="M256.059 87.094h-.146l-17.24-2.593a1 1 0 0 1-.174-.044L221.57 78.58a1 1 0 0 1-.203-.097l-16.652-10.572a1 1 0 0 1-.17-.137l-16.43-16.657-16.19-14.817-15.652-10.527-16.121 5.339-16.778 8.266-17.071 8.052-17.155 10.176-17.35 11.965-17.715 10.249a1 1 0 0 1-.304.113L39.956 82.59a.976.976 0 0 1-1.173-.76.965.965 0 0 1 .44-1.007 1 1 0 0 1 .364-.135l13.66-2.625 17.509-10.123L88.094 55.98l17.293-10.253 17.135-8.077 16.827-8.29.126-.053 16.624-5.512a.98.98 0 0 1 .852.117l16.109 10.839a1 1 0 0 1 .113.089l16.28 14.913 16.389 16.613 16.466 10.45 16.738 5.803 16.872 2.536 16.064-7.083 16.053-9.158 12.594-11.48a.98.98 0 0 1 .811-.247l19.754 2.827a.98.98 0 0 1 .658.371.97.97 0 0 1 .063 1.09.99.99 0 0 1-.611.445 1 1 0 0 1-.386.012l-19.3-2.762-12.334 11.242a1 1 0 0 1-.175.125l-16.19 9.235-.093.045-16.353 7.188a1 1 0 0 1-.405.08"/><path fill="url('#paint62_linear_5767_22913')" d="M58.045 91.523a.975.975 0 0 1-.955-.934.966.966 0 0 1 .886-1l11.442-.828 17.52-8.645 17.436-9.434 17.147-11.27a1 1 0 0 1 .179-.093l16.96-6.675 16.754-9.546 16.661-8.436q.137-.068.288-.093l16.389-2.633a.97.97 0 0 1 .734.178l15.87 11.755 15.676-4.628a.97.97 0 0 1 .81.13l16.43 11.108 16.523 9.692 16.746 6.332 17.163 2.261 17.541 1.939h.105l14.76 3.278a.98.98 0 0 1 .666.403.97.97 0 0 1 .156.76.97.97 0 0 1-1.228.727l-14.71-3.266-17.509-1.935-17.297-2.277a1 1 0 0 1-.219-.053l-16.928-6.4a1 1 0 0 1-.146-.069l-16.649-9.748-16.101-10.883-15.7 4.632a.98.98 0 0 1-.855-.15l-15.931-11.799-15.834 2.54-16.482 8.347-16.774 9.554-.126.06-16.961 6.668-17.135 11.258-17.524 9.494L70.1 90.59a1 1 0 0 1-.37.076l-11.632.84h-.073"/><path fill="url('#paint63_linear_5767_22913')" d="M221.322 41.151a.98.98 0 0 1-.958-.762.97.97 0 0 1 .553-1.091l10.416-4.652a.99.99 0 0 1 1.071.173.966.966 0 0 1 .049 1.374 1 1 0 0 1-.309.222l-10.416 4.652a1 1 0 0 1-.406.084"/><path fill="url('#paint64_linear_5767_22913')" d="M170.874 116.972q-.097.009-.194 0l-17.152-3.497a1 1 0 0 1-.186-.057l-16.872-7.147-16.6-4.789a1 1 0 0 1-.243-.109l-16.02-9.97-17.228 8.746a.8.8 0 0 1-.475.105l-10.19-.343a.98.98 0 0 1-.879-.628 1 1 0 0 1-.061-.374.93.93 0 0 1 .626-.885.95.95 0 0 1 .38-.052l9.942.336 17.475-8.884a.97.97 0 0 1 .957.04l16.373 10.192 16.527 4.765.11.041 16.831 7.131 16.883 3.4 17.273-3.372 17.208-5.653 17.03-5.165 16.693-6.711c.136-.052.281-.076.426-.069l17.524 1.147 13.024 1.171a.98.98 0 0 1 .857.674.98.98 0 0 1-.067.746.98.98 0 0 1-.964.51l-13-1.17-17.281-1.127-16.583 6.654-17.071 5.194-17.244 5.681-.118.032-17.524 3.421a1 1 0 0 1-.187 0"/><path fill="url('#paint65_linear_5767_22913')" d="M135.944 121.212a1 1 0 0 1-.256-.032l-16.879-4.563-.098-.032-16.583-6.401-9.063-2.08a.96.96 0 0 1-.606-.431.96.96 0 0 1 .032-1.077 1 1 0 0 1 .633-.393 1 1 0 0 1 .38.012l9.118 2.095q.07.015.134.041l16.604 6.408 16.503 4.442 17.435-7.563 17.528-7.366q.067-.028.138-.048l17.265-4.382.113-.024 16.868-2.22 16.661-6.749 16.502-8.21 16.353-8.415 15.984-7.612 10.57-12.344a.98.98 0 0 1 .9-.327l19.244 3.23a.969.969 0 0 1-.325 1.91l-18.679-3.097-10.348 12.086a1 1 0 0 1-.32.246L255.61 75.99l-16.337 8.407-16.583 8.246-16.843 6.825a1 1 0 0 1-.24.06l-16.932 2.229-17.139 4.35-17.435 7.333-17.752 7.697a1 1 0 0 1-.405.08"/><path fill="url('#paint66_linear_5767_22913')" d="M187.839 131.506a1 1 0 0 1-.199-.021l-17.273-3.557-17.37-1.684a1 1 0 0 1-.182-.036l-16.921-4.971-8.871 1.776a.97.97 0 0 1-.385-1.898l9.106-1.825a1 1 0 0 1 .467.02l17.062 5.012 17.334 1.68h.101l17.03 3.509 16.989-7.002 15.542-5.795a.977.977 0 0 1 1.358.935.96.96 0 0 1-.336.687 1 1 0 0 1-.341.191l-15.509 5.783-17.233 7.107a1 1 0 0 1-.373.072"/><path fill="url('#paint67_linear_5767_22913')" d="M119.06 116.653h-.125l-9.209-1.212a.962.962 0 0 1-.814-.709.98.98 0 0 1 .097-.735.96.96 0 0 1 .59-.452 1 1 0 0 1 .379-.026l8.875 1.151 17.436-10.14 17.565-8.69a1 1 0 0 1 .202-.073l17.277-4.175 17.002-2.968 16.705-5.552 16.507-6.32 16.243-7.212 16.004-9.288 8.109-8.412a.97.97 0 0 1 1.056-.233.98.98 0 0 1 .539.513.98.98 0 0 1 .016.742 1 1 0 0 1-.204.319l-8.186 8.513a1 1 0 0 1-.215.165l-16.166 9.389-.094.048-16.34 7.269-16.592 6.352-16.815 5.589-.142.036-17.029 2.968-17.107 4.135-17.407 8.61-17.666 10.269a1 1 0 0 1-.491.133"/><defs><linearGradient id="paint0_linear_5767_22913" x1="117.226" x2="101.115" y1="184.328" y2="182.945" gradientUnits="userSpaceOnUse"><stop stop-color="#c1bbf6"/><stop offset="1" stop-color="#262370"/></linearGradient><linearGradient id="paint1_linear_5767_22913" x1="141.786" x2="121.724" y1="204.519" y2="202.582" gradientUnits="userSpaceOnUse"><stop stop-color="#c1bbf6"/><stop offset="1" stop-color="#262370"/></linearGradient><linearGradient id="paint2_linear_5767_22913" x1="196.056" x2="-24.814" y1="273.411" y2="158.621" gradientUnits="userSpaceOnUse"><stop stop-color="#c1bbf6"/><stop offset="1" stop-color="#262370"/></linearGradient><linearGradient id="paint3_linear_5767_22913" x1="210.478" x2="165.724" y1="322.854" y2="317.173" gradientUnits="userSpaceOnUse"><stop stop-color="#c1bbf6"/><stop offset="1" stop-color="#262370"/></linearGradient><linearGradient id="paint4_linear_5767_22913" x1="26.815" x2="22.752" y1="279.115" y2="278.824" gradientUnits="userSpaceOnUse"><stop stop-color="#c1bbf6"/><stop offset="1" stop-color="#262370"/></linearGradient><linearGradient id="paint5_linear_5767_22913" x1="208.348" x2="112.413" y1="201.303" y2="52.661" gradientUnits="userSpaceOnUse"><stop stop-color="#c1bbf6"/><stop offset="1" stop-color="#262370"/></linearGradient><linearGradient id="paint6_linear_5767_22913" x1="341.31" x2="284.005" y1="97.936" y2="-68.972" gradientUnits="userSpaceOnUse"><stop stop-color="#c1bbf6"/><stop offset="1" stop-color="#262370"/></linearGradient><linearGradient id="paint7_linear_5767_22913" x1="10.372" x2="6.418" y1="268.421" y2="268.268" gradientUnits="userSpaceOnUse"><stop stop-color="#c1bbf6"/><stop offset="1" stop-color="#262370"/></linearGradient><linearGradient id="paint8_linear_5767_22913" x1="335.998" x2="190.037" y1="291.342" y2="235.01" gradientUnits="userSpaceOnUse"><stop stop-color="#c1bbf6"/><stop offset="1" stop-color="#262370"/></linearGradient><linearGradient id="paint9_linear_5767_22913" x1="249.041" x2="202.163" y1="77.202" y2="-28.867" gradientUnits="userSpaceOnUse"><stop stop-color="#c1bbf6"/><stop offset="1" stop-color="#262370"/></linearGradient><linearGradient id="paint10_linear_5767_22913" x1="321.031" x2="314.352" y1="277.735" y2="277.297" gradientUnits="userSpaceOnUse"><stop stop-color="#c1bbf6"/><stop offset="1" stop-color="#262370"/></linearGradient><linearGradient id="paint11_linear_5767_22913" x1="305.926" x2="279.386" y1="78.849" y2="-21.084" gradientUnits="userSpaceOnUse"><stop stop-color="#c1bbf6"/><stop offset="1" stop-color="#262370"/></linearGradient><linearGradient id="paint12_linear_5767_22913" x1="239.754" x2="235.918" y1="278.237" y2="277.962" gradientUnits="userSpaceOnUse"><stop stop-color="#c1bbf6"/><stop offset="1" stop-color="#262370"/></linearGradient><linearGradient id="paint13_linear_5767_22913" x1="239.128" x2="194.224" y1="121.687" y2="4.785" gradientUnits="userSpaceOnUse"><stop stop-color="#c1bbf6"/><stop offset="1" stop-color="#262370"/></linearGradient><linearGradient id="paint14_linear_5767_22913" x1="288.506" x2="284.215" y1="293.734" y2="293.556" gradientUnits="userSpaceOnUse"><stop stop-color="#c1bbf6"/><stop offset="1" stop-color="#262370"/></linearGradient><linearGradient id="paint15_linear_5767_22913" x1="171.519" x2="77" y1="320.492" y2="292.321" gradientUnits="userSpaceOnUse"><stop stop-color="#c1bbf6"/><stop offset="1" stop-color="#262370"/></linearGradient><linearGradient id="paint16_linear_5767_22913" x1="342.812" x2="200.981" y1="176.713" y2="71.614" gradientUnits="userSpaceOnUse"><stop stop-color="#c1bbf6"/><stop offset="1" stop-color="#262370"/></linearGradient><linearGradient id="paint17_linear_5767_22913" x1="46.672" x2="32.893" y1="264.779" y2="264.392" gradientUnits="userSpaceOnUse"><stop stop-color="#c1bbf6"/><stop offset="1" stop-color="#262370"/></linearGradient><linearGradient id="paint18_linear_5767_22913" x1="341.295" x2="306.829" y1="107.321" y2="-25.097" gradientUnits="userSpaceOnUse"><stop stop-color="#c1bbf6"/><stop offset="1" stop-color="#262370"/></linearGradient><linearGradient id="paint19_linear_5767_22913" x1="320.155" x2="293.382" y1="280.556" y2="277.944" gradientUnits="userSpaceOnUse"><stop stop-color="#c1bbf6"/><stop offset="1" stop-color="#262370"/></linearGradient><linearGradient id="paint20_linear_5767_22913" x1="24.444" x2="12.93" y1="218.737" y2="203.112" gradientUnits="userSpaceOnUse"><stop stop-color="#c1bbf6"/><stop offset="1" stop-color="#262370"/></linearGradient><linearGradient id="paint21_linear_5767_22913" x1="342.338" x2="284.906" y1="154.444" y2="-11.841" gradientUnits="userSpaceOnUse"><stop stop-color="#c1bbf6"/><stop offset="1" stop-color="#262370"/></linearGradient><linearGradient id="paint22_linear_5767_22913" x1="138.764" x2="37.823" y1="292.838" y2="272.462" gradientUnits="userSpaceOnUse"><stop stop-color="#c1bbf6"/><stop offset="1" stop-color="#262370"/></linearGradient><linearGradient id="paint23_linear_5767_22913" x1="107.982" x2="97.278" y1="310.607" y2="310.042" gradientUnits="userSpaceOnUse"><stop stop-color="#c1bbf6"/><stop offset="1" stop-color="#262370"/></linearGradient><linearGradient id="paint24_linear_5767_22913" x1="171.131" x2="167.771" y1="314.438" y2="314.414" gradientUnits="userSpaceOnUse"><stop stop-color="#c1bbf6"/><stop offset="1" stop-color="#262370"/></linearGradient><linearGradient id="paint25_linear_5767_22913" x1="306.636" x2="297.175" y1="255.913" y2="241.293" gradientUnits="userSpaceOnUse"><stop stop-color="#c1bbf6"/><stop offset="1" stop-color="#262370"/></linearGradient><linearGradient id="paint26_linear_5767_22913" x1="122.724" x2="-27.878" y1="310.59" y2="235.998" gradientUnits="userSpaceOnUse"><stop stop-color="#c1bbf6"/><stop offset="1" stop-color="#262370"/></linearGradient><linearGradient id="paint27_linear_5767_22913" x1="190.569" x2="186.707" y1="7.206" y2="-7.403" gradientUnits="userSpaceOnUse"><stop stop-color="#c1bbf6"/><stop offset="1" stop-color="#262370"/></linearGradient><linearGradient id="paint28_linear_5767_22913" x1="255.564" x2="191.459" y1="111.373" y2="-30.086" gradientUnits="userSpaceOnUse"><stop stop-color="#c1bbf6"/><stop offset="1" stop-color="#262370"/></linearGradient><linearGradient id="paint29_linear_5767_22913" x1="239.478" x2="205.363" y1="317.271" y2="304.297" gradientUnits="userSpaceOnUse"><stop stop-color="#c1bbf6"/><stop offset="1" stop-color="#262370"/></linearGradient><linearGradient id="paint30_linear_5767_22913" x1="156.672" x2="48.828" y1="317.323" y2="295.895" gradientUnits="userSpaceOnUse"><stop stop-color="#c1bbf6"/><stop offset="1" stop-color="#262370"/></linearGradient><linearGradient id="paint31_linear_5767_22913" x1="26.907" x2="15.559" y1="258.584" y2="243.849" gradientUnits="userSpaceOnUse"><stop stop-color="#c1bbf6"/><stop offset="1" stop-color="#262370"/></linearGradient><linearGradient id="paint32_linear_5767_22913" x1="344.1" x2="284.125" y1="177.519" y2="7.914" gradientUnits="userSpaceOnUse"><stop stop-color="#c1bbf6"/><stop offset="1" stop-color="#262370"/></linearGradient><linearGradient id="paint33_linear_5767_22913" x1="289.137" x2="223.38" y1="87.603" y2="-61.066" gradientUnits="userSpaceOnUse"><stop stop-color="#c1bbf6"/><stop offset="1" stop-color="#262370"/></linearGradient><linearGradient id="paint34_linear_5767_22913" x1="227.93" x2="136.858" y1="323.897" y2="308.484" gradientUnits="userSpaceOnUse"><stop stop-color="#c1bbf6"/><stop offset="1" stop-color="#262370"/></linearGradient><linearGradient id="paint35_linear_5767_22913" x1="76.619" x2="11.067" y1="275.159" y2="238.046" gradientUnits="userSpaceOnUse"><stop stop-color="#c1bbf6"/><stop offset="1" stop-color="#262370"/></linearGradient><linearGradient id="paint36_linear_5767_22913" x1="91.29" x2="48.647" y1="305.492" y2="243.437" gradientUnits="userSpaceOnUse"><stop stop-color="#c1bbf6"/><stop offset="1" stop-color="#262370"/></linearGradient><linearGradient id="paint37_linear_5767_22913" x1="218.883" x2="194.878" y1="30.701" y2="-26.335" gradientUnits="userSpaceOnUse"><stop stop-color="#c1bbf6"/><stop offset="1" stop-color="#262370"/></linearGradient><linearGradient id="paint38_linear_5767_22913" x1="324.325" x2="115.932" y1="235.971" y2="78.116" gradientUnits="userSpaceOnUse"><stop stop-color="#c1bbf6"/><stop offset="1" stop-color="#262370"/></linearGradient><linearGradient id="paint39_linear_5767_22913" x1="223.051" x2="191.854" y1="37.164" y2="-33.99" gradientUnits="userSpaceOnUse"><stop stop-color="#c1bbf6"/><stop offset="1" stop-color="#262370"/></linearGradient><linearGradient id="paint40_linear_5767_22913" x1="284.212" x2="253.828" y1="51.041" y2="-42.422" gradientUnits="userSpaceOnUse"><stop stop-color="#c1bbf6"/><stop offset="1" stop-color="#262370"/></linearGradient><linearGradient id="paint41_linear_5767_22913" x1="108.554" x2="56.895" y1="231.197" y2="153.982" gradientUnits="userSpaceOnUse"><stop stop-color="#c1bbf6"/><stop offset="1" stop-color="#262370"/></linearGradient><linearGradient id="paint42_linear_5767_22913" x1="206.498" x2="197.076" y1="12.696" y2="-18.368" gradientUnits="userSpaceOnUse"><stop stop-color="#c1bbf6"/><stop offset="1" stop-color="#262370"/></linearGradient><linearGradient id="paint43_linear_5767_22913" x1="139.74" x2="134.517" y1="332.666" y2="332.065" gradientUnits="userSpaceOnUse"><stop stop-color="#c1bbf6"/><stop offset="1" stop-color="#262370"/></linearGradient><linearGradient id="paint44_linear_5767_22913" x1="334.489" x2="291.708" y1="243.476" y2="228.929" gradientUnits="userSpaceOnUse"><stop stop-color="#c1bbf6"/><stop offset="1" stop-color="#262370"/></linearGradient><linearGradient id="paint45_linear_5767_22913" x1="335.516" x2="323.878" y1="240.293" y2="226.582" gradientUnits="userSpaceOnUse"><stop stop-color="#c1bbf6"/><stop offset="1" stop-color="#262370"/></linearGradient><linearGradient id="paint46_linear_5767_22913" x1="245.288" x2="-30.846" y1="288.987" y2="111.477" gradientUnits="userSpaceOnUse"><stop stop-color="#c1bbf6"/><stop offset="1" stop-color="#262370"/></linearGradient><linearGradient id="paint47_linear_5767_22913" x1="66.074" x2="50.311" y1="268.46" y2="267.939" gradientUnits="userSpaceOnUse"><stop stop-color="#c1bbf6"/><stop offset="1" stop-color="#262370"/></linearGradient><linearGradient id="paint48_linear_5767_22913" x1="76.76" x2="72.922" y1="296.511" y2="296.165" gradientUnits="userSpaceOnUse"><stop stop-color="#c1bbf6"/><stop offset="1" stop-color="#262370"/></linearGradient><linearGradient id="paint49_linear_5767_22913" x1="171.361" x2="126.79" y1="325.565" y2="321.704" gradientUnits="userSpaceOnUse"><stop stop-color="#c1bbf6"/><stop offset="1" stop-color="#262370"/></linearGradient><linearGradient id="paint50_linear_5767_22913" x1="334.118" x2="324.499" y1="177.878" y2="165.104" gradientUnits="userSpaceOnUse"><stop stop-color="#c1bbf6"/><stop offset="1" stop-color="#262370"/></linearGradient><linearGradient id="paint51_linear_5767_22913" x1="308.92" x2="75.552" y1="256.772" y2="15.052" gradientUnits="userSpaceOnUse"><stop stop-color="#c1bbf6"/><stop offset="1" stop-color="#262370"/></linearGradient><linearGradient id="paint52_linear_5767_22913" x1="189.014" x2="181.247" y1="137.928" y2="118.751" gradientUnits="userSpaceOnUse"><stop stop-color="#c1bbf6"/><stop offset="1" stop-color="#262370"/></linearGradient><linearGradient id="paint53_linear_5767_22913" x1="206.491" x2="198.332" y1="132.036" y2="103.724" gradientUnits="userSpaceOnUse"><stop stop-color="#c1bbf6"/><stop offset="1" stop-color="#262370"/></linearGradient><linearGradient id="paint54_linear_5767_22913" x1="263.131" x2="122.399" y1="322.417" y2="286.324" gradientUnits="userSpaceOnUse"><stop stop-color="#c1bbf6"/><stop offset="1" stop-color="#262370"/></linearGradient><linearGradient id="paint55_linear_5767_22913" x1="294.392" x2="250.092" y1="279.13" y2="275.23" gradientUnits="userSpaceOnUse"><stop stop-color="#c1bbf6"/><stop offset="1" stop-color="#262370"/></linearGradient><linearGradient id="paint56_linear_5767_22913" x1="334.031" x2="278.41" y1="254.602" y2="180.787" gradientUnits="userSpaceOnUse"><stop stop-color="#c1bbf6"/><stop offset="1" stop-color="#262370"/></linearGradient><linearGradient id="paint57_linear_5767_22913" x1="278.998" x2="156.428" y1="303.335" y2="274.686" gradientUnits="userSpaceOnUse"><stop stop-color="#c1bbf6"/><stop offset="1" stop-color="#262370"/></linearGradient><linearGradient id="paint58_linear_5767_22913" x1="251.111" x2="247.366" y1="304.224" y2="303.875" gradientUnits="userSpaceOnUse"><stop stop-color="#c1bbf6"/><stop offset="1" stop-color="#262370"/></linearGradient><linearGradient id="paint59_linear_5767_22913" x1="335.579" x2="246.529" y1="224.651" y2="78.311" gradientUnits="userSpaceOnUse"><stop stop-color="#c1bbf6"/><stop offset="1" stop-color="#262370"/></linearGradient><linearGradient id="paint60_linear_5767_22913" x1="333.157" x2="288.988" y1="286.583" y2="223.561" gradientUnits="userSpaceOnUse"><stop stop-color="#c1bbf6"/><stop offset="1" stop-color="#262370"/></linearGradient><linearGradient id="paint61_linear_5767_22913" x1="323.825" x2="279.034" y1="80.014" y2="-55.522" gradientUnits="userSpaceOnUse"><stop stop-color="#c1bbf6"/><stop offset="1" stop-color="#262370"/></linearGradient><linearGradient id="paint62_linear_5767_22913" x1="323.609" x2="281.256" y1="84.862" y2="-42.497" gradientUnits="userSpaceOnUse"><stop stop-color="#c1bbf6"/><stop offset="1" stop-color="#262370"/></linearGradient><linearGradient id="paint63_linear_5767_22913" x1="232.792" x2="225.187" y1="40.415" y2="30.757" gradientUnits="userSpaceOnUse"><stop stop-color="#c1bbf6"/><stop offset="1" stop-color="#262370"/></linearGradient><linearGradient id="paint64_linear_5767_22913" x1="272.185" x2="259.076" y1="113.885" y2="50.973" gradientUnits="userSpaceOnUse"><stop stop-color="#c1bbf6"/><stop offset="1" stop-color="#262370"/></linearGradient><linearGradient id="paint65_linear_5767_22913" x1="303.514" x2="241.725" y1="113.696" y2="-16.72" gradientUnits="userSpaceOnUse"><stop stop-color="#c1bbf6"/><stop offset="1" stop-color="#262370"/></linearGradient><linearGradient id="paint66_linear_5767_22913" x1="222.226" x2="214.529" y1="129.844" y2="96.318" gradientUnits="userSpaceOnUse"><stop stop-color="#c1bbf6"/><stop offset="1" stop-color="#262370"/></linearGradient><linearGradient id="paint67_linear_5767_22913" x1="264.547" x2="195.238" y1="109.379" y2="-2.041" gradientUnits="userSpaceOnUse"><stop stop-color="#c1bbf6"/><stop offset="1" stop-color="#262370"/></linearGradient></defs></svg>