<svg xmlns="http://www.w3.org/2000/svg" width="425" height="279" fill="none"><path fill="url('#paint0_linear_5306_22482')" d="M.924 78.821c.045 3.13.555 6.22 1.501 9.098.946 2.865 2.192 5.546 3.703 7.967a49 49 0 0 0 4.974 6.71 59 59 0 0 0 2.782 2.955l2.93 2.713a93 93 0 0 0 12.46 9.307l1.616 1.026c.534.352 1.077.689 1.628.992l3.295 1.88c.552.309 1.099.634 1.654.932l1.675.86 3.346 1.715a222 222 0 0 0 27.477 11.22c9.304 3.126 18.71 5.734 28.163 7.989 4.72 1.175 9.47 2.167 14.211 3.182l7.133 1.378c1.188.237 2.379.447 3.571.645l3.575.612 3.575.607 3.583.551c2.388.347 4.776.728 7.167 1.053 4.788.601 9.568 1.268 14.36 1.775 4.792.508 9.593.976 14.389 1.439l7.209.552 3.605.27 3.605.204 7.209.43 7.21.298 3.608.149 3.609.082 7.21.193-7.21.056h-3.613l-3.609-.056-7.209-.11-7.209-.248-3.609-.143-3.609-.21-7.21-.435c-4.809-.386-9.618-.701-14.419-1.213-9.609-.877-19.194-2.206-28.752-3.755l-3.588-.59a114 114 0 0 1-3.579-.629l-7.155-1.34c-4.754-.997-9.516-1.957-14.253-3.126-9.474-2.304-18.897-4.962-28.227-8.154a205 205 0 0 1-27.536-11.496l-3.35-1.776-1.675-.893c-.551-.309-1.098-.639-1.65-.965l-3.3-1.94a24 24 0 0 1-1.628-1.021l-1.615-1.058c-4.336-2.775-8.501-5.979-12.46-9.583l-2.913-2.806a63 63 0 0 1-2.761-3.055 50 50 0 0 1-4.928-6.903c-1.49-2.483-2.706-5.224-3.613-8.144a30.8 30.8 0 0 1-1.353-9.19"/><path fill="url('#paint1_linear_5306_22482')" d="M1.201 74.766c.33 3.249 1.148 6.382 2.409 9.219a52 52 0 0 0 4.296 8.017 41 41 0 0 0 2.625 3.501l2.752 3.347c1.858 2.205 3.876 4.146 5.861 6.169.997.993 1.976 2.041 2.969 3.005a43 43 0 0 0 3.108 2.718c1.065.855 2.176 1.655 3.261 2.454 1.086.8 2.176 1.654 3.279 2.404 2.205 1.527 4.503 2.84 6.785 4.185l3.448 2.018a76 76 0 0 0 3.443 1.952c1.162.617 2.32 1.224 3.507 1.758l3.558 1.605c2.354 1.103 4.767 2.046 7.167 3.01 2.4.965 4.827 1.847 7.244 2.757l7.264 2.674c2.418.91 4.852 1.726 7.282 2.553l3.651 1.241 3.673 1.102 3.672 1.103.916.276.925.22 1.853.447c2.472.584 4.924 1.213 7.413 1.759l7.447 1.709c2.477.551 4.953 1.13 7.434 1.599s4.987.849 7.477 1.274l3.744.628q1.88.298 3.745.552 1.873.24 3.745.408c1.246.11 2.502.165 3.761.303l7.557.694c5.026.502 10.021 1.103 15.051 1.627 2.511.265 5.025.551 7.536.805l7.523.689c5.021.436 10.064.673 15.089 1.064l7.54.585 7.545.518 3.774.259c1.272.077 2.515.116 3.774.177l7.549.358c-10.076-.044-20.148-.551-30.212-1.103l-7.548-.397-3.775-.193-1.887-.099-1.887-.143-7.553-.579c-2.519-.199-5.025-.463-7.536-.689l-15.072-1.467-7.51-.667c-1.247-.127-2.515-.182-3.779-.287a94 94 0 0 1-3.783-.391 137 137 0 0 1-3.77-.519l-3.749-.612c-2.502-.419-4.995-.799-7.506-1.246-2.51-.446-4.996-1.003-7.481-1.566l-7.434-1.654c-2.476-.551-4.966-1.207-7.447-1.808l-1.866-.458-.928-.226-.925-.281-3.685-1.103-3.685-1.102-3.66-1.263c-2.439-.844-4.882-1.654-7.299-2.597l-7.264-2.713c-2.418-.921-4.848-1.786-7.252-2.795s-4.83-1.908-7.21-3.077l-3.566-1.654c-1.187-.551-2.358-1.191-3.524-1.825a69 69 0 0 1-3.465-2.029l-3.422-2.062c-2.282-1.378-4.585-2.757-6.815-4.317-1.116-.789-2.189-1.654-3.283-2.47a118 118 0 0 1-3.252-2.514 42 42 0 0 1-3.134-2.812c-1.014-.998-1.977-2.051-2.969-3.071-1.95-2.068-3.944-4.086-5.793-6.341l-2.714-3.43a41 41 0 0 1-2.595-3.594 52.6 52.6 0 0 1-4.212-8.177c-1.205-2.918-1.954-6.116-2.205-9.412"/><path fill="url('#paint2_linear_5306_22482')" d="M2.021 70.766c.62 3.347 1.917 6.396 3.419 9.191q.564 1.048 1.157 2.08l1.23 2.012c.823 1.334 1.624 2.701 2.498 3.975 1.696 2.591 3.66 4.913 5.539 7.311.945 1.186 1.942 2.31 2.913 3.468q1.457 1.737 2.935 3.44l2.947 3.441a76 76 0 0 0 2.969 3.336 71 71 0 0 0 6.42 5.905q.848.678 1.697 1.334c.568.43 1.149.833 1.721 1.252l3.448 2.486c1.137.855 2.333 1.588 3.499 2.382l3.52 2.338a66 66 0 0 0 7.21 4.113 94 94 0 0 0 7.454 3.308c2.524.982 5.038 1.969 7.574 2.895l7.634 2.79c2.544.937 5.068 1.908 7.608 2.817l7.634 2.702 7.68 2.321c2.544.767 5.148 1.34 7.739 1.858 2.591.519 5.221.91 7.829 1.373l3.923.673 3.922.601 3.923.606 1.959.298 1.964.248c2.621.315 5.241.552 7.867.723q3.938.255 7.875.171l3.952-.133c1.323-.033 2.646-.039 3.97-.033q1.985.01 3.965.061l3.961.182c2.638.143 5.28.242 7.913.413l7.901.513c2.638.182 5.267.276 7.9.413 2.634.138 5.268.259 7.91.419s5.275.271 7.913.475c10.53.954 21.039 2.073 31.581 2.663-10.551-.215-21.085-1.175-31.619-1.853-2.63-.154-5.263-.237-7.897-.358a531 531 0 0 0-7.909-.298c-2.642-.083-5.28-.16-7.917-.303l-7.905-.397c-2.638-.133-5.267-.199-7.901-.303l-3.952-.155q-1.973-.044-3.944-.044-1.973 0-3.944.055l-3.957.149c-2.651.072-5.301 0-7.947-.132-2.647-.133-5.289-.386-7.922-.695l-1.972-.237-1.972-.292-3.936-.585-3.939-.584-3.923-.656c-2.617-.452-5.229-.844-7.858-1.346-2.63-.501-5.234-1.102-7.812-1.913l-7.727-2.371-7.633-2.757c-2.545-.926-5.068-1.907-7.6-2.855l-7.608-2.829c-2.544-.937-5.068-1.963-7.6-2.939-5.091-1.952-10.033-4.514-14.762-7.653l-3.507-2.393c-1.162-.81-2.35-1.56-3.49-2.437l-3.448-2.552c-.572-.43-1.153-.844-1.722-1.285-.568-.441-1.128-.904-1.696-1.373a71 71 0 0 1-6.442-6.065 68 68 0 0 1-2.968-3.418l-2.91-3.479a388 388 0 0 1-2.892-3.518c-.958-1.186-1.934-2.332-2.87-3.545-1.854-2.454-3.771-4.825-5.463-7.477-.848-1.301-1.645-2.685-2.451-4.047l-1.205-2.045a66 66 0 0 1-1.132-2.118c-1.518-2.84-2.765-5.949-3.32-9.318"/><path fill="url('#paint3_linear_5306_22482')" d="M3.371 66.825a24.3 24.3 0 0 0 1.938 4.752c.763 1.495 1.493 3.022 2.362 4.411.87 1.39 1.752 2.757 2.655 4.135.903 1.379 1.79 2.757 2.723 4.064l2.76 4.014c.946 1.312 1.913 2.591 2.867 3.887l1.438 1.94 1.463 1.908 2.935 3.816 5.873 7.609a96 96 0 0 0 6.166 7.134 102 102 0 0 0 6.65 6.368 126 126 0 0 0 3.465 2.928c.585.474 1.17.943 1.764 1.4l1.794 1.335 3.592 2.663c1.191.904 2.4 1.742 3.638 2.514a69 69 0 0 0 3.75 2.206c.627.358 1.271.678 1.916.998l1.93.964 3.859 1.93c1.272.64 2.587 1.208 3.897 1.753q1.963.818 3.953 1.561l3.99 1.455a776 776 0 0 1 7.977 2.945c2.66.992 5.314 2.007 7.981 2.894 1.332.447 2.668.871 4.012 1.263 1.345.391 2.702.728 4.05 1.103l4.054 1.102 2.028.552 2.035.474c2.71.607 5.428 1.136 8.168 1.461l8.248.937 1.031.116 1.035.066 2.065.138 4.131.276c2.756.226 5.513.292 8.269.281s5.513-.116 8.257-.325a95 95 0 0 0 4.118-.397l4.126-.552q4.14-.512 8.295-.788l8.304-.347 2.078-.089c.691-.027 1.382 0 2.074-.027l4.151-.039c2.77-.028 5.513-.055 8.3-.033l8.299.028c2.773.038 5.543.171 8.303.353 11.048.783 22.087 1.819 33.126 2.718l-8.291-.441c-2.765-.149-5.513-.353-8.287-.552l-4.139-.27-4.147-.231-8.287-.441c-2.761-.133-5.513-.238-8.282-.232l-8.291.083c-2.765 0-5.513.082-8.291.149l-4.143.093c-.691 0-1.383 0-2.074.055l-2.07.116-8.273.463c-2.753.21-5.513.474-8.249.827l-4.126.552a96 96 0 0 1-4.156.419q-4.156.336-8.321.364c-2.773 0-5.551 0-8.316-.243l-4.156-.259-2.078-.127-1.035-.066-1.039-.11-8.269-.872c-2.77-.319-5.513-.832-8.266-1.444l-2.048-.491-2.031-.551-4.071-1.103c-1.358-.375-2.71-.717-4.067-1.103s-2.706-.838-4.046-1.29c-2.689-.909-5.344-1.935-7.998-2.939-2.655-1.003-5.31-2.007-7.973-2.982l-3.99-1.478a104 104 0 0 1-3.983-1.588c-1.323-.562-2.642-1.141-3.935-1.792l-3.88-1.963-1.939-.976c-.644-.325-1.293-.65-1.93-1.014a70 70 0 0 1-3.79-2.277c-1.248-.811-2.477-1.654-3.665-2.603l-3.592-2.757-1.798-1.361c-.59-.469-1.175-.954-1.76-1.44q-1.755-1.455-3.469-2.993a104 104 0 0 1-6.654-6.518 99 99 0 0 1-6.161-7.283l-5.819-7.719-2.88-3.86-1.441-1.94-1.412-1.98c-.942-1.323-1.892-2.63-2.825-3.959l-2.714-4.085c-.916-1.35-1.786-2.757-2.672-4.13s-1.777-2.756-2.604-4.207c-.827-1.45-1.552-2.982-2.294-4.504a24.8 24.8 0 0 1-1.866-4.802"/><path fill="url('#paint4_linear_5306_22482')" d="M5.236 62.95c.331.838.692 1.655 1.073 2.454q.29.6.585 1.191c.204.392.425.766.632 1.152L8.8 70.041c.212.38.424.772.64 1.141l.683 1.103 1.361 2.206c.454.733.903 1.477 1.383 2.205l2.845 4.278c3.86 5.619 7.803 11.144 11.79 16.618l5.958 8.243c1.989 2.757 3.948 5.514 6.03 8.116 4.145 5.237 8.59 10.053 13.3 14.408a122.4 122.4 0 0 0 14.787 11.699 120 120 0 0 0 15.87 8.993 126 126 0 0 0 8.231 3.523c.691.265 1.383.552 2.082.778l2.1.7 4.198 1.395 2.099.695 2.121.551 4.24 1.103c2.825.827 5.696 1.268 8.55 1.852 1.433.276 2.858.59 4.287.838 1.43.249 2.871.447 4.309.634q4.313.552 8.643.899c5.772.425 11.56.507 17.332.193a117 117 0 0 0 17.243-2.205c1.429-.287 2.842-.629 4.279-.954 1.438-.325 2.871-.618 4.309-.893 1.438-.276 2.879-.524 4.321-.756l4.334-.551 4.339-.552 2.167-.286 2.171-.171 8.698-.7 8.702-.337 2.176-.082h6.531c11.607.038 23.201.551 34.774 1.334-11.594-.425-23.193-.761-34.774-.551l-4.347.088-2.171.038-2.172.111-8.685.452-8.664.805-2.167.204-2.159.309-4.291.578-4.313.629a192 192 0 0 0-8.575 1.72c-1.425.326-2.854.679-4.292.976a117.4 117.4 0 0 1-17.387 2.277c-5.814.342-11.641.281-17.451-.121a142 142 0 0 1-8.698-.866 140 140 0 0 1-4.339-.623c-1.441-.231-2.879-.551-4.317-.827-2.871-.601-5.763-1.053-8.6-1.896l-4.275-1.142-2.12-.551-2.12-.706-4.242-1.422-2.12-.712c-.704-.253-1.4-.523-2.095-.794a140 140 0 0 1-8.287-3.589c-10.928-5.199-21.416-12.13-30.83-21.073-4.711-4.452-9.154-9.364-13.291-14.694-2.078-2.657-4.029-5.464-5.996-8.232l-5.887-8.325a823 823 0 0 1-11.59-16.883L12.632 76.9c-.47-.717-.912-1.467-1.357-2.205L9.94 72.456l-.661-1.103c-.22-.375-.424-.772-.624-1.158L7.42 67.863c-.203-.391-.424-.777-.61-1.174-.187-.397-.382-.8-.564-1.208-.344-.854-.692-1.681-1.01-2.53"/><path fill="url('#paint5_linear_5306_22482')" d="m7.6 59.139 1.314 2.426c.424.81.87 1.62 1.345 2.398.933 1.56 1.84 3.149 2.794 4.687l2.85 4.637 2.884 4.598 1.446 2.3 1.489 2.243 2.968 4.494 6.064 8.877 12.218 17.643a184 184 0 0 0 13.05 16.492c4.599 5.146 9.435 9.922 14.482 14.302 4.998 4.446 10.243 8.405 15.69 11.843 5.454 3.431 11.118 6.264 16.934 8.469a98 98 0 0 0 17.812 4.554 111 111 0 0 0 18.134 1.506h2.273l2.277-.072 4.555-.149c1.518-.066 3.036-.072 4.554-.177 1.519-.104 3.028-.231 4.538-.385 1.51-.155 3.02-.342 4.525-.552 1.506-.209 3.007-.551 4.512-.794l4.512-.805 2.282-.419 2.243-.496c2.99-.689 5.938-1.511 8.906-2.481s5.963-1.726 8.961-2.454l9.012-1.99a141 141 0 0 1 9.05-1.731c3.023-.486 6.056-.861 9.084-1.263l4.546-.596c1.514-.193 3.036-.33 4.554-.485 6.069-.711 12.163-.981 18.236-1.152 3.045 0 6.09 0 9.135.033l9.147.485a208.3 208.3 0 0 0-36.471 1.439c-1.514.193-3.028.337-4.542.552l-4.533.65c-3.024.436-6.052.838-9.063 1.373s-6.013 1.103-9.003 1.836l-8.978 2.101a154 154 0 0 0-8.906 2.547c-2.968.954-5.937 1.836-8.952 2.542l-2.256.513-2.265.419-4.533.827c-1.51.27-3.016.551-4.534.816s-3.04.424-4.563.584q-2.282.241-4.572.408c-1.526.111-3.049.127-4.571.199l-4.572.165-2.29.083h-2.29a112 112 0 0 1-18.295-1.445 99.3 99.3 0 0 1-17.981-4.681c-5.862-2.255-11.57-5.139-17.065-8.623-5.497-3.492-10.787-7.51-15.827-12.02a151 151 0 0 1-14.529-14.545 188 188 0 0 1-13.002-16.75L30.297 96.306l-5.959-8.998-2.93-4.56-1.463-2.283-1.421-2.326-2.829-4.66-2.794-4.697c-.93-1.566-1.811-3.181-2.719-4.77-.462-.788-.882-1.615-1.306-2.436z"/><path fill="url('#paint6_linear_5306_22482')" d="m10.459 55.399 6.111 9.632a777 777 0 0 1 6.01 9.748l5.987 9.77 1.502 2.437 1.53 2.404 3.058 4.814q6.136 9.599 12.358 19.116c4.105 6.39 8.367 12.582 12.867 18.481s9.198 11.535 14.105 16.844c4.883 5.341 10.045 10.236 15.449 14.65 5.397 4.402 11.104 8.128 17.044 11.126 5.949 2.944 12.135 5.01 18.439 6.159a87 87 0 0 0 19.045 1.483q4.784-.142 9.542-.777 4.758-.634 9.508-1.511a172 172 0 0 0 18.817-4.659q4.665-1.439 9.262-3.181c1.535-.552 3.053-1.197 4.588-1.798l4.614-1.77a293 293 0 0 1 37.421-11.479 133.6 133.6 0 0 1 19.084-2.955 107.4 107.4 0 0 1 19.207.121c-12.789-.793-25.604.427-38.168 3.634a295 295 0 0 0-37.255 11.898l-4.585 1.819c-1.531.618-3.062 1.269-4.597 1.858a153 153 0 0 1-9.304 3.242 172 172 0 0 1-18.906 4.759q-4.766.915-9.559 1.555t-9.63.827a87.7 87.7 0 0 1-19.262-1.434c-6.393-1.188-12.662-3.307-18.69-6.319-6.002-3.054-11.767-6.845-17.217-11.319-5.437-4.471-10.63-9.425-15.543-14.826a214 214 0 0 1-14.096-17.054c-4.479-5.977-8.72-12.256-12.782-18.696-4.063-6.44-8.19-12.814-12.227-19.298l-3.006-4.868-1.502-2.437-1.475-2.47-5.878-9.881c-3.893-6.611-7.884-13.1-11.866-19.645"/><path fill="url('#paint7_linear_5306_22482')" d="M13.787 51.742C18.524 58 22.6 65.024 26.747 71.927s8.1 14.01 12.264 20.897c8.22 13.889 16.561 27.678 25.37 40.922a346 346 0 0 0 6.784 9.687c2.35 3.132 4.742 6.209 7.112 9.318l1.781 2.322 1.862 2.26a203 203 0 0 0 3.728 4.411q3.77 4.35 7.76 8.348a125 125 0 0 0 8.224 7.542c2.824 2.36 5.703 4.604 8.681 6.584 5.952 3.995 12.295 6.917 18.854 8.683a59 59 0 0 0 9.924 1.803c3.343.282 6.695.337 10.042.166a85 85 0 0 0 10.021-1.064c3.321-.552 6.62-1.373 9.907-2.294a143 143 0 0 0 4.911-1.483l4.872-1.709c3.245-1.152 6.506-2.206 9.708-3.573s6.403-2.674 9.554-4.218 6.336-2.961 9.491-4.505c12.574-6.285 25.297-12.229 38.274-17.037l2.43-.92c.818-.287 1.636-.552 2.455-.822q2.46-.794 4.941-1.466a110 110 0 0 1 9.978-2.234 69 69 0 0 1 10.085-1.152 66.6 66.6 0 0 1 10.11.425 67.6 67.6 0 0 0-20.148 1.163 119 119 0 0 0-9.924 2.409q-2.468.717-4.906 1.55-1.222.413-2.435.86l-2.413.97c-12.921 4.962-25.576 11.027-38.112 17.462-3.147 1.577-6.323 3.082-9.482 4.626l-2.375 1.147-2.396 1.075a221 221 0 0 1-4.814 2.057c-3.218 1.361-6.492 2.453-9.754 3.622l-4.881 1.759a108 108 0 0 1-4.94 1.505c-3.304.943-6.633 1.781-9.996 2.354a83 83 0 0 1-10.131 1.103c-3.392.189-6.79.147-10.178-.127a59 59 0 0 1-10.093-1.803c-6.664-1.821-13.105-4.812-19.148-8.893-3.023-2.024-5.937-4.306-8.77-6.699a135 135 0 0 1-8.286-7.642c-2.68-2.68-5.28-5.514-7.808-8.442a266 266 0 0 1-3.736-4.454l-1.836-2.278-1.781-2.343c-2.37-3.126-4.771-6.219-7.112-9.373s-4.563-6.484-6.786-9.803c-4.33-6.738-8.663-13.47-12.794-20.401l-3.126-5.171-3.083-5.216-3.083-5.21-3.04-5.26c-4.08-6.98-7.96-14.165-12.036-21.14-2.001-3.523-4.088-6.969-6.14-10.442l-3.185-5.106c-.518-.866-1.099-1.654-1.663-2.47z"/><path fill="url('#paint8_linear_5306_22482')" d="M17.586 48.166c2.697 3.022 4.78 6.804 7.07 10.316 1.094 1.814 2.145 3.666 3.222 5.514 1.078 1.847 2.142 3.672 3.181 5.54L43.582 91.89c8.342 14.887 16.79 29.702 25.835 43.877 2.193 3.617 4.56 7.041 6.866 10.531l3.47 5.227c1.157 1.737 2.357 3.43 3.553 5.128 4.792 6.765 9.754 13.315 15.004 19.485 5.202 6.213 10.756 11.909 16.616 17.037 5.869 5.045 12.15 9.373 18.854 12.069 6.705 2.697 13.796 3.507 20.81 3.011s13.995-2.206 20.806-4.593a166 166 0 0 0 20.101-8.739l9.83-5.221c3.261-1.787 6.497-3.667 9.754-5.514 12.964-7.432 25.793-15.339 39.045-21.972 1.659-.827 3.308-1.654 4.971-2.476 1.662-.821 3.35-1.521 5.038-2.205 3.392-1.423 6.785-2.696 10.254-3.749 6.9-2.084 14.046-3.308 21.115-2.366a41.2 41.2 0 0 0-10.602.293 65 65 0 0 0-10.437 2.503c-3.435 1.102-6.823 2.437-10.178 3.909a137 137 0 0 0-5.004 2.316c-1.649.827-3.286 1.703-4.932 2.552-13.172 6.771-25.945 14.793-38.871 22.375-3.244 1.869-6.472 3.782-9.733 5.607l-9.843 5.282a168 168 0 0 1-20.203 8.861c-6.866 2.409-13.902 4.19-21.043 4.714-7.142.523-14.377-.259-21.247-3.011-6.87-2.751-13.223-7.206-19.155-12.328-5.897-5.194-11.485-10.955-16.718-17.236-5.258-6.23-10.241-12.83-15.038-19.634-1.196-1.709-2.396-3.413-3.558-5.155l-3.456-5.26c-2.294-3.529-4.644-6.986-6.82-10.63-8.973-14.308-17.34-29.222-25.584-44.214L30.783 69.802a325 325 0 0 0-3.12-5.597c-1.053-1.852-2.092-3.722-3.16-5.558-2.235-3.573-4.262-7.399-6.917-10.481"/><path fill="url('#paint9_linear_5306_22482')" d="M21.834 44.677a31 31 0 0 1 3.965 5.094c1.217 1.836 2.375 3.727 3.524 5.635.585.943 1.124 1.93 1.675 2.906l1.65 2.933c1.09 1.963 2.218 3.898 3.278 5.883l12.816 23.791 6.395 11.904 6.472 11.833c.542.981 1.073 1.973 1.624 2.949l1.658 2.917 3.316 5.839c1.112 1.941 2.193 3.904 3.33 5.822l3.418 5.729c4.495 7.719 9.296 15.102 13.994 22.606a356 356 0 0 0 15.021 21.409 220 220 0 0 0 16.429 19.518c2.893 3 5.903 5.801 9.02 8.392a73 73 0 0 0 9.703 6.919c3.339 2.005 6.854 3.468 10.467 4.356a38 38 0 0 0 10.988.893 53 53 0 0 0 5.513-.589 50 50 0 0 0 5.454-1.214 88 88 0 0 0 10.703-3.826 153 153 0 0 0 20.679-10.696c3.363-2.04 6.662-4.295 9.991-6.446 1.658-1.102 3.338-2.139 4.983-3.269l4.953-3.342 4.954-3.352 4.927-3.402 4.933-3.402 4.915-3.446c3.278-2.299 6.548-4.609 9.86-6.837s6.577-4.559 9.957-6.616c6.696-4.245 13.456-8.381 20.526-11.507a60 60 0 0 1 10.826-3.622 30.1 30.1 0 0 1 11.133-.634 30.1 30.1 0 0 0-11.09.909 61.3 61.3 0 0 0-10.751 3.794c-7.01 3.231-13.719 7.471-20.356 11.821-1.658 1.103-3.35 2.095-4.978 3.27l-4.92 3.418c-3.286 2.261-6.547 4.604-9.809 6.936l-4.898 3.496-4.911 3.457-4.915 3.457-4.936 3.402-4.936 3.402c-1.642 1.141-3.317 2.205-4.971 3.308l-4.983 3.308a173 173 0 0 1-5.021 3.214 153.5 153.5 0 0 1-20.78 10.829 89 89 0 0 1-10.814 3.909 54 54 0 0 1-5.551 1.252 54 54 0 0 1-5.615.623 39.2 39.2 0 0 1-11.264-.882c-3.715-.897-7.33-2.39-10.763-4.444a74.5 74.5 0 0 1-9.851-7.063 112 112 0 0 1-9.105-8.557 220 220 0 0 1-16.497-19.695 355 355 0 0 1-15.038-21.541c-4.712-7.516-9.478-14.964-13.931-22.744-9.046-15.4-17.57-31.307-25.95-47.307L35.668 67.382c-1.044-2.013-2.146-3.954-3.22-5.933l-1.615-2.955c-.539-.987-1.073-1.98-1.641-2.939-1.124-1.924-2.26-3.86-3.448-5.706a32 32 0 0 0-3.91-5.172"/><path fill="url('#paint10_linear_5306_22482')" d="M26.52 41.285c.82.691 1.589 1.48 2.298 2.354a46 46 0 0 1 2.057 2.718c1.319 1.88 2.544 3.86 3.774 5.84l.9 1.504.847 1.539 1.73 3.076c1.15 2.057 2.32 4.091 3.453 6.164l6.65 12.56 6.53 12.682c8.618 16.949 17.269 33.87 26.416 50.328l6.938 12.273 7.146 12.058 1.785 3.017 1.862 2.938 3.728 5.867 3.728 5.866a208 208 0 0 0 3.842 5.734 255 255 0 0 0 16.399 21.641c5.793 6.743 11.955 13.018 18.711 17.964 3.356 2.509 6.911 4.542 10.602 6.065 3.689 1.452 7.519 2.22 11.373 2.282a41.2 41.2 0 0 0 11.51-1.521 68.7 68.7 0 0 0 11.17-4.202 111 111 0 0 0 10.772-5.817c3.516-2.156 6.968-4.526 10.365-7.002a293 293 0 0 0 5.089-3.804c1.696-1.279 3.329-2.641 5-3.959 3.329-2.652 6.662-5.282 9.983-7.973 6.653-5.342 13.269-10.718 19.842-16.215 6.574-5.497 13.083-11.116 19.712-16.508l5.038-3.92c1.696-1.29 3.337-2.647 5.059-3.86 3.427-2.459 6.913-4.786 10.496-6.831a56.6 56.6 0 0 1 11.086-4.962c3.816-1.158 7.765-1.732 11.645-1.037-3.889-.606-7.829.044-11.599 1.279a56.8 56.8 0 0 0-10.992 5.15c-3.554 2.095-7.01 4.466-10.398 6.969-1.697 1.235-3.346 2.613-5.017 3.931l-4.983 3.926c-6.582 5.464-13.087 11.088-19.606 16.701-6.518 5.613-13.146 11.027-19.762 16.419-3.295 2.719-6.628 5.387-9.945 8.078-3.316 2.69-6.67 5.32-10.084 7.824s-6.875 4.89-10.42 7.079a113 113 0 0 1-10.861 5.911 70 70 0 0 1-11.323 4.295 42 42 0 0 1-11.768 1.588c-3.971-.048-7.918-.826-11.722-2.311-3.774-1.539-7.41-3.604-10.843-6.158-6.871-5.056-13.075-11.419-18.906-18.228a258 258 0 0 1-16.471-21.834c-1.294-1.908-2.592-3.816-3.847-5.767l-3.728-5.894-3.727-5.9-1.858-2.95-1.785-3.027-7.133-12.13-6.875-12.301C71.337 124.22 62.77 107.211 54.26 90.168l-6.412-12.78-6.527-12.681c-1.111-2.09-2.26-4.136-3.393-6.209l-1.696-3.104-.848-1.55-.882-1.521c-1.183-2.013-2.4-4.003-3.694-5.905a47 47 0 0 0-2.019-2.757 17 17 0 0 0-2.268-2.376"/><path fill="url('#paint11_linear_5306_22482')" d="M31.621 37.98c.89.655 1.727 1.426 2.498 2.3.78.86 1.518 1.786 2.23 2.757 1.43 1.907 2.761 3.93 4.042 6.004l.95 1.56.912 1.605 1.82 3.209 3.633 6.429 6.913 13.172 6.658 13.387c8.783 17.919 17.528 35.882 26.717 53.448l7.002 13.073c1.15 2.206 2.362 4.329 3.562 6.473l3.605 6.435 3.605 6.44 3.761 6.28 3.762 6.28c1.272 2.089 2.489 4.207 3.795 6.247a284 284 0 0 0 16.366 23.603c2.901 3.717 5.899 7.306 9.007 10.713a111 111 0 0 0 9.725 9.533c3.365 2.925 6.941 5.418 10.678 7.444 3.725 2.01 7.663 3.278 11.679 3.76 4.022.448 8.072.169 12.036-.827a58.3 58.3 0 0 0 11.666-4.378 92.6 92.6 0 0 0 11.094-6.545 115 115 0 0 0 5.31-3.898c.873-.678 1.743-1.373 2.603-2.073l1.273-1.064 1.272-1.103 5.089-4.411 2.544-2.205c.849-.733 1.697-1.461 2.545-2.244l9.97-9.241 9.958-9.323 9.872-9.407 19.474-19.374c6.501-6.435 13.168-12.682 20.356-17.804a76 76 0 0 1 5.488-3.578 43.4 43.4 0 0 1 5.725-2.884c3.901-1.577 8.057-2.376 12.116-1.549-4.063-.744-8.198.143-12.057 1.786-3.857 1.737-7.576 3.953-11.107 6.616-7.111 5.222-13.697 11.535-20.135 18.063l-19.364 19.557-9.851 9.528-9.89 9.373-9.944 9.373c-.819.799-1.671 1.533-2.545 2.271l-2.544 2.206-5.089 4.449-1.273 1.103-1.297 1.075c-.87.706-1.739 1.406-2.621 2.095a112 112 0 0 1-5.356 3.954 94 94 0 0 1-11.209 6.66 59.6 59.6 0 0 1-11.874 4.483 34.7 34.7 0 0 1-12.371.882c-4.137-.484-8.194-1.776-12.035-3.832-3.814-2.059-7.465-4.598-10.899-7.581-3.42-2.969-6.7-6.202-9.822-9.682-3.134-3.446-6.149-7.074-9.062-10.824a285 285 0 0 1-16.408-23.774 814 814 0 0 1-29.003-51.464c-9.092-17.682-17.748-35.712-26.425-53.725l-6.53-13.486-6.786-13.26-3.57-6.473-1.79-3.231-.895-1.616-.933-1.577c-1.272-2.095-2.545-4.14-3.961-6.065-.7-.965-1.425-1.902-2.193-2.756a16 16 0 0 0-2.472-2.371"/><path fill="url('#paint12_linear_5306_22482')" d="M37.139 34.785a13.4 13.4 0 0 1 2.654 2.272 36 36 0 0 1 2.346 2.806c1.492 1.969 2.875 4.07 4.215 6.214 2.672 4.3 5.153 8.789 7.578 13.327l7.074 13.784c2.311 4.631 4.576 9.301 6.866 13.955 9.05 18.691 17.956 37.492 27.268 55.952 9.394 18.388 19.021 36.577 29.347 54.077 5.195 8.717 10.602 17.203 16.378 25.275s11.874 15.724 18.63 22.319c3.347 3.324 6.915 6.254 10.661 8.755 3.725 2.512 7.733 4.239 11.875 5.117 4.146.803 8.364.735 12.493-.199 4.145-.943 8.197-2.477 12.082-4.576 7.812-4.146 15.072-9.924 22.053-16.166 3.481-3.132 6.891-6.412 10.262-9.748s6.688-6.798 10.034-10.189l9.97-10.255c.849-.86 1.671-1.71 2.494-2.581l2.46-2.619 4.919-5.243 2.46-2.625 2.404-2.712 4.805-5.431 9.597-10.895 2.4-2.718 2.452-2.658 4.898-5.304c.822-.877 1.62-1.781 2.459-2.63.84-.849 1.697-1.704 2.519-2.542a147 147 0 0 1 5.166-4.863c3.481-3.19 7.205-5.904 11.115-8.099a24.6 24.6 0 0 1 6.107-2.365 14.15 14.15 0 0 1 6.34-.067 14.2 14.2 0 0 0-6.327.166 24.8 24.8 0 0 0-6.061 2.453c-3.874 2.259-7.559 5.03-10.996 8.271a120 120 0 0 0-5.089 4.934c-.848.844-1.667 1.704-2.489 2.57-.823.865-1.62 1.786-2.43 2.674l-4.86 5.343-2.418 2.69-2.375 2.757c-3.176 3.666-6.34 7.338-9.533 10.983l-4.784 5.475-2.391 2.757-2.452 2.652-4.906 5.298-2.451 2.653c-.819.876-1.654 1.731-2.481 2.596l-9.937 10.361c-3.333 3.429-6.641 6.897-9.995 10.293a247 247 0 0 1-10.288 9.826c-6.989 6.296-14.301 12.13-22.227 16.386-3.962 2.154-8.095 3.731-12.323 4.703a31.4 31.4 0 0 1-12.876.243c-4.264-.895-8.392-2.663-12.23-5.238-3.82-2.53-7.458-5.501-10.869-8.877-6.828-6.704-12.969-14.457-18.758-22.573s-11.208-16.667-16.399-25.423c-5.063-8.882-10.246-17.643-15.012-26.807-4.928-9.009-9.542-18.289-14.237-27.497-9.224-18.564-18.044-37.442-26.98-56.238-2.243-4.681-4.461-9.374-6.73-14.055l-6.942-13.883c-2.375-4.57-4.814-9.092-7.439-13.425-1.319-2.162-2.68-4.28-4.151-6.27a36 36 0 0 0-2.316-2.839 13.6 13.6 0 0 0-2.63-2.327"/><path fill="url('#paint13_linear_5306_22482')" d="M43.049 31.695a12 12 0 0 1 2.786 2.25 35 35 0 0 1 2.438 2.872c1.548 2.018 2.97 4.18 4.381 6.38 2.8 4.41 5.36 9.036 7.837 13.74 2.477 4.702 4.826 9.521 7.24 14.28 2.413 4.758 4.707 9.621 7.065 14.429 9.295 19.342 18.316 38.887 27.747 58.097 1.158 2.42 2.371 4.791 3.558 7.167l3.58 7.168 3.575 7.168 3.681 7.079 3.677 7.08c1.229 2.354 2.434 4.73 3.702 7.057A588 588 0 0 0 132 200.307c5.225 9.136 10.704 18.013 16.501 26.537s11.845 16.772 18.609 23.918a91 91 0 0 0 10.657 9.842c3.736 2.85 7.714 5.227 11.925 6.379a27.5 27.5 0 0 0 12.863.264 44 44 0 0 0 6.361-1.808 46 46 0 0 0 6.136-2.795 90.6 90.6 0 0 0 11.629-7.719 146 146 0 0 0 10.988-9.263c3.558-3.308 7.014-6.787 10.407-10.377a243 243 0 0 0 5.034-5.48l4.991-5.558c3.342-3.683 6.633-7.449 9.936-11.193l4.949-5.624a286 286 0 0 0 4.865-5.734c3.218-3.859 6.327-7.873 9.465-11.854l9.402-11.954c1.578-1.984 3.134-3.991 4.724-5.954a267 267 0 0 1 4.835-5.806 249 249 0 0 1 4.979-5.596c1.675-1.836 3.358-3.667 5.089-5.448 3.43-3.545 6.98-6.98 10.911-9.544a27 27 0 0 1 6.111-3.159c2.12-.786 4.35-.929 6.518-.419-2.169-.478-4.393-.3-6.501.518a27 27 0 0 0-6.056 3.236c-3.893 2.619-7.396 6.093-10.788 9.682a265 265 0 0 0-5.017 5.514c-1.658 1.864-3.308 3.733-4.915 5.663a294 294 0 0 0-4.771 5.871c-1.569 1.985-3.109 4.014-4.665 6.021l-9.33 12.037c-3.117 4.013-6.209 8.06-9.419 11.959a314 314 0 0 1-4.847 5.789l-4.928 5.673c-3.282 3.772-6.552 7.565-9.881 11.287l-4.97 5.607a199 199 0 0 1-5.021 5.514 221 221 0 0 1-10.441 10.476 149 149 0 0 1-11.056 9.373 91.4 91.4 0 0 1-11.756 7.868 47 47 0 0 1-6.263 2.878 46 46 0 0 1-6.485 1.863 28.54 28.54 0 0 1-13.295-.242c-4.389-1.191-8.481-3.639-12.298-6.534a91.7 91.7 0 0 1-10.81-9.924 144 144 0 0 1-9.754-11.579c-3.1-4.063-6.073-8.27-8.973-12.565-5.802-8.574-11.294-17.512-16.54-26.681a589 589 0 0 1-7.68-13.905c-1.272-2.338-2.468-4.72-3.698-7.08l-3.668-7.101-3.673-7.102-3.562-7.195-3.575-7.239c-1.179-2.404-2.379-4.792-3.524-7.223l-6.942-14.528c-2.312-4.847-4.56-9.743-6.845-14.606l-6.82-14.622c-2.28-4.863-4.52-9.765-6.844-14.595s-4.584-9.715-6.93-14.528-4.711-9.61-7.103-14.38c-2.392-4.769-4.949-9.406-7.701-13.839-1.374-2.205-2.79-4.41-4.317-6.434a35 35 0 0 0-2.41-2.906 12.2 12.2 0 0 0-2.764-2.288"/><path fill="url('#paint14_linear_5306_22482')" d="M49.346 28.718a12.2 12.2 0 0 1 2.943 2.128q1.366 1.298 2.591 2.812a71 71 0 0 1 4.618 6.407c2.901 4.483 5.564 9.214 8.147 14.016s4.974 9.753 7.468 14.633c.632 1.213 1.226 2.459 1.815 3.705l1.781 3.727 3.563 7.46 1.776 3.733 1.74 3.766 3.468 7.531 6.93 15.069c2.31 5.023 4.597 10.062 6.929 15.069l7.01 14.997c1.158 2.508 2.35 4.99 3.546 7.465l3.579 7.444 3.571 7.443c1.191 2.481 2.438 4.912 3.659 7.372l7.35 14.71a733 733 0 0 0 7.654 14.435c5.212 9.527 10.653 18.828 16.518 27.678 5.866 8.849 12.006 17.395 18.787 25.004a93 93 0 0 0 10.734 10.415c3.783 3.044 7.82 5.619 12.099 7.08 4.299 1.435 8.77 1.791 13.172 1.047 4.418-.761 8.742-2.264 12.862-4.471a83 83 0 0 0 11.993-7.78 129 129 0 0 0 5.709-4.62c1.866-1.605 3.689-3.308 5.483-5.045 7.171-7.008 13.855-14.848 20.356-22.915l4.915-6.004 4.856-6.098c3.231-4.08 6.505-8.089 9.652-12.257a384 384 0 0 0 4.665-6.318c1.535-2.134 3.045-4.307 4.571-6.457L305 178.986l4.597-6.44a213 213 0 0 1 4.711-6.302c3.189-4.141 6.565-8.028 9.953-11.882 3.389-3.854 6.909-7.548 10.768-10.602 1.914-1.558 3.972-2.798 6.124-3.689 2.155-.908 4.456-1.07 6.675-.469-2.217-.571-4.511-.381-6.654.552-2.135.919-4.172 2.182-6.064 3.76-3.817 3.099-7.269 6.881-10.641 10.741s-6.692 7.823-9.83 12.003a259 259 0 0 0-4.665 6.357l-4.533 6.501-9.076 13c-1.514 2.162-3.015 4.345-4.546 6.496a294 294 0 0 1-4.665 6.373c-3.138 4.218-6.399 8.271-9.605 12.362l-4.788 6.159-4.894 6.065-4.898 6.065c-1.629 2.023-3.321 3.969-5.004 5.916-3.393 3.859-6.862 7.63-10.471 11.165a137 137 0 0 1-5.513 5.105c-1.866 1.632-3.817 3.182-5.751 4.676a84.4 84.4 0 0 1-12.133 7.912c-4.21 2.269-8.629 3.818-13.146 4.609-4.551.779-9.173.423-13.622-1.047-4.444-1.511-8.587-4.141-12.451-7.24a93 93 0 0 1-10.928-10.558c-6.845-7.719-13.024-16.32-18.881-25.23-5.856-8.91-11.331-18.267-16.539-27.833a578 578 0 0 1-7.633-14.495l-7.337-14.749c-1.217-2.465-2.464-4.908-3.651-7.394l-3.554-7.466-3.545-7.476c-1.184-2.487-2.367-4.962-3.516-7.499l-6.938-15.068c-2.307-5.029-4.567-10.085-6.853-15.124L88.65 99.11l-3.435-7.559-1.718-3.776-1.747-3.75-3.495-7.51-1.747-3.749a111 111 0 0 0-1.781-3.727c-2.447-4.907-4.86-9.847-7.332-14.732-2.545-4.83-5.153-9.594-8.011-14.11a71 71 0 0 0-4.55-6.467 31 31 0 0 0-2.566-2.845 12.2 12.2 0 0 0-2.922-2.167"/><path fill="url('#paint15_linear_5306_22482')" d="M56.008 25.867a12.2 12.2 0 0 1 3.074 1.974q1.442 1.231 2.74 2.707a61 61 0 0 1 4.834 6.346c3.011 4.505 5.76 9.285 8.419 14.148s5.19 9.837 7.654 14.887S87.51 76.1 89.9 81.19c9.398 20.472 18.427 41.231 27.774 61.753l1.743 3.859 1.777 3.827 3.562 7.587 3.545 7.653c1.162 2.569 2.422 5.056 3.635 7.581l7.328 15.102c2.544 4.962 5.131 9.863 7.697 14.798 1.272 2.454 2.544 4.962 3.872 7.372a515 515 0 0 0 4.033 7.223 306 306 0 0 0 8.481 14.01c5.865 9.114 12.082 17.88 18.965 25.66a94 94 0 0 0 10.908 10.647c3.815 3.193 7.954 5.678 12.298 7.383 4.355 1.591 8.896 2.137 13.401 1.61 4.518-.557 8.956-1.917 13.189-4.042 4.253-2.113 8.359-4.696 12.273-7.719q2.943-2.25 5.78-4.747a102 102 0 0 0 5.513-5.255c3.597-3.655 7.036-7.575 10.416-11.578s6.717-8.083 9.936-12.307a368 368 0 0 0 4.792-6.395l4.724-6.49 4.725-6.495a294 294 0 0 0 4.665-6.534c3.074-4.411 6.056-8.932 9.05-13.447 2.994-4.516 5.971-9.043 8.999-13.52l4.537-6.715a299 299 0 0 1 4.585-6.672 185 185 0 0 1 4.766-6.456 249 249 0 0 1 4.983-6.17c3.393-4.03 6.845-7.984 10.725-11.187 1.926-1.633 4-2.95 6.175-3.92 1.1-.466 2.239-.757 3.393-.866a8.4 8.4 0 0 1 3.392.397 8.4 8.4 0 0 0-3.392-.347 11.5 11.5 0 0 0-3.351.91c-2.157.998-4.212 2.34-6.115 3.997-3.817 3.247-7.264 7.239-10.602 11.314a294 294 0 0 0-4.919 6.23c-1.616 2.106-3.168 4.295-4.699 6.506a334 334 0 0 0-4.521 6.727l-4.465 6.776c-2.999 4.51-5.938 9.059-8.927 13.597-2.99 4.537-5.938 9.086-8.995 13.536a404 404 0 0 1-4.665 6.588l-4.69 6.54-4.695 6.528a442 442 0 0 1-4.775 6.451c-3.211 4.273-6.544 8.386-9.911 12.433s-6.84 7.989-10.458 11.689a106 106 0 0 1-5.564 5.326 99 99 0 0 1-5.839 4.813c-3.965 3.081-8.125 5.715-12.435 7.874-4.329 2.186-8.87 3.587-13.494 4.162-4.649.561-9.337.012-13.833-1.621-4.453-1.736-8.698-4.271-12.613-7.531-3.903-3.21-7.606-6.812-11.077-10.774-6.95-7.884-13.184-16.723-19.083-25.914a284 284 0 0 1-8.482-14.104q-2.049-3.6-4.033-7.256c-1.319-2.442-2.579-4.962-3.872-7.399-2.544-4.962-5.157-9.875-7.684-14.848l-7.32-15.151c-2.477-5.029-4.805-10.162-7.154-15.279l-3.546-7.641-1.76-3.86-1.726-3.86-6.891-15.482-6.823-15.526a2271 2271 0 0 0-6.84-15.504l-3.436-7.747-1.696-3.86-1.756-3.86c-2.345-5.11-4.665-10.249-7.035-15.349s-4.907-10.057-7.515-14.958c-2.608-4.902-5.318-9.704-8.282-14.242a61 61 0 0 0-4.776-6.401c-1.738-1.941-3.617-3.783-5.784-4.753"/><path fill="url('#paint16_linear_5306_22482')" d="M63.031 23.12c2.227.839 4.186 2.57 5.971 4.456a56 56 0 0 1 4.962 6.285c3.053 4.512 5.901 9.253 8.528 14.198a349 349 0 0 1 7.634 15.024l7.21 15.389c9.414 20.665 18.417 41.639 27.696 62.392l1.726 3.898 1.773 3.86 3.537 7.719c2.366 5.144 4.665 10.36 7.141 15.438l7.32 15.267c2.464 5.072 5.021 10.062 7.633 15.019 5.195 9.925 10.602 19.612 16.446 28.886s12.053 18.145 18.999 25.964c3.449 3.931 7.136 7.493 11.026 10.652 3.868 3.165 8.044 5.643 12.417 7.366 4.38 1.644 8.946 2.288 13.495 1.902 4.557-.424 9.045-1.688 13.329-3.755 4.3-2.068 8.438-4.665 12.357-7.757a116 116 0 0 0 11.328-10.184c3.621-3.683 7.107-7.603 10.492-11.661 3.384-4.058 6.67-8.27 9.885-12.56q2.404-3.226 4.762-6.517c1.561-2.206 3.083-4.461 4.627-6.683 3.079-4.471 6.187-8.899 9.156-13.497s6.018-9.097 8.986-13.701l4.466-6.881 2.235-3.441 2.264-3.407 4.534-6.81 2.273-3.402 2.311-3.357c3.1-4.45 6.272-8.822 9.601-12.996s6.824-8.149 10.717-11.413c1.929-1.667 4.02-2.995 6.217-3.948 2.193-.904 4.601-1.213 6.828-.358-2.247-.725-4.608-.567-6.786.452-2.18.981-4.251 2.334-6.157 4.025-3.851 3.308-7.29 7.344-10.602 11.534s-6.412 8.618-9.47 13.112l-2.282 3.38-2.239 3.434-4.47 6.87-2.239 3.43-2.218 3.457-4.436 6.92c-2.943 4.62-5.937 9.185-8.905 13.784-2.969 4.598-6.044 9.086-9.101 13.591-1.54 2.244-3.054 4.51-4.606 6.737a286 286 0 0 1-4.745 6.573c-6.404 8.678-13.109 17.02-20.403 24.464a118 118 0 0 1-11.425 10.321c-3.977 3.15-8.178 5.797-12.544 7.906-4.385 2.123-8.98 3.423-13.647 3.86-4.687.413-9.394-.238-13.91-1.924-4.48-1.75-8.759-4.273-12.722-7.504-3.957-3.185-7.707-6.784-11.213-10.763-7.014-7.928-13.261-16.888-19.109-26.212s-11.268-19.093-16.459-29.034c-2.591-4.963-5.148-9.991-7.604-15.08l-7.311-15.311c-2.476-5.073-4.771-10.289-7.12-15.439l-3.503-7.768-1.752-3.86-1.696-3.914c-9.181-20.847-18.087-41.904-27.387-62.618l-7.065-15.477c-2.422-5.111-4.903-10.167-7.515-15.113a157 157 0 0 0-8.405-14.346 57 57 0 0 0-4.899-6.341c-1.78-1.908-3.715-3.661-5.937-4.532"/><path fill="url('#paint17_linear_5306_22482')" d="M70.395 20.512c2.234.739 4.198 2.426 5.97 4.29a56 56 0 0 1 4.937 6.214 146 146 0 0 1 8.52 14.015c2.6 4.902 5.144 9.853 7.718 14.782s4.979 10.007 7.345 15.102c2.367 5.095 4.64 10.272 6.959 15.405l6.909 15.438c2.302 5.145 4.576 10.316 6.899 15.438l7.044 15.317 1.765 3.827c.585 1.273 1.2 2.53 1.802 3.799l3.617 7.586c2.422 5.056 4.788 10.156 7.269 15.152l7.371 15.052a110 110 0 0 0 1.887 3.722l1.925 3.694 3.851 7.388 3.851 7.383a433 433 0 0 0 3.999 7.239 312 312 0 0 0 8.409 14.054c5.831 9.142 11.998 17.941 18.804 25.826a95.5 95.5 0 0 0 10.789 10.818c3.775 3.251 7.874 5.817 12.184 7.625 4.326 1.699 8.855 2.35 13.362 1.919 4.518-.452 8.966-1.719 13.215-3.766 4.271-2.033 8.396-4.55 12.328-7.521a103 103 0 0 0 11.361-9.836c3.618-3.606 7.078-7.482 10.467-11.468 3.388-3.987 6.725-8.05 9.949-12.263 1.615-2.1 3.206-4.234 4.787-6.379 1.582-2.145 3.126-4.35 4.691-6.522 3.104-4.367 6.272-8.668 9.27-13.156l4.555-6.677 2.273-3.341 2.243-3.38c2.999-4.499 5.963-9.037 8.991-13.503l4.529-6.715c1.51-2.239 3.02-4.472 4.567-6.672s3.105-4.411 4.708-6.517a224 224 0 0 1 4.915-6.247c3.35-4.063 6.815-8.006 10.64-11.303 1.9-1.678 3.951-3.046 6.107-4.074 1.082-.5 2.207-.822 3.35-.96a6.86 6.86 0 0 1 3.393.48 6.83 6.83 0 0 0-3.393-.43 11.3 11.3 0 0 0-3.329 1.004c-2.138 1.058-4.169 2.452-6.047 4.151-3.783 3.341-7.21 7.322-10.509 11.424a207 207 0 0 0-4.852 6.308 225 225 0 0 0-4.639 6.567 484 484 0 0 0-4.504 6.737l-4.474 6.777c-2.994 4.504-5.937 9.053-8.906 13.58l-2.226 3.401-2.26 3.364-4.53 6.721c-2.968 4.526-6.132 8.855-9.219 13.232-1.557 2.206-3.083 4.411-4.665 6.562-1.582 2.15-3.159 4.323-4.771 6.445-3.219 4.257-6.548 8.359-9.928 12.389-3.38 4.031-6.87 7.923-10.513 11.579a105 105 0 0 1-11.471 9.974c-3.983 3.035-8.164 5.609-12.494 7.691-4.349 2.105-8.902 3.415-13.528 3.893-4.652.455-9.328-.207-13.795-1.952-4.423-1.836-8.631-4.452-12.507-7.774a96 96 0 0 1-10.958-10.945c-6.861-7.983-13.053-16.855-18.893-26.051-2.926-4.599-5.729-9.335-8.435-14.154a417 417 0 0 1-3.999-7.278l-3.846-7.416-3.842-7.41-1.922-3.705a136 136 0 0 1-1.887-3.733l-7.362-15.09c-2.476-5.018-4.839-10.112-7.235-15.185l-3.583-7.614c-.594-1.274-1.204-2.536-1.785-3.816l-1.748-3.859-6.98-15.4c-2.303-5.149-4.546-10.332-6.824-15.498l-6.832-15.488c-2.294-5.156-4.55-10.333-6.874-15.439s-4.665-10.227-7.21-15.184-5.025-9.925-7.582-14.887A145 145 0 0 0 81.18 31.16a56 56 0 0 0-4.868-6.274c-1.748-1.886-3.69-3.6-5.917-4.373"/><path fill="url('#paint18_linear_5306_22482')" d="M78.106 18.043c2.2.634 4.177 2.161 5.966 3.898a48 48 0 0 1 4.97 5.889c3.047 4.279 5.905 8.78 8.558 13.48 1.358 2.327 2.63 4.72 3.936 7.085l3.902 7.124c2.629 4.72 5.123 9.572 7.548 14.473 2.426 4.902 4.733 9.897 7.074 14.887l6.989 14.93 6.972 14.932a786 786 0 0 0 7.184 14.754l14.843 29.117 7.455 14.534c1.226 2.437 2.544 4.797 3.817 7.168l3.855 7.168 3.85 7.168a338 338 0 0 0 3.982 7.018 369 369 0 0 0 8.338 13.663c5.734 8.915 11.696 17.61 18.235 25.489a105 105 0 0 0 10.348 10.95c3.607 3.345 7.544 6.043 11.705 8.023 4.175 1.874 8.593 2.66 13.002 2.315 4.424-.371 8.787-1.538 12.964-3.467 4.2-1.918 8.268-4.29 12.163-7.091a118 118 0 0 0 11.361-9.164c3.647-3.308 7.15-6.947 10.56-10.702 3.409-3.754 6.743-7.631 9.949-11.689 6.518-7.967 12.879-16.187 19.084-24.563l4.626-6.329 2.312-3.165 2.26-3.231 9.041-12.93 4.546-6.434 2.274-3.22 2.311-3.176a253 253 0 0 1 4.72-6.235 256 256 0 0 1 4.881-6.016 103.4 103.4 0 0 1 10.407-11.071c1.839-1.678 3.823-3.07 5.912-4.146a10.2 10.2 0 0 1 3.261-1.026 5.85 5.85 0 0 1 3.312.513 5.82 5.82 0 0 0-3.308-.463 10.4 10.4 0 0 0-3.24 1.069c-2.069 1.108-4.033 2.523-5.852 4.218a106 106 0 0 0-10.28 11.198 315 315 0 0 0-4.817 6.065c-1.578 2.04-3.126 4.169-4.665 6.291l-2.278 3.209-2.243 3.253-4.487 6.501-8.973 13.012-2.248 3.247-2.299 3.193-4.601 6.357a681 681 0 0 1-18.995 24.767 227 227 0 0 1-9.932 11.822c-3.409 3.798-6.942 7.432-10.602 10.812a120 120 0 0 1-11.45 9.284c-3.947 2.851-8.071 5.267-12.328 7.223-4.277 1.989-8.746 3.195-13.278 3.584-4.564.37-9.139-.432-13.465-2.359-4.269-2.017-8.31-4.771-12.014-8.188a106 106 0 0 1-10.5-11.066c-6.599-7.973-12.578-16.728-18.316-25.693a349 349 0 0 1-8.35-13.746 334 334 0 0 1-3.983-7.052l-3.85-7.168-3.847-7.167c-1.272-2.399-2.587-4.764-3.816-7.212l-7.439-14.561a4386 4386 0 0 1-14.762-29.223 711 711 0 0 1-7.121-14.837l-6.904-15.002-6.912-14.987c-2.307-4.99-4.589-10.001-6.985-14.92-2.396-4.918-4.817-9.808-7.404-14.544l-3.817-7.168c-1.272-2.382-2.544-4.797-3.872-7.134a152 152 0 0 0-8.422-13.586 48 48 0 0 0-4.903-5.944c-1.785-1.786-3.74-3.34-5.915-4.008"/><path fill="url('#paint19_linear_5306_22482')" d="M86.1 15.707c2.123.63 4.13 1.8 5.903 3.446a46 46 0 0 1 5.063 5.304 99 99 0 0 1 4.589 6.01 139 139 0 0 1 4.241 6.423 346 346 0 0 1 2.035 3.309l1.968 3.374 3.919 6.754c1.302 2.26 2.629 4.494 3.901 6.782a412 412 0 0 1 3.775 6.903 850 850 0 0 1 3.668 6.991l3.596 7.058 7.18 14.114 7.184 14.104c1.179 2.371 2.442 4.654 3.672 6.98l3.703 6.942 3.706 6.947 3.791 6.876 7.566 13.784 7.544 13.784 1.888 3.446 1.925 3.402 3.863 6.803c2.579 4.527 5.115 9.103 7.799 13.52s5.386 8.822 8.181 13.122c5.589 8.601 11.28 17.12 17.578 24.811a123 123 0 0 0 4.851 5.564 112 112 0 0 0 5.089 5.183c3.432 3.354 7.159 6.164 11.103 8.369a25.5 25.5 0 0 0 6.111 2.36c2.098.497 4.229.728 6.361.689 4.292-.136 8.552-1.001 12.672-2.575 4.128-1.585 8.128-3.684 11.946-6.269 3.842-2.547 7.579-5.397 11.226-8.402s7.158-6.302 10.602-9.721a202 202 0 0 0 10.042-10.702l4.877-5.585 2.438-2.795 1.222-1.395 1.196-1.428 4.779-5.74 2.388-2.867 1.191-1.439 1.171-1.467 4.665-5.894 2.328-2.944 1.166-1.478 1.137-1.511L342 164.564l4.567-6.032 2.281-3.022c.751-1.009 1.553-1.968 2.329-2.955 3.138-3.898 6.208-7.895 9.457-11.639a172 172 0 0 1 4.919-5.547 63 63 0 0 1 5.225-5.061 29.6 29.6 0 0 1 5.771-3.91 10 10 0 0 1 3.156-1.003c1.084-.164 2.183.025 3.197.551a5.2 5.2 0 0 0-3.193-.518 10.2 10.2 0 0 0-3.134 1.047 30 30 0 0 0-5.712 3.981 65 65 0 0 0-5.161 5.128 179 179 0 0 0-4.861 5.613c-6.361 7.686-12.412 15.741-18.392 23.913l-9.041 12.185-1.133 1.521-1.157 1.489-2.32 2.972-4.64 5.944-1.162 1.483-1.187 1.45-2.375 2.889-4.754 5.789-1.204 1.439-1.213 1.412-2.43 2.823-4.86 5.64c-6.479 7.56-13.392 14.466-20.678 20.66-3.677 3.043-7.422 5.921-11.311 8.507-3.878 2.643-7.944 4.79-12.141 6.412-4.215 1.619-8.575 2.516-12.969 2.669a26.4 26.4 0 0 1-6.59-.695 26.7 26.7 0 0 1-6.361-2.431c-4.032-2.246-7.843-5.109-11.353-8.53-1.768-1.654-3.486-3.424-5.165-5.232a121 121 0 0 1-4.915-5.613c-6.361-7.785-12.048-16.353-17.638-24.993a404 404 0 0 1-8.185-13.194c-2.688-4.439-5.216-9.026-7.794-13.569l-3.859-6.826-1.926-3.413-1.883-3.452-7.523-13.811-7.527-13.784-3.758-6.909-3.693-6.997-3.677-6.991c-1.217-2.338-2.477-4.642-3.643-7.019l-7.108-14.175-7.124-14.176-3.554-7.085a917 917 0 0 0-3.622-7.019 422 422 0 0 0-3.702-6.952c-1.251-2.3-2.545-4.554-3.817-6.826l-3.859-6.81-1.93-3.401c-.661-1.103-1.327-2.233-2.001-3.308a148 148 0 0 0-4.177-6.473 104 104 0 0 0-4.525-6.065 47 47 0 0 0-5-5.382c-1.755-1.677-3.749-2.886-5.865-3.556"/><path fill="url('#paint20_linear_5306_22482')" d="M94.412 13.51c2.058.496 4.04 1.427 5.865 2.757a38.4 38.4 0 0 1 5.216 4.499 95.4 95.4 0 0 1 9.127 11.143c2.845 3.975 5.547 8.116 8.18 12.334a312 312 0 0 1 3.885 6.38l3.774 6.489c10.098 17.29 19.572 35.16 29.737 52.335 5.029 8.64 10.148 17.213 15.216 25.837s10.025 17.34 15.157 25.881l3.816 6.428 1.913 3.215 1.942 3.181a532 532 0 0 0 7.943 12.544 258 258 0 0 0 17.116 23.57 117 117 0 0 0 9.597 10.311c3.322 3.196 6.889 5.936 10.645 8.177a33 33 0 0 0 5.797 2.685 27.6 27.6 0 0 0 6.056 1.356c4.109.414 8.242.042 12.269-1.103 4.042-1.139 7.989-2.79 11.785-4.929a93.5 93.5 0 0 0 11.081-7.322A155 155 0 0 0 301 210.456a275 275 0 0 0 10.021-9.682c3.278-3.335 6.459-6.842 9.686-10.266s6.361-7.024 9.529-10.531 6.209-7.223 9.33-10.834l9.084-11.182 4.529-5.607 2.264-2.807a130 130 0 0 1 2.286-2.784l4.61-5.514 2.307-2.756c.78-.899 1.569-1.792 2.362-2.669a87 87 0 0 1 10.025-9.754c1.774-1.447 3.679-2.604 5.67-3.446a8.9 8.9 0 0 1 3.088-.65c1.048-.026 2.087.262 3.036.843-.952-.561-1.991-.829-3.036-.782a8.8 8.8 0 0 0-3.062.711c-1.969.875-3.848 2.062-5.594 3.534a88 88 0 0 0-9.906 9.875c-.785.887-1.561 1.792-2.337 2.696l-2.277 2.757-4.559 5.569q-1.146 1.383-2.256 2.812l-2.239 2.839-4.479 5.674-9.029 11.275c-3.091 3.65-6.166 7.322-9.278 10.944s-6.298 7.119-9.479 10.631-6.42 6.941-9.656 10.376c-6.539 6.754-13.312 13.183-20.538 18.708a93 93 0 0 1-11.2 7.443c-3.861 2.189-7.876 3.883-11.989 5.056a33.8 33.8 0 0 1-12.608 1.164 28.6 28.6 0 0 1-6.26-1.384 34 34 0 0 1-5.983-2.757c-3.839-2.274-7.486-5.058-10.882-8.309a117 117 0 0 1-9.699-10.415 259 259 0 0 1-17.18-23.764 512 512 0 0 1-7.943-12.598l-1.942-3.199-1.959-3.148-3.817-6.445c-5.123-8.574-10.089-17.285-15.119-25.914s-10.123-17.219-15.114-25.914c-10.085-17.302-19.474-35.248-29.453-52.616l-3.719-6.54c-1.242-2.172-2.544-4.3-3.816-6.428-2.592-4.246-5.251-8.414-8.058-12.423a97 97 0 0 0-8.995-11.247 38.7 38.7 0 0 0-5.144-4.582c-1.8-1.377-3.764-2.359-5.81-2.906"/><path fill="url('#paint21_linear_5306_22482')" d="M103.014 11.455a18.5 18.5 0 0 1 5.704 2.206 36 36 0 0 1 5.241 3.716 83 83 0 0 1 9.372 9.61c2.969 3.48 5.76 7.168 8.482 10.912a293 293 0 0 1 4.042 5.712c1.319 1.935 2.591 3.925 3.888 5.883l3.872 5.91 1.934 2.955c.641.993 1.272 2.002 1.887 3l7.541 12.025 7.506 12.053 3.757 6.02 3.817 5.96 7.612 11.943 7.57 12.004c2.545 3.997 5 8.038 7.502 12.052l3.74 6.032c1.273 2.013 2.545 3.992 3.788 5.988l7.608 11.953a375 375 0 0 0 7.815 11.673 275 275 0 0 0 16.858 21.806c5.937 6.815 12.192 13.233 19.27 17.749 3.51 2.287 7.252 3.912 11.115 4.824a32.4 32.4 0 0 0 11.722.441 48.4 48.4 0 0 0 11.518-3.275 76 76 0 0 0 11.026-5.685 100 100 0 0 0 10.399-7.415c3.392-2.702 6.662-5.586 9.919-8.541s6.471-5.971 9.618-9.125 6.264-6.363 9.398-9.544c1.56-1.605 3.134-3.182 4.665-4.797a347 347 0 0 0 4.588-4.935c3.028-3.346 6.009-6.765 9.02-10.139l8.995-10.184 4.576-4.99c1.535-1.654 3.024-3.357 4.623-4.907a75.4 75.4 0 0 1 9.953-8.562c1.745-1.263 3.612-2.218 5.551-2.84a8.1 8.1 0 0 1 2.969-.336c.997.075 1.969.436 2.845 1.058-.882-.6-1.855-.941-2.85-.998a8.2 8.2 0 0 0-2.968.397c-1.919.658-3.762 1.646-5.479 2.939a77 77 0 0 0-9.843 8.69c-1.578 1.565-3.049 3.308-4.563 4.962l-4.521 5.045-8.906 10.327c-2.968 3.413-5.937 6.853-8.965 10.233a260 260 0 0 1-4.572 4.995c-1.543 1.638-3.112 3.237-4.665 4.853-3.117 3.214-6.204 6.461-9.35 9.637a296 296 0 0 1-9.597 9.252c-6.489 5.977-13.147 11.755-20.412 16.205a77 77 0 0 1-11.136 5.789 49.1 49.1 0 0 1-11.739 3.374c-4.011.599-8.067.46-12.048-.413-3.978-.925-7.834-2.585-11.45-4.93-7.243-4.592-13.609-11.076-19.58-17.93a278 278 0 0 1-16.912-21.977 415 415 0 0 1-7.825-11.744l-7.544-11.976c-1.272-2.001-2.545-3.986-3.779-6.004l-3.732-6.065c-2.497-4.03-4.97-8.088-7.48-12.086l-15.081-24.028-3.778-6.004-3.724-6.065-7.438-12.13-7.485-12.07c-.624-1.003-1.239-2.023-1.875-3.016l-1.912-2.971-3.817-5.939c-1.272-1.979-2.545-3.986-3.817-5.938s-2.633-3.86-3.978-5.761c-2.693-3.8-5.466-7.499-8.375-11.028a83 83 0 0 0-9.25-9.72 36 36 0 0 0-5.173-3.815 18.6 18.6 0 0 0-5.687-2.3"/><path fill="url('#paint22_linear_5306_22482')" d="M111.893 9.569c3.744.612 7.298 2.498 10.602 4.775a74 74 0 0 1 9.469 8.028c3.003 2.96 5.882 6.125 8.686 9.373a268 268 0 0 1 4.151 4.962l2.036 2.542 1.985 2.608 7.922 10.476 7.697 10.729c5.131 7.168 10.156 14.435 15.267 21.602l7.633 10.768 7.604 10.857c5.089 7.211 10.012 14.6 15.072 21.828s10.076 14.512 15.39 21.404c2.642 3.463 5.356 6.831 8.095 10.172s5.514 6.617 8.376 9.771c5.696 6.318 11.654 12.312 18.21 16.943 3.253 2.339 6.704 4.177 10.284 5.475a32.5 32.5 0 0 0 11.026 1.764c7.447-.071 14.809-2.409 21.824-5.717 7.026-3.391 13.801-7.604 20.241-12.588a196 196 0 0 0 4.818-3.782c1.59-1.296 3.151-2.658 4.728-3.981l4.716-4.008c1.565-1.346 3.104-2.757 4.665-4.125l4.665-4.146 4.576-4.278c1.518-1.44 3.062-2.829 4.559-4.306l4.499-4.411 9.003-8.822c1.489-1.494 3.037-2.895 4.563-4.323 1.527-1.428 3.05-2.872 4.602-4.256a69.4 69.4 0 0 1 9.754-7.4 18.5 18.5 0 0 1 5.369-2.266 7.6 7.6 0 0 1 2.82-.093c.938.146 1.839.562 2.637 1.218-.805-.635-1.709-1.03-2.646-1.158a7.5 7.5 0 0 0-2.799.16 18.5 18.5 0 0 0-5.301 2.365 70 70 0 0 0-9.643 7.537c-1.536 1.406-3.033 2.884-4.551 4.323s-3.036 2.873-4.508 4.411l-8.906 8.982-4.474 4.477c-1.488 1.488-3.028 2.9-4.542 4.356l-4.558 4.339-4.631 4.196c-1.548 1.389-3.079 2.811-4.64 4.179l-4.703 4.063c-1.573 1.346-3.13 2.724-4.72 4.042a220 220 0 0 1-4.818 3.859c-3.24 2.504-6.547 4.886-9.936 7.052a99 99 0 0 1-10.424 5.79c-7.086 3.369-14.559 5.773-22.192 5.877a33.3 33.3 0 0 1-11.323-1.775c-3.673-1.32-7.216-3.192-10.555-5.58-6.688-4.698-12.723-10.729-18.461-17.092a294 294 0 0 1-8.397-9.847c-2.743-3.353-5.462-6.755-8.108-10.245-5.326-6.941-10.305-14.286-15.386-21.503s-9.97-14.661-15.033-21.883l-7.562-10.868-7.595-10.856c-5.089-7.223-10.055-14.55-15.14-21.751l-7.633-10.801-7.837-10.531-1.955-2.636-2.011-2.57a267 267 0 0 0-4.092-5.039c-2.761-3.308-5.602-6.506-8.566-9.505a74.6 74.6 0 0 0-9.33-8.16c-3.321-2.355-6.832-4.312-10.568-5.001"/><path fill="url('#paint23_linear_5306_22482')" d="M121.039 7.829c3.533.485 6.947 1.94 10.203 3.754a70.6 70.6 0 0 1 9.402 6.468c3.02 2.437 5.938 5.089 8.766 7.857a213 213 0 0 1 8.333 8.607l8.058 9.031c1.357 1.483 2.642 3.076 3.948 4.637l3.906 4.692 3.906 4.698 3.842 4.774 7.68 9.555 7.659 9.588c2.545 3.187 5.089 6.435 7.634 9.65l15.169 19.369c10.144 12.846 20.615 25.235 31.594 36.847 2.748 2.889 5.551 5.679 8.448 8.271a124 124 0 0 0 8.948 7.316 57.2 57.2 0 0 0 9.516 5.812c3.295 1.537 6.726 2.522 10.212 2.933 3.498.397 7.017.386 10.513-.033a49.7 49.7 0 0 0 10.378-2.305c3.392-1.103 6.785-2.509 10.11-4.019a117 117 0 0 0 9.847-5.056c6.48-3.661 12.638-8.221 18.838-12.682a485 485 0 0 0 18.206-14.219c5.996-4.891 11.98-9.875 18.159-14.402a114 114 0 0 1 4.665-3.28 40.5 40.5 0 0 1 4.872-2.801 16.5 16.5 0 0 1 5.183-1.539 7.3 7.3 0 0 1 2.654.193c.873.235 1.696.71 2.413 1.395-.724-.666-1.549-1.121-2.421-1.334a7.2 7.2 0 0 0-2.638-.127 16.4 16.4 0 0 0-5.127 1.654 41 41 0 0 0-4.813 2.878 123 123 0 0 0-4.64 3.358c-6.124 4.632-12.031 9.687-17.989 14.699s-12.01 9.798-18.143 14.446c-6.179 4.51-12.328 9.158-18.837 12.919-6.484 3.828-13.204 6.94-20.089 9.301a51 51 0 0 1-10.551 2.382 46.5 46.5 0 0 1-10.717.066c-3.583-.41-7.111-1.411-10.5-2.977a58 58 0 0 1-9.716-5.894c-3.108-2.278-6.111-4.748-9.058-7.361-2.948-2.614-5.772-5.425-8.537-8.326-10.992-11.688-21.471-24.16-31.607-37.068a7559 7559 0 0 0-30.309-38.766l-7.634-9.638-3.816-4.813-3.868-4.725-3.872-4.731c-1.272-1.571-2.544-3.17-3.91-4.665l-7.981-9.113a216 216 0 0 0-8.223-8.728c-2.803-2.801-5.674-5.514-8.656-7.979a71 71 0 0 0-9.304-6.616c-3.202-1.853-6.582-3.385-10.106-3.953"/><path fill="url('#paint24_linear_5306_22482')" d="M130.43 6.26a35.7 35.7 0 0 1 9.796 2.702 64 64 0 0 1 9.283 4.962c5.986 3.898 11.745 8.36 17.231 13.349a246 246 0 0 1 8.138 7.642c2.671 2.613 5.271 5.359 7.896 8.055 5.28 5.348 10.339 11.027 15.479 16.601 5.068 5.668 10.144 11.33 15.17 17.06l7.557 8.562 7.595 8.502 1.9 2.123 1.921 2.09 3.851 4.162c2.574 2.757 5.089 5.597 7.756 8.232l7.88 8.028a262 262 0 0 0 8.087 7.647 156 156 0 0 0 16.963 13.641c5.891 3.992 12.065 7.35 18.55 9.109 6.505 1.724 13.177 2.131 19.779 1.207a68 68 0 0 0 9.83-2.068c3.249-.915 6.459-2.051 9.635-3.357a114 114 0 0 0 9.406-4.373c1.557-.777 3.079-1.654 4.606-2.536l4.584-2.608 1.145-.656 1.128-.706 2.252-1.417 4.508-2.839 8.906-5.933c2.968-1.979 5.937-4.014 8.931-5.938l4.491-2.906 4.572-2.69a46 46 0 0 1 4.665-2.471 32 32 0 0 1 4.821-1.83 13.3 13.3 0 0 1 5-.518c1.688.141 3.296.982 4.589 2.398-1.306-1.377-2.917-2.173-4.597-2.271a13.2 13.2 0 0 0-4.949.634 32 32 0 0 0-4.771 1.913 47 47 0 0 0-4.606 2.547l-4.529 2.757-4.453 2.988c-2.968 1.974-5.903 4.069-8.855 6.104l-8.905 6.065-4.5 2.895-2.247 1.45-1.128.716-1.146.673-4.55 2.63c-1.527.893-3.049 1.803-4.605 2.603a118 118 0 0 1-9.445 4.509c-6.377 2.786-12.965 4.675-19.652 5.636a50.7 50.7 0 0 1-20.127-1.158c-6.628-1.77-12.913-5.167-18.871-9.175a157 157 0 0 1-17.142-13.696 255 255 0 0 1-8.112-7.719l-7.884-8.088c-2.655-2.652-5.187-5.514-7.761-8.271l-3.846-4.19-1.921-2.095-1.896-2.134-7.583-8.54-7.544-8.591-15.08-17.175c-5.089-5.618-10.111-11.358-15.344-16.75-2.604-2.718-5.161-5.514-7.824-8.127s-5.335-5.216-8.058-7.72c-5.421-5.064-11.119-9.61-17.048-13.601a65.3 65.3 0 0 0-9.19-5.123 36 36 0 0 0-9.732-2.922"/><path fill="url('#paint25_linear_5306_22482')" d="M140.059 4.834c3.156.292 6.29.895 9.376 1.803a61.6 61.6 0 0 1 9.088 3.54c5.941 2.858 11.71 6.286 17.26 10.256 2.778 1.973 5.513 4.08 8.189 6.24q2.015 1.655 4.012 3.309l3.936 3.44 3.939 3.441c1.307 1.158 2.642 2.266 3.906 3.501l7.689 7.245c.636.612 1.272 1.202 1.917 1.82l1.878 1.88 3.758 3.76 7.497 7.543 7.486 7.548c2.514 2.48 5.059 4.912 7.586 7.366 10.178 9.704 20.462 19.298 31.209 27.816a202 202 0 0 0 16.67 11.546c5.702 3.444 11.61 6.275 17.668 8.463 6.051 2.206 12.251 3.749 18.528 3.997a62.9 62.9 0 0 0 18.757-1.565c3.096-.728 6.17-1.654 9.22-2.663a106 106 0 0 0 9.062-3.457c1.493-.657 2.969-1.307 4.453-2.068l4.398-2.255 2.197-1.103c.733-.38 1.458-.794 2.188-1.185l4.368-2.393c1.45-.811 2.934-1.533 4.402-2.305l2.205-1.136c.734-.38 1.467-.76 2.218-1.102 2.969-1.379 5.937-2.868 8.969-4.025 3.018-1.273 6.159-1.984 9.33-2.112a11.7 11.7 0 0 1 4.703.744c1.523.608 2.902 1.708 4.008 3.198-1.123-1.453-2.511-2.513-4.033-3.082a11.8 11.8 0 0 0-4.665-.612c-3.15.193-6.264.961-9.249 2.283-3.011 1.213-5.937 2.756-8.906 4.19a41 41 0 0 0-2.201 1.141l-2.171 1.175c-1.455.799-2.922 1.543-4.368 2.381l-4.347 2.448c-.725.408-1.446.828-2.18 1.214l-2.197 1.163-4.402 2.321c-1.467.778-2.968 1.456-4.461 2.134-2.998 1.345-6.039 2.509-9.097 3.584a102 102 0 0 1-9.262 2.795 58 58 0 0 1-9.452 1.654c-3.173.251-6.354.29-9.53.116-6.361-.226-12.684-1.77-18.795-3.975-6.127-2.192-12.105-5.034-17.875-8.497-5.734-3.539-11.34-7.366-16.806-11.578-10.819-8.63-21.069-18.261-31.247-28.031-2.544-2.47-5.089-4.913-7.587-7.41l-7.472-7.587-7.472-7.576-3.728-3.799-1.862-1.902c-.627-.623-1.272-1.224-1.9-1.836l-7.633-7.317c-1.251-1.246-2.579-2.36-3.872-3.534l-3.906-3.485-3.906-3.479c-1.314-1.103-2.642-2.244-3.973-3.336a179 179 0 0 0-8.113-6.33c-5.485-4.056-11.194-7.581-17.078-10.547-5.872-3.022-12.039-4.966-18.324-5.773"/><path fill="url('#paint26_linear_5306_22482')" d="M149.916 3.593a72.4 72.4 0 0 1 17.722 3.694 112 112 0 0 1 17.049 7.416c5.547 2.983 10.954 6.357 16.284 9.925 5.331 3.567 10.556 7.404 15.691 11.451a277 277 0 0 1 7.613 6.236c2.514 2.129 4.978 4.356 7.447 6.562 4.978 4.3 9.876 8.755 15.008 12.753 10.123 8.27 20.572 15.89 31.085 23.25 10.584 7.212 21.657 13.139 33.078 17.705a106.4 106.4 0 0 0 17.388 5.276 73.5 73.5 0 0 0 17.79 1.555c2.969-.204 5.937-.491 8.931-.75a96 96 0 0 0 8.876-1.499c2.939-.646 5.861-1.439 8.741-2.437a63 63 0 0 0 4.287-1.655c1.429-.551 2.871-1.135 4.305-1.698 2.854-1.213 5.797-2.007 8.71-2.944.361-.127.73-.21 1.103-.292l1.107-.26 2.213-.512c.743-.16 1.476-.359 2.218-.49a62 62 0 0 1 2.235-.36c1.493-.198 2.969-.369 4.496-.374a18.2 18.2 0 0 1 4.486.518c1.478.357 2.907.994 4.241 1.891 1.337.901 2.514 2.156 3.457 3.683-.964-1.493-2.155-2.71-3.499-3.572a12.9 12.9 0 0 0-4.241-1.76 17.8 17.8 0 0 0-4.453-.413c-1.488.033-2.968.237-4.457.463a61 61 0 0 0-2.218.403c-.738.149-1.467.358-2.201.551l-2.201.551-1.098.282c-.365.088-.734.176-1.094.308-2.888.998-5.802 1.848-8.631 3.11l-4.274 1.759a62 62 0 0 1-4.309 1.715 78 78 0 0 1-8.795 2.569c-2.96.684-5.938 1.213-8.906 1.621l-4.487.452c-1.501.138-2.969.325-4.495.419a70.6 70.6 0 0 1-17.998-1.417 106.5 106.5 0 0 1-17.566-5.249c-11.501-4.541-22.654-10.459-33.316-17.676-10.551-7.444-20.971-15.119-31.115-23.444-5.131-4.03-10.038-8.524-15.025-12.858-4.898-4.455-9.856-8.789-14.936-12.885-10.142-8.238-20.736-15.495-31.696-21.713a112 112 0 0 0-16.9-7.719 85 85 0 0 0-8.74-2.591 66.5 66.5 0 0 0-8.91-1.55"/><path fill="url('#paint27_linear_5306_22482')" d="M159.955 2.537c5.711.35 11.399 1.184 17.027 2.497a126 126 0 0 1 16.713 5.029c5.513 2.018 10.874 4.631 16.276 7.063 2.702 1.23 5.357 2.63 7.999 4.069 1.318.728 2.629 1.472 3.931 2.25l3.867 2.414 3.872 2.42c1.273.811 2.587 1.583 3.851 2.46a149 149 0 0 1 7.515 5.43c4.877 3.888 9.821 7.505 14.927 10.852l7.634 5.083c2.544 1.654 5.089 3.27 7.697 4.82 2.608 1.548 5.208 3.032 7.82 4.531 2.612 1.5 5.216 3.033 7.85 4.45l7.867 4.35 7.985 3.964 1.998.993 2.022.898 4.046 1.803c1.353.59 2.689 1.23 4.054 1.776l4.084 1.654 4.084 1.654 4.131 1.422 4.13 1.429 4.169 1.224 4.169 1.213c1.395.374 2.79.71 4.194 1.03q4.199.96 8.448 1.555c2.824.403 5.674.618 8.52.91 2.834.325 5.679.463 8.524.414.708 0 1.416-.061 2.12-.116l2.12-.16c1.421-.121 2.846-.193 4.262-.347a36 36 0 0 0 4.216-.745c1.395-.325 2.778-.794 4.198-1.102 1.421-.31 2.837-.596 4.267-.761l4.283-.408a30.3 30.3 0 0 1 8.587.364c1.417.259 2.833.55 4.241.942 1.403.407 2.773.983 4.093 1.72a17 17 0 0 1 3.681 2.868c1.137 1.136 2.115 2.518 2.892 4.085-.807-1.54-1.811-2.888-2.969-3.986a16.4 16.4 0 0 0-3.698-2.757 19 19 0 0 0-4.071-1.615c-1.391-.38-2.807-.618-4.241-.844a29.8 29.8 0 0 0-8.511-.176l-4.241.496c-1.416.198-2.82.496-4.215.843-.696.177-1.391.37-2.082.552-.692.182-1.404.413-2.121.584a44 44 0 0 1-4.266.81c-1.429.205-2.854.266-4.283.403l-2.146.193c-.713.067-1.429.127-2.15.15a66 66 0 0 1-8.592-.31c-2.854-.253-5.713-.43-8.567-.8a98.4 98.4 0 0 1-16.963-3.666l-4.19-1.213-4.156-1.411-4.156-1.417-4.105-1.627-4.109-1.626c-1.37-.552-2.715-1.18-4.072-1.765l-4.062-1.791-2.036-.894-2.006-.981-8.057-3.948-7.91-4.345c-2.646-1.428-5.233-2.988-7.849-4.487s-5.225-3-7.82-4.577-5.178-3.176-7.727-4.874l-7.634-5.128c-5.089-3.363-10.097-7.051-14.949-10.955a169 169 0 0 0-7.447-5.437c-1.251-.887-2.544-1.654-3.816-2.497l-3.817-2.46-3.817-2.453a93 93 0 0 0-3.838-2.277c-2.612-1.467-5.246-2.889-7.926-4.152-5.369-2.503-10.699-5.171-16.17-7.267a127 127 0 0 0-16.599-5.37 125 125 0 0 0-8.447-1.797 94 94 0 0 0-8.533-1.125"/><path fill="url('#paint28_linear_5306_22482')" d="M170.23 1.652c11.019.517 22 1.96 32.875 4.323 10.881 2.461 21.584 6.094 32.002 10.862a138 138 0 0 1 15.301 8.27c2.502 1.544 4.927 3.253 7.387 4.824 2.46 1.572 4.936 3.138 7.451 4.577l7.566 4.245 1.891 1.064c.636.342 1.272.651 1.921.976l3.847 1.935 3.842 1.93.963.485.971.442 1.946.887c2.596 1.175 5.183 2.388 7.786 3.535 10.429 4.554 20.984 8.595 31.569 12.554s21.145 8.05 31.806 11.457l4.008 1.246c1.34.38 2.693.695 4.037 1.042 1.345.348 2.693.712 4.046 1.004s2.71.551 4.071.76c2.72.449 5.456.71 8.198.784 1.365.027 2.735 0 4.101-.1a48 48 0 0 0 2.048-.198c.678-.088 1.374-.182 2.065-.237 5.513-.485 11.162.26 16.349 2.84 2.599 1.267 5.032 3.053 7.209 5.293 2.181 2.229 3.96 5.052 5.212 8.27-1.305-3.16-3.124-5.91-5.331-8.06-2.186-2.168-4.618-3.88-7.209-5.074-5.161-2.437-10.742-3.048-16.183-2.448-1.357.15-2.731.403-4.118.502-1.387.1-2.769.166-4.152.16a61 61 0 0 1-8.282-.673 83 83 0 0 1-4.11-.71c-1.365-.282-2.718-.64-4.075-.955s-2.723-.628-4.071-.998l-4.037-1.196-2.019-.596-1.009-.297-1.001-.337-4.008-1.34c-2.676-.876-5.322-1.868-7.977-2.822l-15.899-5.85c-10.602-3.915-21.204-7.912-31.653-12.439-2.608-1.163-5.204-2.387-7.803-3.578l-1.951-.9-.975-.451-.963-.485-3.855-1.958-3.855-1.963c-.64-.33-1.272-.64-1.921-.986l-1.904-1.103-7.591-4.3c-2.519-1.456-5-3.034-7.473-4.632-2.472-1.6-4.889-3.309-7.362-4.852a151 151 0 0 0-15.152-8.353c-10.337-4.885-20.967-8.651-31.781-11.26l-2.027-.496-2.036-.418-4.075-.839-4.08-.838c-1.361-.248-2.731-.413-4.096-.623l-4.101-.6-2.053-.304c-.683-.11-1.374-.138-2.057-.215z"/><path fill="url('#paint29_linear_5306_22482')" d="M180.672.965c5.343.077 10.678.05 16.022.28 1.336.062 2.671.139 4.003.243l3.999.37 7.994.766c2.663.32 5.322.734 7.969 1.263 1.323.26 2.642.551 3.952.904l3.936.982c5.267 1.196 10.462 2.861 15.691 4.383a130 130 0 0 1 15.394 5.96c2.519 1.169 5.025 2.476 7.476 3.832 2.452 1.356 4.937 2.586 7.435 3.793 1.242.618 2.51 1.158 3.765 1.726l3.783 1.687 3.779 1.688 3.817 1.56c2.544 1.03 5.089 2.095 7.633 3.099l7.663 3.032c5.089 2.079 10.259 3.639 15.454 5.293l3.893 1.235 3.889 1.202 7.79 2.387c2.604.805 5.208 1.654 7.769 2.73a267 267 0 0 1 7.6 3.352l15.131 6.804a73 73 0 0 0 3.817 1.533c1.272.468 2.574.882 3.863 1.328l3.872 1.313 3.88 1.235c2.587.849 5.187 1.593 7.808 2.139 1.314.27 2.629.496 3.948.65.662.083 1.323.138 1.985.183.661.044 1.344.077 2.01.165 5.381.656 10.547 3.143 15.148 6.682.577.447 1.158.877 1.696 1.384a17 17 0 0 1 1.574 1.654 30.6 30.6 0 0 1 2.71 3.86c1.659 2.74 2.928 5.846 3.744 9.17-.874-3.283-2.193-6.336-3.893-9.016a30.4 30.4 0 0 0-2.739-3.755 16.4 16.4 0 0 0-1.569-1.582c-.543-.474-1.128-.893-1.697-1.323-4.622-3.413-9.754-5.734-15.034-6.258a30 30 0 0 0-1.984-.127 28 28 0 0 1-2.015-.154 45 45 0 0 1-3.999-.607c-2.654-.513-5.284-1.218-7.879-2.04l-3.91-1.18-3.885-1.262c-1.297-.425-2.587-.828-3.893-1.28a69 69 0 0 1-3.859-1.488c-5.089-2.172-10.119-4.411-15.182-6.666-2.545-1.103-5.038-2.288-7.578-3.309-2.541-1.02-5.089-1.88-7.698-2.668l-7.807-2.349-3.906-1.185-3.893-1.219c-5.178-1.626-10.407-3.17-15.53-5.249l-7.68-3.07c-2.544-1.015-5.089-2.096-7.633-3.144l-3.817-1.576-3.791-1.715-3.787-1.71c-1.273-.55-2.545-1.102-3.783-1.753a190 190 0 0 1-7.464-3.86 131 131 0 0 0-7.413-3.859c-2.506-1.196-5.03-2.25-7.574-3.264-2.545-1.014-5.089-1.968-7.689-2.817-5.186-1.583-10.347-3.308-15.593-4.587l-3.923-1.032a72 72 0 0 0-3.927-.96 121 121 0 0 0-7.918-1.377l-7.968-.949-3.987-.457a111 111 0 0 0-3.99-.337c-2.668-.182-5.331-.286-8.003-.386z"/><path fill="url('#paint30_linear_5306_22482')" d="M191.285.461c5.178 0 10.352 0 15.534.039l3.881.033h1.942l1.942.093 7.769.364c1.298.04 2.592.177 3.885.304q1.938.19 3.876.457c2.583.337 5.153.827 7.714 1.268l7.697 1.34 7.693 1.456a129 129 0 0 1 15.301 3.727c2.545.788 5.042 1.654 7.523 2.702a155 155 0 0 0 7.413 2.916c2.49.904 5 1.699 7.507 2.51s5.008 1.653 7.535 2.38l7.566 2.295 7.549 2.453 7.523 2.432c1.251.397 2.502.821 3.762 1.196l3.791 1.059 7.591 2.128c2.545.728 5.089 1.378 7.595 2.178a102.4 102.4 0 0 1 14.911 5.883c2.426 1.18 4.873 2.332 7.282 3.54l3.621 1.808 1.811.91 1.828.822 7.332 3.308 3.681 1.654 3.639 1.77c2.426 1.207 4.86 2.299 7.29 3.429a48 48 0 0 0 3.689 1.483q.936.324 1.871.59c.623.177 1.272.375 1.908.617 2.504.99 4.894 2.41 7.108 4.224a48 48 0 0 1 3.227 2.85c1.047 1.004 2.044 2.08 3.066 3.11 2.094 2.041 3.816 4.656 5.047 7.659a43 43 0 0 1 2.726 9.44 42.4 42.4 0 0 0-2.892-9.32c-1.258-2.93-2.995-5.468-5.089-7.431-1.035-1.01-2.048-2.051-3.1-3.027a48 48 0 0 0-3.231-2.757c-2.198-1.73-4.564-3.067-7.036-3.975a16 16 0 0 0-1.866-.552c-.632-.143-1.272-.364-1.908-.551a40 40 0 0 1-3.741-1.44c-2.451-1.102-4.919-2.172-7.345-3.335l-3.647-1.715-3.677-1.577-7.374-3.198c-9.809-4.41-19.3-9.836-29.398-12.68-2.51-.784-5.051-1.423-7.578-2.14l-7.6-2.09-3.817-1.042c-1.272-.364-2.544-.788-3.787-1.18-2.519-.805-5.059-1.588-7.557-2.41l-7.51-2.48-7.553-2.393c-2.519-.75-5.03-1.61-7.549-2.42-2.519-.811-5.034-1.616-7.527-2.559s-4.987-1.913-7.443-2.966-4.932-1.914-7.438-2.708a132 132 0 0 0-7.562-2.133 144 144 0 0 0-7.633-1.731L245.39 5.51l-7.672-1.46c-2.545-.475-5.119-.999-7.684-1.374s-5.136-.71-7.719-.876l-7.743-.552-1.939-.132-1.942-.06-3.88-.127z"/><path fill="url('#paint31_linear_5306_22482')" d="M202.053.157c5.008 0 10.017-.099 15.029 0 2.507.033 5.013 0 7.515.089l7.519.286c2.506.05 5.004.331 7.51.552 2.507.22 5.009.43 7.502.694l7.486.772c2.493.26 4.995.486 7.497.794 2.502.31 4.996.712 7.481 1.103l7.46 1.219c2.485.446 4.974.948 7.447 1.582 1.238.309 2.468.684 3.681 1.015a132 132 0 0 0 3.672.942l14.801 3.419 7.387 1.714c2.464.552 4.941 1.103 7.405 1.787 4.923 1.406 9.754 2.894 14.669 4.273 2.447.706 4.898 1.378 7.341 2.128l3.664 1.103c1.221.364 2.442.728 3.655 1.158l3.647 1.246c1.209.43 2.439.788 3.63 1.312l3.597 1.467 1.798.738.895.37.89.408c2.362 1.103 4.741 2.145 7.087 3.308l7.031 3.457 3.511 1.72c1.162.58 2.358 1.136 3.52 1.776 2.328 1.268 4.576 2.707 6.841 4.08 2.264 1.373 4.52 2.834 6.785 4.267 1.128.717 2.231 1.483 3.354 2.178q.846.53 1.697 1.01c.568.319 1.162.66 1.722 1.047 2.268 1.516 4.211 3.611 6.251 5.513a29 29 0 0 1 2.845 3.242c.891 1.158 1.697 2.377 2.583 3.562.424.596.848 1.18 1.272 1.809.424.628.789 1.279 1.149 1.957a33.4 33.4 0 0 1 1.866 4.256 36 36 0 0 1 1.993 9.374 35.5 35.5 0 0 0-2.167-9.285 32.4 32.4 0 0 0-1.908-4.169 23 23 0 0 0-1.162-1.896c-.424-.607-.848-1.175-1.272-1.765-.874-1.157-1.726-2.36-2.621-3.484a29 29 0 0 0-2.85-3.12c-2.052-1.837-4.024-3.86-6.247-5.294a21 21 0 0 0-1.696-.992 38 38 0 0 1-1.734-.993c-1.141-.69-2.257-1.439-3.393-2.14-2.256-1.389-4.495-2.811-6.785-4.146s-4.551-2.756-6.854-3.958c-1.153-.618-2.319-1.142-3.502-1.704l-3.533-1.654-7.061-3.358c-2.354-1.102-4.72-2.156-7.078-3.242l-.882-.402-.895-.358-1.79-.723-3.575-1.44c-1.187-.517-2.408-.865-3.613-1.29l-3.626-1.218c-1.204-.424-2.425-.777-3.643-1.136l-3.659-1.102c-2.435-.733-4.89-1.395-7.337-2.09-4.89-1.35-9.805-2.828-14.669-4.201-2.438-.668-4.898-1.23-7.366-1.814l-7.401-1.754-14.783-3.49c-1.23-.303-2.464-.623-3.694-.97s-2.443-.717-3.664-1.026c-2.443-.64-4.907-1.146-7.379-1.604l-7.447-1.268c-2.485-.43-4.953-.882-7.438-1.208s-4.975-.612-7.473-.904l-7.489-.888c-2.498-.303-4.987-.55-7.481-.805-2.493-.253-4.983-.551-7.485-.672l-7.502-.469c-2.502-.127-5.004-.182-7.506-.275a427 427 0 0 0-7.511-.221z"/><path fill="url('#paint32_linear_5306_22482')" d="M212.963.055 220.172 0h3.613l3.609.05 7.21.116 7.209.242 3.609.143 3.609.21 7.21.435c4.809.386 9.618.706 14.418 1.214 9.61.882 19.194 2.205 28.753 3.754l3.588.59c1.192.193 2.387.397 3.579.629l7.154 1.345c4.754.993 9.517 1.957 14.254 3.12 9.474 2.3 18.897 4.963 28.227 8.155l6.972 2.493 6.925 2.718c2.286.998 4.58 1.968 6.862 2.977l3.392 1.654 1.697.816q.851.403 1.696.85l3.35 1.78 1.696.888c.556.309 1.099.645 1.65.965l3.3 1.94c.551.315 1.094.662 1.628 1.02l1.62 1.065a93.4 93.4 0 0 1 12.455 9.577l2.914 2.806a62 62 0 0 1 2.761 3.06 50 50 0 0 1 4.927 6.904c1.49 2.484 2.707 5.224 3.618 8.143A30.9 30.9 0 0 1 425 78.85a30.7 30.7 0 0 0-1.501-9.097c-.946-2.865-2.192-5.546-3.703-7.967a48.7 48.7 0 0 0-4.987-6.71 61 61 0 0 0-2.778-2.956l-2.93-2.707a93 93 0 0 0-12.459-9.312l-1.616-1.026a26 26 0 0 0-1.629-.992l-3.299-1.875c-.547-.314-1.094-.634-1.65-.932l-1.696-.86-3.346-1.72a223 223 0 0 0-27.476-11.22c-9.305-3.127-18.711-5.735-28.164-7.99-4.72-1.18-9.469-2.167-14.211-3.187l-7.133-1.372a88 88 0 0 0-3.571-.646l-3.575-.611-3.575-.612-3.583-.552c-2.388-.347-4.775-.728-7.167-1.048-4.788-.606-9.567-1.273-14.36-1.78s-9.592-.976-14.389-1.44l-7.209-.55-3.605-.265-3.6-.205-7.21-.435-7.209-.298-3.609-.143-3.609-.083z"/><defs><linearGradient id="paint0_linear_5306_22482" x1="-22.357" x2="295.391" y1="82.615" y2="121.987" gradientUnits="userSpaceOnUse"><stop offset=".399" stop-color="#382647"/><stop offset="1" stop-color="#4344A2"/></linearGradient><linearGradient id="paint1_linear_5306_22482" x1="-23.245" x2="310.411" y1="78.748" y2="120.113" gradientUnits="userSpaceOnUse"><stop offset=".399" stop-color="#382647"/><stop offset="1" stop-color="#4344A2"/></linearGradient><linearGradient id="paint2_linear_5306_22482" x1="-23.525" x2="325.142" y1="74.925" y2="118.175" gradientUnits="userSpaceOnUse"><stop offset=".399" stop-color="#382647"/><stop offset="1" stop-color="#4344A2"/></linearGradient><linearGradient id="paint3_linear_5306_22482" x1="-23.188" x2="339.411" y1="71.195" y2="115.694" gradientUnits="userSpaceOnUse"><stop offset=".399" stop-color="#382647"/><stop offset="1" stop-color="#4344A2"/></linearGradient><linearGradient id="paint4_linear_5306_22482" x1="-22.262" x2="353.901" y1="67.809" y2="110.797" gradientUnits="userSpaceOnUse"><stop offset=".399" stop-color="#382647"/><stop offset="1" stop-color="#4344A2"/></linearGradient><linearGradient id="paint5_linear_5306_22482" x1="-20.769" x2="368.061" y1="64.579" y2="105.525" gradientUnits="userSpaceOnUse"><stop offset=".399" stop-color="#382647"/><stop offset="1" stop-color="#4344A2"/></linearGradient><linearGradient id="paint6_linear_5306_22482" x1="-18.697" x2="381.716" y1="61.573" y2="99.755" gradientUnits="userSpaceOnUse"><stop offset=".399" stop-color="#382647"/><stop offset="1" stop-color="#4344A2"/></linearGradient><linearGradient id="paint7_linear_5306_22482" x1="-16.087" x2="394.834" y1="58.713" y2="94.274" gradientUnits="userSpaceOnUse"><stop offset=".399" stop-color="#382647"/><stop offset="1" stop-color="#4344A2"/></linearGradient><linearGradient id="paint8_linear_5306_22482" x1="-12.929" x2="407.317" y1="55.953" y2="89.207" gradientUnits="userSpaceOnUse"><stop offset=".399" stop-color="#382647"/><stop offset="1" stop-color="#4344A2"/></linearGradient><linearGradient id="paint9_linear_5306_22482" x1="-9.244" x2="419.167" y1="53.292" y2="84.499" gradientUnits="userSpaceOnUse"><stop offset=".399" stop-color="#382647"/><stop offset="1" stop-color="#4344A2"/></linearGradient><linearGradient id="paint10_linear_5306_22482" x1="-5.051" x2="430.471" y1="50.718" y2="80.152" gradientUnits="userSpaceOnUse"><stop offset=".399" stop-color="#382647"/><stop offset="1" stop-color="#4344A2"/></linearGradient><linearGradient id="paint11_linear_5306_22482" x1="-.364" x2="441.12" y1="48.179" y2="76.139" gradientUnits="userSpaceOnUse"><stop offset=".399" stop-color="#382647"/><stop offset="1" stop-color="#4344A2"/></linearGradient><linearGradient id="paint12_linear_5306_22482" x1="4.816" x2="451.136" y1="45.662" y2="72.446" gradientUnits="userSpaceOnUse"><stop offset=".399" stop-color="#382647"/><stop offset="1" stop-color="#4344A2"/></linearGradient><linearGradient id="paint13_linear_5306_22482" x1="10.457" x2="460.63" y1="43.137" y2="69.031" gradientUnits="userSpaceOnUse"><stop offset=".399" stop-color="#382647"/><stop offset="1" stop-color="#4344A2"/></linearGradient><linearGradient id="paint14_linear_5306_22482" x1="16.573" x2="469.337" y1="40.61" y2="65.807" gradientUnits="userSpaceOnUse"><stop offset=".399" stop-color="#382647"/><stop offset="1" stop-color="#4344A2"/></linearGradient><linearGradient id="paint15_linear_5306_22482" x1="23.12" x2="477.53" y1="38.049" y2="62.822" gradientUnits="userSpaceOnUse"><stop offset=".399" stop-color="#382647"/><stop offset="1" stop-color="#4344A2"/></linearGradient><linearGradient id="paint16_linear_5306_22482" x1="30.105" x2="485.069" y1="35.409" y2="60.025" gradientUnits="userSpaceOnUse"><stop offset=".399" stop-color="#382647"/><stop offset="1" stop-color="#4344A2"/></linearGradient><linearGradient id="paint17_linear_5306_22482" x1="37.508" x2="491.907" y1="32.677" y2="57.484" gradientUnits="userSpaceOnUse"><stop offset=".399" stop-color="#382647"/><stop offset="1" stop-color="#4344A2"/></linearGradient><linearGradient id="paint18_linear_5306_22482" x1="45.334" x2="498.069" y1="29.865" y2="55.208" gradientUnits="userSpaceOnUse"><stop offset=".399" stop-color="#382647"/><stop offset="1" stop-color="#4344A2"/></linearGradient><linearGradient id="paint19_linear_5306_22482" x1="53.511" x2="503.595" y1="27.001" y2="53.225" gradientUnits="userSpaceOnUse"><stop offset=".399" stop-color="#382647"/><stop offset="1" stop-color="#4344A2"/></linearGradient><linearGradient id="paint20_linear_5306_22482" x1="62.086" x2="508.379" y1="24.133" y2="51.557" gradientUnits="userSpaceOnUse"><stop offset=".399" stop-color="#382647"/><stop offset="1" stop-color="#4344A2"/></linearGradient><linearGradient id="paint21_linear_5306_22482" x1="71.029" x2="512.372" y1="21.286" y2="50.283" gradientUnits="userSpaceOnUse"><stop offset=".399" stop-color="#382647"/><stop offset="1" stop-color="#4344A2"/></linearGradient><linearGradient id="paint22_linear_5306_22482" x1="80.321" x2="515.629" y1="18.503" y2="49.566" gradientUnits="userSpaceOnUse"><stop offset=".399" stop-color="#382647"/><stop offset="1" stop-color="#4344A2"/></linearGradient><linearGradient id="paint23_linear_5306_22482" x1="89.96" x2="518.01" y1="15.8" y2="49.503" gradientUnits="userSpaceOnUse"><stop offset=".399" stop-color="#382647"/><stop offset="1" stop-color="#4344A2"/></linearGradient><linearGradient id="paint24_linear_5306_22482" x1="99.917" x2="519.523" y1="13.267" y2="50.167" gradientUnits="userSpaceOnUse"><stop offset=".399" stop-color="#382647"/><stop offset="1" stop-color="#4344A2"/></linearGradient><linearGradient id="paint25_linear_5306_22482" x1="110.186" x2="520.114" y1="10.903" y2="51.652" gradientUnits="userSpaceOnUse"><stop offset=".399" stop-color="#382647"/><stop offset="1" stop-color="#4344A2"/></linearGradient><linearGradient id="paint26_linear_5306_22482" x1="120.758" x2="519.635" y1="8.752" y2="54.281" gradientUnits="userSpaceOnUse"><stop offset=".399" stop-color="#382647"/><stop offset="1" stop-color="#4344A2"/></linearGradient><linearGradient id="paint27_linear_5306_22482" x1="131.587" x2="518.758" y1="7.157" y2="55.165" gradientUnits="userSpaceOnUse"><stop offset=".399" stop-color="#382647"/><stop offset="1" stop-color="#4344A2"/></linearGradient><linearGradient id="paint28_linear_5306_22482" x1="142.73" x2="518.068" y1="6.131" y2="52.669" gradientUnits="userSpaceOnUse"><stop offset=".399" stop-color="#382647"/><stop offset="1" stop-color="#4344A2"/></linearGradient><linearGradient id="paint29_linear_5306_22482" x1="154.113" x2="516.599" y1="5.289" y2="50.242" gradientUnits="userSpaceOnUse"><stop offset=".399" stop-color="#382647"/><stop offset="1" stop-color="#4344A2"/></linearGradient><linearGradient id="paint30_linear_5306_22482" x1="165.743" x2="514.344" y1="4.62" y2="47.85" gradientUnits="userSpaceOnUse"><stop offset=".399" stop-color="#382647"/><stop offset="1" stop-color="#4344A2"/></linearGradient><linearGradient id="paint31_linear_5306_22482" x1="177.602" x2="511.311" y1="4.097" y2="45.461" gradientUnits="userSpaceOnUse"><stop offset=".399" stop-color="#382647"/><stop offset="1" stop-color="#4344A2"/></linearGradient><linearGradient id="paint32_linear_5306_22482" x1="189.682" x2="507.438" y1="3.795" y2="43.163" gradientUnits="userSpaceOnUse"><stop offset=".399" stop-color="#382647"/><stop offset="1" stop-color="#4344A2"/></linearGradient></defs></svg>