<svg width="425" height="425" fill="none" xmlns="http://www.w3.org/2000/svg"><path d="M279.194 411.331a319.786 319.786 0 0 1-51.243 12.963 211.794 211.794 0 0 0 31.389-4.678c7.038-1.95 13.889-4.069 20.522-6.258a225.169 225.169 0 0 1 8.986-2.753 209.55 209.55 0 0 0 12.71-5.404 228.26 228.26 0 0 0-22.368 6.13" fill="url('#paint0_linear_5306_22396')"/><path d="M320.275 395.346c1.53-.906 3.049-1.832 4.557-2.778a205.375 205.375 0 0 0-46.502 11.238c-36.94 13.763-77.764 24.26-125.893 8.007a155.857 155.857 0 0 1-23.806-11.208 116.945 116.945 0 0 0-32.588-13.597 53.179 53.179 0 0 0-6.014-.824c1.245.878 2.5 1.743 3.767 2.598.61.097 1.219.204 1.838.321a115.347 115.347 0 0 1 31.979 13.378 157.334 157.334 0 0 0 24.137 11.355c48.763 16.457 90.011 5.848 127.326-8.032a201.018 201.018 0 0 1 41.199-10.463" fill="url('#paint1_linear_5306_22396')"/><path d="M96.94 380.375a123.63 123.63 0 0 1 32.764 14.172 168.174 168.174 0 0 0 24.664 11.92c46.672 16.57 83.174 8.675 123.622-8.236a192.42 192.42 0 0 1 58.539-13.552 220.46 220.46 0 0 0 3.255-2.403 197.354 197.354 0 0 0-62.617 13.982c-41.136 17.198-75.907 24.566-122.082 8.197a166.692 166.692 0 0 1-24.367-11.775 125.209 125.209 0 0 0-33.343-14.391 53.172 53.172 0 0 0-18.816-.769 86.518 86.518 0 0 0 2.368 1.895 51.228 51.228 0 0 1 15.994.975" fill="url('#paint2_linear_5306_22396')"/><path d="M98.042 371.419c11.9 3.402 23.251 8.49 33.709 15.108a179.375 179.375 0 0 0 24.898 12.461c47.637 17.89 78.948 10.867 120.104-8.344a188.861 188.861 0 0 1 72.252-15.711 225.23 225.23 0 0 0 2.622-2.252 193.751 193.751 0 0 0-75.776 16.024c-40.609 18.967-71.511 25.907-118.422 8.285a177.695 177.695 0 0 1-24.596-12.32 131.202 131.202 0 0 0-34.274-15.322 53.372 53.372 0 0 0-28.475.887c.65.572 1.287 1.14 1.91 1.706a51.27 51.27 0 0 1 26.078-.488" fill="url('#paint3_linear_5306_22396')"/><path d="M98.916 362.711a138.258 138.258 0 0 1 34.396 15.935 191.565 191.565 0 0 0 25.224 12.998c47.866 18.884 76.906 11.944 116.863-8.534 24.581-12.592 53.899-16.647 83.763-17.329.754-.721 1.501-1.449 2.242-2.183-30.912.531-61.404 4.512-86.98 17.612-40.234 20.619-67.739 27.134-115.098 8.445a190.26 190.26 0 0 1-24.942-12.86 139.873 139.873 0 0 0-34.942-16.161 54.135 54.135 0 0 0-36.35 3.022 207.28 207.28 0 0 0 1.676 1.638 52.032 52.032 0 0 1 34.148-2.583Z" fill="url('#paint4_linear_5306_22396')"/><path d="M272.764 373.402c-39.43 21.93-64.937 28.494-111.862 9.298a200.296 200.296 0 0 1-25.478-13.45 148.723 148.723 0 0 0-35.41-16.906 55.869 55.869 0 0 0-42.983 5.064c.49.526.978 1.051 1.462 1.574a53.257 53.257 0 0 1 40.936-4.576 147.151 147.151 0 0 1 34.889 16.681 201.842 201.842 0 0 0 25.755 13.592c47.759 19.532 73.671 12.88 113.715-9.411 23.879-13.284 47.393-15.17 69.274-15.17h1.097c6.983 0 14.015-.137 20.989-.327.702-.731 1.399-1.465 2.091-2.203-7.88.22-15.843.385-23.733.395-22.305-.039-46.297 1.828-70.761 15.444" fill="url('#paint5_linear_5306_22396')"/><path d="M97.813 348.065a187.255 187.255 0 0 1 36.848 16.302 261.606 261.606 0 0 0 26.637 12.88l1.794.702c15.297 6.013 32.217 12.67 49.089 12.67a56.985 56.985 0 0 0 13.051-1.462 111.503 111.503 0 0 0 34.284-16.935c3.898-2.509 7.899-5.107 11.92-7.441 23.358-13.577 45.322-15.22 71.107-13.514 10.061.591 20.146.661 30.214.21.65-.735 1.28-1.474 1.891-2.218a299.558 299.558 0 0 1-31.954-.126c-26.17-1.73-48.495-.054-72.326 13.796-4.059 2.359-8.099 4.971-12.007 7.495a109.966 109.966 0 0 1-33.626 16.648c-20.415 4.795-41.911-3.656-60.869-11.117l-1.788-.701a259.852 259.852 0 0 1-26.418-12.778 188.789 188.789 0 0 0-37.281-16.472 61.078 61.078 0 0 0-46.926 5.195c.484.565.972 1.126 1.462 1.681a59.12 59.12 0 0 1 44.889-4.815" fill="url('#paint6_linear_5306_22396')"/><path d="M94.548 342.769a237.636 237.636 0 0 1 37.963 15.375c9.006 4.264 18.319 8.675 27.778 12.12l.702.253c14.683 5.361 30.838 11.209 46.891 11.209a56.51 56.51 0 0 0 15.697-2.125 117.872 117.872 0 0 0 31.945-17.056c4.288-2.88 8.718-5.848 13.099-8.446 24.664-14.547 45.225-15.38 72.413-11.92a205.016 205.016 0 0 0 38.812.6c.581-.748 1.158-1.5 1.73-2.257a208.56 208.56 0 0 1-40.269-.487c-26.949-3.436-48.689-2.593-73.772 12.183-4.435 2.612-8.894 5.614-13.207 8.514a116.342 116.342 0 0 1-31.341 16.759c-20.326 5.848-42.081-2.071-61.267-9.059l-.697-.254c-9.362-3.411-18.631-7.797-27.593-12.042a239.355 239.355 0 0 0-38.31-15.507 67.846 67.846 0 0 0-48.913 4.167c.452.565.905 1.127 1.36 1.686a64.955 64.955 0 0 1 46.983-3.791" fill="url('#paint7_linear_5306_22396')"/><path d="M90.45 337.73a312.414 312.414 0 0 1 38.373 14.21c9.615 4.05 19.557 8.231 29.586 11.56a141.914 141.914 0 0 0 43.748 9.259 58.944 58.944 0 0 0 19.055-2.968 136.702 136.702 0 0 0 30.459-16.823c4.771-3.182 9.707-6.471 14.522-9.259 26.501-15.297 46.121-15.507 73.056-10.541a169.867 169.867 0 0 0 47.208.683c.533-.761 1.06-1.526 1.579-2.296a170.198 170.198 0 0 1-48.397-.487c-27.432-5.059-47.437-4.839-74.513 10.789-4.873 2.812-9.839 6.126-14.62 9.328a135.176 135.176 0 0 1-29.961 16.569c-19.382 6.574-39.294 1.029-61.439-6.335-9.956-3.299-19.854-7.471-29.43-11.501a313.815 313.815 0 0 0-38.64-14.303 76.854 76.854 0 0 0-50.07 2.285c.433.588.867 1.175 1.302 1.76a73.891 73.891 0 0 1 48.207-1.984" fill="url('#paint8_linear_5306_22396')"/><path d="M127.447 346.974c9.41 3.353 19.147 6.823 29.24 9.859a137.013 137.013 0 0 0 39.025 7.217 62.795 62.795 0 0 0 22.842-4.04 171.638 171.638 0 0 0 29.566-16.403c5.644-3.626 11.482-7.379 17.169-10.478 26.053-14.211 43.334-16.248 73.953-8.704 18.709 4.605 35.493 2.744 53.12.517l1.461-2.34c-18.031 2.296-35.112 4.386-54.035-.253-31.238-7.69-48.875-5.614-75.493 8.903-5.755 3.139-11.623 6.911-17.3 10.556a170.24 170.24 0 0 1-29.182 16.209c-20.151 7.797-40.936 2.671-60.473-3.231-10.02-3.026-19.732-6.487-29.118-9.83-30.459-10.848-59.494-21.189-92.029-13.811.433.65.868 1.289 1.306 1.916 31.677-6.867 60.142 3.275 90.006 13.908" fill="url('#paint9_linear_5306_22396')"/><path d="M120.43 339.616c10.658 3.757 21.676 7.641 32.866 10.765a102.873 102.873 0 0 0 27.817 4.088c24.78 0 43.942-10.619 66.657-23.207 5.161-2.86 10.497-5.813 16.15-8.772 28.461-14.98 44.772-16.501 75.869-7.061 21.442 6.501 27.407 7.798 51.418 1.165a128.234 128.234 0 0 1 7.032-1.725c.452-.819.899-1.641 1.341-2.466-2.866.57-5.848 1.272-8.938 2.129-23.441 6.462-29.279 5.205-50.23-1.15-31.759-9.639-48.416-8.08-77.486 7.218-5.672 2.987-11.018 5.95-16.189 8.816-30.073 16.666-53.826 29.824-92.866 18.928-11.121-3.105-22.106-6.979-32.73-10.722-30.122-10.619-58.782-20.726-90.157-14.478.4.649.801 1.299 1.204 1.949 30.541-5.795 58.69 4.123 88.247 14.547" fill="url('#paint10_linear_5306_22396')"/><path d="M390.054 306.364c-22.305 6.969-27.705 5.078-45.61-1.194-1.71-.599-3.533-1.238-5.497-1.91-26.618-9.152-46.486-11.209-75.176 4.201-7.534 4.045-14.586 8.216-21.404 12.252-29.098 17.222-54.235 32.091-93.27 21.52-11.799-3.197-23.11-7.017-34.05-10.721-29.109-9.835-56.78-19.167-88.598-15.181.374.676.752 1.35 1.136 2.023 30.999-3.641 58.187 5.526 86.779 15.185 10.97 3.704 22.315 7.539 34.172 10.751a98.287 98.287 0 0 0 25.829 3.635c26.199 0 46.462-11.988 69.084-25.38 6.823-4.026 13.831-8.187 21.326-12.184 27.997-15.024 47.423-13.016 73.466-4.064 1.949.673 3.777 1.311 5.482 1.906 17.934 6.281 23.972 8.396 46.955 1.218a126.013 126.013 0 0 1 12.607-3.309c.387-.799.769-1.602 1.145-2.407a124.062 124.062 0 0 0-14.391 3.674" fill="url('#paint11_linear_5306_22396')"/><path d="M103.295 322.417a362.51 362.51 0 0 0 38.987 12.773 100.334 100.334 0 0 0 24.299 3.109c27.042 0 48.333-12.183 72.154-25.794 7.842-4.484 15.946-9.118 24.533-13.441 27.495-13.845 47.222-11.696 76.292-2.363 23.611 7.558 26.642 8.533 51.701 0a75.53 75.53 0 0 1 17.544-3.977c.302-.744.601-1.49.897-2.237a76.49 76.49 0 0 0-19.152 4.186c-24.367 8.324-27.345 7.374-50.474-.029-29.508-9.449-49.639-11.652-77.793 2.529-8.64 4.352-16.769 9.001-24.63 13.495-30.107 17.212-56.106 32.081-94.879 22.466a361 361 0 0 1-38.743-12.705c-26.803-9.942-52.169-19.338-82.398-14.289.325.67.65 1.337.975 2.003 29.396-4.712 54.337 4.523 80.658 14.289" fill="url('#paint12_linear_5306_22396')"/><path d="m391.055 282.641-2.539.941c-22.208 8.24-24.026 8.913-47.009 2.144-28.821-8.489-49.937-12.973-79.693 1.462-9.469 4.591-18.383 9.586-26.999 14.415-31.16 17.461-58.066 32.539-97.676 23.032a274.567 274.567 0 0 1-39.426-13.675c-24.468-9.937-47.588-19.323-76.555-14.045-1.272.234-2.436.439-3.504.624.293.672.59 1.343.892 2.012.94-.16 1.95-.336 2.997-.531 28.349-5.165 51.17 4.104 75.362 13.923a275.994 275.994 0 0 0 39.732 13.777 102.36 102.36 0 0 0 24.011 2.924c28.47 0 51.316-12.802 75.21-26.189 8.592-4.815 17.471-9.79 26.886-14.357 29.065-14.098 49.821-9.678 78.159-1.33 23.67 6.969 26.004 6.101 48.358-2.193l2.539-.941a54.616 54.616 0 0 1 21.414-3.708c.24-.709.476-1.417.706-2.125a56.429 56.429 0 0 0-22.861 3.83" fill="url('#paint13_linear_5306_22396')"/><path d="M391.46 270.672a420.732 420.732 0 0 0-10.434 4.386c-14.757 6.336-17.417 7.5-37.939 1.95-28.265-7.647-50.6-13.685-80.761.487-10.176 4.776-19.669 9.946-28.845 14.946-32.194 17.544-59.986 32.681-101.342 23.329a205.54 205.54 0 0 1-39.279-14.493c-21.442-9.645-41.647-18.758-67.822-14.289a90.477 90.477 0 0 1-11.097 1.462c.267.695.535 1.387.804 2.076 3.573-.301 7.127-.789 10.649-1.462 25.521-4.357 45.468 4.625 66.584 14.133a207.09 207.09 0 0 0 39.689 14.62 113.121 113.121 0 0 0 25.088 2.924c29.171 0 52.081-12.481 77.744-26.462 9.152-4.986 18.611-10.142 28.753-14.888 29.454-13.826 50.361-8.173 79.299-.346 21.243 5.745 24.366 4.386 39.342-2.052a645.917 645.917 0 0 1 10.385-4.386 43.728 43.728 0 0 1 24.367-2.827c.192-.685.38-1.372.565-2.061a46.155 46.155 0 0 0-25.741 2.924" fill="url('#paint14_linear_5306_22396')"/><path d="M392.866 258.148a126.818 126.818 0 0 0-16.082 8.036c-8.738 5.019-12.354 7.09-29.367 3.109a847.217 847.217 0 0 1-11.306-2.754c-26.316-6.544-47.125-11.696-76.077 3.348-5.576 2.9-11.102 5.878-16.443 8.772-36.701 19.786-71.37 38.5-116.663 27.9a159.495 159.495 0 0 1-36.306-14.995c-18.943-9.747-36.843-18.938-59.553-15.137-11.925 1.998-16.418 2.593-21.096.746.27.851.545 1.699.828 2.544 4.464 1.262 9.562.668 20.62-1.184 22.002-3.685 39.6 5.36 58.216 14.932a161.217 161.217 0 0 0 36.799 15.175 116.205 116.205 0 0 0 26.545 3.124c33.689 0 61.998-15.263 91.619-31.228 5.336-2.876 10.848-5.848 16.413-8.743 28.236-14.688 47.676-9.854 74.562-3.168a796.1 796.1 0 0 0 11.336 2.758c17.831 4.172 21.93 1.818 30.921-3.338a124.997 124.997 0 0 1 15.819-7.914 36.84 36.84 0 0 1 25.599-.77c.156-.692.309-1.386.459-2.081a39.146 39.146 0 0 0-26.872.872" fill="url('#paint15_linear_5306_22396')"/><path d="M34.664 268.426c19.893-3.002 35.395 5.848 51.8 15.268a128.969 128.969 0 0 0 35.204 15.687 124.105 124.105 0 0 0 27.608 3.153c35.029 0 64.883-15.288 96.117-31.277 5.809-2.973 11.813-6.048 17.851-9.025 26.871-13.241 45.673-8.699 69.479-2.924 5.014 1.213 10.205 2.465 15.765 3.63 17.13 3.592 21.199.658 28.592-4.669a80.822 80.822 0 0 1 16.964-9.81 34.17 34.17 0 0 1 27.227.902c.124-.712.244-1.425.361-2.139a36.228 36.228 0 0 0-28.441-.726 82.708 82.708 0 0 0-17.373 10.039c-7.125 5.131-10.722 7.709-26.901 4.313-5.526-1.16-10.721-2.408-15.702-3.616-24.225-5.848-43.373-10.478-70.927 3.104-6.057 2.982-12.071 6.062-17.885 9.04-38.757 19.844-75.371 38.592-122.277 27.944a127.362 127.362 0 0 1-34.6-15.459c-16.736-9.586-32.545-18.655-53.183-15.521-14.284 2.159-19.304 2.407-27.652-.6.215.832.434 1.662.658 2.491 7.876 2.612 13.402 2.329 27.291.224" fill="url('#paint16_linear_5306_22396')"/><path d="M37.458 258.434c17.973-1.949 31.877 6.477 46.585 15.371a111.524 111.524 0 0 0 34.176 15.668 134.422 134.422 0 0 0 27.983 2.968c36.959 0 69.07-15.454 102.676-31.623 5.561-2.676 11.311-5.444 17.057-8.124 25.561-11.93 42.998-7.934 65.074-2.876 5.848 1.341 11.871 2.725 18.489 3.899 16.57 2.992 20.746-.682 27.052-6.233a59.593 59.593 0 0 1 17.374-11.311c10.204-4.425 19.703-1.462 28.86 2.968.092-.741.185-1.486.268-2.232-9.226-4.386-19.284-7.31-29.976-2.7a61.523 61.523 0 0 0-17.939 11.672c-6.043 5.326-9.693 8.538-25.259 5.731-6.564-1.184-12.578-2.564-18.387-3.899-22.476-5.151-40.229-9.22-66.457 3.022-5.761 2.69-11.516 5.458-17.057 8.133-41.463 19.952-80.625 38.797-129.29 28.495a109.934 109.934 0 0 1-33.514-15.405c-14.371-8.689-29.215-17.676-47.92-15.668-15 1.608-21.783 2.13-32.831-.487.16.767.322 1.533.487 2.3 10.858 2.437 18.032 1.881 32.574.322" fill="url('#paint17_linear_5306_22396')"/><path d="M38.636 250.033c18.07-2.748 32.783 4.966 48.363 13.158a140.87 140.87 0 0 0 30.098 12.89 137.524 137.524 0 0 0 34.435 4.386c35.532 0 67.467-13.713 100.8-28.031 5.41-2.325 10.863-4.669 16.385-6.974 24.337-10.17 41.126-7.646 62.378-4.444 6.185.931 12.583 1.891 19.65 2.612 15.107 1.545 19.912-2.554 25.984-7.739a55.916 55.916 0 0 1 17.281-10.814c10.561-4.215 20.332-.487 29.728 4.425.061-.773.117-1.546.165-2.32-9.386-4.805-19.688-8.494-30.702-4.093a58.488 58.488 0 0 0-17.88 11.169c-5.907 5.044-10.171 8.69-24.367 7.237-7.013-.716-13.387-1.676-19.547-2.602-20.736-3.119-38.64-5.814-63.529 4.586-5.526 2.31-10.989 4.654-16.403 6.978-43.373 18.631-84.363 36.234-133.861 23.534a139.404 139.404 0 0 1-29.64-12.71c-15.897-8.338-30.911-16.214-49.679-13.358-15.814 2.408-23.026 2.856-35.463-.458.127.773.258 1.547.395 2.32 12.212 3.148 19.615 2.656 35.39.253" fill="url('#paint18_linear_5306_22396')"/><path d="M37.447 242.684c19.815-3.845 36.96 3.324 55.108 10.911a230.318 230.318 0 0 0 26.174 9.703 147.987 147.987 0 0 0 40.581 5.775c33.173 0 62.725-11.501 95.517-24.254 6.696-2.608 13.616-5.303 20.658-7.924 18.729-6.979 33.183-5.171 48.485-3.261a178.47 178.47 0 0 0 28.631 1.925 37.977 37.977 0 0 0 23.119-8.236 108.06 108.06 0 0 1 10.488-6.359c15.935-8.285 24.824-6.979 38.099-.707.026-.773.049-1.548.069-2.325-13.202-6.096-22.783-7.388-39.158 1.136a110.251 110.251 0 0 0-10.687 6.476 35.804 35.804 0 0 1-21.998 7.876 176.55 176.55 0 0 1-28.3-1.906c-15.594-1.949-30.283-3.776-49.498 3.382-7.057 2.627-13.987 5.327-20.687 7.934-45.108 17.544-84.07 32.715-134.719 18.417a228.966 228.966 0 0 1-25.931-9.62c-18.456-7.715-35.892-15.005-56.34-11.039a69.058 69.058 0 0 1-35.396-1.427c.094.76.193 1.52.297 2.28a71.1 71.1 0 0 0 35.503 1.248" fill="url('#paint19_linear_5306_22396')"/><path d="M37.65 234.765c22.227-5.113 44.752 2.69 66.531 10.234 5.02 1.739 10.234 3.538 15.327 5.151a188.661 188.661 0 0 0 56.238 10.848 94.587 94.587 0 0 0 23.363-2.812 438.039 438.039 0 0 0 52.822-18.343c8.616-3.412 17.544-6.935 26.316-10.093 16.496-5.911 30.044-4.981 44.386-3.996 9.81.941 19.686.987 29.504.136a43.803 43.803 0 0 0 21.93-9.157 98.136 98.136 0 0 1 11.14-6.754c15.98-8.046 25.381-6.228 39.201.356 0-.8-.013-1.596-.039-2.388-13.913-6.526-23.645-8.178-40.122.121a99.796 99.796 0 0 0-11.369 6.891 42.097 42.097 0 0 1-20.956 8.802c-9.695.836-19.446.789-29.133-.142-14.576-.999-28.333-1.949-45.253 4.118-8.846 3.168-17.774 6.701-26.404 10.117a436.458 436.458 0 0 1-52.559 18.261c-27.169 6.9-54.718-.512-78.407-7.997-5.083-1.609-10.264-3.412-15.269-5.137-22.061-7.641-44.878-15.551-67.71-10.297a70.222 70.222 0 0 1-36.306-.829c.068.751.14 1.501.214 2.252a71.34 71.34 0 0 0 36.55.663" fill="url('#paint20_linear_5306_22396')"/><path d="M383.389 197.109a91.692 91.692 0 0 0-12.29 7.51 49.114 49.114 0 0 1-19.727 9.469 149.715 149.715 0 0 1-30.332 1.715 116.737 116.737 0 0 0-41.087 4.595c-8.397 2.842-16.964 6.039-25.249 9.128a410 410 0 0 1-55.171 17.686c-26.599 5.775-50.415-2.583-75.629-11.433l-2.535-.887c-25.063-8.772-57.354-17.851-84.796-10.054a73.018 73.018 0 0 1-36.155 1.311c.045.734.096 1.469.151 2.203a74.383 74.383 0 0 0 36.59-1.462c26.86-7.637 58.728 1.34 83.494 10.015l2.529.886c19.606 6.882 38.368 13.47 58.349 13.465 6.2.015 12.385-.639 18.445-1.949a411.571 411.571 0 0 0 55.469-17.768c8.284-3.085 16.823-6.277 25.185-9.108a113.506 113.506 0 0 1 40.376-4.479c10.285.461 20.59-.127 30.756-1.754a50.834 50.834 0 0 0 20.541-9.81 89.63 89.63 0 0 1 12.012-7.344c16.37-7.959 26.414-5.259 39.743 1.208a159.88 159.88 0 0 0-.156-2.436c-13.051-6.195-23.792-8.826-40.527-.693" fill="url('#paint21_linear_5306_22396')"/><path d="M36.073 218.883c23.88-7.982 57.559-6.096 85.834 4.815a691.22 691.22 0 0 1 9.825 3.899c17.836 7.129 34.873 13.942 54.035 13.942 4.934 0 9.858-.455 14.708-1.359a400.66 400.66 0 0 0 57.617-16.96c8.08-2.821 16.438-5.74 24.528-8.284a134.617 134.617 0 0 1 36.482-4.737 143.563 143.563 0 0 0 32.841-3.758 57.561 57.561 0 0 0 18.923-10.234 82.87 82.87 0 0 1 13.042-8.162c15.848-7.476 25.916-4.732 39.298 1.769a304.55 304.55 0 0 0-.283-2.505c-13.036-6.18-23.772-8.821-39.927-1.199a84.331 84.331 0 0 0-13.377 8.358 55.913 55.913 0 0 1-18.241 9.888 139.833 139.833 0 0 1-32.354 3.684 136.318 136.318 0 0 0-37.038 4.839c-8.119 2.573-16.491 5.497-24.586 8.324a399.031 399.031 0 0 1-57.3 16.876c-24.854 4.606-45.595-3.684-67.559-12.466-3.251-1.296-6.526-2.607-9.849-3.898-28.71-11.082-62.969-12.983-87.282-4.874A78.501 78.501 0 0 1 .166 220.56c.024.726.058 1.462.093 2.168a80.14 80.14 0 0 0 35.828-3.86" fill="url('#paint22_linear_5306_22396')"/><path d="M34.28 210.657c22.933-10.863 62.67-10.892 88.582-.059 4.649 1.95 9.186 3.987 13.577 5.965 16.847 7.593 32.919 14.835 52.062 14.835a77.616 77.616 0 0 0 12.403-1.009 418.932 418.932 0 0 0 59.167-15.794c7.948-2.539 16.165-5.161 24.055-7.461a162.055 162.055 0 0 1 32.471-4.708 138.863 138.863 0 0 0 35.833-5.892 65.73 65.73 0 0 0 17.247-10.38 76.405 76.405 0 0 1 14.23-9.152c15.015-6.823 25.264-4.143 37.851 1.9-.136-.854-.277-1.709-.424-2.563-12.246-5.697-23.075-8.231-38.309-1.287a78.152 78.152 0 0 0-14.62 9.391 63.093 63.093 0 0 1-16.681 10.074 135.036 135.036 0 0 1-35.274 5.774 163.674 163.674 0 0 0-32.904 4.791c-7.92 2.305-16.146 4.932-24.109 7.476a417.47 417.47 0 0 1-58.86 15.721c-24.24 3.899-43.188-4.63-63.246-13.645-4.386-1.984-8.953-4.036-13.646-5.99-26.394-11.028-66.91-10.989-90.322.103A65.601 65.601 0 0 1 .02 214.814c0 .705.01 1.41.034 2.115a68.282 68.282 0 0 0 34.23-6.277" fill="url('#paint23_linear_5306_22396')"/><path d="M31.487 202.197a119.754 119.754 0 0 1 91.618-3.991c4.274 1.676 8.461 3.411 12.505 5.083 18.134 7.509 35.391 14.659 56.044 14.659a91.007 91.007 0 0 0 9.176-.488 278.863 278.863 0 0 0 56.721-14.132c9.937-3.222 20.21-6.555 30.215-9.118a154.586 154.586 0 0 1 31.969-3.499 139.093 139.093 0 0 0 33.689-4.079 65.971 65.971 0 0 0 17.676-9.26 81.794 81.794 0 0 1 13.699-7.87 42.288 42.288 0 0 1 35.278.36c-.172-.838-.349-1.674-.531-2.509a43.48 43.48 0 0 0-35.575.175 83.459 83.459 0 0 0-14.06 8.065 63.337 63.337 0 0 1-17.086 9.026 135.42 135.42 0 0 1-33.163 3.991 156.295 156.295 0 0 0-32.418 3.567c-10.092 2.583-20.394 5.926-30.365 9.157a277.405 277.405 0 0 1-56.278 14.026c-24.337 2.466-42.812-5.18-64.196-14.04-4.055-1.677-8.251-3.412-12.544-5.103a122.054 122.054 0 0 0-93.373 4.075 71.005 71.005 0 0 1-30.449 7.543c0 .717-.03 1.433-.039 2.15a73.055 73.055 0 0 0 31.462-7.798" fill="url('#paint24_linear_5306_22396')"/><path d="M31.958 192.884c22.851-12.334 61.17-20.405 91.312-8.972 4.147 1.574 8.192 3.178 12.105 4.723 19.771 7.831 37.242 14.751 59.05 14.751 3.908-.004 7.812-.22 11.696-.648a262.505 262.505 0 0 0 48.929-11.852c9.8-3.051 19.932-6.209 29.985-8.528a158.747 158.747 0 0 1 36.336-2.997c9.069.164 18.138-.272 27.149-1.307a61.48 61.48 0 0 0 23.261-9.196 92.53 92.53 0 0 1 14.683-7.222 45.775 45.775 0 0 1 31.701-.292c-.201-.816-.407-1.628-.619-2.437a47.067 47.067 0 0 0-31.803.717 94.297 94.297 0 0 0-15.025 7.378 59.79 59.79 0 0 1-22.48 8.933 204.166 204.166 0 0 1-26.877 1.286 160.545 160.545 0 0 0-36.808 3.051c-10.132 2.339-20.302 5.507-30.137 8.567a260.939 260.939 0 0 1-48.524 11.769c-27.022 2.949-46.823-4.873-69.737-13.967a802.874 802.874 0 0 0-12.135-4.737c-30.77-11.666-69.82-3.469-93.08 9.089a83.646 83.646 0 0 1-30.586 9.42c-.042.725-.08 1.451-.112 2.179a85.815 85.815 0 0 0 31.716-9.708Z" fill="url('#paint25_linear_5306_22396')"/><path d="M385.797 152.43a110.155 110.155 0 0 0-14.24 5.799 62.034 62.034 0 0 1-23.617 7.232c-8.232.333-16.477.192-24.693-.424a147.683 147.683 0 0 0-38.226 1.311 324.496 324.496 0 0 0-32.359 8.66 212.001 212.001 0 0 1-49.162 10.814c-25.961 1.501-45.605-5.478-68.369-13.553-3.26-1.155-6.574-2.334-9.975-3.508-37.662-13.012-75.79 3.123-95.167 13.898a90.705 90.705 0 0 1-29.07 10.054 223.42 223.42 0 0 0-.185 2.13 93.123 93.123 0 0 0 30.298-10.317c19.064-10.6 56.53-26.482 93.427-13.743 3.411 1.174 6.705 2.349 9.961 3.504 22.983 8.153 42.827 15.19 69.201 13.67a213.673 213.673 0 0 0 49.669-10.902 322.77 322.77 0 0 1 32.164-8.606 144.057 144.057 0 0 1 37.701-1.277c8.295.62 16.62.761 24.932.424a63.756 63.756 0 0 0 24.396-7.427 108.326 108.326 0 0 1 13.947-5.683 53.787 53.787 0 0 1 29.659-.921 176.11 176.11 0 0 0-.697-2.353 55.254 55.254 0 0 0-29.595 1.233" fill="url('#paint26_linear_5306_22396')"/><path d="M29.418 176.382c35.181-21.306 64.66-27.037 95.576-18.572 5.147 1.409 10.147 2.871 14.981 4.289 19.454 5.697 37.837 11.086 60.234 11.086h.805a171.707 171.707 0 0 0 50.263-10.321 250.116 250.116 0 0 1 33.704-8.85 123.335 123.335 0 0 1 39.197.882 212.853 212.853 0 0 0 22.904 2.222 61.886 61.886 0 0 0 25.634-5.687 128.946 128.946 0 0 1 12.432-4.294 62.987 62.987 0 0 1 28.504-1.325c-.253-.767-.513-1.533-.78-2.3a64.608 64.608 0 0 0-28.289 1.559 130.721 130.721 0 0 0-12.637 4.362 60.088 60.088 0 0 1-24.8 5.541 211.197 211.197 0 0 1-22.705-2.203 125.05 125.05 0 0 0-39.83-.872 251.483 251.483 0 0 0-33.997 8.918 170.062 170.062 0 0 1-49.635 10.234c-22.495.112-40.897-5.278-60.429-10.994-4.844-1.418-9.849-2.885-15.015-4.299-31.535-8.63-61.526-2.831-97.252 18.807A87.343 87.343 0 0 1 1.777 184.95c-.098.75-.192 1.501-.283 2.251a89.785 89.785 0 0 0 27.895-10.809" fill="url('#paint27_linear_5306_22396')"/><path d="M26.648 168.931c31.979-19.98 57.68-33.333 97.33-23.694 3.824.929 7.594 1.865 11.311 2.807a303.186 303.186 0 0 0 63.665 11.131c18.085.712 34.645-4.771 50.683-10.073a203.082 203.082 0 0 1 34.752-9.23 106.77 106.77 0 0 1 40.726 3.05c6.531 1.404 13.28 2.856 20.888 3.743a61.502 61.502 0 0 0 26.803-3.582c3.333-.974 6.779-2.022 10.609-2.924a73.584 73.584 0 0 1 27.91-1.135c-.283-.764-.569-1.526-.858-2.286a75.199 75.199 0 0 0-27.529 1.335c-3.899.897-7.374 1.95-10.722 2.924a58.864 58.864 0 0 1-25.931 3.504c-7.505-.877-14.206-2.319-20.687-3.708a108.428 108.428 0 0 0-41.477-3.08 204.533 204.533 0 0 0-35.122 9.318c-15.848 5.238-32.252 10.643-49.923 9.966a301.563 301.563 0 0 1-63.227-11.073c-3.729-.935-7.504-1.871-11.325-2.807-40.449-9.844-66.54 3.724-98.973 23.958a85.008 85.008 0 0 1-22.534 9.698c-.133.773-.26 1.548-.38 2.324a87.627 87.627 0 0 0 24-10.19" fill="url('#paint28_linear_5306_22396')"/><path d="m22.203 161.451 5.18-3.3c31.784-20.258 52.778-33.626 93.539-24.907l3.25.697a559.1 559.1 0 0 0 73.714 12.412c18.607 1.462 35.089-4.513 51.054-10.317a167.968 167.968 0 0 1 35.346-9.976 91.234 91.234 0 0 1 42.023 5.132c5.848 1.735 11.886 3.523 18.806 4.951a107.607 107.607 0 0 0 37.593-.911 155.194 155.194 0 0 1 26.258-2.252c-.293-.721-.589-1.439-.887-2.154-8.605.08-17.19.846-25.673 2.291a104.495 104.495 0 0 1-36.857.936c-6.823-1.404-12.827-3.188-18.631-4.908a94.091 94.091 0 0 0-42.885-5.2 169.532 169.532 0 0 0-35.795 10.088c-16.462 5.989-32.013 11.657-50.152 10.195a557.146 557.146 0 0 1-73.485-12.364l-3.25-.696c-41.619-8.919-62.905 4.654-95.133 25.195l-5.175 3.294a80.525 80.525 0 0 1-16.233 7.832 325.07 325.07 0 0 0-.517 2.436 83.242 83.242 0 0 0 17.89-8.465" fill="url('#paint29_linear_5306_22396')"/><path d="m14.723 153.147 2.783-1.726c34.6-21.442 59.586-36.94 101.302-26.467a614.274 614.274 0 0 0 72.549 14.45c21.126 2.665 38.417-5.073 55.132-12.559 13.382-5.994 27.218-12.183 43.159-13.212a85.877 85.877 0 0 1 36.491 7.354 137.23 137.23 0 0 0 23.47 6.935 113.178 113.178 0 0 0 32.729-.57 161.363 161.363 0 0 1 23.563-1.54c-.325-.725-.65-1.446-.975-2.164-7.632.014-15.255.541-22.817 1.579a110.095 110.095 0 0 1-32.11.59 135.824 135.824 0 0 1-23.109-6.823 88.705 88.705 0 0 0-37.359-7.476c-16.326 1.048-30.342 7.31-43.895 13.392-17.202 7.705-33.45 14.981-53.991 12.388a612.166 612.166 0 0 1-72.316-14.395c-42.588-10.688-69.226 5.848-102.95 26.725l-2.782 1.725a83.495 83.495 0 0 1-5.502 3.119c-.263.929-.521 1.863-.775 2.802a89.669 89.669 0 0 0 7.403-4.098" fill="url('#paint30_linear_5306_22396')"/><path d="M14.644 142.722c32.822-21.515 61.146-37.066 101.614-25.59 3.652 1.034 7.288 2.08 10.907 3.139a335.034 335.034 0 0 0 62.968 13.952c21.229 1.95 38.232-6.939 54.684-15.565 13.646-7.149 27.744-14.542 44.26-15.751 14.03-1.018 25.487 3.436 37.612 8.163a139.617 139.617 0 0 0 23.207 7.49 114.096 114.096 0 0 0 31.141.585 165.02 165.02 0 0 1 21.418-.628c-.364-.738-.734-1.472-1.111-2.203-6.83-.165-13.665.068-20.468.697a112.447 112.447 0 0 1-30.561-.546 138.001 138.001 0 0 1-22.851-7.383c-11.813-4.606-24.035-9.362-38.543-8.285-16.959 1.243-31.263 8.738-45.093 15.989-16.92 8.87-32.885 17.257-53.495 15.327a333.264 333.264 0 0 1-62.574-13.879 2542.455 2542.455 0 0 0-10.921-3.143c-41.34-11.696-70.083 4.044-103.368 25.862-.444.288-.887.566-1.33.843-.374 1.056-.74 2.115-1.097 3.178a108.176 108.176 0 0 0 3.601-2.232" fill="url('#paint31_linear_5306_22396')"/><path d="M17.52 132.211c31.316-22.193 59.747-34.518 96.672-22.549 5.112 1.657 10.317 3.455 15.346 5.195 18.885 6.535 38.417 13.289 58.817 14.566 21.443 1.316 38.265-8.801 54.547-18.606 13.865-8.348 28.207-16.984 45.322-18.412 14.372-1.194 26.618 3.743 39.586 8.972a152.054 152.054 0 0 0 22.861 7.827 144.782 144.782 0 0 0 32.895 2.388c5.083-.025 10.234-.044 15.419.195-.396-.731-.797-1.461-1.203-2.189-4.786-.185-9.542-.165-14.23-.146a143.257 143.257 0 0 1-32.408-2.334 150.172 150.172 0 0 1-22.534-7.724c-12.632-5.098-25.707-10.366-40.566-9.118-17.593 1.462-32.164 10.234-46.224 18.708-16.74 10.078-32.544 19.606-53.314 18.3-20.108-1.253-39.499-7.963-58.251-14.45-5.039-1.744-10.234-3.547-15.385-5.209-37.652-12.184-66.526.19-98.242 22.607a128.294 128.294 0 0 0-1.462 3.611c.8-.529 1.595-1.073 2.388-1.632" fill="url('#paint32_linear_5306_22396')"/><path d="M21.492 122.288c32.36-25.502 60.493-31.793 91.224-20.4 5.702 2.115 11.599 4.552 17.301 6.911 18.094 7.485 36.803 15.219 56.291 15.984 21.779.844 38.558-10.57 54.791-21.613 14.089-9.586 28.661-19.493 46.361-21.155 14.62-1.38 28.367 4.337 41.632 9.859a164.208 164.208 0 0 0 22.608 8.143 190.414 190.414 0 0 0 38.533 4.269l4.586.2a229.32 229.32 0 0 0-1.325-2.203l-3.173-.136a188.831 188.831 0 0 1-38.1-4.21 162.593 162.593 0 0 1-22.305-8.047c-13.509-5.619-27.451-11.423-42.656-10.014-18.251 1.705-33.051 11.778-47.364 21.515-15.946 10.848-32.476 22.043-53.505 21.243-19.103-.75-37.636-8.411-55.556-15.823-5.721-2.364-11.632-4.81-17.373-6.94-31.112-11.535-59.548-5.439-92.023 19.747a217.086 217.086 0 0 0-2.013 4.235 90.323 90.323 0 0 0 2.066-1.579" fill="url('#paint33_linear_5306_22396')"/><path d="M110.422 92.644c6.779 2.778 13.573 6.228 20.761 9.878 19.137 9.718 38.918 19.781 59.942 17.603 19.006-1.95 34.186-13.075 48.889-23.826 12.783-9.352 26.004-19.006 41.502-22.364 17.933-3.898 31.949 2.057 46.784 8.334a199.153 199.153 0 0 0 19.215 7.339 196.846 196.846 0 0 0 42.535 7.208c-.494-.757-.993-1.513-1.496-2.267a190.74 190.74 0 0 1-40.41-6.988 197.61 197.61 0 0 1-19.006-7.266c-15.156-6.413-29.469-12.461-48.076-8.455-15.945 3.44-29.347 13.245-42.315 22.729-14.469 10.585-29.435 21.526-47.846 23.426-20.386 2.091-39.884-7.797-58.744-17.383-7.232-3.67-14.059-7.14-20.921-9.951-27.666-11.346-55.639-5.8-83.159 16.462a246.866 246.866 0 0 0-2.87 5.165l2.373-2.002c27.467-22.988 55.342-28.929 82.847-17.652" fill="url('#paint34_linear_5306_22396')"/><path d="M110.52 83.916a222.37 222.37 0 0 1 21.325 11.774c18.095 10.838 36.809 22.047 57.35 19.455 19.337-2.437 34.474-14.689 49.113-26.531 12.939-10.468 26.316-21.292 42.398-25.015 18.154-4.205 32.837 2.232 48.383 9.045a204.999 204.999 0 0 0 19.401 7.715 224.557 224.557 0 0 0 35.936 8.284 212.163 212.163 0 0 0-1.784-2.436 220.7 220.7 0 0 1-33.494-7.866 203.208 203.208 0 0 1-19.201-7.641c-15.883-6.96-30.883-13.539-49.708-9.172-16.57 3.835-30.132 14.815-43.261 25.434-14.406 11.657-29.299 23.704-48.037 26.067-19.81 2.501-38.197-8.513-55.985-19.166a223.808 223.808 0 0 0-21.535-11.886c-24.274-11.063-51.136-7.31-73.626 9.82a211.955 211.955 0 0 0-4.123 6.164c22.87-20.375 51.36-25.658 76.857-14.035" fill="url('#paint35_linear_5306_22396')"/><path d="M348.819 70.475c-6.745-2.013-13.099-4.581-19.25-7.066-15.97-6.453-31.053-12.55-50.288-8.09-16.155 3.747-29.849 14.181-43.095 24.27-14.732 11.208-29.966 22.826-48.416 24.902-18.665 2.1-36.248-8.567-53.251-18.884a199.762 199.762 0 0 0-22.5-12.388 74.902 74.902 0 0 0-60.118.419 204.1 204.1 0 0 0-3.163 3.733 73.812 73.812 0 0 1 62.423-2.193 198.575 198.575 0 0 1 22.252 12.28c17.31 10.503 35.214 21.355 54.581 19.177 19.04-2.144 34.513-13.928 49.474-25.341 13.066-9.952 26.57-20.244 42.281-23.88 18.568-4.308 33.353 1.667 49.002 7.993 6.194 2.5 12.597 5.092 19.44 7.13a199.062 199.062 0 0 0 28.567 6.145 246.604 246.604 0 0 0-2.042-2.471A194.005 194.005 0 0 1 348.8 70.48" fill="url('#paint36_linear_5306_22396')"/><path d="M112.368 66.22a165.285 165.285 0 0 1 23.149 12.593c15.809 9.674 32.164 19.679 50.029 17.924 18.68-1.827 34.601-12.821 49.981-23.455 13.378-9.26 27.208-18.796 42.715-22.183 18.909-4.128 32.466 1.189 48.168 7.339 6.097 2.388 12.403 4.873 19.333 6.856a159.661 159.661 0 0 0 23.665 4.806 232.681 232.681 0 0 0-2.281-2.471 154.407 154.407 0 0 1-20.794-4.386c-6.823-1.95-13.095-4.425-19.148-6.794-15.356-6.018-29.864-11.696-49.406-7.436-15.916 3.474-29.927 13.158-43.475 22.51-15.166 10.477-30.848 21.31-48.977 23.085-17.154 1.661-33.197-8.129-48.704-17.617a166.704 166.704 0 0 0-23.46-12.75 83.258 83.258 0 0 0-48.636-3.961c-.956.926-1.903 1.861-2.842 2.807a82.226 82.226 0 0 1 50.683 3.138" fill="url('#paint37_linear_5306_22396')"/><path d="M113.953 57.229a137.743 137.743 0 0 1 24.089 12.67c14.059 8.583 28.582 17.462 45.044 16.248 18.304-1.345 34.693-11.515 50.546-21.355 13.646-8.46 27.73-17.207 42.92-20.239 19.137-3.81 31.935 1.18 46.755 6.97 5.911 2.304 12.022 4.692 18.957 6.69a128.814 128.814 0 0 0 19.518 3.933 233.797 233.797 0 0 0-2.573-2.514 123.516 123.516 0 0 1-16.355-3.48c-6.823-1.95-12.91-4.337-18.772-6.628-15.132-5.911-28.202-11.018-47.949-7.076-15.571 3.11-29.835 11.96-43.626 20.522-15.629 9.703-31.794 19.732-49.572 21.038-15.775 1.165-30-7.534-43.777-15.936a139.191 139.191 0 0 0-24.484-12.836 96.49 96.49 0 0 0-38.845-5.132c-.926.777-1.846 1.561-2.759 2.354a95.577 95.577 0 0 1 40.883 4.79" fill="url('#paint38_linear_5306_22396')"/><path d="M139.822 60.397c13.26 7.798 26.974 15.907 42.256 14.893 17.773-1.16 34.284-10.36 50.249-19.264 13.743-7.661 27.954-15.595 42.886-18.314 19.318-3.529 31.467 1.228 45.536 6.74 5.702 2.232 11.594 4.542 18.47 6.545a105.964 105.964 0 0 0 13.953 3.026 175.447 175.447 0 0 0-3.075-2.676 100.93 100.93 0 0 1-10.283-2.402c-6.784-1.979-12.632-4.27-18.29-6.486-14.376-5.63-26.803-10.498-46.701-6.853-15.263 2.793-29.63 10.805-43.529 18.548-15.76 8.772-32.057 17.871-49.347 19.006-14.62.95-28.051-6.954-41.034-14.62A128.925 128.925 0 0 0 116.391 46.3a106.305 106.305 0 0 0-29.348-5.01 173.41 173.41 0 0 0-2.797 2.086c10.684.047 21.3 1.718 31.482 4.956a127.425 127.425 0 0 1 24.113 12.052" fill="url('#paint39_linear_5306_22396')"/><path d="M141.492 50.743c12.944 7.018 26.316 14.284 40.693 13.343 17.159-1.11 33.562-9.259 49.425-17.124a158.129 158.129 0 0 1 42.7-16.35c19.518-3.241 30.702 1.101 44.835 6.603 5.541 2.159 11.277 4.386 18.095 6.389 1.627.487 3.27.901 4.922 1.282a208.615 208.615 0 0 0-4.484-3.383c-6.657-1.949-12.3-4.157-17.758-6.281-13.875-5.4-25.829-10.059-45.961-6.72a159.665 159.665 0 0 0-43.299 16.544c-15.673 7.798-31.882 15.824-48.612 16.906-13.743.872-26.857-6.213-39.532-13.09a129.256 129.256 0 0 0-24.47-11.184 118.904 118.904 0 0 0-19.95-3.952 114.32 114.32 0 0 0-2.862 1.861 117.518 117.518 0 0 1 22.218 4.147 127.614 127.614 0 0 1 24.045 11.01" fill="url('#paint40_linear_5306_22396')"/><path d="M118.964 31.576a130.909 130.909 0 0 1 23.929 10.18c12.768 6.428 26.028 13.115 39.571 12.276 16.755-1.047 33.207-8.338 49.118-15.385a175.489 175.489 0 0 1 42.399-14.659c19.834-3.114 30.843.926 44.776 6.034l3.845 1.403a206.69 206.69 0 0 0-10.78-6.15 72.491 72.491 0 0 0-38.173-3.411 177.065 177.065 0 0 0-42.924 14.82c-15.741 6.973-32.013 14.186-48.388 15.21-12.963.837-25.955-5.717-38.499-12.033A132.294 132.294 0 0 0 119.5 29.525a146.455 146.455 0 0 0-10.389-2.369c-.975.543-1.942 1.09-2.9 1.642 4.243.735 8.488 1.665 12.734 2.793" fill="url('#paint41_linear_5306_22396')"/><path d="M121.474 24.417a146.865 146.865 0 0 1 22.378 8.328 100.231 100.231 0 0 0 33.714 10.235c18.947.92 38.255-6.711 56.911-14.094a180.241 180.241 0 0 1 45.322-13.592 70.275 70.275 0 0 1 9.561-.365 206.792 206.792 0 0 0-5.58-2.086 75.604 75.604 0 0 0-4.206.326 181.903 181.903 0 0 0-45.887 13.733c-18.441 7.31-37.525 14.86-56.019 13.948A98.757 98.757 0 0 1 144.7 30.796a148.443 148.443 0 0 0-22.72-8.445c-.838-.21-1.681-.395-2.519-.585a186.77 186.77 0 0 0-3.041 1.51c1.681.361 3.362.741 5.044 1.156" fill="url('#paint42_linear_5306_22396')"/><path d="M178.352 35.134c1.358.084 2.714.125 4.069.121 18.085 0 36.258-7.163 53.87-14.103 11.7-5 23.797-9.017 36.165-12.008-1.43-.422-2.864-.83-4.303-1.223a260.485 260.485 0 0 0-32.652 11.238c-18.713 7.378-38.06 15.005-57.018 13.83a110.754 110.754 0 0 1-32.437-9.21c-5.687-2.247-11.525-4.542-17.295-6.262-1.033.441-2.062.891-3.085 1.35a185.18 185.18 0 0 1 19.596 6.9 112.322 112.322 0 0 0 33.09 9.362" fill="url('#paint43_linear_5306_22396')"/><path d="M179.77 26.854a124.727 124.727 0 0 1-32.008-8.894c-3.494-1.306-7.051-2.632-10.604-3.845-1.046.396-2.089.8-3.129 1.213 4.328 1.404 8.704 3.037 12.983 4.64a126.277 126.277 0 0 0 32.588 9.01c1.738.147 3.475.218 5.21.215 18.221 0 36.364-7.593 53.957-14.951 6.998-2.924 14.133-5.902 21.238-8.387-1.299-.302-2.612-.59-3.938-.863-6.086 2.242-12.149 4.776-18.123 7.276-19.031 7.963-38.734 16.18-58.164 14.581" fill="url('#paint44_linear_5306_22396')"/><path d="M148.685 14.242a142.775 142.775 0 0 0 32.831 8.772c1.927.182 3.849.271 5.766.268 18.474 0 36.389-8.036 53.762-15.834 2.793-1.252 5.605-2.514 8.431-3.742-1.28-.228-2.563-.442-3.85-.644a923.267 923.267 0 0 0-5.453 2.437c-18.923 8.49-38.499 17.28-58.451 15.385a141.183 141.183 0 0 1-32.315-8.675l-3.446-1.208c-1.104.364-2.206.736-3.304 1.116a756.7 756.7 0 0 1 6.033 2.11" fill="url('#paint45_linear_5306_22396')"/><path d="M184.499 13.55a144.354 144.354 0 0 1-26.891-5.995c-1.3.345-2.586.699-3.86 1.063a159.845 159.845 0 0 0 30.546 7.061c2.047.198 4.076.296 6.087.293 17.057 0 32.949-6.74 48.373-13.865a418.426 418.426 0 0 0-4.104-.487c-15.989 7.266-32.529 13.645-50.146 11.915" fill="url('#paint46_linear_5306_22396')"/><path d="M190.039 5.49c1.829.145 3.634.217 5.414.214A83.85 83.85 0 0 0 222.744.718a204.855 204.855 0 0 0-6.335-.214 73.152 73.152 0 0 1-26.214 2.85 151.451 151.451 0 0 1-7.729-.828c-2.343.325-4.674.692-6.993 1.101 4.873.824 9.746 1.462 14.551 1.862" fill="url('#paint47_linear_5306_22396')"/><defs><linearGradient id="paint0_linear_5306_22396" x1="219.869" y1="406.12" x2="328.444" y2="425.404" gradientUnits="userSpaceOnUse"><stop stop-color="#FB5757"/><stop offset=".664" stop-color="#31347C"/></linearGradient><linearGradient id="paint1_linear_5306_22396" x1="64.249" y1="387.917" x2="391.95" y2="486.357" gradientUnits="userSpaceOnUse"><stop stop-color="#FB5757"/><stop offset=".664" stop-color="#31347C"/></linearGradient><linearGradient id="paint2_linear_5306_22396" x1="49.877" y1="378.877" x2="412.116" y2="491.858" gradientUnits="userSpaceOnUse"><stop stop-color="#FB5757"/><stop offset=".664" stop-color="#31347C"/></linearGradient><linearGradient id="paint3_linear_5306_22396" x1="39.171" y1="369.827" x2="429.405" y2="491.853" gradientUnits="userSpaceOnUse"><stop stop-color="#FB5757"/><stop offset=".664" stop-color="#31347C"/></linearGradient><linearGradient id="paint4_linear_5306_22396" x1="30.338" y1="360.917" x2="443.713" y2="490.359" gradientUnits="userSpaceOnUse"><stop stop-color="#FB5757"/><stop offset=".664" stop-color="#31347C"/></linearGradient><linearGradient id="paint5_linear_5306_22396" x1="22.971" y1="352.378" x2="453.535" y2="485.961" gradientUnits="userSpaceOnUse"><stop stop-color="#FB5757"/><stop offset=".664" stop-color="#31347C"/></linearGradient><linearGradient id="paint6_linear_5306_22396" x1="15.967" y1="345.781" x2="463.063" y2="487.109" gradientUnits="userSpaceOnUse"><stop stop-color="#FB5757"/><stop offset=".664" stop-color="#31347C"/></linearGradient><linearGradient id="paint7_linear_5306_22396" x1="9.386" y1="339.998" x2="463.292" y2="499.981" gradientUnits="userSpaceOnUse"><stop stop-color="#FB5757"/><stop offset=".664" stop-color="#31347C"/></linearGradient><linearGradient id="paint8_linear_5306_22396" x1="2.859" y1="330.277" x2="470.885" y2="497.952" gradientUnits="userSpaceOnUse"><stop stop-color="#FB5757"/><stop offset=".664" stop-color="#31347C"/></linearGradient><linearGradient id="paint9_linear_5306_22396" x1="-3.073" y1="320.177" x2="479.44" y2="492.653" gradientUnits="userSpaceOnUse"><stop stop-color="#FB5757"/><stop offset=".664" stop-color="#31347C"/></linearGradient><linearGradient id="paint10_linear_5306_22396" x1="-9.486" y1="309.616" x2="486.893" y2="488.506" gradientUnits="userSpaceOnUse"><stop stop-color="#FB5757"/><stop offset=".664" stop-color="#31347C"/></linearGradient><linearGradient id="paint11_linear_5306_22396" x1="-15.052" y1="298.576" x2="499.586" y2="475.02" gradientUnits="userSpaceOnUse"><stop stop-color="#FB5757"/><stop offset=".664" stop-color="#31347C"/></linearGradient><linearGradient id="paint12_linear_5306_22396" x1="-20.976" y1="289.513" x2="505.444" y2="473.151" gradientUnits="userSpaceOnUse"><stop stop-color="#FB5757"/><stop offset=".664" stop-color="#31347C"/></linearGradient><linearGradient id="paint13_linear_5306_22396" x1="-25.855" y1="280.317" x2="510.524" y2="469.287" gradientUnits="userSpaceOnUse"><stop stop-color="#FB5757"/><stop offset=".664" stop-color="#31347C"/></linearGradient><linearGradient id="paint14_linear_5306_22396" x1="-30.336" y1="269.627" x2="517.668" y2="459.236" gradientUnits="userSpaceOnUse"><stop stop-color="#FB5757"/><stop offset=".664" stop-color="#31347C"/></linearGradient><linearGradient id="paint15_linear_5306_22396" x1="-35.015" y1="258.033" x2="525.721" y2="445.557" gradientUnits="userSpaceOnUse"><stop stop-color="#FB5757"/><stop offset=".664" stop-color="#31347C"/></linearGradient><linearGradient id="paint16_linear_5306_22396" x1="-38.868" y1="246.759" x2="531.76" y2="432.932" gradientUnits="userSpaceOnUse"><stop stop-color="#FB5757"/><stop offset=".664" stop-color="#31347C"/></linearGradient><linearGradient id="paint17_linear_5306_22396" x1="-41.542" y1="234.791" x2="536.788" y2="418.964" gradientUnits="userSpaceOnUse"><stop stop-color="#FB5757"/><stop offset=".664" stop-color="#31347C"/></linearGradient><linearGradient id="paint18_linear_5306_22396" x1="-43.401" y1="223.976" x2="535.445" y2="413.192" gradientUnits="userSpaceOnUse"><stop stop-color="#FB5757"/><stop offset=".664" stop-color="#31347C"/></linearGradient><linearGradient id="paint19_linear_5306_22396" x1="-44.751" y1="215.715" x2="529.169" y2="415.111" gradientUnits="userSpaceOnUse"><stop stop-color="#FB5757"/><stop offset=".664" stop-color="#31347C"/></linearGradient><linearGradient id="paint20_linear_5306_22396" x1="-45.621" y1="205.252" x2="534.423" y2="398.511" gradientUnits="userSpaceOnUse"><stop stop-color="#FB5757"/><stop offset=".664" stop-color="#31347C"/></linearGradient><linearGradient id="paint21_linear_5306_22396" x1="-46.096" y1="194.876" x2="535.369" y2="386.483" gradientUnits="userSpaceOnUse"><stop stop-color="#FB5757"/><stop offset=".664" stop-color="#31347C"/></linearGradient><linearGradient id="paint22_linear_5306_22396" x1="-46.283" y1="184.328" x2="536.161" y2="373.204" gradientUnits="userSpaceOnUse"><stop stop-color="#FB5757"/><stop offset=".664" stop-color="#31347C"/></linearGradient><linearGradient id="paint23_linear_5306_22396" x1="-46.286" y1="173.763" x2="535.512" y2="360.466" gradientUnits="userSpaceOnUse"><stop stop-color="#FB5757"/><stop offset=".664" stop-color="#31347C"/></linearGradient><linearGradient id="paint24_linear_5306_22396" x1="-46.123" y1="166.249" x2="521.043" y2="368.352" gradientUnits="userSpaceOnUse"><stop stop-color="#FB5757"/><stop offset=".664" stop-color="#31347C"/></linearGradient><linearGradient id="paint25_linear_5306_22396" x1="-45.645" y1="158.742" x2="498.543" y2="382.153" gradientUnits="userSpaceOnUse"><stop stop-color="#FB5757"/><stop offset=".664" stop-color="#31347C"/></linearGradient><linearGradient id="paint26_linear_5306_22396" x1="-44.87" y1="151.93" x2="490.64" y2="379.242" gradientUnits="userSpaceOnUse"><stop stop-color="#FB5757"/><stop offset=".664" stop-color="#31347C"/></linearGradient><linearGradient id="paint27_linear_5306_22396" x1="-43.76" y1="144.769" x2="487.054" y2="370.885" gradientUnits="userSpaceOnUse"><stop stop-color="#FB5757"/><stop offset=".664" stop-color="#31347C"/></linearGradient><linearGradient id="paint28_linear_5306_22396" x1="-42.236" y1="138.117" x2="479.768" y2="366.421" gradientUnits="userSpaceOnUse"><stop stop-color="#FB5757"/><stop offset=".664" stop-color="#31347C"/></linearGradient><linearGradient id="paint29_linear_5306_22396" x1="-40.139" y1="125.607" x2="490.513" y2="338.103" gradientUnits="userSpaceOnUse"><stop stop-color="#FB5757"/><stop offset=".664" stop-color="#31347C"/></linearGradient><linearGradient id="paint30_linear_5306_22396" x1="-36.443" y1="113.705" x2="485.949" y2="323.287" gradientUnits="userSpaceOnUse"><stop stop-color="#FB5757"/><stop offset=".664" stop-color="#31347C"/></linearGradient><linearGradient id="paint31_linear_5306_22396" x1="-31.933" y1="102.776" x2="479.076" y2="310.647" gradientUnits="userSpaceOnUse"><stop stop-color="#FB5757"/><stop offset=".664" stop-color="#31347C"/></linearGradient><linearGradient id="paint32_linear_5306_22396" x1="-26.976" y1="92.196" x2="475.036" y2="295.09" gradientUnits="userSpaceOnUse"><stop stop-color="#FB5757"/><stop offset=".664" stop-color="#31347C"/></linearGradient><linearGradient id="paint33_linear_5306_22396" x1="-21.791" y1="81.835" x2="476.357" y2="272.591" gradientUnits="userSpaceOnUse"><stop stop-color="#FB5757"/><stop offset=".664" stop-color="#31347C"/></linearGradient><linearGradient id="paint34_linear_5306_22396" x1="-14.852" y1="72.952" x2="483.66" y2="240.97" gradientUnits="userSpaceOnUse"><stop stop-color="#FB5757"/><stop offset=".664" stop-color="#31347C"/></linearGradient><linearGradient id="paint35_linear_5306_22396" x1="-4.84" y1="62.789" x2="487.012" y2="206.261" gradientUnits="userSpaceOnUse"><stop stop-color="#FB5757"/><stop offset=".664" stop-color="#31347C"/></linearGradient><linearGradient id="paint36_linear_5306_22396" x1="12.723" y1="56.348" x2="474.467" y2="187.701" gradientUnits="userSpaceOnUse"><stop stop-color="#FB5757"/><stop offset=".664" stop-color="#31347C"/></linearGradient><linearGradient id="paint37_linear_5306_22396" x1="27.898" y1="49.908" x2="460.506" y2="174.041" gradientUnits="userSpaceOnUse"><stop stop-color="#FB5757"/><stop offset=".664" stop-color="#31347C"/></linearGradient><linearGradient id="paint38_linear_5306_22396" x1="41.371" y1="43.234" x2="445.659" y2="162.208" gradientUnits="userSpaceOnUse"><stop stop-color="#FB5757"/><stop offset=".664" stop-color="#31347C"/></linearGradient><linearGradient id="paint39_linear_5306_22396" x1="54.719" y1="36.321" x2="429.718" y2="149.559" gradientUnits="userSpaceOnUse"><stop stop-color="#FB5757"/><stop offset=".664" stop-color="#31347C"/></linearGradient><linearGradient id="paint40_linear_5306_22396" x1="68.122" y1="29.149" x2="411.053" y2="135.192" gradientUnits="userSpaceOnUse"><stop stop-color="#FB5757"/><stop offset=".664" stop-color="#31347C"/></linearGradient><linearGradient id="paint41_linear_5306_22396" x1="82.452" y1="22.32" x2="384.76" y2="112.581" gradientUnits="userSpaceOnUse"><stop stop-color="#FB5757"/><stop offset=".664" stop-color="#31347C"/></linearGradient><linearGradient id="paint42_linear_5306_22396" x1="97.432" y1="14.297" x2="343.464" y2="79.181" gradientUnits="userSpaceOnUse"><stop stop-color="#FB5757"/><stop offset=".664" stop-color="#31347C"/></linearGradient><linearGradient id="paint43_linear_5306_22396" x1="109.549" y1="9.236" x2="320.019" y2="61.309" gradientUnits="userSpaceOnUse"><stop stop-color="#FB5757"/><stop offset=".664" stop-color="#31347C"/></linearGradient><linearGradient id="paint44_linear_5306_22396" x1="120.197" y1="6.157" x2="301.456" y2="49.627" gradientUnits="userSpaceOnUse"><stop stop-color="#FB5757"/><stop offset=".664" stop-color="#31347C"/></linearGradient><linearGradient id="paint45_linear_5306_22396" x1="130.928" y1="4.035" x2="284.372" y2="41.383" gradientUnits="userSpaceOnUse"><stop stop-color="#FB5757"/><stop offset=".664" stop-color="#31347C"/></linearGradient><linearGradient id="paint46_linear_5306_22396" x1="144.415" y1="2.31" x2="264.794" y2="35.16" gradientUnits="userSpaceOnUse"><stop stop-color="#FB5757"/><stop offset=".664" stop-color="#31347C"/></linearGradient><linearGradient id="paint47_linear_5306_22396" x1="170.282" y1=".754" x2="231.475" y2="26.383" gradientUnits="userSpaceOnUse"><stop stop-color="#FB5757"/><stop offset=".664" stop-color="#31347C"/></linearGradient></defs></svg>