<svg xmlns="http://www.w3.org/2000/svg" width="311" height="311" fill="none"><path fill="url('#paint0_linear_5306_22445')" d="M220.852 219.411h-.035a4.31 4.31 0 0 1-3.96-2.65 4.2 4.2 0 0 1-.312-1.635 4.284 4.284 0 0 1 4.247-4.268h.035a4.3 4.3 0 0 1 3.063 1.294 4.2 4.2 0 0 1 1.212 2.992 4.285 4.285 0 0 1-4.25 4.267m-.06-7.387a3.12 3.12 0 0 0-3.08 3.12 3 3 0 0 0 .896 2.18c.589.59 1.389.923 2.223.924h.025a3.115 3.115 0 0 0 3.083-3.119 3.02 3.02 0 0 0-.878-2.162 3.15 3.15 0 0 0-2.241-.943z"/><path fill="url('#paint1_linear_5306_22445')" d="M220.497 223.864h-.152a9.389 9.389 0 0 1-6.658-2.87 8.767 8.767 0 0 1-2.49-6.298 9.12 9.12 0 0 1 5.671-8.469 9.1 9.1 0 0 1 3.516-.679 9.4 9.4 0 0 1 6.636 2.87 8.79 8.79 0 0 1 2.49 6.299 9.2 9.2 0 0 1-9.013 9.144zm-.288-17.153a8.02 8.02 0 0 0-7.845 8.002 7.61 7.61 0 0 0 2.166 5.467 8.23 8.23 0 0 0 5.836 2.511h.131a8.03 8.03 0 0 0 7.846-8.003 7.601 7.601 0 0 0-2.166-5.466 8.23 8.23 0 0 0-5.836-2.511z"/><path fill="url('#paint2_linear_5306_22445')" d="M219.849 228.001h-.323a14.58 14.58 0 0 1-10.314-4.521 13.23 13.23 0 0 1-3.696-9.531 14.114 14.114 0 0 1 13.725-14.02h.324a14.58 14.58 0 0 1 10.314 4.52 13.22 13.22 0 0 1 3.695 9.532 14.117 14.117 0 0 1-13.725 14.02m-.618-26.909a12.95 12.95 0 0 0-12.566 12.889 12.08 12.08 0 0 0 3.379 8.699 13.42 13.42 0 0 0 9.507 4.154h.295a12.946 12.946 0 0 0 12.558-12.889 12.1 12.1 0 0 0-3.379-8.699 13.444 13.444 0 0 0-9.506-4.154h-.296"/><path fill="url('#paint3_linear_5306_22445')" d="M218.271 231.835a18.76 18.76 0 0 1-12.978-5.552 19.15 19.15 0 0 1-5.804-13.359 18.805 18.805 0 0 1 18.792-18.914h.125a19.455 19.455 0 0 1 18.91 18.918 20.163 20.163 0 0 1-18.91 18.907zm0-36.658a17.64 17.64 0 0 0-17.623 17.744 17.96 17.96 0 0 0 5.452 12.533 17.73 17.73 0 0 0 12.288 5.218 18.93 18.93 0 0 0 17.758-17.751 18.29 18.29 0 0 0-17.751-17.744z"/><path fill="url('#paint4_linear_5306_22445')" d="M216.1 235.423a22 22 0 0 1-15.116-6.402 23.644 23.644 0 0 1-.231-34.9 21.85 21.85 0 0 1 16.243-6.285c11.537.541 23.829 10.233 23.765 23.794-.071 12.988-12.605 23.27-23.765 23.786-.299 0-.598.021-.896.021zm-.111-46.459a20.84 20.84 0 0 0-14.446 5.982 22.48 22.48 0 0 0-7.214 16.658 22.48 22.48 0 0 0 7.441 16.557 20.74 20.74 0 0 0 15.155 6.078c10.637-.494 22.584-10.275 22.651-22.631.072-12.7-11.882-22.118-22.651-22.623-.313 0-.626-.021-.936-.021"/><path fill="url('#paint5_linear_5306_22445')" d="M215.541 238.724h-.306c-14.45-.214-28.648-14.415-28.659-28.67a30.23 30.23 0 0 1 28.659-28.669 27.7 27.7 0 0 1 10.577 2.307 27.7 27.7 0 0 1 8.884 6.186 29.28 29.28 0 0 1 9.219 20.18 29.65 29.65 0 0 1-9.404 20.148 27.83 27.83 0 0 1-18.97 8.535zm.11-56.176h-.395c-14.151.281-27.524 13.646-27.517 27.503 0 13.675 13.64 27.3 27.514 27.503a26.7 26.7 0 0 0 18.441-8.181 28.48 28.48 0 0 0 9.055-19.322 28.1 28.1 0 0 0-8.874-19.341 26.6 26.6 0 0 0-18.224-8.162"/><path fill="url('#paint6_linear_5306_22445')" d="M213.192 241.818a33.547 33.547 0 0 1-33.018-33.589 33.55 33.55 0 0 1 33.107-33.502h.025a34.969 34.969 0 0 1 33.545 33.542c-.067 16.858-16.684 33.474-33.545 33.542zm.089-65.914a32.753 32.753 0 0 0-32.365 32.365 33.728 33.728 0 0 0 32.265 32.365h.111c16.278-.068 32.318-16.108 32.382-32.365a33.807 33.807 0 0 0-32.365-32.365z"/><path fill="url('#paint7_linear_5306_22445')" d="M211.02 244.71a38.421 38.421 0 0 1-38.379-38.472 38.424 38.424 0 0 1 38.471-38.379 40 40 0 0 1 38.411 38.411c-.064 19.323-19.095 38.354-38.411 38.411zm.092-75.684a37.27 37.27 0 0 0-36.287 37.21 37.27 37.27 0 0 0 36.195 37.3h.092c18.743-.064 37.202-18.523 37.262-37.262a38.84 38.84 0 0 0-37.262-37.248"/><path fill="url('#paint8_linear_5306_22445')" d="M207.929 247.426a41.97 41.97 0 0 1-28.861-12.43 42.3 42.3 0 0 1-10.039-14.059 42.3 42.3 0 0 1-3.585-16.9 42.3 42.3 0 0 1 13.407-31.053 41.1 41.1 0 0 1 13.713-9.136 41.1 41.1 0 0 1 16.198-3.024c23.117.523 43.333 20.756 43.287 43.305-.043 21.73-21.08 42.778-43.287 43.304h-.833zm-.064-85.453a40.26 40.26 0 0 0-28.2 11.85 41.162 41.162 0 0 0 .217 60.348 40.55 40.55 0 0 0 28.851 12.092c21.624-.515 42.106-20.983 42.149-42.141.046-21.937-19.654-41.612-42.149-42.135h-.868"/><path fill="url('#paint9_linear_5306_22445')" d="M205.256 249.973a46.7 46.7 0 0 1-32.162-13.743 47.45 47.45 0 0 1-15.078-34.535 47.471 47.471 0 0 1 14.836-34.64 46.04 46.04 0 0 1 33.357-13.465c25.696.591 48.206 23.118 48.167 48.181-.036 24.626-22.997 47.587-48.167 48.202zm-.085-95.22a44.9 44.9 0 0 0-31.504 13.138 46.295 46.295 0 0 0-10.61 52.176 46.3 46.3 0 0 0 10.852 15.324 45.1 45.1 0 0 0 32.272 13.398c24.576-.587 46.993-23.001 47.028-47.018.036-24.466-21.937-46.438-47.028-47.014h-1.01"/><path fill="url('#paint10_linear_5306_22445')" d="M203.908 252.378h-.423c-27.787-.285-53.074-25.576-53.049-53.061.024-27.908 24.814-52.701 53.049-53.06a51.7 51.7 0 0 1 36.441 15.684 53.47 53.47 0 0 1 16.63 37.376 53.6 53.6 0 0 1-16.769 37.237 52.1 52.1 0 0 1-35.875 15.82zm.125-104.962h-.53c-27.627.359-51.88 24.615-51.901 51.901-.025 26.881 24.711 51.617 51.897 51.89a50.7 50.7 0 0 0 35.467-15.481 52.45 52.45 0 0 0 16.424-36.416 52.29 52.29 0 0 0-16.286-36.526 50.8 50.8 0 0 0-35.075-15.353"/><path fill="url('#paint11_linear_5306_22445')" d="M201.113 254.671h-.455c-30.331-.295-57.947-27.908-57.929-57.94.017-30.504 27.09-57.577 57.929-57.936a56.82 56.82 0 0 1 39.915 17.1 58.36 58.36 0 0 1 18.028 40.84 58.47 58.47 0 0 1-18.138 40.747 56.98 56.98 0 0 1-39.364 17.189zm.082-114.713h-.537c-30.231.356-56.759 26.88-56.781 56.773-.017 29.427 27.03 56.486 56.777 56.774h.445a55.82 55.82 0 0 0 38.542-16.851 57.3 57.3 0 0 0 17.783-39.923 57.19 57.19 0 0 0-17.683-40.011 55.72 55.72 0 0 0-38.543-16.766"/><path fill="url('#paint12_linear_5306_22445')" d="M198.26 256.88h-.519a63.95 63.95 0 0 1-43.746-19.127 62.56 62.56 0 0 1-19.059-43.686c0-33.076 29.359-62.439 62.808-62.819a61.4 61.4 0 0 1 23.529 4.922 61.4 61.4 0 0 1 19.84 13.572 63.3 63.3 0 0 1 19.455 44.332 63.43 63.43 0 0 1-19.48 44.326 61.83 61.83 0 0 1-42.821 18.494zm.075-124.466h-.576c-32.838.356-61.65 29.164-61.657 61.653 0 31.945 29.381 61.33 61.657 61.65h.501a60.64 60.64 0 0 0 42-18.139 62.24 62.24 0 0 0 19.134-43.5 62.1 62.1 0 0 0-19.11-43.5 60.58 60.58 0 0 0-41.967-18.139"/><path fill="url('#paint13_linear_5306_22445')" d="M194.699 259.01a67.22 67.22 0 0 1-62.611-41.596 67.22 67.22 0 0 1 15.103-73.636 67.04 67.04 0 0 1 47.53-20.159 69.124 69.124 0 0 1 67.706 67.696c-.018 36.038-31.653 67.674-67.692 67.692zm.022-134.221a65.86 65.86 0 0 0-46.705 19.817 66.605 66.605 0 0 0 46.683 113.238h.032c35.42-.022 66.508-31.109 66.529-66.529a67.96 67.96 0 0 0-66.529-66.526z"/><path fill="url('#paint14_linear_5306_22445')" d="M191.646 261.098a72.86 72.86 0 0 1-50.909-21.517 71.87 71.87 0 0 1-21.645-51.055 73.84 73.84 0 0 1 72.554-72.554 71.9 71.9 0 0 1 51.072 21.649 72.126 72.126 0 0 1-10.724 111.454 72.12 72.12 0 0 1-40.348 12.041zm0-143.977a72.673 72.673 0 0 0-71.377 71.405 70.72 70.72 0 0 0 21.3 50.23 71.7 71.7 0 0 0 50.077 21.175h.021a72.396 72.396 0 0 0 71.412-71.405 71.7 71.7 0 0 0-21.161-50.101 70.75 70.75 0 0 0-50.244-21.304z"/><path fill="url('#paint15_linear_5306_22445')" d="M188.572 263.146a78.264 78.264 0 0 1-77.429-77.437 78.893 78.893 0 0 1 77.429-77.448 78.21 78.21 0 0 1 77.466 77.448 77.557 77.557 0 0 1-77.448 77.437zm0-153.732a77.72 77.72 0 0 0-76.263 76.295 77.097 77.097 0 0 0 76.263 76.285 76.395 76.395 0 0 0 76.303-76.285 77.04 77.04 0 0 0-76.285-76.281z"/><path fill="url('#paint16_linear_5306_22445')" d="M185.487 265.216a83.44 83.44 0 0 1-57.877-24.435 83.44 83.44 0 0 1-24.432-57.878 84.557 84.557 0 0 1 82.316-82.341 83.34 83.34 0 0 1 82.338 82.341 82.44 82.44 0 0 1-82.327 82.313zm0-163.491a83.39 83.39 0 0 0-81.132 81.178 82.28 82.28 0 0 0 81.146 81.161 81.277 81.277 0 0 0 81.168-81.161 82.17 82.17 0 0 0-24.064-57.096 82.18 82.18 0 0 0-57.096-24.064z"/><path fill="url('#paint17_linear_5306_22445')" d="M181.479 267.301a84.5 84.5 0 0 1-59.395-25.337 88.1 88.1 0 0 1-26.838-61.884 88.02 88.02 0 0 1 27.265-61.529 85.36 85.36 0 0 1 59.946-25.682 89.27 89.27 0 0 1 61.002 26.319 85.68 85.68 0 0 1 26.187 60.902 88.09 88.09 0 0 1-87.2 87.207h-.967zm.099-173.258a84.34 84.34 0 0 0-58.26 25.351 86.85 86.85 0 0 0-26.92 60.696 86.93 86.93 0 0 0 26.49 61.045 83.33 83.33 0 0 0 58.591 24.999h.949a86.92 86.92 0 0 0 86.051-86.044c.021-45.271-40.189-85.478-86.047-86.04h-.854"/><path fill="url('#paint18_linear_5306_22445')" d="M178.458 269.424a89.21 89.21 0 0 1-62.698-26.866 92.99 92.99 0 0 1-28.428-65.224c0-22.883 10.588-46.463 29.025-64.683 17.875-17.666 40.805-27.667 63.069-27.386 49.08.558 92.115 43.589 92.075 92.083a92.996 92.996 0 0 1-92.075 92.072h-.968zm.143-183.014c-21.646 0-43.988 9.834-61.422 27.069-18.22 18.007-28.677 41.281-28.677 63.855a91.8 91.8 0 0 0 28.097 64.395 87.95 87.95 0 0 0 62.83 26.525 91.83 91.83 0 0 0 90.906-90.92c.032-47.879-42.455-90.365-90.924-90.934h-.81"/><path fill="url('#paint19_linear_5306_22445')" d="M175.382 271.611a93.68 93.68 0 0 1-65.758-28.296 97.97 97.97 0 0 1-30.12-68.681c0-23.783 11.288-48.543 30.924-67.93 18.964-18.725 43.035-29.324 66.046-29.032 51.698.622 97.005 45.929 96.955 96.962a98.02 98.02 0 0 1-96.952 96.963h-1.092zm.213-192.78c-22.438 0-45.84 10.424-64.345 28.698-19.131 18.889-30.562 43.973-30.587 67.105a96.8 96.8 0 0 0 29.776 67.852 92.53 92.53 0 0 0 64.943 27.958h1.067a96.843 96.843 0 0 0 95.813-95.803c.05-50.418-44.716-95.18-95.799-95.796h-.868"/><path fill="url('#paint20_linear_5306_22445')" d="M174.176 273.877h-.569a102.93 102.93 0 0 1-71.046-30.875 101.69 101.69 0 0 1-30.79-70.964c0-51.026 50.454-101.469 101.832-101.839a101.18 101.18 0 0 1 70.864 30.231 100.115 100.115 0 0 1 .801 144.062 100.24 100.24 0 0 1-71.092 29.381zm.042-202.518h-.604c-50.795.356-100.651 50.233-100.676 100.675 0 53.349 47.028 100.381 100.676 100.676h.562a99.07 99.07 0 0 0 70.27-29.043 101.54 101.54 0 0 0 21.236-109.12 101.55 101.55 0 0 0-91.464-63.188"/><path fill="url('#paint21_linear_5306_22445')" d="M171.411 276.252h-.537a107.7 107.7 0 0 1-74.42-32.5 106.55 106.55 0 0 1-32.298-74.214c0-25.444 12.228-52.168 33.51-73.319 21.162-21.048 47.857-33.236 73.205-33.4a105.74 105.74 0 0 1 74.215 31.817 106.98 106.98 0 0 1 32.507 74.902 106.5 106.5 0 0 1-31.561 75.946 105.15 105.15 0 0 1-74.621 30.768m.104-212.273h-.637c-53.245.38-105.53 52.662-105.559 105.551-.028 54.971 50.283 105.275 105.559 105.552h.53a103.97 103.97 0 0 0 73.799-30.43 106.599 106.599 0 0 0-15.95-161.763 106.6 106.6 0 0 0-57.746-18.91"/><path fill="url('#paint22_linear_5306_22445')" d="M168.79 278.767h-.508c-58.445-.26-111.634-53.448-111.595-111.595.04-54.884 56.354-111.206 111.595-111.594h.665a110.8 110.8 0 0 1 76.91 33.368 109.56 109.56 0 0 1 34.03 78.611 109.57 109.57 0 0 1-32.934 79.076 110.07 110.07 0 0 1-78.163 32.134m.153-222.03h-.661c-54.665.388-110.4 56.116-110.435 110.432-.032 57.538 52.605 110.175 110.435 110.435h.505a108.9 108.9 0 0 0 77.334-31.8 110.25 110.25 0 0 0 32.588-78.632 110.6 110.6 0 0 0-33.677-77.405 109.64 109.64 0 0 0-76.089-33.026"/><path fill="url('#paint23_linear_5306_22445')" d="M166.343 281.427h-.484c-61.006-.238-116.524-55.76-116.47-116.474.025-27.289 13.48-56.318 36.92-79.635 23.342-23.22 52.339-36.632 79.546-36.838h.68a115.68 115.68 0 0 1 80.275 34.904 114.41 114.41 0 0 1 26.776 126.77 114.4 114.4 0 0 1-25.542 37.781 115 115 0 0 1-81.701 33.492m.195-231.785h-.672c-57.072.395-115.265 58.591-115.314 115.308-.05 60.106 54.909 115.072 115.311 115.307h.476a113.85 113.85 0 0 0 80.887-33.151 115.19 115.19 0 0 0 33.947-82.156 115.42 115.42 0 0 0-35.185-80.734 114.52 114.52 0 0 0-79.45-34.566"/><path fill="url('#paint24_linear_5306_22445')" d="M163.473 284.276c-30.113 0-60.746-13.366-84.077-36.686-23.626-23.626-37.155-54.483-37.113-84.664.078-58.893 62.457-121.279 121.35-121.353h.135c30.331 0 61.173 13.45 84.647 36.924a121 121 0 0 1 36.572 84.429 120.32 120.32 0 0 1-35.24 86.113 120.32 120.32 0 0 1-86.114 35.237zm.295-241.537h-.138c-58.328.078-120.109 61.859-120.187 120.191-.043 29.875 13.362 60.429 36.775 83.838 23.117 23.118 53.448 36.348 83.252 36.348h.16a118.49 118.49 0 0 0 111.255-73.358 118.5 118.5 0 0 0-27.321-130.433c-23.227-23.26-53.768-36.586-83.796-36.586"/><path fill="url('#paint25_linear_5306_22445')" d="M161.464 287.32c-31.337 0-63.21-13.906-87.491-38.161-24.551-24.583-38.621-56.667-38.578-88.072.081-61.261 64.967-126.147 126.226-126.23h.142c31.568 0 63.662 13.989 88.053 38.394a124.28 124.28 0 0 1 38.043 88.429 124.29 124.29 0 0 1-36.514 89.072 125.97 125.97 0 0 1-89.721 36.568zm.302-251.295h-.138c-60.697.081-124.985 64.373-125.063 125.066-.043 31.095 13.902 62.894 38.254 87.242 24.046 24.039 55.625 37.821 86.652 37.821h.16a123.329 123.329 0 0 0 87.371-212.078c-24.185-24.184-55.97-38.055-87.229-38.055"/><path fill="url('#paint26_linear_5306_22445')" d="M159.697 290.589c-32.614 0-65.743-14.426-90.924-39.599-25.475-25.486-40.064-58.833-40.029-91.518.078-63.637 67.458-131.03 131.12-131.105h.135c32.859 0 66.202 14.507 91.507 39.816a130.8 130.8 0 0 1 39.478 91.293 129.4 129.4 0 0 1-37.887 93.231 129.37 129.37 0 0 1-93.233 37.882zm.291-261.052h-.124C96.788 29.612 29.996 96.4 29.918 159.48c-.036 32.364 14.425 65.44 39.688 90.692 24.96 24.953 57.794 39.257 90.098 39.257h.16a128.21 128.21 0 0 0 120.285-79.358 128.21 128.21 0 0 0-29.482-141.056c-25.081-25.088-58.132-39.478-90.693-39.478"/><path fill="url('#paint27_linear_5306_22445')" d="M158.215 294.088c-33.973 0-68.39-14.937-94.462-41.003-26.337-26.333-41.42-60.953-41.374-94.982.032-31.653 15.717-65.487 43.034-92.844 27.318-27.357 61.212-43.105 92.937-43.14h.11c34.221 0 68.841 15 95.01 41.177a135.8 135.8 0 0 1 40.865 94.811 133.9 133.9 0 0 1-39.203 96.78 133.9 133.9 0 0 1-96.782 39.201zm.245-270.807h-.11c-31.419.032-64.996 15.628-92.115 42.796-27.119 27.169-42.679 60.682-42.679 92.026-.032 33.724 14.938 68.041 41.047 94.157 25.852 25.845 59.977 40.662 93.637 40.662h.131c76.772-.093 134.734-58.05 134.822-134.822a134.62 134.62 0 0 0-40.544-93.979c-25.953-25.963-60.266-40.836-94.189-40.836"/><path fill="url('#paint28_linear_5306_22445')" d="M157.028 297.862a140.7 140.7 0 0 1-98.072-42.348c-27.144-27.14-42.704-63.047-42.679-98.516.043-69.734 71.132-140.84 140.865-140.865h.075a141.32 141.32 0 0 1 98.581 42.472 140.84 140.84 0 0 1 42.216 98.393 138.44 138.44 0 0 1-40.532 100.34 138.46 138.46 0 0 1-100.343 40.524zm.185-280.563h-.074c-69.154.04-139.66 70.545-139.699 139.699-.039 35.163 15.411 70.772 42.341 97.702a139.54 139.54 0 0 0 97.247 41.996h.111c79.574-.071 139.627-60.127 139.698-139.698a139.66 139.66 0 0 0-41.857-97.553 140.17 140.17 0 0 0-97.767-42.146"/><path fill="url('#paint29_linear_5306_22445')" d="M156.172 301.924a145.82 145.82 0 0 1-102.155-44.013 146.26 146.26 0 0 1-43.515-101.717c0-34.695 16.602-71.195 45.524-100.146 28.922-28.95 65.473-45.599 100.217-45.61h.032a146.3 146.3 0 0 1 101.92 43.39 145.94 145.94 0 0 1 43.792 102.352c-.046 83.042-62.699 145.698-145.744 145.744zm.103-290.319h-.032c-71.594.018-144.557 72.98-144.578 144.578a145.07 145.07 0 0 0 43.18 100.907 144.65 144.65 0 0 0 101.327 43.671h.071c82.38-.046 144.531-62.201 144.578-144.578a144.76 144.76 0 0 0-43.447-101.515 145.13 145.13 0 0 0-101.096-43.063"/><path fill="url('#paint30_linear_5306_22445')" d="M155.653 306.294A153.49 153.49 0 0 1 5.068 155.674c0-36.508 16.969-74.421 46.556-104.022S119.149 5.06 155.682 5.06a149.27 149.27 0 0 1 105.797 44.71 149.1 149.1 0 0 1 44.812 105.903c-.021 85.845-64.772 150.599-150.62 150.62zm.036-300.06c-36.227 0-73.856 16.84-103.23 46.236C23.086 81.865 6.224 119.475 6.224 155.674a152.326 152.326 0 0 0 149.429 149.454h.036c85.183-.021 149.432-64.274 149.454-149.454a147.9 147.9 0 0 0-11.706-57 147.9 147.9 0 0 0-32.78-48.079 148.12 148.12 0 0 0-104.968-44.36"/><path fill="url('#paint31_linear_5306_22445')" d="M155.479 311C71.209 311 0 239.794 0 155.496c0-38.485 17.296-77.86 47.47-108.034C77.642 17.288 117.01 0 155.478 0h.021A156.814 156.814 0 0 1 311 155.496c0 88.637-66.863 155.486-155.5 155.5zm0-309.833c-38.169 0-77.235 17.174-107.184 47.12C18.345 78.234 1.159 117.32 1.167 155.496c0 83.661 70.683 154.334 154.312 154.334h.021c87.972 0 154.323-66.362 154.333-154.334.011-83.653-70.665-154.315-154.337-154.33z"/><defs><linearGradient id="paint0_linear_5306_22445" x1="215.605" x2="228.599" y1="211.27" y2="211.868" gradientUnits="userSpaceOnUse"><stop offset=".399" stop-color="#382647"/><stop offset="1" stop-color="#4344A2"/></linearGradient><linearGradient id="paint1_linear_5306_22445" x1="209.184" x2="236.995" y1="206.429" y2="207.711" gradientUnits="userSpaceOnUse"><stop offset=".399" stop-color="#382647"/><stop offset="1" stop-color="#4344A2"/></linearGradient><linearGradient id="paint2_linear_5306_22445" x1="202.43" x2="245.046" y1="201.28" y2="203.243" gradientUnits="userSpaceOnUse"><stop offset=".399" stop-color="#382647"/><stop offset="1" stop-color="#4344A2"/></linearGradient><linearGradient id="paint3_linear_5306_22445" x1="195.335" x2="252.771" y1="195.831" y2="198.477" gradientUnits="userSpaceOnUse"><stop offset=".399" stop-color="#382647"/><stop offset="1" stop-color="#4344A2"/></linearGradient><linearGradient id="paint4_linear_5306_22445" x1="187.953" x2="260.202" y1="190.11" y2="193.436" gradientUnits="userSpaceOnUse"><stop offset=".399" stop-color="#382647"/><stop offset="1" stop-color="#4344A2"/></linearGradient><linearGradient id="paint5_linear_5306_22445" x1="180.281" x2="267.342" y1="184.145" y2="188.155" gradientUnits="userSpaceOnUse"><stop offset=".399" stop-color="#382647"/><stop offset="1" stop-color="#4344A2"/></linearGradient><linearGradient id="paint6_linear_5306_22445" x1="172.853" x2="274.096" y1="177.956" y2="182.591" gradientUnits="userSpaceOnUse"><stop offset=".399" stop-color="#382647"/><stop offset="1" stop-color="#4344A2"/></linearGradient><linearGradient id="paint7_linear_5306_22445" x1="164.199" x2="280.934" y1="171.558" y2="176.938" gradientUnits="userSpaceOnUse"><stop offset=".399" stop-color="#382647"/><stop offset="1" stop-color="#4344A2"/></linearGradient><linearGradient id="paint8_linear_5306_22445" x1="155.934" x2="287.433" y1="164.986" y2="171.044" gradientUnits="userSpaceOnUse"><stop offset=".399" stop-color="#382647"/><stop offset="1" stop-color="#4344A2"/></linearGradient><linearGradient id="paint9_linear_5306_22445" x1="147.436" x2="293.746" y1="158.222" y2="164.96" gradientUnits="userSpaceOnUse"><stop offset=".399" stop-color="#382647"/><stop offset="1" stop-color="#4344A2"/></linearGradient><linearGradient id="paint10_linear_5306_22445" x1="138.784" x2="299.914" y1="151.364" y2="158.787" gradientUnits="userSpaceOnUse"><stop offset=".399" stop-color="#382647"/><stop offset="1" stop-color="#4344A2"/></linearGradient><linearGradient id="paint11_linear_5306_22445" x1="130.006" x2="305.943" y1="144.371" y2="152.477" gradientUnits="userSpaceOnUse"><stop offset=".399" stop-color="#382647"/><stop offset="1" stop-color="#4344A2"/></linearGradient><linearGradient id="paint12_linear_5306_22445" x1="121.141" x2="311.897" y1="137.294" y2="146.082" gradientUnits="userSpaceOnUse"><stop offset=".399" stop-color="#382647"/><stop offset="1" stop-color="#4344A2"/></linearGradient><linearGradient id="paint13_linear_5306_22445" x1="112.146" x2="317.752" y1="130.135" y2="139.609" gradientUnits="userSpaceOnUse"><stop offset=".399" stop-color="#382647"/><stop offset="1" stop-color="#4344A2"/></linearGradient><linearGradient id="paint14_linear_5306_22445" x1="103.157" x2="323.513" y1="122.957" y2="133.108" gradientUnits="userSpaceOnUse"><stop offset=".399" stop-color="#382647"/><stop offset="1" stop-color="#4344A2"/></linearGradient><linearGradient id="paint15_linear_5306_22445" x1="94.135" x2="329.323" y1="115.715" y2="126.551" gradientUnits="userSpaceOnUse"><stop offset=".399" stop-color="#382647"/><stop offset="1" stop-color="#4344A2"/></linearGradient><linearGradient id="paint16_linear_5306_22445" x1="85.099" x2="335.105" y1="108.486" y2="120.004" gradientUnits="userSpaceOnUse"><stop offset=".399" stop-color="#382647"/><stop offset="1" stop-color="#4344A2"/></linearGradient><linearGradient id="paint17_linear_5306_22445" x1="76.097" x2="340.9" y1="101.263" y2="113.461" gradientUnits="userSpaceOnUse"><stop offset=".399" stop-color="#382647"/><stop offset="1" stop-color="#4344A2"/></linearGradient><linearGradient id="paint18_linear_5306_22445" x1="67.111" x2="346.747" y1="94.122" y2="107.006" gradientUnits="userSpaceOnUse"><stop offset=".399" stop-color="#382647"/><stop offset="1" stop-color="#4344A2"/></linearGradient><linearGradient id="paint19_linear_5306_22445" x1="58.211" x2="352.661" y1="86.999" y2="100.564" gradientUnits="userSpaceOnUse"><stop offset=".399" stop-color="#382647"/><stop offset="1" stop-color="#4344A2"/></linearGradient><linearGradient id="paint20_linear_5306_22445" x1="49.408" x2="358.673" y1="80.001" y2="94.25" gradientUnits="userSpaceOnUse"><stop offset=".399" stop-color="#382647"/><stop offset="1" stop-color="#4344A2"/></linearGradient><linearGradient id="paint21_linear_5306_22445" x1="40.721" x2="364.796" y1="73.091" y2="88.022" gradientUnits="userSpaceOnUse"><stop offset=".399" stop-color="#382647"/><stop offset="1" stop-color="#4344A2"/></linearGradient><linearGradient id="paint22_linear_5306_22445" x1="32.181" x2="371.083" y1="66.319" y2="81.934" gradientUnits="userSpaceOnUse"><stop offset=".399" stop-color="#382647"/><stop offset="1" stop-color="#4344A2"/></linearGradient><linearGradient id="paint23_linear_5306_22445" x1="23.811" x2="377.521" y1="59.69" y2="75.987" gradientUnits="userSpaceOnUse"><stop offset=".399" stop-color="#382647"/><stop offset="1" stop-color="#4344A2"/></linearGradient><linearGradient id="paint24_linear_5306_22445" x1="15.634" x2="384.154" y1="53.253" y2="70.231" gradientUnits="userSpaceOnUse"><stop offset=".399" stop-color="#382647"/><stop offset="1" stop-color="#4344A2"/></linearGradient><linearGradient id="paint25_linear_5306_22445" x1="7.674" x2="391.014" y1="47.008" y2="64.669" gradientUnits="userSpaceOnUse"><stop offset=".399" stop-color="#382647"/><stop offset="1" stop-color="#4344A2"/></linearGradient><linearGradient id="paint26_linear_5306_22445" x1="-.05" x2="398.143" y1="40.987" y2="59.334" gradientUnits="userSpaceOnUse"><stop offset=".399" stop-color="#382647"/><stop offset="1" stop-color="#4344A2"/></linearGradient><linearGradient id="paint27_linear_5306_22445" x1="-7.483" x2="405.471" y1="35.207" y2="54.232" gradientUnits="userSpaceOnUse"><stop offset=".399" stop-color="#382647"/><stop offset="1" stop-color="#4344A2"/></linearGradient><linearGradient id="paint28_linear_5306_22445" x1="-14.659" x2="413.153" y1="29.692" y2="49.403" gradientUnits="userSpaceOnUse"><stop offset=".399" stop-color="#382647"/><stop offset="1" stop-color="#4344A2"/></linearGradient><linearGradient id="paint29_linear_5306_22445" x1="-21.502" x2="421.078" y1="24.466" y2="44.857" gradientUnits="userSpaceOnUse"><stop offset=".399" stop-color="#382647"/><stop offset="1" stop-color="#4344A2"/></linearGradient><linearGradient id="paint30_linear_5306_22445" x1="-28.005" x2="429.361" y1="19.557" y2="40.629" gradientUnits="userSpaceOnUse"><stop offset=".399" stop-color="#382647"/><stop offset="1" stop-color="#4344A2"/></linearGradient><linearGradient id="paint31_linear_5306_22445" x1="-34.147" x2="438.064" y1="14.967" y2="36.722" gradientUnits="userSpaceOnUse"><stop offset=".399" stop-color="#382647"/><stop offset="1" stop-color="#4344A2"/></linearGradient></defs></svg>