<svg width="311" height="311" fill="none" xmlns="http://www.w3.org/2000/svg"><path d="M220.852 219.411h-.035a4.312 4.312 0 0 1-3.96-2.65 4.183 4.183 0 0 1-.312-1.635 4.284 4.284 0 0 1 4.247-4.268h.035a4.305 4.305 0 0 1 3.063 1.294 4.2 4.2 0 0 1 1.212 2.992 4.285 4.285 0 0 1-4.25 4.267Zm-.06-7.387a3.12 3.12 0 0 0-3.08 3.12 3.009 3.009 0 0 0 .896 2.18c.589.59 1.389.923 2.223.924h.025a3.115 3.115 0 0 0 3.083-3.119 3.023 3.023 0 0 0-.878-2.162 3.151 3.151 0 0 0-2.241-.943h-.028Z" fill="url('#paint0_linear_5306_22445')"/><path d="M220.497 223.864h-.152a9.389 9.389 0 0 1-6.658-2.87 8.767 8.767 0 0 1-2.49-6.298 9.12 9.12 0 0 1 5.671-8.469 9.129 9.129 0 0 1 3.516-.679 9.402 9.402 0 0 1 6.636 2.87 8.785 8.785 0 0 1 2.49 6.299 9.198 9.198 0 0 1-9.013 9.144v.003Zm-.288-17.153a8.022 8.022 0 0 0-7.845 8.002 7.614 7.614 0 0 0 2.166 5.467 8.234 8.234 0 0 0 5.836 2.511h.131a8.028 8.028 0 0 0 7.846-8.003 7.601 7.601 0 0 0-2.166-5.466 8.231 8.231 0 0 0-5.836-2.511h-.132Z" fill="url('#paint1_linear_5306_22445')"/><path d="M219.849 228.001h-.323a14.578 14.578 0 0 1-10.314-4.521 13.23 13.23 0 0 1-3.696-9.531 14.114 14.114 0 0 1 13.725-14.02h.324a14.581 14.581 0 0 1 10.314 4.52 13.222 13.222 0 0 1 3.695 9.532 14.117 14.117 0 0 1-13.725 14.02Zm-.618-26.909a12.948 12.948 0 0 0-12.566 12.889 12.078 12.078 0 0 0 3.379 8.699 13.42 13.42 0 0 0 9.507 4.154h.295a12.946 12.946 0 0 0 12.558-12.889 12.1 12.1 0 0 0-3.379-8.699 13.444 13.444 0 0 0-9.506-4.154h-.296" fill="url('#paint2_linear_5306_22445')"/><path d="M218.271 231.835a18.76 18.76 0 0 1-12.978-5.552 19.146 19.146 0 0 1-5.804-13.359 18.805 18.805 0 0 1 18.792-18.914h.125a19.455 19.455 0 0 1 18.91 18.918 20.163 20.163 0 0 1-18.91 18.907h-.135Zm0-36.658a17.638 17.638 0 0 0-17.623 17.744 17.962 17.962 0 0 0 5.452 12.533 17.73 17.73 0 0 0 12.288 5.218 18.93 18.93 0 0 0 17.758-17.751 18.29 18.29 0 0 0-17.751-17.744h-.124Z" fill="url('#paint3_linear_5306_22445')"/><path d="M216.1 235.423a21.993 21.993 0 0 1-15.116-6.402 23.644 23.644 0 0 1-.231-34.9 21.852 21.852 0 0 1 16.243-6.285c11.537.541 23.829 10.233 23.765 23.794-.071 12.988-12.605 23.27-23.765 23.786-.299 0-.598.021-.896.021v-.014Zm-.111-46.459a20.838 20.838 0 0 0-14.446 5.982 22.475 22.475 0 0 0-7.214 16.658 22.48 22.48 0 0 0 7.441 16.557 20.736 20.736 0 0 0 15.155 6.078c10.637-.494 22.584-10.275 22.651-22.631.072-12.7-11.882-22.118-22.651-22.623-.313 0-.626-.021-.936-.021Z" fill="url('#paint4_linear_5306_22445')"/><path d="M215.541 238.724h-.306c-14.45-.214-28.648-14.415-28.659-28.67a30.229 30.229 0 0 1 28.659-28.669 27.67 27.67 0 0 1 10.577 2.307 27.664 27.664 0 0 1 8.884 6.186 29.28 29.28 0 0 1 9.219 20.18 29.647 29.647 0 0 1-9.404 20.148 27.83 27.83 0 0 1-18.97 8.535v-.017Zm.11-56.176h-.395c-14.151.281-27.524 13.646-27.517 27.503 0 13.675 13.64 27.3 27.514 27.503a26.703 26.703 0 0 0 18.441-8.181 28.478 28.478 0 0 0 9.055-19.322 28.1 28.1 0 0 0-8.874-19.341 26.611 26.611 0 0 0-18.224-8.162Z" fill="url('#paint5_linear_5306_22445')"/><path d="M213.192 241.818a33.547 33.547 0 0 1-33.018-33.589 33.551 33.551 0 0 1 33.107-33.502h.025a34.969 34.969 0 0 1 33.545 33.542c-.067 16.858-16.684 33.474-33.545 33.542l-.114.007Zm.089-65.914a32.753 32.753 0 0 0-32.365 32.365 33.728 33.728 0 0 0 32.265 32.365h.111c16.278-.068 32.318-16.108 32.382-32.365a33.807 33.807 0 0 0-32.365-32.365h-.028Z" fill="url('#paint6_linear_5306_22445')"/><path d="M211.02 244.71a38.421 38.421 0 0 1-38.379-38.472 38.424 38.424 0 0 1 38.471-38.379 40.002 40.002 0 0 1 38.411 38.411c-.064 19.323-19.095 38.354-38.411 38.411l-.092.029Zm.092-75.684a37.27 37.27 0 0 0-36.287 37.21 37.268 37.268 0 0 0 36.195 37.3h.092c18.743-.064 37.202-18.523 37.262-37.262a38.84 38.84 0 0 0-37.262-37.248Z" fill="url('#paint7_linear_5306_22445')"/><path d="M207.929 247.426a41.965 41.965 0 0 1-28.861-12.43 42.306 42.306 0 0 1-10.039-14.059 42.305 42.305 0 0 1-3.585-16.9 42.31 42.31 0 0 1 13.407-31.053 41.135 41.135 0 0 1 13.713-9.136 41.135 41.135 0 0 1 16.198-3.024c23.117.523 43.333 20.756 43.287 43.305-.043 21.73-21.08 42.778-43.287 43.304h-.833v-.007Zm-.064-85.453a40.26 40.26 0 0 0-28.2 11.85 41.162 41.162 0 0 0 .217 60.348 40.55 40.55 0 0 0 28.851 12.092c21.624-.515 42.106-20.983 42.149-42.141.046-21.937-19.654-41.612-42.149-42.135h-.868" fill="url('#paint8_linear_5306_22445')"/><path d="M205.256 249.973a46.693 46.693 0 0 1-32.162-13.743 47.453 47.453 0 0 1-15.078-34.535 47.471 47.471 0 0 1 14.836-34.64 46.042 46.042 0 0 1 33.357-13.465c25.696.591 48.206 23.118 48.167 48.181-.036 24.626-22.997 47.587-48.167 48.202h-.953Zm-.085-95.22a44.907 44.907 0 0 0-31.504 13.138 46.295 46.295 0 0 0-10.61 52.176 46.285 46.285 0 0 0 10.852 15.324 45.105 45.105 0 0 0 32.272 13.398c24.576-.587 46.993-23.001 47.028-47.018.036-24.466-21.937-46.438-47.028-47.014h-1.01" fill="url('#paint9_linear_5306_22445')"/><path d="M203.908 252.378h-.423c-27.787-.285-53.074-25.576-53.049-53.061.024-27.908 24.814-52.701 53.049-53.06a51.708 51.708 0 0 1 36.441 15.684 53.466 53.466 0 0 1 16.63 37.376 53.602 53.602 0 0 1-16.769 37.237 52.09 52.09 0 0 1-35.875 15.82l-.004.004Zm.125-104.962h-.53c-27.627.359-51.88 24.615-51.901 51.901-.025 26.881 24.711 51.617 51.897 51.89a50.7 50.7 0 0 0 35.467-15.481 52.451 52.451 0 0 0 16.424-36.416 52.285 52.285 0 0 0-16.286-36.526 50.8 50.8 0 0 0-35.075-15.353" fill="url('#paint10_linear_5306_22445')"/><path d="M201.113 254.671h-.455c-30.331-.295-57.947-27.908-57.929-57.94.017-30.504 27.09-57.577 57.929-57.936a56.816 56.816 0 0 1 39.915 17.1 58.355 58.355 0 0 1 18.028 40.84 58.473 58.473 0 0 1-18.138 40.747 56.977 56.977 0 0 1-39.364 17.189h.014Zm.082-114.713h-.537c-30.231.356-56.759 26.88-56.781 56.773-.017 29.427 27.03 56.486 56.777 56.774h.445a55.82 55.82 0 0 0 38.542-16.851 57.305 57.305 0 0 0 17.783-39.923 57.187 57.187 0 0 0-17.683-40.011 55.72 55.72 0 0 0-38.543-16.766" fill="url('#paint11_linear_5306_22445')"/><path d="M198.26 256.88h-.519a63.95 63.95 0 0 1-43.746-19.127 62.564 62.564 0 0 1-19.059-43.686c0-33.076 29.359-62.439 62.808-62.819a61.427 61.427 0 0 1 23.529 4.922 61.427 61.427 0 0 1 19.84 13.572 63.308 63.308 0 0 1 19.455 44.332 63.43 63.43 0 0 1-19.48 44.326 61.827 61.827 0 0 1-42.821 18.494l-.007-.014Zm.075-124.466h-.576c-32.838.356-61.65 29.164-61.657 61.653 0 31.945 29.381 61.33 61.657 61.65h.501a60.643 60.643 0 0 0 42-18.139 62.243 62.243 0 0 0 19.134-43.5 62.107 62.107 0 0 0-19.11-43.5 60.579 60.579 0 0 0-41.967-18.139" fill="url('#paint12_linear_5306_22445')"/><path d="M194.699 259.01a67.222 67.222 0 0 1-62.611-41.596 67.224 67.224 0 0 1 15.103-73.636 67.04 67.04 0 0 1 47.53-20.159 69.124 69.124 0 0 1 67.706 67.696c-.018 36.038-31.653 67.674-67.692 67.692l-.036.003Zm.022-134.221a65.865 65.865 0 0 0-46.705 19.817 66.605 66.605 0 0 0 46.683 113.238h.032c35.42-.022 66.508-31.109 66.529-66.529a67.959 67.959 0 0 0-66.529-66.526h-.01Z" fill="url('#paint13_linear_5306_22445')"/><path d="M191.646 261.098a72.857 72.857 0 0 1-50.909-21.517 71.872 71.872 0 0 1-21.645-51.055 73.84 73.84 0 0 1 72.554-72.554 71.893 71.893 0 0 1 51.072 21.649 72.126 72.126 0 0 1-10.724 111.454 72.122 72.122 0 0 1-40.348 12.041v-.018Zm0-143.977a72.673 72.673 0 0 0-71.377 71.405 70.725 70.725 0 0 0 21.3 50.23 71.698 71.698 0 0 0 50.077 21.175h.021a72.396 72.396 0 0 0 71.412-71.405 71.707 71.707 0 0 0-21.161-50.101 70.745 70.745 0 0 0-50.244-21.304h-.028Z" fill="url('#paint14_linear_5306_22445')"/><path d="M188.572 263.146a78.264 78.264 0 0 1-77.429-77.437 78.893 78.893 0 0 1 77.429-77.448 78.208 78.208 0 0 1 77.466 77.448 77.557 77.557 0 0 1-77.448 77.437h-.018Zm0-153.732a77.721 77.721 0 0 0-76.263 76.295 77.097 77.097 0 0 0 76.263 76.285 76.395 76.395 0 0 0 76.303-76.285 77.04 77.04 0 0 0-76.285-76.281l-.018-.014Z" fill="url('#paint15_linear_5306_22445')"/><path d="M185.487 265.216a83.443 83.443 0 0 1-57.877-24.435 83.442 83.442 0 0 1-24.432-57.878 84.557 84.557 0 0 1 82.316-82.341 83.341 83.341 0 0 1 82.338 82.341 82.442 82.442 0 0 1-82.327 82.313h-.018Zm0-163.491a83.39 83.39 0 0 0-81.132 81.178 82.282 82.282 0 0 0 81.146 81.161 81.277 81.277 0 0 0 81.168-81.161 82.174 82.174 0 0 0-24.064-57.096 82.176 82.176 0 0 0-57.096-24.064l-.022-.018Z" fill="url('#paint16_linear_5306_22445')"/><path d="M181.479 267.301a84.496 84.496 0 0 1-59.395-25.337 88.11 88.11 0 0 1-26.838-61.884 88.018 88.018 0 0 1 27.265-61.529 85.359 85.359 0 0 1 59.946-25.682 89.27 89.27 0 0 1 61.002 26.319 85.68 85.68 0 0 1 26.187 60.902 88.09 88.09 0 0 1-87.2 87.207h-.967v.004Zm.099-173.258a84.342 84.342 0 0 0-58.26 25.351 86.852 86.852 0 0 0-26.92 60.696 86.927 86.927 0 0 0 26.49 61.045 83.334 83.334 0 0 0 58.591 24.999h.949a86.92 86.92 0 0 0 86.051-86.044c.021-45.271-40.189-85.478-86.047-86.04h-.854" fill="url('#paint17_linear_5306_22445')"/><path d="M178.458 269.424a89.214 89.214 0 0 1-62.698-26.866 92.987 92.987 0 0 1-28.428-65.224c0-22.883 10.588-46.463 29.025-64.683 17.875-17.666 40.805-27.667 63.069-27.386 49.08.558 92.115 43.589 92.075 92.083a92.996 92.996 0 0 1-92.075 92.072h-.968v.004Zm.143-183.014c-21.646 0-43.988 9.834-61.422 27.069-18.22 18.007-28.677 41.281-28.677 63.855a91.807 91.807 0 0 0 28.097 64.395 87.948 87.948 0 0 0 62.83 26.525 91.832 91.832 0 0 0 90.906-90.92c.032-47.879-42.455-90.365-90.924-90.934h-.81" fill="url('#paint18_linear_5306_22445')"/><path d="M175.382 271.611a93.684 93.684 0 0 1-65.758-28.296 97.974 97.974 0 0 1-30.12-68.681c0-23.783 11.288-48.543 30.924-67.93 18.964-18.725 43.035-29.324 66.046-29.032 51.698.622 97.005 45.929 96.955 96.962a98.018 98.018 0 0 1-96.952 96.963h-1.092l-.003.014Zm.213-192.78c-22.438 0-45.84 10.424-64.345 28.698-19.131 18.889-30.562 43.973-30.587 67.105a96.808 96.808 0 0 0 29.776 67.852 92.534 92.534 0 0 0 64.943 27.958h1.067a96.843 96.843 0 0 0 95.813-95.803c.05-50.418-44.716-95.18-95.799-95.796h-.868" fill="url('#paint19_linear_5306_22445')"/><path d="M174.176 273.877h-.569a102.934 102.934 0 0 1-71.046-30.875 101.685 101.685 0 0 1-30.79-70.964c0-51.026 50.454-101.469 101.832-101.839a101.176 101.176 0 0 1 70.864 30.231 100.115 100.115 0 0 1 .801 144.062 100.236 100.236 0 0 1-71.092 29.381v.004Zm.042-202.518h-.604c-50.795.356-100.651 50.233-100.676 100.675 0 53.349 47.028 100.381 100.676 100.676h.562a99.073 99.073 0 0 0 70.27-29.043 101.542 101.542 0 0 0 21.236-109.12 101.546 101.546 0 0 0-91.464-63.188Z" fill="url('#paint20_linear_5306_22445')"/><path d="M171.411 276.252h-.537a107.708 107.708 0 0 1-74.42-32.5 106.55 106.55 0 0 1-32.298-74.214c0-25.444 12.228-52.168 33.51-73.319 21.162-21.048 47.857-33.236 73.205-33.4a105.738 105.738 0 0 1 74.215 31.817 106.982 106.982 0 0 1 32.507 74.902 106.505 106.505 0 0 1-31.561 75.946 105.147 105.147 0 0 1-74.621 30.768Zm.104-212.273h-.637c-53.245.38-105.53 52.662-105.559 105.551-.028 54.971 50.283 105.275 105.559 105.552h.53a103.972 103.972 0 0 0 73.799-30.43 106.599 106.599 0 0 0-15.95-161.763 106.602 106.602 0 0 0-57.746-18.91" fill="url('#paint21_linear_5306_22445')"/><path d="M168.79 278.767h-.508c-58.445-.26-111.634-53.448-111.595-111.595.04-54.884 56.354-111.206 111.595-111.594h.665a110.81 110.81 0 0 1 76.91 33.368 109.562 109.562 0 0 1 34.03 78.611 109.569 109.569 0 0 1-32.934 79.076 110.068 110.068 0 0 1-78.163 32.134Zm.153-222.03h-.661c-54.665.388-110.4 56.116-110.435 110.432-.032 57.538 52.605 110.175 110.435 110.435h.505a108.904 108.904 0 0 0 77.334-31.8 110.25 110.25 0 0 0 32.588-78.632 110.605 110.605 0 0 0-33.677-77.405 109.636 109.636 0 0 0-76.089-33.026" fill="url('#paint22_linear_5306_22445')"/><path d="M166.343 281.427h-.484c-61.006-.238-116.524-55.76-116.47-116.474.025-27.289 13.48-56.318 36.92-79.635 23.342-23.22 52.339-36.632 79.546-36.838h.68a115.682 115.682 0 0 1 80.275 34.904 114.407 114.407 0 0 1 26.776 126.77 114.409 114.409 0 0 1-25.542 37.781 115.007 115.007 0 0 1-81.701 33.492Zm.195-231.785h-.672c-57.072.395-115.265 58.591-115.314 115.308-.05 60.106 54.909 115.072 115.311 115.307h.476a113.85 113.85 0 0 0 80.887-33.151 115.19 115.19 0 0 0 33.947-82.156 115.416 115.416 0 0 0-35.185-80.734 114.52 114.52 0 0 0-79.45-34.566" fill="url('#paint23_linear_5306_22445')"/><path d="M163.473 284.276c-30.113 0-60.746-13.366-84.077-36.686-23.626-23.626-37.155-54.483-37.113-84.664.078-58.893 62.457-121.279 121.35-121.353h.135c30.331 0 61.173 13.45 84.647 36.924a120.995 120.995 0 0 1 36.572 84.429 120.319 120.319 0 0 1-35.24 86.113 120.322 120.322 0 0 1-86.114 35.237h-.16Zm.295-241.537h-.138c-58.328.078-120.109 61.859-120.187 120.191-.043 29.875 13.362 60.429 36.775 83.838 23.117 23.118 53.448 36.348 83.252 36.348h.16a118.49 118.49 0 0 0 111.255-73.358 118.5 118.5 0 0 0-27.321-130.433c-23.227-23.26-53.768-36.586-83.796-36.586Z" fill="url('#paint24_linear_5306_22445')"/><path d="M161.464 287.32c-31.337 0-63.21-13.906-87.491-38.161-24.551-24.583-38.621-56.667-38.578-88.072.081-61.261 64.967-126.147 126.226-126.23h.142c31.568 0 63.662 13.989 88.053 38.394a124.283 124.283 0 0 1 38.043 88.429 124.29 124.29 0 0 1-36.514 89.072 125.969 125.969 0 0 1-89.721 36.568h-.16Zm.302-251.296h-.138c-60.697.082-124.985 64.374-125.063 125.067-.043 31.095 13.902 62.894 38.254 87.242 24.046 24.039 55.625 37.821 86.652 37.821h.16a123.329 123.329 0 0 0 87.371-212.078c-24.185-24.184-55.97-38.055-87.229-38.055" fill="url('#paint25_linear_5306_22445')"/><path d="M159.697 290.589c-32.614 0-65.743-14.426-90.924-39.599-25.475-25.486-40.064-58.833-40.029-91.518.078-63.637 67.458-131.03 131.12-131.105h.135c32.859 0 66.202 14.507 91.507 39.816a130.798 130.798 0 0 1 39.478 91.293 129.396 129.396 0 0 1-37.887 93.231 129.37 129.37 0 0 1-93.233 37.882h-.167Zm.291-261.052h-.124C96.788 29.612 29.996 96.4 29.918 159.48c-.036 32.364 14.425 65.44 39.688 90.692 24.96 24.953 57.794 39.257 90.098 39.257h.16a128.206 128.206 0 0 0 120.285-79.358 128.207 128.207 0 0 0-29.482-141.056c-25.081-25.088-58.132-39.478-90.693-39.478" fill="url('#paint26_linear_5306_22445')"/><path d="M158.215 294.088c-33.973 0-68.39-14.937-94.463-41.003-26.336-26.333-41.42-60.953-41.373-94.982.032-31.653 15.716-65.487 43.034-92.844 27.318-27.357 61.212-43.105 92.937-43.14h.11c34.221 0 68.841 15 95.01 41.177a135.795 135.795 0 0 1 40.865 94.811 133.889 133.889 0 0 1-39.203 96.78 133.894 133.894 0 0 1-96.782 39.201h-.135Zm.245-270.807h-.11c-31.419.032-64.996 15.628-92.115 42.796-27.119 27.169-42.679 60.682-42.679 92.026-.032 33.724 14.938 68.041 41.047 94.157 25.852 25.845 59.977 40.662 93.637 40.662h.131c76.772-.093 134.734-58.05 134.822-134.822a134.624 134.624 0 0 0-40.544-93.979c-25.953-25.963-60.266-40.836-94.189-40.836" fill="url('#paint27_linear_5306_22445')"/><path d="M157.028 297.862a140.697 140.697 0 0 1-98.072-42.348c-27.144-27.14-42.704-63.047-42.679-98.516.043-69.734 71.132-140.84 140.865-140.865h.075a141.322 141.322 0 0 1 98.581 42.472 140.844 140.844 0 0 1 42.216 98.393 138.436 138.436 0 0 1-40.532 100.34 138.458 138.458 0 0 1-100.343 40.524h-.111Zm.185-280.563h-.074c-69.154.04-139.66 70.545-139.699 139.699-.039 35.163 15.411 70.772 42.341 97.702a139.545 139.545 0 0 0 97.247 41.996h.111c79.574-.071 139.627-60.127 139.698-139.698a139.663 139.663 0 0 0-41.857-97.553 140.169 140.169 0 0 0-97.767-42.146Z" fill="url('#paint28_linear_5306_22445')"/><path d="M156.172 301.924a145.817 145.817 0 0 1-102.155-44.013 146.255 146.255 0 0 1-43.515-101.717c0-34.695 16.602-71.195 45.524-100.146 28.922-28.95 65.473-45.599 100.217-45.61h.032a146.299 146.299 0 0 1 101.92 43.39 145.938 145.938 0 0 1 43.792 102.352c-.046 83.042-62.699 145.698-145.744 145.744h-.071Zm.103-290.319h-.032c-71.594.018-144.557 72.98-144.578 144.578a145.075 145.075 0 0 0 43.18 100.907 144.652 144.652 0 0 0 101.327 43.671h.071c82.38-.046 144.531-62.201 144.578-144.578a144.756 144.756 0 0 0-43.447-101.515 145.128 145.128 0 0 0-101.096-43.063" fill="url('#paint29_linear_5306_22445')"/><path d="M155.653 306.294A153.49 153.49 0 0 1 5.068 155.674c0-36.508 16.969-74.421 46.556-104.022C81.21 22.05 119.149 5.06 155.682 5.06a149.272 149.272 0 0 1 105.797 44.71 149.109 149.109 0 0 1 44.812 105.903c-.021 85.845-64.772 150.599-150.62 150.62h-.018Zm.036-300.06c-36.227 0-73.856 16.84-103.23 46.236C23.086 81.865 6.224 119.475 6.224 155.674a152.326 152.326 0 0 0 149.429 149.454h.036c85.183-.021 149.432-64.274 149.454-149.454a147.943 147.943 0 0 0-11.706-57 147.939 147.939 0 0 0-32.78-48.079 148.12 148.12 0 0 0-104.968-44.36Z" fill="url('#paint30_linear_5306_22445')"/><path d="M155.479 311C71.209 311 0 239.794 0 155.496c0-38.485 17.296-77.86 47.47-108.034C77.642 17.288 117.01 0 155.478 0h.021A156.814 156.814 0 0 1 311 155.496c0 88.637-66.863 155.486-155.5 155.5l-.021.004Zm0-309.833c-38.169 0-77.235 17.174-107.184 47.12C18.345 78.234 1.159 117.32 1.167 155.496c0 83.661 70.683 154.334 154.312 154.334h.021c87.972 0 154.323-66.362 154.333-154.334.011-83.653-70.665-154.315-154.337-154.33h-.017Z" fill="url('#paint31_linear_5306_22445')"/><defs><linearGradient id="paint0_linear_5306_22445" x1="215.605" y1="211.27" x2="228.599" y2="211.868" gradientUnits="userSpaceOnUse"><stop offset=".399" stop-color="#382647"/><stop offset="1" stop-color="#4344A2"/></linearGradient><linearGradient id="paint1_linear_5306_22445" x1="209.184" y1="206.429" x2="236.995" y2="207.711" gradientUnits="userSpaceOnUse"><stop offset=".399" stop-color="#382647"/><stop offset="1" stop-color="#4344A2"/></linearGradient><linearGradient id="paint2_linear_5306_22445" x1="202.43" y1="201.28" x2="245.046" y2="203.243" gradientUnits="userSpaceOnUse"><stop offset=".399" stop-color="#382647"/><stop offset="1" stop-color="#4344A2"/></linearGradient><linearGradient id="paint3_linear_5306_22445" x1="195.335" y1="195.831" x2="252.771" y2="198.477" gradientUnits="userSpaceOnUse"><stop offset=".399" stop-color="#382647"/><stop offset="1" stop-color="#4344A2"/></linearGradient><linearGradient id="paint4_linear_5306_22445" x1="187.953" y1="190.11" x2="260.202" y2="193.436" gradientUnits="userSpaceOnUse"><stop offset=".399" stop-color="#382647"/><stop offset="1" stop-color="#4344A2"/></linearGradient><linearGradient id="paint5_linear_5306_22445" x1="180.281" y1="184.145" x2="267.342" y2="188.155" gradientUnits="userSpaceOnUse"><stop offset=".399" stop-color="#382647"/><stop offset="1" stop-color="#4344A2"/></linearGradient><linearGradient id="paint6_linear_5306_22445" x1="172.853" y1="177.956" x2="274.096" y2="182.591" gradientUnits="userSpaceOnUse"><stop offset=".399" stop-color="#382647"/><stop offset="1" stop-color="#4344A2"/></linearGradient><linearGradient id="paint7_linear_5306_22445" x1="164.199" y1="171.558" x2="280.934" y2="176.938" gradientUnits="userSpaceOnUse"><stop offset=".399" stop-color="#382647"/><stop offset="1" stop-color="#4344A2"/></linearGradient><linearGradient id="paint8_linear_5306_22445" x1="155.934" y1="164.986" x2="287.433" y2="171.044" gradientUnits="userSpaceOnUse"><stop offset=".399" stop-color="#382647"/><stop offset="1" stop-color="#4344A2"/></linearGradient><linearGradient id="paint9_linear_5306_22445" x1="147.436" y1="158.222" x2="293.746" y2="164.96" gradientUnits="userSpaceOnUse"><stop offset=".399" stop-color="#382647"/><stop offset="1" stop-color="#4344A2"/></linearGradient><linearGradient id="paint10_linear_5306_22445" x1="138.784" y1="151.364" x2="299.914" y2="158.787" gradientUnits="userSpaceOnUse"><stop offset=".399" stop-color="#382647"/><stop offset="1" stop-color="#4344A2"/></linearGradient><linearGradient id="paint11_linear_5306_22445" x1="130.006" y1="144.371" x2="305.943" y2="152.477" gradientUnits="userSpaceOnUse"><stop offset=".399" stop-color="#382647"/><stop offset="1" stop-color="#4344A2"/></linearGradient><linearGradient id="paint12_linear_5306_22445" x1="121.141" y1="137.294" x2="311.897" y2="146.082" gradientUnits="userSpaceOnUse"><stop offset=".399" stop-color="#382647"/><stop offset="1" stop-color="#4344A2"/></linearGradient><linearGradient id="paint13_linear_5306_22445" x1="112.146" y1="130.135" x2="317.752" y2="139.609" gradientUnits="userSpaceOnUse"><stop offset=".399" stop-color="#382647"/><stop offset="1" stop-color="#4344A2"/></linearGradient><linearGradient id="paint14_linear_5306_22445" x1="103.157" y1="122.957" x2="323.513" y2="133.108" gradientUnits="userSpaceOnUse"><stop offset=".399" stop-color="#382647"/><stop offset="1" stop-color="#4344A2"/></linearGradient><linearGradient id="paint15_linear_5306_22445" x1="94.135" y1="115.715" x2="329.323" y2="126.551" gradientUnits="userSpaceOnUse"><stop offset=".399" stop-color="#382647"/><stop offset="1" stop-color="#4344A2"/></linearGradient><linearGradient id="paint16_linear_5306_22445" x1="85.099" y1="108.486" x2="335.105" y2="120.004" gradientUnits="userSpaceOnUse"><stop offset=".399" stop-color="#382647"/><stop offset="1" stop-color="#4344A2"/></linearGradient><linearGradient id="paint17_linear_5306_22445" x1="76.097" y1="101.263" x2="340.9" y2="113.461" gradientUnits="userSpaceOnUse"><stop offset=".399" stop-color="#382647"/><stop offset="1" stop-color="#4344A2"/></linearGradient><linearGradient id="paint18_linear_5306_22445" x1="67.111" y1="94.122" x2="346.747" y2="107.006" gradientUnits="userSpaceOnUse"><stop offset=".399" stop-color="#382647"/><stop offset="1" stop-color="#4344A2"/></linearGradient><linearGradient id="paint19_linear_5306_22445" x1="58.211" y1="86.999" x2="352.661" y2="100.564" gradientUnits="userSpaceOnUse"><stop offset=".399" stop-color="#382647"/><stop offset="1" stop-color="#4344A2"/></linearGradient><linearGradient id="paint20_linear_5306_22445" x1="49.408" y1="80.001" x2="358.673" y2="94.25" gradientUnits="userSpaceOnUse"><stop offset=".399" stop-color="#382647"/><stop offset="1" stop-color="#4344A2"/></linearGradient><linearGradient id="paint21_linear_5306_22445" x1="40.721" y1="73.091" x2="364.796" y2="88.022" gradientUnits="userSpaceOnUse"><stop offset=".399" stop-color="#382647"/><stop offset="1" stop-color="#4344A2"/></linearGradient><linearGradient id="paint22_linear_5306_22445" x1="32.181" y1="66.319" x2="371.083" y2="81.934" gradientUnits="userSpaceOnUse"><stop offset=".399" stop-color="#382647"/><stop offset="1" stop-color="#4344A2"/></linearGradient><linearGradient id="paint23_linear_5306_22445" x1="23.811" y1="59.69" x2="377.521" y2="75.987" gradientUnits="userSpaceOnUse"><stop offset=".399" stop-color="#382647"/><stop offset="1" stop-color="#4344A2"/></linearGradient><linearGradient id="paint24_linear_5306_22445" x1="15.634" y1="53.253" x2="384.154" y2="70.231" gradientUnits="userSpaceOnUse"><stop offset=".399" stop-color="#382647"/><stop offset="1" stop-color="#4344A2"/></linearGradient><linearGradient id="paint25_linear_5306_22445" x1="7.674" y1="47.008" x2="391.014" y2="64.669" gradientUnits="userSpaceOnUse"><stop offset=".399" stop-color="#382647"/><stop offset="1" stop-color="#4344A2"/></linearGradient><linearGradient id="paint26_linear_5306_22445" x1="-.05" y1="40.987" x2="398.143" y2="59.334" gradientUnits="userSpaceOnUse"><stop offset=".399" stop-color="#382647"/><stop offset="1" stop-color="#4344A2"/></linearGradient><linearGradient id="paint27_linear_5306_22445" x1="-7.483" y1="35.207" x2="405.471" y2="54.232" gradientUnits="userSpaceOnUse"><stop offset=".399" stop-color="#382647"/><stop offset="1" stop-color="#4344A2"/></linearGradient><linearGradient id="paint28_linear_5306_22445" x1="-14.659" y1="29.692" x2="413.153" y2="49.403" gradientUnits="userSpaceOnUse"><stop offset=".399" stop-color="#382647"/><stop offset="1" stop-color="#4344A2"/></linearGradient><linearGradient id="paint29_linear_5306_22445" x1="-21.502" y1="24.466" x2="421.078" y2="44.857" gradientUnits="userSpaceOnUse"><stop offset=".399" stop-color="#382647"/><stop offset="1" stop-color="#4344A2"/></linearGradient><linearGradient id="paint30_linear_5306_22445" x1="-28.005" y1="19.557" x2="429.361" y2="40.629" gradientUnits="userSpaceOnUse"><stop offset=".399" stop-color="#382647"/><stop offset="1" stop-color="#4344A2"/></linearGradient><linearGradient id="paint31_linear_5306_22445" x1="-34.147" y1="14.967" x2="438.064" y2="36.722" gradientUnits="userSpaceOnUse"><stop offset=".399" stop-color="#382647"/><stop offset="1" stop-color="#4344A2"/></linearGradient></defs></svg>