<svg xmlns="http://www.w3.org/2000/svg" width="24" height="24" fill="none"><rect width="24" height="24" fill="#1969ff" rx="12"/><g clip-path="url('#A')"><path fill="#fff" d="m7.322 17.563 1.122.581 3.429 1.797q.23.118.458-.003l2.436-1.278 2.133-1.115c.201-.104.302-.253.302-.478l-.001-9.983a.52.52 0 0 0-.294-.495l-4.394-2.497a.64.64 0 0 0-.382-.091l-.189.087-.481.239-2.004 1.044-1.231.637-.889.46a1 1 0 0 0-.26.184.8.8 0 0 0-.076.346l.001 9.751.001.38a.43.43 0 0 0 .217.37l.103.064zm8.31-.368-.002.006-.006-.002-.043.017a8 8 0 0 1-.63.334l-.096.054-2.64 1.388c-.087.046-.15.043-.234-.002l-2.738-1.439-.01-.001-.003-.009-.006-.005-.985-.517c-.031.001-.04-.019-.045-.044-.211-.029-.284-.109-.284-.308v-3.828q.002-.054.006-.121c.109.052.21.089.298.15l.072.028 1.788.863 1.17.559.603.301q.254.138.509-.004l.807-.44 1.45-.786.602-.328c.144-.087.287-.175.443-.239.195-.131.409-.229.63-.354v3.797l-.001.521c0 .03.012.063-.03.083l-.592.301h.001l-.022.018-.011.006zM8.437 6.915l.096-.057 1.073-.556 2.429-1.265c.167-.09.271-.042.397.035l.056.035 2.987 1.697.337.197-.062.04-3.398 1.826c-.057.031-.101.024-.155-.004L9.261 7.344zm-.518 4.331V7.653l3.408 1.762zm7.874.478-3.231 1.762v-3.432zm-4.152-1.465v.131l.001 1.683.018 1.397c.005.058-.025.059-.068.038l-.21-.101-2.25-1.087-.692-.342zm1.605-.857.101-.058 1.039-.558 1.797-.964c.086-.047.108-.042.108.059v2.985c0 .092-.016.104-.102.059l-1.29-.667-1.652-.856z"/></g><defs><clipPath id="A"><path fill="#fff" d="M7 4h10.202v16H7z"/></clipPath></defs></svg>