<svg xmlns="http://www.w3.org/2000/svg" width="200" height="200"><g id="logo-symbol" transform="translate(-83 -294)"><path id="Rectangle_37" transform="translate(83 294)" fill="none" d="M0 0h200v200H0z"/><g id="symbol" transform="translate(-224.332 64.165)"><path id="Path_185" d="M808.276 400.23A61.3 61.3 0 0 0 747 461.543v.228a3.016 3.016 0 0 0 3.017 2.845h116.517a3.015 3.015 0 0 0 3.016-2.845l.005-.1v-.128a61.3 61.3 0 0 0-61.279-61.313Z" transform="translate(-382.261 -154.395)" fill="#53cbc8"/><path id="Path_186" d="M673.015 617.7a3.729 3.729 0 1 1-3.73-3.732 3.73 3.73 0 0 1 3.73 3.732Z" transform="translate(-348.846 -242.095)" fill="#e1147b"/><path id="Path_187" d="M853.29 585.287H728.267a3.677 3.677 0 0 0-3.231 5.423l.062.116a3.668 3.668 0 0 0 3.232 1.924h124.9a3.669 3.669 0 0 0 3.232-1.924l.062-.116a3.678 3.678 0 0 0-3.234-5.423Z" transform="translate(-373.07 -230.326)" fill="#e1147b"/><path id="Path_188" d="M869.9 527.924H728.262a3.681 3.681 0 0 0-3.666 3.887c0 .039 0 .078.006.117a3.665 3.665 0 0 0 3.667 3.459H869.9a3.666 3.666 0 0 0 3.667-3.459c0-.039 0-.078.006-.117a3.681 3.681 0 0 0-3.673-3.887Z" transform="translate(-373.068 -206.789)" fill="#e1147b"/><path id="Path_189" d="M833.6 671.331h-63.833a3.675 3.675 0 0 0-1.638 6.964l.234.117a3.657 3.657 0 0 0 1.637.382h63.364a3.662 3.662 0 0 0 1.638-.382l.233-.117a3.675 3.675 0 0 0-1.635-6.964Z" transform="translate(-390.097 -265.632)" fill="#e1147b"/><path id="Path_190" d="M899.737 642.649h-63.831a3.676 3.676 0 0 0-1.637 6.964l.233.117a3.668 3.668 0 0 0 1.638.381h63.36a3.665 3.665 0 0 0 1.638-.381l.233-.117a3.676 3.676 0 0 0-1.634-6.964Z" transform="translate(-417.236 -253.863)" fill="#e1147b"/><path id="Path_191" d="m798.341 620.256-.108-.116a3.674 3.674 0 0 1 2.694-6.173h103.6a3.674 3.674 0 0 1 2.694 6.173l-.108.116a3.7 3.7 0 0 1-2.693 1.174H801.034a3.7 3.7 0 0 1-2.693-1.174Z" transform="translate(-402.878 -242.095)" fill="#e1147b"/><path id="Path_192" d="M691.913 613.968h49.472a3.676 3.676 0 0 1 1.637 6.964l-.233.117a3.657 3.657 0 0 1-1.637.382h-49a3.658 3.658 0 0 1-1.638-.382l-.233-.117a3.676 3.676 0 0 1 1.632-6.964Z" transform="translate(-358.154 -242.095)" fill="#e1147b"/><path id="Path_193" d="M709.367 531.655a3.729 3.729 0 1 1-3.73-3.731 3.73 3.73 0 0 1 3.73 3.731Z" transform="translate(-363.763 -206.789)" fill="#e1147b"/><path id="Path_194" d="m786.534 561.345.031-.116a3.672 3.672 0 0 0-3.549-4.622H679.4a3.671 3.671 0 0 0-3.549 4.622l.032.116a3.681 3.681 0 0 0 3.547 2.724h103.556a3.683 3.683 0 0 0 3.548-2.724" transform="translate(-353.019 -218.558)" fill="#e1147b"/><path id="Path_195" d="M660.5 560.337a3.729 3.729 0 1 1-3.729-3.731 3.731 3.731 0 0 1 3.729 3.731Z" transform="translate(-343.711 -218.558)" fill="#e1147b"/><path id="Path_196" d="M709.367 589.018a3.729 3.729 0 1 1-3.73-3.731 3.731 3.731 0 0 1 3.73 3.731Z" transform="translate(-363.763 -230.326)" fill="#e1147b"/><path id="Path_197" d="M817.008 646.381a3.729 3.729 0 1 1-3.73-3.731 3.73 3.73 0 0 1 3.73 3.731Z" transform="translate(-407.928 -253.863)" fill="#e1147b"/><path id="Path_198" d="M750.868 675.063a3.729 3.729 0 1 1-3.729-3.731 3.73 3.73 0 0 1 3.729 3.731Z" transform="translate(-380.79 -265.632)" fill="#e1147b"/></g></g></svg>