<svg xmlns="http://www.w3.org/2000/svg" id="Layer_2" data-name="Layer 2" viewBox="0 0 395 395"><g id="Layer_1-2" data-name="Layer 1"><circle cx="197.5" cy="197.5" r="197.5" style="fill:#958fdc;stroke-width:0"/><path d="M329.17 242.44c4.84-14.03 7.49-29.09 7.49-44.77v-1.1h-.04C336.03 121 274.31 59.94 198.29 59.94S59.94 121.59 59.94 197.67c0 15.73 2.65 30.83 7.52 44.91l.02.07v.02s.02.04.04.07c.03.08.06.18.1.28.03.1.07.2.09.28l.03.09v.02c.39 1.23.2 2.22-.3 3.14-.53.97-1.42 1.86-2.49 2.76-.35.29-.73.6-1.12.91-.72.58-1.46 1.18-2.05 1.74-.9.87-1.82 2-1.82 3.41 0 1.09.49 1.98 1.21 2.68.69.68 1.63 1.22 2.64 1.66 1.85.82 4.25 1.46 6.58 2.08.2.05.4.11.6.16 2.57.69 5.01 1.38 6.81 2.28 1.84.93 2.58 1.86 2.58 2.88 0 .39-.16.81-.59 1.3-.44.5-1.11 1-2.01 1.52-1.8 1.04-4.23 1.97-6.79 2.94h-.03c-2.49.96-5.09 1.96-7.07 3.1-1 .58-1.9 1.23-2.56 1.98-.67.77-1.14 1.69-1.14 2.77 0 1.61 1.12 2.75 2.47 3.54 1.37.8 3.24 1.42 5.38 1.93 4.28 1.01 9.96 1.65 15.57 2.24.45.05.9.1 1.34.14 5.18.54 10.22 1.08 14.1 1.84 2.11.42 3.8.9 4.95 1.45 1.22.58 1.47 1.07 1.49 1.31.06.71-.37 1.42-1.7 2.25-1.31.82-3.13 1.51-5.12 2.26-1.93.74-4.01 1.53-5.61 2.53-1.58.99-3 2.38-3.03 4.41-.03 1.86 1.48 3.11 3.19 3.95 1.79.88 4.28 1.57 7.17 2.13 5.79 1.13 13.48 1.81 21.11 2.4 1.56.12 3.12.23 4.67.35 6.02.44 11.76.87 16.29 1.44 2.85.36 5.16.78 6.74 1.27.79.25 1.32.5 1.63.72.12.09.18.15.21.19 0 .01-.02.04-.05.07-.08.1-.25.24-.56.41-.62.34-1.59.65-2.87.94-2.34.52-5.4.9-8.6 1.29-.28.03-.57.07-.86.1-3.46.42-7.02.88-9.71 1.59-1.34.36-2.56.8-3.47 1.38-.9.58-1.7 1.45-1.7 2.68 0 1.34 1.08 2.28 2.2 2.93 1.2.69 2.9 1.31 4.96 1.87 4.15 1.12 10.05 2.09 17.17 2.87 14.26 1.57 33.55 2.44 53.76 2.44s37.33-1.12 49.4-2.85c6.03-.86 10.85-1.89 14.18-3.02 1.66-.56 3.02-1.17 3.98-1.84.92-.64 1.75-1.52 1.75-2.69s-.8-1.98-1.63-2.49c-.85-.53-1.99-.94-3.23-1.27-2.51-.68-5.81-1.15-9.01-1.6l-.38-.05c-3.1-.43-6.07-.85-8.27-1.4-1.15-.29-1.99-.6-2.51-.91-.25-.15-.36-.27-.4-.33v-.01c.02-.11.09-.3.42-.56.34-.28.89-.58 1.67-.88 1.55-.59 3.79-1.09 6.54-1.51 5.06-.77 11.62-1.25 18.33-1.75l1.69-.12c7.25-.54 14.56-1.12 20.05-2.12 2.74-.5 5.11-1.12 6.82-1.94 1.64-.78 3.11-1.95 3.11-3.75 0-.92-.4-1.7-.96-2.32-.55-.61-1.28-1.12-2.07-1.57-1.47-.83-3.38-1.55-5.19-2.23-.12-.04-.24-.09-.35-.13-1.98-.75-3.8-1.46-5.11-2.27-1.36-.85-1.72-1.52-1.67-2.08.03-.25.32-.77 1.66-1.42 1.25-.6 3.07-1.15 5.32-1.65 4.39-.97 10.16-1.71 16.01-2.47l.43-.06c5.96-.77 11.98-1.55 16.51-2.61 2.26-.53 4.23-1.14 5.65-1.9 1.35-.72 2.63-1.78 2.63-3.37 0-1.14-.59-2.06-1.36-2.78s-1.81-1.33-2.95-1.86c-2.23-1.05-5.16-1.96-8-2.84l-.23-.07c-2.96-.92-5.81-1.82-7.92-2.84-1.05-.51-1.85-1.02-2.37-1.52-.51-.49-.67-.9-.66-1.25 0-.37.17-.76.66-1.21.51-.47 1.3-.92 2.35-1.36 2.1-.89 4.94-1.59 7.89-2.3l.3-.07c2.8-.68 5.68-1.38 7.88-2.26 1.13-.46 2.17-1 2.94-1.67.78-.69 1.36-1.6 1.33-2.75-.04-1.6-1.04-2.69-2.05-3.51-.51-.41-1.09-.8-1.64-1.17l-.06-.04c-.54-.36-1.07-.72-1.57-1.1-1.03-.79-1.84-1.64-2.26-2.73-.4-1.07-.48-2.54.27-4.7ZM291 235.83l-.08.2c-2.22 5-5.79 6.99-9.08 8.31-.65.26-1.29.49-1.91.72-.17.06-.35.13-.52.19-.77.28-1.53.57-2.21.9-1.34.64-2.6 1.55-3.03 3.15-.24.88-.1 1.7.32 2.42.39.68 1.01 1.22 1.66 1.66 1.3.88 3.12 1.6 4.81 2.27l.09.03c1.73.68 3.36 1.33 4.58 2.07 1.28.79 1.72 1.46 1.72 2.07 0 0 0 .02-.01.05-.02.03-.05.09-.14.18-.19.18-.53.4-1.07.63-1.08.47-2.7.87-4.75 1.24-3.5.62-8.01 1.08-12.7 1.55l-2.33.24c-5.47.56-11.01 1.19-15.17 2.18-2.07.49-3.89 1.1-5.2 1.88-1.29.77-2.38 1.9-2.29 3.5.07 1.22 1.05 2.04 1.97 2.57.99.57 2.33 1.06 3.82 1.49 2.88.83 6.63 1.55 10.32 2.25l.46.09c3.88.74 7.64 1.47 10.4 2.32 1.39.43 2.43.87 3.09 1.3.33.22.5.4.59.52.07.11.07.15.06.18-.03.31-.36.84-1.67 1.44-1.25.57-3.05 1.04-5.3 1.44-4.49.8-10.43 1.25-16.43 1.7l-.38.03c-5.84.44-11.71.88-16.19 1.64-2.28.39-4.27.88-5.74 1.53-1.38.62-2.73 1.58-2.83 3.15-.07 1.13.52 2.01 1.28 2.66.75.63 1.77 1.14 2.88 1.57 2.24.86 5.22 1.54 8.1 2.19l.45.1c2.78.62 5.44 1.21 7.45 1.92 1.06.37 1.86.75 2.37 1.13.52.38.57.62.57.72s0 .21-.42.54c-.43.33-1.15.7-2.23 1.07-2.16.73-5.47 1.37-9.95 1.9-8.94 1.04-22.31 1.59-39.94 1.59-20.08 0-34.95-.54-44.52-1.63-4.8-.55-8.17-1.23-10.18-2.01-1.02-.4-1.54-.76-1.76-1.03-.09-.11-.1-.17-.1-.19 0-.01 0-.07.05-.19s.05-.1.35-.28c.28-.17.68-.35 1.23-.53 1.09-.37 2.58-.69 4.38-1 2.65-.45 5.85-.84 9.18-1.25 1.18-.14 2.38-.29 3.57-.44 4.55-.58 9.1-1.24 12.5-2.18 1.69-.47 3.19-1.03 4.28-1.75 1.07-.7 1.99-1.73 1.91-3.14-.05-.89-.62-1.53-1.22-1.97-.61-.45-1.43-.81-2.35-1.12-1.85-.62-4.43-1.12-7.43-1.55-6.01-.85-14-1.43-21.98-2l-.53-.04c-7.83-.56-15.61-1.11-21.6-1.91-3.07-.41-5.6-.88-7.42-1.42-.91-.28-1.58-.55-2.04-.83-.22-.13-.37-.25-.45-.34-.09-.09-.1-.13-.1-.13-.07-.24-.05-.47.22-.79.31-.37.89-.79 1.77-1.23 1.75-.88 4.28-1.64 6.97-2.44.18-.05.35-.1.53-.16 2.48-.73 5.05-1.48 7.03-2.35 1.06-.47 2.03-1 2.75-1.64s1.31-1.5 1.28-2.58c-.03-1.22-.9-2.04-1.8-2.58-.92-.55-2.16-.99-3.53-1.35-2.5-.66-5.73-1.17-8.97-1.68-.33-.05-.66-.1-.98-.15-3.6-.57-7.12-1.16-9.78-1.98-1.33-.41-2.36-.86-3.06-1.34s-.92-.9-.95-1.22c-.01-.12.01-.26.22-.48.24-.25.65-.52 1.28-.82 1.12-.52 2.6-.96 4.22-1.44.22-.06.44-.13.66-.2 1.81-.54 3.76-1.15 5.22-1.99 1.44-.83 2.78-2.12 2.53-4.1-.17-1.3-.85-2.2-1.7-2.91-.62-.52-1.41-1-2.19-1.47-.22-.13-.43-.26-.64-.39-2.01-1.25-4.3-2.91-6.03-6.5a99.3 99.3 0 0 1-9.26-41.95c0-55.13 44.91-99.84 100.3-99.84s100.3 44.71 100.3 99.84c0 13.52-2.71 26.41-7.6 38.17Z" style="stroke-width:0;fill:#2b1d3c"/></g></svg>