<svg xmlns="http://www.w3.org/2000/svg" width="170" height="133" fill="none" viewBox="105 -25 180 180"><path fill="url('#paint11_linear_2066_13849')" fill-rule="evenodd" stroke="url('#paint12_linear_2066_13849')" d="M161.5 20c.164 0 4.263 4.479 4.436 4.5 0 0 2.703 2.714 2.993 4.02.285 1.197 1.939 2.622 3.022 3.592 5.053 4.571.342-8.252 2.049-7.612 3.5 1.5 8.654 14.69 9.185 17.078.473 2.125-1.009-6.078 1.815-6.078 1.369 0 8.05 8.53 8.221 9.214.286 1.084.343 2.338.514 3.536.103.932.33 3.535 1.539 3.535 1.027 0 1.928-1.29 2.615-1.977l.519-.602.603-.603.904-.904c2.411-2.411.904-.904 1.205-1.206.904-.904 4.994-4.592 7.161-6.417A6363 6363 0 0 0 224.283 26c11.551 0 20.666-7 32.217-7l6.932 7c-16.145 13.215-32.318 26.397-48.484 39.586-.342.228-.57.627-.57.912 0 .171.057.456.171.627C228.756 80.43 243.864 93.573 258.5 107c2.2 2.018 4.779 5.02 6.932 7h-41s-20.217-18.085-30.07-27.087c-.171-.114-.399-.285-.627-.342-.114-.057-.285 0-.399 0-.286 0-.457-.114-.799.17-1.768 1.255-3.707 3.537-5.36 5.19-1.768 1.654-3.536 3.479-5.247 5.133-5.702 5.36-16.999 14.273-22.93 18.436l-6-5.5c-1-.5-.381-1.486-.381-1.988-.057-.399-.798-.684-1.14-.684-3.25 0-11.979 6.672-14.656 6.672L128 107l1.5-1.5-5-4.5c8.941-7.222 21.56-11.918 30.4-18.991C155.186 81.78 163 68 165.5 68c1 0 7 7.329 7 7.5 0 10.176 16.086-1.112.5-4.5-.798-.171-7.886-8.088-8-9l-.804-1.775C161.352 60.225 153 51.5 153 51.5c-1.835-2.936 1.411-5.297-3.004-6.558-1.019-.305-.974-1.633-1.482-2.395-.742-1.54-2.509-2.452-3.764-3.307-.57-.4-1.198-.741-1.711-1.198-3.307-2.965-14.229-11.975-14.229-11.975L122 19z" clip-rule="evenodd"/><path fill="#000" fill-rule="evenodd" stroke="url('#paint13_linear_2066_13849')" d="M159.363 19.067c.684 0 1.567.135 2.137.933.399.456.315 1.006.429 1.52.285 1.197 1.939 2.622 3.022 3.592 1.198 1.083 1.711 1.768 2.851 1.768.114 0 .628 0 .97-.171.741-.286 1.254-1.141 1.996-1.711.627-.57 1.368-.856 1.995-.856 4.192 0 2.798 7.628 3.422 10.436.456 1.654 2.566 2.851 3.821 2.851 1.539 0 3.079-2.28 4.334-2.28 1.368 0 1.71 1.881 1.881 2.565.286 1.084.343 2.338.514 3.536.103.932.33 3.535 1.539 3.535 1.027 0 1.928-1.29 2.615-1.977l.519-.602.603-.603.904-.904c2.411-2.411.904-.904 1.205-1.206.904-.904 4.994-4.592 7.161-6.417A6363 6363 0 0 0 217.283 19h39.149c-16.145 13.215-32.318 26.397-48.484 39.586-.342.228-.57.627-.57.912 0 .171.057.456.171.627C223.891 75.43 241.953 91.843 258.432 107h-41s-20.217-18.085-30.07-27.087c-.171-.114-.399-.285-.627-.342-.114-.057-.285 0-.399 0-.286 0-.457-.114-.799.17-1.768 1.255-3.707 3.537-5.36 5.19-1.768 1.654-3.536 3.479-5.247 5.133-5.702 5.36-12.089 11.062-18.02 15.225-.912.627-1.938.97-2.908.97-.399 0-1.311-.114-1.311-.799 0-.798 1.254-1.482 1.881-2.053.514-.513 1.141-.969 1.768-1.425 3.422-2.737 7.413-5.874 10.721-9.295.969-.97 1.882-2.224 2.68-3.308.97-1.425 2.224-2.965 2.338-4.39.114-.343.285-.97.285-1.084 0-.627-.399-1.14-.912-1.14-.57 0-1.882.74-2.224.969-4.448 3.136-9.01 7.527-13.23 11.69-.969.97-7.698 7.527-9.865 7.527-.171 0-.342-.171-.514-.285v-1.654c-.057-.399-.798-.684-1.14-.684-3.25 0-12.375 6.672-14.656 6.672h-1.887s-.108-.114-.108-.285c0-.627 1.995-2.053 2.338-2.338 1.425-1.141 2.851-2.338 4.334-3.365 1.083-.855 2.338-1.596 3.478-2.452.171-.114.57-.627.57-.912 0-.456-.456-.456-.627-.456-1.312 0-9.808 4.22-12.488 4.22-.4 0-.628-.115-.628-.457 0-.97 6.33-6.044 7.185-6.729 2.966-2.395 6.045-4.96 9.124-7.413 2.167-1.768 4.505-3.593 6.786-5.417 1.882-1.54 3.992-3.194 5.988-4.79.285-.228 9.445-8.606 11.612-8.606.228 0 .5.329.5.5 0 1.254-3.216 5.311-3.672 5.882-.285.285-4.733 6.044-4.733 6.785 0 .286.513.457.627.457.171 0 1.141-.342 1.654-.627 2.452-1.255 4.847-3.878 7.356-5.988 1.939-1.71 4.448-3.878 6.33-5.874.513-.513.627-1.197.855-1.71.114-.457.285-.97.342-1.426v-1.14c-.285-1.825-1.311-2.567-2.68-2.567-1.539 0-2.908.856-4.334.856-.171 0-1.482-.286-1.482-.286-.929-.199-2.338-1.422-2.338-2.452v-4.162c-.457-2.167-1.939-3.479-3.593-3.479-.171 0-2.965.456-3.136.456-2.11 0-3.955-1.014-4.696-2.725-.741-1.71-.437-3.719-.836-5.372-.171-.742-.456-1.369-.912-2.053-.171-.342-1.027-1.198-1.483-1.198h-1.882c-1.882-.399-1.539-2.623-3.136-3.478-.399-.228-.855-.343-1.255-.457-.57-.17-.798-.798-1.026-1.197-.057-.114-.057-.285-.114-.456a3 3 0 0 0-.342-.742c-.742-1.54-2.509-2.452-3.764-3.307-.57-.4-1.198-.741-1.711-1.198C132.732 28.077 122 19 122 19z" clip-rule="evenodd"/><defs><linearGradient id="paint11_linear_2066_13849" x1="264.936" x2="125.056" y1="23.063" y2="109.199" gradientUnits="userSpaceOnUse"><stop stop-color="#80FF7D"/><stop offset=".5" stop-color="#80FFFF"/><stop offset="1" stop-color="#FF7DF2"/></linearGradient><linearGradient id="paint12_linear_2066_13849" x1="264.936" x2="125.056" y1="23.063" y2="109.199" gradientUnits="userSpaceOnUse"><stop stop-color="#80FF7D"/><stop offset=".5" stop-color="#80FFFF"/><stop offset="1" stop-color="#FF7DF2"/></linearGradient><linearGradient id="paint13_linear_2066_13849" x1="257.96" x2="128.05" y1="22.705" y2="106.148" gradientUnits="userSpaceOnUse"><stop stop-color="#80FF7D"/><stop offset=".5" stop-color="#80FFFF"/><stop offset="1" stop-color="#FF7DF2"/></linearGradient></defs></svg>