<svg xmlns="http://www.w3.org/2000/svg" id="svg" width="400" height="400" version="1.1"><g id="svgg" fill-rule="evenodd" stroke="none"><circle id="circle0" cx="200" cy="200" r="200" fill="#020321"/><path id="path0" fill="#f904aa" d="M159.4 91.978c-30.204.247-28.559.091-31.339 2.959-3.127 3.226-2.861-6.82-2.861 108.175v102.333l.862 2.553c2.903 8.596 15.243 8.894 17.534.423.211-.781.629-1.781.928-2.221s.778-1.66 1.065-2.71.664-1.999.84-2.108.616-1.221.98-2.472.916-2.638 1.226-3.082c.311-.443.565-1.095.565-1.449s.449-1.529.998-2.611.999-2.252 1-2.6.445-1.508.988-2.579 1.099-2.496 1.238-3.168c.14-.672.567-1.766.949-2.433.383-.666.828-1.736.989-2.378.161-.641.577-1.806.924-2.588.752-1.691 1.88-4.599 2.949-7.6.427-1.199 1.02-2.551 1.318-3.006s.675-1.455.838-2.222.624-2.024 1.026-2.794c.401-.77.942-2.12 1.201-3s.693-1.96.963-2.4c.271-.44.621-1.34.779-2s.618-1.92 1.024-2.8c.405-.88.96-2.32 1.233-3.2s.741-1.955 1.04-2.389.543-1.078.543-1.432.443-1.519.986-2.59 1.101-2.496 1.243-3.168.586-1.851.987-2.621 1.025-2.343 1.387-3.495.804-2.186.982-2.296.45-.877.604-1.705c.153-.827.612-2.134 1.018-2.904s.957-2.12 1.223-3 .728-1.955 1.027-2.389.543-1.078.543-1.432.443-1.519.986-2.59 1.101-2.496 1.243-3.168.586-1.851.988-2.621c.401-.77.942-2.12 1.201-3s.69-1.96.957-2.4.722-1.66 1.01-2.71.668-1.999.844-2.108.617-1.228.983-2.489c.365-1.261.827-2.492 1.027-2.736.201-.244.724-1.459 1.163-2.7l1.603-4.535c.443-1.254 1.05-2.651 1.348-3.106s.673-1.455.833-2.222.6-1.934.976-2.594c.377-.66.924-2.06 1.216-3.11.293-1.051.675-1.999.851-2.108s.618-1.228.983-2.489c.366-1.261.915-2.743 1.221-3.293.53-.953.841-1.76 2.61-6.778.422-1.199 1.012-2.551 1.31-3.006s.673-1.455.833-2.222.605-1.939.987-2.606c.383-.666.826-1.746.985-2.4s.608-1.908.997-2.788c1.376-3.11 2.513-6.024 3.119-7.995.337-1.097.864-2.352 1.17-2.789s.556-1.083.556-1.437.443-1.519.986-2.59 1.101-2.496 1.243-3.168.586-1.851.988-2.621c.401-.77.942-2.12 1.201-3s.69-1.96.957-2.4.722-1.66 1.01-2.71.668-1.999.844-2.108.594-1.138.932-2.289c.337-1.151.978-2.806 1.426-3.678s.814-1.861.814-2.2c.001-.338.354-1.193.785-1.898 3-4.922.357-12.607-4.986-14.495-1.912-.676-16.254-.786-58-.444"/><path id="path1" fill="#04d9f9" d="M255.864 118.659c-3.024.877-6.036 4.721-7.475 9.541-.263.88-.7 1.96-.97 2.4-.271.44-.619 1.315-.774 1.944s-.618 1.889-1.029 2.8-.967 2.376-1.238 3.256c-.27.88-.736 1.955-1.035 2.389s-.543 1.078-.543 1.432-.443 1.519-.986 2.59-1.099 2.496-1.238 3.168c-.14.672-.577 1.784-.972 2.472s-.847 1.857-1.005 2.6c-.157.742-.614 1.979-1.015 2.749s-1.025 2.343-1.387 3.495-.824 2.198-1.028 2.324c-.203.125-.369.542-.369.926s-.428 1.588-.951 2.676-1.226 2.789-1.562 3.779c-1.079 3.176-2.73 7.369-3.067 7.791-.18.225-.458 1.039-.617 1.809-.16.77-.618 2.03-1.02 2.8-.401.77-.945 2.12-1.208 3-.264.88-.619 1.78-.79 2s-.67 1.39-1.109 2.6a282 282 0 0 1-1.807 4.8 900 900 0 0 0-2.065 5.391c-.581 1.535-1.204 2.975-1.384 3.2s-.458 1.039-.617 1.809c-.16.77-.618 2.03-1.02 2.8-.401.77-.947 2.12-1.213 3s-.728 1.955-1.027 2.389-.543 1.074-.543 1.421c0 .348-.431 1.523-.959 2.611a38 38 0 0 0-1.63 4.074c-.37 1.153-.818 2.186-.996 2.296s-.448.877-.599 1.705c-.151.827-.587 2.044-.969 2.704-.381.66-.933 2.06-1.225 3.11-.293 1.051-.675 1.999-.851 2.108s-.594 1.138-.932 2.289c-.337 1.151-.978 2.806-1.426 3.678s-.814 1.861-.814 2.2c-.001.338-.361 1.204-.8 1.925-.44.72-.799 1.634-.799 2.032 0 .397-.443 1.598-.986 2.669s-1.099 2.496-1.238 3.168c-.14.672-.567 1.766-.949 2.433-.383.666-.826 1.746-.985 2.4s-.628 1.908-1.042 2.788c-.749 1.59-1.374 3.211-2.843 7.378-.422 1.199-1.012 2.551-1.31 3.006s-.673 1.455-.833 2.222-.6 1.934-.976 2.594c-.377.66-.924 2.06-1.216 3.11-.293 1.051-.675 1.999-.851 2.108s-.618 1.228-.983 2.489c-.366 1.261-.915 2.743-1.221 3.293-.53.953-.841 1.76-2.61 6.778-.422 1.199-1.012 2.551-1.31 3.006s-.675 1.455-.838 2.222-.624 2.024-1.025 2.794-1.025 2.343-1.387 3.495-.824 2.198-1.028 2.324c-.203.125-.355 1.523-.338 3.105.039 3.536 1.202 5.726 4.173 7.862l1.969 1.414 5.013.122c8.401.205 25.013-1.562 27.161-2.889.232-.144 1.914-.608 3.738-1.033 4.008-.933 8.019-2.227 9.915-3.197.77-.394 2.03-.846 2.8-1.004s1.67-.515 2-.793 1.32-.734 2.2-1.014c.88-.279 2.013-.83 2.519-1.223.505-.392 1.45-.83 2.1-.973.649-.143 1.181-.398 1.181-.567s.764-.65 1.697-1.068 2.013-1.076 2.4-1.461.948-.7 1.248-.7 1.224-.54 2.055-1.2 1.755-1.2 2.055-1.2.545-.175.545-.39c0-.214.585-.689 1.3-1.056s1.84-1.099 2.5-1.627c.66-.529 1.65-1.316 2.2-1.749 8.06-6.356 14.836-12.973 19-18.551.44-.59 1.198-1.557 1.684-2.15 2.264-2.76 2.849-3.567 3.47-4.777.367-.715.842-1.3 1.056-1.3s.39-.245.39-.545.54-1.224 1.2-2.055 1.2-1.721 1.2-1.98.315-.818.7-1.245c.76-.841 5.7-10.612 5.7-11.273 0-.222.251-.612.558-.867s.682-1.132.834-1.949.61-2.116 1.019-2.886 1.039-2.48 1.403-3.8.801-2.58.972-2.8.432-1.12.581-2c.15-.88.613-2.68 1.029-4 .417-1.32 1.042-4.242 1.388-6.493.347-2.251.838-4.591 1.091-5.2.703-1.689.673-28.524-.034-30.907-.294-.99-.869-3.69-1.279-6-1.052-5.936-3.539-14.653-5.191-18.2-.41-.88-.866-2.14-1.012-2.8s-.49-1.47-.762-1.8c-.273-.33-.726-1.315-1.007-2.189s-.749-1.827-1.04-2.118-.742-1.241-1.003-2.111-.603-1.582-.761-1.582-.675-.9-1.148-2-1.018-2-1.21-2-.538-.54-.768-1.199-.877-1.801-1.439-2.538c-.561-.736-1.021-1.503-1.021-1.705 0-.201-.36-.59-.8-.865s-.8-.742-.8-1.038-.405-1.007-.9-1.58a59 59 0 0 1-2.1-2.653 56 56 0 0 0-2.2-2.757c-.55-.629-1.72-2.024-2.6-3.099-2.162-2.641-10.613-10.966-11.132-10.966-.229 0-.828-.387-1.331-.859-.923-.868-5.613-1.421-7.473-.882"/></g></svg>