<svg id="svg" version="1.1" xmlns="http://www.w3.org/2000/svg" width="400" height="400"><g id="svgg" stroke="none" fill-rule="evenodd"><circle id="circle0" cx="200" cy="200" r="200" fill="#020321"/><path id="path0" d="M159.4 91.978c-30.204.247-28.559.091-31.339 2.959-3.127 3.226-2.861-6.82-2.861 108.175v102.333l.862 2.553c2.903 8.596 15.243 8.894 17.534.423.211-.781.629-1.781.928-2.221.299-.44.778-1.66 1.065-2.71.286-1.051.664-1.999.84-2.108.175-.108.616-1.221.98-2.472s.916-2.638 1.226-3.082c.311-.443.565-1.095.565-1.449 0-.354.449-1.529.998-2.611.549-1.082.999-2.252 1-2.6.001-.348.445-1.508.988-2.579.542-1.071 1.099-2.496 1.238-3.168.14-.672.567-1.766.949-2.433.383-.666.828-1.736.989-2.378.161-.641.577-1.806.924-2.588.752-1.691 1.88-4.599 2.949-7.6.427-1.199 1.02-2.551 1.318-3.006.298-.455.675-1.455.838-2.222.163-.767.624-2.024 1.026-2.794.401-.77.942-2.12 1.201-3 .259-.88.693-1.96.963-2.4.271-.44.621-1.34.779-2 .158-.66.618-1.92 1.024-2.8.405-.88.96-2.32 1.233-3.2.273-.88.741-1.955 1.04-2.389.299-.434.543-1.078.543-1.432 0-.354.443-1.519.986-2.59.542-1.071 1.101-2.496 1.243-3.168.142-.672.586-1.851.987-2.621s1.025-2.343 1.387-3.495c.362-1.153.804-2.186.982-2.296.178-.11.45-.877.604-1.705.153-.827.612-2.134 1.018-2.904.407-.77.957-2.12 1.223-3 .266-.88.728-1.955 1.027-2.389.299-.434.543-1.078.543-1.432 0-.354.443-1.519.986-2.59.542-1.071 1.101-2.496 1.243-3.168.142-.672.586-1.851.988-2.621.401-.77.942-2.12 1.201-3 .259-.88.69-1.96.957-2.4.267-.44.722-1.66 1.01-2.71.289-1.051.668-1.999.844-2.108.175-.108.617-1.228.983-2.489.365-1.261.827-2.492 1.027-2.736.201-.244.724-1.459 1.163-2.7l1.603-4.535c.443-1.254 1.05-2.651 1.348-3.106.298-.455.673-1.455.833-2.222.16-.767.6-1.934.976-2.594.377-.66.924-2.06 1.216-3.11.293-1.051.675-1.999.851-2.108.175-.108.618-1.228.983-2.489.366-1.261.915-2.743 1.221-3.293.53-.953.841-1.76 2.61-6.778.422-1.199 1.012-2.551 1.31-3.006.298-.455.673-1.455.833-2.222.16-.767.605-1.939.987-2.606.383-.666.826-1.746.985-2.4.159-.653.608-1.908.997-2.788 1.376-3.11 2.513-6.024 3.119-7.995.337-1.097.864-2.352 1.17-2.789.306-.437.556-1.083.556-1.437 0-.354.443-1.519.986-2.59.542-1.071 1.101-2.496 1.243-3.168.142-.672.586-1.851.988-2.621.401-.77.942-2.12 1.201-3 .259-.88.69-1.96.957-2.4.267-.44.722-1.66 1.01-2.71.289-1.051.668-1.999.844-2.108.175-.108.594-1.138.932-2.289.337-1.151.978-2.806 1.426-3.678.447-.871.814-1.861.814-2.2.001-.338.354-1.193.785-1.898 3-4.922.357-12.607-4.986-14.495-1.912-.676-16.254-.786-58-.444" fill="#f904aa"/><path id="path1" d="M255.864 118.659c-3.024.877-6.036 4.721-7.475 9.541-.263.88-.7 1.96-.97 2.4-.271.44-.619 1.315-.774 1.944-.156.629-.618 1.889-1.029 2.8-.41.911-.967 2.376-1.238 3.256-.27.88-.736 1.955-1.035 2.389-.299.434-.543 1.078-.543 1.432 0 .354-.443 1.519-.986 2.59-.542 1.071-1.099 2.496-1.238 3.168-.14.672-.577 1.784-.972 2.472-.395.687-.847 1.857-1.005 2.6-.157.742-.614 1.979-1.015 2.749-.401.77-1.025 2.343-1.387 3.495-.362 1.153-.824 2.198-1.028 2.324-.203.125-.369.542-.369.926s-.428 1.588-.951 2.676c-.523 1.089-1.226 2.789-1.562 3.779-1.079 3.176-2.73 7.369-3.067 7.791-.18.225-.458 1.039-.617 1.809-.16.77-.618 2.03-1.02 2.8-.401.77-.945 2.12-1.208 3-.264.88-.619 1.78-.79 2-.171.22-.67 1.39-1.109 2.6a282.02 282.02 0 0 1-1.807 4.8 899.698 899.698 0 0 0-2.065 5.391c-.581 1.535-1.204 2.975-1.384 3.2-.18.225-.458 1.039-.617 1.809-.16.77-.618 2.03-1.02 2.8-.401.77-.947 2.12-1.213 3-.266.88-.728 1.955-1.027 2.389-.299.434-.543 1.074-.543 1.421 0 .348-.431 1.523-.959 2.611a37.764 37.764 0 0 0-1.63 4.074c-.37 1.153-.818 2.186-.996 2.296-.178.11-.448.877-.599 1.705-.151.827-.587 2.044-.969 2.704-.381.66-.933 2.06-1.225 3.11-.293 1.051-.675 1.999-.851 2.108-.175.108-.594 1.138-.932 2.289-.337 1.151-.978 2.806-1.426 3.678-.447.871-.814 1.861-.814 2.2-.001.338-.361 1.204-.8 1.925-.44.72-.799 1.634-.799 2.032 0 .397-.443 1.598-.986 2.669-.542 1.071-1.099 2.496-1.238 3.168-.14.672-.567 1.766-.949 2.433-.383.666-.826 1.746-.985 2.4-.159.653-.628 1.908-1.042 2.788-.749 1.59-1.374 3.211-2.843 7.378-.422 1.199-1.012 2.551-1.31 3.006-.298.455-.673 1.455-.833 2.222-.16.767-.6 1.934-.976 2.594-.377.66-.924 2.06-1.216 3.11-.293 1.051-.675 1.999-.851 2.108-.175.108-.618 1.228-.983 2.489-.366 1.261-.915 2.743-1.221 3.293-.53.953-.841 1.76-2.61 6.778-.422 1.199-1.012 2.551-1.31 3.006-.298.455-.675 1.455-.838 2.222-.163.767-.624 2.024-1.025 2.794-.401.77-1.025 2.343-1.387 3.495-.362 1.153-.824 2.198-1.028 2.324-.203.125-.355 1.523-.338 3.105.039 3.536 1.202 5.726 4.173 7.862l1.969 1.414 5.013.122c8.401.205 25.013-1.562 27.161-2.889.232-.144 1.914-.608 3.738-1.033 4.008-.933 8.019-2.227 9.915-3.197.77-.394 2.03-.846 2.8-1.004.77-.158 1.67-.515 2-.793.33-.278 1.32-.734 2.2-1.014.88-.279 2.013-.83 2.519-1.223.505-.392 1.45-.83 2.1-.973.649-.143 1.181-.398 1.181-.567 0-.169.764-.65 1.697-1.068.933-.419 2.013-1.076 2.4-1.461s.948-.7 1.248-.7c.3 0 1.224-.54 2.055-1.2.831-.66 1.755-1.2 2.055-1.2.3 0 .545-.175.545-.39 0-.214.585-.689 1.3-1.056.715-.367 1.84-1.099 2.5-1.627.66-.529 1.65-1.316 2.2-1.749 8.06-6.356 14.836-12.973 19-18.551.44-.59 1.198-1.557 1.684-2.15 2.264-2.76 2.849-3.567 3.47-4.777.367-.715.842-1.3 1.056-1.3.215 0 .39-.245.39-.545 0-.3.54-1.224 1.2-2.055.66-.831 1.2-1.721 1.2-1.98 0-.258.315-.818.7-1.245.76-.841 5.7-10.612 5.7-11.273 0-.222.251-.612.558-.867.307-.255.682-1.132.834-1.949.152-.817.61-2.116 1.019-2.886.408-.77 1.039-2.48 1.403-3.8.364-1.32.801-2.58.972-2.8.17-.22.432-1.12.581-2 .15-.88.613-2.68 1.029-4 .417-1.32 1.042-4.242 1.388-6.493.347-2.251.838-4.591 1.091-5.2.703-1.689.673-28.524-.034-30.907-.294-.99-.869-3.69-1.279-6-1.052-5.936-3.539-14.653-5.191-18.2-.41-.88-.866-2.14-1.012-2.8-.147-.66-.49-1.47-.762-1.8-.273-.33-.726-1.315-1.007-2.189-.281-.874-.749-1.827-1.04-2.118-.291-.291-.742-1.241-1.003-2.111-.26-.87-.603-1.582-.761-1.582-.158 0-.675-.9-1.148-2-.473-1.1-1.018-2-1.21-2-.192 0-.538-.54-.768-1.199-.23-.659-.877-1.801-1.439-2.538-.561-.736-1.021-1.503-1.021-1.705 0-.201-.36-.59-.8-.865-.44-.275-.8-.742-.8-1.038 0-.296-.405-1.007-.9-1.58a58.473 58.473 0 0 1-2.1-2.653 55.633 55.633 0 0 0-2.2-2.757c-.55-.629-1.72-2.024-2.6-3.099-2.162-2.641-10.613-10.966-11.132-10.966-.229 0-.828-.387-1.331-.859-.923-.868-5.613-1.421-7.473-.882" fill="#04d9f9"/></g></svg>