<svg xmlns="http://www.w3.org/2000/svg" width="24" height="24" fill="none"><mask id="A" width="16" height="16" x="4" y="4" mask-type="alpha" maskUnits="userSpaceOnUse"><path fill="#d9d9d9" d="M4 4h16v16H4z"/></mask><g mask="url('#A')"><path fill="#fff" d="m15.324 5.049-4.709 4.126c-.512.442-1.177.688-1.792.688H7.389V5.049H4.881v13.754h1.382c.768 0 1.485-.442 1.894-1.081.256-.442.41-1.326.307-1.916-.051-1.326-.256-1.67-.256-1.67 0 .933-.973.982-.973.982.717-.639.307-1.179.307-1.179-1.28.835-1.587-.049-1.587-.147.051.049.41.295 1.126-.589.717-.933 1.689-2.554 2.304-2.947.614-.442 1.229-.393 1.229-.393s.307-.442 1.229-.786 1.433.147 1.433.147c-.87.688-2.15 1.867-2.201 3.488-.051 1.326 2.969 3.635 2.406 7.025.307-.786.461-1.523.307-2.505-.102-.786-.614-2.358-.614-2.358l2.867 3.782h3.174l-6.245-8.203 6.194-5.403h-3.839z"/></g></svg>