<svg xmlns="http://www.w3.org/2000/svg" width="100" height="88" fill="none"><path fill="#8247E5" d="M75.52 26.563c-1.822-1.042-4.166-1.042-6.25 0l-14.582 8.593-9.896 5.469-14.323 8.594c-1.823 1.041-4.167 1.041-6.25 0L13.02 42.448c-1.823-1.042-3.125-3.125-3.125-5.469V23.96c0-2.084 1.041-4.167 3.125-5.47l11.198-6.51c1.823-1.041 4.166-1.041 6.25 0l11.198 6.771c1.823 1.042 3.125 3.125 3.125 5.469v8.593l9.895-5.729V18.23c0-2.083-1.041-4.166-3.124-5.468L30.729.52c-1.823-1.042-4.166-1.042-6.25 0L3.125 13.02C1.042 14.062 0 16.146 0 18.229v24.48c0 2.083 1.042 4.166 3.125 5.468l21.094 12.24c1.823 1.041 4.166 1.041 6.25 0l14.323-8.334 9.895-5.729 14.323-8.333c1.823-1.042 4.167-1.042 6.25 0l11.198 6.51c1.823 1.042 3.125 3.125 3.125 5.469v13.02c0 2.084-1.041 4.167-3.125 5.47L75.521 75c-1.823 1.042-4.167 1.042-6.25 0l-11.198-6.51c-1.823-1.042-3.125-3.125-3.125-5.47v-8.333l-9.896 5.73v8.593c0 2.084 1.042 4.167 3.125 5.47l21.094 12.239c1.823 1.041 4.166 1.041 6.25 0l21.094-12.24c1.823-1.041 3.125-3.125 3.125-5.469V44.27c0-2.083-1.042-4.166-3.125-5.468z"/></svg>