<svg version="1.1" id="Layer_1" xmlns="http://www.w3.org/2000/svg" x="0" y="0" width="100%" viewBox="0 0 144 145" xml:space="preserve"><circle cx="72" cy="72.5" r="72" opacity=".4"/><path fill="#fff" d="M116.689 62c0 14.332.014 28.164-.018 41.996-.004 1.823-.022 3.696-.423 5.457-1.036 4.549-4.639 7.003-9.215 6.525-4.178-.436-7.135-3.52-7.178-8.11-.119-12.665-.045-25.331-.046-37.997V56.413c-6.059 3.279-11.643 6.282-17.208 9.32-5.388 2.94-10.814 5.817-16.114 8.91-3.785 2.208-7.243 1.987-10.63-.642-4.698-3.647-9.379-7.317-14.876-11.609v29.452c0 7.488-2.032 10.788-6.573 10.684-4.21-.097-6.225-3.534-6.225-10.626 0-13.499-.19-27.002.156-40.492.071-2.77 1.455-6.774 3.491-7.868 2.033-1.092 6.114-.003 8.474 1.459 6.202 3.841 12.077 8.252 17.836 12.75 2.63 2.054 4.538 2.043 7.365.344 11.943-7.18 24.32-13.67 36.001-21.24 7.824-5.07 15.54 1.568 15.229 8.65-.234 5.322-.046 10.663-.046 16.496z"/></svg>