<svg xmlns="http://www.w3.org/2000/svg" width="395" height="395" fill="none"><circle cx="197.5" cy="197.5" r="197.5" fill="#fff"/><path fill="#000" d="M335.528 197.669c0-75.458-61.448-136.627-137.236-136.627S61.041 122.211 61.041 197.67c0 15.601 2.632 30.585 7.464 44.551.03.062.294.863.294.863 1.951 6.182-7.728 8.602-7.728 12.302 0 5.796 20.41 5.01 20.41 11.746 0 5.874-20.193 7.693-20.193 13.612 0 8.186 44.708 5.334 45.281 12.363.434 5.427-15.377 5.766-15.47 11.562-.155 9.265 61.014 6.228 61.014 12.394 0 4.671-27.828 2.975-27.828 8.494s36.624 9.003 76.996 9.003 68.215-4.471 68.215-9.296-25.985-3.838-25.443-8.186c.929-7.599 58.614-3.715 58.614-12.517 0-4.64-15.857-5.719-15.346-10.714.728-7.06 48.207-6.012 48.207-13.349 0-5.766-23.538-7.184-23.492-13.181.031-6.12 23.492-5.857 23.337-11.592-.123-4.409-10.499-4.301-7.247-13.643a136 136 0 0 0 7.433-44.412zM291.92 236.47c-4.77 10.745-15.486 8.587-16.694 13.103-1.254 4.671 13.21 5.349 13.21 10.236 0 5.935-44.089 3.561-43.655 11.392.279 4.933 31.312 5.765 30.724 10.914-.852 7.461-48.084 3.731-48.548 10.884-.341 5.241 23.058 5.426 23.105 10.205.046 4.023-18.367 6.212-53.644 6.212-40.17 0-59.713-2.158-57.483-6.644 2.075-4.193 37.646-3.422 37.29-10.02-.356-6.582-63.167-4.656-65.057-11.053-1.579-5.318 20.643-6.413 20.504-11.469-.14-5.149-28.448-3.977-29.067-10.22-.403-4.086 14.789-3.839 14.138-8.988-.48-3.746-6.752-3.222-10.468-10.945a100.44 100.44 0 0 1-9.37-42.423c0-55.742 45.406-100.94 101.403-100.94s101.401 45.198 101.401 100.94c0 13.751-2.772 26.854-7.774 38.801z"/><path fill="#000" fill-rule="evenodd" d="M68.505 242.22c-4.832-13.966-7.464-28.95-7.464-44.551 0-75.458 61.463-136.627 137.251-136.627s137.236 61.169 137.236 136.627h.031q0 .552-.004 1.103a136 136 0 0 1-7.429 43.309c-2.016 5.793 1.207 7.952 3.976 9.808 1.697 1.137 3.224 2.16 3.271 3.835.077 2.826-5.583 4.196-11.347 5.591-5.932 1.435-11.974 2.898-11.99 6.001-.023 3.03 5.973 4.891 11.913 6.734 5.817 1.806 11.579 3.594 11.579 6.447 0 3.716-12.18 5.281-24.296 6.838-11.806 1.518-23.552 3.027-23.911 6.511-.263 2.567 3.798 4.1 7.808 5.613 3.792 1.432 7.538 2.846 7.538 5.101 0 4.573-15.567 5.722-30.658 6.835-13.958 1.031-27.51 2.031-27.956 5.682-.265 2.127 5.816 2.977 12.099 3.855 6.562.918 13.344 1.866 13.344 4.331 0 4.825-27.843 9.296-68.215 9.296s-76.996-3.484-76.996-9.003c0-2.874 7.549-3.792 14.783-4.671 6.656-.808 13.045-1.585 13.045-3.823 0-2.769-12.339-3.682-25.919-4.687-16.657-1.233-35.18-2.603-35.095-7.707.046-2.92 4.082-4.455 8.02-5.953 3.88-1.476 7.665-2.916 7.45-5.609-.275-3.373-10.714-4.471-21.5-5.605-11.687-1.229-23.78-2.5-23.78-6.758 0-2.965 5.067-4.902 10.126-6.834 5.038-1.925 10.067-3.847 10.067-6.778 0-3.494-5.493-4.965-10.78-6.379-4.904-1.313-9.63-2.578-9.63-5.367 0-1.512 1.615-2.81 3.394-4.239 2.574-2.067 5.487-4.407 4.333-8.063 0 0-.263-.801-.294-.863m-.754 1.202c.386 1.227.2 2.225-.301 3.14-.53.967-1.425 1.857-2.493 2.76-.348.294-.73.601-1.117.913-.72.579-1.462 1.176-2.05 1.741-.904.87-1.82 1.996-1.82 3.409 0 1.091.494 1.982 1.209 2.681.694.68 1.627 1.215 2.637 1.661 1.852.82 4.25 1.461 6.58 2.084l.596.16c2.574.691 5.011 1.379 6.806 2.283 1.838.927 2.583 1.862 2.583 2.877 0 .39-.16.811-.59 1.297-.44.497-1.115 1.003-2.013 1.519-1.802 1.037-4.234 1.968-6.785 2.943l-.033.012c-2.488.951-5.09 1.945-7.067 3.088-.996.576-1.9 1.226-2.563 1.981-.674.766-1.143 1.691-1.143 2.772 0 1.611 1.119 2.753 2.466 3.545 1.367.803 3.244 1.421 5.377 1.925 4.281 1.013 9.961 1.65 15.568 2.242l1.343.142c5.184.545 10.22 1.075 14.097 1.845 2.111.42 3.796.896 4.947 1.446 1.222.584 1.467 1.066 1.487 1.308.056.707-.37 1.423-1.705 2.254-1.311.816-3.131 1.508-5.118 2.264l-.009.003c-1.927.734-4.009 1.527-5.607 2.527-1.581.989-3.002 2.379-3.035 4.406-.031 1.858 1.481 3.106 3.192 3.948 1.791.881 4.284 1.568 7.166 2.131 5.786 1.128 13.48 1.813 21.108 2.398 1.563.119 3.124.235 4.666.349 6.018.445 11.755.87 16.29 1.445 2.854.362 5.162.776 6.736 1.271.794.249 1.323.495 1.633.716.122.087.183.149.212.186a.4.4 0 0 1-.047.067c-.082.099-.25.243-.56.41-.624.338-1.591.65-2.869.936-2.335.523-5.401.896-8.603 1.285l-.856.104c-3.461.423-7.018.882-9.714 1.595-1.341.355-2.561.795-3.467 1.38-.904.583-1.701 1.453-1.701 2.685 0 1.34 1.085 2.281 2.204 2.927 1.202.694 2.898 1.312 4.962 1.872 4.147 1.125 10.054 2.086 17.173 2.868 14.255 1.567 33.547 2.438 53.758 2.438 20.22 0 37.328-1.119 49.403-2.849 6.029-.864 10.848-1.887 14.184-3.016 1.66-.562 3.017-1.172 3.981-1.842.919-.639 1.748-1.524 1.748-2.691 0-1.173-.804-1.976-1.633-2.494-.849-.531-1.987-.938-3.233-1.274-2.507-.676-5.812-1.149-9.007-1.596l-.384-.054c-3.103-.434-6.074-.849-8.272-1.403-1.153-.29-1.994-.596-2.508-.907-.254-.153-.364-.271-.405-.329l-.007-.011c.018-.107.095-.297.417-.563.344-.284.889-.585 1.667-.883 1.552-.595 3.787-1.087 6.537-1.505 5.062-.77 11.622-1.254 18.334-1.75l1.687-.124c7.254-.539 14.556-1.119 20.047-2.124 2.737-.501 5.109-1.122 6.822-1.936 1.635-.778 3.109-1.952 3.109-3.75 0-.924-.403-1.7-.961-2.324-.548-.611-1.282-1.123-2.07-1.567-1.473-.828-3.378-1.547-5.191-2.231l-.355-.134c-1.975-.746-3.802-1.458-5.109-2.267-1.364-.845-1.723-1.518-1.666-2.078.026-.249.323-.771 1.664-1.419 1.251-.605 3.065-1.15 5.318-1.649 4.386-.972 10.155-1.714 16.009-2.466l.431-.056c5.962-.766 11.982-1.55 16.511-2.61 2.256-.528 4.225-1.141 5.652-1.896 1.353-.716 2.628-1.781 2.628-3.366 0-1.135-.588-2.059-1.36-2.782-.766-.717-1.805-1.326-2.95-1.865-2.23-1.049-5.157-1.957-7.998-2.839l-.23-.071c-2.964-.92-5.814-1.815-7.924-2.838-1.055-.511-1.85-1.02-2.366-1.524-.508-.495-.667-.903-.664-1.253v-.003c.002-.367.167-.76.66-1.211.509-.467 1.295-.922 2.347-1.364 2.103-.885 4.939-1.585 7.889-2.299l.297-.072c2.802-.678 5.685-1.376 7.878-2.259 1.134-.457 2.172-.997 2.937-1.672.781-.691 1.36-1.603 1.329-2.751v-.001c-.045-1.599-1.039-2.691-2.053-3.507-.513-.413-1.09-.801-1.64-1.17l-.056-.037c-.544-.365-1.071-.718-1.571-1.102-1.034-.793-1.843-1.64-2.255-2.732-.404-1.072-.485-2.542.267-4.701l.001-.003a137.1 137.1 0 0 0 7.493-44.772v-1.102h-.035C336.03 121 274.312 59.94 198.292 59.94c-76.389 0-138.352 61.655-138.352 137.729 0 15.726 2.653 30.832 7.524 44.912l.024.069.01.02.025.073c.028.078.062.18.097.283l.092.278.03.09.007.022m83.276 73.714q-.001.001-.005-.01zm140.91-80.675c5.002-11.947 7.774-25.05 7.774-38.801 0-55.742-45.404-100.94-101.401-100.94S96.906 141.912 96.906 197.654c0 15.153 3.376 29.521 9.369 42.423 2.07 4.302 4.933 6.045 7.146 7.393 1.76 1.071 3.11 1.893 3.322 3.552.345 2.729-3.759 3.942-7.633 5.088-3.437 1.016-6.695 1.979-6.505 3.9.323 3.263 8.211 4.5 15.687 5.673 6.828 1.072 13.313 2.089 13.38 4.547.067 2.448-5.109 3.968-10.287 5.488-5.515 1.619-11.031 3.238-10.217 5.981.934 3.162 16.751 4.29 32.553 5.418 16.169 1.153 32.324 2.306 32.504 5.635.201 3.727-11.063 5.103-21.277 6.35-7.867.961-15.111 1.846-16.013 3.67-2.23 4.486 17.313 6.644 57.483 6.644 35.277 0 53.69-2.189 53.644-6.212-.023-2.325-5.57-3.562-11.223-4.824-5.97-1.331-12.057-2.689-11.882-5.381.23-3.542 11.928-4.416 23.783-5.301 12.086-.902 24.335-1.816 24.765-5.583.3-2.622-7.606-4.125-15.472-5.62-7.576-1.441-15.115-2.874-15.252-5.294-.232-4.192 12.293-5.46 23.984-6.643 10.15-1.027 19.671-1.991 19.671-4.749 0-2.409-3.517-3.796-6.932-5.142-3.51-1.384-6.914-2.726-6.278-5.094.486-1.816 2.51-2.553 5.066-3.484 3.8-1.384 8.777-3.196 11.628-9.619zm-.931-.628c4.894-11.761 7.604-24.649 7.604-38.173 0-55.127-44.905-99.837-100.3-99.837-55.396 0-100.301 44.71-100.301 99.837a99.3 99.3 0 0 0 9.263 41.951c1.729 3.589 4.027 5.25 6.034 6.5q.316.196.64.392c.781.475 1.569.954 2.19 1.475.85.712 1.535 1.613 1.701 2.91l.001.002c.249 1.972-1.095 3.266-2.535 4.096-1.457.84-3.408 1.452-5.22 1.992l-.659.195c-1.625.481-3.107.92-4.223 1.439-.629.293-1.043.569-1.279.817-.209.219-.231.359-.22.477.033.326.25.738.951 1.222.698.482 1.732.929 3.062 1.341 2.654.821 6.174 1.41 9.776 1.978l.984.154c3.235.508 6.468 1.015 8.967 1.678 1.371.363 2.611.796 3.534 1.349.896.538 1.765 1.361 1.798 2.578m0 0c.03 1.084-.555 1.942-1.276 2.582-.718.636-1.69 1.169-2.749 1.635-1.978.87-4.549 1.625-7.029 2.352l-.528.155c-2.697.793-5.219 1.56-6.973 2.437-.882.441-1.458.857-1.769 1.231-.27.325-.296.55-.224.793v.001c-.001-.004.01.041.095.13.087.092.23.209.454.343.452.272 1.126.551 2.036.826 1.813.546 4.352 1.012 7.417 1.421 5.984.798 13.768 1.354 21.597 1.912l.527.038c7.979.569 15.965 1.148 21.979 2 2.999.424 5.571.925 7.426 1.548.921.31 1.736.672 2.348 1.117.602.437 1.173 1.082 1.221 1.971.076 1.407-.838 2.431-1.911 3.135-1.086.713-2.585 1.277-4.279 1.747-3.404.945-7.958 1.607-12.504 2.184-1.198.152-2.395.298-3.574.442-3.338.408-6.531.798-9.184 1.252-1.794.308-3.286.636-4.375 1.002-.545.183-.95.363-1.229.531-.294.178-.351.285-.347.277l-.001.002c-.062.124-.057.181-.055.194s.011.075.103.188c.216.264.735.632 1.757 1.028 2.006.779 5.375 1.458 10.176 2.006 9.563 1.093 24.439 1.633 44.517 1.633 17.627 0 30.998-.547 39.941-1.59 4.482-.522 7.789-1.163 9.948-1.896 1.085-.368 1.805-.736 2.232-1.07.423-.332.422-.515.422-.541v-.002c-.001-.092-.05-.334-.571-.717-.512-.376-1.308-.753-2.371-1.126-2.011-.707-4.674-1.301-7.45-1.921l-.445-.099c-2.885-.645-5.866-1.325-8.104-2.19-1.115-.43-2.136-.94-2.883-1.574-.759-.646-1.353-1.531-1.279-2.66.102-1.568 1.454-2.535 2.835-3.151 1.466-.655 3.462-1.143 5.74-1.533 4.472-.767 10.347-1.206 16.187-1.642l.384-.028c6.004-.449 11.94-.902 16.429-1.701 2.25-.401 4.058-.876 5.305-1.444 1.317-.601 1.638-1.13 1.673-1.438.002-.022.008-.068-.064-.176-.086-.127-.262-.307-.589-.524-.66-.437-1.704-.874-3.092-1.305-2.759-.857-6.525-1.586-10.403-2.324l-.463-.088c-3.691-.702-7.444-1.415-10.324-2.25-1.495-.434-2.83-.92-3.821-1.492-.921-.533-1.904-1.347-1.973-2.568v-.001c-.089-1.597.995-2.73 2.286-3.502 1.31-.784 3.128-1.388 5.196-1.881 4.155-.991 9.699-1.62 15.169-2.182l2.327-.237c4.695-.475 9.201-.931 12.701-1.554 2.045-.364 3.663-.772 4.747-1.238.543-.234.882-.453 1.07-.634a.7.7 0 0 0 .143-.179c.013-.027.014-.038.014-.046 0-.606-.441-1.279-1.717-2.065-1.215-.749-2.845-1.391-4.575-2.074l-.086-.034c-1.695-.668-3.511-1.387-4.812-2.266-.657-.443-1.27-.984-1.663-1.662a3.1 3.1 0 0 1-.319-2.421c.43-1.605 1.698-2.507 3.034-3.15.677-.325 1.434-.614 2.206-.897l.522-.191a66 66 0 0 0 1.905-.716c3.294-1.316 6.864-3.31 9.084-8.311l.084-.189.006-.006" clip-rule="evenodd"/></svg>