<svg xmlns="http://www.w3.org/2000/svg" width="395" height="395" fill="none"><path fill="#fff" d="M335.528 197.669c0-75.458-61.448-136.627-137.236-136.627S61.041 122.211 61.041 197.67c0 15.601 2.632 30.585 7.464 44.551.03.062.294.863.294.863 1.951 6.182-7.728 8.602-7.728 12.302 0 5.796 20.41 5.01 20.41 11.746 0 5.874-20.193 7.693-20.193 13.612 0 8.186 44.708 5.334 45.281 12.363.434 5.427-15.377 5.766-15.47 11.562-.155 9.265 61.014 6.228 61.014 12.394 0 4.671-27.828 2.975-27.828 8.494s36.624 9.003 76.996 9.003 68.215-4.471 68.215-9.296-25.985-3.838-25.443-8.186c.929-7.599 58.614-3.715 58.614-12.517 0-4.64-15.857-5.719-15.346-10.714.728-7.06 48.207-6.012 48.207-13.349 0-5.766-23.538-7.184-23.492-13.181.031-6.12 23.492-5.857 23.337-11.592-.123-4.409-10.499-4.301-7.247-13.643a136 136 0 0 0 7.433-44.412zM291.92 236.47c-4.77 10.745-15.486 8.587-16.694 13.103-1.254 4.671 13.21 5.349 13.21 10.236 0 5.935-44.089 3.561-43.655 11.392.279 4.933 31.312 5.765 30.724 10.914-.852 7.461-48.084 3.731-48.548 10.884-.341 5.241 23.058 5.426 23.105 10.205.046 4.023-18.367 6.212-53.644 6.212-40.17 0-59.713-2.158-57.483-6.644 2.075-4.193 37.646-3.422 37.29-10.02-.356-6.582-63.167-4.656-65.057-11.053-1.579-5.318 20.643-6.413 20.504-11.469-.14-5.149-28.448-3.977-29.067-10.22-.403-4.086 14.789-3.839 14.138-8.988-.48-3.746-6.752-3.222-10.468-10.945a100.44 100.44 0 0 1-9.37-42.423c0-55.742 45.406-100.94 101.403-100.94s101.401 45.198 101.401 100.94c0 13.751-2.772 26.854-7.774 38.801z"/></svg>