<svg xmlns="http://www.w3.org/2000/svg" width="24" height="24" fill="none"><mask id="A" width="16" height="16" x="4" y="4" mask-type="alpha" maskUnits="userSpaceOnUse"><path fill="#d9d9d9" d="M4 4h16v16H4z"/></mask><g mask="url('#A')"><path fill="#fff" d="m16.071 5.849-2.827 4.249c-.107.142-.071.32.053.427a.3.3 0 0 0 .391-.036l2.773-2.453c.053-.053.125-.053.142 0a.13.13 0 0 1 .036.071v7.644c0 .053-.053.107-.124.107-.036 0-.053-.018-.089-.053L8.053 5.635a1.45 1.45 0 0 0-1.084-.48h-.284a1.45 1.45 0 0 0-1.44 1.458v10.756a1.45 1.45 0 0 0 1.44 1.458c.498 0 .96-.267 1.227-.693l2.827-4.231c.107-.142.071-.32-.053-.427a.3.3 0 0 0-.391.035l-2.791 2.418c-.053.053-.124.053-.142 0a.13.13 0 0 1-.036-.071V8.213c0-.053.053-.107.124-.107.036 0 .053.018.089.053l8.391 10.187a1.39 1.39 0 0 0 1.102.515h.302c.8 0 1.422-.658 1.422-1.458V6.613c-.018-.8-.658-1.458-1.458-1.458-.498 0-.96.267-1.227.693z"/></g></svg>