<svg xmlns="http://www.w3.org/2000/svg" width="24" height="24" fill="none"><g clip-path="url('#A')"><path fill="#fff" fill-rule="evenodd" d="M19 12a7 7 0 1 1-14 0 7 7 0 1 1 14 0M9.293 9.026l2.619 2.619V9.157q0-.037.014-.072c.014-.035.023-.043.041-.061s.038-.031.061-.04.047-.014.072-.014h2.959a.18.18 0 0 1 .13.055q.027.027.041.061c.014.034.014.047.014.072v2.925l.001.021v2.947a.2.2 0 0 1-.014.072.2.2 0 0 1-.04.061.18.18 0 0 1-.133.055q-.039 0-.076-.014c-.037-.014-.046-.024-.064-.043h-.001l-2.619-2.619v2.488q0 .038-.014.072c-.014.034-.023.044-.04.061s-.038.031-.061.041-.047.014-.072.014H9.153q-.037 0-.072-.014c-.035-.014-.044-.023-.061-.041s-.031-.038-.041-.061-.014-.047-.014-.072v-2.947a.2.2 0 0 1 .005-.045V9.157a.19.19 0 0 1 .117-.173q.053-.022.109-.01c.056.012.07.026.096.052z"/></g><defs><clipPath id="A"><path fill="#fff" d="M5 5h14v14H5z"/></clipPath></defs></svg>