<svg xmlns="http://www.w3.org/2000/svg" width="32" height="32" fill="none"><path fill="#f3f4fc" d="M15 .577a2 2 0 0 1 2 0l11.856 6.845a2 2 0 0 1 1 1.732v13.691a2 2 0 0 1-1 1.732L17 31.423a2 2 0 0 1-2 0L3.144 24.577a2 2 0 0 1-1-1.732V9.155a2 2 0 0 1 1-1.732z"/><circle cx="16.001" cy="16" r="9.917" stroke="#000" stroke-width="1.5"/><path fill="#010014" d="M16.104 21.333a.513.513 0 0 1-.513-.513v-.589q-.788-.074-1.326-.433a3.8 3.8 0 0 1-.619-.534c-.196-.21-.174-.533.02-.745.26-.284.713-.249 1.005.003l.174.138q.372.26.839.334v-2.512q-1.138-.285-1.647-.866-.497-.594-.497-1.51 0-.99.538-1.584.538-.607 1.512-.742v-.601a.513.513 0 1 1 1.026 0v.601a2.7 2.7 0 0 1 1.118.384q.285.177.524.434c.195.208.159.533-.039.738-.26.269-.707.232-1.003.004a1.75 1.75 0 0 0-.694-.322v2.302q1.109.31 1.626.866.518.544.518 1.51 0 .953-.518 1.646-.517.68-1.533.854v.626c0 .283-.23.513-.513.513zm-1.31-7.289q0 .433.207.668.218.236.683.384v-2.091q-.891.186-.891 1.039zm2.63 3.762a1.07 1.07 0 0 0-.197-.643q-.186-.285-.704-.458v2.277q.435-.11.663-.421.238-.321.238-.755"/></svg>