<svg xmlns="http://www.w3.org/2000/svg" version="1.1" id="Layer_1" x="0" y="0" width="100%" viewBox="0 0 1370 1370" xml:space="preserve"><path d="M1371 701v669.975H1.076V1.127H1371c0 222.904 0 445.935-.469 669.42-84.452.453-168.435.453-252.418.453-102.313 0-204.626.008-306.94-.052-2.38-.001-4.76-.775-6.37-1.055l2.479-11.113-3.114-1.437c-.413-7.705.044-14.834-1.447-21.53-1.006-4.522-4.072-8.55-1.901-12.857-5.26-2.33-5.575-7.393-7.349-11.31-.435-.959.908-2.724 1.122-3.29-1.552-1.96-2.495-3.976-4.08-4.968-2.664-1.666-2.751-1.384-2.57-3.428.076-.855-.09-1.861-.5-2.601-.66-1.185-2.1-2.103-2.358-3.315-1.005-4.733-6.766-9.452-9.486-8.85-1.636-2.445-2.643-5.737-4.377-6.18-4.017-1.025-5.083-5.319-9.162-6.47-3.682-1.04-6.66-4.574-11.022-7.803.186.2-.485-1.077-1.43-1.33-.58-.155-1.579 1.259-2.41 1.987-.388-4.611-2.84-5.62-6.981-3.17l-.334-3.579-8.294.407c-4.095-4.03-4.1-3.924-10.51-4.148-2.882-.1-6.37.189-8.505-1.274-7.201-4.935-14.845-1.128-22.192-1.97-1.645-.19-3.33-.028-5.214-.028-.006.031-.053.513-.19.968-.1.326-.318.617-.507.968-4.036-3.524-12.56-3.37-13.73-.352-1.423-.647-2.816-1.76-4.243-1.806-1.76-.056-3.547.778-5.427 1.254.05.272-.078-1.137-.233-1.14-5.85-.112-11.703-.095-18.207-.095.85 1.291 1.128 1.676 1.364 2.084.233.401.423.827.783 1.541-10.94-2.557-16.283-1.342-16.965 3.298l-9.004-.424-1.682 3.527-.905-.97-5.995 4.963-.577-2.175c-1.569 2.653-2.316 6.656-6.759 3.324-.323-.242-1.898 1.062-2.807 1.757-.78.597-1.347 1.738-2.176 1.935-.963.229-2.108-.309-3.175-.514v3.42c-2.094 1.198-4.397 1.858-5.663 3.38-2.491 2.997-6.771 4.647-7.227 9.332-.064.663-1.705 1.214-2.66 1.737-1.041.572-3.039 1.016-3.061 1.578-.192 4.716-8.658 4.34-6.309 10.42-.302.114-.652.162-.899.349-1.948 1.478-3.877 2.983-5.805 4.474 1.424 2.956.77 5.601-1.569 7.769-.593.55-.619 1.777-.783 2.714-.307 1.76-.334 3.59-.828 5.288-.592 2.04-1.55 3.973-2.35 5.953l1.21.846-4.52 2.415c.083 4.24.706 9.633-2.157 14.994l1.689 1.226c-.858.714-2.19 1.274-2.306 2.023-.339 2.18 1.212 4.22-.022 6.75-.807 1.657.257 4.148.182 6.255-.121 3.368-.493 6.728-.782 10.381H12c0 7.797-.3 15.294.087 22.754.372 7.18.685 7.163 8.557 7.163H545.54c1.333 0 2.8-.346 3.964.097 1.309.499 4.562.751 1.57 3.45 2.099 2.093-2.43 6.183 2.318 7.88.357.128 3.65 4.183 1.205 7.993-1.32 2.058-.31 8.12 1.523 9.2 4.686 2.766 3.296 7.007 4.114 10.548.71 3.074-.249 6.68 5.02 6.058l-1.994 4.53 3.879.545-.623 5.712c1.058-.364 2.039-.7 2.436-.838 1.065 1.889 2.043 3.507 2.904 5.185.8 1.56 1.475 3.185 2.282 4.948-.334.165.226-.111.992-.213.352.278.499.381.436.758.425 1.243.913 2.363 1.723 3.154 2.839 2.773 6.352 5.052 8.517 8.256 1.708 2.528 3.414 3.65 6.217 4.332 2.755.67 5.295 2.229 7.929 3.398l-.606.892-2.23-.432.103 1.803 5.454-.749c.729 1.203 1.803 3.537 3.416 5.405.832.963 2.624 1.094 3.98 1.604 2.202.826 4.453 2.433 6.592 2.295 3.07-.198 4.75.728 6.048 3.283.22.433 1.336.554 2.042.568 1.763.035 3.825-.695 5.244-.02 7.025 3.343 14.23 3.622 21.76 2.508 1.918-.284 5.63.536 5.822 1.429.999 4.65 4.976 2.731 6.24 2.156 3.328-1.516 6.06-.574 9.121.145 1.528.36 3.26-.036 4.883-.23 3.275-.39 6.539-.875 10.247-1.381l-1.853 1.36c4.286.063 8.332-.756 12.366-1.628 10.018-2.164 20.766.32 30.347-4.855 1.287-.695 3.234-.052 4.723-.517 1.662-.52 3.58-2.672 4.639-2.248 5.18 2.074 4.629-1.263 4.426-4.509.274.269 3.105.16 3.383.156 4.116-.051 7.55-1.306 10.006-4.917.395-.58 2.174-.22 3.807-.329l1.456-4.303 2.65 2.09-1.553-3.914 7.548-2.238c2.674-1.682 4.643-2.525 6.058-3.927 1.292-1.282 2.134-3.104 2.882-4.816.425-.973.187-2.218.405-3.31.078-.385.622-.677.953-1.012 3.53-2.95 8.012-4.82 8.8-10.741.217-1.63 1.727-3.086 2.925-5.092-.104-.213-.689-1.427-.742-1.537 1.657-.98 3.575-1.64 3.54-2.17-.229-3.4 1.48-6.092 2.821-8.89 1.98-4.13 3.707-8.224 3.433-12.994-.1-1.76.83-3.572 1.24-5.371.406-1.793.75-3.6.9-4.327.345-3.292.803-5.34.707-7.363-.108-2.286-.714-4.55-1.11-6.867H1371m-305.47 320.98c73.96-84.934 115.982-183.354 125.703-294.96-3.538-.392-6.225-1.03-8.878-.911-5.124.229-10.229.897-15.345 1.347-.637.056-1.431.108-1.92-.204-2.794-1.783-4.446-.496-5.013 2.15-.646 3.015-.698 6.152-1.085 9.226-1.323 10.494-1.997 21.127-4.173 31.443-3.85 18.248-7.777 36.56-13.2 54.379-8.642 28.398-19.634 55.944-33.756 82.174-10.402 19.32-21.972 37.848-34.531 55.858-14.648 21.005-31.365 40.202-49.078 58.527-9.7 10.035-20.378 19.18-31.084 28.166-11.07 9.293-22.374 18.38-34.17 26.716-21.564 15.235-44.158 28.862-68.27 39.744-14.168 6.393-28.326 12.952-42.933 18.197-26.515 9.52-53.584 17.355-81.603 21.118-20.03 2.69-40.098 5.5-60.243 6.794-15.002.965-30.167-.128-45.234-.834-11.605-.543-23.24-1.421-34.739-3.027-15.697-2.191-31.417-4.59-46.882-8.01-35.218-7.788-69.104-19.709-101.4-35.776-14.088-7.008-27.649-15.108-41.252-23.05-30.516-17.817-57.66-40.083-83.128-64.401-8.814-8.417-17.027-17.537-24.878-26.871-11.1-13.2-22.33-26.39-32.222-40.485-20.172-28.74-37.66-59.143-50.296-91.991-7.411-19.268-13.911-38.938-19.778-58.736-7.606-25.67-11.738-52.079-14.27-78.736-.129-1.362-2.727-3.804-3.073-3.624-2.629 1.37-5.114-.01-7.618.104-4.7.213-9.423.838-14.094.567-6.08-.353-6.923.237-6.09 5.857 1.404 9.482 2.532 19.006 4.038 28.472 1.932 12.145 3.339 24.45 6.38 36.326 4.93 19.253 10.537 38.365 16.721 57.254 7.291 22.271 17.03 43.558 27.818 64.385 11.73 22.647 24.72 44.533 40.177 64.78 12.662 16.584 25.677 33.036 39.952 48.214 14.345 15.252 30.174 29.159 45.868 43.074 9.58 8.494 19.727 16.493 30.343 23.64 15.738 10.594 31.93 20.551 48.27 30.203 22.455 13.265 46.18 24.032 70.703 32.82 37.283 13.359 75.434 23.372 115.015 27.077 15.99 1.496 31.987 3.106 48.019 3.872 10.046.48 20.169-.392 30.247-.88 10.676-.519 21.371-.985 32.001-2.047 13.44-1.344 26.964-2.53 40.197-5.096 26.188-5.08 52.013-11.612 77.211-20.667 22.075-7.933 43.824-16.518 64.291-27.966 17.946-10.037 35.877-20.203 53.096-31.416 22.432-14.607 43.13-31.61 62.428-50.18 10.754-10.35 20.848-21.388 31.758-32.615M339.005 316.493c-21.263 20.46-41.186 42.107-58.834 65.809-14.848 19.94-28.493 40.673-40.051 62.665-7.919 15.068-15.162 30.524-22 46.117-5.268 12.012-10.034 24.32-13.94 36.834-4.876 15.62-9.014 31.5-12.76 47.435-2.735 11.63-4.404 23.516-6.387 35.315-1.024 6.093-1.378 12.31-2.616 18.352-1.366 6.667-.002 8.274 7.078 8.06 5.22-.157 10.47.263 15.692.64 3.945.285 7.328-1.907 7.81-5.422.33-2.414.598-4.84 1.012-7.238 2.645-15.302 4.804-30.711 8.094-45.874 7.654-35.275 19.453-69.254 35.834-101.376 10.35-20.297 22.072-39.975 34.334-59.193 15.31-23.998 33.867-45.602 53.755-65.922 10.582-10.812 22.028-20.83 33.568-30.636 10.645-9.045 21.547-17.892 33.02-25.838 28.87-19.993 59.154-37.666 92.03-50.253 19.429-7.438 39.297-13.823 59.216-19.862 20.45-6.2 41.435-10.198 62.764-12.114 15.167-1.363 30.317-3.253 45.516-3.816 13.554-.503 27.17.333 40.748.876 10.18.407 20.452.562 30.484 2.114 17.877 2.766 35.706 6.04 53.372 9.931 33.828 7.452 66.182 19.397 97.249 34.582 14.278 6.978 27.914 15.304 41.66 23.327 30.82 17.985 58.207 40.497 83.79 65.171 10.525 10.15 20.12 21.322 29.584 32.498 9.347 11.039 18.565 22.272 26.823 34.128 15.263 21.91 29.219 44.684 40.09 69.16 6.308 14.2 13.041 28.327 17.852 43.052 7.171 21.947 13.352 44.26 18.898 66.679 3.18 12.857 4.458 26.205 6.216 39.383.663 4.962 3.082 6.86 8.427 6.305 4.504-.467 9.157-.363 13.656.193 5.994.74 9.91-2.343 9.004-7.607-1.1-6.388-1.892-12.829-3.015-19.212-2.38-13.533-4.17-27.224-7.522-40.518-4.505-17.866-9.268-35.788-15.723-53.01-7.97-21.265-17.237-42.098-26.96-62.638-11.183-23.626-25.08-45.8-40.909-66.584-12.543-16.47-25.454-32.802-39.627-47.852-14.47-15.366-30.41-29.396-46.228-43.425-9.576-8.493-19.742-16.466-30.357-23.612-15.74-10.596-31.92-20.581-48.266-30.226-22.461-13.252-46.185-24.014-70.713-32.801-37.29-13.36-75.437-23.4-115.026-27.055-16.983-1.568-33.987-3.247-51.019-3.865-13.888-.504-27.832.497-41.75.83-.5.011-1.006-.036-1.5.024-13.584 1.652-27.201 3.076-40.74 5.046-12.164 1.77-24.436 3.381-36.313 6.42-19.255 4.927-38.625 9.892-57.213 16.811-21.882 8.146-43.24 17.848-64.352 27.873-23.023 10.933-44.623 24.543-64.877 39.982-16.6 12.655-32.284 26.514-48.878 40.337z"/><path fill="#FFF" d="m574.925 765.92-.787.388c-.807-1.763-1.482-3.387-2.282-4.948-.861-1.678-1.84-3.296-2.904-5.185l-2.436.838.623-5.712-3.879-.546 1.994-4.529c-5.269.622-4.31-2.984-5.02-6.058-.818-3.54.572-7.782-4.114-10.547-1.832-1.081-2.843-7.143-1.523-9.2 2.444-3.81-.848-7.866-1.205-7.994-4.749-1.697-.22-5.787-2.319-7.88 2.993-2.699-.26-2.951-1.569-3.45-1.165-.443-2.63-.097-3.964-.097H20.644c-7.872 0-8.185.016-8.557-7.163-.388-7.46-.087-14.957-.087-22.754h538.873c.289-3.653.66-7.013.782-10.381.075-2.107-.99-4.598-.182-6.254 1.234-2.53-.317-4.57.022-6.751.116-.749 1.448-1.309 2.306-2.023l-1.689-1.226c2.863-5.36 2.24-10.753 2.157-14.994l4.52-2.415-1.21-.846c.8-1.98 1.758-3.913 2.35-5.953.494-1.699.521-3.529.828-5.288.164-.937.19-2.164.783-2.714 2.338-2.168 2.993-4.813 1.569-7.769 1.928-1.49 3.857-2.996 5.805-4.474.247-.187.597-.235.9-.348-2.35-6.08 6.116-5.705 6.308-10.42.022-.563 2.02-1.007 3.062-1.579.954-.523 2.595-1.074 2.66-1.737.455-4.685 4.735-6.335 7.226-9.332 1.266-1.522 3.57-2.182 5.663-3.38v-3.42c1.067.205 2.212.743 3.175.514.829-.197 1.396-1.338 2.176-1.935.91-.695 2.484-2 2.807-1.757 4.443 3.332 5.19-.67 6.759-3.324l.577 2.175 5.995-4.962.905.969 1.682-3.527 9.004.424c.682-4.64 6.025-5.855 16.965-3.298-.36-.714-.55-1.14-.783-1.541-.236-.408-.514-.793-1.364-2.084 6.504 0 12.357-.017 18.207.095.155.003.283 1.412.233 1.14 1.88-.476 3.668-1.31 5.427-1.254 1.427.045 2.82 1.16 4.242 1.806 1.171-3.018 9.695-3.172 13.73.352.19-.351.409-.642.507-.968.138-.455.185-.937.19-.968 1.886 0 3.57-.161 5.215.027 7.347.843 14.99-2.964 22.192 1.971 2.134 1.463 5.623 1.173 8.505 1.274 6.41.224 6.415.118 10.51 4.148l8.294-.407.334 3.579c4.14-2.45 6.593-1.441 6.98 3.17.832-.728 1.831-2.142 2.41-1.987.946.253 1.617 1.53 1.431 1.33 4.363 3.23 7.34 6.764 11.022 7.803 4.079 1.151 5.145 5.445 9.162 6.47 1.734.443 2.741 3.735 4.377 6.18 2.72-.602 8.481 4.117 9.486 8.85.257 1.212 1.699 2.13 2.358 3.315.41.74.576 1.746.5 2.601-.181 2.044-.094 1.762 2.57 3.428 1.585.992 2.528 3.008 4.08 4.967-.214.567-1.557 2.332-1.122 3.292 1.774 3.916 2.09 8.979 7.349 11.309-2.171 4.306.895 8.335 1.901 12.857 1.49 6.696 1.034 13.825 1.447 21.53l3.114 1.437-2.48 11.113c1.612.28 3.992 1.054 6.372 1.055 102.313.06 204.626.052 306.939.052h252.418c.469 9.688.469 19.375.469 29.531-189.413.469-378.826.469-568.176.469.397 2.318 1.003 4.58 1.111 6.867.096 2.022-.362 4.071-.707 7.363-.15.727-.494 2.534-.9 4.327-.41 1.8-1.34 3.61-1.24 5.37.274 4.771-1.453 8.865-3.433 12.995-1.341 2.798-3.05 5.49-2.821 8.89.035.53-1.883 1.19-3.54 2.17.053.11.638 1.324.742 1.537-1.198 2.006-2.708 3.463-2.925 5.092-.788 5.921-5.27 7.79-8.8 10.74-.33.336-.875.628-.953 1.014-.218 1.09.02 2.336-.405 3.309-.748 1.712-1.59 3.534-2.882 4.816-1.415 1.402-3.384 2.245-6.058 3.927l-7.548 2.238 1.552 3.914-2.65-2.09-1.455 4.303c-1.633.108-3.412-.252-3.807.33-2.456 3.61-5.89 4.865-10.006 4.916-.278.003-3.11.113-3.383-.156.203 3.246.755 6.583-4.426 4.509-1.06-.424-2.977 1.729-4.639 2.248-1.489.465-3.436-.178-4.723.517-9.58 5.176-20.33 2.691-30.347 4.855-4.034.872-8.08 1.691-12.366 1.629l1.853-1.361c-3.708.506-6.972.991-10.247 1.381-1.623.194-3.355.59-4.883.23-3.062-.72-5.793-1.66-9.122-.145-1.263.575-5.24 2.493-6.24-2.156-.191-.893-3.903-1.713-5.822-1.43-7.53 1.115-14.734.836-21.76-2.507-1.418-.675-3.48.055-5.243.02-.706-.014-1.822-.135-2.042-.568-1.297-2.555-2.977-3.48-6.048-3.283-2.139.138-4.39-1.47-6.591-2.295-1.357-.51-3.15-.641-3.98-1.604-1.614-1.868-2.688-4.202-3.417-5.405l-5.454.75-.103-1.804 2.23.432.606-.892c-2.634-1.17-5.174-2.728-7.93-3.398-2.802-.682-4.508-1.804-6.216-4.332-2.165-3.204-5.678-5.483-8.517-8.256-.81-.79-1.298-1.911-1.5-3.345.564-.8.695-1.136.827-1.47l-1.69.728z"/><path fill="#FFF" d="M1065.27 1022.23c-10.65 10.978-20.744 22.015-31.498 32.365-19.298 18.572-39.996 35.574-62.428 50.181-17.22 11.213-35.15 21.379-53.096 31.416-20.467 11.448-42.216 20.033-64.29 27.966-25.2 9.055-51.024 15.587-77.212 20.667-13.233 2.566-26.757 3.752-40.197 5.096-10.63 1.062-21.325 1.528-32.001 2.046-10.078.49-20.2 1.362-30.247.881-16.032-.766-32.03-2.376-48.019-3.872-39.58-3.705-77.732-13.718-115.015-27.078-24.523-8.787-48.248-19.554-70.703-32.819-16.34-9.652-32.532-19.61-48.27-30.203-10.616-7.147-20.763-15.146-30.343-23.64-15.694-13.915-31.523-27.822-45.868-43.074-14.275-15.178-27.29-31.63-39.952-48.215-15.457-20.246-28.447-42.132-40.177-64.779-10.788-20.827-20.527-42.114-27.818-64.385-6.184-18.889-11.79-38.001-16.72-57.254-3.042-11.876-4.45-24.18-6.381-36.326-1.506-9.466-2.634-18.99-4.039-28.472-.832-5.62.01-6.21 6.09-5.857 4.672.27 9.394-.354 14.095-.567 2.504-.113 4.99 1.265 7.618-.104.346-.18 2.944 2.262 3.074 3.624 2.53 26.657 6.663 53.065 14.27 78.736 5.866 19.798 12.366 39.468 19.777 58.736 12.636 32.848 30.124 63.251 50.296 91.99 9.893 14.095 21.122 27.287 32.222 40.486 7.85 9.334 16.064 18.454 24.878 26.871 25.467 24.318 52.612 46.584 83.128 64.4 13.603 7.943 27.164 16.043 41.252 23.051 32.296 16.067 66.182 27.988 101.4 35.777 15.465 3.42 31.185 5.818 46.882 8.01 11.5 1.605 23.134 2.483 34.739 3.026 15.067.706 30.232 1.799 45.234.834 20.145-1.295 40.213-4.104 60.243-6.794 28.019-3.763 55.088-11.597 81.603-21.118 14.607-5.245 28.765-11.804 42.933-18.197 24.112-10.882 46.706-24.509 68.27-39.744 11.796-8.336 23.1-17.423 34.17-26.716 10.706-8.986 21.385-18.131 31.084-28.166 17.713-18.325 34.43-37.522 49.078-58.527 12.56-18.01 24.129-36.538 34.53-55.858 14.123-26.23 25.115-53.776 33.757-82.174 5.423-17.82 9.35-36.13 13.2-54.38 2.176-10.315 2.85-20.948 4.173-31.442.387-3.074.44-6.211 1.085-9.226.567-2.646 2.22-3.933 5.013-2.15.489.312 1.283.26 1.92.204 5.116-.45 10.22-1.118 15.345-1.347 2.653-.119 5.34.519 8.878.91-9.72 111.607-51.744 210.027-125.962 295.212zM339.257 316.244c16.342-13.574 32.025-27.433 48.626-40.088 20.254-15.44 41.854-29.05 64.877-39.982 21.112-10.025 42.47-19.727 64.352-27.873 18.588-6.919 37.958-11.884 57.213-16.81 11.877-3.04 24.149-4.65 36.313-6.421 13.539-1.97 27.156-3.394 40.74-5.046.494-.06 1-.013 1.5-.025 13.918-.332 27.862-1.333 41.75-.829 17.032.618 34.036 2.297 51.02 3.865 39.588 3.656 77.735 13.696 115.025 27.055 24.528 8.787 48.252 19.549 70.713 32.801 16.347 9.645 32.526 19.63 48.266 30.226 10.615 7.146 20.78 15.119 30.357 23.612 15.818 14.029 31.758 28.06 46.228 43.425 14.173 15.05 27.084 31.381 39.627 47.852 15.828 20.783 29.726 42.958 40.91 66.584 9.722 20.54 18.988 41.373 26.959 62.638 6.455 17.222 11.218 35.144 15.723 53.01 3.351 13.294 5.141 26.985 7.522 40.518 1.123 6.383 1.916 12.824 3.015 19.212.905 5.264-3.01 8.348-9.004 7.607-4.5-.556-9.152-.66-13.656-.193-5.345.554-7.764-1.343-8.427-6.305-1.758-13.178-3.035-26.526-6.216-39.383-5.546-22.419-11.727-44.732-18.898-66.679-4.811-14.725-11.544-28.851-17.852-43.053-10.871-24.475-24.827-47.248-40.09-69.16-8.258-11.855-17.476-23.088-26.823-34.127-9.464-11.176-19.06-22.347-29.584-32.498-25.583-24.674-52.97-47.186-83.79-65.171-13.746-8.023-27.382-16.349-41.66-23.327-31.067-15.185-63.42-27.13-97.25-34.582-17.665-3.89-35.494-7.165-53.371-9.93-10.032-1.553-20.305-1.708-30.484-2.115-13.577-.543-27.194-1.379-40.748-.876-15.199.563-30.35 2.453-45.516 3.816-21.329 1.916-42.314 5.913-62.764 12.114-19.92 6.04-39.787 12.424-59.216 19.862-32.876 12.587-63.16 30.26-92.03 50.253-11.473 7.946-22.375 16.793-33.02 25.838-11.54 9.806-22.986 19.824-33.568 30.636-19.888 20.32-38.445 41.924-53.755 65.922-12.262 19.218-23.984 38.896-34.334 59.193-16.38 32.122-28.18 66.101-35.834 101.376-3.29 15.163-5.449 30.572-8.094 45.874-.414 2.399-.682 4.824-1.012 7.238-.482 3.515-3.865 5.707-7.81 5.422-5.222-.377-10.471-.797-15.692-.64-7.08.214-8.444-1.393-7.078-8.06 1.238-6.042 1.592-12.259 2.616-18.352 1.983-11.799 3.652-23.685 6.386-35.315 3.747-15.935 7.885-31.815 12.761-47.435 3.906-12.514 8.672-24.822 13.94-36.834 6.838-15.593 14.081-31.049 22-46.117 11.558-21.992 25.203-42.725 40.05-62.665 17.649-23.702 37.572-45.349 59.087-66.058z"/><path d="M575.13 766.095c.359-.418.923-.66 1.486-.904-.132.335-.263.67-.618 1.197-.37.088-.516-.015-.868-.293z"/></svg>