<svg xmlns="http://www.w3.org/2000/svg" width="24" height="24" fill="none"><mask id="A" width="16" height="16" x="4" y="4" mask-type="alpha" maskUnits="userSpaceOnUse"><path fill="#d9d9d9" d="M4 4h16v16H4z"/></mask><g mask="url('#A')"><path fill="#fff" fill-rule="evenodd" d="M17.667 7.809c-1.104-1.382-2.687-2.211-4.463-2.211-3.407 0-5.951 3.039-5.951 6.355 0 2.303 1.584 4.007 3.359 4.007.192 0 .336 0 .48-.046-1.2-.829-1.968-2.349-1.968-3.961 0-2.625 1.824-4.651 4.031-4.651 2.352 0 4.031 2.257 4.031 4.651 0 1.75-.672 3.546-1.824 4.836a6.2 6.2 0 0 1-3.743 2.072h.288c3.983 0 7.199-3.085 7.199-6.908.048-1.566-.528-2.993-1.44-4.145zm-1.104 4.145c0-2.303-1.584-4.007-3.359-4.007-.192 0-.336 0-.48.046 1.2.829 1.968 2.349 1.968 3.961 0 2.625-1.824 4.651-4.031 4.651-2.352 0-4.031-2.257-4.031-4.651 0-1.75.672-3.546 1.824-4.836a6.2 6.2 0 0 1 3.743-2.072h-.288c-3.983 0-7.199 3.086-7.199 6.908a6.62 6.62 0 0 0 1.44 4.145c1.104 1.335 2.687 2.164 4.463 2.164 3.455.046 5.951-2.993 5.951-6.309z"/></g></svg>