<svg xmlns="http://www.w3.org/2000/svg" width="24" height="24" fill="none"><mask id="A" width="16" height="16" x="4" y="4" mask-type="alpha" maskUnits="userSpaceOnUse"><path fill="#d9d9d9" d="M4 4h16v16H4z"/></mask><g mask="url('#A')"><path fill="#fff" fill-rule="evenodd" d="M12 19.203c3.866 0 7-3.179 7-7.102S15.866 5 12 5s-7 3.179-7 7.102 3.134 7.102 7 7.102zm-2.04-5.214q-.625 0-1.025-.299c-.4-.299-.394-.49-.394-.864q0-.117.026-.288l.194-.922q.357-1.466 1.844-1.466a1.8 1.8 0 0 1 .725.139q.321.134.504.405c.183.271.184.391.184.64a2 2 0 0 1-.026.283l-.189.922q-.184.73-.636 1.093c-.452.363-.704.357-1.208.357zm.074-.768a.74.74 0 0 0 .499-.176q.21-.176.3-.538l.184-.874a1.2 1.2 0 0 0 .021-.229q0-.485-.499-.485a.76.76 0 0 0-.504.176q-.206.176-.294.538l-.189.874a1 1 0 0 0-.021.224q0 .49.504.49zm2.138.677a.11.11 0 0 0 .089.037h.715q.052 0 .1-.037c.048-.037.051-.057.058-.096l.242-1.167h.709q.689 0 1.082-.293c.393-.293.443-.498.531-.906q.031-.144.031-.277 0-.463-.357-.709c-.357-.246-.546-.245-.935-.245h-1.398q-.052 0-.1.037c-.048.037-.051.057-.058.096l-.725 3.465a.13.13 0 0 0 .016.096zm2.333-2.121a.62.62 0 0 1-.383.123h-.604l.2-.954h.63q.215 0 .305.085c.09.085.089.131.089.234a1 1 0 0 1-.016.16.58.58 0 0 1-.221.352"/></g></svg>