<svg xmlns="http://www.w3.org/2000/svg" width="256" height="256" fill="none" viewBox="0 0 800 800"><g clip-path="url('#clip0')"><path fill="#5E12A0" d="M673.964 193.237c-6.344-24.432-26.737-48.864-63.445-76.063-29.457-21.666-60.727-34.113-85.652-34.113-4.985 0-9.517.461-14.048 1.383-11.33 2.305-21.3 10.603-27.645 23.05-7.704 14.751-9.516 34.574-4.531 46.559 1.812 3.688 4.078 8.298 6.797 12.447-24.018 14.751-37.614 18.9-39.427 19.361 62.54 21.206 114.656 65.46 147.285 123.083l.453-5.531c1.36-15.213 5.891-32.73 12.236-50.709q9.517 2.766 19.034 2.766c16.767 0 31.269-6.915 40.333-19.361s12.689-29.042 8.61-42.872"/><path fill="url('#paint0_radial')" d="M608.706 239.342c41.239 11.525 58.007-20.744 52.569-42.41-5.892-21.667-24.925-43.794-58.461-68.687-33.535-24.893-67.524-35.035-89.277-30.425s-28.097 38.261-22.659 51.169c2.266 5.071 7.251 12.447 14.049 20.744-8.611 5.993-16.768 10.603-23.566 14.752 41.693 18.9 77.948 48.403 105.139 85.282 3.172-12.446 7.704-23.51 11.782-33.191 3.173.461 6.798 1.383 10.424 2.766"/><path fill="url('#paint1_radial')" d="M372.594 691.101c139.91 0 253.33-115.372 253.33-257.691s-113.42-257.691-253.33-257.691c-139.909 0-253.329 115.372-253.329 257.691s113.42 257.691 253.329 257.691"/><path fill="#A98698" d="M640.427 175.721c-34.442-36.879-63.445-46.56-98.34-54.396-27.191-6.454-19.941-22.128 13.142-18.901-15.862-5.532-30.817-6.915-41.693-4.61-21.753 4.61-28.097 38.262-22.659 51.17 2.266 5.071 7.251 12.446 14.048 20.744a344 344 0 0 1-31.269 18.901c4.079 1.843 9.064 4.148 14.955 7.375 15.408 8.298 32.176 22.128 32.176 22.128-25.378-22.128-19.94-32.269 14.955-57.163 10.876-7.836 30.816-6.914 49.397 2.766 18.58 9.681 40.333 34.113 40.333 34.113l-20.846 40.567 4.078 1.383c13.143 3.688 23.566 2.766 31.723-.461 9.517-5.993 34.442-26.276 0-63.616" opacity=".6"/><path fill="#5E12A0" d="M541.631 143.45c9.064 3.688 20.847 10.142 35.348 19.823 17.221 11.524 32.176 24.432 41.693 34.574-15.861 21.205-26.284 50.247-32.629 70.53 3.172 4.61 6.798 9.22 9.97 13.83 3.172-11.525 8.611-28.581 15.862-45.638 1.812.461 4.078.461 6.344.461 5.438 0 11.783-.922 16.768-5.07 3.625-2.766 7.704-7.837 7.251-17.057 0-8.759-6.798-19.822-20.847-33.191-9.97-9.681-23.565-20.283-37.161-29.964-38.973-26.276-66.164-33.652-78.4-21.205-8.158 8.297-7.251 18.439-4.532 25.815-14.502 9.681-26.738 16.595-34.895 21.205 5.438 1.844 10.423 4.149 15.861 6.454 14.502-7.837 35.349-21.205 59.367-40.567m85.652 65.921c1.359 2.305 1.812 4.61 1.812 5.993 0 4.149-1.359 5.532-2.265 6.454-1.813 1.383-5.439 2.305-8.611 2.305 2.719-5.532 5.891-10.142 9.064-14.752m-111.936-68.687c1.359-1.383 4.985-2.305 10.876-1.383-4.532 3.688-9.064 6.915-13.595 10.142-.454-3.227-.001-6.454 2.719-8.759"/><path fill="#5E12A0" d="M372.596 160.503c-148.191 0-268.285 122.161-268.285 272.903S224.405 706.31 372.596 706.31c148.19 0 268.284-122.161 268.284-272.904 0-150.742-120.547-272.903-268.284-272.903m0 530.595c-140.034 0-253.33-115.247-253.33-257.692 0-142.444 113.296-257.691 253.33-257.691 140.033 0 253.329 115.247 253.329 257.691 0 142.445-113.749 257.692-253.329 257.692"/><path fill="url('#paint2_linear')" d="M372.594 691.101c139.91 0 253.33-115.372 253.33-257.691s-113.42-257.691-253.33-257.691c-139.909 0-253.329 115.372-253.329 257.691s113.42 257.691 253.329 257.691" opacity=".6"/><path fill="#A98698" d="M370.783 659.75c-138.221-22.589-232.029-154.892-209.37-295.492 9.97-62.233 40.786-115.247 84.292-153.508-63.446 37.339-110.577 102.338-123.266 181.628-22.206 140.6 71.603 272.903 209.37 295.492 77.042 12.907 151.364-11.525 206.199-59.467-48.491 28.581-107.405 41.027-167.225 31.347" opacity=".6"/><path fill="url('#paint3_linear')" d="M412.93 179.411c-63.899-10.603-125.985 4.149-176.741 36.879l-1.813 1.843c19.487-11.985 48.037-22.588 48.037-22.588-73.415 43.333-96.074 92.658-96.074 92.658 28.55-56.24 112.389-95.885 178.1-98.651 65.712-2.766 108.764 17.057 161.333 59.929 52.57 43.332 84.292 131.841 81.12 201.911-2.719 70.07-38.974 126.771-38.974 126.771 24.926-32.73 39.881-56.701 49.397-81.133 1.813-7.376 3.626-14.752 4.532-22.589 22.659-140.139-70.696-272.442-208.917-295.03" opacity=".6"/><path fill="url('#paint4_linear')" d="M613.235 431.104c0 135.069-107.858 244.783-240.64 244.783-132.783 0-241.094-109.714-241.094-244.783z"/><path fill="url('#paint5_linear')" d="M594.201 431.104c0 131.842-102.42 239.713-231.124 244.783h9.517c132.783 0 240.64-109.714 240.64-244.783z" opacity=".6"/><path fill="url('#paint6_linear')" d="M165.49 431.104h-33.989c0 135.069 107.858 244.783 240.641 244.783 5.891 0 11.329 0 16.767-.461C264.284 666.207 165.49 560.18 165.49 431.104" opacity=".7"/><path fill="url('#paint7_linear')" d="M612.781 433.407c0-28.12-48.037-44.254-111.936-49.786-46.224-3.688-92.902.922-146.378 17.517-46.224 13.83-87.917 11.525-118.28 7.837-67.525-7.837-104.686-8.759-104.686 24.432 0 47.943 96.075 107.871 240.187 87.126 72.963-10.602 110.577-32.269 153.629-47.02 46.678-15.674 87.464-15.213 87.464-40.106"/><path fill="#fff" d="M451.448 317.236c22.526 0 40.786-18.575 40.786-41.489s-18.26-41.489-40.786-41.489-40.787 18.575-40.787 41.489 18.261 41.489 40.787 41.489M518.067 348.13c9.511 0 17.221-7.843 17.221-17.518 0-9.674-7.71-17.517-17.221-17.517s-17.221 7.843-17.221 17.517c0 9.675 7.71 17.518 17.221 17.518"/><path fill="url('#paint8_linear')" d="M579.703 242.563h-.907c-2.719-.461-4.531-3.227-4.078-6.454 4.078-21.205 21.299-41.489 22.206-42.411 1.812-2.305 5.438-2.305 7.251-.461 2.266 1.844 2.265 5.532.453 7.376-.453.461-16.315 19.362-19.94 37.801-.453 2.766-2.719 4.149-4.985 4.149" opacity=".6"/><path fill="#fff" d="M355.905 625.64c7.008 0 12.689-5.779 12.689-12.908s-5.681-12.907-12.689-12.907-12.689 5.779-12.689 12.907 5.681 12.908 12.689 12.908" opacity=".2"/><g opacity=".4"><path fill="url('#paint9_linear')" d="M348.577 621.135c-4.985-5.07-4.985-13.368 0-18.439.907-.922 1.813-1.383 2.719-2.305-1.812.461-3.172 1.383-4.531 2.766-4.985 5.071-4.985 13.369 0 18.439 4.078 4.149 10.423 5.071 15.408 2.305-4.532 1.844-9.97.922-13.596-2.766" opacity=".6"/></g><path fill="#fff" d="M360.361 609.042c1.502 0 2.719-1.238 2.719-2.766 0-1.527-1.217-2.766-2.719-2.766s-2.719 1.239-2.719 2.766c0 1.528 1.217 2.766 2.719 2.766" opacity=".3"/><path fill="#fff" d="M422.07 619.19c7.008 0 12.689-5.779 12.689-12.908s-5.681-12.907-12.689-12.907-12.689 5.778-12.689 12.907 5.681 12.908 12.689 12.908" opacity=".2"/><g opacity=".4"><path fill="url('#paint10_linear')" d="M414.742 614.685c-4.985-5.071-4.985-13.368 0-18.439.906-.922 1.813-1.383 2.719-2.305-1.813.461-3.172 1.383-4.532 2.766-4.985 5.071-4.985 13.368 0 18.439 4.079 4.149 10.423 5.071 15.408 2.305-4.531 1.844-9.97.922-13.595-2.766" opacity=".6"/></g><path fill="#fff" d="M426.526 602.592c1.501 0 2.719-1.238 2.719-2.766s-1.218-2.766-2.719-2.766c-1.502 0-2.72 1.238-2.72 2.766s1.218 2.766 2.72 2.766" opacity=".3"/><path fill="#fff" d="M389.361 649.153c5.256 0 9.517-4.334 9.517-9.681s-4.261-9.68-9.517-9.68-9.516 4.334-9.516 9.68c0 5.347 4.26 9.681 9.516 9.681" opacity=".2"/><g opacity=".4"><path fill="url('#paint11_linear')" d="M383.923 645.57c-3.625-3.688-3.625-10.141 0-13.829.453-.461 1.36-.922 1.813-1.383-1.36.461-2.266 1.383-3.172 2.305-3.626 3.688-3.626 10.142 0 13.829 3.172 3.227 7.704 3.688 11.782 1.383-3.625 1.383-7.704.461-10.423-2.305" opacity=".6"/></g><path fill="#fff" d="M392.532 636.243c1.002 0 1.813-.825 1.813-1.843s-.811-1.844-1.813-1.844-1.812.825-1.812 1.844c0 1.018.811 1.843 1.812 1.843" opacity=".3"/><path fill="#fff" d="M447.825 642.238c5.256 0 9.517-4.334 9.517-9.68 0-5.347-4.261-9.681-9.517-9.681s-9.517 4.334-9.517 9.681 4.261 9.68 9.517 9.68" opacity=".2"/><g opacity=".4"><path fill="url('#paint12_linear')" d="M442.387 638.656c-3.626-3.688-3.626-10.142 0-13.83.453-.461 1.359-.922 1.812-1.383-1.359.461-2.265 1.383-3.172 2.305-3.625 3.688-3.625 10.142 0 13.83 3.172 3.227 7.704 3.688 11.783 1.383-3.626 1.383-7.704.461-10.423-2.305" opacity=".6"/></g><path fill="#fff" d="M450.996 629.338c1.001 0 1.813-.826 1.813-1.844s-.812-1.844-1.813-1.844-1.813.825-1.813 1.844c0 1.018.812 1.844 1.813 1.844" opacity=".3"/><path fill="#fff" d="M301.896 621.034c11.514 0 20.847-9.494 20.847-21.205s-9.333-21.205-20.847-21.205c-11.513 0-20.846 9.494-20.846 21.205s9.333 21.205 20.846 21.205" opacity=".2"/><g opacity=".4"><path fill="url('#paint13_linear')" d="M290.128 613.192c-8.157-8.297-8.157-21.666 0-29.964 1.36-1.383 2.719-2.305 4.532-3.227-2.719.922-4.985 2.766-7.251 4.61-8.157 8.298-8.157 21.667 0 29.964 6.798 6.915 17.221 8.298 25.378 3.227-7.704 3.227-16.768 1.844-22.659-4.61" opacity=".6"/></g><path fill="#fff" d="M309.15 593.372c2.503 0 4.532-2.064 4.532-4.61s-2.029-4.61-4.532-4.61-4.532 2.064-4.532 4.61 2.029 4.61 4.532 4.61" opacity=".3"/><path fill="#fff" d="M488.23 568.936c11.513 0 20.846-9.494 20.846-21.205 0-11.712-9.333-21.206-20.846-21.206s-20.847 9.494-20.847 21.206 9.334 21.205 20.847 21.205" opacity=".2"/><g opacity=".4"><path fill="url('#paint14_linear')" d="M475.92 561.103c-8.157-8.298-8.157-21.667 0-29.964 1.36-1.383 2.719-2.305 4.532-3.227-2.719.922-4.985 2.766-7.251 4.609-8.157 8.298-8.157 21.667 0 29.965 6.798 6.914 17.221 8.297 25.378 3.227-7.704 3.226-16.314 1.843-22.659-4.61" opacity=".6"/></g><path fill="#fff" d="M495.407 541.282c2.503 0 4.532-2.064 4.532-4.61s-2.029-4.61-4.532-4.61-4.532 2.064-4.532 4.61 2.029 4.61 4.532 4.61" opacity=".3"/></g><defs><linearGradient id="paint2_linear" x1="331.959" x2="415.726" y1="687.445" y2="179.399" gradientUnits="userSpaceOnUse"><stop/><stop offset=".62"/></linearGradient><linearGradient id="paint3_linear" x1="551.129" x2="338.385" y1="258.408" y2="450.302" gradientUnits="userSpaceOnUse"><stop offset=".289"/><stop offset=".78"/></linearGradient><linearGradient id="paint4_linear" x1="131.705" x2="613.118" y1="553.353" y2="553.353" gradientUnits="userSpaceOnUse"><stop/><stop offset=".995"/></linearGradient><linearGradient id="paint5_linear" x1="635.906" x2="369.659" y1="452.584" y2="699.942" gradientUnits="userSpaceOnUse"><stop offset=".289"/><stop offset=".78"/></linearGradient><linearGradient id="paint6_linear" x1="131.705" x2="389.259" y1="553.352" y2="553.352" gradientUnits="userSpaceOnUse"><stop/><stop offset=".995"/></linearGradient><linearGradient id="paint7_linear" x1="132.029" x2="612.795" y1="453.743" y2="453.743" gradientUnits="userSpaceOnUse"><stop/><stop offset=".995"/></linearGradient><linearGradient id="paint8_linear" x1="604.91" x2="569.494" y1="191.453" y2="248.03" gradientUnits="userSpaceOnUse"><stop offset=".289"/><stop offset=".78"/></linearGradient><linearGradient id="paint9_linear" x1="343.013" x2="362.187" y1="613.233" y2="613.233" gradientUnits="userSpaceOnUse"><stop offset=".289"/><stop offset=".78"/></linearGradient><linearGradient id="paint10_linear" x1="409.132" x2="428.305" y1="606.695" y2="606.695" gradientUnits="userSpaceOnUse"><stop offset=".289"/><stop offset=".78"/></linearGradient><linearGradient id="paint11_linear" x1="379.785" x2="394.18" y1="639.688" y2="639.688" gradientUnits="userSpaceOnUse"><stop offset=".289"/><stop offset=".78"/></linearGradient><linearGradient id="paint12_linear" x1="438.053" x2="452.447" y1="632.755" y2="632.755" gradientUnits="userSpaceOnUse"><stop offset=".289"/><stop offset=".78"/></linearGradient><linearGradient id="paint13_linear" x1="281.083" x2="312.395" y1="600.365" y2="600.365" gradientUnits="userSpaceOnUse"><stop offset=".289"/><stop offset=".78"/></linearGradient><linearGradient id="paint14_linear" x1="467.049" x2="498.361" y1="548.259" y2="548.259" gradientUnits="userSpaceOnUse"><stop offset=".289"/><stop offset=".78"/></linearGradient><radialGradient id="paint0_radial" cx="0" cy="0" r="1" gradientTransform="matrix(202.547 0 0 206.035 653.009 167.889)" gradientUnits="userSpaceOnUse"><stop/><stop offset=".681"/><stop offset="1"/></radialGradient><radialGradient id="paint1_radial" cx="0" cy="0" r="1" gradientTransform="matrix(495.56 0 0 504.093 540.32 255.753)" gradientUnits="userSpaceOnUse"><stop/><stop offset=".681"/><stop offset="1"/></radialGradient><clipPath id="clip0"><path fill="#fff" d="M0 0h800v800H0z"/></clipPath></defs></svg>