<svg xmlns="http://www.w3.org/2000/svg" width="260" height="260" style="shape-rendering:geometricPrecision;text-rendering:geometricPrecision;image-rendering:optimizeQuality;fill-rule:evenodd;clip-rule:evenodd"><path fill="#ddd" d="M142.5 257.5q.834-53.872-49-73.5a60.2 60.2 0 0 0-13-2.5 7226 7226 0 0 0-1-170q67.092-26.334 127 14.5 60.621 48.81 49.5 126.5-14.192 68.635-78.5 96.5a149 149 0 0 1-35 8.5" style="opacity:.994"/><path fill="#172f52" d="M79.5 11.5a7226 7226 0 0 1 1 170 60.2 60.2 0 0 1 13 2.5q49.834 19.627 49 73.5-69.585 4.74-114.5-48a31.5 31.5 0 0 1-5.5-9q17.977-15.985 42-19 .498-81.254-1-162 7.105-5.552 16-8" style="opacity:.992"/><path fill="#dcdcdc" d="M63.5 19.5a6561 6561 0 0 1 1 162q-24.023 3.015-42 19-21.495-31.497-22-70Q1.682 69.66 47.5 30a84 84 0 0 1 16-10.5" style="opacity:.989"/></svg>