<svg xmlns="http://www.w3.org/2000/svg" width="260" height="260" style="shape-rendering:geometricprecision;text-rendering:geometricprecision;image-rendering:optimizequality;fill-rule:evenodd;clip-rule:evenodd"><path style="opacity:.994" fill="#ddd" d="M142.5 257.5c.556-35.915-15.778-60.415-49-73.5a60.17 60.17 0 0 0-13-2.5 7225.838 7225.838 0 0 0-1-170c44.728-17.556 87.061-12.723 127 14.5 40.414 32.54 56.914 74.707 49.5 126.5-9.462 45.757-35.628 77.923-78.5 96.5a149.097 149.097 0 0 1-35 8.5Z"/><path style="opacity:.992" fill="#172f52" d="M79.5 11.5a7225.838 7225.838 0 0 1 1 170 60.17 60.17 0 0 1 13 2.5c33.222 13.085 49.556 37.585 49 73.5-46.39 3.16-84.557-12.84-114.5-48a31.517 31.517 0 0 1-5.5-9c11.985-10.657 25.985-16.99 42-19 .332-54.169-.001-108.17-1-162 4.736-3.701 10.07-6.368 16-8Z"/><path style="opacity:.989" fill="#dcdcdc" d="M63.5 19.5a6561.342 6561.342 0 0 1 1 162c-16.015 2.01-30.015 8.343-42 19-14.33-20.998-21.664-44.332-22-70 .788-40.56 16.454-74.06 47-100.5a84.15 84.15 0 0 1 16-10.5Z"/></svg>