<svg xmlns="http://www.w3.org/2000/svg" width="24" height="24" fill="none"><mask id="A" width="16" height="16" x="4" y="4" mask-type="alpha" maskUnits="userSpaceOnUse"><path fill="#d9d9d9" d="M4 4h16v16H4z"/></mask><g mask="url('#A')"><path fill="#fff" d="M16.106 9.388c-.281-.18-.657-.18-.985 0l-2.346 1.306-1.595.855-2.299 1.306c-.282.18-.657.18-.985 0l-1.783-1.036c-.282-.18-.516-.495-.516-.856V8.982c0-.315.188-.63.516-.856l1.783-.991c.282-.18.657-.18.985 0l1.783 1.036c.281.18.516.495.516.855v1.306l1.595-.901V8.082c0-.315-.188-.63-.516-.856L8.927 5.335c-.282-.18-.657-.18-.985 0L4.516 7.271c-.328.18-.516.495-.516.81v3.782c0 .315.188.63.516.855l3.378 1.891c.282.18.657.18.985 0l2.299-1.261 1.595-.9 2.299-1.261c.282-.18.657-.18.985 0l1.783.99c.282.18.516.495.516.856v2.026c0 .315-.188.63-.516.855l-1.736.991c-.281.18-.657.18-.985 0l-1.783-.991c-.282-.18-.516-.495-.516-.855V13.8l-1.595.9v1.306c0 .315.188.631.516.855l3.378 1.891c.282.18.657.18.985 0l3.378-1.891c.282-.18.516-.495.516-.855v-3.827c0-.315-.188-.63-.516-.855l-3.378-1.936z"/></g></svg>