<svg width="28" height="28" viewBox="4 4 20 20" fill="none" xmlns="http://www.w3.org/2000/svg"><path d="M14 .667C6.637.667.665 6.639.665 14c0 7.362 5.972 13.334 13.333 13.334 7.362 0 13.334-5.972 13.334-13.334C27.333 6.64 21.36.667 13.999.667Zm0 19.076A5.742 5.742 0 0 1 8.256 14a5.742 5.742 0 0 1 5.742-5.742A5.742 5.742 0 0 1 19.742 14a5.742 5.742 0 0 1-5.743 5.743Z" fill="url('#paint0_radial_7729_12042')"/><defs><radialGradient id="paint0_radial_7729_12042" cx="0" cy="0" r="1" gradientUnits="userSpaceOnUse" gradientTransform="translate(13.998 13.999) scale(11.1754)"><stop offset=".225" stop-color="#fff"/><stop offset=".544" stop-color="#fff" stop-opacity=".44"/><stop offset=".686" stop-color="#fff" stop-opacity=".23"/><stop offset=".857" stop-color="#fff" stop-opacity=".07"/><stop offset="1" stop-color="#fff" stop-opacity="0"/></radialGradient></defs></svg>