<svg xmlns="http://www.w3.org/2000/svg" width="32" height="32" fill="none"><path fill="#fff" d="M19.125 13.4c0 1.435-1.175 2.6-2.625 2.6v2.6c2.9 0 5.25-2.33 5.25-5.2 0-2.872-2.35-5.2-5.25-5.2-.956 0-1.853.252-2.625.695A5.19 5.19 0 0 0 11.25 13.4v13l2.36 2.338.265.262V13.4c0-1.436 1.175-2.6 2.625-2.6s2.625 1.164 2.625 2.6"/><path fill="#fff" d="M16.5 3a10.52 10.52 0 0 0-7.875 3.522A10.3 10.3 0 0 0 6 13.4v7.8l2.625 2.6V13.4a7.75 7.75 0 0 1 2.625-5.814 7.9 7.9 0 0 1 2.625-1.54A7.9 7.9 0 0 1 16.5 5.6c4.349 0 7.875 3.493 7.875 7.8s-3.526 7.8-7.875 7.8v2.6c5.8 0 10.5-4.657 10.5-10.4S22.3 3 16.5 3"/></svg>