<svg xmlns="http://www.w3.org/2000/svg" width="1000" height="1000" fill="none"><path fill="#E6DAFE" d="M1000 500c0 276.142-223.858 500-500 500S0 776.142 0 500 223.858 0 500 0s500 223.858 500 500"/><path fill="#242235" d="M575.336 459.157c0 35.518-28.777 64.316-64.268 64.316v64.316c70.982 0 128.536-57.596 128.536-128.632 0-71.035-57.554-128.631-128.536-128.631-23.399 0-45.373 6.254-64.267 17.22-38.427 22.224-64.268 63.793-64.268 111.411v321.579l64.268 64.316V459.157c0-35.517 28.776-64.316 64.267-64.316s64.268 28.799 64.268 64.316"/><path fill="#242235" d="M511.07 201.904c-46.827 0-90.718 12.538-128.535 34.442a257 257 0 0 0-64.267 52.68C278.271 334.376 254 393.95 254 459.168v192.947l64.268 64.316V459.168c0-57.131 24.823-108.473 64.267-143.817 18.545-16.58 40.316-29.67 64.268-38.106 20.085-7.156 41.74-11.025 64.267-11.025 106.473 0 192.803 86.394 192.803 192.948 0 106.553-86.33 192.947-192.803 192.947v64.316c141.993 0 257.07-115.193 257.07-257.263 0-142.071-115.077-257.264-257.07-257.264"/></svg>