<svg xmlns="http://www.w3.org/2000/svg" width="130" height="100" fill="none"><rect width="128" height="98" x="1" y="1" fill="#fff" fill-opacity=".03" stroke="#4d508e" stroke-width="2" rx="3"/><g fill="#4d508e"><circle cx="109" cy="13" r="1"/><circle cx="113" cy="13" r="1"/><circle cx="117" cy="13" r="1"/></g><g stroke-linecap="round" stroke-width="2"><path stroke="#0078e8" d="M20 25v12"/><g stroke="#4d508e"><path d="M20 42v8m0 4v4m0 4v4m0 4v4m0 4v4M20 70v4m90-26v6"/></g><path stroke="#f5f7f9" d="M103 61v4m0 3v.5"/><path stroke="#4d508e" d="M110 58v4m0 4v4m0 12v4m0-12v4"/><path stroke="#0078e8" d="M20.5 37c33.5 0 35 48.5 83 48.5M20.5 25c33.5 0 43.5 22.5 83 23.503"/><path stroke="#f5f7f9" d="m116 78-7.895-7.898m2.245-5.425a7.68 7.68 0 0 1-2.248 5.429 7.675 7.675 0 0 1-10.854 0 7.68 7.68 0 0 1 0-10.858 7.67 7.67 0 0 1 10.854 0 7.68 7.68 0 0 1 2.248 5.429z"/></g></svg>