<svg xmlns="http://www.w3.org/2000/svg" width="589" height="580" fill="none" viewBox="-150 -150 889 880"><path fill="#fff" d="M74.08 223.59c-22.506-21.345-38.283-48.956-38.283-81.671v-3.48C37.653 82.522 83.593 37.511 139.51 35.886h355.919c9.28.464 16.705 6.96 16.705 16.474v301.162c8.121 1.392 12.065 2.552 19.954 5.336 6.264 2.32 14.849 7.193 14.849 7.193V52.36C546.473 23.82 523.735.85 495.197.85H139.278C62.479 2.011.762 64.89.762 141.92c0 44.78 20.418 83.064 53.829 109.978 2.32 1.856 4.408 4.176 10.44 4.176 10.441 0 17.866-8.352 17.402-17.401-.232-7.657-3.48-10.441-8.353-15.082"/><path fill="#fff" d="M486.148 373.243h-279.12c-18.794.232-33.875 15.314-33.875 34.107v40.14c.464 18.561 16.241 34.339 35.035 34.339h20.65V447.49h-20.65v-39.212h11.369c35.267 0 61.253 32.715 61.253 67.75 0 31.091-28.306 70.766-75.639 67.518-41.995-2.784-64.733-40.14-64.733-67.518V135.887c0-15.314-12.529-27.843-27.842-27.843H84.753v34.803h20.65V476.26c-1.16 67.75 48.26 101.857 99.768 101.857l281.209.928c56.613 0 102.552-45.94 102.552-102.785s-46.171-103.017-102.784-103.017m67.75 105.105c-1.161 36.427-31.091 65.662-67.75 65.662l-195.593-.696c15.545-18.098 25.058-41.532 25.058-67.054 0-40.139-23.898-67.75-23.898-67.75H486.38c37.355 0 67.75 30.395 67.75 67.75zM410.974 149.112H200.532v-34.803h210.442c9.513 0 17.401 7.657 17.401 17.402 0 9.513-7.656 17.401-17.401 17.401"/><path fill="#fff" d="M410.974 312.918H200.532v-34.803h210.442c9.513 0 17.401 7.657 17.401 17.401 0 9.513-7.656 17.402-17.401 17.402M448.097 231.015H200.532v-34.803h247.333c9.513 0 17.402 7.657 17.402 17.402.232 9.512-7.657 17.401-17.17 17.401"/></svg>