<svg xmlns="http://www.w3.org/2000/svg" width="1024" height="1024"><path fill="#00e9b1" d="M961.665 278.447c-.017-16.71-9.042-31.309-22.479-39.204l-.213-.116L534.588 6.033c-6.499-3.794-14.308-6.034-22.64-6.034s-16.14 2.241-22.857 6.151l.216-.116L85.236 239.442c-13.734 7.915-22.845 22.494-22.902 39.207v466.613c.09 16.601 9.1 31.078 22.478 38.89l.214.115 404.279 233.617c6.487 3.844 14.298 6.115 22.64 6.115s16.153-2.271 22.849-6.229l-.209.114L938.97 784.267c13.592-7.929 22.602-22.405 22.693-38.993v-.013zM835.132 672.164c-.152 16.555-9.144 30.976-22.478 38.785l-.214.116-277.851 160.729c-6.487 3.844-14.298 6.115-22.64 6.115s-16.153-2.271-22.849-6.229l.209.114-277.746-160.729c-13.662-7.993-22.693-22.595-22.693-39.305v-.016.001-119.318l300.438 173.278c6.512 3.813 14.339 6.064 22.693 6.064s16.18-2.252 22.908-6.18l-.215.116 110.534-63.79v-145.88l-103.109 59.92c-6.537 3.85-14.401 6.124-22.797 6.124s-16.26-2.274-23.01-6.241l.213.116L189.08 398.18v-46.431c.017-16.71 9.042-31.309 22.479-39.204l.213-.116 277.538-160.31c6.516-3.793 14.343-6.032 22.693-6.032s16.175 2.24 22.911 6.15l-.219-.117 277.538 160.101c13.651 8.01 22.675 22.61 22.693 39.317v119.948l-126.534-73.201-173.696-100.077c-6.439-3.813-14.192-6.066-22.47-6.066l-.234.001h.012-.131a45.2 45.2 0 0 0-22.882 6.181l.214-.116-110.011 63.685h-.732v146.402l103.005-59.816c6.514-3.871 14.362-6.16 22.745-6.16s16.23 2.289 22.953 6.274l-.208-.114 181.539 104.573v-.836l126.638 73.201z"/></svg>