<svg xmlns="http://www.w3.org/2000/svg" width="58" height="58" fill="none" viewBox="-10 -10 78 78"><path fill="#fff" fill-rule="evenodd" d="M28.738 57.77c8.559 0 16.248-3.723 21.538-9.638a6.85 6.85 0 0 0-8.788-.155l-.5.404a11.563 11.563 0 0 1-15.888-1.3 6.173 6.173 0 0 0-8.623-.575l-5.77 4.946a28.76 28.76 0 0 0 18.03 6.317m9.365-13.988c4.568-3.686 10.989-3.553 15.382.007a28.75 28.75 0 0 0 4.137-14.904 28.75 28.75 0 0 0-5.053-16.327 6.84 6.84 0 0 0-5.974 1.572l-.481.426a11.563 11.563 0 0 1-15.931-.564 6.173 6.173 0 0 0-8.64-.178l-6.714 6.317-3.694-3.926 6.714-6.317c4.586-4.314 11.78-4.166 16.185.333a6.173 6.173 0 0 0 8.505.301l.48-.426a12.2 12.2 0 0 1 5.035-2.687A28.78 28.78 0 0 0 28.738 0C14.075 0 1.964 10.926.1 25.08c4.454-2.137 9.948-1.314 13.58 2.404a6.44 6.44 0 0 0 8.569.575l3.754-2.932a12.495 12.495 0 0 1 15.9.425l7.31 6.368-3.541 4.064-7.309-6.368a7.105 7.105 0 0 0-9.042-.242l-3.754 2.933A11.83 11.83 0 0 1 9.824 31.25a6.44 6.44 0 0 0-9.012-.197L0 31.815a28.76 28.76 0 0 0 6.813 15.876l6.156-5.277c4.78-4.098 11.96-3.619 16.152 1.079a6.173 6.173 0 0 0 8.482.693z" clip-rule="evenodd"/></svg>