<svg xmlns="http://www.w3.org/2000/svg" id="svg1" width="236" height="236" version="1.1"><g id="g1"><ellipse id="path6" cx="117.887" cy="117.887" rx="118.084" ry="117.887" style="fill:#00d1ff;fill-opacity:1;stroke:#46d3fe;stroke-width:1.00157px;stroke-opacity:1;display:inline"/><path id="path1" d="m64.276 82.62 28.5.303s10.309 2.122 17.737 14.25l-11.37 13.947-10.156-11.673-24.407-.152Z" style="fill:#000;fill-opacity:1;stroke:#000;stroke-width:1.00157px;stroke-opacity:1"/><path id="path2" d="m55.01 99.451-.156-16.52H26.805s-7.991 1.364-15.513 10.61C3.771 102.785-.773 107.483-.773 107.483s-.157 11.67 1.253 28.19l10.186 11.974s4.857 8.488 16.766 10.913l27.892.303-.314-16.824-25.228.303-18.176-21.521L29.782 99.3Z" style="fill:#000;fill-opacity:1;stroke:#000;stroke-width:1.01817px;stroke-opacity:1"/><path id="path3" d="M64.58 142.045h24.558l42.599-50.784s7.73-8.945 16.069-8.035l24.71-.303.303 16.524-25.62.151-16.978 21.375 17.281 21.224h24.559l.152 15.766-25.772.606s-9.702-.152-14.553-8.035l-13.492-15.917-13.643 16.827s-4.397 6.67-14.705 7.125H64.125Z" style="fill:#000;fill-opacity:1;stroke:#000;stroke-width:1.00157px;stroke-opacity:1"/><path id="path4" d="M181.763 83.074h26.984s10.309.607 18.646 14.099l-11.066 13.795-10.006-11.37-24.558-.151" style="fill:#000;fill-opacity:1;stroke:#000;stroke-width:1.00157px;stroke-opacity:1"/><path id="path5" d="m181.462 141.891 24.989.303 29.924-34.707-.308 28.645-11.877 13.489s-6.17 10.306-16.968 8.942h-25.605Z" style="fill:#000;fill-opacity:1;stroke:#000;stroke-width:1.01018px;stroke-opacity:1"/></g></svg>