<svg xmlns="http://www.w3.org/2000/svg" width="24" height="24" fill="none"><mask id="A" width="16" height="16" x="4" y="4" mask-type="alpha" maskUnits="userSpaceOnUse"><path fill="#d9d9d9" d="M4 4h16v16H4z"/></mask><g mask="url('#A')"><path fill="#fff" fill-rule="evenodd" d="M5.523 10.597h11.185c.14 0 .273.055.37.154l1.77 1.769a.52.52 0 0 1-.37.883H7.293a.52.52 0 0 1-.37-.154L5.154 11.48a.52.52 0 0 1 .37-.883zm-.37-2.345 1.769-1.769a.53.53 0 0 1 .37-.154h11.182a.52.52 0 0 1 .37.883l-1.767 1.769a.53.53 0 0 1-.37.154H5.523a.52.52 0 0 1-.37-.883m13.692 7.495-1.769 1.769a.53.53 0 0 1-.37.154H5.523a.52.52 0 0 1-.37-.883l1.769-1.769a.53.53 0 0 1 .37-.154h11.182a.52.52 0 0 1 .37.883z"/></g></svg>