<svg xmlns="http://www.w3.org/2000/svg" width="101" height="101" fill="none"><rect width="101" height="101" fill="#000" rx="50.5"/><svg xmlns="http://www.w3.org/2000/svg" width="101" height="88" viewBox="-30 -30 161 148"><path fill="url('#paint0_linear_174_4403')" d="m100.48 69.382-16.673 17.42c-.363.378-.801.68-1.288.886a4 4 0 0 1-1.545.312H1.936c-.378 0-.746-.107-1.062-.309a1.9 1.9 0 0 1-.714-.825 1.84 1.84 0 0 1-.132-1.072c.064-.362.235-.698.492-.966l16.686-17.42a3.9 3.9 0 0 1 1.284-.885 4 4 0 0 1 1.54-.313h79.034c.378 0 .746.107 1.062.308.315.202.563.489.714.826.15.337.196.709.132 1.071a1.87 1.87 0 0 1-.492.967M83.807 34.303a3.9 3.9 0 0 0-1.288-.886 4 4 0 0 0-1.545-.312H1.936c-.378 0-.746.107-1.062.309a1.9 1.9 0 0 0-.714.825c-.15.337-.196.71-.132 1.071.064.362.235.698.492.967l16.686 17.42c.362.377.799.678 1.284.884a4 4 0 0 0 1.54.314h79.034c.378 0 .746-.107 1.062-.309.315-.201.563-.488.714-.825a1.84 1.84 0 0 0-.36-2.038zM1.936 21.791h79.038a4 4 0 0 0 1.544-.313 3.9 3.9 0 0 0 1.289-.886l16.673-17.42a1.87 1.87 0 0 0 .492-.967 1.84 1.84 0 0 0-.132-1.07 1.9 1.9 0 0 0-.714-.826A1.97 1.97 0 0 0 99.064 0H20.03a4 4 0 0 0-1.54.314 3.9 3.9 0 0 0-1.284.884L.525 18.618a1.87 1.87 0 0 0-.492.966c-.065.362-.019.734.13 1.07.15.337.398.624.713.826s.683.31 1.06.31" transform="translate(0 10)"/><defs><linearGradient id="paint0_linear_174_4403" x1="8.526" x2="88.993" y1="90.097" y2="-3.016" gradientUnits="userSpaceOnUse"><stop offset=".08" stop-color="#9945FF"/><stop offset=".3" stop-color="#8752F3"/><stop offset=".5" stop-color="#5497D5"/><stop offset=".6" stop-color="#43B4CA"/><stop offset=".72" stop-color="#28E0B9"/><stop offset=".97" stop-color="#19FB9B"/></linearGradient></defs></svg></svg>