<svg xmlns="http://www.w3.org/2000/svg" width="24" height="24" fill="none"><path fill="#FAFAFF" fill-rule="evenodd" d="M16.202 10.839c.73.717 1.166 1.624 1.166 2.61 0 1.002-.45 1.92-1.2 2.642l-.064.062-.017-.079a3 3 0 0 0-.051-.203c-.376-1.29-1.598-2.396-3.61-3.291-1.359-.603-2.136-1.33-2.34-2.155-.133-.533-.034-1.069.155-1.528.19-.459.471-.843.71-1.075l.783-.749a.41.41 0 0 1 .532 0zm1.238-.748-5.246-5.02a.3.3 0 0 0-.388 0l-5.246 5.02-.017.016C5.578 11.045 5 12.236 5 13.532 5 16.552 8.134 19 12 19s7-2.448 7-5.468c0-1.296-.578-2.487-1.543-3.425zm-9.625.732.47-.45.014.084q.017.098.04.197c.304 1.247 1.39 2.286 3.202 3.09 1.576.703 2.494 1.51 2.759 2.395.11.37.13.733.082 1.05l-.003.02-.023.009a6.6 6.6 0 0 1-2.356.424c-2.965 0-5.368-1.877-5.368-4.193 0-.994.443-1.908 1.183-2.626" clip-rule="evenodd"/></svg>