<svg xmlns="http://www.w3.org/2000/svg" width="200" height="200" fill="none"><circle cx="100" cy="100" r="100" fill="#6FBCEF"/><mask id="mask0_309_9859" width="200" height="200" x="0" y="0" maskUnits="userSpaceOnUse"><path fill="#8DCBF5" d="M200 100c0 55.228-44.772 100-100 100S0 155.228 0 100 44.772 0 100 0s100 44.772 100 100"/></mask><g fill="#7AC1F2" mask="url('#mask0_309_9859')"><path d="m113-4 61 23 22 44.5s-26.5-23-57.5-39S58.5 4 58.5 4zM15.834 34.002s57.155 16.5 87.66 30.499c30.506 14 40.894 24.52 60.001 47.5 12.116 14.573 25.884 41.052 25.884 41.052l-23.38 26.446s-7.727-33.477-20-51C129.42 104.828 107.493 94 86.497 84.5S-.005 57.092-.005 57.092zM2.499 130.498-1.5 100.5s47 17 77 38 47.999 61.498 47.999 61.498l-33.5 1.5S86.5 192 62.5 165.5 2.499 130.498 2.499 130.498"/></g><path fill="#fff" fill-rule="evenodd" d="M45.474 158.743C56.774 178.317 77.012 190 99.611 190c22.598 0 42.833-11.683 54.136-31.257 11.3-19.568 11.3-42.936 0-62.509l-47.614-82.468c-2.899-5.021-10.146-5.021-13.044 0L45.473 96.234c-11.299 19.569-11.299 42.936 0 62.509M86.198 53 96.35 35.416c1.449-2.51 5.073-2.51 6.522 0l39.055 67.646c7.175 12.427 8.521 26.81 4.04 39.972a42 42 0 0 0-1.998-6.564c-5.394-13.614-17.592-24.119-36.261-31.226-12.835-4.869-21.028-12.03-24.357-21.284-4.288-11.928.19-24.936 2.847-30.96m-17.31 29.983-11.593 20.079c-8.833 15.299-8.833 33.562 0 48.862 8.833 15.298 24.65 24.428 42.316 24.428 11.733 0 22.654-4.031 31.253-11.221 1.122-2.824 4.594-13.158.304-23.811-3.963-9.836-13.499-17.688-28.347-23.344-16.782-6.366-27.686-16.305-32.4-29.531a41.5 41.5 0 0 1-1.534-5.462" clip-rule="evenodd"/></svg>