<svg xmlns="http://www.w3.org/2000/svg" width="24" height="24" fill="none"><rect width="24" height="24" fill="#2a4362" rx="12"/><path fill="#fafaff" fill-rule="evenodd" d="M16.202 10.839zc.73.716 1.166 1.623 1.166 2.61 0 1.001-.449 1.921-1.199 2.642l-.065.062-.017-.079-.052-.203c-.375-1.29-1.598-2.396-3.61-3.291-1.359-.603-2.136-1.329-2.341-2.154-.132-.533-.034-1.069.156-1.528s.471-.843.71-1.075l.783-.749a.41.41 0 0 1 .531 0l3.936 3.766zm1.238-.748-5.246-5.019a.3.3 0 0 0-.388 0L6.56 10.091l-.017.017C5.578 11.045 5 12.236 5 13.532 5 16.552 8.134 19 12 19s7-2.448 7-5.468c0-1.297-.578-2.488-1.543-3.425zm-9.625.732.469-.449.014.083.041.198c.304 1.246 1.388 2.285 3.201 3.09 1.576.702 2.494 1.509 2.758 2.394.11.369.13.733.082 1.051l-.003.02-.023.009a6.6 6.6 0 0 1-2.356.424c-2.965 0-5.368-1.877-5.368-4.193 0-.994.443-1.908 1.183-2.627z"/></svg>