<svg xmlns="http://www.w3.org/2000/svg" width="144" height="144" fill="none"><path fill="#1D2229" d="M71.85 143.7c39.682 0 71.85-32.168 71.85-71.85S111.532 0 71.85 0 0 32.168 0 71.85s32.168 71.85 71.85 71.85"/><path fill="#fff" d="M59.562 65.112H47.531v12.031h12.031zM47.53 53.081H35.5v12.031H47.53zM35.498 65.112H23.467v12.031h12.03zM47.531 77.143H35.5v12.03h12.03zM115.922 55.672c-.848-8.848-8.485-11.818-18.131-12.666v-5.668h-7.468v5.344c-1.963 0-3.97.038-5.965.075v-5.424h-7.464V43c-1.617.03-11.55.022-11.55.022l-.023 6.585 6.233.035v43.157h-6.23l-.056 6.492c1.81 0 9.863.035 11.608.046v5.595h7.464v-5.462c2.047.044 4.031.062 5.967.06v5.404h7.47v-5.57c12.561-.716 21.356-3.876 22.448-15.668.886-9.498-3.579-13.732-10.709-15.456 4.333-2.214 7.042-6.093 6.41-12.569zm-10.465 26.54c0 9.279-15.883 8.218-20.95 8.22V73.985c5.065 0 20.941-1.447 20.943 8.228zm-3.467-23.206c0 8.44-13.253 7.45-17.473 7.45V51.538c4.226.002 17.478-1.335 17.473 7.469"/></svg>