<svg xmlns="http://www.w3.org/2000/svg" width="24" height="24" fill="none"><mask id="A" width="16" height="16" x="4" y="4" mask-type="alpha" maskUnits="userSpaceOnUse"><path fill="#d9d9d9" d="M4 4h16v16H4z"/></mask><g mask="url('#A')"><path fill="#fff" d="M9.654 5.408c1.409-.527 2.994-.528 4.43-.095 1.868.58 3.445 1.99 4.27 3.76.227.504.445 1.03.467 1.59-1.05-.609-2.202-1.003-3.355-1.363-1.846-.665-3.778-1.127-5.524-2.042-.407-.243-.925-.492-1.036-.999-.045-.438.419-.682.749-.852zm-4.253 4.26c.408-1.107 1.077-2.134 1.985-2.896.231 1.9 1.039 3.735 2.375 5.117 1.601 1.664 3.882 2.685 6.203 2.647.922.029 1.823-.184 2.721-.356-.884 3.195-4.386 5.316-7.631 4.806-1.959-.25-3.767-1.41-4.858-3.047a7.06 7.06 0 0 1-.795-6.27z"/><path fill="#c5c5c5" d="M15.465 9.301c1.154.36 2.305.754 3.355 1.363l.071.037c.098.733.168 1.48.038 2.214-.528-.224-.956-.617-1.404-.965-.861-.717-1.741-1.537-2.061-2.649z"/></g></svg>