<svg xmlns="http://www.w3.org/2000/svg" width="230" height="200" fill="none"><g fill-rule="evenodd" clip-rule="evenodd"><path fill="#50AF95" d="M42.097.982.177 89.037a1.71 1.71 0 0 0 .365 1.992l113.218 108.49a1.726 1.726 0 0 0 2.391 0L229.37 91.036a1.71 1.71 0 0 0 .366-1.992L187.815.99A1.7 1.7 0 0 0 186.27 0H43.655a1.69 1.69 0 0 0-1.558.982"/><path fill="#fff" d="M129.502 98.08c-.813.061-5.012.312-14.38.312-7.451 0-12.741-.224-14.597-.312-28.794-1.266-50.286-6.279-50.286-12.28s21.492-11.007 50.286-12.294v19.582c1.883.136 7.275.454 14.726.454 8.941 0 13.418-.373 14.224-.447V73.519c28.733 1.28 50.178 6.293 50.178 12.28 0 5.989-21.438 11-50.178 12.274zm0-26.586V53.971h40.099V27.25H60.426v26.721h40.092v17.517c-32.587 1.496-57.093 7.951-57.093 15.687s24.506 14.183 57.093 15.687v56.152h28.977v-56.172c32.513-1.497 56.979-7.945 56.979-15.674s-24.446-14.177-56.979-15.68z"/></g></svg>