<svg xmlns="http://www.w3.org/2000/svg" xml:space="preserve" id="Layer_1" width="100%" x="0" y="0" version="1.1" viewBox="0 0 300 296"><path fill="#5493F7" d="M301 131c0 12.354 0 24.708-.34 37.757-2.18 8.977-4.02 17.26-5.978 25.094-.315-1.95-.511-3.451-.494-5.35.316-2.642.419-4.887.546-7.684-15.504.936-30.372 1.866-45.245 2.724-22.2 1.28-44.404 2.508-66.932 3.598a2102 2102 0 0 0-22.932-8.085c-15.001-7.453-29.832-14.473-44.203-22.333-9.87-5.399-18.27-12.9-24.565-22.413-9.618-14.535-13.592-29.73-4.64-46.455 8.09-12.622 18.675-22.191 31.607-28.81 10.926-5.593 22.073-11.056 33.659-15 30.257-10.304 60.727-20.332 93.51-12.99.004-.03-.053-.02.035.22.398.362.707.483 1.323.76 3.526 2.701 6.939 5.039 9.936 7.823 19.896 18.476 32.983 41.038 39.66 67.29 2.001 7.87 3.386 15.898 5.053 23.854M1 136.469c.998-6.56 1.826-12.685 3.039-18.733 1.307-6.52 2.973-12.967 4.78-20.718 4.297 5.577 7.668 10 11.091 14.384 12.003 15.372 24.776 30.212 35.814 46.247 9.799 14.236 18.005 29.616 26.307 44.822 7.009 12.835 9.638 27.086 9.83 41.55.18 13.66-.801 27.338-1.286 41.44-37.163-13.67-84.13-53.287-89.232-117.226C1 157.645 1 147.292 1 136.47"/><path fill="#2844AD" d="M86.218 87.853c-9.801-3.732-16.462-10.496-19.987-20.74 6.287-3.526 12.41-6.453 18.517-9.415 9.917-4.808 18.188-11.5 23.764-21.162 6.046-10.48 4.695-17.539-4.526-24.38 12.248-5.61 25.106-9 38.738-10.868a595 595 0 0 1 32.082 0c26.57 3.815 49.992 13.002 70.182 29.793-32.778-7.37-63.248 2.658-93.505 12.961-11.586 3.945-22.733 9.408-33.659 15-12.932 6.62-23.516 16.19-31.606 28.811"/><path fill="#B32436" d="M109.469 297c-.46-2.23-.452-4.46.018-7.215 33.353-2.532 66.243-4.575 99.137-6.537 30.069-1.795 60.143-3.503 90.268-4.82.053 2.839.053 5.25.053 7.773-2.628 0-4.427-.136-6.199.024-7.544.68-15.067 1.694-22.625 2.122-8.658.49-17.36.222-26.014.758-18.312 1.134-36.597 2.715-54.91 3.85-14.379.892-28.79 1.285-43.173 2.125-4.364.255-8.684 1.259-13.024 1.92z"/><path fill="#FAF6F7" d="M294.682 193.85c.204 1.114.29 1.78.025 2.716-27.779 2.012-55.21 3.722-82.636 5.507-9.955.648-19.899 1.474-30.245 2.015-.439-2.903-.481-5.603-.119-8.299 37.692-2.294 74.98-4.592 112.267-6.89.197 1.5.393 3.002.708 4.952"/><path fill="#B0263A" d="M294.188 188.501a5170 5170 0 0 1-112.541 6.884c.101-2.967.668-5.527 1.236-8.086 22.202-1.25 44.405-2.478 66.606-3.758 14.873-.858 29.741-1.788 45.245-2.724-.127 2.797-.23 5.042-.546 7.684"/><path fill="#2A44AB" d="M182.557 187.139c-.242 2.72-.809 5.279-1.315 8.242.103 3.104.145 5.804.605 9.139.512 2.949.606 5.263.61 8.004-.031 2.743.03 5.059.01 7.826-.027 2.884.027 5.32-.012 8.19-.03 2.809.031 5.18.012 7.93.012 2.742.106 5.105-.15 7.572-1.077.08-1.805.057-2.489-.438.078-16.787.003-33.105.221-49.419.058-4.259-1.571-5.528-5.584-5.32-9.46.487-18.932.716-28.399 1.05 4.502-3.424 9.004-6.848 13.716-10.529 7.623 2.36 15.037 4.976 22.775 7.753"/><path fill="#2844AD" d="M245.028 31.274c.248-.202.53-.057.888.398-.18.084-.49-.037-.888-.398"/><path fill="#424274" d="M145.608 189.938c9.925-.357 19.398-.586 28.857-1.074 4.013-.207 5.642 1.062 5.584 5.321-.218 16.314-.143 32.632-.584 49.562-17.626 1.498-34.851 2.286-52.062 3.315-6.85.41-13.668 1.353-20.5 2.053-.619-5.559-1.533-11.104-1.794-16.68-.55-11.768-.741-23.552-1.122-35.328-.1-3.134.82-4.979 4.425-5.141 12.25-.553 24.492-1.32 37.196-2.028"/><path fill="#5493F7" d="M103.578 12.098c9.63 6.9 10.98 13.959 4.934 24.438-5.576 9.661-13.847 16.354-23.764 21.162-6.107 2.962-12.23 5.889-18.58 9.092-14.969 7.175-29.904 13.53-46.11 16.167-1.524.248-3.175-.28-4.767-.449.374-1.462.424-3.12 1.173-4.357 9.726-16.075 20.901-31.086 34.805-43.77C62.426 24.206 74.805 15.667 90 12.607c4.255-.858 8.774-.413 13.58-.508"/><path fill="#FBF7F7" d="M297.054 268.897c4.196 1.907.924 5.564 1.855 8.66-30.142 2.188-60.216 3.896-90.285 5.69a25653 25653 0 0 0-99.126 6.125c-.805-2.111-1.16-4.334-1.195-7.255 1.46-.872 2.593-1.136 3.738-1.205 56.274-3.394 112.55-6.747 168.822-10.19 5.414-.33 10.795-1.204 16.191-1.825"/><path fill="#F9F7F9" d="M106.941 249.536c6.794-1.121 13.612-2.065 20.462-2.474 17.21-1.03 34.436-1.817 52.018-2.844 1.091-.119 1.82-.095 3.378-.096 32.536-1.895 64.244-3.736 95.947-5.66 5.783-.35 11.546-1.035 17.319-1.566.643 2.423 1.286 4.846 1.467 7.802-1.089.71-1.71 1.007-2.346 1.045-23.735 1.424-47.475 2.787-71.209 4.236-38.669 2.361-77.334 4.777-116.001 7.17-.332-2.398-.664-4.795-1.035-7.613"/><path fill="#B2273A" d="M107.98 257.576c38.663-2.82 77.328-5.236 115.997-7.597 23.734-1.45 47.474-2.812 71.21-4.236.635-.038 1.256-.335 2.273-.63.422 2.587.456 5.291-.014 8.411-48.538 3.27-96.57 6.15-144.607 8.965-14.95.877-29.91 1.584-44.865 2.368.003-2.284.006-4.568.005-7.28"/><path fill="#B32839" d="M297.04 268.475c-5.382 1.043-10.763 1.916-16.177 2.247-56.271 3.443-112.548 6.796-168.822 10.19-1.145.07-2.278.333-3.74.761-.633-2.438-.942-5.13-.756-8.257 2.823-.55 5.153-.648 7.48-.789 58.848-3.565 117.696-7.14 176.546-10.683 1.807-.108 3.634.124 5.452.198.001 1.97.002 3.94.017 6.333"/><path fill="#FBF6F7" d="M297.38 261.917c-2.175.151-4.002-.081-5.809.027-58.85 3.542-117.698 7.118-176.546 10.683-2.327.141-4.657.238-7.426.354-.404-2.557-.37-5.113.02-7.896 15.31-1.012 30.27-1.72 45.22-2.596 48.037-2.816 96.07-5.695 144.552-8.516.414 2.594.38 5.156-.01 7.944"/><path fill="#B3283A" d="M182.547 228.104c-.053-2.435-.107-4.87.331-7.73 11.1-1.056 21.71-1.654 32.315-2.32 27.01-1.696 54.019-3.423 81.028-5.137.243 2.394.486 4.789.258 7.69-38.292 2.837-76.112 5.167-113.932 7.497M182.548 212.097l-.304-7.374c9.928-1.176 19.872-2.002 29.827-2.65 27.426-1.785 54.857-3.495 82.677-5.255.661 2.486.932 4.993.714 7.929-37.964 2.736-75.44 5.043-112.914 7.35"/><path fill="#FAF5F7" d="M182.456 212.524c37.567-2.734 75.042-5.04 112.95-7.299.538 2.346.643 4.644.782 7.317-26.976 2.09-53.985 3.816-80.995 5.512-10.606.666-21.216 1.264-32.234 1.869-.472-2.34-.533-4.656-.503-7.4"/><path fill="#FBF5F6" d="M182.455 228.54c37.912-2.766 75.732-5.096 113.967-7.478.4 2.824.387 5.7-.288 8.567-2.139-.027-3.623-.135-5.094-.048-36.165 2.158-72.328 4.336-108.491 6.51-.063-2.37-.125-4.742-.094-7.55"/><path fill="#B1273A" d="M182.467 236.47c36.245-2.553 72.408-4.731 108.573-6.889 1.471-.087 2.955.021 4.736.272.287 2.22.272 4.206.273 6.617-5.757.957-11.52 1.642-17.303 1.993-31.703 1.923-63.411 3.764-95.598 5.554-.575-2.442-.67-4.805-.681-7.547"/></svg>