<svg xmlns="http://www.w3.org/2000/svg" viewBox="0 0 34 34"><circle cx="17" cy="17" r="17" style="fill:#fff"/><path d="M25.208 22.516a4.81 4.81 0 0 1-4.173 2.415h-2.788v-9.398l-4.022 6.985a4.81 4.81 0 0 1-4.174 2.416H7.283v-13.87h5.568v9.374l5.396-9.37v-.004h5.566v9.413l5.848-10.159c.239-.412.23-.922-.024-1.326-2.697-4.259-7.478-7.067-12.911-6.985-8.284.128-14.81 6.796-14.768 15.08.043 8.245 6.744 14.918 15 14.918s15-6.715 15-14.998c0-1.334-.176-2.628-.505-3.861a.432.432 0 0 0-.79-.11l-5.457 9.478z"/></svg>