<svg xmlns="http://www.w3.org/2000/svg" width="200" height="201" fill="none"><g clip-rule="url(#clip0_314_9802)"><path fill="#F7931A" d="M197.008 124.204c-13.357 53.578-67.623 86.185-121.208 72.824-53.561-13.357-86.168-67.626-72.805-121.2C16.346 22.244 70.612-10.365 124.18 2.993c53.58 13.357 86.185 67.632 72.826 121.212l.001-.001z"/><path fill="#fff" d="M144.1 85.762c1.991-13.31-8.142-20.464-21.998-25.236l4.495-18.029-10.974-2.734-4.376 17.554c-2.885-.72-5.848-1.398-8.793-2.07l4.408-17.67-10.968-2.735-4.498 18.023a363 363 0 0 1-7.007-1.647l.013-.057-15.135-3.779-2.919 11.722s8.142 1.866 7.97 1.981c4.445 1.11 5.249 4.051 5.115 6.383l-5.12 20.539c.306.077.703.19 1.14.366-.365-.091-.755-.19-1.16-.287l-7.176 28.772c-.543 1.35-1.922 3.376-5.029 2.607.11.159-7.976-1.991-7.976-1.991l-5.449 12.563 14.282 3.56c2.657.666 5.26 1.363 7.824 2.019l-4.541 18.235 10.962 2.735 4.497-18.042c2.995.813 5.9 1.563 8.746 2.27l-4.482 17.957 10.975 2.734 4.541-18.201c18.714 3.542 32.785 2.114 38.708-14.813 4.773-13.628-.238-21.489-10.083-26.615 7.171-1.654 12.572-6.37 14.012-16.113l-.003-.002zm-25.074 35.161c-3.392 13.628-26.337 6.261-33.776 4.413l6.026-24.158c7.439 1.857 31.295 5.532 27.751 19.745zm3.394-35.359c-3.094 12.397-22.192 6.099-28.387 4.555l5.464-21.911c6.195 1.544 26.146 4.427 22.924 17.356z"/></g></svg>