<svg xmlns="http://www.w3.org/2000/svg" xml:space="preserve" id="Layer_1" width="100%" x="0" y="0" version="1.1" viewBox="0 0 64 64"><circle cx="32" cy="32" r="32" fill="#2474DA"/><path fill="#F2F2F2" d="M26.489 46.163c-5.812 1.27-10.852-1.39-13.833-6.971-3.099-5.804-1.992-11.683 3.095-16.445 3.704-3.466 7.949-4.271 11.535-2.187-8.19 6.738-9.798 14.357-4.312 21.1 1.184 1.454 2.844 2.521 4.274 3.779.057.05.053.272-.006.33-.114.11-.286.16-.753.394M51.278 23.774c5.64 6.86 4.406 12.929.656 17.726-3.562 4.555-8.836 6.151-13.409 4.18 4.089-3.363 7.638-6.78 7.584-12.747-.054-5.866-3.439-9.245-7.836-12.762 5.227-1.696 9.226-.175 13.005 3.603"/></svg>