<svg xmlns="http://www.w3.org/2000/svg" width="100" height="100" fill="none"><path fill="#13B5EC" d="M50 100c27.614 0 50-22.386 50-50S77.614 0 50 0 0 22.386 0 50s22.386 50 50 50"/><path fill="#fff" fill-rule="evenodd" d="M53.75 40.313 65 33.75v13.125zM65 68.437l-15 8.75-15-8.75V53.126l15 8.75 15-8.75zM35 33.75l11.25 6.563L35 46.875zm16.875 9.688L63.125 50l-11.25 6.563zm-3.75 13.124L36.875 50l11.25-6.562zm15-25.937L50 38.125l-13.125-7.5L50 22.813zm-31.875-1.25v40.938L50 80.937l18.75-10.624V29.374L50 18.75z" clip-rule="evenodd"/></svg>