<svg width="100" height="100" fill="none" xmlns="http://www.w3.org/2000/svg"><path d="M50 100c27.614 0 50-22.386 50-50S77.614 0 50 0 0 22.386 0 50s22.386 50 50 50Z" fill="#13B5EC"/><path fill-rule="evenodd" clip-rule="evenodd" d="M53.75 40.313 65 33.75v13.125l-11.25-6.563ZM65 68.436l-15 8.75-15-8.75V53.126l15 8.75 15-8.75v15.313ZM35 33.75l11.25 6.563L35 46.874V33.75Zm16.875 9.688L63.125 50l-11.25 6.563V43.437Zm-3.75 13.124L36.875 50l11.25-6.563v13.126Zm15-25.937L50 38.125l-13.125-7.5L50 22.812l13.125 7.813Zm-31.875-1.25v40.938L50 80.936l18.75-10.624V29.374L50 18.75 31.25 29.375Z" fill="#fff"/></svg>