<svg xmlns="http://www.w3.org/2000/svg" width="315" height="315" fill="none" id="matic"><path fill="#2891F9" d="m52.5 96.924 105 60.6v40.4l-70-40.4v80.8l-35-20.2v-121.2Z"/><path fill="#2BBDF7" d="M87.5 238.324v-80.8l35 20.2v40.4l-35 20.2Z"/><path fill="#2B6DEF" d="m52.5 96.924 35-20.2 105 60.6-35 20.2-105-60.6Z"/><path fill="#2BBDF7" d="m157.5 157.524 35-20.2v40.4l-35 20.2v-40.4Z"/><path fill="#2891F9" d="M192.5 96.924v121.2l35 20.2v-121.2l-35-20.2Z"/><path fill="#2BBDF7" d="m262.5 96.924-35 20.2v121.2l35-20.2v-121.2Z"/><path fill="#2B6DEF" d="m227.5 76.724 35 20.2-35 20.2-35-20.2 35-20.2Z"/></svg>