<svg xmlns="http://www.w3.org/2000/svg" width="32" height="32" viewBox="-8 -8 48 48" fill="none"><path d="M30.737 9.772a15.94 15.94 0 0 0-3.429-5.084 15.982 15.982 0 0 0-5.083-3.428A15.859 15.859 0 0 0 15.996 0c-2.157 0-4.254.422-6.229 1.26a15.94 15.94 0 0 0-5.083 3.428 15.984 15.984 0 0 0-3.428 5.084A15.91 15.91 0 0 0 0 15.998c0 2.158.422 4.255 1.26 6.23a15.943 15.943 0 0 0 3.428 5.084A15.983 15.983 0 0 0 9.77 30.74 15.926 15.926 0 0 0 16 32c2.157 0 4.254-.422 6.229-1.26a15.94 15.94 0 0 0 5.083-3.428 15.982 15.982 0 0 0 3.428-5.084 15.931 15.931 0 0 0 1.26-6.23 15.985 15.985 0 0 0-1.263-6.226Zm-20.053 4.723a5.958 5.958 0 0 1 5.761-4.449h11.107a12.826 12.826 0 0 1 1.35 4.449H10.685ZM28.903 17.5a12.907 12.907 0 0 1-1.351 4.449H16.445a5.965 5.965 0 0 1-5.76-4.449h18.218ZM6.81 6.811a12.902 12.902 0 0 1 9.185-3.805c3.47 0 6.731 1.351 9.185 3.806.076.076.149.152.221.228h-8.957a8.899 8.899 0 0 0-6.335 2.626 8.91 8.91 0 0 0-2.5 4.833H3.093a12.887 12.887 0 0 1 3.718-7.687Zm9.185 22.183c-3.47 0-6.73-1.351-9.185-3.806a12.887 12.887 0 0 1-3.718-7.683H7.61a8.885 8.885 0 0 0 2.5 4.833 8.899 8.899 0 0 0 6.335 2.626h8.96c-.071.076-.148.152-.22.228a12.939 12.939 0 0 1-9.189 3.802Z" fill="#fff"/></svg>