<svg xmlns="http://www.w3.org/2000/svg" width="32" height="32" fill="none" viewBox="-4 -4 40 40"><rect width="40" height="40" x="-4" y="-4" fill="#fff" rx="20"/><path fill="#2D2C2C" d="M30.737 9.772a15.9 15.9 0 0 0-3.429-5.084 16 16 0 0 0-5.083-3.428A15.9 15.9 0 0 0 15.996 0c-2.157 0-4.254.422-6.229 1.26a15.9 15.9 0 0 0-5.083 3.428 16 16 0 0 0-3.428 5.084A15.9 15.9 0 0 0 0 15.998c0 2.158.422 4.255 1.26 6.23a15.9 15.9 0 0 0 3.428 5.084A16 16 0 0 0 9.77 30.74 15.9 15.9 0 0 0 16 32c2.157 0 4.254-.422 6.229-1.26a15.9 15.9 0 0 0 5.083-3.428 16 16 0 0 0 3.428-5.084 15.9 15.9 0 0 0 1.26-6.23 16 16 0 0 0-1.263-6.226m-20.053 4.723a5.96 5.96 0 0 1 5.761-4.449h11.107a12.8 12.8 0 0 1 1.35 4.449zM28.903 17.5a12.9 12.9 0 0 1-1.351 4.449H16.445a5.965 5.965 0 0 1-5.76-4.449zM6.81 6.811a12.9 12.9 0 0 1 9.185-3.805c3.47 0 6.731 1.351 9.185 3.806q.114.114.221.228h-8.957a8.9 8.9 0 0 0-6.335 2.626 8.9 8.9 0 0 0-2.5 4.833H3.093a12.9 12.9 0 0 1 3.718-7.687m9.185 22.183c-3.47 0-6.73-1.351-9.185-3.806a12.9 12.9 0 0 1-3.718-7.683H7.61a8.9 8.9 0 0 0 2.5 4.833 8.9 8.9 0 0 0 6.335 2.626h8.96c-.071.076-.148.152-.22.228a12.94 12.94 0 0 1-9.189 3.802"/></svg>