<svg width="130" height="23" fill="none" xmlns="http://www.w3.org/2000/svg"><path d="m42.181 6.914-2.974 8.344a.19.19 0 0 1-.197.13h-.225a.21.21 0 0 1-.201-.13l-2.23-5.852-2.225 5.852a.199.199 0 0 1-.197.13h-.23a.2.2 0 0 1-.197-.13l-2.973-8.341c-.046-.13.003-.21.13-.21h.92a.193.193 0 0 1 .201.13l2.12 6.317 2.155-5.786a.203.203 0 0 1 .2-.13h.194a.2.2 0 0 1 .198.13l2.219 5.786 2.07-6.318a.19.19 0 0 1 .201-.129h.906c.13 0 .18.08.134.207M55.123 10.977a4.331 4.331 0 0 1-.76 2.408 4.382 4.382 0 0 1-1.978 1.585 4.42 4.42 0 0 1-4.767-.97 4.323 4.323 0 0 1-.933-4.74 4.362 4.362 0 0 1 1.617-1.947 4.412 4.412 0 0 1 2.433-.732 4.357 4.357 0 0 1 3.136 1.273 4.293 4.293 0 0 1 1.252 3.123Zm-1.217 0c0-2.023-1.33-3.416-3.171-3.416-1.841 0-3.171 1.393-3.171 3.416 0 2.024 1.33 3.417 3.17 3.417 1.842 0 3.172-1.393 3.172-3.417ZM66.743 14.901a.21.21 0 0 1-.064.325.214.214 0 0 1-.123.022h-.83a.165.165 0 0 1-.133-.077l-2.08-3.115h-2.237v3.017a.177.177 0 0 1-.177.175h-.81a.18.18 0 0 1-.175-.175v-8.19a.178.178 0 0 1 .176-.176h3.184c2.23 0 3.33 1.162 3.33 2.674.014.6-.19 1.186-.573 1.651a2.54 2.54 0 0 1-1.518.883l2.03 2.986Zm-3.496-3.825c1.753 0 2.342-.721 2.342-1.694S65 7.687 63.247 7.687h-1.971v3.389h1.971ZM80.439 6.57h.264a.168.168 0 0 1 .166.106.163.163 0 0 1 .01.069v8.329a.164.164 0 0 1-.107.165.168.168 0 0 1-.07.01h-.809a.167.167 0 0 1-.166-.107.164.164 0 0 1-.01-.069V9.162l-3.264 4.687a.134.134 0 0 1-.121.077.135.135 0 0 1-.122-.077L72.948 9.16v5.912a.163.163 0 0 1-.049.127.167.167 0 0 1-.128.048h-.81a.169.169 0 0 1-.128-.048.166.166 0 0 1-.049-.127V6.744a.165.165 0 0 1 .177-.175h.261a.267.267 0 0 1 .221.119l3.887 5.386 3.89-5.386a.253.253 0 0 1 .216-.12M93.969 6.882v8.19a.177.177 0 0 1-.177.176h-.81a.18.18 0 0 1-.177-.176v-3.73h-5.357v3.73a.178.178 0 0 1-.177.176h-.81a.178.178 0 0 1-.177-.175v-8.19a.178.178 0 0 1 .177-.176h.81a.18.18 0 0 1 .177.175v3.48h5.357v-3.48a.18.18 0 0 1 .177-.175h.81a.18.18 0 0 1 .177.175ZM107.735 10.977a4.33 4.33 0 0 1-.76 2.408 4.381 4.381 0 0 1-1.977 1.585 4.42 4.42 0 0 1-4.768-.97 4.324 4.324 0 0 1-.932-4.74 4.36 4.36 0 0 1 1.616-1.947 4.412 4.412 0 0 1 2.433-.732 4.331 4.331 0 0 1 3.136 1.272 4.286 4.286 0 0 1 1.252 3.124Zm-1.217 0c0-2.023-1.329-3.416-3.171-3.416-1.841 0-3.171 1.393-3.171 3.416 0 2.024 1.33 3.417 3.171 3.417 1.842 0 3.171-1.393 3.171-3.417ZM118.819 14.443v.63a.162.162 0 0 1-.011.068.157.157 0 0 1-.038.059.164.164 0 0 1-.128.048h-5.738a.18.18 0 0 1-.177-.176v-8.19a.179.179 0 0 1 .177-.175h.81a.179.179 0 0 1 .176.175v7.385h4.754a.169.169 0 0 1 .129.048.187.187 0 0 1 .038.059.179.179 0 0 1 .01.069M129.999 14.442v.63a.161.161 0 0 1-.048.127.17.17 0 0 1-.129.048h-6.196a.179.179 0 0 1-.177-.175v-8.19a.179.179 0 0 1 .177-.176h6.056a.167.167 0 0 1 .166.107.161.161 0 0 1 .01.069v.63a.161.161 0 0 1-.048.127.17.17 0 0 1-.128.048h-5.072v2.674h4.508a.168.168 0 0 1 .126.047c.017.016.03.035.038.057a.157.157 0 0 1 .012.068v.633a.16.16 0 0 1-.011.068.156.156 0 0 1-.038.059.168.168 0 0 1-.127.048h-4.508v2.926h5.213a.166.166 0 0 1 .177.175M11.333 22.648A11.34 11.34 0 0 1 0 11.325 11.342 11.342 0 0 1 11.333 0a11.342 11.342 0 0 1 11.334 11.325 11.34 11.34 0 0 1-11.334 11.323Zm0-21.776A10.469 10.469 0 0 0 .872 11.325a10.462 10.462 0 0 0 20.923 0A10.468 10.468 0 0 0 11.333.872Z" fill="#fff"/><path d="M12.766 20.857a9.397 9.397 0 0 1-9.39-9.382 9.396 9.396 0 0 1 9.39-9.382 9.396 9.396 0 0 1 9.39 9.382 9.396 9.396 0 0 1-9.39 9.382Zm0-18.087a8.718 8.718 0 0 0-8.71 8.705 8.718 8.718 0 0 0 8.71 8.703 8.718 8.718 0 0 0 8.71-8.703 8.718 8.718 0 0 0-8.71-8.704V2.77Z" fill="#fff"/><path d="M14.199 19.066a7.45 7.45 0 0 1-7.445-7.44 7.45 7.45 0 0 1 7.445-7.438 7.45 7.45 0 0 1 7.445 7.439 7.45 7.45 0 0 1-7.445 7.44Zm0-14.395a6.966 6.966 0 0 0-6.962 6.956A6.966 6.966 0 0 0 14.2 18.58a6.965 6.965 0 0 0 6.961-6.954 6.966 6.966 0 0 0-6.961-6.956Z" fill="#fff"/><path d="M15.631 17.275a5.505 5.505 0 0 1-5.5-5.497 5.505 5.505 0 0 1 5.5-5.498 5.505 5.505 0 0 1 5.501 5.498 5.505 5.505 0 0 1-5.5 5.497Zm0-10.704a5.215 5.215 0 0 0-5.21 5.207 5.214 5.214 0 0 0 5.21 5.206 5.214 5.214 0 0 0 5.21-5.206 5.215 5.215 0 0 0-5.21-5.207Z" fill="#fff"/></svg>