<svg xmlns="http://www.w3.org/2000/svg" width="27" height="28" fill="#fff" viewBox="-4 -4 34 35"><path fill="curentColor" d="M13.117 27.461c-3.476-.002-6.81-1.44-9.268-4C1.389 20.9.005 17.43 0 13.809c.005-3.62 1.39-7.092 3.848-9.652C6.308 1.597 9.641.16 13.118.156c3.476.003 6.81 1.442 9.268 4.001 2.46 2.56 3.843 6.031 3.849 9.652-.006 3.621-1.39 7.092-3.849 9.652s-5.792 3.998-9.269 4m0-26.254C9.908 1.21 6.831 2.537 4.561 4.9s-3.547 5.567-3.552 8.91c.003 3.342 1.28 6.547 3.55 8.91 2.271 2.363 5.35 3.69 8.558 3.69 3.21 0 6.288-1.327 8.558-3.69s3.547-5.568 3.55-8.91c-.004-3.343-1.282-6.547-3.552-8.91-2.27-2.362-5.347-3.69-8.556-3.693"/><path fill="curentColor" d="M14.411 25.12c-2.88-.003-5.641-1.195-7.679-3.316-2.037-2.12-3.183-4.996-3.188-7.996.005-3 1.151-5.876 3.188-7.996s4.8-3.313 7.68-3.315c2.88.002 5.64 1.194 7.678 3.315 2.037 2.12 3.184 4.996 3.189 7.996-.005 3-1.152 5.876-3.189 7.996s-4.799 3.313-7.679 3.315m0-21.807c-2.672.002-5.234 1.109-7.124 3.076s-2.954 4.636-2.958 7.42c.005 2.782 1.069 5.45 2.959 7.417s4.451 3.073 7.123 3.075c2.672-.002 5.234-1.108 7.124-3.075s2.954-4.635 2.958-7.418c-.004-2.783-1.068-5.45-2.958-7.418s-4.452-3.073-7.124-3.075z"/><path fill="curentColor" d="M15.954 22.778c-2.283-.002-4.473-.947-6.089-2.629-1.615-1.681-2.524-3.961-2.528-6.34.004-2.38.913-4.66 2.528-6.34 1.616-1.682 3.806-2.628 6.09-2.63 2.283.002 4.473.947 6.089 2.629 1.615 1.681 2.524 3.962 2.527 6.34-.003 2.38-.913 4.66-2.528 6.341s-3.805 2.627-6.089 2.629m0-17.355c-2.135.001-4.183.885-5.693 2.457S7.9 11.585 7.897 13.81c.004 2.224.854 4.355 2.364 5.927s3.558 2.455 5.693 2.457c2.135-.002 4.183-.885 5.693-2.457s2.36-3.703 2.364-5.927c-.003-2.224-.853-4.357-2.363-5.929s-3.558-2.456-5.694-2.457"/><path fill="curentColor" d="M17.829 20.436a6.25 6.25 0 0 1-4.499-1.942 6.78 6.78 0 0 1-1.868-4.685 6.78 6.78 0 0 1 1.868-4.686 6.25 6.25 0 0 1 4.499-1.943c1.688.002 3.306.7 4.5 1.943a6.78 6.78 0 0 1 1.867 4.686 6.78 6.78 0 0 1-1.868 4.685 6.25 6.25 0 0 1-4.499 1.942m0-12.905a5.92 5.92 0 0 0-4.262 1.84 6.42 6.42 0 0 0-1.769 4.438 6.42 6.42 0 0 0 1.77 4.437 5.92 5.92 0 0 0 4.261 1.84 5.92 5.92 0 0 0 4.261-1.84 6.42 6.42 0 0 0 1.77-4.437 6.42 6.42 0 0 0-1.77-4.438 5.92 5.92 0 0 0-4.261-1.84"/></svg>