<svg xmlns="http://www.w3.org/2000/svg" width="27" height="28" viewBox="-4 -4 34 35" fill="#fff"><path d="M13.117 27.461c-3.476-.002-6.81-1.44-9.268-4C1.389 20.9.005 17.43 0 13.809c.005-3.62 1.39-7.092 3.848-9.652C6.308 1.597 9.641.16 13.118.156c3.476.003 6.81 1.442 9.268 4.001 2.46 2.56 3.843 6.031 3.849 9.652-.006 3.621-1.39 7.092-3.849 9.652-2.459 2.56-5.792 3.998-9.269 4Zm0-26.254C9.908 1.21 6.831 2.537 4.561 4.9c-2.27 2.363-3.547 5.567-3.552 8.91.003 3.342 1.28 6.547 3.55 8.91 2.271 2.363 5.35 3.69 8.558 3.69 3.21 0 6.288-1.327 8.558-3.69 2.27-2.363 3.547-5.568 3.55-8.91-.004-3.343-1.282-6.547-3.552-8.91-2.27-2.362-5.347-3.69-8.556-3.693Z" fill="curentColor"/><path d="M14.411 25.12c-2.88-.003-5.641-1.195-7.679-3.316-2.037-2.12-3.183-4.996-3.188-7.996.005-3 1.151-5.876 3.188-7.996 2.038-2.12 4.8-3.313 7.68-3.315 2.88.002 5.64 1.194 7.678 3.315 2.037 2.12 3.184 4.996 3.189 7.996-.005 3-1.152 5.876-3.189 7.996s-4.799 3.313-7.679 3.315Zm0-21.807c-2.672.002-5.234 1.109-7.124 3.076-1.89 1.968-2.954 4.636-2.958 7.42.005 2.782 1.069 5.45 2.959 7.417 1.89 1.967 4.451 3.073 7.123 3.075 2.672-.002 5.234-1.108 7.124-3.075 1.89-1.967 2.954-4.635 2.958-7.418-.004-2.783-1.068-5.45-2.958-7.418-1.89-1.967-4.452-3.073-7.124-3.075v-.002Z" fill="curentColor"/><path d="M15.954 22.778c-2.284-.002-4.473-.947-6.089-2.629-1.615-1.681-2.524-3.961-2.528-6.34.004-2.38.913-4.66 2.528-6.34 1.616-1.682 3.806-2.628 6.09-2.63 2.283.002 4.473.947 6.089 2.629 1.615 1.681 2.524 3.962 2.527 6.34-.003 2.38-.913 4.66-2.528 6.341-1.615 1.682-3.805 2.627-6.089 2.629Zm0-17.355c-2.135.001-4.183.885-5.693 2.457-1.51 1.572-2.36 3.705-2.364 5.929.004 2.224.854 4.355 2.364 5.927 1.51 1.572 3.558 2.455 5.693 2.457 2.135-.002 4.183-.885 5.693-2.457 1.51-1.572 2.36-3.703 2.364-5.927-.003-2.224-.853-4.357-2.363-5.929-1.511-1.572-3.558-2.456-5.694-2.457Z" fill="curentColor"/><path d="M17.829 20.436a6.246 6.246 0 0 1-4.499-1.942 6.78 6.78 0 0 1-1.868-4.685 6.78 6.78 0 0 1 1.868-4.686 6.245 6.245 0 0 1 4.499-1.943c1.688.002 3.306.7 4.5 1.943a6.78 6.78 0 0 1 1.867 4.686 6.78 6.78 0 0 1-1.868 4.685 6.246 6.246 0 0 1-4.499 1.942Zm0-12.905a5.916 5.916 0 0 0-4.262 1.84 6.423 6.423 0 0 0-1.769 4.438 6.422 6.422 0 0 0 1.77 4.437 5.916 5.916 0 0 0 4.261 1.84 5.916 5.916 0 0 0 4.261-1.84 6.422 6.422 0 0 0 1.77-4.437 6.422 6.422 0 0 0-1.77-4.438 5.916 5.916 0 0 0-4.261-1.84Z" fill="curentColor"/></svg>