<svg xmlns="http://www.w3.org/2000/svg" width="127" height="12" fill="none"><path fill="#CCC" d="M96.43 0h-5.954c-2.289 0-4.142 1.87-4.142 4.18v3.64c0 2.31 1.853 4.18 4.142 4.18h6.095v-.006c2.223-.075 4.002-1.912 4.002-4.174V4.18c0-2.31-1.854-4.18-4.143-4.18m-.642 10.006h-4.67V1.994h4.67zM30.286 0H24.33c-2.288 0-4.142 1.87-4.142 4.18v3.64c0 2.31 1.854 4.18 4.142 4.18h6.096v-.006c2.222-.075 4-1.912 4-4.174V4.18c0-2.31-1.853-4.18-4.141-4.18m-.642 10.006h-4.67V1.994h4.67zM63.612 2.09l-3.459 6.044V0h-2.396c-1.48 0-2.848.796-3.587 2.09l-5.012 8.759-2.206-3.854c1.584-.019 2.864-1.321 2.864-2.924V2.926c0-1.616-1.298-2.926-2.9-2.926H35.578v12h4.785V6.997h1.068L44.293 12h6.416l4.66-8.146V12h4.784v-.004l4.64-8.109V12h4.784V0h-2.38c-1.48 0-2.847.796-3.587 2.09zm-18.58 2.913h-4.67v-3.01h4.67zM80.37 5.003h-4.671V0h-4.785v12H75.7V6.997h4.67V12h4.784V0H80.37zM106.536 0h-4.784v7.82c0 2.31 1.854 4.18 4.142 4.18h6.818v-1.994h-6.176zM127 1.994V0h-13.056v12H127v-1.994h-8.272v-3.01h6.547V5.004h-6.547v-3.01zM18.87 0l-4.66 8.146V0H9.426v.004l-4.64 8.109V0H0v12h2.38c1.48 0 2.848-.796 3.587-2.09l3.459-6.044V12h2.396c1.48 0 2.848-.796 3.587-2.09L21.08 0z"/></svg>