<svg xmlns="http://www.w3.org/2000/svg" width="33" height="32" fill="#fff"><path d="M16 30.637a14.82 14.82 0 0 1-10.471-4.342A14.846 14.846 0 0 1 1.181 15.82 14.85 14.85 0 0 1 5.529 5.343 14.825 14.825 0 0 1 16 1a14.825 14.825 0 0 1 10.471 4.343 14.85 14.85 0 0 1 4.348 10.476 14.845 14.845 0 0 1-4.348 10.475A14.82 14.82 0 0 1 16 30.637zm0-28.496a13.68 13.68 0 0 0-9.665 4.008 13.704 13.704 0 0 0-4.013 9.67c.004 3.629 1.446 7.107 4.011 9.672a13.67 13.67 0 0 0 19.335 0 13.694 13.694 0 0 0 4.011-9.672c-.006-3.628-1.449-7.106-4.013-9.67S19.625 2.143 16 2.141z"/><path d="M17.872 28.291a12.28 12.28 0 0 1-8.675-3.598 12.3 12.3 0 0 1-3.602-8.679 12.3 12.3 0 0 1 3.602-8.679 12.28 12.28 0 0 1 8.675-3.598 12.28 12.28 0 0 1 8.675 3.598 12.3 12.3 0 0 1 3.602 8.679 12.3 12.3 0 0 1-3.602 8.679 12.28 12.28 0 0 1-8.675 3.598zm0-23.668c-3.018.003-5.913 1.203-8.048 3.339s-3.337 5.031-3.341 8.052c.005 3.021 1.207 5.916 3.342 8.051s5.029 3.336 8.047 3.338 5.912-1.203 8.047-3.338 3.337-5.03 3.342-8.051c-.005-3.021-1.207-5.916-3.342-8.051s-5.029-3.336-8.047-3.338v-.002z"/><path d="M19.746 25.951a9.74 9.74 0 0 1-6.879-2.853 9.754 9.754 0 0 1-2.856-6.882 9.754 9.754 0 0 1 2.856-6.882 9.74 9.74 0 0 1 6.879-2.853 9.735 9.735 0 0 1 6.879 2.853 9.75 9.75 0 0 1 2.855 6.883 9.754 9.754 0 0 1-2.856 6.882 9.74 9.74 0 0 1-6.878 2.853zm0-18.837a9.11 9.11 0 0 0-6.432 2.667 9.12 9.12 0 0 0-2.67 6.435 9.12 9.12 0 0 0 2.671 6.434 9.1 9.1 0 0 0 6.431 2.666 9.09 9.09 0 0 0 6.431-2.666 9.12 9.12 0 0 0 2.671-6.434 9.12 9.12 0 0 0-2.67-6.435 9.1 9.1 0 0 0-6.432-2.667zm1.872 16.491a7.2 7.2 0 0 1-5.082-2.108 7.21 7.21 0 0 1-2.11-5.085 7.203 7.203 0 0 1 7.193-7.195 7.18 7.18 0 0 1 5.083 2.109 7.21 7.21 0 0 1 2.11 5.086 7.21 7.21 0 0 1-2.11 5.085 7.19 7.19 0 0 1-5.082 2.108zm0-14.007a6.82 6.82 0 0 0-4.814 1.997 6.83 6.83 0 0 0-1.998 4.817 6.827 6.827 0 0 0 1.999 4.816 6.82 6.82 0 0 0 4.814 1.997 6.8 6.8 0 0 0 4.813-1.997 6.827 6.827 0 0 0 1.999-4.816 6.83 6.83 0 0 0-1.998-4.817 6.816 6.816 0 0 0-4.814-1.997z"/></svg>