<svg xmlns="http://www.w3.org/2000/svg" width="1000" height="1000" fill="none"><path fill="#000" d="M0 0h1000v1000H0z"/><path fill="#fff" fill-rule="evenodd" d="M393.949 218.518h-162.9c-6.92 0-12.53 5.61-12.53 12.53v162.9c0 6.921 5.61 12.531 12.53 12.531h162.9c6.921 0 12.531-5.61 12.531-12.531v-162.9c0-6.92-5.61-12.53-12.531-12.53m188.043 187.961h-162.9c-6.92 0-12.531 5.611-12.531 12.531v162.9c0 6.921 5.611 12.531 12.531 12.531h162.9c6.921 0 12.531-5.61 12.531-12.531v-162.9c0-6.92-5.61-12.531-12.531-12.531m24.982-187.961h162.9c6.92 0 12.531 5.61 12.531 12.53v162.9c0 6.921-5.611 12.531-12.531 12.531h-162.9c-6.921 0-12.531-5.61-12.531-12.531v-162.9c0-6.92 5.61-12.53 12.531-12.53M393.95 594.442H231.049c-6.92 0-12.53 5.61-12.53 12.531v162.9c0 6.92 5.61 12.531 12.53 12.531H393.95c6.92 0 12.53-5.611 12.53-12.531v-162.9c0-6.921-5.61-12.531-12.53-12.531m213.024 0h162.9c6.92 0 12.531 5.61 12.531 12.531v162.9c0 6.92-5.611 12.531-12.531 12.531h-162.9c-6.921 0-12.531-5.611-12.531-12.531v-162.9c0-6.921 5.61-12.531 12.531-12.531" clip-rule="evenodd"/></svg>