<svg xmlns="http://www.w3.org/2000/svg" id="svg1" width="1000" height="1000" fill="none" version="1.1"><path id="path1" fill="#fff" fill-rule="evenodd" d="M379.354 214.28h-169.02c-7.18 0-13.001 5.948-13.001 13.284v172.693c0 7.337 5.82 13.284 13 13.284h169.02c7.182 0 13.003-5.947 13.003-13.284V227.564c0-7.336-5.821-13.283-13.002-13.283m195.108 199.261h-169.02c-7.18 0-13.002 5.948-13.002 13.284v172.693c0 7.337 5.822 13.285 13.002 13.285h169.02c7.181 0 13.002-5.948 13.002-13.285V426.825c0-7.336-5.82-13.284-13.002-13.284m25.92-199.26h169.021c7.18 0 13.002 5.947 13.002 13.283v172.693c0 7.337-5.822 13.284-13.002 13.284h-169.02c-7.181 0-13.002-5.947-13.002-13.284V227.564c0-7.336 5.82-13.283 13.002-13.283M379.356 612.804H210.333c-7.18 0-13 5.947-13 13.284V798.78c0 7.336 5.82 13.284 13 13.284h169.022c7.18 0 13-5.948 13-13.284V626.088c0-7.337-5.82-13.284-13-13.284m221.028 0h169.02c7.18 0 13.002 5.947 13.002 13.284V798.78c0 7.336-5.822 13.284-13.002 13.284h-169.02c-7.181 0-13.002-5.948-13.002-13.284V626.088c0-7.337 5.82-13.284 13.002-13.284" clip-rule="evenodd" style="stroke-width:1.04879px"/></svg>