<svg xmlns="http://www.w3.org/2000/svg" width="24" height="24" fill="none"><mask id="A" width="16" height="16" x="4" y="4" mask-type="alpha" maskUnits="userSpaceOnUse"><path fill="#d9d9d9" d="M4 4h16v16H4z"/></mask><g mask="url('#A')"><path fill="#fff" fill-rule="evenodd" d="M16.95 16.79c-1.313 1.27-3.093 1.983-4.95 1.983s-3.637-.713-4.95-1.983S5 13.798 5 12.002s.737-3.518 2.05-4.788S10.144 5.23 12 5.23s3.637.713 4.95 1.983S19 10.206 19 12.002s-.738 3.518-2.05 4.788m-4.44-3.827.496-.479 3.403 3.292-.496.479zM7.592 8.221l.495-.479 3.403 3.292-.495.479zm4.915 2.822 3.399-3.296v.002l.495.479-3.4 3.293zm-4.904 4.743 3.401-3.294.496.479-3.401 3.293z"/></g></svg>