<svg
  xmlns="http://www.w3.org/2000/svg"
  width="33"
  height="33"
  fill="none"
  xmlns:v="https://vecta.io/nano"
>
  <path
    fill-rule="evenodd"
    d="M10.381 19.905c.508-.485 1.331-.485 1.838 0l2.981 2.851V8.245l-2.981 2.851c-.508.486-1.331.486-1.838 0s-.508-1.273 0-1.758l5.2-4.973c.508-.486 1.331-.486 1.838 0l5.2 4.973c.508.486.508 1.273 0 1.758s-1.331.486-1.838 0L17.8 8.245v14.511l2.981-2.851c.508-.485 1.331-.485 1.838 0s.508 1.273 0 1.758l-5.2 4.973c-.508.486-1.331.486-1.838 0l-5.2-4.973c-.508-.486-.508-1.273 0-1.758z"
    fill="#e4e5ee"
  />
</svg>
