<svg
  xmlns="http://www.w3.org/2000/svg"
  width="19"
  height="18"
  fill="none"
  xmlns:v="https://vecta.io/nano"
>
  <path
    d="M13 10.5c.433 0 .792-.142 1.075-.425S14.5 9.433 14.5 9s-.142-.792-.425-1.075S13.433 7.5 13 7.5s-.792.142-1.075.425S11.5 8.566 11.5 9s.142.792.425 1.075.642.425 1.075.425zM10 14c-.55 0-1.021-.196-1.412-.587S8 12.55 8 12V6c0-.55.196-1.021.588-1.413S9.45 4 10 4h7c.55 0 1.021.196 1.413.587S19 5.45 19 6v6c0 .55-.196 1.021-.587 1.413S17.55 14 17 14h-7zm-8 4c-.55 0-1.021-.196-1.413-.587S0 16.55 0 16V2C0 1.45.196.979.587.587S1.45 0 2 0h14c.55 0 1.021.196 1.413.587S18 1.45 18 2h-8c-1.183 0-2.146.371-2.887 1.112S6 4.816 6 6v6c0 1.183.371 2.146 1.113 2.887S8.817 16 10 16h8c0 .55-.196 1.021-.587 1.413S16.55 18 16 18H2z"
    fill="#fff"
  />
</svg>
