<svg width="33" height="32" viewBox="0 0 33 32" fill="none" xmlns="http://www.w3.org/2000/svg">
  <path
    d="M16.1817 32C11.9415 31.9973 7.8756 30.3113 4.87601 27.3119C1.87642 24.3125 0.188159 20.2447 0.181641 16.001C0.188158 11.7572 1.87633 7.68917 4.87586 4.68945C7.87539 1.68974 11.9413 0.00325699 16.1817 0C20.422 0.00325699 24.4879 1.68974 27.4874 4.68945C30.4869 7.68917 32.1751 11.7572 32.1816 16.001C32.1751 20.2447 30.4869 24.3125 27.4873 27.3119C24.4877 30.3113 20.4218 31.9973 16.1817 32ZM16.1817 1.2318C12.2676 1.23451 8.51438 2.79104 5.74555 5.55987C2.97672 8.3287 1.41839 12.0837 1.41241 16.001C1.41622 19.9189 2.97394 23.6749 5.7433 26.4439C8.51266 29.2129 12.2671 30.7682 16.1817 30.7682C20.0962 30.7682 23.8507 29.2129 26.62 26.4439C29.3894 23.6749 30.9471 19.9189 30.9509 16.001C30.9449 12.0837 29.3866 8.3287 26.6177 5.55987C23.8489 2.79104 20.0958 1.23451 16.1817 1.2318Z"
    fill="white"
  />
  <path
    d="M18.2046 29.4679C14.6917 29.4652 11.3232 28.068 8.83825 25.5829C6.35326 23.0978 4.95465 19.7276 4.94922 16.2118C4.95465 12.6959 6.35326 9.32572 8.83825 6.84059C11.3232 4.35546 14.6917 2.95828 18.2046 2.95557C21.7175 2.95828 25.086 4.35546 27.5709 6.84059C30.0559 9.32572 31.4545 12.6959 31.46 16.2118C31.4545 19.7276 30.0559 23.0978 27.5709 25.5829C25.086 28.068 21.7175 29.4652 18.2046 29.4679ZM18.2046 3.91227C14.9454 3.91498 11.8203 5.21143 9.51488 7.51721C7.20948 9.82299 5.91204 12.9498 5.90715 16.2118C5.91258 19.4733 7.21029 22.5996 9.51563 24.905C11.821 27.2103 14.9457 28.5064 18.2046 28.5092C21.4635 28.5064 24.5882 27.2103 26.8936 24.905C29.1989 22.5996 30.4966 19.4733 30.502 16.2118C30.4966 12.9502 29.1989 9.82385 26.8936 7.51851C24.5882 5.21318 21.4635 3.91704 18.2046 3.91432V3.91227Z"
    fill="white"
  />
  <path
    d="M20.2256 26.9397C17.4401 26.9375 14.7691 25.8296 12.7987 23.8591C10.8282 21.8885 9.71919 19.2162 9.71484 16.4284C9.71919 13.6405 10.8282 10.9682 12.7987 8.99765C14.7691 7.0271 17.4401 5.91922 20.2256 5.91705C23.0113 5.91868 25.6826 7.02638 27.6531 8.99704C29.6237 10.9677 30.7326 13.6403 30.7364 16.4284C30.732 19.2162 29.623 21.8885 27.6525 23.8591C25.6821 25.8296 23.0112 26.9375 20.2256 26.9397ZM20.2256 6.60069C17.6211 6.60232 15.1235 7.63799 13.2811 9.48044C11.4386 11.3229 10.4017 13.8217 10.3979 16.4284C10.4022 19.0347 11.4394 21.5329 13.2818 23.375C15.1242 25.217 17.6214 26.2524 20.2256 26.254C22.8298 26.2524 25.327 25.217 27.1694 23.375C29.0119 21.5329 30.049 19.0347 30.0534 16.4284C30.0496 13.8217 29.0126 11.3229 27.1701 9.48044C25.3277 7.63799 22.8302 6.60232 20.2256 6.60069Z"
    fill="white"
  />
  <path
    d="M22.2486 24.4076C20.1904 24.406 18.2169 23.5874 16.761 22.1314C15.3051 20.6755 14.4857 18.701 14.4824 16.6411C14.4851 14.5809 15.3044 12.6059 16.7603 11.1495C18.2163 9.6931 20.1901 8.87425 22.2486 8.87262C24.3071 8.87425 26.2809 9.6931 27.7368 11.1495C29.1928 12.6059 30.012 14.5809 30.0147 16.6411C30.0114 18.701 29.1921 20.6755 27.7361 22.1314C26.2802 23.5874 24.3067 24.406 22.2486 24.4076ZM22.2486 9.28322C20.2989 9.28485 18.4295 10.0604 17.0504 11.4398C15.6714 12.8192 14.8954 14.6898 14.8927 16.6411C14.8959 18.5921 15.6722 20.4621 17.0511 21.8411C18.4301 23.22 20.2992 23.9954 22.2486 23.997C24.1979 23.9954 26.067 23.22 27.446 21.8411C28.825 20.4621 29.6012 18.5921 29.6044 16.6411C29.6017 14.6898 28.8258 12.8192 27.4468 11.4398C26.0678 10.0604 24.1983 9.28485 22.2486 9.28322Z"
    fill="white"
  />
</svg>
