<svg
  xmlns="http://www.w3.org/2000/svg"
  width="33"
  height="32"
  fill="#fff"
  xmlns:v="https://vecta.io/nano"
>
  <path
    d="M16 30.637a14.82 14.82 0 0 1-10.471-4.342c-2.778-2.778-4.342-6.545-4.348-10.475A14.85 14.85 0 0 1 5.529 5.343C8.307 2.565 12.073 1.003 16 1c3.927.003 7.693 1.565 10.471 4.343a14.85 14.85 0 0 1 4.348 10.476c-.006 3.93-1.57 7.698-4.348 10.475A14.82 14.82 0 0 1 16 30.637zm0-28.496a13.68 13.68 0 0 0-9.665 4.008c-2.564 2.564-4.008 6.042-4.013 9.67.004 3.629 1.446 7.107 4.011 9.672s6.042 4.005 9.667 4.005 7.103-1.44 9.668-4.005 4.008-6.043 4.011-9.672c-.006-3.628-1.449-7.106-4.013-9.67S19.625 2.143 16 2.141z"
  />
  <path
    d="M17.872 28.291a12.28 12.28 0 0 1-8.675-3.598 12.3 12.3 0 0 1-3.602-8.679 12.3 12.3 0 0 1 3.602-8.679 12.28 12.28 0 0 1 8.675-3.598 12.28 12.28 0 0 1 8.675 3.598 12.3 12.3 0 0 1 3.602 8.679 12.3 12.3 0 0 1-3.602 8.679 12.28 12.28 0 0 1-8.675 3.598zm0-23.668c-3.018.003-5.913 1.203-8.048 3.339s-3.337 5.031-3.341 8.052c.005 3.021 1.207 5.916 3.342 8.051s5.029 3.336 8.047 3.338 5.912-1.203 8.047-3.338 3.337-5.03 3.342-8.051c-.005-3.021-1.207-5.916-3.342-8.051s-5.029-3.336-8.047-3.338v-.002z"
  />
  <path
    d="M19.746 25.951a9.74 9.74 0 0 1-6.879-2.853c-1.825-1.825-2.852-4.3-2.856-6.882.004-2.582 1.031-5.057 2.856-6.882a9.74 9.74 0 0 1 6.879-2.853c2.58.002 5.054 1.027 6.879 2.853a9.75 9.75 0 0 1 2.855 6.883c-.004 2.582-1.031 5.057-2.856 6.882a9.74 9.74 0 0 1-6.878 2.853zm0-18.837a9.11 9.11 0 0 0-6.432 2.667 9.12 9.12 0 0 0-2.67 6.435 9.12 9.12 0 0 0 2.671 6.434 9.1 9.1 0 0 0 6.431 2.666 9.09 9.09 0 0 0 6.431-2.666 9.12 9.12 0 0 0 2.671-6.434 9.12 9.12 0 0 0-2.67-6.435 9.1 9.1 0 0 0-6.432-2.667zm1.872 16.491a7.2 7.2 0 0 1-5.082-2.108 7.21 7.21 0 0 1-2.11-5.085c.002-1.908.761-3.737 2.11-5.086s3.176-2.107 5.083-2.109a7.18 7.18 0 0 1 5.083 2.109 7.21 7.21 0 0 1 2.11 5.086 7.21 7.21 0 0 1-2.11 5.085 7.19 7.19 0 0 1-5.082 2.108zm0-14.007a6.82 6.82 0 0 0-4.814 1.997 6.83 6.83 0 0 0-1.998 4.817c.003 1.807.722 3.539 1.999 4.816a6.82 6.82 0 0 0 4.814 1.997 6.8 6.8 0 0 0 4.813-1.997c1.277-1.277 1.996-3.009 1.999-4.816a6.83 6.83 0 0 0-1.998-4.817c-1.277-1.277-3.009-1.996-4.814-1.997z"
  />
</svg>
