<svg xmlns="http://www.w3.org/2000/svg" width="24" height="24" fill="none" xmlns:v="https://vecta.io/nano">
  <mask id="A" maskUnits="userSpaceOnUse" x="4" y="4" width="16" height="16" mask-type="alpha">
    <path fill="#d9d9d9" d="M4 4h16v16H4z" />
  </mask>
  <g mask="url(#A)">
    <path
      d="M11.993 5.145c.635 0 1.208.354 1.489.916l4.684 9.369c.416.822.083 1.822-.739 2.238a1.69 1.69 0 0 1-.75.177H7.308a1.67 1.67 0 0 1-1.666-1.665c0-.26.062-.51.177-.75l4.684-9.369c.281-.562.854-.916 1.489-.916zm0-1.145c-1.062 0-2.04.604-2.509 1.551L4.799 14.92a2.8 2.8 0 0 0 1.26 3.768c.396.198.822.302 1.26.302h9.369c1.551 0 2.811-1.26 2.811-2.811 0-.437-.104-.864-.302-1.26l-4.684-9.369A2.83 2.83 0 0 0 11.993 4z"
      fill="#fff" />
  </g>
</svg>