<svg width="41" height="39" viewBox="-10 -10 61 59" fill="none" xmlns="http://www.w3.org/2000/svg">
  <path
    d="M2.74125 24.3218C1.86609 23.4493 1.27917 22.4416 0.980509 21.299C0.688789 20.1494 0.688789 18.9998 0.980509 17.8502C1.27917 16.6937 1.86261 15.6826 2.73082 14.817C3.61293 13.9375 4.63048 13.3523 5.78347 13.0615C6.93647 12.7706 8.08946 12.7706 9.24245 13.0615C10.3954 13.3523 11.4095 13.934 12.2847 14.8066L14.4517 16.9673L17.6607 13.7678L15.4936 11.6072C14.6184 10.7346 14.0315 9.72697 13.7328 8.58431C13.4411 7.43473 13.4377 6.28861 13.7224 5.14595C14.0142 3.99637 14.6011 2.98183 15.4832 2.10233C16.3583 1.22975 17.3724 0.648041 18.5254 0.357183C19.6784 0.0663253 20.8279 0.0697784 21.9739 0.367562C23.1269 0.658419 24.141 1.24015 25.0162 2.11272C25.8914 2.9853 26.4748 3.99637 26.7665 5.14595C27.0652 6.28861 27.0686 7.43473 26.7769 8.58431C26.4921 9.74082 25.9122 10.7554 25.037 11.6279L22.8804 13.7782L26.0789 16.9673L28.2355 14.817C29.1107 13.9444 30.1213 13.3592 31.2673 13.0615C32.4203 12.7706 33.5698 12.774 34.7159 13.0718C35.8689 13.3627 36.8864 13.9479 37.7685 14.8274C38.6437 15.7 39.2271 16.711 39.5188 17.8606C39.8175 19.0033 39.8175 20.1459 39.5188 21.2886C39.2271 22.4382 38.6437 23.4493 37.7685 24.3218C36.8864 25.2013 35.8689 25.7865 34.7159 26.0774C33.5698 26.3613 32.4203 26.3578 31.2673 26.067C30.1282 25.7761 29.1211 25.1944 28.2459 24.3218L26.0893 22.1716L22.8804 25.371L25.037 27.5213C25.9122 28.3938 26.4921 29.4015 26.7769 30.5441C27.0686 31.6937 27.0686 32.8433 26.7769 33.9929C26.4852 35.1425 25.8983 36.157 25.0162 37.0365C24.148 37.9021 23.1339 38.4839 21.9739 38.7816C20.8209 39.0725 19.668 39.0725 18.515 38.7816C17.3759 38.4908 16.3687 37.9091 15.4936 37.0365C14.6115 36.157 14.0211 35.1459 13.7224 34.0033C13.4307 32.8537 13.4307 31.7041 13.7224 30.5545C14.0281 29.4049 14.615 28.3973 15.4832 27.5317L17.6607 25.3606L14.4622 22.1716L12.2847 24.3426C11.4165 25.2083 10.3989 25.7865 9.23202 26.0774C8.07903 26.3682 6.92606 26.3682 5.77307 26.0774C4.62702 25.7796 3.61641 25.1944 2.74125 24.3218ZM5.34589 21.7249C5.74179 22.1196 6.20021 22.3828 6.72114 22.5143C7.24902 22.6529 7.77343 22.6563 8.29435 22.5247C8.81528 22.3932 9.2737 22.13 9.66961 21.7353L11.8471 19.5642L9.68002 17.4036C9.28411 17.0088 8.82223 16.7491 8.29435 16.6245C7.77343 16.4929 7.2525 16.4929 6.73157 16.6245C6.21064 16.7561 5.74874 17.0227 5.34589 17.4243C4.94998 17.8191 4.68258 18.2727 4.54367 18.7851C4.4117 19.3045 4.4117 19.8239 4.54367 20.3433C4.68258 20.8696 4.94998 21.3301 5.34589 21.7249ZM18.0982 9.01021L20.2653 11.1709L22.4219 9.0206C22.8248 8.61894 23.0888 8.16188 23.2138 7.64941C23.3457 7.13002 23.3423 6.60717 23.2033 6.08085C23.0714 5.56146 22.8074 5.1044 22.4115 4.70966C22.0156 4.31492 21.5572 4.05177 21.0363 3.92019C20.5153 3.78861 19.9944 3.78861 19.4735 3.92019C18.9595 4.04484 18.5011 4.308 18.0982 4.70966C17.7023 5.1044 17.4315 5.56146 17.2856 6.08085C17.1536 6.60024 17.1536 7.11963 17.2856 7.63902C17.4315 8.15841 17.7023 8.61547 18.0982 9.01021ZM28.0838 19.5746L30.2404 21.7249C30.6363 22.1196 31.0913 22.3862 31.6053 22.5247C32.1262 22.6563 33.2538 22.6529 33.7678 22.5143C34.2887 22.3828 34.7506 22.1162 35.1535 21.7145C35.5563 21.3128 35.8203 20.8558 35.9453 20.3433C36.0842 19.8308 36.0877 19.3149 35.9557 18.7955C35.8237 18.2761 35.5598 17.8191 35.1639 17.4243C34.761 17.0227 34.2991 16.7561 33.7782 16.6245C33.2573 16.4929 32.1262 16.4929 31.6053 16.6245C31.0982 16.7561 30.6432 17.0227 30.2404 17.4243L28.0838 19.5746ZM18.0982 34.4395C18.4942 34.8343 18.9526 35.0974 19.4735 35.229C19.9944 35.3606 20.5119 35.3571 21.0259 35.2186C21.5468 35.087 22.0052 34.8239 22.4011 34.4291C22.8039 34.0275 23.0714 33.567 23.2033 33.0476C23.3423 32.5351 23.3457 32.0192 23.2138 31.4998C23.0888 30.9735 22.8283 30.513 22.4324 30.1182L20.2757 27.9679L18.0982 30.139C17.7023 30.5337 17.4349 30.9873 17.296 31.4998C17.164 32.0192 17.164 32.5386 17.296 33.058C17.428 33.5773 17.6954 34.0379 18.0982 34.4395ZM17.0668 19.5746L20.2653 22.7637L23.4742 19.5642L20.2757 16.3752L17.0668 19.5746Z"
    fill="#fff"></path>
</svg>