<svg xmlns="http://www.w3.org/2000/svg" width="24" height="24" fill="none" xmlns:v="https://vecta.io/nano">
  <mask id="A" maskUnits="userSpaceOnUse" x="4" y="4" width="16" height="16" mask-type="alpha">
    <path fill="#d9d9d9" d="M4 4h16v16H4z" />
  </mask>
  <g mask="url(#A)">
    <path
      d="M6.697 7.417l.271-.319c.004-.005.014-.006.018-.011s.022-.017.03-.027l.008-.01.211-.18a3.15 3.15 0 0 1 .873-.478c.978-.343 2.067-.132 2.921.674 1.192 1.117 1.086 2.916.134 4.111-1.203 1.782-3.27 4.269-.408 6.497.515.401.896.731 2.518 1.199-1.06.195-2.043.134-3.138-.145-.774-.436-1.991-1.371-2.405-2.633-.626-1.914 1.102-4.775 1.936-5.877 1.146-1.525-.708-3.176-2.074-1.333-.714.961-1.962 3.679-1.529 5.695.254 1.143.592 1.977 1.933 3.122a6.34 6.34 0 0 1-.724-.499c-3.114-2.9-2.752-7.383-.575-9.786zm10.606 9.152l-.271.319c-.004.005-.014.006-.018.011-.008.01-.022.017-.03.027l-.008.01-.211.18c-.279.211-.568.372-.873.478-.978.343-2.067.132-2.921-.674-1.193-1.117-1.086-2.916-.134-4.111 1.203-1.782 3.27-4.269.408-6.497-.515-.401-.896-.731-2.517-1.199 1.06-.195 2.043-.134 3.137.145.774.436 1.991 1.371 2.405 2.633.626 1.914-1.101 4.775-1.936 5.877-1.146 1.525.709 3.176 2.074 1.333.714-.961 1.962-3.679 1.528-5.695-.254-1.143-.592-1.977-1.933-3.122a6.35 6.35 0 0 1 .724.499c3.115 2.899 2.754 7.382.576 9.785z"
      fill="#fff" />
  </g>
</svg>