<svg width="395" height="395" viewBox="0 0 395 395" fill="none" xmlns="http://www.w3.org/2000/svg">
  <path
    d="M335.528 197.669C335.528 122.211 274.08 61.0424 198.292 61.0424C122.504 61.0424 61.0405 122.211 61.0405 197.669C61.0405 213.27 63.6731 228.254 68.5047 242.22C68.5356 242.282 68.7989 243.083 68.7989 243.083C70.7501 249.265 61.0714 251.685 61.0714 255.385C61.0714 261.181 81.4819 260.395 81.4819 267.131C81.4819 273.005 61.2882 274.824 61.2882 280.743C61.2882 288.929 105.996 286.077 106.569 293.106C107.003 298.533 91.1915 298.872 91.0986 304.668C90.9438 313.933 152.113 310.896 152.113 317.062C152.113 321.733 124.285 320.037 124.285 325.556C124.285 331.075 160.909 334.559 201.281 334.559C241.653 334.559 269.496 330.088 269.496 325.263C269.496 320.438 243.511 321.425 244.053 317.077C244.982 309.478 302.667 313.362 302.667 304.56C302.667 299.92 286.81 298.841 287.321 293.846C288.049 286.786 335.528 287.834 335.528 280.497C335.528 274.731 311.99 273.313 312.036 267.316C312.067 261.196 335.528 261.459 335.373 255.724C335.25 251.315 324.874 251.423 328.126 242.081C332.927 228.161 335.559 213.224 335.559 197.669H335.528ZM291.92 236.47C287.15 247.215 276.434 245.057 275.226 249.573C273.972 254.244 288.436 254.922 288.436 259.809C288.436 265.744 244.347 263.37 244.781 271.201C245.06 276.134 276.093 276.966 275.505 282.115C274.653 289.576 227.421 285.846 226.957 292.999C226.616 298.24 250.015 298.425 250.062 303.204C250.108 307.227 231.695 309.416 196.418 309.416C156.248 309.416 136.705 307.258 138.935 302.772C141.01 298.579 176.581 299.35 176.225 292.752C175.869 286.17 113.058 288.096 111.168 281.699C109.589 276.381 131.811 275.286 131.672 270.23C131.532 265.081 103.224 266.253 102.605 260.01C102.202 255.924 117.394 256.171 116.743 251.022C116.263 247.276 109.991 247.8 106.275 240.077C100.282 227.175 96.9058 212.807 96.9058 197.654C96.9058 141.912 142.311 96.7138 198.308 96.7138C254.305 96.7138 299.709 141.912 299.709 197.654C299.709 211.405 296.937 224.508 291.935 236.455L291.92 236.47Z"
    fill="#fff" />
</svg>