<svg xmlns="http://www.w3.org/2000/svg" xmlns:xlink="http://www.w3.org/1999/xlink" width="24" height="24" fill="none"
  xmlns:v="https://vecta.io/nano">
  <mask id="A" maskUnits="userSpaceOnUse" x="4" y="4" width="16" height="16" mask-type="alpha">
    <path fill="#d9d9d9" d="M4 4h16v16H4z" />
  </mask>
  <g mask="url(#A)">
    <path
      d="M15.164 5.689c1.824.778 3.04 2.696 2.902 4.642-3.261 0-6.522.028-9.782-.028 0-1.306.442-2.641 1.382-3.558a5.04 5.04 0 0 1 5.499-1.056zm-.138 12.508c.193 0 .359.111.359.25s-.166.25-.359.25h-5.25c-.193 0-.359-.111-.359-.25s.166-.25.359-.25h5.25z"
      fill="#fff" />
    <use xlink:href="#C" fill="#fff" />
    <use xlink:href="#C" x="3.151" y="-1.334" fill="#fff" />
    <path
      d="M17.955 16.641c.193 0 .359.167.359.361s-.166.361-.359.361h-5.14c-.193 0-.359-.167-.359-.361s.166-.361.359-.361h5.14z"
      fill="#fff" />
    <use xlink:href="#C" x="-3.592" y="-2.668" fill="#fff" />
    <path
      d="M10.162 15.307c.194 0 .359.167.359.361s-.166.361-.359.361H5.934c-.193 0-.359-.167-.359-.361s.166-.361.359-.361h4.228zm9.479 0c.194 0 .359.167.359.361s-.166.361-.359.361H11.24c-.193 0-.359-.167-.359-.361s.166-.361.359-.361h8.401zm-1.575-1.335c.193 0 .359.167.359.361s-.166.361-.359.361H7.759c-.193 0-.359-.167-.359-.361s.166-.361.359-.361h10.307z"
      fill="#fff" />
    <use xlink:href="#C" x="-2.017" y="-4.003" fill="#fff" />
    <path
      d="M15.91 12.666c.194 0 .359.167.359.361s-.166.361-.359.361H5.602c-.193 0-.359-.167-.359-.361s.166-.361.359-.361H15.91z"
      fill="#fff" />
    <use xlink:href="#C" x="-4.283" y="-5.308" fill="#fff" />
    <use xlink:href="#C" x="-2.017" y="-6.643" fill="#fff" />
    <path
      d="M19.06 11.331c.194 0 .359.167.359.361s-.166.361-.359.361H7.841c-.193 0-.359-.167-.359-.361s.166-.361.359-.361H19.06z"
      fill="#fff" />
  </g>
  <defs>
    <path id="C" d="M8.642 18.697a.36.36 0 0 0 0-.723.36.36 0 0 0 0 .723z" />
  </defs>
</svg>