<svg xmlns="http://www.w3.org/2000/svg" width="24" height="24" fill="none" xmlns:v="https://vecta.io/nano">
  <path
    d="M11.5 4.289a1 1 0 0 1 1 0l5.928 3.423a1 1 0 0 1 .5.866v6.845a1 1 0 0 1-.5.866L12.5 19.711a1 1 0 0 1-1 0l-5.928-3.423a1 1 0 0 1-.5-.866V8.577a1 1 0 0 1 .5-.866L11.5 4.289z"
    fill="#fff" />
  <g stroke="#010014">
    <path
      d="M12.25 6.722l4.196 2.423a.5.5 0 0 1 .25.433v4.845a.5.5 0 0 1-.25.433l-4.196 2.423a.5.5 0 0 1-.5 0l-4.196-2.423a.5.5 0 0 1-.25-.433V9.577a.5.5 0 0 1 .25-.433l4.196-2.423a.5.5 0 0 1 .5 0z" />
    <path d="M7.5 9.5L12 12v5m0-5l4.5-2.5" />
  </g>
</svg>