<svg xmlns="http://www.w3.org/2000/svg" width="32" height="32" viewBox="0 0 32 32" fill="none">
  <path
    d="M19.125 13.3993C19.125 14.8351 17.9496 15.9993 16.5 15.9993V18.5993C19.3993 18.5993 21.75 16.2709 21.75 13.3993C21.75 10.5276 19.3993 8.19922 16.5 8.19922C15.5443 8.19922 14.6467 8.45205 13.875 8.89538C12.3055 9.79381 11.25 11.4742 11.25 13.3993V26.3994L13.6102 28.7372L13.875 28.9994V13.3993C13.875 11.9634 15.0504 10.7992 16.5 10.7992C17.9496 10.7992 19.125 11.9634 19.125 13.3993Z"
    fill="#ffffff" />
  <path
    d="M16.5 3C14.5873 3 12.7946 3.50683 11.25 4.39233C10.261 4.95796 9.37534 5.67882 8.625 6.52197C6.99135 8.35528 6 10.7636 6 13.4001V21.2002L8.625 23.8002V13.4001C8.625 11.0905 9.63891 9.01499 11.25 7.58621C12.0075 6.91592 12.8967 6.38674 13.875 6.04571C14.6954 5.75643 15.5799 5.60003 16.5 5.60003C20.8489 5.60003 24.375 9.0926 24.375 13.4001C24.375 17.7076 20.8489 21.2002 16.5 21.2002V23.8002C22.2997 23.8002 27 19.1435 27 13.4001C27 7.65677 22.2997 3 16.5 3Z"
    fill="#ffffff" />
</svg>