<svg width="589" height="580" viewBox="-150 -150 889 880" fill="none" xmlns="http://www.w3.org/2000/svg">
  <path
    d="M74.0803 223.59C51.5744 202.245 35.797 174.634 35.797 141.919V138.439C37.6532 82.5223 83.5931 37.5105 139.51 35.8863H495.429C504.709 36.3504 512.134 42.8469 512.134 52.3597V353.522C520.255 354.914 524.199 356.074 532.088 358.858C538.352 361.178 546.937 366.051 546.937 366.051V52.3597C546.473 23.8212 523.735 0.851318 495.197 0.851318H139.278C62.4793 2.01142 0.761963 64.8888 0.761963 141.919C0.761963 186.699 21.1798 224.983 54.5906 251.897C56.9108 253.753 58.999 256.073 65.0315 256.073C75.4724 256.073 82.8971 247.721 82.433 238.672C82.201 231.015 78.9527 228.231 74.0803 223.59Z"
    fill="white" />
  <path
    d="M486.148 373.243H207.028C188.234 373.475 173.153 388.557 173.153 407.35V447.49C173.617 466.051 189.394 481.829 208.188 481.829H228.838V447.49H208.188V408.278C208.188 408.278 213.292 408.278 219.557 408.278C254.824 408.278 280.81 440.993 280.81 476.028C280.81 507.119 252.504 546.794 205.171 543.546C163.176 540.762 140.438 503.406 140.438 476.028V135.887C140.438 120.573 127.909 108.044 112.596 108.044H84.7532V142.847H105.403V476.26C104.243 544.01 153.663 578.117 205.171 578.117L486.38 579.045C542.993 579.045 588.932 533.105 588.932 476.26C588.932 419.415 542.761 373.243 486.148 373.243ZM553.898 478.348C552.737 514.775 522.807 544.01 486.148 544.01L290.555 543.314C306.1 525.216 315.613 501.782 315.613 476.26C315.613 436.121 291.715 408.51 291.715 408.51H486.38C523.735 408.51 554.13 438.905 554.13 476.26L553.898 478.348Z"
    fill="white" />
  <path
    d="M410.974 149.112H200.532V114.309H410.974C420.487 114.309 428.375 121.966 428.375 131.711C428.375 141.224 420.719 149.112 410.974 149.112Z"
    fill="white" />
  <path
    d="M410.974 312.918H200.532V278.115H410.974C420.487 278.115 428.375 285.772 428.375 295.516C428.375 305.029 420.719 312.918 410.974 312.918Z"
    fill="white" />
  <path
    d="M448.097 231.015H200.532V196.212H447.865C457.378 196.212 465.267 203.869 465.267 213.614C465.499 223.126 457.61 231.015 448.097 231.015Z"
    fill="white" />
</svg>