<?xml version="1.0" encoding="UTF-8" standalone="no"?>
<!-- Created with Inkscape (http://www.inkscape.org/) -->

<svg
  version="1.1"
  id="svg1"
  width="236"
  height="236"
  viewBox="0 0 236 236"
  xmlns="http://www.w3.org/2000/svg"
  xmlns:svg="http://www.w3.org/2000/svg"
>
  <defs id="defs1">
    <linearGradient id="swatch6">
      <stop style="stop-color: #00d1ff; stop-opacity: 1" offset="0" id="stop6" />
    </linearGradient>
  </defs>
  <g id="g1">
    <path
      style="
        fill: #ffffff;
        fill-opacity: 1;
        stroke: #ffffff;
        stroke-width: 1.00157;
        stroke-opacity: 1;
      "
      d="m 64.276499,82.619556 28.499957,0.303191 c 0,0 10.308494,2.122338 17.736674,14.249979 L 99.143468,111.11951 88.986568,99.446659 64.57969,99.295063 Z"
      id="path1"
    />
    <path
      style="
        fill: #ffffff;
        fill-opacity: 1;
        stroke: #ffffff;
        stroke-width: 1.01817;
        stroke-opacity: 1;
      "
      d="M 55.010427,99.451382 54.853732,82.931108 H 26.805191 c 0,0 -7.991484,1.36406 -15.512881,10.609351 -7.521396,9.245291 -12.06557309,13.943711 -12.06557309,13.943711 0,0 -0.15669574,11.67029 1.25356605,28.19057 l 10.18522404,11.9734 c 0,0 4.857569,8.48748 16.766447,10.91248 l 27.891845,0.30312 -0.313392,-16.8234 L 29.78241,142.34347 11.605702,120.82165 29.78241,99.29982 Z"
      id="path2"
    />
    <path
      style="
        fill: #ffffff;
        fill-opacity: 1;
        stroke: #ffffff;
        stroke-width: 1.00157;
        stroke-opacity: 1;
      "
      d="M 64.57969,142.045 H 89.138164 L 131.7365,91.260501 c 0,0 7.73138,-8.944136 16.06913,-8.034562 l 24.71007,-0.303192 0.30319,16.523912 -25.61964,0.151595 -16.9787,21.374966 17.28189,21.22337 h 24.55847 l 0.1516,15.76594 -25.77124,0.60638 c 0,0 -9.70211,-0.1516 -14.55317,-8.03456 l -13.492,-15.91753 -13.6436,16.8271 c 0,0 -4.39627,6.6702 -14.704763,7.12499 H 64.124903 Z"
      id="path3"
    />
    <path
      style="
        fill: #ffffff;
        fill-opacity: 1;
        stroke: #ffffff;
        stroke-width: 1.00157;
        stroke-opacity: 1;
      "
      d="m 181.76302,83.074343 h 26.98401 c 0,0 10.30849,0.606382 18.64624,14.098383 L 216.3268,110.96792 206.3215,99.598254 181.76302,99.446659"
      id="path4"
    />
    <path
      style="
        fill: #ffffff;
        fill-opacity: 1;
        stroke: #ffffff;
        stroke-width: 1.01018;
        stroke-opacity: 1;
      "
      d="m 181.46244,141.89125 24.9885,0.30312 29.92448,-34.70732 -0.3085,28.64491 -11.87725,13.48887 c 0,0 -6.16999,10.30612 -16.96748,8.94208 H 181.6167 Z"
      id="path5"
    />
  </g>
</svg>
