<svg xmlns="http://www.w3.org/2000/svg" width="27" height="28" viewBox="-4 -4 34 35" fill="#fff">
  <path
    d="M13.1174 27.4611C9.64115 27.4588 6.30777 26.0201 3.8486 23.4608C1.38944 20.9015 0.0053439 17.4305 0 13.8094C0.00534314 10.1882 1.38937 6.71705 3.84848 4.15744C6.3076 1.59783 9.64099 0.158785 13.1174 0.156006C16.5937 0.158785 19.9271 1.59783 22.3862 4.15744C24.8453 6.71705 26.2294 10.1882 26.2347 13.8094C26.2294 17.4305 24.8453 20.9015 22.3861 23.4608C19.927 26.0201 16.5936 27.4588 13.1174 27.4611ZM13.1174 1.20708C9.90847 1.20939 6.83147 2.53756 4.56149 4.90015C2.2915 7.26275 1.01393 10.4668 1.00903 13.8094C1.01215 17.1524 2.28922 20.3574 4.55964 22.7201C6.83005 25.0829 9.90808 26.41 13.1174 26.41C16.3267 26.41 19.4047 25.0829 21.6751 22.7201C23.9455 20.3574 25.2225 17.1524 25.2257 13.8094C25.2208 10.4668 23.9432 7.26275 21.6732 4.90015C19.4032 2.53756 16.3263 1.20939 13.1174 1.20708V1.20708Z"
    fill="curentColor"></path>
  <path
    d="M14.4113 25.1194C11.5312 25.1171 8.7697 23.9249 6.73243 21.8044C4.69515 19.6838 3.54852 16.8081 3.54407 13.8081C3.54852 10.8081 4.69515 7.93238 6.73243 5.81185C8.7697 3.69133 11.5312 2.49914 14.4113 2.49683C17.2913 2.49914 20.0529 3.69133 22.0901 5.81185C24.1274 7.93238 25.274 10.8081 25.2785 13.8081C25.274 16.8081 24.1274 19.6838 22.0901 21.8044C20.0529 23.9249 17.2913 25.1171 14.4113 25.1194ZM14.4113 3.31316C11.7392 3.31548 9.1772 4.42172 7.28715 6.3892C5.39711 8.35668 4.33342 11.0248 4.32941 13.8081C4.33387 16.5912 5.39777 19.2588 7.28777 21.2259C9.17776 23.193 11.7395 24.299 14.4113 24.3013C17.083 24.299 19.6448 23.193 21.5348 21.2259C23.4248 19.2588 24.4887 16.5912 24.4931 13.8081C24.4887 11.0251 23.4248 8.35742 21.5348 6.39031C19.6448 4.42321 17.083 3.31723 14.4113 3.31492V3.31316Z"
    fill="curentColor"></path>
  <path
    d="M15.9542 22.7779C13.6705 22.776 11.4808 21.8307 9.86533 20.1492C8.24989 18.4678 7.34066 16.1876 7.3371 13.8087C7.34066 11.4299 8.24989 9.14966 9.86533 7.46822C11.4808 5.78678 13.6705 4.84145 15.9542 4.8396C18.238 4.84099 20.428 5.78617 22.0435 7.46771C23.6591 9.14924 24.5681 11.4298 24.5713 13.8087C24.5677 16.1876 23.6585 18.4678 22.043 20.1492C20.4276 21.8307 18.2379 22.776 15.9542 22.7779V22.7779ZM15.9542 5.42294C13.8189 5.42433 11.7713 6.30804 10.2608 7.88018C8.75028 9.45232 7.9002 11.5845 7.89708 13.8087C7.90064 16.0327 8.75095 18.1644 10.2614 19.7361C11.7719 21.3079 13.8192 22.1914 15.9542 22.1928C18.0892 22.1914 20.1365 21.3079 21.647 19.7361C23.1574 18.1644 24.0078 16.0327 24.0113 13.8087C24.0082 11.5845 23.1581 9.45232 21.6476 7.88018C20.137 6.30804 18.0895 5.42433 15.9542 5.42294V5.42294Z"
    fill="curentColor"></path>
  <path
    d="M17.829 20.4362C16.1417 20.4348 14.5238 19.7363 13.3302 18.494C12.1366 17.2516 11.4648 15.5668 11.4621 13.8092C11.4643 12.0512 12.1359 10.366 13.3296 9.12325C14.5232 7.88052 16.1414 7.18181 17.829 7.18042C19.5167 7.18181 21.1349 7.88052 22.3285 9.12325C23.5222 10.366 24.1938 12.0512 24.196 13.8092C24.1933 15.5668 23.5216 17.2516 22.328 18.494C21.1344 19.7363 19.5164 20.4348 17.829 20.4362V20.4362ZM17.829 7.53078C16.2306 7.53217 14.698 8.19396 13.5674 9.37099C12.4369 10.548 11.8007 12.1441 11.7984 13.8092C11.8011 15.4739 12.4375 17.0696 13.568 18.2462C14.6985 19.4228 16.2309 20.0844 17.829 20.0858C19.4272 20.0844 20.9595 19.4228 22.0901 18.2462C23.2206 17.0696 23.857 15.4739 23.8596 13.8092C23.8574 12.1441 23.2213 10.548 22.0907 9.37099C20.9602 8.19396 19.4275 7.53217 17.829 7.53078Z"
    fill="curentColor"></path>
</svg>