<?xml version="1.0" encoding="UTF-8" standalone="no"?>
<svg
  width="1000"
  height="1000"
  viewBox="0 0 1000 1000"
  fill="none"
  version="1.1"
  id="svg1"
  xmlns="http://www.w3.org/2000/svg"
  xmlns:svg="http://www.w3.org/2000/svg"
>
  <defs id="defs1" />
  <path
    fill-rule="evenodd"
    clip-rule="evenodd"
    d="M 379.35385,214.2807 H 210.33333 c -7.18,0 -13.00078,5.94725 -13.00078,13.28325 v 172.69282 c 0,7.33706 5.82078,13.28431 13.00078,13.28431 h 169.02052 c 7.18102,0 13.00181,-5.94725 13.00181,-13.28431 V 227.56395 c 0,-7.336 -5.82079,-13.28325 -13.00181,-13.28325 z M 574.46204,413.54108 H 405.44152 c -7.18,0 -13.00182,5.94831 -13.00182,13.28431 v 172.69282 c 0,7.33706 5.82182,13.28431 13.00182,13.28431 h 169.02052 c 7.18103,0 13.00181,-5.94725 13.00181,-13.28431 V 426.82539 c 0,-7.336 -5.82078,-13.28431 -13.00181,-13.28431 z M 600.38266,214.2807 h 169.02051 c 7.18,0 13.00182,5.94725 13.00182,13.28325 v 172.69282 c 0,7.33706 -5.82182,13.28431 -13.00182,13.28431 H 600.38266 c -7.18103,0 -13.00181,-5.94725 -13.00181,-13.28431 V 227.56395 c 0,-7.336 5.82078,-13.28325 13.00181,-13.28325 z M 379.35488,612.80357 H 210.33333 c -7.18,0 -13.00078,5.94725 -13.00078,13.28431 V 798.7807 c 0,7.336 5.82078,13.28431 13.00078,13.28431 h 169.02155 c 7.17999,0 13.00078,-5.94831 13.00078,-13.28431 V 626.08788 c 0,-7.33706 -5.82079,-13.28431 -13.00078,-13.28431 z m 221.02778,0 h 169.02051 c 7.18,0 13.00182,5.94725 13.00182,13.28431 V 798.7807 c 0,7.336 -5.82182,13.28431 -13.00182,13.28431 H 600.38266 c -7.18103,0 -13.00181,-5.94831 -13.00181,-13.28431 V 626.08788 c 0,-7.33706 5.82078,-13.28431 13.00181,-13.28431 z"
    fill="#ffffff"
    id="path1"
    style="stroke-width: 1.04879"
  />
</svg>
