<svg viewBox="0 0 233 233" xmlns="http://www.w3.org/2000/svg">
  <defs>
    <linearGradient id="linear-gradient" x1="177.86" y1="291.18" x2="341.06" y2="127.98" gradientUnits="userSpaceOnUse"
      gradientTransform="matrix(1, 0, 0, 1, -102.114517, -51.081291)">
      <stop offset="0" stop-color="#B090F5"></stop>
      <stop offset="1" stop-color="#5FBFFF"></stop>
    </linearGradient>
    <linearGradient id="linear-gradient-2" x1="96.43" y1="207.75" x2="259.64" y2="44.55" gradientUnits="userSpaceOnUse"
      gradientTransform="matrix(1, 0, 0, 1, -102.114517, -51.081291)">
      <stop offset="0" stop-color="#68D7FA"></stop>
      <stop offset="1" stop-color="#7EF1B3"></stop>
    </linearGradient>
  </defs>
  <path class="cls-1-1"
    d="M 217.315 59.288 L 212.315 50.508 C 210.633 47.556 206.601 47.019 204.205 49.428 L 192.705 60.918 C 190.972 62.66 190.704 65.382 192.065 67.428 C 196.259 73.836 199.619 80.751 202.065 88.008 C 221.758 146.457 178.293 206.988 116.615 207.008 C 101.879 207.048 87.362 203.445 74.355 196.518 L 93.805 177.058 C 140.182 194.599 188.156 155.358 180.158 106.424 C 179.158 100.301 177.277 94.354 174.575 88.768 C 173.039 85.564 168.795 84.842 166.285 87.358 L 154.645 98.918 C 153.384 100.178 152.865 102.002 153.275 103.738 L 154.275 107.918 C 161.079 136.867 133.993 162.324 105.521 153.742 C 102.735 152.902 100.053 151.75 97.525 150.308 L 92.395 147.368 C 90.38 146.207 87.835 146.548 86.195 148.198 L 38.685 195.698 C 36.484 197.899 36.724 201.535 39.195 203.428 L 46.195 208.798 C 66.382 224.355 91.17 232.755 116.655 232.678 C 205.574 232.564 261.307 136.562 217.315 59.288 Z"
    style="fill: url(#linear-gradient);"></path>
  <path class="cls-2"
    d="M 187.095 24.738 C 166.911 9.176 142.123 0.771 116.635 0.848 C 27.665 0.917 -28.11 96.991 15.945 174.288 L 20.945 183.058 C 22.634 186.005 26.66 186.546 29.065 184.148 L 40.545 172.668 C 42.266 170.924 42.533 168.214 41.185 166.168 C 36.988 159.762 33.628 152.846 31.185 145.588 C 11.492 87.139 54.958 26.607 116.635 26.588 C 131.371 26.555 145.886 30.169 158.885 37.108 L 139.425 56.558 C 97.289 40.588 52.202 71.726 52.215 116.788 C 52.215 117.858 52.505 122.738 52.595 123.578 C 53.384 130.964 55.437 138.159 58.665 144.848 C 60.207 148.052 64.452 148.773 66.965 146.258 L 78.605 134.608 C 79.866 133.351 80.388 131.532 79.985 129.798 L 78.985 125.608 C 72.176 96.669 99.247 71.21 127.714 79.782 C 130.51 80.624 133.201 81.78 135.735 83.228 L 140.865 86.168 C 142.883 87.318 145.421 86.979 147.065 85.338 L 194.565 37.838 C 196.77 35.636 196.535 31.998 194.065 30.098 L 187.095 24.738 Z"
    style="fill: url(#linear-gradient-2);"></path>
</svg>