<svg xmlns="http://www.w3.org/2000/svg" width="400" height="400" viewBox="40 50 320 320" version="1.1">
  <path
    d="M 95.500 129.138 C 94.400 129.793, 93.169 130.818, 92.765 131.415 C 92.361 132.012, 92.024 146.338, 92.015 163.250 L 92 194 67.500 194 L 43 194 43 225 L 43 256 74 256 L 105 256 105 231.864 L 105 207.728 109.396 208.331 C 120.004 209.785, 131.281 217.351, 140.921 229.481 C 152.410 243.939, 154.602 246.291, 163.729 253.947 C 196.135 281.136, 222.173 275.506, 255.983 234 C 260.239 228.775, 266.046 222.333, 268.887 219.685 C 274.814 214.161, 284.400 209.318, 291.273 208.376 L 296 207.728 296 231.864 L 296 256 327 256 L 358 256 358 225 L 358 194 333.500 194 L 309 194 309 163.455 L 309 132.909 306.545 130.455 C 303.747 127.656, 301.691 127.503, 287 129.007 C 271.637 130.579, 258.425 134.163, 244.219 140.610 C 230.750 146.723, 213.709 159.226, 204.448 169.792 L 200.738 174.024 192.619 166.257 C 167.679 142.397, 141.307 130.787, 107 128.563 C 100.430 128.137, 96.883 128.315, 95.500 129.138 M 105 167.578 C 105 187.929, 105.290 194.137, 106.250 194.382 C 106.938 194.558, 110.650 195.450, 114.500 196.365 C 129.298 199.880, 141.703 208.860, 153.954 224.926 C 165.646 240.260, 180.893 252.668, 192.804 256.541 C 207.804 261.418, 225.826 251.149, 245.433 226.551 L 250.175 220.602 243.491 219.251 C 224.533 215.419, 207.474 204.149, 192.554 185.599 C 171.700 159.672, 144.393 145.082, 110.250 141.626 L 105 141.094 105 167.578 M 285.906 142.072 C 259.944 144.827, 234.430 157.461, 215.750 176.813 C 212.037 180.659, 209 184.263, 209 184.822 C 209 186.462, 223.726 197.833, 229.861 200.929 C 238.467 205.272, 245.495 207, 254.560 207 C 262.155 207, 263.185 206.743, 268.569 203.501 C 275.769 199.165, 283.602 196.185, 290.347 195.215 L 295.500 194.473 295.766 167.737 C 295.977 146.635, 295.766 141.028, 294.766 141.133 C 294.070 141.206, 290.083 141.629, 285.906 142.072 M 55.227 224.750 L 55.500 242.500 73.750 242.773 L 92 243.045 92 225.023 L 92 207 73.477 207 L 54.954 207 55.227 224.750 M 309 225 L 309 243 327 243 L 345 243 345 225 L 345 207 327 207 L 309 207 309 225"
    stroke="none" fill="#68f4cf" fill-rule="evenodd" />
</svg>