<svg version="1.1" id="Layer_1" xmlns="http://www.w3.org/2000/svg" xmlns:xlink="http://www.w3.org/1999/xlink" x="0px"
  y="0px" width="100%" viewBox="0 0 144 145" enable-background="new 0 0 144 145" xml:space="preserve">
  <circle cx="72" cy="72.5" r="72" fill="#000000" opacity="0.4" />
  <path fill="#ffffff" stroke="none"
    d=" M116.688797,62.000671  C116.688797,76.332481 116.703346,90.164467 116.671234,103.996361  C116.667007,105.818726 116.649269,107.691750 116.248299,109.452621  C115.212418,114.001724 111.609283,116.456306 107.033302,115.978439  C102.855316,115.542122 99.898117,112.457764 99.855103,107.867203  C99.736412,95.202896 99.810410,82.536774 99.808563,69.871368  C99.807953,65.708206 99.808464,61.545040 99.808464,56.412621  C93.750374,59.691944 88.166382,62.695358 82.600952,65.732773  C77.213181,68.673233 71.786819,71.549820 66.486908,74.642136  C62.701950,76.850517 59.244175,76.630089 55.857056,74.000893  C51.158810,70.353935 46.478466,66.683907 40.981400,62.392090  C40.981400,72.754128 40.982006,82.298950 40.981201,91.843765  C40.980572,99.331818 38.949032,102.632317 34.407627,102.527786  C30.197580,102.430870 28.183371,98.993828 28.183077,91.901962  C28.182520,78.403305 27.993334,64.899773 28.339436,51.410000  C28.410496,48.640236 29.793884,44.635723 31.830202,43.541821  C33.863350,42.449623 37.943653,43.538982 40.303562,45.000614  C46.505981,48.842144 52.380512,53.253090 58.140091,57.751614  C60.769245,59.805122 62.678097,59.793941 65.504822,58.094673  C77.447678,50.915298 89.824860,44.425816 101.506081,36.855267  C109.330254,31.784452 117.045090,38.423389 116.734505,45.504612  C116.501060,50.827110 116.688644,56.168076 116.688797,62.000671 z" />
</svg>