<svg
  version="1.1"
  id="Layer_1"
  xmlns="http://www.w3.org/2000/svg"
  xmlns:xlink="http://www.w3.org/1999/xlink"
  x="0px"
  y="0px"
  width="100%"
  viewBox="0 0 1370 1370"
  enable-background="new 0 0 1370 1370"
  xml:space="preserve"
>
  <path
    fill="#000000"
    opacity="1.000000"
    stroke="none"
    d="
M1371.000000,701.000000 
	C1371.000000,924.316650 1371.000000,1147.633301 1371.000000,1370.974976 
	C914.384155,1370.974976 457.768311,1370.974976 1.076239,1370.974976 
	C1.076239,914.418274 1.076239,457.836578 1.076239,1.127439 
	C457.547546,1.127439 914.095093,1.127439 1371.000000,1.127439 
	C1371.000000,224.030792 1371.000000,447.061798 1370.531372,670.546387 
	C1286.079468,671.000000 1202.096191,671.000000 1118.112915,671.000000 
	C1015.799866,671.000000 913.486877,671.008423 811.173828,670.948303 
	C808.793579,670.946899 806.413757,670.173279 804.802490,669.893433 
	C805.796631,665.437439 806.540283,662.104248 807.281982,658.779846 
	C805.739563,658.068115 804.484436,657.488953 804.168030,657.342957 
	C803.755066,649.638245 804.211670,642.508911 802.721313,635.813049 
	C801.714966,631.291382 798.648804,627.262390 800.819519,622.955933 
	C795.560486,620.625916 795.245300,615.562927 793.471191,611.646912 
	C793.036438,610.687134 794.379333,608.922058 794.592834,608.355408 
	C793.041077,606.395813 792.097656,604.379517 790.513000,603.388306 
	C787.849121,601.722046 787.761597,602.003662 787.942871,599.960144 
	C788.018799,599.104797 787.853943,598.098755 787.442749,597.359009 
	C786.783813,596.173706 785.342102,595.256287 785.084900,594.044495 
	C784.080322,589.311340 778.319336,584.592224 775.599487,585.193420 
	C773.963318,582.749451 772.956238,579.457153 771.221680,579.014160 
	C767.205383,577.988525 766.138977,573.695435 762.059692,572.543884 
	C758.378113,571.504639 755.400879,567.970337 751.037964,564.740540 
	C751.224060,564.940186 750.552734,563.664185 749.607666,563.411255 
	C749.028381,563.256287 748.029419,564.669800 747.197327,565.397766 
	C746.809937,560.786682 744.357544,559.777649 740.216858,562.227600 
	C740.064697,560.598450 739.962585,559.505127 739.882629,558.648987 
	C737.247864,558.778198 734.713196,558.902527 731.588623,559.055786 
	C727.493530,555.026245 727.489807,555.132446 721.079468,554.908142 
	C718.197083,554.807312 714.708496,555.097046 712.574402,553.634460 
	C705.372925,548.699341 697.729431,552.505981 690.381653,551.663269 
	C688.737244,551.474670 687.052856,551.635620 685.167847,551.635620 
	C685.162048,551.667175 685.114807,552.149109 684.977417,552.603760 
	C684.878784,552.930359 684.659851,553.220581 684.470520,553.571594 
	C680.434631,550.048218 671.911133,550.201660 670.740295,553.219727 
	C669.317505,552.573059 667.924866,551.459167 666.498352,551.414062 
	C664.738831,551.358398 662.951233,552.192017 661.070557,552.667969 
	C661.121338,552.940002 660.993225,551.530579 660.838135,551.527649 
	C654.987793,551.415588 649.135071,551.432922 642.630737,551.432922 
	C643.480957,552.724487 643.758850,553.108643 643.995361,553.516785 
	C644.227844,553.917969 644.418335,554.343567 644.778137,555.058167 
	C633.838196,552.500671 628.494690,553.716309 627.813416,558.356262 
	C625.104980,558.228699 622.479431,558.104980 618.808655,557.932007 
	C618.588928,558.392761 617.857971,559.925720 617.127014,561.458679 
	C616.825195,561.135681 616.523376,560.812622 616.221558,560.489624 
	C614.202209,562.161255 612.182922,563.832947 610.227173,565.451965 
	C610.080383,564.898987 609.878357,564.137634 609.649841,563.276550 
	C608.081482,565.930420 607.334473,569.932617 602.891479,566.601318 
	C602.567749,566.358521 600.993164,567.662598 600.084473,568.357788 
	C599.304382,568.954529 598.736938,570.095947 597.908203,570.292908 
	C596.945068,570.521851 595.799683,569.984070 594.733398,569.779053 
	C594.733398,571.069763 594.733398,572.360474 594.733398,573.199341 
	C592.639282,574.397400 590.335876,575.056702 589.070251,576.578857 
	C586.578552,579.575745 582.298584,581.225647 581.843079,585.910767 
	C581.778625,586.573669 580.138000,587.124573 579.183594,587.648499 
	C578.141663,588.220398 576.144470,588.663757 576.121643,589.226440 
	C575.929749,593.941650 567.463623,593.566528 569.813477,599.646912 
	C569.511230,599.759521 569.160522,599.808167 568.914429,599.994812 
	C566.965698,601.473267 565.036926,602.978088 563.108826,604.469421 
	C564.533325,607.425171 563.878235,610.070190 561.540466,612.237732 
	C560.946655,612.788330 560.921021,614.015015 560.757324,614.952454 
	C560.450256,616.711426 560.422791,618.541138 559.929382,620.239929 
	C559.336914,622.279541 558.379333,624.213196 557.579834,626.192688 
	C557.983093,626.474731 558.386414,626.756836 558.789673,627.038879 
	C557.423462,627.768677 556.057312,628.498535 554.268799,629.453979 
	C554.352478,633.694946 554.975281,639.087280 552.112000,644.448120 
	C552.108521,644.445557 552.914978,645.031067 553.800964,645.674316 
	C552.942749,646.388428 551.611389,646.948120 551.495117,647.696594 
	C551.156189,649.877563 552.706909,651.917664 551.473022,654.447937 
	C550.665710,656.103516 551.730286,658.595398 551.654602,660.701843 
	C551.533630,664.070251 551.161804,667.429626 550.873047,671.083313 
	C371.186951,671.083313 191.779648,671.083313 12.000436,671.083313 
	C12.000436,678.880371 11.699488,686.376526 12.086734,693.836975 
	C12.459387,701.016235 12.772122,701.000000 20.644249,701.000000 
	C195.609558,701.000000 370.574860,701.000000 545.540161,701.000122 
	C546.873230,701.000122 548.339111,700.653870 549.503967,701.097351 
	C550.812683,701.595581 554.065613,701.848145 551.073486,704.546326 
	C553.172668,706.640198 548.643372,710.730347 553.391602,712.427368 
	C553.748657,712.554993 557.041321,716.610229 554.597351,720.420288 
	C553.277161,722.478394 554.287598,728.539917 556.119690,729.620850 
	C560.805908,732.385803 559.416321,736.627319 560.234314,740.167542 
	C560.944885,743.242493 559.985107,746.848389 565.254028,746.226440 
	C564.475891,747.994019 563.894104,749.315369 563.260254,750.755066 
	C564.522583,750.932678 565.724182,751.101807 567.138611,751.300903 
	C566.918518,753.320740 566.733826,755.015808 566.516174,757.013245 
	C567.574219,756.649414 568.554565,756.312256 568.952332,756.175476 
	C570.016663,758.063599 570.994812,759.681824 571.855652,761.360291 
	C572.656006,762.920776 573.331421,764.545349 574.138000,766.308167 
	C573.803650,766.472961 574.364441,766.196533 575.130371,766.094604 
	C575.482117,766.372620 575.628784,766.476135 575.565674,766.853149 
	C575.991333,768.095947 576.479187,769.216370 577.288940,770.007141 
	C580.127930,772.779846 583.641113,775.058533 585.805969,778.262695 
	C587.514221,780.791077 589.219604,781.913086 592.022888,782.594910 
	C594.778320,783.265076 597.317627,784.823792 599.951843,785.992554 
	C599.749939,786.289856 599.548096,786.587219 599.346191,786.884583 
	C598.602844,786.740662 597.859497,786.596741 597.116150,786.452820 
	C597.150513,787.054016 597.184814,787.655212 597.219177,788.256409 
	C599.024048,788.008484 600.828857,787.760620 602.673157,787.507324 
	C603.401733,788.709595 604.475708,791.043945 606.089355,792.912170 
	C606.920532,793.874695 608.712585,794.006348 610.069763,794.515625 
	C612.271301,795.341797 614.522339,796.948792 616.661377,796.810913 
	C619.731628,796.613098 621.411621,797.538513 622.709229,800.094116 
	C622.929016,800.526917 624.044678,800.648193 624.751404,800.662170 
	C626.514282,800.697388 628.575806,799.966614 629.994629,800.641846 
	C637.019592,803.985046 644.224182,804.264404 651.754150,803.149658 
	C653.673462,802.865540 657.385010,803.686462 657.576782,804.578918 
	C658.575684,809.228394 662.552734,807.309998 663.816162,806.734680 
	C667.144531,805.219238 669.876221,806.160828 672.938293,806.880371 
	C674.465515,807.239258 676.198059,806.843628 677.821228,806.650269 
	C681.096069,806.260010 684.359619,805.774841 688.067627,805.268799 
	C687.161438,805.934387 686.688171,806.281982 686.214966,806.629578 
	C690.501160,806.692383 694.546570,805.872559 698.580872,805.001221 
	C708.598511,802.837463 719.347351,805.321655 728.928223,800.145996 
	C730.214661,799.450928 732.162415,800.094055 733.651306,799.628906 
	C735.312744,799.109802 737.230896,796.956543 738.289917,797.380676 
	C743.470764,799.455383 742.918579,796.118347 742.715942,792.872192 
	C742.989502,793.140747 745.821106,793.031311 746.099365,793.027893 
	C750.215393,792.976868 753.648926,791.721680 756.104980,788.111389 
	C756.500427,787.530151 758.279358,787.890076 759.911743,787.782410 
	C760.204102,786.918396 760.803772,785.146179 761.367920,783.478943 
	C762.150208,784.096069 762.743652,784.564270 764.017273,785.569031 
	C763.207458,783.527588 762.762329,782.405579 762.464600,781.655029 
	C765.398438,780.785095 768.303040,779.923828 770.012878,779.416809 
	C772.686707,777.734863 774.656372,776.892151 776.070740,775.489502 
	C777.363220,774.207642 778.205200,772.385681 778.952881,770.673828 
	C779.377930,769.700684 779.140076,768.455811 779.358398,767.364868 
	C779.435547,766.978943 779.980225,766.686646 780.311462,766.351562 
	C783.841064,763.401367 788.322571,761.532410 789.111267,755.610840 
	C789.328247,753.981934 790.838135,752.525330 792.035522,750.519226 
	C791.932495,750.305603 791.347046,749.091553 791.294434,748.982483 
	C792.951050,748.002869 794.869263,747.342102 794.833679,746.812683 
	C794.605103,743.412903 796.313965,740.719543 797.655090,737.921509 
	C799.634521,733.791992 801.362000,729.698303 801.088135,724.927917 
	C800.987061,723.167786 801.917969,721.356262 802.327087,719.556641 
	C802.734497,717.764221 803.078003,715.957275 803.228027,715.230103 
	C803.573059,711.938049 804.031128,709.889404 803.935364,707.867065 
	C803.826965,705.580566 803.221375,703.317688 802.824402,701.000000 
	C992.174500,701.000000 1181.587280,701.000000 1371.000000,701.000000 
M1065.529907,1021.980774 
	C1139.489380,937.045593 1181.512329,838.625671 1191.232544,727.019714 
	C1187.694824,726.627747 1185.008179,725.990173 1182.355347,726.108704 
	C1177.230591,726.337524 1172.126221,727.005615 1167.010132,727.455566 
	C1166.372559,727.511658 1165.578613,727.563904 1165.090454,727.252319 
	C1162.296387,725.468506 1160.644043,726.756287 1160.077148,729.402405 
	C1159.431274,732.416565 1159.379272,735.553955 1158.991821,738.628113 
	C1157.669189,749.121887 1156.994629,759.755249 1154.818604,770.070740 
	C1150.968872,788.319153 1147.042358,806.630188 1141.619385,824.449768 
	C1132.977173,852.847778 1121.984863,880.394470 1107.862793,906.623657 
	C1097.460693,925.943848 1085.891357,944.471558 1073.331543,962.482361 
	C1058.684326,983.486755 1041.966553,1002.683716 1024.253540,1021.009460 
	C1014.554749,1031.043823 1003.876038,1040.188599 993.169861,1049.175415 
	C982.099976,1058.467529 970.795593,1067.555298 958.999084,1075.890625 
	C937.436340,1091.126465 914.842346,1104.753052 890.729553,1115.634521 
	C876.561890,1122.027954 862.404175,1128.586548 847.797058,1133.831787 
	C821.282104,1143.352783 794.212891,1151.186768 766.194397,1154.949829 
	C746.164368,1157.640137 726.096069,1160.449341 705.950928,1161.744263 
	C690.949402,1162.708740 675.784424,1161.615601 660.716980,1160.910278 
	C649.111938,1160.367065 637.477356,1159.488647 625.978333,1157.883179 
	C610.280884,1155.691528 594.561035,1153.293823 579.096497,1149.873657 
	C543.878357,1142.085205 509.992188,1130.164429 477.695770,1114.097290 
	C463.608368,1107.088867 450.047333,1098.988892 436.444458,1091.046753 
	C405.927582,1073.229614 378.783325,1050.963623 353.315948,1026.645996 
	C344.501617,1018.229492 336.288879,1009.109436 328.438385,999.775024 
	C317.337585,986.575806 306.108765,973.384155 296.216217,959.289795 
	C276.044250,930.549988 258.555786,900.146973 245.920242,867.298523 
	C238.508728,848.030823 232.008606,828.361267 226.142197,808.563232 
	C218.535538,782.892334 214.403549,756.484253 211.872635,729.827271 
	C211.743271,728.464600 209.144684,726.023193 208.799271,726.203064 
	C206.170258,727.572144 203.685196,726.193542 201.180862,726.306946 
	C196.480499,726.519775 191.757965,727.144531 187.086655,726.873718 
	C181.006332,726.521179 180.163757,727.110535 180.996490,732.730652 
	C182.401443,742.212708 183.528778,751.737427 185.034531,761.202576 
	C186.966690,773.348267 188.373703,785.653442 191.415176,797.529297 
	C196.345840,816.781616 201.952194,835.894287 208.136276,854.783386 
	C215.427444,877.054138 225.166122,898.340942 235.953934,919.167969 
	C247.684158,941.814575 260.673828,963.701172 276.131378,983.947388 
	C288.793304,1000.531982 301.808105,1016.983643 316.083099,1032.161865 
	C330.427826,1047.414307 346.256836,1061.320679 361.950623,1075.235718 
	C371.530609,1083.729980 381.677887,1091.729370 392.294128,1098.875732 
	C408.032013,1109.469849 424.224426,1119.427490 440.563934,1129.079468 
	C463.019440,1142.344482 486.743835,1153.111084 511.266815,1161.898438 
	C548.550354,1175.257935 586.701233,1185.270752 626.282471,1188.975708 
	C642.271606,1190.472412 658.269226,1192.082397 674.300842,1192.848389 
	C684.347229,1193.328613 694.470032,1192.456055 704.547729,1191.967163 
	C715.224243,1191.449463 725.919434,1190.983398 736.549133,1189.920776 
	C749.988586,1188.577271 763.513123,1187.391479 776.746277,1184.824585 
	C802.933960,1179.744873 828.758545,1173.212646 853.957458,1164.157593 
	C876.032349,1156.225220 897.781250,1147.639893 918.248108,1136.192261 
	C936.194214,1126.154541 954.124817,1115.988647 971.343933,1104.776123 
	C993.776367,1090.168945 1014.474487,1073.166626 1033.771729,1054.595459 
	C1044.526367,1044.245361 1054.620117,1033.208374 1065.529907,1021.980774 
M339.004669,316.493042 
	C317.742218,336.953064 297.818817,358.600311 280.170837,382.302032 
	C265.323486,402.242462 251.677872,422.974762 240.120010,444.966827 
	C232.200989,460.034973 224.957870,475.491119 218.119858,491.083954 
	C212.852219,503.095886 208.086380,515.403564 204.180191,527.917664 
	C199.304367,543.538269 195.166000,559.417847 191.419266,575.352539 
	C188.684631,586.982788 187.015991,598.869080 185.032867,610.668274 
	C184.008835,616.761047 183.655090,622.978394 182.417007,629.020264 
	C181.050903,635.686829 182.415314,637.294067 189.495270,637.080566 
	C194.715820,636.923218 199.965439,637.342773 205.186600,637.719971 
	C209.131805,638.004944 212.515182,635.813110 212.996811,632.297607 
	C213.327484,629.883850 213.594727,627.458923 214.009415,625.059570 
	C216.654190,609.757568 218.813095,594.348633 222.103287,579.185730 
	C229.757477,543.911438 241.556305,509.932373 257.936798,477.809631 
	C268.286530,457.513428 280.008911,437.835205 292.270569,418.616669 
	C307.581299,394.618988 326.138153,373.015228 346.026062,352.695038 
	C356.607819,341.883240 368.053925,331.865356 379.594147,322.059021 
	C390.239075,313.013519 401.141235,304.166565 412.614777,296.220856 
	C441.484436,276.227905 471.768311,258.554657 504.643738,245.968414 
	C524.072815,238.530075 543.940918,232.145447 563.859985,226.105942 
	C584.310181,219.905380 605.295288,215.908279 626.624023,213.991547 
	C641.790894,212.628555 656.941467,210.739380 672.139832,210.175690 
	C685.694397,209.672974 699.310791,210.508804 712.888000,211.051636 
	C723.067261,211.458603 733.339600,211.614487 743.371826,213.166306 
	C761.248962,215.931671 779.077698,219.206146 796.743896,223.097427 
	C830.572144,230.548660 862.925659,242.494431 893.992981,257.679077 
	C908.270630,264.657471 921.906555,272.983154 935.653687,281.005859 
	C966.472107,298.991241 993.859985,321.503143 1019.443054,346.177185 
	C1029.967529,356.327667 1039.563477,367.498718 1049.027100,378.675171 
	C1058.374023,389.713654 1067.592041,400.947021 1075.850464,412.802612 
	C1091.113403,434.713501 1105.068970,457.487061 1115.939819,481.962097 
	C1122.247559,496.163513 1128.980957,510.289673 1133.792236,525.015137 
	C1140.963257,546.961975 1147.143677,569.275208 1152.689941,591.693665 
	C1155.870728,604.550659 1157.147583,617.899292 1158.906494,631.076599 
	C1159.568970,636.038818 1161.987549,637.936096 1167.332520,637.381775 
	C1171.836914,636.914673 1176.489502,637.018738 1180.989380,637.574829 
	C1186.982910,638.315552 1190.898315,635.232422 1189.992554,629.967896 
	C1188.893677,623.580139 1188.100830,617.139404 1186.978027,610.756287 
	C1184.597290,597.223389 1182.807495,583.531799 1179.455688,570.237976 
	C1174.951172,552.372070 1170.187622,534.450317 1163.732544,517.228149 
	C1155.762207,495.963287 1146.495605,475.129608 1136.773315,454.590454 
	C1125.589600,430.963989 1111.692139,408.789124 1095.864014,388.005737 
	C1083.320557,371.535309 1070.410278,355.204132 1056.237061,340.153961 
	C1041.766846,324.788452 1025.826538,310.757568 1010.009338,296.729248 
	C1000.432800,288.235779 990.267334,280.263123 979.652283,273.117432 
	C963.911743,262.521393 947.732849,252.535690 931.385986,242.891052 
	C908.924683,229.638885 885.200989,218.877167 860.673462,210.089996 
	C823.383423,196.730637 785.235962,186.690582 745.647095,183.035095 
	C728.663574,181.466919 711.659668,179.787979 694.628418,179.170242 
	C680.739685,178.666473 666.796448,179.666962 652.877380,179.999329 
	C652.377625,180.011261 651.871765,179.963593 651.378540,180.023590 
	C637.794312,181.675812 624.176697,183.100052 610.638489,185.070038 
	C598.473755,186.840149 586.202026,188.451492 574.324829,191.490448 
	C555.069946,196.417160 535.700073,201.382233 517.112122,208.301422 
	C495.230072,216.446838 473.871613,226.148697 452.760101,236.173828 
	C429.736816,247.106766 408.137421,260.716797 387.883301,276.156036 
	C371.282135,288.810699 355.598907,302.669525 339.004669,316.493042 
z"
  />
  <path
    fill="#FFFFFF"
    opacity="1.000000"
    stroke="none"
    d="
M574.925171,765.920166 
	C574.364441,766.196533 573.803650,766.472961 574.138000,766.308167 
	C573.331421,764.545349 572.656006,762.920776 571.855652,761.360291 
	C570.994812,759.681824 570.016663,758.063599 568.952332,756.175476 
	C568.554565,756.312256 567.574219,756.649414 566.516174,757.013245 
	C566.733826,755.015808 566.918518,753.320740 567.138611,751.300903 
	C565.724182,751.101807 564.522583,750.932678 563.260254,750.755066 
	C563.894104,749.315369 564.475891,747.994019 565.254028,746.226440 
	C559.985107,746.848389 560.944885,743.242493 560.234314,740.167542 
	C559.416321,736.627319 560.805908,732.385803 556.119690,729.620850 
	C554.287598,728.539917 553.277161,722.478394 554.597351,720.420288 
	C557.041321,716.610229 553.748657,712.554993 553.391602,712.427368 
	C548.643372,710.730347 553.172668,706.640198 551.073486,704.546326 
	C554.065613,701.848145 550.812683,701.595581 549.503967,701.097351 
	C548.339111,700.653870 546.873230,701.000122 545.540161,701.000122 
	C370.574860,701.000000 195.609558,701.000000 20.644249,701.000000 
	C12.772122,701.000000 12.459387,701.016235 12.086734,693.836975 
	C11.699488,686.376526 12.000436,678.880371 12.000436,671.083313 
	C191.779648,671.083313 371.186951,671.083313 550.873047,671.083313 
	C551.161804,667.429626 551.533630,664.070251 551.654602,660.701843 
	C551.730286,658.595398 550.665710,656.103516 551.473022,654.447937 
	C552.706909,651.917664 551.156189,649.877563 551.495117,647.696594 
	C551.611389,646.948120 552.942749,646.388428 553.800964,645.674316 
	C552.914978,645.031067 552.108521,644.445557 552.112000,644.448120 
	C554.975281,639.087280 554.352478,633.694946 554.268799,629.453979 
	C556.057312,628.498535 557.423462,627.768677 558.789673,627.038879 
	C558.386414,626.756836 557.983093,626.474731 557.579834,626.192688 
	C558.379333,624.213196 559.336914,622.279541 559.929382,620.239929 
	C560.422791,618.541138 560.450256,616.711426 560.757324,614.952454 
	C560.921021,614.015015 560.946655,612.788330 561.540466,612.237732 
	C563.878235,610.070190 564.533325,607.425171 563.108826,604.469421 
	C565.036926,602.978088 566.965698,601.473267 568.914429,599.994812 
	C569.160522,599.808167 569.511230,599.759521 569.813477,599.646912 
	C567.463623,593.566528 575.929749,593.941650 576.121643,589.226440 
	C576.144470,588.663757 578.141663,588.220398 579.183594,587.648499 
	C580.138000,587.124573 581.778625,586.573669 581.843079,585.910767 
	C582.298584,581.225647 586.578552,579.575745 589.070251,576.578857 
	C590.335876,575.056702 592.639282,574.397400 594.733398,573.199341 
	C594.733398,572.360474 594.733398,571.069763 594.733398,569.779053 
	C595.799683,569.984070 596.945068,570.521851 597.908203,570.292908 
	C598.736938,570.095947 599.304382,568.954529 600.084473,568.357788 
	C600.993164,567.662598 602.567749,566.358521 602.891479,566.601318 
	C607.334473,569.932617 608.081482,565.930420 609.649841,563.276550 
	C609.878357,564.137634 610.080383,564.898987 610.227173,565.451965 
	C612.182922,563.832947 614.202209,562.161255 616.221558,560.489624 
	C616.523376,560.812622 616.825195,561.135681 617.127014,561.458679 
	C617.857971,559.925720 618.588928,558.392761 618.808655,557.932007 
	C622.479431,558.104980 625.104980,558.228699 627.813416,558.356262 
	C628.494690,553.716309 633.838196,552.500671 644.778137,555.058167 
	C644.418335,554.343567 644.227844,553.917969 643.995361,553.516785 
	C643.758850,553.108643 643.480957,552.724487 642.630737,551.432922 
	C649.135071,551.432922 654.987793,551.415588 660.838135,551.527649 
	C660.993225,551.530579 661.121338,552.940002 661.070557,552.667969 
	C662.951233,552.192017 664.738831,551.358398 666.498352,551.414062 
	C667.924866,551.459167 669.317505,552.573059 670.740295,553.219727 
	C671.911133,550.201660 680.434631,550.048218 684.470520,553.571594 
	C684.659851,553.220581 684.878784,552.930359 684.977417,552.603760 
	C685.114807,552.149109 685.162048,551.667175 685.167847,551.635620 
	C687.052856,551.635620 688.737244,551.474670 690.381653,551.663269 
	C697.729431,552.505981 705.372925,548.699341 712.574402,553.634460 
	C714.708496,555.097046 718.197083,554.807312 721.079468,554.908142 
	C727.489807,555.132446 727.493530,555.026245 731.588623,559.055786 
	C734.713196,558.902527 737.247864,558.778198 739.882629,558.648987 
	C739.962585,559.505127 740.064697,560.598450 740.216858,562.227600 
	C744.357544,559.777649 746.809937,560.786682 747.197327,565.397766 
	C748.029419,564.669800 749.028381,563.256287 749.607666,563.411255 
	C750.552734,563.664185 751.224060,564.940186 751.037964,564.740540 
	C755.400879,567.970337 758.378113,571.504639 762.059692,572.543884 
	C766.138977,573.695435 767.205383,577.988525 771.221680,579.014160 
	C772.956238,579.457153 773.963318,582.749451 775.599487,585.193420 
	C778.319336,584.592224 784.080322,589.311340 785.084900,594.044495 
	C785.342102,595.256287 786.783813,596.173706 787.442749,597.359009 
	C787.853943,598.098755 788.018799,599.104797 787.942871,599.960144 
	C787.761597,602.003662 787.849121,601.722046 790.513000,603.388306 
	C792.097656,604.379517 793.041077,606.395813 794.592834,608.355408 
	C794.379333,608.922058 793.036438,610.687134 793.471191,611.646912 
	C795.245300,615.562927 795.560486,620.625916 800.819519,622.955933 
	C798.648804,627.262390 801.714966,631.291382 802.721313,635.813049 
	C804.211670,642.508911 803.755066,649.638245 804.168030,657.342957 
	C804.484436,657.488953 805.739563,658.068115 807.281982,658.779846 
	C806.540283,662.104248 805.796631,665.437439 804.802490,669.893433 
	C806.413757,670.173279 808.793579,670.946899 811.173828,670.948303 
	C913.486877,671.008423 1015.799866,671.000000 1118.112915,671.000000 
	C1202.096191,671.000000 1286.079468,671.000000 1370.531372,671.000000 
	C1371.000000,680.687561 1371.000000,690.375122 1371.000000,700.531372 
	C1181.587280,701.000000 992.174500,701.000000 802.824402,701.000000 
	C803.221375,703.317688 803.826965,705.580566 803.935364,707.867065 
	C804.031128,709.889404 803.573059,711.938049 803.228027,715.230103 
	C803.078003,715.957275 802.734497,717.764221 802.327087,719.556641 
	C801.917969,721.356262 800.987061,723.167786 801.088135,724.927917 
	C801.362000,729.698303 799.634521,733.791992 797.655090,737.921509 
	C796.313965,740.719543 794.605103,743.412903 794.833679,746.812683 
	C794.869263,747.342102 792.951050,748.002869 791.294434,748.982483 
	C791.347046,749.091553 791.932495,750.305603 792.035522,750.519226 
	C790.838135,752.525330 789.328247,753.981934 789.111267,755.610840 
	C788.322571,761.532410 783.841064,763.401367 780.311462,766.351562 
	C779.980225,766.686646 779.435547,766.978943 779.358398,767.364868 
	C779.140076,768.455811 779.377930,769.700684 778.952881,770.673828 
	C778.205200,772.385681 777.363220,774.207642 776.070740,775.489502 
	C774.656372,776.892151 772.686707,777.734863 770.012878,779.416809 
	C768.303040,779.923828 765.398438,780.785095 762.464600,781.655029 
	C762.762329,782.405579 763.207458,783.527588 764.017273,785.569031 
	C762.743652,784.564270 762.150208,784.096069 761.367920,783.478943 
	C760.803772,785.146179 760.204102,786.918396 759.911743,787.782410 
	C758.279358,787.890076 756.500427,787.530151 756.104980,788.111389 
	C753.648926,791.721680 750.215393,792.976868 746.099365,793.027893 
	C745.821106,793.031311 742.989502,793.140747 742.715942,792.872192 
	C742.918579,796.118347 743.470764,799.455383 738.289917,797.380676 
	C737.230896,796.956543 735.312744,799.109802 733.651306,799.628906 
	C732.162415,800.094055 730.214661,799.450928 728.928223,800.145996 
	C719.347351,805.321655 708.598511,802.837463 698.580872,805.001221 
	C694.546570,805.872559 690.501160,806.692383 686.214966,806.629578 
	C686.688171,806.281982 687.161438,805.934387 688.067627,805.268799 
	C684.359619,805.774841 681.096069,806.260010 677.821228,806.650269 
	C676.198059,806.843628 674.465515,807.239258 672.938293,806.880371 
	C669.876221,806.160828 667.144531,805.219238 663.816162,806.734680 
	C662.552734,807.309998 658.575684,809.228394 657.576782,804.578918 
	C657.385010,803.686462 653.673462,802.865540 651.754150,803.149658 
	C644.224182,804.264404 637.019592,803.985046 629.994629,800.641846 
	C628.575806,799.966614 626.514282,800.697388 624.751404,800.662170 
	C624.044678,800.648193 622.929016,800.526917 622.709229,800.094116 
	C621.411621,797.538513 619.731628,796.613098 616.661377,796.810913 
	C614.522339,796.948792 612.271301,795.341797 610.069763,794.515625 
	C608.712585,794.006348 606.920532,793.874695 606.089355,792.912170 
	C604.475708,791.043945 603.401733,788.709595 602.673157,787.507324 
	C600.828857,787.760620 599.024048,788.008484 597.219177,788.256409 
	C597.184814,787.655212 597.150513,787.054016 597.116150,786.452820 
	C597.859497,786.596741 598.602844,786.740662 599.346191,786.884583 
	C599.548096,786.587219 599.749939,786.289856 599.951843,785.992554 
	C597.317627,784.823792 594.778320,783.265076 592.022888,782.594910 
	C589.219604,781.913086 587.514221,780.791077 585.805969,778.262695 
	C583.641113,775.058533 580.127930,772.779846 577.288940,770.007141 
	C576.479187,769.216370 575.991333,768.095947 575.788513,766.661926 
	C576.352844,765.861877 576.484497,765.526489 576.616211,765.191162 
	C576.052551,765.434204 575.488892,765.677185 574.925171,765.920166 
z"
  />
  <path
    fill="#FFFFFF"
    opacity="1.000000"
    stroke="none"
    d="
M1065.270752,1022.230835 
	C1054.620117,1033.208374 1044.526367,1044.245361 1033.771729,1054.595459 
	C1014.474487,1073.166626 993.776367,1090.168945 971.343933,1104.776123 
	C954.124817,1115.988647 936.194214,1126.154541 918.248108,1136.192261 
	C897.781250,1147.639893 876.032349,1156.225220 853.957458,1164.157593 
	C828.758545,1173.212646 802.933960,1179.744873 776.746277,1184.824585 
	C763.513123,1187.391479 749.988586,1188.577271 736.549133,1189.920776 
	C725.919434,1190.983398 715.224243,1191.449463 704.547729,1191.967163 
	C694.470032,1192.456055 684.347229,1193.328613 674.300842,1192.848389 
	C658.269226,1192.082397 642.271606,1190.472412 626.282471,1188.975708 
	C586.701233,1185.270752 548.550354,1175.257935 511.266815,1161.898438 
	C486.743835,1153.111084 463.019440,1142.344482 440.563934,1129.079468 
	C424.224426,1119.427490 408.032013,1109.469849 392.294128,1098.875732 
	C381.677887,1091.729370 371.530609,1083.729980 361.950623,1075.235718 
	C346.256836,1061.320679 330.427826,1047.414307 316.083099,1032.161865 
	C301.808105,1016.983643 288.793304,1000.531982 276.131378,983.947388 
	C260.673828,963.701172 247.684158,941.814575 235.953934,919.167969 
	C225.166122,898.340942 215.427444,877.054138 208.136276,854.783386 
	C201.952194,835.894287 196.345840,816.781616 191.415176,797.529297 
	C188.373703,785.653442 186.966690,773.348267 185.034531,761.202576 
	C183.528778,751.737427 182.401443,742.212708 180.996490,732.730652 
	C180.163757,727.110535 181.006332,726.521179 187.086655,726.873718 
	C191.757965,727.144531 196.480499,726.519775 201.180862,726.306946 
	C203.685196,726.193542 206.170258,727.572144 208.799271,726.203064 
	C209.144684,726.023193 211.743271,728.464600 211.872635,729.827271 
	C214.403549,756.484253 218.535538,782.892334 226.142197,808.563232 
	C232.008606,828.361267 238.508728,848.030823 245.920242,867.298523 
	C258.555786,900.146973 276.044250,930.549988 296.216217,959.289795 
	C306.108765,973.384155 317.337585,986.575806 328.438385,999.775024 
	C336.288879,1009.109436 344.501617,1018.229492 353.315948,1026.645996 
	C378.783325,1050.963623 405.927582,1073.229614 436.444458,1091.046753 
	C450.047333,1098.988892 463.608368,1107.088867 477.695770,1114.097290 
	C509.992188,1130.164429 543.878357,1142.085205 579.096497,1149.873657 
	C594.561035,1153.293823 610.280884,1155.691528 625.978333,1157.883179 
	C637.477356,1159.488647 649.111938,1160.367065 660.716980,1160.910278 
	C675.784424,1161.615601 690.949402,1162.708740 705.950928,1161.744263 
	C726.096069,1160.449341 746.164368,1157.640137 766.194397,1154.949829 
	C794.212891,1151.186768 821.282104,1143.352783 847.797058,1133.831787 
	C862.404175,1128.586548 876.561890,1122.027954 890.729553,1115.634521 
	C914.842346,1104.753052 937.436340,1091.126465 958.999084,1075.890625 
	C970.795593,1067.555298 982.099976,1058.467529 993.169861,1049.175415 
	C1003.876038,1040.188599 1014.554749,1031.043823 1024.253540,1021.009460 
	C1041.966553,1002.683716 1058.684326,983.486755 1073.331543,962.482361 
	C1085.891357,944.471558 1097.460693,925.943848 1107.862793,906.623657 
	C1121.984863,880.394470 1132.977173,852.847778 1141.619385,824.449768 
	C1147.042358,806.630188 1150.968872,788.319153 1154.818604,770.070740 
	C1156.994629,759.755249 1157.669189,749.121887 1158.991821,738.628113 
	C1159.379272,735.553955 1159.431274,732.416565 1160.077148,729.402405 
	C1160.644043,726.756287 1162.296387,725.468506 1165.090454,727.252319 
	C1165.578613,727.563904 1166.372559,727.511658 1167.010132,727.455566 
	C1172.126221,727.005615 1177.230591,726.337524 1182.355347,726.108704 
	C1185.008179,725.990173 1187.694824,726.627747 1191.232544,727.019714 
	C1181.512329,838.625671 1139.489380,937.045593 1065.270752,1022.230835 
z"
  />
  <path
    fill="#FFFFFF"
    opacity="1.000000"
    stroke="none"
    d="
M339.256714,316.243805 
	C355.598907,302.669525 371.282135,288.810699 387.883301,276.156036 
	C408.137421,260.716797 429.736816,247.106766 452.760101,236.173828 
	C473.871613,226.148697 495.230072,216.446838 517.112122,208.301422 
	C535.700073,201.382233 555.069946,196.417160 574.324829,191.490448 
	C586.202026,188.451492 598.473755,186.840149 610.638489,185.070038 
	C624.176697,183.100052 637.794312,181.675812 651.378540,180.023590 
	C651.871765,179.963593 652.377625,180.011261 652.877380,179.999329 
	C666.796448,179.666962 680.739685,178.666473 694.628418,179.170242 
	C711.659668,179.787979 728.663574,181.466919 745.647095,183.035095 
	C785.235962,186.690582 823.383423,196.730637 860.673462,210.089996 
	C885.200989,218.877167 908.924683,229.638885 931.385986,242.891052 
	C947.732849,252.535690 963.911743,262.521393 979.652283,273.117432 
	C990.267334,280.263123 1000.432800,288.235779 1010.009338,296.729248 
	C1025.826538,310.757568 1041.766846,324.788452 1056.237061,340.153961 
	C1070.410278,355.204132 1083.320557,371.535309 1095.864014,388.005737 
	C1111.692139,408.789124 1125.589600,430.963989 1136.773315,454.590454 
	C1146.495605,475.129608 1155.762207,495.963287 1163.732544,517.228149 
	C1170.187622,534.450317 1174.951172,552.372070 1179.455688,570.237976 
	C1182.807495,583.531799 1184.597290,597.223389 1186.978027,610.756287 
	C1188.100830,617.139404 1188.893677,623.580139 1189.992554,629.967896 
	C1190.898315,635.232422 1186.982910,638.315552 1180.989380,637.574829 
	C1176.489502,637.018738 1171.836914,636.914673 1167.332520,637.381775 
	C1161.987549,637.936096 1159.568970,636.038818 1158.906494,631.076599 
	C1157.147583,617.899292 1155.870728,604.550659 1152.689941,591.693665 
	C1147.143677,569.275208 1140.963257,546.961975 1133.792236,525.015137 
	C1128.980957,510.289673 1122.247559,496.163513 1115.939819,481.962097 
	C1105.068970,457.487061 1091.113403,434.713501 1075.850464,412.802612 
	C1067.592041,400.947021 1058.374023,389.713654 1049.027100,378.675171 
	C1039.563477,367.498718 1029.967529,356.327667 1019.443054,346.177185 
	C993.859985,321.503143 966.472107,298.991241 935.653687,281.005859 
	C921.906555,272.983154 908.270630,264.657471 893.992981,257.679077 
	C862.925659,242.494431 830.572144,230.548660 796.743896,223.097427 
	C779.077698,219.206146 761.248962,215.931671 743.371826,213.166306 
	C733.339600,211.614487 723.067261,211.458603 712.888000,211.051636 
	C699.310791,210.508804 685.694397,209.672974 672.139832,210.175690 
	C656.941467,210.739380 641.790894,212.628555 626.624023,213.991547 
	C605.295288,215.908279 584.310181,219.905380 563.859985,226.105942 
	C543.940918,232.145447 524.072815,238.530075 504.643738,245.968414 
	C471.768311,258.554657 441.484436,276.227905 412.614777,296.220856 
	C401.141235,304.166565 390.239075,313.013519 379.594147,322.059021 
	C368.053925,331.865356 356.607819,341.883240 346.026062,352.695038 
	C326.138153,373.015228 307.581299,394.618988 292.270569,418.616669 
	C280.008911,437.835205 268.286530,457.513428 257.936798,477.809631 
	C241.556305,509.932373 229.757477,543.911438 222.103287,579.185730 
	C218.813095,594.348633 216.654190,609.757568 214.009415,625.059570 
	C213.594727,627.458923 213.327484,629.883850 212.996811,632.297607 
	C212.515182,635.813110 209.131805,638.004944 205.186600,637.719971 
	C199.965439,637.342773 194.715820,636.923218 189.495270,637.080566 
	C182.415314,637.294067 181.050903,635.686829 182.417007,629.020264 
	C183.655090,622.978394 184.008835,616.761047 185.032867,610.668274 
	C187.015991,598.869080 188.684631,586.982788 191.419266,575.352539 
	C195.166000,559.417847 199.304367,543.538269 204.180191,527.917664 
	C208.086380,515.403564 212.852219,503.095886 218.119858,491.083954 
	C224.957870,475.491119 232.200989,460.034973 240.120010,444.966827 
	C251.677872,422.974762 265.323486,402.242462 280.170837,382.302032 
	C297.818817,358.600311 317.742218,336.953064 339.256714,316.243805 
z"
  />
  <path
    fill="#000000"
    opacity="1.000000"
    stroke="none"
    d="
M575.130371,766.094604 
	C575.488892,765.677185 576.052551,765.434204 576.616211,765.191162 
	C576.484497,765.526489 576.352844,765.861877 575.998291,766.388428 
	C575.628784,766.476135 575.482117,766.372620 575.130371,766.094604 
z"
  />
</svg>
