<svg width="218" height="228" viewBox="0 0 218 228" fill="none" xmlns="http://www.w3.org/2000/svg">
  <rect width="106.746" height="100.205" rx="15"
    transform="matrix(0.835813 0.549014 -0.549051 0.835789 103.084 33.9119)" fill="#4D508E" />
  <rect width="106.746" height="2.17837" transform="matrix(0.835813 0.549014 -0.549051 0.835789 88.1348 56.6692)"
    fill="#6A6DA0" />
  <rect width="106.745" height="2.17837" transform="matrix(0.835813 0.549015 -0.549051 0.835789 82.1543 65.7727)"
    fill="#6A6DA0" />
  <ellipse cx="2.17849" cy="2.17838" rx="2.17849" ry="2.17838"
    transform="matrix(0.835813 0.549015 -0.549051 0.835789 96.248 50.2705)" fill="#31347C" />
  <ellipse cx="2.17845" cy="2.17836" rx="2.17845" ry="2.17836"
    transform="matrix(0.835811 0.549017 -0.549049 0.835791 174.541 101.699)" fill="#31347C" />
  <ellipse cx="2.17847" cy="2.17836" rx="2.17847" ry="2.17836"
    transform="matrix(0.835813 0.549015 -0.549051 0.835789 82.4941 71.208)" fill="#31347C" />
  <ellipse cx="2.17849" cy="2.17838" rx="2.17849" ry="2.17838"
    transform="matrix(0.835813 0.549015 -0.549051 0.835789 160.787 122.637)" fill="#31347C" />
  <rect width="20.6955" height="55.5484" rx="10"
    transform="matrix(0.999318 -0.0369264 0.0368827 0.99932 133.518 113.795)" fill="#D6D6D6" />
  <ellipse cx="7.08006" cy="7.0797" rx="7.08006" ry="7.0797"
    transform="matrix(0.999318 -0.0369266 0.0368825 0.99932 142.744 157.051)" fill="url(#paint0_radial_5329_6532)" />
  <rect width="20.6955" height="55.5484" rx="10"
    transform="matrix(-0.294269 -0.955723 -0.95571 0.29431 100.119 93.3386)" fill="#D6D6D6" />
  <ellipse cx="7.08006" cy="7.0797" rx="7.08006" ry="7.0797"
    transform="matrix(-0.294269 -0.955723 -0.95571 0.294311 56.875 99.0251)" fill="url(#paint1_radial_5329_6532)" />
  <path
    d="M114.454 159.321L68.0234 128.822L43.613 165.981C40.5807 170.597 41.8646 176.797 46.4807 179.829L47.5172 180.51C52.1333 183.542 58.3335 182.258 61.3659 177.642L71.9469 161.535C73.8048 158.707 77.6037 157.92 80.4319 159.778C83.2602 161.636 84.0468 165.434 82.1889 168.263L71.6079 184.37C68.5755 188.985 69.8594 195.185 74.4755 198.218L76.1948 199.347C80.8109 202.379 87.0111 201.095 90.0435 196.479L114.454 159.321Z"
    fill="#D6D6D6" />
  <rect width="70.8006" height="68.6186" transform="matrix(0.835813 0.549014 -0.549051 0.835789 98.1289 69.1064)"
    fill="#E1E1E1" />
  <rect width="66.4436" height="19.6053" transform="matrix(0.835813 0.549014 -0.549051 0.835789 68.2559 118.55)"
    fill="#E1E1E1" />
  <rect width="5.4462" height="68.6187" transform="matrix(0.835813 0.549015 -0.549051 0.835789 107.234 75.0864)"
    fill="#4D508E" />
  <rect width="5.44621" height="68.6186" transform="matrix(0.835813 0.549014 -0.549052 0.835788 141.828 97.8108)"
    fill="#4D508E" />
  <rect width="70.8006" height="2.17837" transform="matrix(0.835813 0.549014 -0.549051 0.835789 61.6504 124.636)"
    fill="#9A9A9A" />
  <rect width="7.6247" height="17.427" rx="3.81235"
    transform="matrix(0.835814 0.549014 -0.549052 0.835788 172.256 85.219)" fill="#D6D6D6" />
  <rect width="7.62467" height="17.427" rx="3.81234"
    transform="matrix(0.835813 0.549015 -0.549051 0.835789 106.707 42.1621)" fill="#D6D6D6" />
  <path
    d="M169.993 94.1582C158.179 112.142 134.021 117.144 116.036 105.33C98.0506 93.516 93.0478 69.3601 104.862 51.3761C116.676 33.3921 140.833 28.3903 158.819 40.2043C176.804 52.0182 181.807 76.1742 169.993 94.1582Z"
    fill="#D6D6D6" stroke="#E1E1E1" stroke-width="0.5" />
  <path fill-rule="evenodd" clip-rule="evenodd"
    d="M169.558 95.1676C157.281 111.804 133.989 116.118 116.497 104.628C99.0091 93.1412 93.7173 70.0594 104.102 52.187C103.674 52.7664 103.26 53.3606 102.86 53.9697C90.9702 72.069 96.0051 96.38 114.106 108.27C132.207 120.16 156.519 115.126 168.409 97.0263C168.812 96.4136 169.195 95.7938 169.558 95.1676Z"
    fill="#DDDDDD" />
  <path fill-rule="evenodd" clip-rule="evenodd"
    d="M167.166 98.8092C154.889 115.445 131.596 119.76 114.105 108.27C96.6166 96.7827 91.3248 73.701 101.709 55.8286C101.282 56.4079 100.868 57.0022 100.468 57.6112C88.5777 75.7106 93.6126 100.022 111.713 111.911C129.814 123.801 154.127 118.767 166.017 100.668C166.419 100.055 166.802 99.4354 167.166 98.8092Z"
    fill="#D6D6D6" />
  <path
    d="M173.959 81.1253C168.117 66.2114 138.217 45.2677 119.152 40.5637C104.875 51.3847 97.3427 67.6319 103.893 84.6214C107.531 94.0551 112.573 98.6381 121.244 103.838C127.66 107.684 131.936 109.648 139.412 109.907C156.962 110.515 171.763 91.4113 173.959 81.1253Z"
    fill="#080530" />
  <rect x="126.215" y="115.406" width="2.17848" height="1.08919" rx="0.544596"
    transform="rotate(13.3007 126.215 115.406)" fill="#C4C4C4" />
  <rect width="1.08928" height="1.08914" rx="0.544572"
    transform="matrix(0.973176 0.230061 -0.230062 0.973176 131.053 115.978)" fill="#C4C4C4" />
  <mask id="mask0_5329_6532" style="mask-type:alpha" maskUnits="userSpaceOnUse" x="101" y="40" width="73" height="70">
    <path
      d="M173.959 81.126C168.117 66.2121 138.217 45.2685 119.152 40.5644C104.875 51.3854 97.3427 67.6326 103.893 84.6221C107.531 94.0558 112.573 98.6388 121.244 103.838C127.66 107.685 131.936 109.649 139.412 109.908C156.962 110.516 171.763 91.412 173.959 81.126Z"
      fill="#0F0C48" />
  </mask>
  <g mask="url(#mask0_5329_6532)">
    <rect width="10.892" height="60.3529" transform="matrix(0.369765 0.929126 -0.929149 0.369707 148.383 44.1831)"
      fill="#2C2D74" />
    <rect width="6.14593" height="63.6242" transform="matrix(0.369764 0.929126 -0.929149 0.369707 159.648 58.9714)"
      fill="#2C2D74" />
  </g>
  <ellipse cx="7.08005" cy="7.0797" rx="7.08005" ry="7.0797"
    transform="matrix(0.835813 0.549015 -0.549051 0.835789 120.023 45.697)" fill="#7172B4" fill-opacity="0.15" />
  <ellipse cx="3.81235" cy="3.81214" rx="3.81235" ry="3.81214"
    transform="matrix(0.835814 0.549013 -0.549053 0.835788 129.127 51.677)" fill="#7172B4" fill-opacity="0.15" />
  <ellipse cx="2.72309" cy="2.72296" rx="2.72309" ry="2.72296"
    transform="matrix(0.835812 0.549016 -0.54905 0.83579 114.043 54.8003)" fill="#7172B4" fill-opacity="0.15" />
  <ellipse cx="2.7231" cy="2.72297" rx="2.7231" ry="2.72297"
    transform="matrix(0.835813 0.549015 -0.549051 0.835789 134.455 35.6301)" fill="#FF2A57" />
  <ellipse cx="2.72312" cy="2.72297" rx="2.72312" ry="2.72297"
    transform="matrix(0.835814 0.549013 -0.549053 0.835788 146.863 38.5667)" fill="#FF2A57" />
  <rect width="29.4095" height="15.2486" rx="5" transform="matrix(0.835813 0.549015 -0.549051 0.835789 95.3809 109.001)"
    fill="#FF2A57" />
  <defs>
    <radialGradient id="paint0_radial_5329_6532" cx="0" cy="0" r="1" gradientUnits="userSpaceOnUse"
      gradientTransform="translate(8.71392 8.71348) rotate(-156.802) scale(4.14767 4.14752)">
      <stop stop-color="white" />
      <stop offset="1" stop-color="#DDDDDD" />
    </radialGradient>
    <radialGradient id="paint1_radial_5329_6532" cx="0" cy="0" r="1" gradientUnits="userSpaceOnUse"
      gradientTransform="translate(8.71392 8.71348) rotate(-156.802) scale(4.14767 4.14752)">
      <stop stop-color="white" />
      <stop offset="1" stop-color="#DDDDDD" />
    </radialGradient>
  </defs>
</svg>