<svg
  width="1446"
  height="2853"
  viewBox="0 0 1446 2853"
  fill="none"
  xmlns="http://www.w3.org/2000/svg"
>
  <g clip-path="url(#clip0_622_23651)">
    <rect width="1446" height="2853" fill="#010014" />
    <g opacity="0.4" filter="url(#filter0_f_622_23651)">
      <path
        d="M850.519 375.686C715.007 402.955 548.171 354.528 477.881 267.52C407.591 180.513 460.463 87.8726 595.975 60.6032C731.488 33.3338 898.323 81.7613 968.614 168.769C1038.9 255.777 986.031 348.417 850.519 375.686Z"
        fill="#FF2A57"
        fill-opacity="0.81"
      />
    </g>
    <path
      opacity="0.25"
      d="M568.091 2525.01C532.623 2469.34 579.848 2396.08 673.569 2361.38C767.291 2326.67 872.019 2343.66 907.487 2399.33C942.954 2454.99 895.73 2528.25 802.008 2562.96C708.287 2597.66 603.558 2580.67 568.091 2525.01Z"
      stroke="url(#paint0_linear_622_23651)"
      stroke-opacity="0.5"
      stroke-width="1.5"
      stroke-miterlimit="10"
    />
    <path
      opacity="0.25"
      d="M622.116 2498.58C593.797 2454.14 631.503 2395.64 706.335 2367.93C781.167 2340.22 864.788 2353.79 893.107 2398.23C921.427 2442.68 883.72 2501.17 808.888 2528.88C734.056 2556.59 650.435 2543.03 622.116 2498.58Z"
      stroke="url(#paint1_linear_622_23651)"
      stroke-opacity="0.5"
      stroke-width="1.5"
      stroke-miterlimit="10"
    />
    <path
      opacity="0.25"
      d="M670.699 2467.76C649.528 2434.54 677.716 2390.81 733.66 2370.09C789.603 2349.38 852.116 2359.52 873.287 2392.75C894.458 2425.97 866.269 2469.7 810.326 2490.42C754.383 2511.13 691.87 2500.99 670.699 2467.76Z"
      stroke="url(#paint2_linear_622_23651)"
      stroke-opacity="0.5"
      stroke-width="1.5"
      stroke-miterlimit="10"
    />
    <path
      opacity="0.25"
      d="M859.003 2391.03C874.502 2414.71 854.595 2446.17 814.54 2461.3C774.485 2476.43 729.449 2469.5 713.95 2445.82C698.451 2422.14 718.358 2390.68 758.413 2375.55C798.468 2360.42 843.504 2367.35 859.003 2391.03Z"
      stroke="url(#paint3_linear_622_23651)"
      stroke-opacity="0.5"
      stroke-width="1.5"
      stroke-miterlimit="10"
    />
    <g opacity="0.8">
      <g filter="url(#filter1_f_622_23651)">
        <path
          d="M301.823 1362.21C135.131 1262.2 117.428 1033.18 262.282 850.685C407.136 668.192 659.694 601.331 826.386 701.346C993.078 801.361 1010.78 1030.38 865.927 1212.87C721.073 1395.36 468.515 1462.23 301.823 1362.21Z"
          fill="#FF2A57"
          fill-opacity="0.34"
        />
      </g>
      <g opacity="0.4" filter="url(#filter2_f_622_23651)">
        <path
          d="M892.47 1695.5C586.763 1776.76 285.987 1692.05 220.667 1506.3C155.348 1320.54 350.22 1104.09 655.926 1022.83C961.633 941.566 1262.41 1026.27 1327.73 1212.03C1393.05 1397.78 1198.18 1614.24 892.47 1695.5Z"
          fill="#164094"
        />
      </g>
    </g>
    <g opacity="0.8">
      <g opacity="0.4" filter="url(#filter3_f_622_23651)">
        <path
          d="M1070.32 2479.43C903.146 2594.63 659.62 2552.39 526.387 2385.09C393.154 2217.78 420.667 1988.76 587.838 1873.56C755.01 1758.36 998.536 1800.6 1131.77 1967.91C1265 2135.21 1237.49 2364.23 1070.32 2479.43Z"
          fill="#FF2A57"
        />
      </g>
      <g opacity="0.4" filter="url(#filter4_f_622_23651)">
        <path
          d="M898.528 2742.51C641.238 2815.68 349.426 2621.74 246.748 2309.32C144.07 1996.9 269.408 1684.32 526.698 1611.15C783.989 1537.97 1075.8 1731.92 1178.48 2044.33C1281.16 2356.75 1155.82 2669.33 898.528 2742.51Z"
          fill="#164094"
          fill-opacity="0.88"
        />
      </g>
    </g>
    <g opacity="0.6" filter="url(#filter5_f_622_23651)">
      <path
        d="M847.121 749.889C655.715 788.722 430.463 668.075 344.007 480.416C257.551 292.756 342.629 109.148 534.035 70.3143C725.44 31.4808 950.692 152.128 1037.15 339.787C1123.6 527.447 1038.53 711.055 847.121 749.889Z"
        fill="#164094"
        fill-opacity="0.66"
      />
    </g>
  </g>
  <defs>
    <filter
      id="filter0_f_622_23651"
      x="-3.2207"
      y="-396.997"
      width="1452.94"
      height="1230.28"
      filterUnits="userSpaceOnUse"
      color-interpolation-filters="sRGB"
    >
      <feFlood flood-opacity="0" result="BackgroundImageFix" />
      <feBlend mode="normal" in="SourceGraphic" in2="BackgroundImageFix" result="shape" />
      <feGaussianBlur stdDeviation="225" result="effect1_foregroundBlur_622_23651" />
    </filter>
    <filter
      id="filter1_f_622_23651"
      x="-535.762"
      y="-45.0947"
      width="2199.73"
      height="2153.75"
      filterUnits="userSpaceOnUse"
      color-interpolation-filters="sRGB"
    >
      <feFlood flood-opacity="0" result="BackgroundImageFix" />
      <feBlend mode="normal" in="SourceGraphic" in2="BackgroundImageFix" result="shape" />
      <feGaussianBlur stdDeviation="350" result="effect1_foregroundBlur_622_23651" />
    </filter>
    <filter
      id="filter2_f_622_23651"
      x="-541.944"
      y="241.958"
      width="2632.28"
      height="2234.41"
      filterUnits="userSpaceOnUse"
      color-interpolation-filters="sRGB"
    >
      <feFlood flood-opacity="0" result="BackgroundImageFix" />
      <feBlend mode="normal" in="SourceGraphic" in2="BackgroundImageFix" result="shape" />
      <feGaussianBlur stdDeviation="375" result="effect1_foregroundBlur_622_23651" />
    </filter>
    <filter
      id="filter3_f_622_23651"
      x="-258.001"
      y="1108.66"
      width="2174.16"
      height="2135.67"
      filterUnits="userSpaceOnUse"
      color-interpolation-filters="sRGB"
    >
      <feFlood flood-opacity="0" result="BackgroundImageFix" />
      <feBlend mode="normal" in="SourceGraphic" in2="BackgroundImageFix" result="shape" />
      <feGaussianBlur stdDeviation="350" result="effect1_foregroundBlur_622_23651" />
    </filter>
    <filter
      id="filter4_f_622_23651"
      x="-539.112"
      y="845.707"
      width="2503.45"
      height="2662.24"
      filterUnits="userSpaceOnUse"
      color-interpolation-filters="sRGB"
    >
      <feFlood flood-opacity="0" result="BackgroundImageFix" />
      <feBlend mode="normal" in="SourceGraphic" in2="BackgroundImageFix" result="shape" />
      <feGaussianBlur stdDeviation="375" result="effect1_foregroundBlur_622_23651" />
    </filter>
    <filter
      id="filter5_f_622_23651"
      x="-439.802"
      y="-686.954"
      width="2260.76"
      height="2194.11"
      filterUnits="userSpaceOnUse"
      color-interpolation-filters="sRGB"
    >
      <feFlood flood-opacity="0" result="BackgroundImageFix" />
      <feBlend mode="normal" in="SourceGraphic" in2="BackgroundImageFix" result="shape" />
      <feGaussianBlur stdDeviation="375" result="effect1_foregroundBlur_622_23651" />
    </filter>
    <linearGradient
      id="paint0_linear_622_23651"
      x1="907.487"
      y1="2399.33"
      x2="609.136"
      y2="2589.43"
      gradientUnits="userSpaceOnUse"
    >
      <stop stop-color="white" />
      <stop offset="1" stop-color="white" stop-opacity="0" />
    </linearGradient>
    <linearGradient
      id="paint1_linear_622_23651"
      x1="893.107"
      y1="2398.23"
      x2="654.889"
      y2="2550.02"
      gradientUnits="userSpaceOnUse"
    >
      <stop stop-color="white" />
      <stop offset="1" stop-color="white" stop-opacity="0" />
    </linearGradient>
    <linearGradient
      id="paint2_linear_622_23651"
      x1="873.287"
      y1="2392.75"
      x2="695.199"
      y2="2506.22"
      gradientUnits="userSpaceOnUse"
    >
      <stop stop-color="white" />
      <stop offset="1" stop-color="white" stop-opacity="0" />
    </linearGradient>
    <linearGradient
      id="paint3_linear_622_23651"
      x1="852.374"
      y1="2363.5"
      x2="784.121"
      y2="2514.73"
      gradientUnits="userSpaceOnUse"
    >
      <stop stop-color="white" />
      <stop offset="1" stop-color="white" stop-opacity="0" />
    </linearGradient>
    <clipPath id="clip0_622_23651">
      <rect width="1446" height="2853" fill="white" />
    </clipPath>
  </defs>
</svg>
