<svg width="1440" height="2795" viewBox="0 0 1440 2795" fill="none" xmlns="http://www.w3.org/2000/svg">
<g clip-path="url(#clip0_153_2207)">
<rect width="1440" height="2795" fill="#010014"/>
<g opacity="0.4" filter="url(#filter0_f_153_2207)">
<path d="M923.932 443.313C824.126 470.319 696.245 414.031 638.303 317.591C580.361 221.15 614.299 121.077 714.106 94.0715C813.912 67.0655 941.793 123.353 999.734 219.794C1057.68 316.234 1023.74 416.307 923.932 443.313Z" fill="#FF2A57"/>
</g>
<g opacity="0.6" filter="url(#filter1_f_153_2207)">
<path d="M850.286 475.43C676.477 511.091 477.358 412.209 405.543 254.57C333.727 96.9317 416.41 -59.7686 590.219 -95.4298C764.028 -131.091 963.147 -32.2087 1034.96 125.43C1106.78 283.068 1024.1 439.769 850.286 475.43Z" fill="#164094"/>
</g>
<path opacity="0.25" d="M420.72 2666.02C364.291 2571.45 439.425 2446.99 588.538 2388.03C737.65 2329.06 904.274 2357.93 960.702 2452.5C1017.13 2547.07 941.997 2671.54 792.885 2730.5C643.773 2789.46 477.149 2760.59 420.72 2666.02Z" stroke="url(#paint0_linear_153_2207)" stroke-opacity="0.5" stroke-width="1.5" stroke-miterlimit="10"/>
<path opacity="0.25" d="M506.673 2621.12C461.618 2545.61 521.609 2446.23 640.668 2399.16C759.728 2352.08 892.769 2375.13 937.825 2450.64C982.881 2526.15 922.89 2625.53 803.83 2672.6C684.771 2719.68 551.729 2696.63 506.673 2621.12Z" stroke="url(#paint1_linear_153_2207)" stroke-opacity="0.5" stroke-width="1.5" stroke-miterlimit="10"/>
<path opacity="0.25" d="M583.969 2568.77C550.286 2512.32 595.135 2438.02 684.141 2402.83C773.148 2367.64 872.607 2384.87 906.29 2441.32C939.973 2497.77 895.124 2572.06 806.118 2607.25C717.112 2642.45 617.652 2625.22 583.969 2568.77Z" stroke="url(#paint2_linear_153_2207)" stroke-opacity="0.5" stroke-width="1.5" stroke-miterlimit="10"/>
<path opacity="0.25" d="M883.564 2438.4C908.223 2478.64 876.551 2532.09 812.823 2557.79C749.095 2583.49 677.442 2571.72 652.783 2531.49C628.124 2491.26 659.796 2437.81 723.524 2412.1C787.253 2386.4 858.905 2398.17 883.564 2438.4Z" stroke="url(#paint3_linear_153_2207)" stroke-opacity="0.5" stroke-width="1.5" stroke-miterlimit="10"/>
<g opacity="0.5">
<path opacity="0.25" d="M1326.22 325.812C1215.64 308.851 1139.75 205.46 1156.71 94.8822C1173.67 -15.6955 1277.06 -91.5865 1387.64 -74.6252C1498.22 -57.6639 1574.11 45.7268 1557.15 156.304C1540.19 266.882 1436.8 342.773 1326.22 325.812Z" stroke="url(#paint4_linear_153_2207)" stroke-miterlimit="10"/>
<path opacity="0.25" d="M1321.24 259.446C1232.95 245.903 1172.36 163.35 1185.9 75.0588C1199.44 -13.2324 1282 -73.828 1370.29 -60.2851C1458.58 -46.7423 1519.17 35.8105 1505.63 124.102C1492.09 212.393 1409.54 272.989 1321.24 259.446Z" stroke="url(#paint5_linear_153_2207)" stroke-miterlimit="10"/>
<path opacity="0.25" d="M1313.66 197.157C1247.66 187.032 1202.36 125.317 1212.48 59.3126C1222.6 -6.6922 1284.32 -51.9923 1350.32 -41.8679C1416.33 -31.7435 1461.63 29.9713 1451.51 95.9762C1441.38 161.981 1379.67 207.281 1313.66 197.157Z" stroke="url(#paint6_linear_153_2207)" stroke-miterlimit="10"/>
<path opacity="0.25" d="M1333.08 -23.0028C1380.39 -16.1316 1413.18 27.7982 1406.31 75.1172C1399.44 122.436 1355.51 155.226 1308.19 148.354C1260.87 141.483 1228.08 97.5535 1234.96 50.2345C1241.83 2.91547 1285.76 -29.874 1333.08 -23.0028Z" stroke="url(#paint7_linear_153_2207)" stroke-miterlimit="10"/>
</g>
<g opacity="0.8">
<g opacity="0.4" filter="url(#filter2_f_153_2207)">
<path d="M358.023 1770.25C193.523 1664.85 176.052 1423.52 319.002 1231.21C461.952 1038.9 711.19 968.44 875.691 1073.83C1040.19 1179.23 1057.66 1420.57 914.712 1612.88C771.762 1805.18 522.524 1875.64 358.023 1770.25Z" fill="#FF2A57"/>
</g>
<g opacity="0.4" filter="url(#filter3_f_153_2207)">
<path d="M893.746 1907.62C592.058 1993.25 269.703 1826.45 173.746 1535.06C77.789 1243.68 244.567 938.043 546.255 852.412C847.942 766.781 1170.3 933.58 1266.25 1224.97C1362.21 1516.36 1195.43 1821.99 893.746 1907.62Z" fill="#164094"/>
</g>
</g>
<g opacity="0.8">
<g opacity="0.4" filter="url(#filter4_f_153_2207)">
<path d="M1068.25 2659.59C903.273 2780.99 662.949 2736.48 531.467 2560.17C399.985 2383.87 427.136 2142.53 592.11 2021.13C757.084 1899.74 997.409 1944.25 1128.89 2120.55C1260.37 2296.86 1233.22 2538.2 1068.25 2659.59Z" fill="#FF2A57"/>
</g>
<g opacity="0.4" filter="url(#filter5_f_153_2207)">
<path d="M899.715 2936.82C645.808 3013.93 357.832 2809.55 256.504 2480.33C155.176 2151.11 278.866 1821.71 532.774 1744.6C786.682 1667.49 1074.66 1871.87 1175.99 2201.09C1277.31 2530.31 1153.62 2859.71 899.715 2936.82Z" fill="#164094"/>
</g>
</g>
</g>
<defs>
<filter id="filter0_f_153_2207" x="160.022" y="-362.692" width="1317.99" height="1262.77" filterUnits="userSpaceOnUse" color-interpolation-filters="sRGB">
<feFlood flood-opacity="0" result="BackgroundImageFix"/>
<feBlend mode="normal" in="SourceGraphic" in2="BackgroundImageFix" result="shape"/>
<feGaussianBlur stdDeviation="225" result="effect1_foregroundBlur_153_2207"/>
</filter>
<filter id="filter1_f_153_2207" x="-370.353" y="-852.706" width="2181.21" height="2085.41" filterUnits="userSpaceOnUse" color-interpolation-filters="sRGB">
<feFlood flood-opacity="0" result="BackgroundImageFix"/>
<feBlend mode="normal" in="SourceGraphic" in2="BackgroundImageFix" result="shape"/>
<feGaussianBlur stdDeviation="375" result="effect1_foregroundBlur_153_2207"/>
</filter>
<filter id="filter2_f_153_2207" x="-477.753" y="324.896" width="2189.22" height="2194.29" filterUnits="userSpaceOnUse" color-interpolation-filters="sRGB">
<feFlood flood-opacity="0" result="BackgroundImageFix"/>
<feBlend mode="normal" in="SourceGraphic" in2="BackgroundImageFix" result="shape"/>
<feGaussianBlur stdDeviation="350" result="effect1_foregroundBlur_153_2207"/>
</filter>
<filter id="filter3_f_153_2207" x="-603.374" y="79.958" width="2646.75" height="2600.12" filterUnits="userSpaceOnUse" color-interpolation-filters="sRGB">
<feFlood flood-opacity="0" result="BackgroundImageFix"/>
<feBlend mode="normal" in="SourceGraphic" in2="BackgroundImageFix" result="shape"/>
<feGaussianBlur stdDeviation="375" result="effect1_foregroundBlur_153_2207"/>
</filter>
<filter id="filter4_f_153_2207" x="-251.812" y="1252.74" width="2163.98" height="2175.25" filterUnits="userSpaceOnUse" color-interpolation-filters="sRGB">
<feFlood flood-opacity="0" result="BackgroundImageFix"/>
<feBlend mode="normal" in="SourceGraphic" in2="BackgroundImageFix" result="shape"/>
<feGaussianBlur stdDeviation="350" result="effect1_foregroundBlur_153_2207"/>
</filter>
<filter id="filter5_f_153_2207" x="-528.886" y="978.332" width="2490.26" height="2724.76" filterUnits="userSpaceOnUse" color-interpolation-filters="sRGB">
<feFlood flood-opacity="0" result="BackgroundImageFix"/>
<feBlend mode="normal" in="SourceGraphic" in2="BackgroundImageFix" result="shape"/>
<feGaussianBlur stdDeviation="375" result="effect1_foregroundBlur_153_2207"/>
</filter>
<linearGradient id="paint0_linear_153_2207" x1="960.702" y1="2452.5" x2="468.543" y2="2746.17" gradientUnits="userSpaceOnUse">
<stop stop-color="white"/>
<stop offset="1" stop-color="white" stop-opacity="0"/>
</linearGradient>
<linearGradient id="paint1_linear_153_2207" x1="937.825" y1="2450.64" x2="544.858" y2="2685.12" gradientUnits="userSpaceOnUse">
<stop stop-color="white"/>
<stop offset="1" stop-color="white" stop-opacity="0"/>
</linearGradient>
<linearGradient id="paint2_linear_153_2207" x1="906.29" y1="2441.32" x2="612.515" y2="2616.61" gradientUnits="userSpaceOnUse">
<stop stop-color="white"/>
<stop offset="1" stop-color="white" stop-opacity="0"/>
</linearGradient>
<linearGradient id="paint3_linear_153_2207" x1="873.018" y1="2391.63" x2="752.064" y2="2642.61" gradientUnits="userSpaceOnUse">
<stop stop-color="white"/>
<stop offset="1" stop-color="white" stop-opacity="0"/>
</linearGradient>
<linearGradient id="paint4_linear_153_2207" x1="1274.39" y1="-78.6189" x2="1372.58" y2="213.887" gradientUnits="userSpaceOnUse">
<stop stop-color="white"/>
<stop offset="1" stop-color="white" stop-opacity="0"/>
</linearGradient>
<linearGradient id="paint5_linear_153_2207" x1="1274.11" y1="-50.0798" x2="1344.89" y2="214.962" gradientUnits="userSpaceOnUse">
<stop stop-color="white"/>
<stop offset="1" stop-color="white" stop-opacity="0"/>
</linearGradient>
<linearGradient id="paint6_linear_153_2207" x1="1222.04" y1="-99.1136" x2="1362" y2="204.513" gradientUnits="userSpaceOnUse">
<stop stop-color="white"/>
<stop offset="1" stop-color="white" stop-opacity="0"/>
</linearGradient>
<linearGradient id="paint7_linear_153_2207" x1="1251.92" y1="-77.8094" x2="1356.21" y2="172.914" gradientUnits="userSpaceOnUse">
<stop stop-color="white"/>
<stop offset="1" stop-color="white" stop-opacity="0"/>
</linearGradient>
<clipPath id="clip0_153_2207">
<rect width="1440" height="2795" fill="white"/>
</clipPath>
</defs>
</svg>
