<svg
  xmlns="http://www.w3.org/2000/svg"
  xmlns:xlink="http://www.w3.org/1999/xlink"
  width="1090"
  height="584"
  fill="none"
  xmlns:v="https://vecta.io/nano"
>
  <style>
    <![CDATA[.B{stroke-opacity:.5}]]>
  </style>
  <g stroke-width=".619" stroke-miterlimit="10">
    <path d="M1048.79 544.755L1059.18 507.067" stroke="url(#A)" />
    <path d="M1048.79 544.754L1068.82 510.978" stroke="url(#B)" />
    <path d="M1048.79 544.755L1077.35 517.378" stroke="url(#C)" />
    <path d="M1048.79 544.754L1083.65 525.555" stroke="url(#D)" />
    <path d="M1048.79 544.754L1087.73 534.799" stroke="url(#E)" />
    <path d="M1048.79 544.754H1089.21" stroke="url(#F)" />
    <path d="M1048.79 544.754L1087.73 555.065" stroke="url(#G)" />
    <path d="M1048.79 544.754L1083.65 564.309" stroke="url(#H)" />
    <path d="M1048.79 544.754L1077.35 572.486" stroke="url(#I)" />
    <path d="M1048.79 544.754L1068.82 578.531" stroke="url(#J)" />
    <path d="M1048.79 544.754L1059.18 582.442" stroke="url(#K)" />
    <path d="M1048.79 544.754V583.864" stroke="url(#L)" />
    <path d="M1048.79 544.754L1038.04 582.442" stroke="url(#M)" />
    <path d="M1048.79 544.754L1028.4 578.531" stroke="url(#N)" />
    <path d="M1048.79 544.754L1019.87 572.486" stroke="url(#O)" />
    <path d="M1048.79 544.754L1013.56 564.309" stroke="url(#P)" />
    <path d="M1048.79 544.754L1009.48 555.065" stroke="url(#Q)" />
    <path d="M1048.79 544.754H1008" stroke="url(#R)" />
    <path d="M1048.79 544.754L1009.48 534.799" stroke="url(#S)" />
    <path d="M1048.79 544.754L1013.56 525.555" stroke="url(#T)" />
    <path d="M1048.79 544.755L1019.87 517.378" stroke="url(#U)" />
    <path d="M1048.79 544.754L1028.4 510.978" stroke="url(#V)" />
    <path d="M1048.79 544.755L1038.04 507.067" stroke="url(#W)" />
    <path d="M1048.79 544.754V506" stroke="url(#X)" />
    <path d="M592.59 283.734L597.576 265.637" stroke="url(#Y)" class="B" />
    <path d="M592.59 283.734L602.206 267.515" stroke="url(#Z)" class="B" />
    <path d="M592.59 283.734L606.302 270.588" stroke="url(#a)" class="B" />
    <path d="M592.59 283.734L609.329 274.514" stroke="url(#b)" class="B" />
    <path d="M592.59 283.734L611.288 278.954" stroke="url(#c)" class="B" />
    <path d="M592.59 283.734H612" stroke="url(#d)" class="B" />
    <path d="M592.59 283.734L611.288 288.685" stroke="url(#e)" class="B" />
    <path d="M592.59 283.734L609.329 293.124" stroke="url(#f)" class="B" />
    <path d="M592.59 283.734L606.302 297.051" stroke="url(#g)" class="B" />
    <path d="M592.59 283.734L602.206 299.953" stroke="url(#h)" class="B" />
    <path d="M592.59 283.734L597.576 301.831" stroke="url(#i)" class="B" />
    <path d="M592.59 283.734V302.514" stroke="url(#j)" class="B" />
    <path d="M592.588 283.734L587.424 301.831" stroke="url(#k)" class="B" />
    <path d="M592.587 283.734L582.793 299.953" stroke="url(#l)" class="B" />
    <path d="M592.589 283.734L578.699 297.051" stroke="url(#m)" class="B" />
    <path d="M592.591 283.734L575.674 293.124" stroke="url(#n)" class="B" />
    <path d="M592.589 283.734L573.713 288.685" stroke="url(#o)" class="B" />
    <path d="M592.588 283.734H573" stroke="url(#p)" class="B" />
    <path d="M592.589 283.734L573.713 278.954" stroke="url(#q)" class="B" />
    <path d="M592.591 283.734L575.674 274.514" stroke="url(#r)" class="B" />
    <path d="M592.589 283.734L578.699 270.588" stroke="url(#s)" class="B" />
    <path d="M592.587 283.734L582.793 267.515" stroke="url(#t)" class="B" />
    <path d="M592.588 283.734L587.424 265.637" stroke="url(#u)" class="B" />
    <path d="M592.59 283.734V265.124" stroke="url(#v)" class="B" />
    <path d="M40.793 38.755L51.1764 1.06732" stroke="url(#w)" class="B" />
    <path d="M40.793 38.7545L60.8181 4.97784" stroke="url(#x)" class="B" />
    <path d="M40.793 38.7548L69.3474 11.3779" stroke="url(#y)" class="B" />
    <path d="M40.793 38.7541L75.6516 19.5547" stroke="url(#z)" class="B" />
    <path d="M40.793 38.7543L79.7308 28.7991" stroke="url(#AA)" class="B" />
    <path d="M40.793 38.7539H81.2142" stroke="url(#AB)" />
    <path d="M40.793 38.7539L79.7308 49.0647" stroke="url(#AC)" class="B" />
    <path d="M40.793 38.7539L75.6516 58.3088" stroke="url(#AD)" class="B" />
    <path d="M40.793 38.7539L69.3474 66.4864" stroke="url(#AE)" class="B" />
    <path d="M40.793 38.7539L60.8181 72.5306" stroke="url(#AF)" class="B" />
    <path d="M40.793 38.7539L51.1764 76.4416" stroke="url(#AG)" class="B" />
    <path d="M40.793 38.7539V77.8638" stroke="url(#AH)" class="B" />
    <path d="M40.7914 38.7539L30.0371 76.4416" stroke="url(#AI)" class="B" />
    <path d="M40.7925 38.7539L20.3965 72.5306" stroke="url(#AJ)" class="B" />
    <path d="M40.7924 38.7539L11.8672 66.4864" stroke="url(#AK)" class="B" />
    <path d="M40.792 38.7539L5.5625 58.3088" stroke="url(#AL)" class="B" />
    <path d="M40.7911 38.7539L1.48242 49.0647" stroke="url(#AM)" class="B" />
    <path d="M40.792 38.7539H0" stroke="url(#AN)" />
    <path d="M40.7911 38.7543L1.48242 28.7991" stroke="url(#AO)" class="B" />
    <path d="M40.792 38.7541L5.5625 19.5547" stroke="url(#AP)" class="B" />
    <path d="M40.7924 38.7548L11.8672 11.3779" stroke="url(#AQ)" class="B" />
    <path d="M40.7925 38.7545L20.3965 4.97784" stroke="url(#AR)" class="B" />
    <path d="M40.7914 38.755L30.0371 1.06732" stroke="url(#AS)" class="B" />
    <path d="M40.793 38.7543V0" stroke="url(#AT)" class="B" />
  </g>
  <defs>
    <linearGradient id="A" x1="1053.98" y1="507.067" x2="1053.98" y2="544.755" xlink:href="#AU">
      <stop stop-color="#fff" stop-opacity="0" />
      <stop offset="1" stop-color="#fff" />
    </linearGradient>
    <linearGradient id="B" x1="1058.81" y1="510.978" x2="1058.81" y2="544.754" xlink:href="#AU">
      <stop stop-color="#fff" stop-opacity="0" />
      <stop offset="1" stop-color="#fff" />
    </linearGradient>
    <linearGradient id="C" x1="1063.07" y1="517.378" x2="1063.07" y2="544.755" xlink:href="#AU">
      <stop stop-color="#fff" stop-opacity="0" />
      <stop offset="1" stop-color="#fff" />
    </linearGradient>
    <linearGradient id="D" x1="1066.22" y1="525.555" x2="1066.22" y2="544.754" xlink:href="#AU">
      <stop stop-color="#fff" stop-opacity="0" />
      <stop offset="1" stop-color="#fff" />
    </linearGradient>
    <linearGradient id="E" x1="1068.26" y1="534.799" x2="1068.26" y2="544.754" xlink:href="#AU">
      <stop stop-color="#fff" stop-opacity="0" />
      <stop offset="1" stop-color="#fff" />
    </linearGradient>
    <linearGradient id="F" x1="1050.28" y1="544.476" x2="1092.56" y2="544.476" xlink:href="#AU">
      <stop stop-color="#fff" />
      <stop offset="1" stop-color="#fff" stop-opacity="0" />
    </linearGradient>
    <linearGradient id="G" x1="1068.26" y1="544.754" x2="1068.26" y2="555.065" xlink:href="#AU">
      <stop stop-color="#fff" />
      <stop offset="1" stop-color="#fff" stop-opacity="0" />
    </linearGradient>
    <linearGradient id="H" x1="1066.22" y1="544.754" x2="1066.22" y2="564.309" xlink:href="#AU">
      <stop stop-color="#fff" />
      <stop offset="1" stop-color="#fff" stop-opacity="0" />
    </linearGradient>
    <linearGradient id="I" x1="1063.07" y1="544.754" x2="1063.07" y2="572.486" xlink:href="#AU">
      <stop stop-color="#fff" />
      <stop offset="1" stop-color="#fff" stop-opacity="0" />
    </linearGradient>
    <linearGradient id="J" x1="1058.81" y1="544.754" x2="1058.81" y2="578.531" xlink:href="#AU">
      <stop stop-color="#fff" />
      <stop offset="1" stop-color="#fff" stop-opacity="0" />
    </linearGradient>
    <linearGradient id="K" x1="1053.98" y1="544.754" x2="1053.98" y2="582.442" xlink:href="#AU">
      <stop stop-color="#fff" />
      <stop offset="1" stop-color="#fff" stop-opacity="0" />
    </linearGradient>
    <linearGradient id="L" x1="1049.29" y1="544.754" x2="1049.29" y2="583.864" xlink:href="#AU">
      <stop stop-color="#fff" />
      <stop offset="1" stop-color="#fff" stop-opacity="0" />
    </linearGradient>
    <linearGradient id="M" x1="1043.41" y1="544.754" x2="1043.41" y2="582.442" xlink:href="#AU">
      <stop stop-color="#fff" />
      <stop offset="1" stop-color="#fff" stop-opacity="0" />
    </linearGradient>
    <linearGradient id="N" x1="1038.59" y1="544.754" x2="1038.59" y2="578.531" xlink:href="#AU">
      <stop stop-color="#fff" />
      <stop offset="1" stop-color="#fff" stop-opacity="0" />
    </linearGradient>
    <linearGradient id="O" x1="1034.33" y1="544.754" x2="1034.33" y2="572.486" xlink:href="#AU">
      <stop stop-color="#fff" />
      <stop offset="1" stop-color="#fff" stop-opacity="0" />
    </linearGradient>
    <linearGradient id="P" x1="1031.18" y1="544.754" x2="1031.18" y2="564.309" xlink:href="#AU">
      <stop stop-color="#fff" />
      <stop offset="1" stop-color="#fff" stop-opacity="0" />
    </linearGradient>
    <linearGradient id="Q" x1="1029.14" y1="544.754" x2="1029.14" y2="555.065" xlink:href="#AU">
      <stop stop-color="#fff" />
      <stop offset="1" stop-color="#fff" stop-opacity="0" />
    </linearGradient>
    <linearGradient id="R" x1="1008.84" y1="544.476" x2="1049.03" y2="544.476" xlink:href="#AU">
      <stop stop-color="#fff" stop-opacity="0" />
      <stop offset="1" stop-color="#fff" />
    </linearGradient>
    <linearGradient id="S" x1="1029.14" y1="534.799" x2="1029.14" y2="544.754" xlink:href="#AU">
      <stop stop-color="#fff" stop-opacity="0" />
      <stop offset="1" stop-color="#fff" />
    </linearGradient>
    <linearGradient id="T" x1="1031.18" y1="525.555" x2="1031.18" y2="544.754" xlink:href="#AU">
      <stop stop-color="#fff" stop-opacity="0" />
      <stop offset="1" stop-color="#fff" />
    </linearGradient>
    <linearGradient id="U" x1="1034.33" y1="517.378" x2="1034.33" y2="544.755" xlink:href="#AU">
      <stop stop-color="#fff" stop-opacity="0" />
      <stop offset="1" stop-color="#fff" />
    </linearGradient>
    <linearGradient id="V" x1="1038.59" y1="510.978" x2="1038.59" y2="544.754" xlink:href="#AU">
      <stop stop-color="#fff" stop-opacity="0" />
      <stop offset="1" stop-color="#fff" />
    </linearGradient>
    <linearGradient id="W" x1="1043.41" y1="507.067" x2="1043.41" y2="544.755" xlink:href="#AU">
      <stop stop-color="#fff" stop-opacity="0" />
      <stop offset="1" stop-color="#fff" />
    </linearGradient>
    <linearGradient id="X" x1="1049.29" y1="506" x2="1049.29" y2="544.754" xlink:href="#AU">
      <stop stop-color="#fff" stop-opacity="0" />
      <stop offset="1" stop-color="#fff" />
    </linearGradient>
    <linearGradient id="Y" x1="595.083" y1="265.637" x2="595.083" y2="283.734" xlink:href="#AU">
      <stop stop-color="#fff" stop-opacity="0" />
      <stop offset="1" stop-color="#fff" />
    </linearGradient>
    <linearGradient id="Z" x1="597.398" y1="267.515" x2="597.398" y2="283.734" xlink:href="#AU">
      <stop stop-color="#fff" stop-opacity="0" />
      <stop offset="1" stop-color="#fff" />
    </linearGradient>
    <linearGradient id="a" x1="599.446" y1="270.588" x2="599.446" y2="283.734" xlink:href="#AU">
      <stop stop-color="#fff" stop-opacity="0" />
      <stop offset="1" stop-color="#fff" />
    </linearGradient>
    <linearGradient id="b" x1="600.959" y1="274.514" x2="600.959" y2="283.734" xlink:href="#AU">
      <stop stop-color="#fff" stop-opacity="0" />
      <stop offset="1" stop-color="#fff" />
    </linearGradient>
    <linearGradient id="c" x1="601.939" y1="278.954" x2="601.939" y2="283.734" xlink:href="#AU">
      <stop stop-color="#fff" stop-opacity="0" />
      <stop offset="1" stop-color="#fff" />
    </linearGradient>
    <linearGradient id="d" x1="593.305" y1="283.455" x2="613.608" y2="283.455" xlink:href="#AU">
      <stop stop-color="#fff" />
      <stop offset="1" stop-color="#fff" stop-opacity="0" />
    </linearGradient>
    <linearGradient id="e" x1="601.939" y1="283.734" x2="601.939" y2="288.685" xlink:href="#AU">
      <stop stop-color="#fff" />
      <stop offset="1" stop-color="#fff" stop-opacity="0" />
    </linearGradient>
    <linearGradient id="f" x1="600.959" y1="283.734" x2="600.959" y2="293.124" xlink:href="#AU">
      <stop stop-color="#fff" />
      <stop offset="1" stop-color="#fff" stop-opacity="0" />
    </linearGradient>
    <linearGradient id="g" x1="599.446" y1="283.734" x2="599.446" y2="297.051" xlink:href="#AU">
      <stop stop-color="#fff" />
      <stop offset="1" stop-color="#fff" stop-opacity="0" />
    </linearGradient>
    <linearGradient id="h" x1="597.398" y1="283.734" x2="597.398" y2="299.953" xlink:href="#AU">
      <stop stop-color="#fff" />
      <stop offset="1" stop-color="#fff" stop-opacity="0" />
    </linearGradient>
    <linearGradient id="i" x1="595.083" y1="283.734" x2="595.083" y2="301.831" xlink:href="#AU">
      <stop stop-color="#fff" />
      <stop offset="1" stop-color="#fff" stop-opacity="0" />
    </linearGradient>
    <linearGradient id="j" x1="593.09" y1="283.734" x2="593.09" y2="302.514" xlink:href="#AU">
      <stop stop-color="#fff" />
      <stop offset="1" stop-color="#fff" stop-opacity="0" />
    </linearGradient>
    <linearGradient id="k" x1="590.006" y1="283.734" x2="590.006" y2="301.831" xlink:href="#AU">
      <stop stop-color="#fff" />
      <stop offset="1" stop-color="#fff" stop-opacity="0" />
    </linearGradient>
    <linearGradient id="l" x1="587.69" y1="283.734" x2="587.69" y2="299.953" xlink:href="#AU">
      <stop stop-color="#fff" />
      <stop offset="1" stop-color="#fff" stop-opacity="0" />
    </linearGradient>
    <linearGradient id="m" x1="585.644" y1="283.734" x2="585.644" y2="297.051" xlink:href="#AU">
      <stop stop-color="#fff" />
      <stop offset="1" stop-color="#fff" stop-opacity="0" />
    </linearGradient>
    <linearGradient id="n" x1="584.132" y1="283.734" x2="584.132" y2="293.124" xlink:href="#AU">
      <stop stop-color="#fff" />
      <stop offset="1" stop-color="#fff" stop-opacity="0" />
    </linearGradient>
    <linearGradient id="o" x1="583.151" y1="283.734" x2="583.151" y2="288.685" xlink:href="#AU">
      <stop stop-color="#fff" />
      <stop offset="1" stop-color="#fff" stop-opacity="0" />
    </linearGradient>
    <linearGradient id="p" x1="573.402" y1="283.455" x2="592.7" y2="283.455" xlink:href="#AU">
      <stop stop-color="#fff" stop-opacity="0" />
      <stop offset="1" stop-color="#fff" />
    </linearGradient>
    <linearGradient id="q" x1="583.151" y1="278.954" x2="583.151" y2="283.734" xlink:href="#AU">
      <stop stop-color="#fff" stop-opacity="0" />
      <stop offset="1" stop-color="#fff" />
    </linearGradient>
    <linearGradient id="r" x1="584.132" y1="274.514" x2="584.132" y2="283.734" xlink:href="#AU">
      <stop stop-color="#fff" stop-opacity="0" />
      <stop offset="1" stop-color="#fff" />
    </linearGradient>
    <linearGradient id="s" x1="585.644" y1="270.588" x2="585.644" y2="283.734" xlink:href="#AU">
      <stop stop-color="#fff" stop-opacity="0" />
      <stop offset="1" stop-color="#fff" />
    </linearGradient>
    <linearGradient id="t" x1="587.69" y1="267.515" x2="587.69" y2="283.734" xlink:href="#AU">
      <stop stop-color="#fff" stop-opacity="0" />
      <stop offset="1" stop-color="#fff" />
    </linearGradient>
    <linearGradient id="u" x1="590.006" y1="265.637" x2="590.006" y2="283.734" xlink:href="#AU">
      <stop stop-color="#fff" stop-opacity="0" />
      <stop offset="1" stop-color="#fff" />
    </linearGradient>
    <linearGradient id="v" x1="593.09" y1="265.124" x2="593.09" y2="283.734" xlink:href="#AU">
      <stop stop-color="#fff" stop-opacity="0" />
      <stop offset="1" stop-color="#fff" />
    </linearGradient>
    <linearGradient id="w" x1="45.985" y1="1.067" x2="45.985" y2="38.755" xlink:href="#AU">
      <stop stop-color="#fff" stop-opacity="0" />
      <stop offset="1" stop-color="#fff" />
    </linearGradient>
    <linearGradient id="x" x1="50.806" y1="4.978" x2="50.806" y2="38.755" xlink:href="#AU">
      <stop stop-color="#fff" stop-opacity="0" />
      <stop offset="1" stop-color="#fff" />
    </linearGradient>
    <linearGradient id="y" x1="55.07" y1="11.378" x2="55.07" y2="38.755" xlink:href="#AU">
      <stop stop-color="#fff" stop-opacity="0" />
      <stop offset="1" stop-color="#fff" />
    </linearGradient>
    <linearGradient id="z" x1="58.222" y1="19.555" x2="58.222" y2="38.754" xlink:href="#AU">
      <stop stop-color="#fff" stop-opacity="0" />
      <stop offset="1" stop-color="#fff" />
    </linearGradient>
    <linearGradient id="AA" x1="60.262" y1="28.799" x2="60.262" y2="38.754" xlink:href="#AU">
      <stop stop-color="#fff" stop-opacity="0" />
      <stop offset="1" stop-color="#fff" />
    </linearGradient>
    <linearGradient id="AB" x1="42.282" y1="38.476" x2="84.563" y2="38.476" xlink:href="#AU">
      <stop stop-color="#fff" />
      <stop offset="1" stop-color="#fff" stop-opacity="0" />
    </linearGradient>
    <linearGradient id="AC" x1="60.262" y1="38.754" x2="60.262" y2="49.065" xlink:href="#AU">
      <stop stop-color="#fff" />
      <stop offset="1" stop-color="#fff" stop-opacity="0" />
    </linearGradient>
    <linearGradient id="AD" x1="58.222" y1="38.754" x2="58.222" y2="58.309" xlink:href="#AU">
      <stop stop-color="#fff" />
      <stop offset="1" stop-color="#fff" stop-opacity="0" />
    </linearGradient>
    <linearGradient id="AE" x1="55.07" y1="38.754" x2="55.07" y2="66.486" xlink:href="#AU">
      <stop stop-color="#fff" />
      <stop offset="1" stop-color="#fff" stop-opacity="0" />
    </linearGradient>
    <linearGradient id="AF" x1="50.806" y1="38.754" x2="50.806" y2="72.531" xlink:href="#AU">
      <stop stop-color="#fff" />
      <stop offset="1" stop-color="#fff" stop-opacity="0" />
    </linearGradient>
    <linearGradient id="AG" x1="45.985" y1="38.754" x2="45.985" y2="76.442" xlink:href="#AU">
      <stop stop-color="#fff" />
      <stop offset="1" stop-color="#fff" stop-opacity="0" />
    </linearGradient>
    <linearGradient id="AH" x1="41.293" y1="38.754" x2="41.293" y2="77.864" xlink:href="#AU">
      <stop stop-color="#fff" />
      <stop offset="1" stop-color="#fff" stop-opacity="0" />
    </linearGradient>
    <linearGradient id="AI" x1="35.414" y1="38.754" x2="35.414" y2="76.442" xlink:href="#AU">
      <stop stop-color="#fff" />
      <stop offset="1" stop-color="#fff" stop-opacity="0" />
    </linearGradient>
    <linearGradient id="AJ" x1="30.595" y1="38.754" x2="30.595" y2="72.531" xlink:href="#AU">
      <stop stop-color="#fff" />
      <stop offset="1" stop-color="#fff" stop-opacity="0" />
    </linearGradient>
    <linearGradient id="AK" x1="26.33" y1="38.754" x2="26.33" y2="66.486" xlink:href="#AU">
      <stop stop-color="#fff" />
      <stop offset="1" stop-color="#fff" stop-opacity="0" />
    </linearGradient>
    <linearGradient id="AL" x1="23.177" y1="38.754" x2="23.177" y2="58.309" xlink:href="#AU">
      <stop stop-color="#fff" />
      <stop offset="1" stop-color="#fff" stop-opacity="0" />
    </linearGradient>
    <linearGradient id="AM" x1="21.137" y1="38.754" x2="21.137" y2="49.065" xlink:href="#AU">
      <stop stop-color="#fff" />
      <stop offset="1" stop-color="#fff" stop-opacity="0" />
    </linearGradient>
    <linearGradient id="AN" x1=".837" y1="38.476" x2="41.025" y2="38.476" xlink:href="#AU">
      <stop stop-color="#fff" stop-opacity="0" />
      <stop offset="1" stop-color="#fff" />
    </linearGradient>
    <linearGradient id="AO" x1="21.137" y1="28.799" x2="21.137" y2="38.754" xlink:href="#AU">
      <stop stop-color="#fff" stop-opacity="0" />
      <stop offset="1" stop-color="#fff" />
    </linearGradient>
    <linearGradient id="AP" x1="23.177" y1="19.555" x2="23.177" y2="38.754" xlink:href="#AU">
      <stop stop-color="#fff" stop-opacity="0" />
      <stop offset="1" stop-color="#fff" />
    </linearGradient>
    <linearGradient id="AQ" x1="26.33" y1="11.378" x2="26.33" y2="38.755" xlink:href="#AU">
      <stop stop-color="#fff" stop-opacity="0" />
      <stop offset="1" stop-color="#fff" />
    </linearGradient>
    <linearGradient id="AR" x1="30.595" y1="4.978" x2="30.595" y2="38.755" xlink:href="#AU">
      <stop stop-color="#fff" stop-opacity="0" />
      <stop offset="1" stop-color="#fff" />
    </linearGradient>
    <linearGradient id="AS" x1="35.414" y1="1.067" x2="35.414" y2="38.755" xlink:href="#AU">
      <stop stop-color="#fff" stop-opacity="0" />
      <stop offset="1" stop-color="#fff" />
    </linearGradient>
    <linearGradient id="AT" x1="41.293" y1="0" x2="41.293" y2="38.754" xlink:href="#AU">
      <stop stop-color="#fff" stop-opacity="0" />
      <stop offset="1" stop-color="#fff" />
    </linearGradient>
    <linearGradient id="AU" gradientUnits="userSpaceOnUse" />
  </defs>
</svg>
