<svg
  xmlns="http://www.w3.org/2000/svg"
  width="132"
  height="24"
  fill="none"
  xmlns:v="https://vecta.io/nano"
>
  <path
    fill-rule="evenodd"
    d="M.457 12.055a.46.46 0 0 0-.457.46.46.46 0 0 0 .457.46h17.809a.46.46 0 0 0 .457-.46.46.46 0 0 0-.457-.46H.457z"
    fill="#fff"
  />
  <path
    d="M18.383 14.046c.839 0 1.519-.686 1.519-1.532s-.68-1.532-1.519-1.532-1.519.686-1.519 1.532.68 1.532 1.519 1.532z"
    fill="#ff2a57"
  />
  <g fill="#fff">
    <path
      d="M12.921 22.319c-2.74-.002-5.367-1.099-7.306-3.052s-3.029-4.601-3.034-7.363c.004-2.763 1.095-5.411 3.033-7.364s4.566-3.051 7.306-3.053 5.368 1.1 7.306 3.053 3.029 4.601 3.033 7.364c-.004 2.763-1.095 5.411-3.033 7.364s-4.566 3.05-7.306 3.052zm0-20.03a9.51 9.51 0 0 0-6.744 2.818 9.67 9.67 0 0 0-2.8 6.797c.002 2.551 1.009 4.996 2.799 6.798s4.216 2.815 6.745 2.815 4.956-1.013 6.745-2.815 2.796-4.248 2.799-6.798a9.67 9.67 0 0 0-2.8-6.797 9.51 9.51 0 0 0-6.744-2.818z"
    />
    <path
      d="M14.23 20.67c-2.27-.002-4.447-.911-6.053-2.529a8.68 8.68 0 0 1-2.513-6.101 8.68 8.68 0 0 1 2.513-6.101C9.783 4.321 11.96 3.412 14.23 3.41s4.447.911 6.053 2.529a8.68 8.68 0 0 1 2.513 6.101 8.68 8.68 0 0 1-2.513 6.101c-1.606 1.618-3.782 2.527-6.053 2.529zm0-16.637A7.92 7.92 0 0 0 8.614 6.38c-1.49 1.501-2.328 3.537-2.331 5.66.004 2.123.842 4.159 2.332 5.659a7.92 7.92 0 0 0 5.615 2.346 7.92 7.92 0 0 0 5.615-2.346c1.49-1.501 2.328-3.536 2.332-5.659-.004-2.123-.842-4.159-2.332-5.659a7.92 7.92 0 0 0-5.615-2.346v-.001z"
    />
    <path
      d="M15.534 19.024a6.77 6.77 0 0 1-4.799-2.006c-1.273-1.283-1.99-3.023-1.993-4.837.003-1.815.719-3.555 1.993-4.837a6.77 6.77 0 0 1 4.799-2.005 6.77 6.77 0 0 1 4.8 2.005 6.88 6.88 0 0 1 1.992 4.838c-.003 1.815-.719 3.555-1.993 4.838a6.77 6.77 0 0 1-4.799 2.006zm0-13.241a6.33 6.33 0 0 0-4.488 1.875c-1.191 1.199-1.861 2.826-1.863 4.523.003 1.697.673 3.323 1.864 4.522a6.33 6.33 0 0 0 4.487 1.874 6.33 6.33 0 0 0 4.487-1.874c1.191-1.199 1.861-2.825 1.864-4.522-.003-1.697-.673-3.324-1.863-4.523a6.33 6.33 0 0 0-4.488-1.875z"
    />
    <path
      d="M16.843 17.375a5 5 0 0 1-3.546-1.482c-.941-.948-1.47-2.233-1.473-3.574s.531-2.627 1.472-3.575 2.216-1.481 3.547-1.482a5 5 0 0 1 3.546 1.482c.941.948 1.47 2.234 1.472 3.575s-.532 2.626-1.473 3.574a5 5 0 0 1-3.546 1.482zm0-9.846c-1.26.001-2.468.506-3.359 1.404s-1.393 2.116-1.394 3.386.504 2.487 1.395 3.385a4.74 4.74 0 0 0 6.717 0c.891-.898 1.393-2.115 1.395-3.385s-.503-2.488-1.394-3.386-2.099-1.403-3.359-1.404z"
    />
  </g>
  <path
    d="M33.27 1.637h1.482l.92 5.389h.043l1.504-5.389h1.104l1.471 5.389h.043l.92-5.389h1.482L40.67 9.273h-1.374l-1.504-5.367h-.043l-1.536 5.367h-1.374L33.27 1.637zm13.407 6.382V2.891l1.244-1.255h3.895l1.244 1.255v5.127l-1.244 1.255h-3.895l-1.244-1.255zm4.36-.011l.552-.556V3.459l-.552-.556H48.7l-.552.556v3.993l.552.556h2.337zM63.99 6.742v2.531h-1.471V7.08l-.649-.731h-2.359v2.924H58.04V1.637h4.75l1.158 1.178v2.313l-.736.753.779.862zm-4.479-1.615h2.608l.379-.382V3.262l-.379-.382h-2.608v2.247zm9.508-3.491h1.363l2.251 4.931h.022l2.261-4.931h1.363v7.636h-1.417V4.626h-.022l-1.742 3.578h-.909l-1.731-3.578h-.022v4.647h-1.417V1.637zm12.343 0h1.471v3.196h3.203V1.637h1.471v7.636h-1.471V6.099h-3.203v3.175h-1.471V1.637zm11.125 6.382V2.891l1.244-1.255h3.895l1.244 1.255v5.127l-1.244 1.255h-3.895l-1.244-1.255zm4.36-.011l.552-.556V3.459l-.552-.556h-2.337l-.552.556v3.993l.552.556h2.337zm7.002-6.371h1.472v6.382h3.786v1.255h-5.258V1.637zm9.744 0h5.474v1.255h-4.003v1.931h3.69v1.233h-3.69v1.964h4.003v1.255h-5.474V1.637z"
    fill="#f3f4fc"
  />
  <path
    d="M33.539 21.185v-1.091h1.45v.644l.357.36h2.24l.368-.371v-1.266l-.357-.36h-2.867l-1.169-1.178v-2.018l1.169-1.178h3.419l1.169 1.178v1.102h-1.45v-.655l-.357-.36h-2.142l-.357.36v1.124l.357.36h2.867l1.169 1.178v2.149l-1.19 1.2h-3.506l-1.169-1.178zm10.622-.076v-5.127l1.244-1.255h3.7l1.223 1.233v1.167h-1.472v-.622l-.508-.513h-2.164l-.552.556v3.993l.552.556h2.164l.508-.513v-.622h1.472v1.167l-1.223 1.233h-3.7l-1.244-1.255zm12.944-6.382h1.342l2.77 7.636h-1.493l-.617-1.691h-2.662l-.617 1.691h-1.493l2.77-7.636zm1.677 4.724l-1.006-2.902h-.022l-.974 2.902h2.002zm6.876-4.724h1.32l3.376 5.182h.022v-5.182h1.417v7.636h-1.32l-3.376-5.171h-.022v5.171h-1.417v-7.636z"
    fill="#9295bb"
  />
</svg>
