<svg width="249" height="47" viewBox="0 0 249 47" fill="none" xmlns="http://www.w3.org/2000/svg">
  <g clip-path="url(#clip0_5420_9368)">
    <path
      d="M248.416 35.2491C248.553 35.2491 248.644 35.3402 248.644 35.4768V46.3164C248.644 46.453 248.553 46.544 248.416 46.544H248.353C248.249 46.544 248.158 46.5259 248.063 46.4348L240.075 38.1457V46.1342C240.075 46.2709 239.984 46.362 239.848 46.362H238.809C238.673 46.362 238.582 46.2709 238.582 46.1342V35.2946C238.582 35.158 238.673 35.0669 238.809 35.0669H238.868C238.977 35.0669 239.068 35.0851 239.158 35.1762L247.151 43.4653V35.4768C247.151 35.3402 247.241 35.2491 247.377 35.2491H248.416Z"
      fill="white"
      fill-opacity="0.65"
    />
    <path
      d="M233.407 46.0932C233.48 46.2618 233.403 46.362 233.24 46.362H231.992C231.874 46.362 231.783 46.3164 231.733 46.1935L230.526 43.3925H225.325L224.032 46.1935C223.982 46.3028 223.895 46.362 223.773 46.362H222.666C222.502 46.362 222.407 46.2618 222.484 46.0932L227.603 35.2354C227.648 35.1261 227.739 35.0669 227.862 35.0669H228.225C228.343 35.0669 228.434 35.1261 228.484 35.2354L233.407 46.0932ZM225.879 42.1901H230.004L228.011 37.5673L225.879 42.1901Z"
      fill="white"
      fill-opacity="0.65"
    />
    <path
      d="M217.844 43.3148C217.962 43.3695 218.025 43.4788 217.953 43.6291C216.913 45.7151 215.289 46.5257 213.314 46.5257C210.41 46.5257 207.669 44.3396 207.669 40.8054C207.669 37.2711 210.41 35.085 213.314 35.085C215.289 35.085 216.913 35.8956 217.953 37.9816C218.025 38.1319 217.962 38.2412 217.844 38.2959L217.045 38.683C216.927 38.7377 216.804 38.7148 216.727 38.56C215.933 36.9842 214.717 36.3602 213.314 36.3602C210.946 36.3602 209.235 38.1729 209.235 40.8054C209.235 43.4378 210.946 45.2505 213.314 45.2505C214.717 45.2505 215.933 44.6266 216.727 43.0507C216.804 42.8958 216.927 42.8731 217.045 42.9277L217.844 43.3148Z"
      fill="white"
      fill-opacity="0.65"
    />
    <path
      d="M195.532 38.1412C195.532 40.7965 202.153 39.3117 202.153 43.3242C202.153 45.5468 200.115 46.526 197.837 46.526C196.131 46.526 194.919 45.9795 193.871 45.3418C193.739 45.2644 193.698 45.1688 193.762 45.0321L194.12 44.2442C194.179 44.1213 194.297 44.0711 194.433 44.1486C195.378 44.6951 196.267 45.2507 197.91 45.2507C199.507 45.2507 200.588 44.7361 200.588 43.5155C200.588 40.5323 194.039 42.1993 194.039 38.2597C194.039 36.5062 195.477 35.0852 198.173 35.0852C199.934 35.0852 200.955 35.6318 201.767 36.0872C201.876 36.1464 201.94 36.2466 201.871 36.3969L201.486 37.2304C201.422 37.3624 201.327 37.4034 201.141 37.285C200.606 36.9434 199.575 36.324 198.164 36.324C196.29 36.324 195.532 37.2258 195.532 38.1412Z"
      fill="white"
      fill-opacity="0.65"
    />
    <path
      d="M248.297 27.4667C248.505 27.4667 248.644 27.6059 248.644 27.8147V29.0674C248.644 29.2762 248.505 29.4154 248.297 29.4154H237.049H236.112C235.925 29.4154 235.766 29.2553 235.766 29.0674V12.7821C235.766 12.5942 235.925 12.4341 236.112 12.4341H237.701H248.019C248.227 12.4341 248.366 12.5733 248.366 12.7821V14.0348C248.366 14.2435 248.227 14.3828 248.019 14.3828H238.047V19.6999H246.91C247.118 19.6999 247.256 19.839 247.256 20.0409V21.3006C247.256 21.5093 247.118 21.6485 246.91 21.6485H238.047V27.4667H248.297Z"
      fill="white"
    />
    <path
      d="M227.429 27.4667C227.637 27.4667 227.776 27.6059 227.776 27.8147V29.0674C227.776 29.2762 227.637 29.4154 227.429 29.4154H217.082H216.146C215.959 29.4154 215.8 29.2553 215.8 29.0674V12.7821C215.8 12.5942 215.959 12.4341 216.146 12.4341H217.734C217.922 12.4341 218.081 12.5942 218.081 12.7821V27.4667H227.429Z"
      fill="white"
    />
    <path
      d="M198.481 12.1833C202.92 12.1833 207.108 15.5239 207.108 20.9246C207.108 26.3252 202.92 29.6658 198.481 29.6658C194.043 29.6658 189.854 26.3252 189.854 20.9246C189.854 15.5239 194.043 12.1833 198.481 12.1833ZM198.481 27.7171C202.101 27.7171 204.716 24.9472 204.716 20.9246C204.716 16.9019 202.101 14.132 198.481 14.132C194.861 14.132 192.247 16.9019 192.247 20.9246C192.247 24.9472 194.861 27.7171 198.481 27.7171Z"
      fill="white"
    />
    <path
      d="M180.813 12.4341C181 12.4341 181.159 12.5942 181.159 12.7821V29.0674C181.159 29.2553 181 29.4154 180.813 29.4154H179.225C179.037 29.4154 178.878 29.2553 178.878 29.0674V21.6485H168.344V29.0674C168.344 29.2553 168.184 29.4154 167.997 29.4154H166.409C166.222 29.4154 166.062 29.2553 166.062 29.0674V12.7821C166.062 12.5942 166.222 12.4341 166.409 12.4341H167.997C168.184 12.4341 168.344 12.5942 168.344 12.7821V19.6999H178.878V12.7821C178.878 12.5942 179.037 12.4341 179.225 12.4341H180.813Z"
      fill="white"
    />
    <path
      d="M155.824 12.3921C155.935 12.2321 156.081 12.1555 156.247 12.1555H156.767C156.975 12.1555 157.114 12.2947 157.114 12.5035V29.0672C157.114 29.276 156.975 29.4152 156.767 29.4152H155.179C154.971 29.4152 154.833 29.276 154.833 29.0672V17.3125L148.418 26.6314C148.266 26.8472 148.071 26.8263 147.94 26.6314L141.525 17.3125V29.0672C141.525 29.276 141.386 29.4152 141.178 29.4152H139.59C139.382 29.4152 139.243 29.276 139.243 29.0672V12.5035C139.243 12.2947 139.382 12.1555 139.59 12.1555H140.103C140.27 12.1555 140.415 12.2321 140.533 12.3921L148.175 23.1029L155.824 12.3921Z"
      fill="white"
    />
    <path
      d="M126.452 22.7899L130.44 28.7264C130.675 29.0674 130.468 29.4154 130.072 29.4154H128.443C128.338 29.4154 128.234 29.3527 128.179 29.2623L124.087 23.0683H124.018H119.691V29.0674C119.691 29.2553 119.531 29.4154 119.344 29.4154H117.756C117.569 29.4154 117.409 29.2553 117.409 29.0674V12.7821C117.409 12.5942 117.569 12.4341 117.756 12.4341H119.344H124.018C128.401 12.4341 130.564 14.7446 130.564 17.7512C130.564 20.1383 129.205 22.087 126.452 22.7899ZM119.691 21.1196H123.567C127.014 21.1196 128.172 19.6859 128.172 17.7512C128.172 15.8234 127.014 14.3828 123.567 14.3828H119.691V21.1196Z"
      fill="white"
    />
    <path
      d="M100.09 12.1833C104.529 12.1833 108.717 15.5239 108.717 20.9246C108.717 26.3252 104.529 29.6658 100.09 29.6658C95.6524 29.6658 91.4639 26.3252 91.4639 20.9246C91.4639 15.5239 95.6524 12.1833 100.09 12.1833ZM100.09 27.7171C103.71 27.7171 106.325 24.9472 106.325 20.9246C106.325 16.9019 103.71 14.132 100.09 14.132C96.4708 14.132 93.856 16.9019 93.856 20.9246C93.856 24.9472 96.4708 27.7171 100.09 27.7171Z"
      fill="white"
    />
    <path
      d="M84.1025 12.4341C84.3594 12.4341 84.4563 12.5942 84.3664 12.8447L78.5202 29.4363C78.4646 29.5963 78.3329 29.6938 78.1321 29.6938H77.6879C77.501 29.6938 77.3689 29.6033 77.2928 29.4363L72.9101 17.7999L68.5342 29.4363C68.4647 29.6033 68.333 29.6938 68.1457 29.6938H67.695C67.5012 29.6938 67.369 29.5963 67.3069 29.4363L61.4607 12.8516C61.3707 12.5942 61.4677 12.4341 61.7176 12.4341H63.5274C63.7147 12.4341 63.8533 12.5037 63.9224 12.6916L68.0905 25.2536L72.3277 13.7494C72.3898 13.5963 72.5215 13.4919 72.7227 13.4919H73.1044C73.2917 13.4919 73.4234 13.5824 73.4925 13.7494L77.8544 25.2536L81.9251 12.6916C81.9946 12.5037 82.1333 12.4341 82.3206 12.4341H84.1025Z"
      fill="white"
    />
    <path
      d="M30.2506 39.0268C28.2711 39.0236 26.3118 38.6274 24.4855 37.8613C22.6591 37.0952 21.0018 35.9741 19.6089 34.5626C16.7821 31.6977 15.1942 27.8302 15.1895 23.7983C15.1923 19.7661 16.7805 15.8978 19.6089 13.034C21.002 11.6229 22.6594 10.5023 24.4857 9.73655C26.3121 8.97078 28.2712 8.575 30.2506 8.57202C32.2302 8.57472 34.1898 8.97031 36.0166 9.73609C37.8433 10.5019 39.5011 11.6227 40.8945 13.034C43.7222 15.899 45.3095 19.7679 45.3116 23.8005C45.3084 27.8334 43.7204 31.7022 40.8922 34.5671C39.4993 35.9786 37.842 37.0996 36.0156 37.8658C34.1893 38.6319 32.23 39.028 30.2506 39.0313V39.0268ZM30.2506 9.56014C28.3995 9.56274 26.5672 9.93274 24.8592 10.6489C23.1512 11.365 21.6013 12.4131 20.2985 13.7328C17.6539 16.4107 16.1693 20.028 16.1674 23.7983C16.1709 27.5681 17.6562 31.1843 20.3007 33.8616C21.6034 35.1807 23.1531 36.2282 24.8607 36.9439C26.5683 37.6596 28.4 38.0294 30.2506 38.032C32.1011 38.0294 33.9328 37.6596 35.6404 36.9439C37.348 36.2282 38.8977 35.1807 40.2004 33.8616C42.8449 31.1843 44.3302 27.5681 44.3338 23.7983C44.3299 20.0283 42.8456 16.4118 40.2026 13.7328C38.8998 12.4131 37.3499 11.365 35.6419 10.6489C33.9339 9.93274 32.1016 9.56274 30.2506 9.56014Z"
      fill="white"
    />
    <g filter="url(#filter0_f_5420_9368)">
      <path
        d="M30.2502 27.9492C32.1107 27.9492 33.6185 26.4226 33.6185 24.5399C33.6185 22.6572 32.1107 21.1306 30.2502 21.1306C28.3897 21.1306 26.8818 22.6572 26.8818 24.5399C26.8818 26.4226 28.3897 27.9492 30.2502 27.9492Z"
        fill="white"
      />
    </g>
    <path
      d="M14.8136 2.53882L30.5256 24.5894L0.535156 24.002L1.1861 19.5261C4.04048 10.113 6.47134 5.01972 14.8136 2.53882Z"
      fill="white"
      fill-opacity="0.15"
    />
    <path
      d="M6.4494 8.80451C8.29581 6.26567 10.7512 4.48085 14.5654 3.27417L29.2867 23.9345L1.25977 23.3855L1.80097 19.6642C3.22319 14.9788 4.51765 11.4608 6.4494 8.80451Z"
      stroke="url(#paint0_linear_5420_9368)"
      stroke-width="2.70967"
    />
    <path
      d="M22.9287 46.3598C16.8528 46.3554 11.0275 43.9141 6.72782 39.5679C2.42814 35.2216 0.0110874 29.3287 0 23.1821C0.00886992 17.0333 2.42814 11.1404 6.7256 6.7942C11.0231 2.44796 16.8506 0.00445688 22.9265 6.04773e-06C29.0024 -0.00444478 34.8299 2.44796 39.1274 6.7942C43.4249 11.1404 45.8441 17.0333 45.853 23.1821C45.8441 29.3309 43.4249 35.2238 39.1274 39.5701C34.8299 43.9163 29.0024 46.3576 22.9265 46.362L22.9287 46.3598ZM22.9287 1.78479C20.1471 1.78861 17.3936 2.34468 14.8271 3.42098C12.2605 4.49727 9.93144 6.07254 7.97403 8.05599C4.00099 12.0812 1.76995 17.5164 1.76511 23.1821C1.76955 28.8592 4.00255 34.3003 7.97185 38.3105C11.9411 42.3207 17.3207 44.575 22.9287 44.575C28.5367 44.575 33.9185 42.3207 37.8856 38.3105C41.8527 34.3003 44.0857 28.8569 44.0923 23.1821C44.0875 17.5164 41.8564 12.0812 37.8834 8.05599C35.926 6.07254 33.597 4.49727 31.0304 3.42098C28.4638 2.34468 25.7103 1.78861 22.9287 1.78479Z"
      fill="white"
    />
  </g>
  <defs>
    <filter
      id="filter0_f_5420_9368"
      x="25.0418"
      y="19.2906"
      width="10.4163"
      height="10.4986"
      filterUnits="userSpaceOnUse"
      color-interpolation-filters="sRGB"
    >
      <feFlood flood-opacity="0" result="BackgroundImageFix" />
      <feBlend mode="normal" in="SourceGraphic" in2="BackgroundImageFix" result="shape" />
      <feGaussianBlur stdDeviation="0.92" result="effect1_foregroundBlur_5420_9368" />
    </filter>
    <linearGradient
      id="paint0_linear_5420_9368"
      x1="11.349"
      y1="4.9171"
      x2="30.5513"
      y2="23.868"
      gradientUnits="userSpaceOnUse"
    >
      <stop stop-color="white" stop-opacity="0" />
      <stop offset="0.584664" stop-color="white" />
      <stop offset="1" stop-color="white" stop-opacity="0" />
    </linearGradient>
    <clipPath id="clip0_5420_9368">
      <rect width="249" height="47" fill="white" />
    </clipPath>
  </defs>
</svg>
