<svg width="342" height="350" viewBox="0 0 342 350" fill="none" xmlns="http://www.w3.org/2000/svg">
  <path
    d="M108.031 193.232C107.962 193.233 107.892 193.226 107.824 193.212C107.572 193.158 107.352 193.006 107.212 192.791C107.072 192.575 107.024 192.313 107.078 192.061L112.264 168.159L115.208 145.275L112.26 124.681L108.935 114.799C108.864 114.558 108.889 114.299 109.005 114.076C109.122 113.853 109.321 113.684 109.56 113.605C109.799 113.525 110.06 113.541 110.288 113.649C110.516 113.758 110.692 113.95 110.78 114.185L114.134 124.152C114.153 124.207 114.166 124.263 114.174 124.321L117.154 145.134C117.166 145.22 117.166 145.307 117.154 145.392L114.178 168.487L108.98 192.469C108.933 192.685 108.813 192.878 108.641 193.017C108.468 193.156 108.253 193.232 108.031 193.232Z"
    fill="url(#paint0_linear_5767_22913)" />
  <path
    d="M130.075 214.397H129.942C129.815 214.38 129.693 214.338 129.582 214.274C129.472 214.21 129.375 214.125 129.297 214.024C129.22 213.923 129.163 213.807 129.13 213.684C129.097 213.561 129.089 213.433 129.106 213.306L132.269 189.97L135.557 166.415L138.14 143.022L139.762 126.938C139.769 126.807 139.802 126.679 139.86 126.561C139.918 126.443 140 126.338 140.1 126.252C140.2 126.167 140.316 126.102 140.442 126.063C140.568 126.023 140.7 126.01 140.831 126.023C140.963 126.036 141.09 126.076 141.205 126.139C141.321 126.203 141.422 126.289 141.503 126.393C141.583 126.496 141.642 126.615 141.676 126.743C141.709 126.87 141.716 127.002 141.696 127.132L140.074 143.224L137.487 166.645L134.199 190.224L131.036 213.553C131.006 213.785 130.892 213.998 130.715 214.153C130.538 214.307 130.311 214.393 130.075 214.393"
    fill="url(#paint1_linear_5767_22913)" />
  <path
    d="M170.03 298.81C169.89 298.81 169.751 298.78 169.624 298.721L145.702 287.867C145.618 287.829 145.541 287.78 145.471 287.721L132.954 277.057L119.411 267.232L104.976 258.097L88.4088 250.134L88.3074 250.078L74.3269 241.194L56.7822 234.107L38.6699 227.407L22.9093 219.755C22.7553 219.68 22.624 219.566 22.5286 219.424C22.4332 219.282 22.3771 219.118 22.366 218.947L20.9144 198.825C20.9105 198.774 20.9105 198.723 20.9144 198.672L24.7055 155.06L24.8069 133.807L23.6837 112.808L23.6148 91.188L20.2981 72.572C20.2686 72.4441 20.2655 72.3115 20.2891 72.1823C20.3126 72.0531 20.3623 71.93 20.4351 71.8205C20.5078 71.7111 20.6021 71.6174 20.7123 71.5453C20.8225 71.4732 20.9463 71.4242 21.0761 71.4012C21.2059 71.3782 21.339 71.3817 21.4674 71.4115C21.5958 71.4413 21.7168 71.4968 21.823 71.5745C21.9292 71.6523 22.0184 71.7508 22.0853 71.8639C22.1521 71.9771 22.1952 72.1026 22.2119 72.2328L25.5448 90.9295C25.5496 90.9846 25.5496 91.04 25.5448 91.0951L25.6138 112.756L26.7369 133.754L26.6315 155.157L22.8444 198.769L24.2514 218.257L39.42 225.627L57.4796 232.298L75.1297 239.429C75.185 239.451 75.2379 239.478 75.2878 239.51L89.2968 248.394L105.864 256.357L105.962 256.413L120.477 265.6L134.13 275.506L146.602 286.13L169.949 296.714L189.541 284.644L191.783 264.886L193 244.012L191.114 221.366L190.891 199.156L189.33 176.26L187.838 153.141L186.849 130.528C186.838 130.271 186.929 130.021 187.103 129.832C187.277 129.643 187.52 129.53 187.777 129.518C188.034 129.51 188.283 129.603 188.473 129.775C188.662 129.948 188.776 130.188 188.791 130.443L189.796 153.105L191.289 176.203L192.85 199.152L193.073 221.326L194.962 243.968C194.965 244.014 194.965 244.059 194.962 244.105L193.746 265.104L191.443 285.379C191.426 285.525 191.377 285.665 191.298 285.789C191.219 285.912 191.114 286.017 190.989 286.094L170.557 298.685C170.403 298.779 170.226 298.83 170.046 298.83"
    fill="url(#paint2_linear_5767_22913)" />
  <path
    d="M182.957 339.709H182.848C182.592 339.68 182.357 339.552 182.196 339.351C182.034 339.15 181.96 338.894 181.988 338.639L183.61 324.178C183.608 324.144 183.608 324.111 183.61 324.077L187.799 305.328C187.852 305.084 187.997 304.87 188.204 304.73L202.546 295.237L205.607 276.156L208.356 256.313L207.874 234.648L206.11 212.155L205.104 189.744C205.104 189.494 205.201 189.254 205.373 189.074C205.546 188.893 205.782 188.786 206.033 188.775C206.283 188.764 206.528 188.849 206.717 189.012C206.905 189.176 207.024 189.406 207.046 189.655L208.048 212.034L209.812 234.547L210.298 256.353C210.302 256.404 210.302 256.455 210.298 256.506L207.533 276.447L204.399 295.967C204.379 296.098 204.334 296.224 204.264 296.336C204.194 296.449 204.102 296.546 203.993 296.622L189.619 306.136L185.528 324.457L183.906 338.865C183.879 339.101 183.766 339.319 183.588 339.478C183.41 339.637 183.18 339.724 182.941 339.725"
    fill="url(#paint3_linear_5767_22913)" />
  <path
    d="M25.2252 281.802H25.2009C24.9435 281.795 24.6995 281.686 24.5225 281.5C24.3454 281.314 24.2496 281.065 24.2562 280.809L24.8563 258.7C24.8688 258.445 24.9795 258.205 25.1654 258.03C25.3512 257.855 25.5978 257.757 25.8537 257.759C26.1111 257.766 26.3551 257.875 26.5322 258.061C26.7093 258.247 26.805 258.496 26.7985 258.752L26.1984 280.861C26.191 281.113 26.0852 281.353 25.9035 281.528C25.7218 281.704 25.4785 281.802 25.2252 281.802Z"
    fill="url(#paint4_linear_5767_22913)" />
  <path
    d="M170.039 211.219C169.898 211.216 169.76 211.183 169.633 211.122L147.231 200.336L147.122 200.275L132.711 190.907C132.63 190.853 132.558 190.788 132.496 190.713L123.097 179.43L112.62 169.125L98.6882 160.528L80.8476 153.663L64.6734 146.249L44.8946 140.531L25.501 134.752L4.66391 129.099C4.53771 129.068 4.41896 129.012 4.31468 128.935C4.21039 128.858 4.12267 128.761 4.0567 128.649C3.99072 128.538 3.94782 128.414 3.93053 128.286C3.91324 128.158 3.92191 128.027 3.95602 127.903C3.99014 127.778 4.04901 127.661 4.12916 127.559C4.20932 127.457 4.30914 127.373 4.42273 127.31C4.53632 127.247 4.66139 127.207 4.79055 127.194C4.91972 127.18 5.05037 127.192 5.1748 127.229L26.0362 132.923L45.446 138.705L65.2856 144.444L65.4235 144.492L81.5977 151.914L99.4627 158.779C99.5193 158.8 99.5736 158.828 99.6248 158.86L113.727 167.562C113.789 167.6 113.846 167.644 113.897 167.695L124.525 178.126L133.899 189.364L148.131 198.62L170.027 209.171L191.387 198.341L205.128 189.166L204.751 167.388L205.1 145.179L204.131 123.461C204.131 123.212 204.229 122.973 204.402 122.793C204.575 122.614 204.811 122.507 205.061 122.497C205.311 122.486 205.555 122.571 205.744 122.735C205.932 122.899 206.05 123.128 206.073 123.376L207.042 145.154L206.693 167.409L207.078 189.679C207.079 189.838 207.04 189.996 206.965 190.136C206.89 190.277 206.781 190.398 206.649 190.487L192.421 199.988L192.319 200.049L170.477 211.106C170.34 211.175 170.188 211.211 170.035 211.211"
    fill="url(#paint5_linear_5767_22913)" />
  <path
    d="M240.141 106.719C240.067 106.719 239.994 106.71 239.922 106.695L222.458 102.677L205.303 99.5149C205.205 99.4977 205.11 99.465 205.023 99.418L188.103 90.429C188.058 90.4051 188.014 90.3782 187.973 90.3483L171.292 77.8098L154.854 67.0319L138.485 54.2794L122.344 39.2776L107.009 30.1998L90.5103 38.5548L73.3954 50.7016L55.8994 60.8616L38.1439 69.475C38.0792 69.5065 38.0112 69.5308 37.9412 69.5477L21.4872 73.3961C21.266 73.4466 21.0339 73.4195 20.8304 73.3193L1.3192 63.6479C1.08799 63.5333 0.911966 63.332 0.829842 63.0881C0.747719 62.8443 0.766225 62.5779 0.88129 62.3477C0.996355 62.1174 1.19855 61.9421 1.4434 61.8603C1.68825 61.7785 1.9557 61.7969 2.1869 61.9115L21.3818 71.4214L37.3898 67.678L54.9709 59.1494L72.325 49.054L89.4236 36.9113C89.4624 36.8842 89.503 36.8599 89.5453 36.8386L106.575 28.209C106.721 28.1348 106.883 28.0985 107.047 28.1035C107.211 28.1084 107.371 28.1544 107.512 28.2373L123.43 37.6422C123.49 37.6777 123.546 37.7197 123.597 37.7673L139.75 52.7893L155.994 65.4409L172.419 76.2066L189.092 88.7249L205.797 97.6089L222.827 100.751L240.003 104.728L256.522 95.3112L256.635 95.2587L273.211 88.4342L289.47 81.0524L305.648 70.8076L320.468 60.1751C320.594 60.0848 320.739 60.0256 320.892 60.0024C321.045 59.9793 321.201 59.9928 321.348 60.0418L338.532 65.8285C338.777 65.9105 338.978 66.0858 339.093 66.3161C339.208 66.5463 339.226 66.8125 339.144 67.0562C339.062 67.2998 338.886 67.5009 338.655 67.6153C338.423 67.7296 338.156 67.7478 337.911 67.6659L321.186 62.0529L306.739 72.4229L290.455 82.7202L290.338 82.7848L273.969 90.1908L257.438 97.0153L240.639 106.594C240.493 106.678 240.326 106.722 240.157 106.723"
    fill="url(#paint6_linear_5767_22913)" />
  <path
    d="M8.97728 273.257C8.7199 273.257 8.47299 273.156 8.29061 272.975C8.10823 272.794 8.00523 272.548 8.00416 272.292L7.89062 250.813L8.41368 230.828C8.41229 230.7 8.43755 230.572 8.48788 230.454C8.53822 230.336 8.61253 230.229 8.70617 230.141C8.79981 230.053 8.91077 229.984 9.03207 229.941C9.15338 229.897 9.28243 229.879 9.41114 229.887C9.66854 229.895 9.91251 230.003 10.0896 230.19C10.2667 230.376 10.3624 230.624 10.3559 230.881L9.84499 250.845L9.96257 272.296C9.96311 272.423 9.93847 272.549 9.89005 272.667C9.84164 272.785 9.77041 272.892 9.68042 272.982C9.59043 273.073 9.48346 273.145 9.3656 273.194C9.24773 273.243 9.1213 273.269 8.9935 273.269L8.97728 273.257Z"
    fill="url(#paint7_linear_5767_22913)" />
  <path
    d="M231.879 311.797C231.649 311.795 231.426 311.712 231.251 311.561C231.077 311.411 230.961 311.204 230.926 310.977C230.89 310.75 230.937 310.518 231.057 310.322C231.178 310.126 231.364 309.979 231.583 309.907L249.424 304.254L249.562 304.221L268.578 301.072L286.569 296.739L303.741 291.78L317.202 280.84L330.932 271.553L330.644 252.436C330.64 252.388 330.64 252.339 330.644 252.291L333.389 232.435L331.442 212.369C331.439 212.325 331.439 212.28 331.442 212.236L332.314 191.88L332.039 171.382L332.306 150.61L333.052 129.643C333.061 129.386 333.173 129.144 333.362 128.968C333.55 128.793 333.802 128.7 334.06 128.709C334.318 128.718 334.562 128.829 334.738 129.017C334.914 129.205 335.007 129.455 334.998 129.712L334.256 150.654L333.989 171.378L334.26 191.904L333.389 212.248L335.339 232.362C335.348 232.437 335.348 232.513 335.339 232.588L332.59 252.484L332.849 272.053C332.85 272.212 332.812 272.369 332.737 272.51C332.663 272.651 332.556 272.771 332.424 272.861L318.33 282.379L304.783 293.391C304.681 293.474 304.564 293.536 304.438 293.573L287.035 298.596L268.935 302.953L249.919 306.107L232.155 311.761C232.059 311.79 231.96 311.805 231.859 311.805"
    fill="url(#paint8_linear_5767_22913)" />
  <path
    d="M154.853 83.1443C154.7 83.1437 154.55 83.1078 154.415 83.0393L137.928 74.7449C137.861 74.7121 137.799 74.6714 137.742 74.6237L121.414 60.9626L105.316 47.3419L89.5801 38.5953L69.9027 31.6214C69.6664 31.5301 69.4751 31.3507 69.3696 31.1212C69.2641 30.8917 69.2526 30.6303 69.3377 30.3925C69.4227 30.1547 69.5975 29.9594 69.825 29.848C70.0524 29.7366 70.3145 29.718 70.5555 29.7961L90.314 36.8104C90.3643 36.8282 90.4131 36.8498 90.46 36.875L106.363 45.6984C106.419 45.7296 106.472 45.7661 106.521 45.8074L122.675 59.4847L138.893 73.0731L154.93 81.1494L171.594 76.1179L171.7 76.0937L188.385 72.9883L204.855 66.2123L221.147 57.8977L237.232 50.4554L246.326 43.4128C246.427 43.3291 246.543 43.2664 246.668 43.2285C246.793 43.1906 246.925 43.1782 247.055 43.1921C247.185 43.2061 247.311 43.246 247.425 43.3095C247.54 43.373 247.64 43.4588 247.72 43.5618C247.8 43.6647 247.859 43.7828 247.892 43.9088C247.926 44.0348 247.933 44.1662 247.914 44.2952C247.895 44.4242 247.851 44.548 247.783 44.6594C247.715 44.7707 247.625 44.8673 247.519 44.9433L238.339 52.0545C238.281 52.0984 238.218 52.1363 238.152 52.1675L222.002 59.6381L205.674 67.9689L189.05 74.8337C188.988 74.8587 188.925 74.8777 188.859 74.8903L172.126 78.0037L155.14 83.1322C155.05 83.1588 154.955 83.1724 154.861 83.1725"
    fill="url(#paint9_linear_5767_22913)" />
  <path
    d="M317.803 282.545H317.698C317.57 282.531 317.447 282.493 317.335 282.432C317.222 282.371 317.123 282.288 317.043 282.188C316.963 282.089 316.903 281.975 316.867 281.852C316.831 281.73 316.82 281.602 316.834 281.475L319.06 261.26L318.095 240.479C318.095 240.23 318.191 239.99 318.364 239.81C318.537 239.629 318.773 239.522 319.024 239.511C319.274 239.499 319.519 239.584 319.707 239.748C319.896 239.912 320.014 240.142 320.037 240.39L321.002 261.244C321.006 261.293 321.006 261.343 321.002 261.393L318.768 281.681C318.742 281.918 318.629 282.137 318.451 282.296C318.273 282.456 318.043 282.544 317.803 282.545Z"
    fill="url(#paint10_linear_5767_22913)" />
  <path
    d="M303.375 83.8874H303.302L289.857 82.8738L272.252 79.8937L254.974 76.0614L237.973 71.3489C237.866 71.3194 237.764 71.2716 237.673 71.2076L221.049 59.5454L204.968 46.0256L189.155 51.3358L172.603 58.9073L155.813 67.0886L138.751 74.7612L121.482 82.0622C121.341 82.1217 121.189 82.1473 121.037 82.1368C120.884 82.1263 120.737 82.0799 120.606 82.0016L104.326 72.3665C104.268 72.3332 104.214 72.294 104.164 72.2494L88.1116 57.5828L72.42 50.7987L54.0482 40.6468C53.93 40.5886 53.8249 40.5072 53.7393 40.4075C53.6536 40.3077 53.5892 40.1916 53.55 40.0663C53.5108 39.941 53.4975 39.8091 53.511 39.6785C53.5245 39.5479 53.5645 39.4215 53.6285 39.3067C53.6926 39.192 53.7794 39.0915 53.8836 39.0112C53.9878 38.9308 54.1074 38.8725 54.235 38.8395C54.3626 38.8066 54.4955 38.7999 54.6258 38.8197C54.7561 38.8395 54.881 38.8855 54.9929 38.9548L73.2836 49.0502L89.0402 55.8545C89.1399 55.8966 89.2318 55.9553 89.3118 56.0281L105.409 70.7351L121.182 80.0713L137.993 72.9763L155.022 65.328L171.805 57.1467L188.429 49.5469L188.526 49.5105L204.895 44.0065C205.053 43.9532 205.223 43.9416 205.387 43.9727C205.551 44.0038 205.704 44.0767 205.832 44.1842L222.253 57.9987L238.675 69.5156L255.469 74.1716L272.649 77.9836L290.117 80.9436L303.473 81.9451C303.721 81.9674 303.951 82.0837 304.116 82.2701C304.28 82.4564 304.367 82.6986 304.358 82.9467C304.348 83.1947 304.244 83.4297 304.065 83.6033C303.887 83.7768 303.649 83.8756 303.4 83.8793"
    fill="url(#paint11_linear_5767_22913)" />
  <path
    d="M238.311 280.768H238.291C238.163 280.765 238.037 280.738 237.92 280.687C237.803 280.636 237.697 280.562 237.609 280.47C237.52 280.378 237.451 280.27 237.404 280.151C237.358 280.033 237.335 279.906 237.338 279.779L237.792 259.071C237.798 258.818 237.902 258.576 238.084 258.399C238.266 258.221 238.511 258.122 238.765 258.122H238.786C238.913 258.125 239.039 258.152 239.157 258.204C239.274 258.255 239.379 258.328 239.468 258.42C239.556 258.512 239.626 258.62 239.672 258.739C239.719 258.858 239.741 258.984 239.738 259.111L239.284 279.819C239.279 280.073 239.174 280.314 238.992 280.491C238.81 280.669 238.566 280.768 238.311 280.768Z"
    fill="url(#paint12_linear_5767_22913)" />
  <path
    d="M140.745 128.004C140.633 128.005 140.522 127.986 140.416 127.948L126.509 122.981L92.8992 108.04L75.3343 99.8261L57.6274 91.4227L39.3407 82.4902L20.827 73.3155C20.5958 73.2009 20.4198 72.9996 20.3377 72.7557C20.2555 72.5118 20.274 72.2455 20.3891 72.0152C20.5042 71.785 20.7064 71.6097 20.9512 71.5279C21.1961 71.4461 21.4635 71.4645 21.6947 71.5791L40.2044 80.7579L58.4748 89.6862L81.8177 100.727L93.7061 106.267L127.234 121.168L140.842 126.014L152.787 124.318L170.425 115.151C170.539 115.092 170.663 115.055 170.791 115.044C170.92 115.033 171.049 115.047 171.171 115.086L188.387 120.542L205.603 117.501L222.787 112.074C222.84 112.056 222.894 112.044 222.949 112.037L236.711 110.18C236.96 110.158 237.208 110.233 237.403 110.388C237.598 110.543 237.726 110.767 237.76 111.014C237.794 111.261 237.731 111.511 237.585 111.712C237.439 111.914 237.22 112.052 236.975 112.098L223.314 113.939L206.131 119.355L206.009 119.383L188.493 122.476C188.337 122.505 188.177 122.496 188.026 122.448L170.968 117.049L153.533 126.143C153.435 126.194 153.33 126.228 153.221 126.244L140.87 127.996H140.732"
    fill="url(#paint13_linear_5767_22913)" />
  <path
    d="M286.786 298.612H286.754C286.496 298.604 286.253 298.494 286.076 298.307C285.9 298.12 285.805 297.871 285.813 297.615L286.494 276.382L286.547 255.897C286.548 255.64 286.651 255.395 286.833 255.214C287.016 255.033 287.263 254.932 287.52 254.932C287.648 254.932 287.774 254.958 287.892 255.007C288.01 255.056 288.117 255.128 288.207 255.218C288.297 255.309 288.368 255.416 288.417 255.534C288.465 255.651 288.49 255.778 288.489 255.905L288.436 276.419L287.755 297.68C287.747 297.931 287.641 298.169 287.459 298.344C287.277 298.519 287.035 298.617 286.782 298.616"
    fill="url(#paint14_linear_5767_22913)" />
  <path
    d="M170.119 336.753C169.961 336.753 169.805 336.714 169.665 336.64L151.447 327.09L151.354 327.033L136.85 317.176C136.744 317.103 136.653 317.009 136.583 316.9C136.514 316.791 136.467 316.669 136.445 316.542L133.12 297.312C133.116 297.265 133.116 297.218 133.12 297.171L132.617 276.342L130.651 256.466L118.564 246.371C118.461 246.286 118.376 246.18 118.316 246.06C118.256 245.941 118.222 245.81 118.215 245.676L117.145 224.771C117.142 224.731 117.142 224.69 117.145 224.65L118.803 202.779L107.409 192.987C107.305 192.906 107.218 192.805 107.154 192.69C107.089 192.575 107.049 192.448 107.036 192.317C107.023 192.186 107.037 192.054 107.076 191.928C107.116 191.803 107.181 191.686 107.267 191.587C107.354 191.487 107.46 191.406 107.578 191.348C107.697 191.291 107.827 191.258 107.959 191.252C108.091 191.245 108.223 191.266 108.346 191.312C108.47 191.359 108.583 191.429 108.678 191.521L120.437 201.616C120.552 201.715 120.642 201.84 120.7 201.98C120.758 202.121 120.781 202.273 120.77 202.424L119.083 224.718L120.129 245.143L132.196 255.215C132.391 255.377 132.515 255.609 132.54 255.861L134.568 276.201L135.07 297.03L138.314 315.787L152.433 325.378L170.602 334.9C170.793 335.001 170.946 335.163 171.034 335.361C171.123 335.558 171.142 335.779 171.09 335.989C171.038 336.199 170.917 336.385 170.746 336.518C170.575 336.652 170.365 336.724 170.148 336.725"
    fill="url(#paint15_linear_5767_22913)" />
  <path
    d="M206.109 190.664C205.891 190.663 205.679 190.59 205.507 190.454C205.336 190.319 205.216 190.131 205.165 189.919C205.115 189.707 205.137 189.485 205.229 189.287C205.321 189.09 205.476 188.929 205.671 188.831L222.133 180.605L240.019 173.268L253.156 164.121C253.195 164.094 253.235 164.07 253.277 164.048L269.046 156.19L284.454 148.392C284.501 148.369 284.55 148.349 284.6 148.332L303.657 142.319L319.653 135.184L333.236 128.969L339.999 108.439L338.28 87.2789L337.238 66.7973C337.226 66.6673 337.241 66.5362 337.281 66.4119C337.321 66.2876 337.386 66.1727 337.472 66.0741C337.558 65.9754 337.663 65.8951 337.781 65.838C337.899 65.7808 338.027 65.748 338.158 65.7414C338.289 65.7349 338.42 65.7548 338.543 65.8C338.666 65.8451 338.779 65.9145 338.874 66.0041C338.97 66.0936 339.046 66.2015 339.099 66.3211C339.151 66.4408 339.179 66.5698 339.18 66.7004L340.218 87.1537L341.954 108.479C341.964 108.609 341.949 108.739 341.909 108.863L334.975 129.982C334.933 130.109 334.866 130.226 334.776 130.325C334.687 130.424 334.578 130.504 334.456 130.56L320.476 136.956L304.419 144.116L304.314 144.156L285.257 150.161L269.91 157.927L254.198 165.757L241.032 174.923C240.974 174.965 240.911 175 240.846 175.028L222.928 182.378L206.535 190.575C206.4 190.641 206.252 190.676 206.101 190.676"
    fill="url(#paint16_linear_5767_22913)" />
  <path
    d="M41.4645 287.948C41.2099 287.948 40.9654 287.849 40.7835 287.671C40.6016 287.494 40.4967 287.253 40.4914 286.999L40.1062 266.667L38.0343 226.568C38.0302 226.521 38.0302 226.474 38.0343 226.427L40.0616 204.746L43.3054 182.334L44.6677 160.694L44.1812 139.639L41.9633 119.068C41.9608 119.028 41.9608 118.987 41.9633 118.947L42.3363 97.1651L38.8128 81.8201C38.7552 81.5695 38.8 81.3064 38.9373 81.0887C39.0745 80.871 39.293 80.7164 39.5446 80.6592C39.7963 80.6019 40.0605 80.6465 40.2791 80.7832C40.4977 80.9198 40.6528 81.1374 40.7104 81.3881L44.2623 96.83C44.2797 96.9068 44.2878 96.9854 44.2866 97.0642L43.9136 118.903L46.1315 139.497L46.618 160.718L45.2476 182.524L41.9835 204.964L39.9805 226.524L42.0484 266.582L42.4336 286.947C42.438 287.203 42.3401 287.451 42.1615 287.635C41.9829 287.82 41.7381 287.927 41.4808 287.932L41.4645 287.948Z"
    fill="url(#paint17_linear_5767_22913)" />
  <path
    d="M223.098 113.964C222.987 113.963 222.878 113.944 222.774 113.907L205.338 107.805L188.163 101.716L188.061 101.676L171.133 93.3974L171.048 93.3489L154.78 83.2535L138.047 90.6958L120.636 101.393L102.844 110.123C102.697 110.195 102.534 110.229 102.37 110.222C102.207 110.215 102.048 110.167 101.907 110.083L85.4331 100.125L69.1819 90.5464L53.0523 79.7726L37.1822 69.4107L20.5782 56.4562L2.10506 63.6845C1.87693 63.7397 1.63646 63.7109 1.42799 63.6034C1.21952 63.4959 1.0571 63.3169 0.97068 63.0995C0.884258 62.8821 0.879658 62.6409 0.957727 62.4204C1.0358 62.1999 1.19127 62.015 1.39549 61.8997L20.3836 54.4695C20.5417 54.4079 20.7131 54.3885 20.881 54.4133C21.0488 54.4381 21.2072 54.5062 21.3405 54.6108L38.3135 67.86L54.1268 78.1775L70.2199 88.9271L89.5729 100.371L102.447 108.153L119.679 99.7009L137.066 89.0321L137.179 88.9715L154.448 81.2829C154.594 81.218 154.753 81.19 154.912 81.2012C155.071 81.2125 155.225 81.2627 155.36 81.3475L172.025 91.6852L188.856 99.8988L205.979 105.956L223.053 111.933L239.743 104.837C239.836 104.799 239.934 104.774 240.034 104.765L252.835 103.553L286.226 89.3592L303.004 82.0501L320.54 74.0545L337.83 65.8894C338.06 65.7926 338.32 65.7881 338.554 65.8769C338.788 65.9657 338.979 66.141 339.086 66.3662C339.194 66.5914 339.21 66.8493 339.132 67.0862C339.053 67.323 338.886 67.5206 338.665 67.6379L321.364 75.8111L303.782 83.7986L286.984 91.1198L253.476 105.435C253.383 105.475 253.284 105.499 253.184 105.508L240.383 106.719L223.483 113.903C223.363 113.954 223.233 113.98 223.102 113.98"
    fill="url(#paint18_linear_5767_22913)" />
  <path
    d="M304.188 293.601C304.06 293.6 303.934 293.575 303.816 293.526C303.698 293.476 303.591 293.405 303.501 293.314C303.411 293.224 303.34 293.117 303.291 292.999C303.243 292.881 303.218 292.755 303.219 292.628L303.3 268.996L304.569 249.048C304.579 248.897 304.624 248.75 304.702 248.619C304.779 248.489 304.887 248.378 305.015 248.297L318.1 239.901L317.97 219.791L315.914 198.199C315.909 198.144 315.909 198.089 315.914 198.034L317.475 177.774C317.483 177.647 317.517 177.522 317.574 177.408C317.632 177.293 317.711 177.191 317.809 177.108C317.907 177.025 318.02 176.962 318.142 176.923C318.264 176.884 318.393 176.87 318.521 176.882C318.778 176.901 319.017 177.022 319.185 177.216C319.353 177.411 319.436 177.664 319.417 177.92L317.86 198.111L319.912 219.703L320.05 240.435C320.049 240.595 320.007 240.753 319.929 240.894C319.852 241.035 319.74 241.155 319.604 241.242L306.483 249.662L305.266 269.045L305.185 292.62C305.184 292.876 305.081 293.121 304.899 293.302C304.717 293.483 304.47 293.585 304.212 293.585"
    fill="url(#paint19_linear_5767_22913)" />
  <path
    d="M23.336 219.872C23.1962 219.873 23.058 219.844 22.9305 219.787L4.51406 211.569C4.27856 211.462 4.09541 211.266 4.00493 211.025C3.91444 210.783 3.92402 210.516 4.03155 210.281C4.13909 210.047 4.33578 209.864 4.57835 209.774C4.82091 209.684 5.08949 209.694 5.325 209.801L23.7414 218.018C23.9453 218.109 24.1115 218.267 24.2121 218.466C24.3128 218.665 24.3418 218.892 24.2942 219.109C24.2467 219.326 24.1255 219.521 23.951 219.66C23.7765 219.799 23.5593 219.874 23.336 219.872Z"
    fill="url(#paint20_linear_5767_22913)" />
  <path
    d="M170.11 163.189C169.925 163.188 169.743 163.135 169.587 163.035L153.514 152.831L138.605 143.947C138.558 143.918 138.513 143.886 138.471 143.85L126.83 133.932L112.696 125.286L98.9826 116.717L81.0446 110.054L62.6647 103.69L43.0481 97.9925L24.2951 92.0685L5.37595 86.6856C5.12754 86.6155 4.91728 86.4499 4.79144 86.2254C4.66559 86.0008 4.63446 85.7357 4.7049 85.4883C4.77533 85.2409 4.94157 85.0315 5.16703 84.9062C5.39248 84.7808 5.6587 84.7498 5.90711 84.82L24.8547 90.1988L43.6077 96.1309L63.2526 101.837L81.6934 108.233L99.7489 114.929C99.8111 114.952 99.8709 114.982 99.9273 115.017L113.713 123.635L127.917 132.317C127.961 132.345 128.003 132.376 128.043 132.41L139.676 142.344L154.536 151.187L170.175 161.113L188.421 152.265L205.609 144.359L219.046 135.071C219.085 135.044 219.126 135.019 219.168 134.998L235.265 127.067L251.058 119.201L266.758 111.504L284.404 104.748L300.959 97.8188L319.704 91.8545L338.996 86.2818C339.119 86.2463 339.247 86.2352 339.374 86.2491C339.502 86.2631 339.625 86.3018 339.737 86.3631C339.849 86.4244 339.947 86.5071 340.027 86.6064C340.107 86.7058 340.167 86.8198 340.202 86.942C340.238 87.0643 340.249 87.1923 340.235 87.3188C340.221 87.4453 340.182 87.5679 340.121 87.6794C340.059 87.791 339.976 87.8894 339.876 87.969C339.777 88.0486 339.662 88.1079 339.539 88.1434L320.288 93.7201L301.636 99.636L285.134 106.545L267.54 113.277L251.926 120.949L236.137 128.812L220.076 136.731L206.631 146.018C206.585 146.051 206.536 146.079 206.485 146.103L189.24 154.034L170.54 163.112C170.407 163.176 170.262 163.21 170.114 163.209"
    fill="url(#paint21_linear_5767_22913)" />
  <path
    d="M137.399 317.346C137.259 317.349 137.121 317.321 136.993 317.265L118.982 309.379L102.593 300.858L86.9298 292.257C86.8767 292.226 86.8265 292.191 86.7798 292.152L74.6887 282.129C74.5875 282.045 74.5045 281.942 74.4446 281.825C74.3846 281.709 74.349 281.581 74.34 281.451L72.937 261.551C72.935 261.514 72.935 261.478 72.937 261.442L73.8048 240.326L75.3131 218.706L75.5077 197.566L77.2026 175.473L80.2193 152.67L81.2857 130.637L80.4139 109.437L74.8833 99.4426C74.7749 99.2191 74.7567 98.9627 74.8324 98.7263C74.9082 98.4898 75.0722 98.2913 75.2905 98.1717C75.5089 98.0521 75.765 98.0205 76.0061 98.0834C76.2472 98.1463 76.4548 98.2989 76.5863 98.5098L82.2385 108.682C82.3121 108.813 82.3538 108.96 82.3602 109.11L83.24 130.629L82.1655 152.839L79.1448 175.667L77.458 197.643L77.2634 218.778L75.755 240.431L74.8833 261.486L76.2376 280.906L87.9394 290.597L103.501 299.146L119.813 307.626L137.78 315.488C137.984 315.579 138.15 315.737 138.25 315.936C138.351 316.135 138.38 316.362 138.333 316.579C138.285 316.796 138.164 316.991 137.989 317.13C137.815 317.269 137.598 317.344 137.374 317.342"
    fill="url(#paint22_linear_5767_22913)" />
  <path
    d="M104.601 320.18C104.357 320.18 104.122 320.088 103.942 319.924C103.763 319.759 103.652 319.534 103.631 319.292L102.07 300.078L101.259 279.709C101.255 279.65 101.255 279.591 101.259 279.532L104.503 257.124L105.995 235.427C106.016 235.172 106.136 234.935 106.33 234.766C106.524 234.598 106.777 234.512 107.033 234.526C107.161 234.535 107.285 234.569 107.4 234.626C107.514 234.682 107.617 234.761 107.701 234.857C107.785 234.953 107.849 235.064 107.889 235.185C107.93 235.306 107.946 235.433 107.938 235.56L106.441 257.33L103.198 279.722L104.009 299.961L105.566 319.134C105.576 319.261 105.561 319.389 105.522 319.51C105.483 319.632 105.42 319.744 105.337 319.841C105.255 319.938 105.153 320.018 105.039 320.076C104.925 320.135 104.801 320.17 104.674 320.18H104.592"
    fill="url(#paint23_linear_5767_22913)" />
  <path
    d="M170.12 336.753C169.863 336.753 169.616 336.651 169.433 336.471C169.251 336.29 169.148 336.044 169.147 335.788L169.025 277.804L169.175 138.019C169.176 137.762 169.28 137.517 169.462 137.336C169.644 137.155 169.891 137.054 170.149 137.054C170.406 137.055 170.652 137.157 170.834 137.339C171.016 137.521 171.118 137.767 171.118 138.023L170.968 277.804L171.089 335.788C171.089 336.044 170.987 336.29 170.806 336.472C170.624 336.653 170.378 336.756 170.12 336.757V336.753Z"
    fill="url(#paint24_linear_5767_22913)" />
  <path
    d="M287.519 256.886C287.292 256.885 287.073 256.805 286.899 256.66C286.725 256.515 286.608 256.314 286.567 256.092C286.526 255.87 286.564 255.64 286.675 255.443C286.786 255.246 286.963 255.094 287.175 255.012L305.194 248.212C305.435 248.121 305.703 248.129 305.938 248.235C306.174 248.341 306.357 248.535 306.449 248.776C306.54 249.016 306.532 249.283 306.426 249.517C306.32 249.752 306.124 249.934 305.883 250.025L287.864 256.83C287.754 256.87 287.637 256.891 287.519 256.89"
    fill="url(#paint25_linear_5767_22913)" />
  <path
    d="M120.989 328.422C120.746 328.422 120.512 328.331 120.332 328.168C120.153 328.004 120.042 327.779 120.02 327.538L118.398 308.558L117.028 288.412C117.024 288.362 117.024 288.312 117.028 288.263L118.986 266.412L118.208 246.092L106.319 236.227C106.216 236.141 106.131 236.034 106.071 235.914C106.011 235.794 105.977 235.662 105.971 235.528L104.973 215.204L91.382 206.49L76.0228 198.413L59.95 190.802L43.9421 183.396L23.5348 177.992L23.4132 177.952L5.80767 170.732C5.56894 170.634 5.37908 170.445 5.27984 170.208C5.18061 169.971 5.18014 169.704 5.27854 169.466C5.37693 169.228 5.56614 169.039 5.80452 168.94C6.04291 168.841 6.31095 168.841 6.54968 168.939L24.1106 176.127L44.5381 181.534C44.5923 181.549 44.6451 181.567 44.6962 181.59L60.7934 189.037L76.9108 196.673L92.3794 204.826L106.465 213.851C106.596 213.935 106.704 214.048 106.782 214.181C106.859 214.315 106.904 214.465 106.911 214.619L107.913 235.015L119.805 244.885C119.91 244.972 119.995 245.079 120.055 245.201C120.115 245.323 120.149 245.456 120.154 245.591L120.965 266.404C120.967 266.444 120.967 266.485 120.965 266.525L119.007 288.359L120.369 308.413L121.991 327.36C122.012 327.616 121.931 327.87 121.764 328.066C121.598 328.262 121.36 328.384 121.103 328.406H121.022"
    fill="url(#paint26_linear_5767_22913)" />
  <path
    d="M189.355 7.93766H189.319L173.1 7.34809C173.043 7.34528 172.986 7.33717 172.93 7.32386L154.367 3.2857C154.234 3.26796 154.107 3.22305 153.992 3.15378C153.877 3.0845 153.778 2.99236 153.701 2.88315C153.624 2.77393 153.57 2.64999 153.543 2.51911C153.516 2.38823 153.517 2.25324 153.545 2.1226C153.573 1.99197 153.628 1.86852 153.706 1.75999C153.784 1.65147 153.884 1.56022 153.999 1.49198C154.115 1.42373 154.243 1.37996 154.376 1.36342C154.509 1.34687 154.644 1.35791 154.773 1.39584L173.25 5.41381L189.384 6.00338C189.642 6.0082 189.887 6.11493 190.067 6.30009C190.246 6.48525 190.343 6.73368 190.339 6.99071C190.334 7.24775 190.227 7.49234 190.041 7.67069C189.855 7.84903 189.605 7.94652 189.347 7.9417"
    fill="url(#paint27_linear_5767_22913)" />
  <path
    d="M205.833 119.403C205.727 119.403 205.621 119.385 205.521 119.35L188.086 113.495L170.837 106.069L153.852 97.5887L137.228 90.7602L121.114 82.28L104.085 91.164C103.941 91.2417 103.78 91.2825 103.616 91.2825C103.453 91.2825 103.292 91.2417 103.148 91.164L86.8807 81.8399L86.7793 81.7712L70.7106 69.5921L54.9175 60.8858L38.196 49.6153L21.0892 56.254C20.8513 56.3363 20.5906 56.3235 20.362 56.2184C20.1333 56.1132 19.9545 55.9238 19.8632 55.6901C19.7718 55.4563 19.775 55.1964 19.8721 54.965C19.9691 54.7335 20.1525 54.5486 20.3837 54.449L37.9649 47.6205C38.1113 47.564 38.2693 47.5437 38.4254 47.5613C38.5814 47.5789 38.7309 47.6338 38.861 47.7214L55.9312 59.2181L71.7121 67.9122C71.7531 67.9348 71.7924 67.9605 71.8297 67.989L87.9065 80.1721L103.655 89.1893L120.632 80.3054C120.772 80.2321 120.928 80.1939 121.086 80.1939C121.244 80.1939 121.4 80.2321 121.54 80.3054L138.023 88.9914L154.647 95.8119L171.648 104.292L188.771 111.666L205.967 117.456L220.402 116.677L236.499 110.216L252.718 103.626C252.837 103.571 252.966 103.54 253.098 103.536C253.23 103.533 253.361 103.555 253.483 103.603C253.606 103.651 253.717 103.724 253.811 103.816C253.904 103.908 253.978 104.018 254.028 104.139C254.078 104.261 254.102 104.391 254.1 104.522C254.097 104.653 254.068 104.782 254.015 104.902C253.961 105.021 253.883 105.129 253.786 105.218C253.689 105.307 253.576 105.375 253.452 105.419L237.233 112.009L220.982 118.514C220.882 118.554 220.777 118.578 220.669 118.583L205.886 119.391H205.833"
    fill="url(#paint28_linear_5767_22913)" />
  <path
    d="M216.454 322.086C216.201 322.086 215.958 321.989 215.777 321.814C215.595 321.639 215.489 321.401 215.48 321.149L215.01 306.026C215.008 305.924 215.021 305.822 215.051 305.724L220.374 287.621C220.413 287.49 220.478 287.368 220.567 287.265C220.656 287.161 220.766 287.077 220.889 287.019L237.919 278.942C238.035 278.885 238.161 278.851 238.289 278.843C238.418 278.834 238.547 278.852 238.67 278.893C238.792 278.935 238.904 279.001 239.001 279.086C239.097 279.172 239.175 279.276 239.231 279.392C239.287 279.508 239.319 279.634 239.325 279.762C239.331 279.891 239.312 280.019 239.268 280.14C239.224 280.261 239.156 280.372 239.069 280.467C238.981 280.561 238.876 280.638 238.758 280.691L222.134 288.598L216.977 306.14L217.443 321.109C217.45 321.365 217.356 321.614 217.179 321.801C217.003 321.988 216.76 322.098 216.502 322.106L216.454 322.086Z"
    fill="url(#paint29_linear_5767_22913)" />
  <path
    d="M155.247 343.893C155.083 343.892 154.921 343.851 154.777 343.771L138.343 334.746L120.657 328.366L120.551 328.317L104.162 320.076C104.12 320.054 104.079 320.03 104.041 320.003L89.2207 309.633C89.1109 309.556 89.0183 309.458 88.9485 309.344C88.8787 309.23 88.8333 309.103 88.8152 308.971L86.431 291.554C86.4266 291.502 86.4266 291.449 86.431 291.396L87.0271 270.479L87.8704 249.254L90.356 227.044L90.9479 205.666C90.9455 205.625 90.9455 205.583 90.9479 205.541L94.6256 182.564L98.141 159.518L99.3087 137.385L98.4532 116.168L92.4968 107.725C92.4157 107.621 92.3566 107.502 92.323 107.375C92.2893 107.248 92.282 107.116 92.3014 106.986C92.3207 106.856 92.3663 106.732 92.4355 106.62C92.5047 106.508 92.5959 106.411 92.7037 106.336C92.8115 106.26 92.9336 106.207 93.0626 106.18C93.1916 106.153 93.3247 106.152 93.454 106.178C93.5833 106.203 93.706 106.255 93.8147 106.329C93.9234 106.404 94.0158 106.499 94.0863 106.61L100.213 115.288C100.318 115.439 100.377 115.617 100.383 115.801L101.251 137.393L100.075 159.712L96.5475 182.859L92.8982 205.779L92.3022 227.182L89.8167 249.392L88.9773 270.535L88.3854 291.364L90.7006 308.284L105.119 318.379L121.391 326.561L139.097 332.953L139.235 333.014L155.734 342.075C155.923 342.179 156.071 342.343 156.157 342.54C156.242 342.737 156.259 342.957 156.205 343.165C156.151 343.373 156.03 343.558 155.859 343.689C155.689 343.821 155.479 343.892 155.264 343.893"
    fill="url(#paint30_linear_5767_22913)" />
  <path
    d="M25.8217 259.689C25.6813 259.688 25.5429 259.656 25.4162 259.596L8.4595 251.681C8.33162 251.637 8.21453 251.566 8.11572 251.474C8.01691 251.381 7.93856 251.269 7.88569 251.145C7.83283 251.021 7.80661 250.887 7.80871 250.752C7.81082 250.617 7.8412 250.484 7.89792 250.361C7.95464 250.239 8.03644 250.129 8.13809 250.04C8.23973 249.951 8.35898 249.884 8.48819 249.843C8.6174 249.802 8.75372 249.789 8.88842 249.804C9.02313 249.818 9.15324 249.861 9.27043 249.929L26.2312 257.844C26.4303 257.937 26.5917 258.096 26.6889 258.292C26.7861 258.489 26.8133 258.713 26.7663 258.927C26.7192 259.141 26.6005 259.333 26.4297 259.472C26.2589 259.61 26.046 259.687 25.8257 259.689"
    fill="url(#paint31_linear_5767_22913)" />
  <path
    d="M170.091 186.497C169.929 186.498 169.768 186.457 169.625 186.38L151.209 176.309L136.024 167.38C135.888 167.3 135.774 167.187 135.691 167.053L128.393 155.25L115.682 146.095L99.8682 138.293L81.9343 131.566L64.4667 124.802L42.7376 119.908L42.6403 119.879L24.3536 113.717L6.69137 108.007C6.56412 107.973 6.4452 107.913 6.34183 107.832C6.23846 107.75 6.15279 107.649 6.09003 107.533C6.02726 107.418 5.98871 107.291 5.9767 107.16C5.96469 107.029 5.97949 106.897 6.02019 106.773C6.06088 106.648 6.12664 106.532 6.21345 106.433C6.30027 106.335 6.40634 106.254 6.52522 106.198C6.64411 106.141 6.77333 106.109 6.90505 106.103C7.03676 106.098 7.16823 106.119 7.29146 106.166L24.9659 111.88L43.212 118.03L64.9614 122.928C65.0085 122.939 65.0546 122.954 65.0992 122.973L82.6196 129.761L100.631 136.521L116.622 144.395C116.67 144.419 116.717 144.448 116.76 144.48L129.695 153.796C129.799 153.871 129.887 153.966 129.954 154.075L137.224 165.834L152.174 174.621L170.132 184.446L189.911 175.368L205.233 166.552L221.663 158.355L236.909 149.952L251.607 141.524L266.84 133.504L283.323 126.203L301.974 119.98L321.806 114.428L340.656 107.652C340.778 107.602 340.908 107.577 341.039 107.579C341.171 107.581 341.3 107.609 341.42 107.662C341.54 107.715 341.648 107.792 341.738 107.887C341.828 107.983 341.897 108.096 341.941 108.219C341.986 108.342 342.005 108.473 341.998 108.603C341.99 108.734 341.956 108.861 341.898 108.979C341.84 109.096 341.758 109.2 341.658 109.285C341.559 109.37 341.442 109.434 341.317 109.473L322.402 116.273L302.534 121.834L284 128.012L267.664 135.253L252.519 143.224L237.837 151.644L222.539 160.075L206.121 168.265L190.766 177.092L170.46 186.416C170.333 186.475 170.195 186.505 170.055 186.505"
    fill="url(#paint32_linear_5767_22913)" />
  <path
    d="M239.461 95.9658C239.402 95.9714 239.342 95.9714 239.283 95.9658L222.075 92.7352C221.996 92.7209 221.92 92.6964 221.848 92.6625L204.94 84.8891L204.842 84.8366L188.173 74.7412C188.112 74.7031 188.055 74.6584 188.003 74.6079L171.541 58.7258L155.282 44.669L139.237 31.0159L123.83 23.1011L107.404 29.9943C107.188 30.0845 106.946 30.0945 106.723 30.0225L86.0925 23.2869L70.6846 31.5732L55.0011 40.6429L38.7823 49.3775C38.6696 49.4437 38.5446 49.4867 38.4148 49.5037C38.285 49.5208 38.1531 49.5116 38.027 49.4767C37.9009 49.4418 37.7831 49.3819 37.6808 49.3006C37.5785 49.2193 37.4936 49.1183 37.4314 49.0036C37.3692 48.8889 37.3309 48.7629 37.3187 48.633C37.3065 48.5032 37.3207 48.3723 37.3605 48.2481C37.4004 48.1239 37.4649 48.009 37.5504 47.9103C37.6358 47.8115 37.7404 47.7309 37.8578 47.6734L54.0766 38.9509L69.7602 29.8812L85.5735 21.4011C85.6897 21.3381 85.8177 21.2995 85.9495 21.2877C86.0813 21.2759 86.2141 21.2911 86.3398 21.3324L107.019 28.0761L123.529 21.1467C123.659 21.0939 123.799 21.0694 123.938 21.075C124.078 21.0806 124.215 21.116 124.34 21.179L140.251 29.3562C140.318 29.3904 140.381 29.4324 140.438 29.4814L156.563 43.1991L172.871 57.2963L189.293 73.138L205.824 83.1406L222.569 90.8413L239.323 93.983L255.619 85.2727C255.814 85.168 256.038 85.1324 256.256 85.1717L273.691 88.3538L286.666 89.2624C286.794 89.2711 286.918 89.3048 287.033 89.3615C287.147 89.4181 287.249 89.4967 287.333 89.5927C287.417 89.6887 287.481 89.8003 287.522 89.921C287.563 90.0417 287.579 90.1692 287.57 90.2962C287.562 90.4232 287.529 90.5474 287.472 90.6614C287.415 90.7755 287.336 90.8771 287.239 90.9605C287.143 91.044 287.031 91.1074 286.909 91.1473C286.788 91.1871 286.66 91.2025 286.532 91.1926L273.505 90.28H273.399L256.223 87.1464L239.924 95.8567C239.783 95.933 239.625 95.9733 239.465 95.9738"
    fill="url(#paint33_linear_5767_22913)" />
  <path
    d="M170.204 349.953C170.002 349.954 169.806 349.892 169.641 349.776C169.476 349.66 169.351 349.497 169.284 349.307C169.217 349.118 169.21 348.913 169.266 348.719C169.321 348.526 169.435 348.355 169.592 348.229L182.34 337.984L182.421 337.924L197.987 327.881L197.792 314.252C197.791 314.168 197.801 314.084 197.82 314.002L202.52 295.563C202.556 295.421 202.624 295.289 202.719 295.177C202.814 295.066 202.933 294.977 203.067 294.917L220.385 287.245L222.688 267.954L225.214 247.998L225.619 226.846L223.766 204.386L221.605 181.574L221.135 159.255L218.617 135.987C218.613 135.935 218.613 135.882 218.617 135.83L219.655 117.597C219.677 117.347 219.796 117.114 219.988 116.95C220.179 116.785 220.427 116.701 220.679 116.715C220.931 116.729 221.168 116.84 221.34 117.026C221.511 117.211 221.603 117.455 221.597 117.706L220.563 135.878L223.081 159.15L223.552 181.485L225.709 204.236L227.566 226.757C227.566 226.789 227.566 226.822 227.566 226.854L227.16 248.107C227.162 248.142 227.162 248.177 227.16 248.212L224.626 268.209L222.258 288.036C222.238 288.203 222.175 288.362 222.075 288.497C221.974 288.632 221.841 288.739 221.686 288.807L204.296 296.528L199.742 314.389L199.945 328.426C199.944 328.587 199.903 328.745 199.825 328.886C199.747 329.027 199.635 329.146 199.499 329.234L183.524 339.539L170.812 349.751C170.64 349.89 170.425 349.966 170.204 349.965"
    fill="url(#paint34_linear_5767_22913)" />
  <path
    d="M75.3029 282.351C75.1622 282.349 75.0238 282.316 74.8974 282.254L58.5408 274.445L40.7366 267.547L40.6393 267.503L25.3815 259.576C25.2416 259.503 25.1216 259.397 25.0319 259.268C24.9421 259.139 24.8854 258.989 24.8666 258.833L22.5594 239.494C22.5594 239.458 22.5594 239.422 22.5594 239.389L22.377 218.912C22.3759 218.784 22.4 218.658 22.4479 218.54C22.4959 218.422 22.5666 218.315 22.6563 218.224C22.7459 218.133 22.8526 218.061 22.9702 218.011C23.0879 217.962 23.2142 217.936 23.342 217.935C23.5987 217.935 23.845 218.036 24.0273 218.216C24.2095 218.396 24.313 218.64 24.3151 218.896L24.4976 239.321L26.7358 258.098L41.4908 265.771L59.3112 272.68L75.7327 280.518C75.9296 280.613 76.0886 280.771 76.1842 280.967C76.2798 281.163 76.3063 281.385 76.2594 281.598C76.2126 281.811 76.0951 282.002 75.926 282.14C75.7568 282.278 75.5459 282.355 75.3272 282.359"
    fill="url(#paint35_linear_5767_22913)" />
  <path
    d="M89.769 309.794C89.5476 309.794 89.3327 309.719 89.1608 309.58L75.237 298.39L59.5494 290.907L41.3032 287.935C41.2382 287.924 41.1744 287.906 41.1127 287.883L24.8939 281.737L24.7844 281.688L8.54132 273.144C8.42253 273.088 8.31637 273.008 8.22921 272.91C8.14206 272.812 8.07572 272.698 8.03421 272.574C7.9927 272.45 7.97687 272.318 7.98767 272.188C7.99847 272.057 8.03569 271.93 8.09707 271.815C8.15845 271.699 8.24273 271.597 8.34482 271.514C8.44691 271.432 8.5647 271.371 8.69109 271.335C8.81747 271.299 8.94984 271.29 9.08019 271.306C9.21055 271.323 9.3362 271.365 9.44957 271.431L25.64 279.948L41.7371 286.041L60.0319 289.018C60.1232 289.032 60.2119 289.059 60.2954 289.098L76.2101 296.686C76.2782 296.719 76.3421 296.759 76.4007 296.807L90.4096 308.07C90.5667 308.195 90.6807 308.367 90.7358 308.56C90.7909 308.753 90.7843 308.959 90.7171 309.148C90.6499 309.337 90.5253 309.501 90.3605 309.617C90.1958 309.732 89.999 309.794 89.7974 309.794"
    fill="url(#paint36_linear_5767_22913)" />
  <path
    d="M188.923 33.8625C188.683 33.8626 188.452 33.7749 188.274 33.6161L172.298 19.321L156.615 12.0806L137.367 7.5417L120.123 11.6727C119.871 11.7327 119.607 11.6909 119.387 11.5565C119.166 11.4221 119.009 11.206 118.949 10.956C118.889 10.7059 118.931 10.4422 119.065 10.223C119.2 10.0038 119.417 9.8469 119.668 9.78692L137.14 5.59935C137.288 5.56324 137.442 5.56324 137.59 5.59935L157.154 10.2109C157.218 10.2259 157.281 10.2475 157.341 10.2755L173.247 17.621C173.334 17.6617 173.415 17.7147 173.486 17.7785L189.17 31.8151L204.817 27.4095L217.099 25.1521C217.225 25.1271 217.355 25.1273 217.482 25.1527C217.608 25.1782 217.728 25.2285 217.835 25.3006C217.942 25.3727 218.033 25.4652 218.104 25.5727C218.174 25.6802 218.222 25.8006 218.246 25.927C218.269 26.0533 218.267 26.1829 218.24 26.3084C218.212 26.434 218.16 26.5528 218.086 26.658C218.012 26.7633 217.918 26.8529 217.809 26.9216C217.7 26.9902 217.579 27.0367 217.451 27.0581L205.259 29.2953L189.182 33.8221C189.096 33.846 189.008 33.8582 188.919 33.8584"
    fill="url(#paint37_linear_5767_22913)" />
  <path
    d="M170.015 256.361C169.886 256.361 169.757 256.335 169.638 256.284L144.158 245.619C144.086 245.59 144.018 245.552 143.956 245.506L130.389 235.532C130.269 235.447 130.171 235.337 130.101 235.209C130.03 235.081 129.99 234.939 129.983 234.793L129.103 213.831L119.072 203.033C118.973 202.925 118.9 202.797 118.857 202.657C118.815 202.517 118.805 202.369 118.829 202.225L122.883 178.667L128.154 154.527L126.447 133.225L125.876 122.128C125.864 121.998 125.878 121.867 125.919 121.743C125.959 121.619 126.024 121.504 126.11 121.405C126.196 121.306 126.301 121.226 126.419 121.169C126.537 121.112 126.665 121.079 126.796 121.073C126.927 121.066 127.058 121.086 127.181 121.131C127.304 121.176 127.417 121.246 127.512 121.335C127.608 121.425 127.684 121.533 127.736 121.652C127.789 121.772 127.817 121.901 127.818 122.031L128.39 133.1L130.105 154.502C130.118 154.596 130.118 154.691 130.105 154.785L124.813 179.014L120.868 202.056L130.818 212.765C130.976 212.934 131.067 213.153 131.078 213.383L131.954 234.236L145.054 243.867L169.991 254.31L193.508 243.16L208.344 233.784C208.384 233.757 208.426 233.734 208.47 233.715L226.181 225.893L242.351 217.619L260.191 210.233L276.252 202.346L291.98 194.476L305.576 185.952L317.472 177.31L318.944 157.26L319.066 136.036L321.093 115.328L319.029 92.8396C319.025 92.7939 319.025 92.748 319.029 92.7023L319.941 74.8455C319.946 74.7176 319.976 74.592 320.031 74.476C320.085 74.36 320.162 74.256 320.257 74.1702C320.352 74.0844 320.464 74.0184 320.585 73.9763C320.707 73.9341 320.835 73.9166 320.963 73.9248C321.221 73.9384 321.462 74.0532 321.635 74.244C321.807 74.4348 321.897 74.686 321.884 74.9424L320.975 92.7305L323.043 115.243C323.05 115.304 323.05 115.365 323.043 115.425L321.016 136.137L320.894 157.337L319.386 177.899C319.374 178.04 319.332 178.177 319.262 178.299C319.192 178.422 319.096 178.528 318.981 178.61L306.666 187.551L292.933 196.16L277.12 204.079L260.994 211.994L243.154 219.375L227.004 227.637L209.309 235.451L194.485 244.824L194.384 244.88L170.408 256.24C170.282 256.3 170.143 256.331 170.003 256.333"
    fill="url(#paint38_linear_5767_22913)" />
  <path
    d="M221.322 41.1389C221.116 41.1392 220.916 41.0742 220.75 40.9532L204.531 29.1254L188.499 15.9206L173.038 7.42027L157.225 12.0844L140.783 16.6354C140.623 16.6776 140.454 16.6776 140.293 16.6354L119.934 11.725L103.046 16.8373C102.802 16.9056 102.54 16.8758 102.317 16.7543C102.093 16.6327 101.927 16.429 101.853 16.1868C101.779 15.9446 101.803 15.6831 101.92 15.4583C102.037 15.2334 102.237 15.0631 102.479 14.9838L119.618 9.79068C119.785 9.74669 119.961 9.74669 120.129 9.79068L140.5 14.7051L156.682 10.2268L172.868 5.45369C172.992 5.41707 173.121 5.40536 173.249 5.41923C173.377 5.43309 173.502 5.47227 173.614 5.53445L189.509 14.273C189.562 14.3016 189.612 14.3354 189.659 14.374L205.715 27.603L221.898 39.4066C222.064 39.5271 222.187 39.6971 222.251 39.892C222.314 40.0869 222.313 40.2967 222.25 40.4914C222.186 40.686 222.061 40.8555 221.895 40.9755C221.728 41.0954 221.527 41.1597 221.322 41.1591"
    fill="url(#paint39_linear_5767_22913)" />
  <path
    d="M282.037 55.8951H281.915L262.453 53.4722C262.335 53.4576 262.221 53.422 262.116 53.3672L246.465 45.0203L231.256 36.3705L216.744 26.9253C216.681 26.8836 216.622 26.8349 216.57 26.7799L204.73 14.3464L189.136 16.0868L173.108 19.4385L156.763 25.6008C156.631 25.6486 156.491 25.6676 156.351 25.6565C156.211 25.6453 156.075 25.6043 155.952 25.5361L140.435 16.7774L124.216 22.9356C124.019 23.0106 123.803 23.0191 123.6 22.9598L102.787 16.9429L86.3414 23.1455C86.1 23.2366 85.8322 23.2284 85.5968 23.1227C85.3615 23.0171 85.1779 22.8227 85.0865 22.5822C84.9951 22.3418 85.0033 22.075 85.1094 21.8406C85.2155 21.6063 85.4107 21.4234 85.6521 21.3324L102.402 15.0167C102.599 14.9417 102.816 14.9332 103.018 14.9925L123.823 21.0053L140.155 14.8027C140.287 14.7543 140.428 14.735 140.568 14.7462C140.708 14.7573 140.844 14.7987 140.966 14.8673L156.484 23.6261L172.471 17.6011L172.613 17.5608L188.808 14.1768L204.974 12.3677C205.122 12.3529 205.273 12.3717 205.413 12.4228C205.553 12.4738 205.68 12.5557 205.785 12.6625L217.88 25.3665L232.246 34.7189L247.39 43.3364L262.858 51.5863L282.126 53.9769C282.371 54.0085 282.594 54.1314 282.751 54.3207C282.908 54.51 282.987 54.7516 282.973 54.9967C282.958 55.2419 282.85 55.4722 282.671 55.6412C282.492 55.8102 282.255 55.9053 282.009 55.9072"
    fill="url(#paint40_linear_5767_22913)" />
  <path
    d="M106.952 236.461C106.793 236.461 106.635 236.422 106.494 236.348L90.8593 228.001L75.8123 219.598L59.0583 212.248L40.7027 205.751L21.5929 199.694C21.5457 199.678 21.4996 199.659 21.4551 199.637L4.42538 191.209C4.30777 191.155 4.20231 191.077 4.11521 190.982C4.0281 190.886 3.9611 190.774 3.91815 190.652C3.8752 190.53 3.85716 190.401 3.86511 190.272C3.87305 190.143 3.90681 190.017 3.9644 189.901C4.02199 189.785 4.10225 189.682 4.20046 189.597C4.29866 189.513 4.41284 189.449 4.53625 189.409C4.65967 189.369 4.78985 189.354 4.91913 189.365C5.0484 189.376 5.17417 189.413 5.28903 189.473L22.2417 197.864L41.2988 203.897L59.7557 210.431L76.6597 217.849L91.7756 226.285L107.394 234.62C107.585 234.722 107.735 234.885 107.822 235.083C107.909 235.28 107.927 235.5 107.874 235.709C107.821 235.918 107.7 236.103 107.529 236.236C107.358 236.368 107.148 236.441 106.932 236.441"
    fill="url(#paint41_linear_5767_22913)" />
  <path
    d="M205.102 14.2936C204.977 14.2932 204.853 14.2685 204.737 14.2209L188.997 7.86482L173.273 1.95295L154.718 3.30169L137.587 7.48523C137.34 7.53695 137.082 7.49095 136.869 7.35694C136.655 7.22293 136.502 7.01141 136.442 6.76708C136.382 6.52275 136.42 6.26476 136.547 6.04762C136.675 5.83048 136.882 5.6712 137.125 5.60345L154.337 1.39972C154.391 1.38776 154.445 1.37966 154.499 1.37549L173.346 0.00251231C173.484 -0.00763901 173.622 0.0130563 173.751 0.0630848L189.686 6.05976L205.459 12.4239C205.667 12.509 205.839 12.6633 205.946 12.8606C206.052 13.0578 206.087 13.2858 206.044 13.5057C206.001 13.7256 205.883 13.9239 205.71 14.0668C205.537 14.2097 205.319 14.2884 205.094 14.2895"
    fill="url(#paint42_linear_5767_22913)" />
  <path
    d="M138.748 334.831C138.503 334.831 138.267 334.739 138.088 334.573C137.908 334.408 137.798 334.181 137.778 333.939L136.424 316.453C136.417 316.205 136.506 315.963 136.673 315.778C136.841 315.593 137.073 315.479 137.322 315.459C137.571 315.44 137.818 315.517 138.012 315.674C138.205 315.832 138.331 316.057 138.362 316.304L139.717 333.789C139.727 333.916 139.711 334.044 139.672 334.165C139.632 334.286 139.569 334.398 139.486 334.495C139.402 334.592 139.301 334.671 139.187 334.729C139.073 334.787 138.948 334.821 138.821 334.831H138.744"
    fill="url(#paint43_linear_5767_22913)" />
  <path
    d="M305.539 250.082C305.411 250.08 305.285 250.053 305.168 250.002C305.051 249.951 304.944 249.878 304.856 249.787C304.767 249.695 304.697 249.587 304.65 249.469C304.603 249.35 304.58 249.224 304.582 249.097L304.915 228.579L304.744 207.665C304.743 207.524 304.773 207.384 304.832 207.256C304.891 207.128 304.977 207.014 305.085 206.922L316.264 197.376C316.349 197.303 316.446 197.245 316.552 197.206L332.985 191.008C333.105 190.963 333.232 190.941 333.36 190.945C333.488 190.949 333.613 190.978 333.73 191.03C333.846 191.083 333.951 191.157 334.039 191.25C334.127 191.343 334.195 191.452 334.24 191.571C334.285 191.69 334.307 191.817 334.303 191.944C334.299 192.071 334.27 192.197 334.217 192.313C334.165 192.429 334.09 192.533 333.997 192.62C333.904 192.708 333.794 192.776 333.675 192.821L317.399 198.959L306.695 208.101L306.861 228.591L306.528 249.133C306.524 249.387 306.42 249.63 306.238 249.808C306.056 249.986 305.811 250.086 305.555 250.086"
    fill="url(#paint44_linear_5767_22913)" />
  <path
    d="M319.069 241.404C318.852 241.403 318.642 241.33 318.472 241.196C318.302 241.062 318.181 240.876 318.13 240.666C318.078 240.457 318.098 240.236 318.187 240.039C318.275 239.842 318.427 239.68 318.619 239.579L333.945 231.596C334.059 231.53 334.185 231.487 334.316 231.471C334.446 231.455 334.579 231.466 334.705 231.502C334.831 231.538 334.949 231.6 335.051 231.683C335.153 231.766 335.237 231.868 335.298 231.984C335.359 232.1 335.395 232.228 335.405 232.358C335.416 232.489 335.399 232.62 335.357 232.744C335.314 232.869 335.247 232.983 335.159 233.08C335.072 233.178 334.965 233.257 334.845 233.312L319.515 241.295C319.376 241.368 319.221 241.405 319.064 241.404"
    fill="url(#paint45_linear_5767_22913)" />
  <path
    d="M170.087 317.547C169.947 317.548 169.809 317.517 169.682 317.459L148.439 307.698C148.396 307.679 148.354 307.656 148.314 307.63L133.543 297.966L117.551 289.208L101.738 280.518L87.4488 271.302L73.4114 262.326L57.3832 254.471L39.7007 247.578L23.1291 240.261L23.0197 240.205L8.885 231.68C8.77265 231.612 8.67522 231.523 8.59856 231.416C8.52191 231.31 8.46763 231.19 8.43899 231.062L3.97882 210.896C3.96343 210.828 3.95528 210.759 3.9545 210.69L3.89368 190.357L5.20334 169.763L5.81155 149.136L3.9545 128.283C3.94828 128.224 3.94828 128.164 3.9545 128.105L6.01023 107.074L4.67623 85.874L0.775616 62.9413C0.749433 62.8138 0.749273 62.6825 0.775146 62.555C0.801019 62.4275 0.852395 62.3065 0.926214 62.1992C1.00003 62.0919 1.09478 62.0005 1.20482 61.9304C1.31486 61.8604 1.43793 61.8131 1.5667 61.7914C1.69548 61.7697 1.82732 61.7741 1.95437 61.8042C2.08142 61.8343 2.20108 61.8896 2.30622 61.9667C2.41137 62.0439 2.49984 62.1413 2.56637 62.2533C2.63291 62.3652 2.67614 62.4893 2.69349 62.6182L6.58599 85.5994C6.588 85.633 6.588 85.6667 6.58599 85.7004L7.9281 107.026C7.93244 107.077 7.93244 107.128 7.9281 107.179L5.87642 128.178L7.73347 149.015C7.73584 149.052 7.73584 149.09 7.73347 149.128L7.12121 169.844L5.81155 190.394L5.86426 210.556L10.2231 230.214L23.9441 238.496L40.4265 245.765L58.1536 252.674L74.3075 260.585L74.4048 260.638L88.4949 269.647L102.727 278.83L134.516 296.27L149.295 305.934L170.002 315.46L187.819 304.928L189.473 285.141C189.486 284.983 189.538 284.83 189.624 284.696C189.71 284.562 189.828 284.452 189.968 284.374L206.101 275.425L223.212 267.151L237.858 258.449L241.3 239.498L241.807 218.447L240.185 196.237L239.492 174.173L236.398 150.897L234.731 128C234.728 127.954 234.728 127.909 234.731 127.863L235.895 111.08C235.916 110.825 236.036 110.588 236.23 110.419C236.424 110.251 236.676 110.165 236.933 110.18C237.061 110.188 237.185 110.222 237.3 110.279C237.414 110.335 237.516 110.414 237.6 110.51C237.684 110.606 237.748 110.718 237.789 110.838C237.83 110.959 237.846 111.086 237.837 111.213L236.678 127.927L238.36 150.735L241.454 174.003C241.454 174.035 241.454 174.067 241.454 174.1L242.147 196.172L243.769 218.443L243.263 239.659C243.266 239.709 243.266 239.759 243.263 239.809L239.727 259.269C239.702 259.405 239.649 259.535 239.57 259.649C239.491 259.763 239.388 259.859 239.269 259.931L224.169 268.896L207.034 277.182L191.403 285.852L189.753 305.639C189.739 305.793 189.689 305.941 189.606 306.071C189.524 306.202 189.412 306.311 189.278 306.39L170.59 317.438C170.441 317.528 170.27 317.575 170.096 317.576"
    fill="url(#paint46_linear_5767_22913)" />
  <path
    d="M59.8572 290.94C59.6087 290.939 59.3699 290.844 59.1897 290.673C59.0095 290.503 58.9016 290.27 58.8882 290.023L56.8608 253.655L56.1878 233.259C56.1848 233.214 56.1848 233.17 56.1878 233.125L58.4827 211.259L59.4072 189.881L62.5455 167.267L64.0458 145.311L63.7741 123.909L62.0306 103.024L57.1649 90.9336C57.08 90.6976 57.0901 90.4381 57.1932 90.2094C57.2963 89.9808 57.4843 89.8008 57.7178 89.7072C57.9513 89.6137 58.2121 89.6139 58.4454 89.7078C58.6788 89.8016 58.8665 89.9819 58.9693 90.2107L63.9079 102.434C63.9451 102.524 63.9683 102.62 63.9768 102.717L65.7366 123.816L66.0123 145.364L64.4999 167.465L61.3656 190.079L60.4452 211.428L58.1543 233.287L58.8233 253.595L60.8507 289.938C60.865 290.195 60.7766 290.446 60.6048 290.638C60.433 290.83 60.1918 290.945 59.9343 290.96H59.8816"
    fill="url(#paint47_linear_5767_22913)" />
  <path
    d="M75.7717 298.532C75.5184 298.532 75.2751 298.433 75.0934 298.258C74.9117 298.082 74.8059 297.843 74.7985 297.591L74.3363 281.414C74.3328 281.286 74.3546 281.16 74.4003 281.041C74.446 280.922 74.5148 280.813 74.6027 280.721C74.6906 280.628 74.7959 280.554 74.9127 280.502C75.0294 280.45 75.1553 280.422 75.2831 280.418C75.4108 280.415 75.5381 280.437 75.6575 280.482C75.7768 280.528 75.8861 280.596 75.9789 280.684C76.0717 280.771 76.1463 280.876 76.1984 280.992C76.2505 281.109 76.2791 281.234 76.2826 281.361L76.7448 297.538C76.7486 297.665 76.7271 297.792 76.6817 297.911C76.6362 298.03 76.5677 298.139 76.48 298.232C76.3922 298.324 76.287 298.399 76.1704 298.451C76.0537 298.503 75.9278 298.532 75.8 298.536L75.7717 298.532Z"
    fill="url(#paint48_linear_5767_22913)" />
  <path
    d="M170.206 349.957C170.08 349.957 169.956 349.933 169.841 349.885L154.887 343.828C154.738 343.768 154.606 343.672 154.503 343.548C154.401 343.425 154.33 343.278 154.299 343.121L150.95 326.431L147.884 306.967L145.123 287.124L143.538 266.428L143.562 244.731L143.226 223.074C143.222 223.023 143.222 222.972 143.226 222.921L146.672 199.334L150.727 175.303L153.079 151.922L154.457 132.446C154.466 132.319 154.5 132.195 154.557 132.081C154.615 131.967 154.694 131.866 154.79 131.782C154.887 131.699 154.999 131.635 155.12 131.595C155.242 131.554 155.37 131.538 155.497 131.547C155.625 131.556 155.749 131.59 155.864 131.647C155.978 131.704 156.08 131.783 156.164 131.879C156.247 131.975 156.311 132.087 156.352 132.208C156.392 132.329 156.408 132.456 156.399 132.583L155.017 152.087L152.657 175.561L148.602 199.633L145.172 223.123L145.508 244.719L145.484 266.359L147.061 286.922L149.814 306.689L152.868 326.092L156.111 342.245L170.583 348.112C170.791 348.197 170.963 348.351 171.069 348.549C171.176 348.746 171.211 348.974 171.168 349.194C171.125 349.414 171.007 349.612 170.834 349.755C170.66 349.898 170.443 349.977 170.218 349.978"
    fill="url(#paint49_linear_5767_22913)" />
  <path
    d="M318.442 178.82C318.218 178.822 318.001 178.747 317.826 178.608C317.652 178.469 317.531 178.275 317.483 178.058C317.436 177.84 317.465 177.613 317.565 177.415C317.666 177.216 317.832 177.058 318.036 176.967L332.633 170.474C332.869 170.366 333.137 170.357 333.38 170.447C333.622 170.537 333.819 170.72 333.926 170.954C334.034 171.189 334.044 171.456 333.953 171.698C333.863 171.939 333.679 172.135 333.444 172.242L318.847 178.736C318.72 178.793 318.581 178.822 318.442 178.82Z"
    fill="url(#paint50_linear_5767_22913)" />
  <path
    d="M170.001 278.765C169.862 278.766 169.723 278.737 169.596 278.68L144.104 267.232C144.029 267.198 143.958 267.154 143.893 267.103L130.946 256.733C130.837 256.645 130.748 256.534 130.686 256.409C130.624 256.283 130.589 256.146 130.586 256.006L130.002 235.234L117.497 225.494L105.305 215.398C105.182 215.298 105.087 215.169 105.026 215.023C104.965 214.878 104.941 214.719 104.956 214.562L107.003 192.683L95.0949 183.557L77.7975 176.422L77.6962 176.373L63.0993 168.261L45.3113 161.666L25.4109 156.106L6.48764 150.049C6.36491 150.01 6.25108 149.947 6.15267 149.864C6.05425 149.781 5.97317 149.68 5.91406 149.566C5.85495 149.452 5.81896 149.328 5.80815 149.2C5.79734 149.072 5.81192 148.943 5.85105 148.821C5.89019 148.699 5.95312 148.585 6.03624 148.487C6.11937 148.389 6.22106 148.309 6.33552 148.25C6.44998 148.191 6.57497 148.155 6.70334 148.144C6.8317 148.133 6.96094 148.148 7.08368 148.187L25.9704 154.244L45.9114 159.821L63.8453 166.468C63.8916 166.486 63.9363 166.507 63.9791 166.532L78.6004 174.653L95.9626 181.817C96.0422 181.85 96.1172 181.893 96.1856 181.946L108.621 191.496C108.751 191.596 108.852 191.727 108.918 191.877C108.983 192.026 109.009 192.19 108.994 192.352L106.943 214.251L118.701 223.983L131.542 233.986C131.655 234.074 131.747 234.185 131.811 234.312C131.876 234.439 131.911 234.578 131.916 234.721L132.499 255.501L144.996 265.512L169.928 276.71L192.257 264.191L208.882 255.517L225.733 247.199L241.814 238.783C241.856 238.761 241.899 238.742 241.944 238.727L261.167 232.031L277.098 224.008L292.708 216.068L304.706 207.185L305.112 186.796L303.599 164.99L303.011 143.277L301.296 120.994L300.327 98.7841C300.322 98.729 300.322 98.6736 300.327 98.6185L302.355 82.8414C302.368 82.7131 302.408 82.5889 302.47 82.476C302.533 82.363 302.617 82.2637 302.719 82.1837C302.821 82.1038 302.937 82.0448 303.062 82.0103C303.187 81.9759 303.317 81.9666 303.446 81.983C303.574 81.9994 303.698 82.0411 303.81 82.1058C303.922 82.1705 304.02 82.2569 304.098 82.3597C304.177 82.4626 304.233 82.58 304.265 82.7051C304.297 82.8301 304.304 82.9602 304.285 83.0877L302.257 98.7841L303.218 120.897L304.933 143.196L305.525 164.917L307.038 186.776L306.632 207.726C306.628 207.875 306.589 208.021 306.519 208.152C306.448 208.284 306.349 208.398 306.227 208.485L293.779 217.708C293.736 217.74 293.689 217.769 293.641 217.793L278.006 225.72L262.018 233.796L261.901 233.844L242.686 240.52L226.649 248.911L209.794 257.217L193.21 265.867L170.48 278.62C170.334 278.702 170.169 278.745 170.001 278.745"
    fill="url(#paint51_linear_5767_22913)" />
  <path
    d="M170.153 138.98C170.037 138.98 169.922 138.959 169.813 138.919L155.078 133.415C154.844 133.319 154.658 133.136 154.557 132.905C154.456 132.674 154.45 132.414 154.539 132.178C154.628 131.943 154.805 131.751 155.034 131.643C155.262 131.536 155.524 131.521 155.763 131.602L170.133 136.969L187.463 129.644C187.699 129.549 187.964 129.55 188.2 129.647C188.435 129.745 188.623 129.931 188.723 130.165C188.822 130.399 188.825 130.663 188.731 130.899C188.638 131.135 188.454 131.325 188.221 131.428L170.534 138.903C170.414 138.954 170.284 138.98 170.153 138.98Z"
    fill="url(#paint52_linear_5767_22913)" />
  <path
    d="M155.422 133.476C155.306 133.476 155.19 133.455 155.081 133.415L140.407 127.939C140.178 127.841 139.996 127.658 139.898 127.429C139.8 127.2 139.795 126.943 139.882 126.71C139.97 126.477 140.144 126.287 140.368 126.178C140.593 126.069 140.851 126.051 141.088 126.126L155.426 131.477L170.185 126.062L188.026 120.602C188.157 120.562 188.295 120.55 188.431 120.566L205.213 122.455C205.34 122.47 205.463 122.509 205.575 122.57C205.687 122.632 205.786 122.715 205.865 122.815C205.945 122.914 206.004 123.028 206.039 123.151C206.075 123.273 206.085 123.401 206.071 123.528C206.057 123.654 206.017 123.776 205.956 123.888C205.894 123.999 205.81 124.097 205.71 124.177C205.61 124.256 205.496 124.315 205.373 124.35C205.25 124.385 205.121 124.396 204.995 124.382L188.411 122.512L170.801 127.895L155.754 133.419C155.647 133.459 155.533 133.479 155.418 133.48"
    fill="url(#paint53_linear_5767_22913)" />
  <path
    d="M170.205 349.954C169.948 349.954 169.702 349.853 169.52 349.673C169.337 349.493 169.234 349.248 169.232 348.993L169.147 335.788C169.145 335.641 169.177 335.497 169.241 335.364C169.304 335.232 169.396 335.116 169.511 335.025L183.97 323.524L198.202 313.449C198.247 313.417 198.295 313.389 198.344 313.364L215.544 305.118L231.544 296.533L231.637 296.489L249.275 289.325L257.385 252.271L260.604 232.847L259.627 211.239L256.043 188.177L252.75 165.038L251.128 142.425L250.52 120.073C250.517 120.032 250.517 119.99 250.52 119.948L252.114 104.442C252.121 104.311 252.155 104.183 252.214 104.066C252.272 103.948 252.354 103.844 252.454 103.759C252.554 103.674 252.671 103.611 252.796 103.572C252.922 103.533 253.054 103.52 253.185 103.533C253.315 103.546 253.442 103.586 253.557 103.649C253.672 103.713 253.773 103.799 253.854 103.902C253.934 104.006 253.993 104.125 254.027 104.251C254.06 104.378 254.067 104.51 254.048 104.639L252.458 120.085L253.062 142.328L254.684 164.836L257.969 187.894L261.557 210.997C261.557 211.033 261.557 211.065 261.557 211.102L262.542 232.863C262.549 232.93 262.549 232.998 262.542 233.065L259.299 252.638L251.076 290.237C251.042 290.391 250.972 290.535 250.87 290.655C250.768 290.775 250.638 290.869 250.492 290.928L232.424 298.265L216.432 306.846L199.269 315.08L185.15 325.075L171.101 336.248L171.182 348.985C171.183 349.241 171.082 349.487 170.901 349.67C170.72 349.852 170.474 349.956 170.217 349.958L170.205 349.954Z"
    fill="url(#paint54_linear_5767_22913)" />
  <path
    d="M268.727 302.982C268.48 302.981 268.243 302.888 268.063 302.72C267.883 302.552 267.774 302.322 267.758 302.077L266.428 282.533C266.415 282.443 266.415 282.352 266.428 282.262L270.503 263.634C270.534 263.492 270.597 263.359 270.686 263.244C270.776 263.129 270.891 263.036 271.022 262.972L286.612 255.299L289.333 236.368L292.264 216.848L291.453 195.474L288.278 172.792L283.92 149.451C283.916 149.409 283.916 149.367 283.92 149.326L282.748 127.16C282.746 127.128 282.746 127.096 282.748 127.063L283.778 105.617L285.619 90.1424C285.661 89.8973 285.796 89.6777 285.996 89.5289C286.196 89.3802 286.446 89.3137 286.693 89.3433C286.941 89.3729 287.168 89.4962 287.328 89.6878C287.487 89.8794 287.566 90.1245 287.549 90.3726L285.712 105.778L284.69 127.108L285.858 149.164L290.213 172.485L293.404 195.26C293.404 195.292 293.404 195.324 293.404 195.357L294.214 216.872C294.219 216.931 294.219 216.991 294.214 217.05L291.271 236.655L288.481 256.087C288.459 256.242 288.399 256.39 288.306 256.517C288.214 256.645 288.091 256.748 287.95 256.818L272.319 264.531L268.374 282.573L269.696 301.98C269.712 302.236 269.627 302.488 269.457 302.681C269.288 302.874 269.048 302.993 268.792 303.01H268.723"
    fill="url(#paint55_linear_5767_22913)" />
  <path
    d="M238.764 260.052C238.534 260.051 238.312 259.969 238.137 259.821C237.962 259.672 237.845 259.467 237.808 259.241C237.77 259.015 237.815 258.783 237.933 258.586C238.051 258.39 238.235 258.241 238.452 258.167L258.02 251.56L275.403 244.219L289.813 235.646L305.375 227.755L318.394 218.984L331.97 211.421C332.081 211.356 332.205 211.314 332.333 211.297C332.461 211.28 332.592 211.289 332.716 211.323C332.841 211.357 332.958 211.415 333.06 211.495C333.162 211.574 333.247 211.673 333.31 211.785C333.373 211.898 333.413 212.022 333.427 212.15C333.442 212.278 333.43 212.407 333.394 212.531C333.357 212.654 333.297 212.769 333.215 212.869C333.133 212.969 333.033 213.052 332.918 213.113L319.416 220.632L306.417 229.395L306.311 229.455L290.754 237.342L276.343 245.915L276.222 245.975L258.709 253.369L239.073 260C238.972 260.034 238.867 260.052 238.76 260.052"
    fill="url(#paint56_linear_5767_22913)" />
  <path
    d="M198.969 329.375C198.745 329.375 198.527 329.297 198.354 329.155C198.181 329.014 198.062 328.817 198.017 328.598C197.973 328.379 198.006 328.151 198.111 327.954C198.215 327.756 198.385 327.601 198.592 327.514L215.97 320.245L230.912 310.291L231.029 297.369C231.03 297.261 231.049 297.155 231.086 297.054L237.391 279.46C237.472 279.232 237.636 279.044 237.849 278.931L253.744 270.511L270.631 263.133L274.881 244.925L276.592 224.823L275.744 203.344L270.94 179.866L268.507 157.148L266.325 134.445L266.208 112.356C266.202 112.296 266.202 112.235 266.208 112.175L269.006 97.1326C269.053 96.8798 269.199 96.6561 269.412 96.5107C269.625 96.3653 269.887 96.3101 270.141 96.3572C270.395 96.4044 270.619 96.55 270.765 96.762C270.911 96.9741 270.967 97.2352 270.919 97.4879L268.138 112.429L268.251 134.34L270.429 156.954L272.837 179.568L277.642 203.033C277.646 203.084 277.646 203.136 277.642 203.187L278.494 224.803C278.496 224.843 278.496 224.884 278.494 224.924L276.77 245.155C276.767 245.202 276.76 245.248 276.75 245.293L272.375 264.042C272.341 264.189 272.273 264.326 272.177 264.443C272.08 264.559 271.958 264.651 271.82 264.712L254.555 272.256L239.058 280.465L232.935 297.551L232.813 310.824C232.814 310.984 232.774 311.141 232.698 311.282C232.623 311.423 232.513 311.543 232.379 311.632L216.935 321.925C216.883 321.96 216.827 321.99 216.769 322.014L199.301 329.303C199.182 329.354 199.054 329.38 198.924 329.379"
    fill="url(#paint57_linear_5767_22913)" />
  <path
    d="M249.714 306.132H249.689C249.432 306.124 249.188 306.016 249.011 305.829C248.834 305.643 248.738 305.395 248.744 305.138L249.15 290.007C249.157 289.75 249.266 289.506 249.454 289.33C249.641 289.153 249.891 289.057 250.149 289.064C250.407 289.071 250.652 289.18 250.83 289.367C251.007 289.553 251.103 289.803 251.096 290.06L250.691 305.187C250.684 305.44 250.579 305.68 250.397 305.856C250.215 306.033 249.971 306.132 249.718 306.132"
    fill="url(#paint58_linear_5767_22913)" />
  <path
    d="M170.022 234.095C169.9 234.095 169.779 234.072 169.666 234.026L143.837 223.931C143.769 223.905 143.703 223.871 143.643 223.83L129.516 214.207C129.301 214.062 129.153 213.838 129.104 213.584C129.055 213.329 129.109 213.066 129.255 212.852C129.4 212.638 129.625 212.49 129.881 212.441C130.136 212.392 130.4 212.447 130.615 212.592L144.648 222.15L169.954 232.023L191.634 220.422L206.596 211.207L206.713 211.146L224.331 203.364L240.744 195.288L256.558 187.139L271.414 178.8L271.524 178.748L288.894 171.701L304.168 163.996L319.511 156.449L332.863 149.713C332.977 149.652 333.103 149.615 333.232 149.602C333.361 149.59 333.491 149.604 333.615 149.643C333.739 149.681 333.854 149.744 333.952 149.828C334.051 149.911 334.133 150.014 334.191 150.129C334.25 150.244 334.285 150.37 334.294 150.499C334.303 150.628 334.286 150.757 334.245 150.879C334.203 151.002 334.137 151.115 334.051 151.211C333.965 151.308 333.86 151.386 333.743 151.442L320.362 158.181L305.019 165.729L289.681 173.462L272.294 180.521L257.458 188.843L241.6 197.016L225.134 205.125L207.536 212.899L192.583 222.106L170.456 233.95C170.316 234.025 170.158 234.066 169.998 234.067"
    fill="url(#paint59_linear_5767_22913)" />
  <path
    d="M250.115 291.004C249.892 291.006 249.675 290.931 249.5 290.792C249.326 290.653 249.205 290.459 249.157 290.242C249.11 290.024 249.139 289.797 249.239 289.599C249.34 289.4 249.506 289.242 249.71 289.151L266.987 281.583L267.096 281.543L287.11 275.526L303.86 268.128L319.503 260.456L331.027 251.644C331.127 251.558 331.244 251.493 331.37 251.454C331.497 251.414 331.63 251.401 331.761 251.414C331.893 251.428 332.021 251.468 332.136 251.532C332.252 251.596 332.353 251.683 332.434 251.788C332.515 251.892 332.573 252.012 332.606 252.14C332.638 252.268 332.644 252.401 332.623 252.531C332.602 252.662 332.555 252.786 332.484 252.897C332.413 253.009 332.32 253.105 332.211 253.179L320.61 262.063C320.559 262.101 320.505 262.135 320.448 262.164L304.683 269.881L287.844 277.323L287.731 277.364L267.717 283.384L250.492 290.928C250.365 290.984 250.226 291.011 250.087 291.009"
    fill="url(#paint60_linear_5767_22913)" />
  <path
    d="M256.059 87.0936H255.913L238.673 84.5011C238.614 84.4917 238.555 84.4768 238.499 84.4566L221.57 78.5811C221.499 78.5565 221.431 78.524 221.367 78.4842L204.715 67.9123C204.653 67.8728 204.596 67.8267 204.545 67.775L188.115 51.1176L171.925 36.3015L156.273 25.7741L140.152 31.1125L123.374 39.3786L106.303 47.4307L89.148 57.6069L71.7979 69.572L54.083 79.8208C53.9885 79.8748 53.8858 79.913 53.7789 79.9339L39.9564 82.591C39.8291 82.6201 39.6972 82.6234 39.5686 82.6006C39.4399 82.5779 39.3172 82.5296 39.2078 82.4586C39.0983 82.3876 39.0043 82.2954 38.9314 82.1874C38.8584 82.0795 38.8081 81.958 38.7833 81.8302C38.7585 81.7025 38.7598 81.5711 38.7871 81.4439C38.8144 81.3166 38.8672 81.1962 38.9422 81.0897C39.0172 80.9832 39.113 80.8928 39.2239 80.824C39.3348 80.7552 39.4584 80.7093 39.5875 80.689L53.2477 78.0642L70.7559 67.9406L88.0938 55.9795L105.387 45.7266L122.522 37.6503L139.349 29.3599L139.475 29.3074L156.099 23.7954C156.241 23.7486 156.391 23.7349 156.539 23.7552C156.686 23.7755 156.827 23.8293 156.951 23.9125L173.06 34.7509C173.1 34.7776 173.138 34.8073 173.173 34.8397L189.453 49.7527L205.842 66.3657L222.308 76.8164L239.046 82.6193L255.918 85.1553L271.982 78.0723L288.035 68.9137L300.629 57.4333C300.737 57.3344 300.866 57.261 301.006 57.2184C301.146 57.1757 301.295 57.165 301.44 57.1869L321.194 60.0136C321.323 60.0287 321.448 60.0693 321.561 60.1331C321.674 60.1969 321.773 60.2826 321.852 60.3851C321.931 60.4876 321.989 60.6048 322.022 60.73C322.055 60.8551 322.063 60.9855 322.044 61.1136C322.026 61.2416 321.982 61.3647 321.915 61.4756C321.848 61.5864 321.759 61.6828 321.655 61.7591C321.55 61.8354 321.43 61.8899 321.304 61.9196C321.178 61.9492 321.046 61.9534 320.918 61.9318L301.618 59.1697L289.284 70.4119C289.23 70.46 289.172 70.5019 289.109 70.5371L272.919 79.7724L272.826 79.8168L256.473 87.0047C256.345 87.0606 256.207 87.0882 256.068 87.0855"
    fill="url(#paint61_linear_5767_22913)" />
  <path
    d="M58.045 91.5233C57.796 91.5187 57.5583 91.4193 57.3807 91.2454C57.2032 91.0716 57.0993 90.8365 57.0905 90.5887C57.0816 90.3409 57.1685 90.0991 57.3333 89.9131C57.498 89.7272 57.7281 89.6112 57.9761 89.589L69.4184 88.7612L86.9388 80.1155L104.374 70.6823L121.521 59.4118C121.577 59.3742 121.637 59.343 121.7 59.319L138.66 52.6439L155.414 43.0977L172.075 34.6619C172.166 34.6166 172.263 34.5853 172.363 34.5691L188.752 31.9362C188.88 31.9151 189.011 31.92 189.137 31.9505C189.263 31.9811 189.382 32.0366 189.486 32.1139L205.356 43.8689L221.032 39.2412C221.168 39.2026 221.311 39.1941 221.451 39.2165C221.591 39.2388 221.725 39.2913 221.842 39.3704L238.272 50.4794L254.795 60.171L271.541 66.5028L288.704 68.7642L306.245 70.7025H306.35L321.11 73.9815C321.242 73.9993 321.37 74.0442 321.485 74.1134C321.6 74.1827 321.699 74.2749 321.776 74.3841C321.853 74.4933 321.907 74.6172 321.934 74.7481C321.961 74.879 321.96 75.014 321.932 75.1446C321.904 75.2752 321.849 75.3987 321.771 75.5072C321.693 75.6158 321.593 75.707 321.477 75.7752C321.362 75.8435 321.234 75.8873 321.101 75.9038C320.968 75.9203 320.833 75.9093 320.704 75.8714L305.994 72.6045L288.485 70.6702L271.188 68.3927C271.113 68.3834 271.04 68.3658 270.969 68.3402L254.041 61.9397C253.99 61.9211 253.941 61.8981 253.895 61.8711L237.246 52.123L221.145 41.2401L205.445 45.8719C205.301 45.9144 205.148 45.923 205 45.897C204.852 45.8711 204.711 45.8114 204.59 45.7225L188.659 33.923L172.825 36.463L156.343 44.8098L139.569 54.3641L139.443 54.4247L122.482 61.0917L105.347 72.3501L87.8227 81.8438L70.0996 90.5905C69.9828 90.6398 69.8575 90.6658 69.7306 90.6672L58.0977 91.5072H58.0247"
    fill="url(#paint62_linear_5767_22913)" />
  <path
    d="M221.322 41.1514C221.099 41.1531 220.882 41.0782 220.707 40.9393C220.533 40.8004 220.412 40.606 220.364 40.3886C220.317 40.1712 220.346 39.9442 220.446 39.7456C220.547 39.547 220.713 39.3889 220.917 39.2979L231.333 34.6459C231.45 34.5929 231.576 34.5633 231.704 34.5587C231.832 34.5542 231.96 34.5748 232.08 34.6194C232.2 34.6641 232.31 34.7318 232.404 34.8188C232.498 34.9058 232.574 35.0103 232.627 35.1265C232.68 35.2426 232.71 35.3681 232.714 35.4956C232.719 35.6232 232.698 35.7505 232.653 35.8701C232.609 35.9897 232.541 36.0994 232.453 36.1928C232.366 36.2862 232.261 36.3616 232.144 36.4147L221.728 41.0666C221.6 41.1238 221.462 41.1527 221.322 41.1514Z"
    fill="url(#paint63_linear_5767_22913)" />
  <path
    d="M170.874 116.972C170.81 116.978 170.744 116.978 170.68 116.972L153.528 113.475C153.464 113.462 153.402 113.443 153.342 113.418L136.47 106.271L119.87 101.482C119.784 101.457 119.703 101.42 119.627 101.373L103.607 91.4023L86.3785 100.149C86.2349 100.231 86.0693 100.268 85.9041 100.254L75.7147 99.9108C75.5868 99.9066 75.4611 99.8773 75.3447 99.8247C75.2282 99.7721 75.1233 99.6972 75.0359 99.6042C74.9485 99.5112 74.8804 99.4019 74.8355 99.2827C74.7906 99.1635 74.7697 99.0366 74.774 98.9093C74.7737 98.7806 74.8 98.6533 74.8513 98.5352C74.9025 98.4171 74.9777 98.3108 75.072 98.2229C75.1664 98.135 75.2779 98.0674 75.3996 98.0243C75.5213 97.9812 75.6507 97.9636 75.7795 97.9724L85.7217 98.3076L103.197 89.4237C103.347 89.3469 103.513 89.3102 103.681 89.3173C103.849 89.3244 104.012 89.3749 104.154 89.464L120.527 99.6563L137.054 104.421L137.164 104.462L153.995 111.593L170.878 114.993L188.151 111.621L205.359 105.968L222.389 100.803L239.082 94.0918C239.218 94.0397 239.363 94.0163 239.508 94.0231L257.032 95.1699L270.056 96.341C270.185 96.3504 270.311 96.3852 270.426 96.4434C270.541 96.5016 270.643 96.5821 270.727 96.6802C270.811 96.7782 270.874 96.8919 270.913 97.0145C270.952 97.1371 270.966 97.2663 270.955 97.3945C270.943 97.5226 270.906 97.6472 270.846 97.7609C270.785 97.8746 270.703 97.9752 270.603 98.0568C270.503 98.1384 270.388 98.1994 270.264 98.2362C270.14 98.2731 270.01 98.285 269.882 98.2712L256.882 97.1002L239.601 95.9735L223.018 102.628L205.947 107.822L188.703 113.503L188.585 113.535L171.061 116.956C170.999 116.962 170.936 116.962 170.874 116.956"
    fill="url(#paint64_linear_5767_22913)" />
  <path
    d="M135.944 121.212C135.858 121.213 135.772 121.202 135.688 121.18L118.809 116.617L118.711 116.585L102.128 110.184L93.0653 108.104C92.9407 108.076 92.823 108.023 92.7189 107.949C92.6148 107.875 92.5263 107.781 92.4585 107.673C92.3908 107.566 92.345 107.445 92.3239 107.32C92.3028 107.194 92.3067 107.066 92.3355 106.941C92.3642 106.817 92.4172 106.7 92.4915 106.596C92.5657 106.493 92.6598 106.405 92.7682 106.337C92.8766 106.27 92.9973 106.224 93.1235 106.203C93.2496 106.182 93.3786 106.186 93.5032 106.215L102.622 108.31C102.668 108.32 102.713 108.334 102.756 108.351L119.36 114.759L135.863 119.201L153.298 111.638L170.826 104.272C170.871 104.253 170.917 104.237 170.964 104.224L188.229 99.8424L188.342 99.8181L205.21 97.5971L221.871 90.8494L238.373 82.6398L254.726 74.2243L270.71 66.6123L281.28 54.2677C281.389 54.1407 281.53 54.044 281.687 53.9867C281.845 53.9294 282.015 53.9135 282.18 53.9406L301.424 57.1711C301.671 57.2215 301.889 57.3655 302.032 57.5728C302.174 57.7801 302.23 58.0344 302.188 58.2822C302.146 58.53 302.009 58.7518 301.806 58.9008C301.603 59.0499 301.35 59.1145 301.099 59.0811L282.42 55.9839L272.072 68.0701C271.983 68.1733 271.874 68.2572 271.752 68.3164L255.61 75.9889L239.273 84.3964L222.69 92.6423L205.847 99.4668C205.77 99.4971 205.689 99.5175 205.607 99.5274L188.675 101.756L171.536 106.106L154.101 113.439L136.349 121.136C136.221 121.191 136.083 121.219 135.944 121.216"
    fill="url(#paint65_linear_5767_22913)" />
  <path
    d="M187.839 131.506C187.772 131.506 187.706 131.499 187.64 131.485L170.367 127.928L152.997 126.244C152.935 126.238 152.874 126.226 152.815 126.208L135.894 121.237L127.023 123.013C126.775 123.052 126.523 122.993 126.317 122.851C126.112 122.708 125.969 122.492 125.92 122.248C125.87 122.003 125.917 121.749 126.051 121.538C126.184 121.327 126.395 121.176 126.638 121.115L135.744 119.29C135.899 119.26 136.059 119.267 136.211 119.31L153.273 124.322L170.607 126.002H170.708L187.738 129.511L204.727 122.509L220.269 116.714C220.39 116.662 220.52 116.635 220.652 116.634C220.784 116.634 220.914 116.66 221.036 116.712C221.157 116.763 221.267 116.839 221.358 116.933C221.449 117.028 221.52 117.141 221.566 117.264C221.612 117.387 221.633 117.518 221.627 117.649C221.621 117.78 221.588 117.909 221.53 118.027C221.472 118.145 221.391 118.25 221.291 118.336C221.192 118.422 221.075 118.487 220.95 118.527L205.441 124.31L188.208 131.417C188.09 131.466 187.963 131.49 187.835 131.489"
    fill="url(#paint66_linear_5767_22913)" />
  <path
    d="M119.06 116.653H118.935L109.726 115.441C109.6 115.425 109.477 115.384 109.367 115.32C109.256 115.257 109.159 115.172 109.081 115.071C109.003 114.971 108.946 114.855 108.912 114.732C108.879 114.61 108.871 114.481 108.887 114.355C108.904 114.229 108.945 114.107 109.009 113.997C109.072 113.887 109.157 113.79 109.259 113.712C109.36 113.635 109.476 113.578 109.599 113.545C109.722 113.511 109.851 113.503 109.978 113.519L118.853 114.67L136.289 104.53L153.854 95.8402C153.918 95.8087 153.986 95.7843 154.056 95.7675L171.333 91.592L188.335 88.624L205.04 83.0715L221.547 76.7518L237.79 69.5396L253.794 60.2518L261.903 51.8403C261.991 51.7483 262.097 51.6746 262.214 51.6232C262.331 51.5719 262.457 51.5441 262.585 51.5413C262.713 51.5384 262.84 51.5607 262.959 51.6069C263.078 51.653 263.187 51.722 263.28 51.8101C263.372 51.8981 263.446 52.0034 263.498 52.1199C263.549 52.2364 263.577 52.3619 263.58 52.4893C263.583 52.6166 263.56 52.7432 263.514 52.8619C263.468 52.9806 263.398 53.089 263.31 53.181L255.124 61.6935C255.06 61.7585 254.988 61.8143 254.909 61.859L238.743 71.2478L238.649 71.2962L222.309 78.5649L205.717 84.9169L188.902 90.5057L188.76 90.5421L171.731 93.5101L154.624 97.6452L137.217 106.255L119.551 116.524C119.402 116.611 119.233 116.657 119.06 116.657"
    fill="url(#paint67_linear_5767_22913)" />
  <defs>
    <linearGradient id="paint0_linear_5767_22913" x1="117.226" y1="184.328" x2="101.115" y2="182.945"
      gradientUnits="userSpaceOnUse">
      <stop stop-color="#9A52BC" />
      <stop offset="1" stop-color="#262769" />
    </linearGradient>
    <linearGradient id="paint1_linear_5767_22913" x1="141.786" y1="204.519" x2="121.724" y2="202.582"
      gradientUnits="userSpaceOnUse">
      <stop stop-color="#9A52BC" />
      <stop offset="1" stop-color="#262769" />
    </linearGradient>
    <linearGradient id="paint2_linear_5767_22913" x1="196.056" y1="273.411" x2="-24.8144" y2="158.621"
      gradientUnits="userSpaceOnUse">
      <stop stop-color="#9A52BC" />
      <stop offset="1" stop-color="#262769" />
    </linearGradient>
    <linearGradient id="paint3_linear_5767_22913" x1="210.478" y1="322.854" x2="165.724" y2="317.173"
      gradientUnits="userSpaceOnUse">
      <stop stop-color="#9A52BC" />
      <stop offset="1" stop-color="#262769" />
    </linearGradient>
    <linearGradient id="paint4_linear_5767_22913" x1="26.8147" y1="279.115" x2="22.7519" y2="278.824"
      gradientUnits="userSpaceOnUse">
      <stop stop-color="#9A52BC" />
      <stop offset="1" stop-color="#262769" />
    </linearGradient>
    <linearGradient id="paint5_linear_5767_22913" x1="208.348" y1="201.303" x2="112.413" y2="52.6613"
      gradientUnits="userSpaceOnUse">
      <stop stop-color="#9A52BC" />
      <stop offset="1" stop-color="#262769" />
    </linearGradient>
    <linearGradient id="paint6_linear_5767_22913" x1="341.31" y1="97.9364" x2="284.005" y2="-68.9715"
      gradientUnits="userSpaceOnUse">
      <stop stop-color="#9A52BC" />
      <stop offset="1" stop-color="#262769" />
    </linearGradient>
    <linearGradient id="paint7_linear_5767_22913" x1="10.3716" y1="268.421" x2="6.4181" y2="268.268"
      gradientUnits="userSpaceOnUse">
      <stop stop-color="#9A52BC" />
      <stop offset="1" stop-color="#262769" />
    </linearGradient>
    <linearGradient id="paint8_linear_5767_22913" x1="335.998" y1="291.342" x2="190.037" y2="235.01"
      gradientUnits="userSpaceOnUse">
      <stop stop-color="#9A52BC" />
      <stop offset="1" stop-color="#262769" />
    </linearGradient>
    <linearGradient id="paint9_linear_5767_22913" x1="249.041" y1="77.2018" x2="202.163" y2="-28.8669"
      gradientUnits="userSpaceOnUse">
      <stop stop-color="#9A52BC" />
      <stop offset="1" stop-color="#262769" />
    </linearGradient>
    <linearGradient id="paint10_linear_5767_22913" x1="321.031" y1="277.735" x2="314.352" y2="277.297"
      gradientUnits="userSpaceOnUse">
      <stop stop-color="#9A52BC" />
      <stop offset="1" stop-color="#262769" />
    </linearGradient>
    <linearGradient id="paint11_linear_5767_22913" x1="305.926" y1="78.8493" x2="279.386" y2="-21.0842"
      gradientUnits="userSpaceOnUse">
      <stop stop-color="#9A52BC" />
      <stop offset="1" stop-color="#262769" />
    </linearGradient>
    <linearGradient id="paint12_linear_5767_22913" x1="239.754" y1="278.237" x2="235.918" y2="277.962"
      gradientUnits="userSpaceOnUse">
      <stop stop-color="#9A52BC" />
      <stop offset="1" stop-color="#262769" />
    </linearGradient>
    <linearGradient id="paint13_linear_5767_22913" x1="239.128" y1="121.687" x2="194.224" y2="4.78473"
      gradientUnits="userSpaceOnUse">
      <stop stop-color="#9A52BC" />
      <stop offset="1" stop-color="#262769" />
    </linearGradient>
    <linearGradient id="paint14_linear_5767_22913" x1="288.506" y1="293.734" x2="284.215" y2="293.556"
      gradientUnits="userSpaceOnUse">
      <stop stop-color="#9A52BC" />
      <stop offset="1" stop-color="#262769" />
    </linearGradient>
    <linearGradient id="paint15_linear_5767_22913" x1="171.519" y1="320.492" x2="76.9998" y2="292.321"
      gradientUnits="userSpaceOnUse">
      <stop stop-color="#9A52BC" />
      <stop offset="1" stop-color="#262769" />
    </linearGradient>
    <linearGradient id="paint16_linear_5767_22913" x1="342.812" y1="176.713" x2="200.981" y2="71.6144"
      gradientUnits="userSpaceOnUse">
      <stop stop-color="#9A52BC" />
      <stop offset="1" stop-color="#262769" />
    </linearGradient>
    <linearGradient id="paint17_linear_5767_22913" x1="46.6717" y1="264.779" x2="32.8934" y2="264.392"
      gradientUnits="userSpaceOnUse">
      <stop stop-color="#9A52BC" />
      <stop offset="1" stop-color="#262769" />
    </linearGradient>
    <linearGradient id="paint18_linear_5767_22913" x1="341.295" y1="107.321" x2="306.829" y2="-25.0973"
      gradientUnits="userSpaceOnUse">
      <stop stop-color="#9A52BC" />
      <stop offset="1" stop-color="#262769" />
    </linearGradient>
    <linearGradient id="paint19_linear_5767_22913" x1="320.155" y1="280.556" x2="293.382" y2="277.944"
      gradientUnits="userSpaceOnUse">
      <stop stop-color="#9A52BC" />
      <stop offset="1" stop-color="#262769" />
    </linearGradient>
    <linearGradient id="paint20_linear_5767_22913" x1="24.4439" y1="218.737" x2="12.9298" y2="203.112"
      gradientUnits="userSpaceOnUse">
      <stop stop-color="#9A52BC" />
      <stop offset="1" stop-color="#262769" />
    </linearGradient>
    <linearGradient id="paint21_linear_5767_22913" x1="342.338" y1="154.444" x2="284.906" y2="-11.8411"
      gradientUnits="userSpaceOnUse">
      <stop stop-color="#9A52BC" />
      <stop offset="1" stop-color="#262769" />
    </linearGradient>
    <linearGradient id="paint22_linear_5767_22913" x1="138.764" y1="292.838" x2="37.8228" y2="272.462"
      gradientUnits="userSpaceOnUse">
      <stop stop-color="#9A52BC" />
      <stop offset="1" stop-color="#262769" />
    </linearGradient>
    <linearGradient id="paint23_linear_5767_22913" x1="107.982" y1="310.607" x2="97.2779" y2="310.042"
      gradientUnits="userSpaceOnUse">
      <stop stop-color="#9A52BC" />
      <stop offset="1" stop-color="#262769" />
    </linearGradient>
    <linearGradient id="paint24_linear_5767_22913" x1="171.131" y1="314.438" x2="167.771" y2="314.414"
      gradientUnits="userSpaceOnUse">
      <stop stop-color="#9A52BC" />
      <stop offset="1" stop-color="#262769" />
    </linearGradient>
    <linearGradient id="paint25_linear_5767_22913" x1="306.636" y1="255.913" x2="297.175" y2="241.293"
      gradientUnits="userSpaceOnUse">
      <stop stop-color="#9A52BC" />
      <stop offset="1" stop-color="#262769" />
    </linearGradient>
    <linearGradient id="paint26_linear_5767_22913" x1="122.724" y1="310.59" x2="-27.8782" y2="235.998"
      gradientUnits="userSpaceOnUse">
      <stop stop-color="#9A52BC" />
      <stop offset="1" stop-color="#262769" />
    </linearGradient>
    <linearGradient id="paint27_linear_5767_22913" x1="190.569" y1="7.20582" x2="186.707" y2="-7.40293"
      gradientUnits="userSpaceOnUse">
      <stop stop-color="#9A52BC" />
      <stop offset="1" stop-color="#262769" />
    </linearGradient>
    <linearGradient id="paint28_linear_5767_22913" x1="255.564" y1="111.373" x2="191.459" y2="-30.086"
      gradientUnits="userSpaceOnUse">
      <stop stop-color="#9A52BC" />
      <stop offset="1" stop-color="#262769" />
    </linearGradient>
    <linearGradient id="paint29_linear_5767_22913" x1="239.478" y1="317.271" x2="205.363" y2="304.297"
      gradientUnits="userSpaceOnUse">
      <stop stop-color="#9A52BC" />
      <stop offset="1" stop-color="#262769" />
    </linearGradient>
    <linearGradient id="paint30_linear_5767_22913" x1="156.672" y1="317.323" x2="48.828" y2="295.895"
      gradientUnits="userSpaceOnUse">
      <stop stop-color="#9A52BC" />
      <stop offset="1" stop-color="#262769" />
    </linearGradient>
    <linearGradient id="paint31_linear_5767_22913" x1="26.9074" y1="258.584" x2="15.5595" y2="243.849"
      gradientUnits="userSpaceOnUse">
      <stop stop-color="#9A52BC" />
      <stop offset="1" stop-color="#262769" />
    </linearGradient>
    <linearGradient id="paint32_linear_5767_22913" x1="344.1" y1="177.519" x2="284.125" y2="7.91414"
      gradientUnits="userSpaceOnUse">
      <stop stop-color="#9A52BC" />
      <stop offset="1" stop-color="#262769" />
    </linearGradient>
    <linearGradient id="paint33_linear_5767_22913" x1="289.137" y1="87.603" x2="223.38" y2="-61.0655"
      gradientUnits="userSpaceOnUse">
      <stop stop-color="#9A52BC" />
      <stop offset="1" stop-color="#262769" />
    </linearGradient>
    <linearGradient id="paint34_linear_5767_22913" x1="227.93" y1="323.897" x2="136.858" y2="308.484"
      gradientUnits="userSpaceOnUse">
      <stop stop-color="#9A52BC" />
      <stop offset="1" stop-color="#262769" />
    </linearGradient>
    <linearGradient id="paint35_linear_5767_22913" x1="76.6189" y1="275.159" x2="11.0674" y2="238.046"
      gradientUnits="userSpaceOnUse">
      <stop stop-color="#9A52BC" />
      <stop offset="1" stop-color="#262769" />
    </linearGradient>
    <linearGradient id="paint36_linear_5767_22913" x1="91.2902" y1="305.492" x2="48.6473" y2="243.437"
      gradientUnits="userSpaceOnUse">
      <stop stop-color="#9A52BC" />
      <stop offset="1" stop-color="#262769" />
    </linearGradient>
    <linearGradient id="paint37_linear_5767_22913" x1="218.883" y1="30.7007" x2="194.878" y2="-26.3354"
      gradientUnits="userSpaceOnUse">
      <stop stop-color="#9A52BC" />
      <stop offset="1" stop-color="#262769" />
    </linearGradient>
    <linearGradient id="paint38_linear_5767_22913" x1="324.325" y1="235.971" x2="115.932" y2="78.116"
      gradientUnits="userSpaceOnUse">
      <stop stop-color="#9A52BC" />
      <stop offset="1" stop-color="#262769" />
    </linearGradient>
    <linearGradient id="paint39_linear_5767_22913" x1="223.051" y1="37.1642" x2="191.854" y2="-33.9898"
      gradientUnits="userSpaceOnUse">
      <stop stop-color="#9A52BC" />
      <stop offset="1" stop-color="#262769" />
    </linearGradient>
    <linearGradient id="paint40_linear_5767_22913" x1="284.212" y1="51.0406" x2="253.828" y2="-42.4221"
      gradientUnits="userSpaceOnUse">
      <stop stop-color="#9A52BC" />
      <stop offset="1" stop-color="#262769" />
    </linearGradient>
    <linearGradient id="paint41_linear_5767_22913" x1="108.554" y1="231.197" x2="56.8948" y2="153.982"
      gradientUnits="userSpaceOnUse">
      <stop stop-color="#9A52BC" />
      <stop offset="1" stop-color="#262769" />
    </linearGradient>
    <linearGradient id="paint42_linear_5767_22913" x1="206.498" y1="12.6961" x2="197.076" y2="-18.3682"
      gradientUnits="userSpaceOnUse">
      <stop stop-color="#9A52BC" />
      <stop offset="1" stop-color="#262769" />
    </linearGradient>
    <linearGradient id="paint43_linear_5767_22913" x1="139.74" y1="332.666" x2="134.517" y2="332.065"
      gradientUnits="userSpaceOnUse">
      <stop stop-color="#9A52BC" />
      <stop offset="1" stop-color="#262769" />
    </linearGradient>
    <linearGradient id="paint44_linear_5767_22913" x1="334.489" y1="243.476" x2="291.708" y2="228.929"
      gradientUnits="userSpaceOnUse">
      <stop stop-color="#9A52BC" />
      <stop offset="1" stop-color="#262769" />
    </linearGradient>
    <linearGradient id="paint45_linear_5767_22913" x1="335.516" y1="240.293" x2="323.878" y2="226.582"
      gradientUnits="userSpaceOnUse">
      <stop stop-color="#9A52BC" />
      <stop offset="1" stop-color="#262769" />
    </linearGradient>
    <linearGradient id="paint46_linear_5767_22913" x1="245.288" y1="288.987" x2="-30.8461" y2="111.477"
      gradientUnits="userSpaceOnUse">
      <stop stop-color="#9A52BC" />
      <stop offset="1" stop-color="#262769" />
    </linearGradient>
    <linearGradient id="paint47_linear_5767_22913" x1="66.0737" y1="268.46" x2="50.3106" y2="267.939"
      gradientUnits="userSpaceOnUse">
      <stop stop-color="#9A52BC" />
      <stop offset="1" stop-color="#262769" />
    </linearGradient>
    <linearGradient id="paint48_linear_5767_22913" x1="76.7603" y1="296.511" x2="72.9224" y2="296.165"
      gradientUnits="userSpaceOnUse">
      <stop stop-color="#9A52BC" />
      <stop offset="1" stop-color="#262769" />
    </linearGradient>
    <linearGradient id="paint49_linear_5767_22913" x1="171.361" y1="325.565" x2="126.79" y2="321.704"
      gradientUnits="userSpaceOnUse">
      <stop stop-color="#9A52BC" />
      <stop offset="1" stop-color="#262769" />
    </linearGradient>
    <linearGradient id="paint50_linear_5767_22913" x1="334.118" y1="177.878" x2="324.499" y2="165.104"
      gradientUnits="userSpaceOnUse">
      <stop stop-color="#9A52BC" />
      <stop offset="1" stop-color="#262769" />
    </linearGradient>
    <linearGradient id="paint51_linear_5767_22913" x1="308.92" y1="256.772" x2="75.552" y2="15.0524"
      gradientUnits="userSpaceOnUse">
      <stop stop-color="#9A52BC" />
      <stop offset="1" stop-color="#262769" />
    </linearGradient>
    <linearGradient id="paint52_linear_5767_22913" x1="189.014" y1="137.928" x2="181.247" y2="118.751"
      gradientUnits="userSpaceOnUse">
      <stop stop-color="#9A52BC" />
      <stop offset="1" stop-color="#262769" />
    </linearGradient>
    <linearGradient id="paint53_linear_5767_22913" x1="206.491" y1="132.036" x2="198.332" y2="103.724"
      gradientUnits="userSpaceOnUse">
      <stop stop-color="#9A52BC" />
      <stop offset="1" stop-color="#262769" />
    </linearGradient>
    <linearGradient id="paint54_linear_5767_22913" x1="263.131" y1="322.417" x2="122.399" y2="286.324"
      gradientUnits="userSpaceOnUse">
      <stop stop-color="#9A52BC" />
      <stop offset="1" stop-color="#262769" />
    </linearGradient>
    <linearGradient id="paint55_linear_5767_22913" x1="294.392" y1="279.13" x2="250.092" y2="275.23"
      gradientUnits="userSpaceOnUse">
      <stop stop-color="#9A52BC" />
      <stop offset="1" stop-color="#262769" />
    </linearGradient>
    <linearGradient id="paint56_linear_5767_22913" x1="334.031" y1="254.602" x2="278.41" y2="180.787"
      gradientUnits="userSpaceOnUse">
      <stop stop-color="#9A52BC" />
      <stop offset="1" stop-color="#262769" />
    </linearGradient>
    <linearGradient id="paint57_linear_5767_22913" x1="278.998" y1="303.335" x2="156.428" y2="274.686"
      gradientUnits="userSpaceOnUse">
      <stop stop-color="#9A52BC" />
      <stop offset="1" stop-color="#262769" />
    </linearGradient>
    <linearGradient id="paint58_linear_5767_22913" x1="251.111" y1="304.224" x2="247.366" y2="303.875"
      gradientUnits="userSpaceOnUse">
      <stop stop-color="#9A52BC" />
      <stop offset="1" stop-color="#262769" />
    </linearGradient>
    <linearGradient id="paint59_linear_5767_22913" x1="335.579" y1="224.651" x2="246.529" y2="78.3108"
      gradientUnits="userSpaceOnUse">
      <stop stop-color="#9A52BC" />
      <stop offset="1" stop-color="#262769" />
    </linearGradient>
    <linearGradient id="paint60_linear_5767_22913" x1="333.157" y1="286.583" x2="288.988" y2="223.561"
      gradientUnits="userSpaceOnUse">
      <stop stop-color="#9A52BC" />
      <stop offset="1" stop-color="#262769" />
    </linearGradient>
    <linearGradient id="paint61_linear_5767_22913" x1="323.825" y1="80.0138" x2="279.034" y2="-55.5217"
      gradientUnits="userSpaceOnUse">
      <stop stop-color="#9A52BC" />
      <stop offset="1" stop-color="#262769" />
    </linearGradient>
    <linearGradient id="paint62_linear_5767_22913" x1="323.609" y1="84.8624" x2="281.256" y2="-42.4969"
      gradientUnits="userSpaceOnUse">
      <stop stop-color="#9A52BC" />
      <stop offset="1" stop-color="#262769" />
    </linearGradient>
    <linearGradient id="paint63_linear_5767_22913" x1="232.792" y1="40.4146" x2="225.187" y2="30.7566"
      gradientUnits="userSpaceOnUse">
      <stop stop-color="#9A52BC" />
      <stop offset="1" stop-color="#262769" />
    </linearGradient>
    <linearGradient id="paint64_linear_5767_22913" x1="272.185" y1="113.885" x2="259.076" y2="50.9727"
      gradientUnits="userSpaceOnUse">
      <stop stop-color="#9A52BC" />
      <stop offset="1" stop-color="#262769" />
    </linearGradient>
    <linearGradient id="paint65_linear_5767_22913" x1="303.514" y1="113.696" x2="241.725" y2="-16.7201"
      gradientUnits="userSpaceOnUse">
      <stop stop-color="#9A52BC" />
      <stop offset="1" stop-color="#262769" />
    </linearGradient>
    <linearGradient id="paint66_linear_5767_22913" x1="222.226" y1="129.844" x2="214.529" y2="96.3177"
      gradientUnits="userSpaceOnUse">
      <stop stop-color="#9A52BC" />
      <stop offset="1" stop-color="#262769" />
    </linearGradient>
    <linearGradient id="paint67_linear_5767_22913" x1="264.547" y1="109.379" x2="195.238" y2="-2.04118"
      gradientUnits="userSpaceOnUse">
      <stop stop-color="#9A52BC" />
      <stop offset="1" stop-color="#262769" />
    </linearGradient>
  </defs>
</svg>