<svg width="311" height="311" viewBox="0 0 311 311" fill="none" xmlns="http://www.w3.org/2000/svg">
  <path
    d="M220.852 219.411H220.817C219.678 219.406 218.587 218.951 217.783 218.145C217.385 217.751 217.07 217.28 216.857 216.761C216.645 216.243 216.538 215.686 216.545 215.126C216.55 213.999 216.998 212.919 217.793 212.121C218.588 211.322 219.665 210.868 220.792 210.858H220.827C221.398 210.86 221.963 210.976 222.488 211.198C223.014 211.42 223.49 211.745 223.89 212.152C224.279 212.546 224.587 213.013 224.795 213.527C225.003 214.04 225.108 214.59 225.102 215.144C225.097 216.271 224.648 217.35 223.852 218.149C223.057 218.948 221.979 219.401 220.852 219.411ZM220.792 212.024C219.971 212.035 219.188 212.368 218.611 212.952C218.035 213.536 217.712 214.323 217.712 215.144C217.707 215.549 217.784 215.95 217.938 216.325C218.092 216.7 218.32 217.039 218.608 217.324C219.197 217.914 219.997 218.247 220.831 218.248H220.856C221.677 218.239 222.461 217.906 223.038 217.322C223.616 216.738 223.939 215.95 223.939 215.129C223.943 214.729 223.867 214.331 223.716 213.96C223.566 213.589 223.343 213.252 223.061 212.967C222.768 212.669 222.42 212.433 222.035 212.271C221.65 212.109 221.237 212.026 220.82 212.024H220.792Z"
    fill="url(#paint0_linear_5306_22445)" />
  <path
    d="M220.497 223.864H220.345C219.1 223.851 217.871 223.59 216.728 223.097C215.585 222.604 214.551 221.89 213.687 220.994C212.875 220.162 212.237 219.176 211.81 218.095C211.382 217.013 211.174 215.858 211.197 214.696C211.194 213.49 211.43 212.296 211.891 211.183C212.352 210.069 213.03 209.058 213.884 208.207C214.738 207.357 215.752 206.684 216.868 206.227C217.983 205.771 219.178 205.54 220.384 205.548C221.624 205.565 222.85 205.827 223.989 206.32C225.128 206.812 226.158 207.526 227.02 208.418C227.831 209.251 228.469 210.237 228.896 211.318C229.323 212.399 229.532 213.555 229.51 214.717C229.497 217.115 228.548 219.414 226.864 221.123C225.18 222.831 222.896 223.814 220.497 223.861V223.864ZM220.209 206.711C218.116 206.757 216.124 207.62 214.658 209.115C213.192 210.611 212.369 212.619 212.364 214.713C212.344 215.723 212.526 216.726 212.897 217.664C213.269 218.603 213.824 219.458 214.53 220.18C215.288 220.964 216.194 221.59 217.196 222.021C218.198 222.452 219.275 222.68 220.366 222.691H220.497C222.591 222.644 224.583 221.781 226.049 220.286C227.515 218.791 228.338 216.782 228.343 214.688C228.363 213.679 228.181 212.676 227.809 211.738C227.437 210.799 226.883 209.944 226.177 209.222C225.419 208.438 224.513 207.813 223.511 207.382C222.509 206.951 221.432 206.723 220.341 206.711H220.209Z"
    fill="url(#paint1_linear_5306_22445)" />
  <path
    d="M219.849 228.001H219.526C217.593 227.969 215.685 227.552 213.915 226.776C212.144 226 210.545 224.88 209.212 223.48C207.994 222.216 207.041 220.722 206.406 219.086C205.772 217.449 205.469 215.703 205.516 213.949C205.54 210.288 206.984 206.78 209.545 204.165C212.106 201.549 215.582 200.03 219.241 199.929H219.565C221.498 199.961 223.405 200.377 225.176 201.153C226.947 201.929 228.545 203.05 229.879 204.449C231.096 205.713 232.05 207.207 232.684 208.844C233.318 210.48 233.621 212.226 233.574 213.981C233.551 217.641 232.106 221.149 229.546 223.765C226.985 226.381 223.508 227.899 219.849 228.001ZM219.231 201.092C215.874 201.191 212.687 202.591 210.342 204.996C207.998 207.401 206.679 210.622 206.665 213.981C206.623 215.582 206.9 217.177 207.48 218.67C208.06 220.164 208.932 221.527 210.044 222.68C211.274 223.969 212.748 225 214.38 225.713C216.012 226.426 217.77 226.807 219.551 226.834H219.846C223.202 226.733 226.387 225.332 228.73 222.927C231.072 220.523 232.39 217.302 232.404 213.945C232.445 212.344 232.168 210.75 231.588 209.256C231.008 207.763 230.137 206.4 229.025 205.246C227.795 203.958 226.321 202.928 224.689 202.214C223.057 201.501 221.299 201.12 219.519 201.092H219.223"
    fill="url(#paint2_linear_5306_22445)" />
  <path
    d="M218.271 231.835C213.387 231.744 208.731 229.753 205.293 226.283C201.674 222.768 199.588 217.968 199.489 212.924C199.475 210.447 199.95 207.991 200.888 205.698C201.826 203.404 203.208 201.319 204.954 199.562C206.7 197.804 208.777 196.409 211.064 195.456C213.351 194.504 215.804 194.012 218.281 194.01H218.406C223.379 194.147 228.111 196.184 231.629 199.703C235.146 203.222 237.182 207.954 237.316 212.928C237.018 217.845 234.93 222.484 231.446 225.967C227.962 229.45 223.324 231.538 218.406 231.835H218.271ZM218.271 195.177C215.947 195.179 213.646 195.64 211.501 196.534C209.356 197.428 207.409 198.737 205.771 200.386C204.133 202.034 202.838 203.991 201.958 206.142C201.079 208.293 200.634 210.597 200.648 212.921C200.743 217.654 202.702 222.158 206.1 225.454C209.36 228.728 213.769 230.6 218.388 230.672C223.006 230.394 227.362 228.435 230.634 225.164C233.906 221.894 235.867 217.538 236.146 212.921C236.009 208.257 234.095 203.822 230.795 200.523C227.495 197.225 223.059 195.312 218.395 195.177H218.271Z"
    fill="url(#paint3_linear_5306_22445)" />
  <path
    d="M216.1 235.423C210.424 235.32 205.008 233.026 200.984 229.021C198.546 226.822 196.593 224.139 195.249 221.144C193.905 218.148 193.2 214.905 193.178 211.622C193.157 208.339 193.819 205.087 195.123 202.074C196.427 199.061 198.344 196.352 200.753 194.121C202.885 192.016 205.427 190.372 208.221 189.291C211.016 188.21 214.002 187.715 216.996 187.836C228.533 188.377 240.825 198.069 240.761 211.63C240.69 224.618 228.156 234.9 216.996 235.416C216.697 235.416 216.398 235.437 216.1 235.437V235.423ZM215.989 188.964C210.58 189.007 205.399 191.153 201.543 194.946C199.248 197.069 197.422 199.646 196.18 202.514C194.938 205.383 194.308 208.478 194.329 211.604C194.351 214.729 195.023 217.816 196.305 220.666C197.586 223.517 199.447 226.07 201.77 228.161C203.753 230.147 206.119 231.709 208.724 232.754C211.329 233.799 214.119 234.304 216.925 234.239C227.562 233.745 239.509 223.964 239.576 211.608C239.648 198.908 227.694 189.49 216.925 188.985C216.612 188.985 216.299 188.964 215.989 188.964Z"
    fill="url(#paint4_linear_5306_22445)" />
  <path
    d="M215.541 238.724H215.235C200.785 238.51 186.587 224.309 186.576 210.054C186.953 202.574 190.093 195.501 195.388 190.204C200.683 184.908 207.755 181.765 215.235 181.385C218.878 181.45 222.472 182.234 225.812 183.692C229.152 185.149 232.171 187.251 234.696 189.878C240.297 195.135 243.608 202.382 243.915 210.058C243.513 217.739 240.141 224.964 234.511 230.206C229.529 235.396 222.73 238.455 215.541 238.741V238.724ZM215.651 182.548H215.256C201.105 182.829 187.732 196.194 187.739 210.051C187.739 223.726 201.379 237.351 215.253 237.554C222.233 237.343 228.853 234.407 233.694 229.373C239.102 224.35 242.349 217.422 242.749 210.051C242.441 202.69 239.254 195.744 233.875 190.71C229.09 185.727 222.555 182.8 215.651 182.548Z"
    fill="url(#paint5_linear_5306_22445)" />
  <path
    d="M213.192 241.818C204.38 241.679 195.976 238.077 189.798 231.792C183.619 225.506 180.162 217.042 180.174 208.229C180.186 199.415 183.665 190.96 189.86 184.691C196.055 178.423 204.468 174.843 213.281 174.727H213.306C222.09 175.078 230.419 178.725 236.635 184.941C242.851 191.156 246.499 199.485 246.851 208.269C246.784 225.127 230.167 241.743 213.306 241.811L213.192 241.818ZM213.281 175.904C204.728 176.005 196.555 179.447 190.507 185.495C184.459 191.543 181.017 199.717 180.916 208.269C181.25 216.729 184.754 224.753 190.732 230.749C196.709 236.745 204.723 240.273 213.181 240.634H213.292C229.57 240.566 245.61 224.526 245.674 208.269C245.319 199.799 241.796 191.771 235.801 185.777C229.807 179.783 221.779 176.259 213.309 175.904H213.281Z"
    fill="url(#paint6_linear_5306_22445)" />
  <path
    d="M211.02 244.71C200.829 244.697 191.06 240.637 183.862 233.422C176.665 226.208 172.628 216.429 172.641 206.238C172.653 196.047 176.713 186.279 183.928 179.081C191.143 171.884 200.921 167.847 211.112 167.859C221.174 168.252 230.717 172.425 237.837 179.545C244.957 186.665 249.13 196.209 249.523 206.27C249.459 225.593 230.428 244.624 211.112 244.681L211.02 244.71ZM211.112 169.026C201.409 169.282 192.189 173.313 185.412 180.262C178.635 187.211 174.837 196.53 174.825 206.236C174.813 215.942 178.588 225.27 185.348 232.236C192.107 239.202 201.317 243.256 211.02 243.536H211.112C229.855 243.472 248.314 225.013 248.374 206.274C247.982 196.518 243.93 187.268 237.025 180.365C230.12 173.463 220.868 169.414 211.112 169.026Z"
    fill="url(#paint7_linear_5306_22445)" />
  <path
    d="M207.929 247.426C197.062 247.177 186.716 242.721 179.068 234.996C174.79 231.05 171.373 226.264 169.029 220.937C166.684 215.61 165.464 209.857 165.444 204.037C165.423 198.218 166.603 192.456 168.91 187.113C171.217 181.77 174.601 176.96 178.851 172.984C182.759 169.045 187.424 165.937 192.564 163.848C197.704 161.758 203.214 160.729 208.762 160.824C231.879 161.347 252.095 181.58 252.049 204.129C252.006 225.859 230.969 246.907 208.762 247.433C208.484 247.433 208.207 247.433 207.929 247.433V247.426ZM207.865 161.973C197.272 162.059 187.14 166.317 179.665 173.823C175.526 177.691 172.23 182.371 169.984 187.572C167.737 192.772 166.588 198.38 166.608 204.045C166.629 209.709 167.818 215.309 170.102 220.493C172.386 225.677 175.716 230.333 179.882 234.171C183.651 237.997 188.142 241.036 193.095 243.112C198.047 245.188 203.363 246.259 208.733 246.263C230.357 245.748 250.839 225.28 250.882 204.122C250.928 182.185 231.228 162.51 208.733 161.987C208.445 161.987 208.153 161.987 207.865 161.987"
    fill="url(#paint8_linear_5306_22445)" />
  <path
    d="M205.256 249.973C193.16 249.732 181.63 244.805 173.094 236.23C168.356 231.808 164.574 226.463 161.981 220.523C159.388 214.584 158.039 208.176 158.016 201.695C157.993 195.214 159.298 188.797 161.85 182.84C164.401 176.882 168.146 171.511 172.852 167.055C177.224 162.687 182.431 159.244 188.162 156.931C193.892 154.617 200.03 153.481 206.209 153.59C231.905 154.181 254.415 176.708 254.376 201.771C254.34 226.397 231.379 249.358 206.209 249.973C205.893 249.973 205.573 249.973 205.256 249.973ZM205.171 154.753C193.35 154.815 182.029 159.536 173.667 167.891C169.072 172.237 165.416 177.479 162.925 183.293C160.434 189.106 159.16 195.369 159.183 201.693C159.206 208.018 160.524 214.271 163.057 220.067C165.589 225.863 169.283 231.078 173.909 235.391C178.126 239.658 183.153 243.041 188.695 245.342C194.236 247.643 200.181 248.814 206.181 248.789C230.757 248.202 253.174 225.788 253.209 201.771C253.245 177.305 231.272 155.333 206.181 154.757C205.847 154.757 205.509 154.757 205.171 154.757"
    fill="url(#paint9_linear_5306_22445)" />
  <path
    d="M203.908 252.378H203.485C175.698 252.093 150.411 226.802 150.436 199.317C150.46 171.409 175.25 146.616 203.485 146.257C210.293 146.343 217.016 147.773 223.27 150.464C229.524 153.156 235.184 157.056 239.926 161.941C250.205 171.703 256.187 185.147 256.556 199.317C256.099 213.456 250.071 226.841 239.787 236.554C230.345 246.299 217.474 251.974 203.912 252.374L203.908 252.378ZM204.033 147.416H203.503C175.876 147.775 151.623 172.031 151.602 199.317C151.577 226.198 176.313 250.934 203.499 251.207C216.903 250.939 229.655 245.373 238.966 235.726C249.03 226.229 254.933 213.14 255.39 199.31C255.016 185.458 249.159 172.32 239.104 162.784C229.862 153.288 217.276 147.778 204.029 147.431"
    fill="url(#paint10_linear_5306_22445)" />
  <path
    d="M201.113 254.671H200.658C170.327 254.376 142.711 226.763 142.729 196.731C142.746 166.227 169.819 139.154 200.658 138.795C215.702 138.985 230.057 145.135 240.573 155.895C251.758 166.581 258.242 181.27 258.601 196.735C258.176 212.18 251.655 226.83 240.463 237.482C230.086 248.128 215.96 254.296 201.099 254.671H201.113ZM201.195 139.958H200.658C170.427 140.314 143.899 166.838 143.877 196.731C143.86 226.158 170.907 253.217 200.654 253.505H201.099C215.652 253.129 229.483 247.082 239.641 236.654C250.61 226.218 257.003 211.865 257.424 196.731C257.065 181.578 250.705 167.186 239.741 156.72C229.575 146.314 215.742 140.297 201.198 139.954"
    fill="url(#paint11_linear_5306_22445)" />
  <path
    d="M198.26 256.88H197.741C181.236 256.391 165.561 249.537 153.995 237.753C142.127 226.276 135.276 210.574 134.936 194.067C134.936 160.991 164.295 131.628 197.744 131.248C205.835 131.323 213.831 132.996 221.273 136.17C228.716 139.343 235.458 143.956 241.113 149.742C253.215 161.358 260.213 177.303 260.568 194.074C260.191 210.844 253.187 226.782 241.088 238.4C229.777 249.919 214.408 256.556 198.267 256.894L198.26 256.88ZM198.335 132.414H197.759C164.921 132.77 136.109 161.578 136.102 194.067C136.102 226.012 165.483 255.397 197.759 255.717H198.26C214.091 255.386 229.165 248.876 240.26 237.578C252.14 226.18 259.02 210.538 259.394 194.078C259.041 177.618 252.168 161.972 240.284 150.578C229.201 139.282 214.138 132.772 198.317 132.439"
    fill="url(#paint12_linear_5306_22445)" />
  <path
    d="M194.699 259.01C181.307 259.103 168.192 255.193 157.036 247.782C145.88 240.371 137.193 229.796 132.088 217.414C126.983 205.032 125.694 191.407 128.384 178.288C131.075 165.168 137.624 153.151 147.191 143.778C153.388 137.443 160.779 132.4 168.938 128.94C177.096 125.48 185.859 123.671 194.721 123.619C212.562 123.981 229.573 131.229 242.192 143.846C254.812 156.464 262.062 173.473 262.427 191.315C262.409 227.353 230.774 258.989 194.735 259.007L194.699 259.01ZM194.721 124.789C186.012 124.841 177.401 126.619 169.384 130.021C161.367 133.422 154.104 138.38 148.016 144.606C138.881 153.919 132.683 165.709 130.189 178.513C127.695 191.317 129.016 204.571 133.988 216.631C138.96 228.691 147.364 239.026 158.156 246.352C168.949 253.679 181.656 257.674 194.699 257.844H194.731C230.151 257.822 261.239 226.735 261.26 191.315C260.894 173.786 253.766 157.076 241.368 144.679C228.97 132.281 212.261 125.155 194.731 124.789H194.721Z"
    fill="url(#paint13_linear_5306_22445)" />
  <path
    d="M191.646 261.098C172.509 260.891 154.222 253.161 140.737 239.581C133.928 232.928 128.508 224.989 124.793 216.225C121.077 207.461 119.139 198.046 119.092 188.526C119.422 169.387 127.172 151.124 140.707 137.588C154.243 124.052 172.506 116.302 191.646 115.972C201.168 116.018 210.587 117.956 219.354 121.672C228.122 125.388 236.063 130.81 242.718 137.621C252.938 147.692 259.922 160.582 262.776 174.643C265.631 188.705 264.227 203.298 258.744 216.557C253.26 229.816 243.947 241.138 231.994 249.075C220.042 257.013 205.993 261.205 191.646 261.116V261.098ZM191.646 117.121C172.814 117.454 154.848 125.085 141.533 138.405C128.218 151.725 120.594 169.695 120.269 188.526C120.317 197.892 122.224 207.155 125.881 215.778C129.537 224.4 134.87 232.211 141.569 238.756C154.834 252.115 172.821 259.721 191.646 259.931H191.667C210.526 259.676 228.541 252.071 241.878 238.735C255.215 225.399 262.822 207.385 263.079 188.526C262.878 169.695 255.277 151.699 241.918 138.425C235.371 131.724 227.558 126.389 218.933 122.732C210.308 119.075 201.042 117.168 191.674 117.121H191.646Z"
    fill="url(#paint14_linear_5306_22445)" />
  <path
    d="M188.572 263.146C168.103 262.93 148.533 254.701 134.058 240.226C119.584 225.75 111.357 206.179 111.143 185.709C111.514 165.288 119.79 145.806 134.231 131.362C148.672 116.918 168.151 108.637 188.572 108.261C209.055 108.455 228.643 116.676 243.128 131.158C257.614 145.64 265.84 165.227 266.038 185.709C266.006 206.239 257.836 225.918 243.318 240.434C228.8 254.949 209.12 263.117 188.59 263.146H188.572ZM188.572 109.414C168.458 109.789 149.272 117.948 135.05 132.177C120.827 146.406 112.676 165.595 112.309 185.709C112.52 205.872 120.622 225.15 134.878 239.41C149.134 253.67 168.41 261.777 188.572 261.994C208.799 261.97 228.19 253.926 242.494 239.626C256.798 225.325 264.847 205.936 264.875 185.709C264.677 165.539 256.576 146.251 242.312 131.988C228.049 117.725 208.76 109.625 188.59 109.428L188.572 109.414Z"
    fill="url(#paint15_linear_5306_22445)" />
  <path
    d="M185.487 265.216C163.748 264.922 142.983 256.155 127.61 240.781C112.237 225.408 103.471 204.642 103.178 182.903C103.738 161.246 112.59 140.63 127.907 125.308C143.224 109.987 163.837 101.129 185.494 100.562C207.252 100.822 228.044 109.581 243.43 124.967C258.815 140.353 267.573 161.146 267.832 182.903C267.798 204.726 259.112 225.644 243.68 241.074C228.248 256.504 207.328 265.185 185.505 265.216H185.487ZM185.487 101.725C164.142 102.295 143.828 111.032 128.733 126.135C113.638 141.239 104.913 161.557 104.355 182.903C104.645 204.336 113.287 224.809 128.442 239.967C143.597 255.125 164.069 263.77 185.501 264.064C207.018 264.035 227.646 255.475 242.861 240.261C258.076 225.047 266.638 204.42 266.669 182.903C266.405 161.46 257.769 140.97 242.605 125.807C227.442 110.643 206.951 102.007 185.509 101.743L185.487 101.725Z"
    fill="url(#paint16_linear_5306_22445)" />
  <path
    d="M181.479 267.301C159.107 267.052 137.747 257.94 122.084 241.964C113.765 233.917 107.113 224.31 102.508 213.692C97.9026 203.074 95.4351 191.652 95.2461 180.08C95.8255 156.768 105.631 134.639 122.511 118.551C138.306 102.394 159.863 93.1581 182.457 92.8691C205.419 93.4668 227.268 102.893 243.459 119.188C251.65 127.091 258.185 136.547 262.681 147.004C267.177 157.461 269.545 168.708 269.646 180.09C269.416 203.147 260.155 225.194 243.852 241.498C227.549 257.803 205.502 267.066 182.446 267.297H181.479V267.301ZM181.578 94.0428C159.596 94.5759 138.691 103.672 123.318 119.394C106.66 135.262 96.9788 157.091 96.3984 180.09C96.5884 191.507 99.0256 202.773 103.571 213.248C108.116 223.722 114.68 233.198 122.888 241.135C138.337 256.898 159.408 265.889 181.479 266.134H182.428C205.179 265.908 226.934 256.77 243.023 240.683C259.112 224.596 268.251 202.841 268.479 180.09C268.5 134.819 228.29 94.6119 182.432 94.0499H181.578"
    fill="url(#paint17_linear_5306_22445)" />
  <path
    d="M178.458 269.424C154.825 269.127 132.275 259.465 115.76 242.558C98.0118 225.445 87.7865 201.984 87.332 177.334C87.332 154.451 97.9199 130.871 116.357 112.651C134.232 94.9851 157.162 84.9841 179.426 85.265C228.506 85.8234 271.541 128.854 271.501 177.348C271.261 201.693 261.482 224.973 244.267 242.188C227.051 259.403 203.771 269.18 179.426 269.42H178.458V269.424ZM178.601 86.4103C156.955 86.4103 134.613 96.2441 117.179 113.479C98.9584 131.486 88.5021 154.76 88.5021 177.334C88.9589 201.675 99.0655 224.838 116.599 241.729C124.778 250.111 134.549 256.775 145.338 261.33C156.128 265.884 167.718 268.239 179.429 268.254C203.467 268.013 226.451 258.356 243.448 241.357C260.445 224.357 270.098 201.371 270.335 177.334C270.367 129.455 227.88 86.9686 179.411 86.3996H178.601"
    fill="url(#paint18_linear_5306_22445)" />
  <path
    d="M175.382 271.611C150.581 271.256 126.934 261.08 109.624 243.315C100.339 234.406 92.9 223.755 87.7319 211.971C82.5637 200.186 79.7678 187.499 79.5039 174.634C79.5039 150.851 90.7924 126.091 110.428 106.704C129.392 87.9785 153.463 77.38 176.474 77.6716C228.172 78.294 273.479 123.601 273.429 174.634C273.155 200.263 262.853 224.766 244.73 242.891C226.608 261.015 202.106 271.32 176.477 271.597H175.385L175.382 271.611ZM175.595 78.8311C153.157 78.8311 129.755 89.2554 111.25 107.529C92.119 126.418 80.6882 151.502 80.6633 174.634C80.9277 187.345 83.6933 199.88 88.8022 211.522C93.9112 223.164 101.263 233.686 110.439 242.486C127.532 260.034 150.887 270.089 175.382 270.444H176.449C201.775 270.176 225.988 259.997 243.899 242.088C261.809 224.18 271.991 199.968 272.262 174.641C272.312 124.223 227.546 79.4606 176.463 78.8453H175.595"
    fill="url(#paint19_linear_5306_22445)" />
  <path
    d="M174.176 273.877H173.607C146.808 273.229 121.319 262.152 102.561 243.002C83.3496 224.327 72.285 198.825 71.7715 172.038C71.7715 121.012 122.225 70.5693 173.603 70.1995C200.287 70.5366 225.757 81.4022 244.467 100.43C254.193 109.714 261.949 120.861 267.273 133.208C272.596 145.554 275.378 158.846 275.453 172.291C275.528 185.736 272.893 199.059 267.707 211.463C262.521 223.868 254.89 235.101 245.268 244.492C235.936 253.83 224.852 261.232 212.652 266.274C200.452 271.316 187.376 273.899 174.176 273.873V273.877ZM174.218 71.3589H173.614C122.819 71.7146 72.9629 121.592 72.938 172.034C72.938 225.383 119.966 272.415 173.614 272.71H174.176C187.224 272.735 200.149 270.183 212.208 265.199C224.267 260.215 235.223 252.897 244.446 243.667C258.211 229.512 267.551 211.651 271.322 192.271C275.094 172.89 273.133 152.831 265.682 134.547C258.23 116.263 245.609 100.548 229.364 89.3254C213.12 78.1027 193.956 71.8592 174.218 71.3589Z"
    fill="url(#paint20_linear_5306_22445)" />
  <path
    d="M171.411 276.252H170.874C142.777 275.544 116.07 263.88 96.4534 243.752C76.3452 224.225 64.7414 197.561 64.1562 169.538C64.1562 144.094 76.3837 117.37 97.6662 96.219C118.828 75.1713 145.523 62.9829 170.871 62.8193C198.844 63.1896 225.531 74.6305 245.086 94.6363C265.398 114.324 277.086 141.255 277.593 169.538C277.629 183.657 274.857 197.642 269.439 210.68C264.021 223.719 256.064 235.549 246.032 245.484C236.234 255.275 224.597 263.034 211.792 268.314C198.986 273.594 185.263 276.292 171.411 276.252ZM171.515 63.9788H170.878C117.633 64.3593 65.3477 116.641 65.3192 169.53C65.2908 224.501 115.602 274.805 170.878 275.082H171.408C185.107 275.122 198.679 272.454 211.344 267.232C224.009 262.01 235.517 254.336 245.207 244.652C259.586 229.785 269.331 211.056 273.252 190.748C277.173 170.44 275.101 149.429 267.289 130.278C259.478 111.127 246.263 94.6614 229.257 82.8893C212.25 71.1172 192.187 64.5467 171.511 63.9788"
    fill="url(#paint21_linear_5306_22445)" />
  <path
    d="M168.79 278.767H168.282C109.837 278.507 56.6484 225.319 56.6875 167.172C56.7266 112.288 113.041 55.9658 168.282 55.5781H168.947C197.964 56.1992 225.58 68.1801 245.857 88.9458C256.518 99.0921 265.026 111.282 270.872 124.788C276.719 138.294 279.785 152.84 279.887 167.557C279.99 182.274 277.126 196.861 271.468 210.447C265.809 224.033 257.472 236.34 246.953 246.633C236.684 256.874 224.492 264.986 211.078 270.5C197.665 276.015 183.293 278.824 168.79 278.767ZM168.943 56.7376H168.282C113.617 57.1252 57.8825 112.853 57.847 167.169C57.815 224.707 110.452 277.344 168.282 277.604H168.787C183.136 277.66 197.356 274.879 210.627 269.422C223.899 263.965 235.961 255.939 246.121 245.804C256.492 235.511 264.715 223.259 270.309 209.76C275.904 196.261 278.759 181.785 278.709 167.172C278.158 137.933 266.049 110.102 245.032 89.7674C224.973 69.2189 197.653 57.3606 168.943 56.7411"
    fill="url(#paint22_linear_5306_22445)" />
  <path
    d="M166.343 281.427H165.859C104.853 281.189 49.3354 225.667 49.3887 164.953C49.4136 137.664 62.8681 108.635 86.3094 85.3184C109.651 62.0976 138.648 48.6858 165.855 48.4795H166.535C196.832 49.1503 225.656 61.6832 246.81 83.3836C257.933 93.9698 266.812 106.687 272.916 120.777C279.02 134.867 282.225 150.042 282.34 165.397C282.456 180.753 279.478 195.974 273.586 210.154C267.694 224.334 259.007 237.183 248.044 247.935C237.304 258.625 224.557 267.087 210.536 272.835C196.515 278.583 181.496 281.503 166.343 281.427ZM166.538 49.6425H165.866C108.794 50.0373 50.6015 108.233 50.5517 164.95C50.5019 225.056 105.461 280.022 165.863 280.257H166.339C181.341 280.333 196.21 277.444 210.091 271.755C223.973 266.066 236.593 257.689 247.226 247.106C258.044 236.343 266.616 223.538 272.443 209.434C278.271 195.331 281.238 180.21 281.173 164.95C280.577 134.446 267.926 105.419 245.988 84.2158C225.054 62.7335 196.527 50.3222 166.538 49.6496"
    fill="url(#paint23_linear_5306_22445)" />
  <path
    d="M163.473 284.276C133.36 284.276 102.727 270.91 79.396 247.59C55.7698 223.964 42.2406 193.107 42.2833 162.926C42.3615 104.033 104.74 41.6472 163.633 41.5725H163.768C194.099 41.5725 224.941 55.0234 248.415 78.4967C271.248 100.725 284.39 131.065 284.987 162.926C285.123 178.9 282.078 194.742 276.027 209.526C269.977 224.311 261.043 237.743 249.747 249.039C238.451 260.335 225.019 269.268 210.234 275.318C195.449 281.368 179.607 284.413 163.633 284.276H163.473ZM163.768 42.7391H163.63C105.302 42.8173 43.521 104.598 43.4427 162.93C43.4001 192.805 56.8047 223.359 80.2176 246.768C103.335 269.886 133.666 283.116 163.47 283.116H163.63C187.392 283.455 210.707 276.641 230.547 263.559C250.387 250.477 265.835 231.732 274.885 209.758C283.935 187.785 286.17 163.597 281.298 140.337C276.426 117.078 264.672 95.8201 247.564 79.3254C224.337 56.0655 193.796 42.7391 163.768 42.7391Z"
    fill="url(#paint24_linear_5306_22445)" />
  <path
    d="M161.464 287.32C130.127 287.32 98.2533 273.414 73.9727 249.159C49.4217 224.576 35.3519 192.492 35.3946 161.087C35.4764 99.8256 100.362 34.9397 161.621 34.8579H161.763C193.331 34.8579 225.425 48.8459 249.816 73.251C261.719 84.7206 271.214 98.4491 277.746 113.633C284.278 128.817 287.716 145.151 287.859 161.68C288.001 178.209 284.845 194.6 278.576 209.895C272.306 225.189 263.049 239.079 251.345 250.752C239.544 262.467 225.54 271.73 210.141 278.006C194.742 284.283 178.253 287.448 161.624 287.32H161.464ZM161.766 36.0245H161.628C100.931 36.1063 36.643 100.398 36.5647 161.091C36.5221 192.186 50.4673 223.985 74.8191 248.333C98.865 272.372 130.444 286.154 161.471 286.154H161.631C186.359 286.505 210.621 279.414 231.268 265.801C251.914 252.188 267.991 232.682 277.411 209.816C286.832 186.95 289.16 161.78 284.094 137.575C279.027 113.369 266.801 91.2451 249.002 74.0761C224.817 49.8915 193.032 36.0209 161.773 36.0209"
    fill="url(#paint25_linear_5306_22445)" />
  <path
    d="M159.697 290.589C127.083 290.589 93.9538 276.163 68.7733 250.99C43.2977 225.504 28.7086 192.157 28.7442 159.472C28.8224 95.8349 96.2015 28.4416 159.864 28.3669H159.999C192.858 28.3669 226.201 42.8742 251.506 68.1827C276.174 92.228 290.36 125.034 290.984 159.476C291.216 176.759 287.983 193.913 281.476 209.926C274.969 225.939 265.32 240.486 253.097 252.707C240.875 264.929 226.328 274.578 210.315 281.084C194.301 287.59 177.147 290.822 159.864 290.589H159.697ZM159.988 29.5371H159.864C96.7884 29.6117 29.9961 96.4004 29.9179 159.48C29.8823 191.844 44.3433 224.92 69.6055 250.172C94.5655 275.125 127.4 289.429 159.704 289.429H159.864C185.557 289.779 210.763 282.4 232.211 268.25C253.66 254.099 270.361 233.83 280.149 210.071C289.936 186.313 292.359 160.161 287.102 135.009C281.845 109.857 269.151 86.8644 250.667 69.0149C225.586 43.9269 192.535 29.5371 159.974 29.5371"
    fill="url(#paint26_linear_5306_22445)" />
  <path
    d="M158.215 294.088C124.242 294.088 89.8257 279.151 63.7525 253.085C37.4162 226.752 22.3328 192.132 22.379 158.103C22.411 126.45 38.0955 92.6163 65.4134 65.2593C92.7314 37.9022 126.625 22.1537 158.35 22.1182H158.46C192.681 22.1182 227.301 37.1197 253.47 63.296C279.043 88.2869 293.727 122.356 294.335 158.107C294.616 176.042 291.291 193.851 284.556 210.476C277.822 227.101 267.815 242.204 255.132 254.887C242.448 267.571 227.345 277.577 210.719 284.311C194.094 291.045 176.285 294.37 158.35 294.088H158.215ZM158.46 23.2812H158.35C126.931 23.3132 93.3538 38.9087 66.235 66.0773C39.1162 93.2458 23.5562 126.759 23.5562 158.103C23.5242 191.827 38.4938 226.144 64.6025 252.26C90.4552 278.105 124.58 292.922 158.24 292.922H158.371C235.143 292.829 293.105 234.872 293.193 158.1C292.578 122.657 278.009 88.8877 252.649 64.1212C226.696 38.1583 192.383 23.2847 158.46 23.2847"
    fill="url(#paint27_linear_5306_22445)" />
  <path
    d="M157.028 297.862C120.042 297.188 84.8087 281.974 58.9561 255.514C31.8124 228.374 16.2525 192.467 16.2774 156.998C16.3201 87.264 87.4086 16.1577 157.142 16.1328H157.217C194.384 16.7739 229.802 32.0334 255.798 58.6053C282.273 84.5665 297.443 119.922 298.014 156.998C298.342 175.587 294.922 194.053 287.958 211.292C280.994 228.531 270.629 244.191 257.482 257.338C244.334 270.484 228.673 280.848 211.434 287.81C194.194 294.773 175.728 298.191 157.139 297.862H157.028ZM157.213 17.2994H157.139C87.9848 17.3385 17.4795 87.8438 17.4404 156.998C17.4012 192.161 32.851 227.77 59.7812 254.7C85.4174 280.936 120.353 296.023 157.028 296.696H157.139C236.713 296.625 296.766 236.569 296.837 156.998C296.268 120.238 281.228 85.1858 254.98 59.4446C229.202 33.085 194.077 17.9431 157.213 17.2994Z"
    fill="url(#paint28_linear_5306_22445)" />
  <path
    d="M156.172 301.924C117.642 301.327 80.9152 285.504 54.0165 257.911C26.7526 231.011 11.1287 194.489 10.502 156.194C10.502 121.499 27.104 84.9985 56.0259 56.0481C84.9479 27.0977 121.499 10.4494 156.243 10.4387H156.275C194.622 10.9841 231.222 26.5656 258.195 53.8288C285.743 80.8193 301.487 117.617 301.987 156.18C301.941 239.222 239.288 301.878 156.243 301.924H156.172ZM156.275 11.6053H156.243C84.6492 11.6231 11.6863 84.5859 11.6649 156.183C12.2884 194.176 27.7926 230.407 54.8452 257.09C81.5242 284.463 117.953 300.163 156.172 300.761H156.243C238.623 300.715 300.774 238.56 300.821 156.183C300.321 117.933 284.7 81.4364 257.374 54.6681C230.622 27.6178 194.318 12.1538 156.278 11.6053"
    fill="url(#paint29_linear_5306_22445)" />
  <path
    d="M155.653 306.294C115.943 305.549 78.0668 289.44 49.9855 261.352C21.9043 233.264 5.80406 195.385 5.06836 155.674C5.06836 119.166 22.0367 81.253 51.6238 51.6518C81.2108 22.0505 119.149 5.06079 155.682 5.06079C175.395 5.15816 194.894 9.15922 213.052 16.833C231.211 24.5068 247.67 35.7013 261.479 49.7703C275.587 63.5773 286.813 80.0484 294.506 98.2281C302.198 116.408 306.204 135.934 306.291 155.674C306.27 241.519 241.519 306.273 155.671 306.294H155.653ZM155.689 6.23446C119.462 6.23446 81.8332 23.0748 52.4595 52.4698C23.0859 81.8647 6.22424 119.475 6.22424 155.674C6.96071 195.077 22.9397 232.661 50.8044 260.53C78.669 288.4 116.25 304.385 155.653 305.128H155.689C240.872 305.107 305.121 240.854 305.143 155.674C305.053 136.086 301.074 116.712 293.437 98.6736C285.801 80.6356 274.659 64.2936 260.657 50.5955C246.956 36.6368 230.626 25.5299 212.61 17.916C194.594 10.302 175.248 6.33181 155.689 6.23446Z"
    fill="url(#paint30_linear_5306_22445)" />
  <path
    d="M155.479 311C71.2095 311 0 239.794 0 155.496C0 117.011 17.2956 77.6362 47.4694 47.4623C77.6433 17.2884 117.011 0 155.479 0H155.5C196.634 0.342832 235.987 16.8354 265.075 45.9226C294.163 75.0097 310.656 114.362 311 155.496C311 244.133 244.137 310.982 155.5 310.996L155.479 311ZM155.479 1.16655C117.31 1.16655 78.2444 18.3412 48.2946 48.2874C18.3447 78.2337 1.15944 117.32 1.16655 155.496C1.16655 239.157 71.8497 309.83 155.479 309.83H155.5C243.472 309.83 309.823 243.468 309.833 155.496C309.844 71.8426 239.168 1.18078 155.496 1.16655H155.479Z"
    fill="url(#paint31_linear_5306_22445)" />
  <defs>
    <linearGradient id="paint0_linear_5306_22445" x1="215.605" y1="211.27" x2="228.599" y2="211.868"
      gradientUnits="userSpaceOnUse">
      <stop offset="0.398958" stop-color="#382647" />
      <stop offset="1" stop-color="#4344A2" />
    </linearGradient>
    <linearGradient id="paint1_linear_5306_22445" x1="209.184" y1="206.429" x2="236.995" y2="207.711"
      gradientUnits="userSpaceOnUse">
      <stop offset="0.398958" stop-color="#382647" />
      <stop offset="1" stop-color="#4344A2" />
    </linearGradient>
    <linearGradient id="paint2_linear_5306_22445" x1="202.43" y1="201.28" x2="245.046" y2="203.243"
      gradientUnits="userSpaceOnUse">
      <stop offset="0.398958" stop-color="#382647" />
      <stop offset="1" stop-color="#4344A2" />
    </linearGradient>
    <linearGradient id="paint3_linear_5306_22445" x1="195.335" y1="195.831" x2="252.771" y2="198.477"
      gradientUnits="userSpaceOnUse">
      <stop offset="0.398958" stop-color="#382647" />
      <stop offset="1" stop-color="#4344A2" />
    </linearGradient>
    <linearGradient id="paint4_linear_5306_22445" x1="187.953" y1="190.11" x2="260.202" y2="193.436"
      gradientUnits="userSpaceOnUse">
      <stop offset="0.398958" stop-color="#382647" />
      <stop offset="1" stop-color="#4344A2" />
    </linearGradient>
    <linearGradient id="paint5_linear_5306_22445" x1="180.281" y1="184.145" x2="267.342" y2="188.155"
      gradientUnits="userSpaceOnUse">
      <stop offset="0.398958" stop-color="#382647" />
      <stop offset="1" stop-color="#4344A2" />
    </linearGradient>
    <linearGradient id="paint6_linear_5306_22445" x1="172.853" y1="177.956" x2="274.096" y2="182.591"
      gradientUnits="userSpaceOnUse">
      <stop offset="0.398958" stop-color="#382647" />
      <stop offset="1" stop-color="#4344A2" />
    </linearGradient>
    <linearGradient id="paint7_linear_5306_22445" x1="164.199" y1="171.558" x2="280.934" y2="176.938"
      gradientUnits="userSpaceOnUse">
      <stop offset="0.398958" stop-color="#382647" />
      <stop offset="1" stop-color="#4344A2" />
    </linearGradient>
    <linearGradient id="paint8_linear_5306_22445" x1="155.934" y1="164.986" x2="287.433" y2="171.044"
      gradientUnits="userSpaceOnUse">
      <stop offset="0.398958" stop-color="#382647" />
      <stop offset="1" stop-color="#4344A2" />
    </linearGradient>
    <linearGradient id="paint9_linear_5306_22445" x1="147.436" y1="158.222" x2="293.746" y2="164.96"
      gradientUnits="userSpaceOnUse">
      <stop offset="0.398958" stop-color="#382647" />
      <stop offset="1" stop-color="#4344A2" />
    </linearGradient>
    <linearGradient id="paint10_linear_5306_22445" x1="138.784" y1="151.364" x2="299.914" y2="158.787"
      gradientUnits="userSpaceOnUse">
      <stop offset="0.398958" stop-color="#382647" />
      <stop offset="1" stop-color="#4344A2" />
    </linearGradient>
    <linearGradient id="paint11_linear_5306_22445" x1="130.006" y1="144.371" x2="305.943" y2="152.477"
      gradientUnits="userSpaceOnUse">
      <stop offset="0.398958" stop-color="#382647" />
      <stop offset="1" stop-color="#4344A2" />
    </linearGradient>
    <linearGradient id="paint12_linear_5306_22445" x1="121.141" y1="137.294" x2="311.897" y2="146.082"
      gradientUnits="userSpaceOnUse">
      <stop offset="0.398958" stop-color="#382647" />
      <stop offset="1" stop-color="#4344A2" />
    </linearGradient>
    <linearGradient id="paint13_linear_5306_22445" x1="112.146" y1="130.135" x2="317.752" y2="139.609"
      gradientUnits="userSpaceOnUse">
      <stop offset="0.398958" stop-color="#382647" />
      <stop offset="1" stop-color="#4344A2" />
    </linearGradient>
    <linearGradient id="paint14_linear_5306_22445" x1="103.157" y1="122.957" x2="323.513" y2="133.108"
      gradientUnits="userSpaceOnUse">
      <stop offset="0.398958" stop-color="#382647" />
      <stop offset="1" stop-color="#4344A2" />
    </linearGradient>
    <linearGradient id="paint15_linear_5306_22445" x1="94.1355" y1="115.715" x2="329.323" y2="126.551"
      gradientUnits="userSpaceOnUse">
      <stop offset="0.398958" stop-color="#382647" />
      <stop offset="1" stop-color="#4344A2" />
    </linearGradient>
    <linearGradient id="paint16_linear_5306_22445" x1="85.0991" y1="108.486" x2="335.105" y2="120.004"
      gradientUnits="userSpaceOnUse">
      <stop offset="0.398958" stop-color="#382647" />
      <stop offset="1" stop-color="#4344A2" />
    </linearGradient>
    <linearGradient id="paint17_linear_5306_22445" x1="76.0975" y1="101.263" x2="340.9" y2="113.461"
      gradientUnits="userSpaceOnUse">
      <stop offset="0.398958" stop-color="#382647" />
      <stop offset="1" stop-color="#4344A2" />
    </linearGradient>
    <linearGradient id="paint18_linear_5306_22445" x1="67.1107" y1="94.122" x2="346.747" y2="107.006"
      gradientUnits="userSpaceOnUse">
      <stop offset="0.398958" stop-color="#382647" />
      <stop offset="1" stop-color="#4344A2" />
    </linearGradient>
    <linearGradient id="paint19_linear_5306_22445" x1="58.2114" y1="86.9992" x2="352.661" y2="100.564"
      gradientUnits="userSpaceOnUse">
      <stop offset="0.398958" stop-color="#382647" />
      <stop offset="1" stop-color="#4344A2" />
    </linearGradient>
    <linearGradient id="paint20_linear_5306_22445" x1="49.4076" y1="80.0012" x2="358.673" y2="94.2501"
      gradientUnits="userSpaceOnUse">
      <stop offset="0.398958" stop-color="#382647" />
      <stop offset="1" stop-color="#4344A2" />
    </linearGradient>
    <linearGradient id="paint21_linear_5306_22445" x1="40.7215" y1="73.0906" x2="364.796" y2="88.0217"
      gradientUnits="userSpaceOnUse">
      <stop offset="0.398958" stop-color="#382647" />
      <stop offset="1" stop-color="#4344A2" />
    </linearGradient>
    <linearGradient id="paint22_linear_5306_22445" x1="32.1805" y1="66.3189" x2="371.083" y2="81.9338"
      gradientUnits="userSpaceOnUse">
      <stop offset="0.398958" stop-color="#382647" />
      <stop offset="1" stop-color="#4344A2" />
    </linearGradient>
    <linearGradient id="paint23_linear_5306_22445" x1="23.8108" y1="59.6899" x2="377.521" y2="75.9866"
      gradientUnits="userSpaceOnUse">
      <stop offset="0.398958" stop-color="#382647" />
      <stop offset="1" stop-color="#4344A2" />
    </linearGradient>
    <linearGradient id="paint24_linear_5306_22445" x1="15.6345" y1="53.2526" x2="384.154" y2="70.2311"
      gradientUnits="userSpaceOnUse">
      <stop offset="0.398958" stop-color="#382647" />
      <stop offset="1" stop-color="#4344A2" />
    </linearGradient>
    <linearGradient id="paint25_linear_5306_22445" x1="7.67414" y1="47.0076" x2="391.014" y2="64.6691"
      gradientUnits="userSpaceOnUse">
      <stop offset="0.398958" stop-color="#382647" />
      <stop offset="1" stop-color="#4344A2" />
    </linearGradient>
    <linearGradient id="paint26_linear_5306_22445" x1="-0.0503461" y1="40.9867" x2="398.143" y2="59.3335"
      gradientUnits="userSpaceOnUse">
      <stop offset="0.398958" stop-color="#382647" />
      <stop offset="1" stop-color="#4344A2" />
    </linearGradient>
    <linearGradient id="paint27_linear_5306_22445" x1="-7.48295" y1="35.2072" x2="405.471" y2="54.2319"
      gradientUnits="userSpaceOnUse">
      <stop offset="0.398958" stop-color="#382647" />
      <stop offset="1" stop-color="#4344A2" />
    </linearGradient>
    <linearGradient id="paint28_linear_5306_22445" x1="-14.6589" y1="29.6918" x2="413.153" y2="49.4025"
      gradientUnits="userSpaceOnUse">
      <stop offset="0.398958" stop-color="#382647" />
      <stop offset="1" stop-color="#4344A2" />
    </linearGradient>
    <linearGradient id="paint29_linear_5306_22445" x1="-21.5023" y1="24.4661" x2="421.078" y2="44.8568"
      gradientUnits="userSpaceOnUse">
      <stop offset="0.398958" stop-color="#382647" />
      <stop offset="1" stop-color="#4344A2" />
    </linearGradient>
    <linearGradient id="paint30_linear_5306_22445" x1="-28.0051" y1="19.5574" x2="429.361" y2="40.6285"
      gradientUnits="userSpaceOnUse">
      <stop offset="0.398958" stop-color="#382647" />
      <stop offset="1" stop-color="#4344A2" />
    </linearGradient>
    <linearGradient id="paint31_linear_5306_22445" x1="-34.147" y1="14.9666" x2="438.064" y2="36.7224"
      gradientUnits="userSpaceOnUse">
      <stop offset="0.398958" stop-color="#382647" />
      <stop offset="1" stop-color="#4344A2" />
    </linearGradient>
  </defs>
</svg>