<svg width="425" height="425" viewBox="0 0 425 425" fill="none" xmlns="http://www.w3.org/2000/svg">
  <path
    d="M279.194 411.331C262.5 417.059 245.361 421.394 227.951 424.294C238.516 423.522 249.009 421.958 259.34 419.616C266.378 417.666 273.229 415.547 279.862 413.358C282.884 412.364 285.879 411.446 288.848 410.605C293.156 408.938 297.393 407.137 301.558 405.201C294.003 406.864 286.537 408.91 279.19 411.331"
    fill="url(#paint0_linear_5306_22396)" />
  <path
    d="M320.275 395.346C321.805 394.44 323.324 393.514 324.832 392.568C308.946 394.49 293.34 398.261 278.33 403.806C241.39 417.569 200.566 428.066 152.437 411.813C144.2 408.755 136.236 405.005 128.631 400.605C118.519 394.449 107.531 389.865 96.043 387.008C94.0557 386.619 92.0479 386.344 90.0293 386.184C91.2736 387.062 92.5293 387.927 93.7964 388.782C94.4055 388.879 95.0147 388.986 95.6336 389.103C106.906 391.926 117.688 396.436 127.613 402.481C135.322 406.942 143.397 410.741 151.75 413.836C200.513 430.293 241.761 419.684 279.076 405.804C292.4 400.87 306.211 397.363 320.275 395.341"
    fill="url(#paint1_linear_5306_22396)" />
  <path
    d="M96.9409 380.375C108.49 383.489 119.526 388.263 129.704 394.547C137.588 399.185 145.837 403.171 154.368 406.467C201.04 423.037 237.542 415.142 277.99 398.231C296.673 390.676 316.427 386.103 336.529 384.679C337.624 383.886 338.709 383.085 339.784 382.276C318.289 383.49 297.137 388.213 277.167 396.258C236.031 413.456 201.26 420.824 155.085 404.455C146.657 401.197 138.508 397.259 130.718 392.68C120.362 386.288 109.129 381.44 97.3746 378.289C91.1984 376.915 84.8264 376.655 78.5586 377.52C79.3416 378.169 80.1311 378.801 80.9271 379.415C86.2766 378.899 91.6741 379.228 96.9214 380.39"
    fill="url(#paint2_linear_5306_22396)" />
  <path
    d="M98.0423 371.419C109.942 374.821 121.293 379.909 131.751 386.527C139.715 391.319 148.039 395.486 156.649 398.988C204.286 416.878 235.597 409.855 276.753 390.644C299.566 380.698 324.121 375.358 349.005 374.933C349.885 374.189 350.759 373.438 351.627 372.681C325.547 372.868 299.774 378.318 275.851 388.705C235.242 407.672 204.34 414.612 157.429 396.99C148.924 393.525 140.701 389.406 132.833 384.67C122.202 377.946 110.659 372.786 98.5589 369.348C89.1622 367.058 79.32 367.365 70.084 370.235C70.7338 370.807 71.3705 371.375 71.9943 371.941C80.4994 369.533 89.4825 369.365 98.0716 371.453"
    fill="url(#paint3_linear_5306_22396)" />
  <path
    d="M98.9157 362.711C111.058 366.418 122.632 371.78 133.312 378.646C141.387 383.596 149.818 387.941 158.536 391.644C206.402 410.528 235.442 403.588 275.399 383.11C299.98 370.518 329.298 366.463 359.162 365.781C359.916 365.06 360.663 364.332 361.404 363.598C330.492 364.129 300 368.11 274.424 381.21C234.19 401.829 206.685 408.344 159.326 389.655C150.707 385.988 142.37 381.69 134.384 376.795C123.537 369.823 111.779 364.385 99.442 360.634C87.3406 357.406 74.4942 358.474 63.0918 363.656C63.6474 364.205 64.2061 364.751 64.7682 365.294C75.5333 360.605 87.5678 359.694 98.9157 362.711Z"
    fill="url(#paint4_linear_5306_22396)" />
  <path
    d="M272.764 373.402C233.334 395.332 207.827 401.896 160.902 382.7C152.097 378.834 143.583 374.339 135.424 369.25C124.419 362.075 112.512 356.391 100.014 352.344C92.8729 350.287 85.393 349.675 78.0124 350.544C70.6318 351.414 63.4989 353.747 57.0312 357.408C57.5218 357.934 58.0091 358.459 58.4932 358.982C64.6711 355.539 71.4726 353.362 78.501 352.576C85.5294 351.79 92.6439 352.412 99.4293 354.406C111.742 358.407 123.472 364.016 134.318 371.087C142.564 376.232 151.172 380.774 160.073 384.679C207.832 404.211 233.744 397.559 273.788 375.268C297.667 361.984 321.181 360.098 343.062 360.098H344.159C351.142 360.098 358.174 359.961 365.148 359.771C365.85 359.04 366.547 358.306 367.239 357.568C359.359 357.788 351.396 357.953 343.506 357.963C321.201 357.924 297.209 359.791 272.745 373.407"
    fill="url(#paint5_linear_5306_22396)" />
  <path
    d="M97.8132 348.065C110.646 352.158 123 357.623 134.661 364.367C143.29 369.159 152.183 373.46 161.298 377.247L163.092 377.949C178.389 383.962 195.309 390.619 212.181 390.619C216.573 390.636 220.952 390.146 225.232 389.157C237.549 385.529 249.148 379.799 259.516 372.222C263.414 369.713 267.415 367.115 271.436 364.781C294.794 351.204 316.758 349.561 342.543 351.267C352.604 351.858 362.689 351.928 372.757 351.477C373.407 350.742 374.037 350.003 374.648 349.259C364.002 349.786 353.335 349.743 342.694 349.133C316.524 347.403 294.199 349.079 270.368 362.929C266.309 365.288 262.269 367.9 258.361 370.424C248.189 377.859 236.814 383.49 224.735 387.072C204.32 391.867 182.824 383.416 163.866 375.955L162.078 375.254C153.038 371.496 144.218 367.229 135.66 362.476C123.863 355.656 111.364 350.133 98.3786 346.004C90.6034 343.713 82.4501 342.993 74.3937 343.885C66.3373 344.777 58.539 347.263 51.4531 351.199C51.9372 351.764 52.4246 352.325 52.9151 352.88C66.6518 345.4 82.7929 343.669 97.8035 348.065"
    fill="url(#paint6_linear_5306_22396)" />
  <path
    d="M94.5476 342.769C107.621 346.792 120.323 351.936 132.511 358.144C141.517 362.408 150.83 366.819 160.289 370.264L160.991 370.517C175.674 375.878 191.829 381.726 207.882 381.726C213.188 381.758 218.472 381.043 223.579 379.601C235.042 375.595 245.818 369.842 255.524 362.545C259.812 359.665 264.242 356.697 268.623 354.099C293.287 339.552 313.848 338.719 341.036 342.179C353.925 343.606 366.921 343.807 379.848 342.779C380.429 342.031 381.006 341.279 381.578 340.522C368.171 341.659 354.685 341.496 341.309 340.035C314.36 336.599 292.62 337.442 267.537 352.218C263.102 354.83 258.643 357.832 254.33 360.732C244.803 367.89 234.233 373.543 222.989 377.491C202.663 383.339 180.908 375.42 161.722 368.432L161.025 368.178C151.663 364.767 142.394 360.381 133.432 356.136C121.133 349.872 108.316 344.684 95.1227 340.629C78.8696 335.864 61.4219 337.35 46.209 344.796C46.6606 345.361 47.1138 345.923 47.5686 346.482C62.2028 339.38 78.9689 338.027 94.5525 342.691"
    fill="url(#paint7_linear_5306_22396)" />
  <path
    d="M90.4507 337.73C103.538 341.623 116.357 346.37 128.823 351.94C138.438 355.99 148.38 360.171 158.409 363.5C172.411 368.879 187.177 372.004 202.157 372.759C208.629 372.822 215.067 371.82 221.212 369.791C232.04 365.504 242.276 359.85 251.671 352.968C256.442 349.786 261.378 346.497 266.193 343.709C292.694 328.412 312.314 328.202 339.249 333.168C354.877 335.592 370.766 335.822 386.457 333.851C386.99 333.09 387.517 332.325 388.036 331.555C371.963 333.699 355.666 333.535 339.639 331.068C312.207 326.009 292.202 326.229 265.126 341.857C260.253 344.669 255.287 347.983 250.506 351.185C241.261 357.956 231.194 363.523 220.545 367.754C201.163 374.328 181.251 368.783 159.106 361.419C149.15 358.12 139.252 353.948 129.676 349.918C117.123 344.309 104.215 339.531 91.0355 335.615C74.5595 330.76 56.932 331.565 40.9668 337.9C41.3989 338.488 41.8327 339.075 42.268 339.66C57.6625 333.623 74.6368 332.925 90.4751 337.676"
    fill="url(#paint8_linear_5306_22396)" />
  <path
    d="M127.447 346.974C136.857 350.327 146.594 353.797 156.687 356.833C169.276 361.12 182.423 363.551 195.712 364.05C203.511 364.134 211.257 362.763 218.554 360.01C228.925 355.529 238.829 350.034 248.12 343.607C253.764 339.981 259.602 336.228 265.289 333.129C291.342 318.918 308.623 316.881 339.242 324.425C357.951 329.03 374.735 327.169 392.362 324.942C392.846 324.165 393.333 323.385 393.823 322.602C375.792 324.898 358.711 326.988 339.788 322.349C308.55 314.659 290.913 316.735 264.295 331.252C258.54 334.391 252.672 338.163 246.995 341.808C237.822 348.154 228.048 353.583 217.813 358.017C197.662 365.814 176.877 360.688 157.34 354.786C147.32 351.76 137.608 348.299 128.222 344.956C97.7632 334.108 68.7278 323.767 36.1934 331.145C36.6255 331.795 37.0608 332.434 37.4994 333.061C69.1761 326.194 97.6413 336.336 127.505 346.969"
    fill="url(#paint9_linear_5306_22396)" />
  <path
    d="M120.43 339.616C131.088 343.373 142.106 347.257 153.296 350.381C162.337 353.01 171.697 354.386 181.113 354.469C205.893 354.469 225.055 343.85 247.77 331.262C252.931 328.402 258.267 325.449 263.92 322.49C292.381 307.51 308.692 305.989 339.789 315.429C361.231 321.93 367.196 323.227 391.207 316.594C393.644 315.921 395.968 315.361 398.239 314.869C398.691 314.05 399.138 313.228 399.58 312.403C396.714 312.973 393.732 313.675 390.642 314.532C367.201 320.994 361.363 319.737 340.412 313.382C308.653 303.743 291.996 305.302 262.926 320.6C257.254 323.587 251.908 326.55 246.737 329.416C216.664 346.082 192.911 359.24 153.871 348.344C142.75 345.239 131.765 341.365 121.141 337.622C91.0191 327.003 62.3589 316.896 30.9844 323.144C31.384 323.793 31.7852 324.443 32.1881 325.093C62.7293 319.298 90.8778 329.216 120.435 339.64"
    fill="url(#paint10_linear_5306_22396)" />
  <path
    d="M390.054 306.364C367.749 313.333 362.349 311.442 344.444 305.17C342.734 304.571 340.911 303.932 338.947 303.26C312.329 294.108 292.461 292.051 263.771 307.461C256.237 311.506 249.185 315.677 242.367 319.713C213.269 336.935 188.132 351.804 149.097 341.233C137.298 338.036 125.987 334.216 115.047 330.512C85.9381 320.677 58.2673 311.345 26.4492 315.331C26.8228 316.007 27.2013 316.681 27.5847 317.354C58.584 313.713 85.7724 322.88 114.364 332.539C125.334 336.243 136.679 340.078 148.536 343.29C156.946 345.644 165.632 346.866 174.365 346.925C200.564 346.925 220.827 334.937 243.449 321.545C250.272 317.519 257.28 313.358 264.775 309.361C292.772 294.337 312.198 296.345 338.241 305.297C340.19 305.97 342.018 306.608 343.723 307.203C361.657 313.484 367.695 315.599 390.678 308.421C394.82 307.101 399.029 305.997 403.285 305.112C403.672 304.313 404.054 303.51 404.43 302.705C399.564 303.641 394.759 304.868 390.039 306.379"
    fill="url(#paint11_linear_5306_22396)" />
  <path
    d="M103.295 322.417C116.039 327.407 129.056 331.672 142.282 335.19C150.224 337.215 158.385 338.259 166.581 338.299C193.623 338.299 214.914 326.116 238.735 312.505C246.577 308.021 254.681 303.387 263.268 299.064C290.763 285.219 310.49 287.368 339.56 296.701C363.171 304.259 366.202 305.234 391.261 296.701C396.93 294.681 402.82 293.346 408.805 292.724C409.107 291.98 409.406 291.234 409.702 290.487C403.165 291.055 396.728 292.462 390.55 294.673C366.183 302.997 363.205 302.047 340.076 294.644C310.568 285.195 290.437 282.992 262.283 297.173C253.643 301.525 245.514 306.174 237.653 310.668C207.546 327.88 181.547 342.749 142.774 333.134C129.631 329.632 116.696 325.391 104.031 320.429C77.2279 310.487 51.8621 301.091 21.6328 306.14C21.9577 306.81 22.2826 307.477 22.6075 308.143C52.0035 303.431 76.9453 312.666 103.266 322.432"
    fill="url(#paint12_linear_5306_22396)" />
  <path
    d="M391.055 282.641L388.516 283.582C366.308 291.822 364.49 292.495 341.507 285.726C312.686 277.237 291.57 272.753 261.814 287.188C252.345 291.779 243.431 296.774 234.815 301.603C203.655 319.064 176.749 334.142 137.139 324.635C123.669 321.083 110.489 316.512 97.7135 310.96C73.2445 301.023 50.1254 291.637 21.1582 296.915C19.8863 297.149 18.7216 297.354 17.6543 297.539C17.9467 298.211 18.244 298.882 18.5461 299.551C19.4867 299.391 20.4955 299.215 21.5432 299.02C49.8915 293.855 72.7133 303.124 96.9046 312.943C109.779 318.539 123.062 323.145 136.637 326.72C144.497 328.64 152.557 329.622 160.648 329.644C189.118 329.644 211.964 316.842 235.858 303.455C244.45 298.64 253.329 293.665 262.744 289.098C291.809 275 312.565 279.42 340.903 287.768C364.573 294.737 366.907 293.869 389.261 285.575L391.8 284.634C398.618 281.976 405.899 280.715 413.214 280.926C413.454 280.217 413.69 279.509 413.92 278.801C406.117 278.482 398.332 279.786 391.059 282.631"
    fill="url(#paint13_linear_5306_22396)" />
  <path
    d="M391.46 270.672C387.361 272.324 383.994 273.772 381.026 275.058C366.269 281.394 363.609 282.558 343.087 277.008C314.822 269.361 292.487 263.323 262.326 277.495C252.15 282.271 242.657 287.441 233.481 292.441C201.287 309.985 173.495 325.122 132.139 315.77C118.587 312.289 105.426 307.432 92.8603 301.277C71.4176 291.632 51.2127 282.519 25.038 286.988C21.3729 287.704 17.6669 288.192 13.9414 288.45C14.2078 289.145 14.4758 289.837 14.7455 290.526C18.318 290.225 21.8723 289.737 25.3938 289.064C50.9154 284.707 70.862 293.689 91.9782 303.197C104.674 309.412 117.973 314.311 131.667 317.817C139.894 319.725 148.309 320.706 156.755 320.741C185.926 320.741 208.836 308.26 234.499 294.279C243.651 289.293 253.11 284.137 263.252 279.391C292.706 265.565 313.613 271.218 342.551 279.045C363.794 284.79 366.917 283.431 381.893 276.993C384.851 275.716 388.229 274.274 392.278 272.607C399.965 269.359 408.42 268.378 416.645 269.78C416.837 269.095 417.025 268.408 417.21 267.719C408.527 266.216 399.595 267.231 391.469 270.643"
    fill="url(#paint14_linear_5306_22396)" />
  <path
    d="M392.866 258.148C387.322 260.443 381.948 263.128 376.784 266.184C368.046 271.203 364.43 273.274 347.417 269.293C343.519 268.377 339.747 267.446 336.111 266.539C309.795 259.995 288.986 254.843 260.034 269.887C254.458 272.787 248.932 275.765 243.591 278.659C206.89 298.445 172.221 317.159 126.928 306.559C114.254 303.076 102.06 298.039 90.6216 291.564C71.6789 281.817 53.7791 272.626 31.0694 276.427C19.1443 278.425 14.6511 279.02 9.97266 277.173C10.2423 278.024 10.5185 278.872 10.8011 279.717C15.2651 280.979 20.3626 280.385 31.4202 278.533C53.4234 274.848 71.021 283.893 89.6372 293.465C101.229 300.024 113.59 305.121 126.436 308.64C135.135 310.699 144.042 311.747 152.981 311.764C186.67 311.764 214.979 296.501 244.6 280.536C249.936 277.66 255.448 274.688 261.013 271.793C289.249 257.105 308.689 261.939 335.575 268.625C339.22 269.532 342.988 270.467 346.911 271.383C364.742 275.555 368.841 273.201 377.832 268.045C382.911 265.037 388.198 262.392 393.651 260.131C401.817 256.821 410.9 256.548 419.25 259.361C419.406 258.669 419.559 257.975 419.709 257.28C410.929 254.389 401.41 254.698 392.837 258.152"
    fill="url(#paint15_linear_5306_22396)" />
  <path
    d="M34.6644 268.426C54.5574 265.424 70.0595 274.274 86.4631 283.694C97.3462 290.657 109.214 295.945 121.668 299.381C130.724 301.462 139.984 302.52 149.276 302.534C184.305 302.534 214.159 287.246 245.393 271.257C251.202 268.284 257.206 265.209 263.244 262.232C290.115 248.991 308.917 253.533 332.723 259.308C337.737 260.521 342.928 261.773 348.488 262.938C365.618 266.53 369.687 263.596 377.08 258.269C382.316 254.323 388.012 251.029 394.044 248.459C398.402 246.734 403.067 245.924 407.751 246.079C412.436 246.234 417.038 247.351 421.271 249.361C421.395 248.649 421.515 247.936 421.632 247.222C417.186 245.188 412.374 244.076 407.486 243.951C402.598 243.826 397.736 244.692 393.191 246.496C387.014 249.125 381.18 252.496 375.818 256.535C368.693 261.666 365.096 264.244 348.917 260.848C343.391 259.688 338.196 258.44 333.215 257.232C308.99 251.384 289.842 246.754 262.288 260.336C256.231 263.318 250.217 266.398 244.403 269.376C205.646 289.22 169.032 307.968 122.126 297.32C109.886 293.921 98.2236 288.711 87.5255 281.861C70.7905 272.275 54.9813 263.206 34.3427 266.34C20.059 268.499 15.0394 268.747 6.69141 265.74C6.90583 266.572 7.12513 267.402 7.34931 268.231C15.2246 270.843 20.751 270.56 34.64 268.455"
    fill="url(#paint16_linear_5306_22396)" />
  <path
    d="M37.4583 258.434C55.4311 256.485 69.3348 264.911 84.0425 273.805C94.4658 280.924 106.022 286.222 118.219 289.473C127.417 291.439 136.796 292.433 146.202 292.441C183.161 292.441 215.272 276.987 248.878 260.818C254.439 258.142 260.189 255.374 265.935 252.694C291.496 240.764 308.933 244.76 331.009 249.818C336.857 251.159 342.88 252.543 349.498 253.717C366.068 256.709 370.244 253.035 376.55 247.484C381.636 242.728 387.516 238.899 393.924 236.173C404.128 231.748 413.627 234.711 422.784 239.141C422.876 238.4 422.969 237.655 423.052 236.909C413.826 232.523 403.768 229.599 393.076 234.209C386.46 237.022 380.389 240.972 375.137 245.881C369.094 251.207 365.444 254.419 349.878 251.612C343.314 250.428 337.3 249.048 331.491 247.713C309.015 242.562 291.262 238.493 265.034 250.735C259.273 253.425 253.518 256.193 247.977 258.868C206.514 278.82 167.352 297.665 118.687 287.363C106.728 284.152 95.3971 278.944 85.1731 271.958C70.8017 263.269 55.9575 254.282 37.2536 256.29C22.2534 257.898 15.4697 258.42 4.42188 255.803C4.58107 256.57 4.74352 257.336 4.90921 258.103C15.767 260.54 22.9406 259.984 37.4826 258.425"
    fill="url(#paint17_linear_5306_22396)" />
  <path
    d="M38.6365 250.033C56.7068 247.285 71.4194 254.999 86.9995 263.191C96.4971 268.643 106.598 272.969 117.097 276.081C128.344 278.992 139.915 280.465 151.532 280.467C187.064 280.467 218.999 266.754 252.332 252.436C257.742 250.111 263.195 247.767 268.717 245.462C293.054 235.292 309.843 237.816 331.095 241.018C337.28 241.949 343.678 242.909 350.745 243.63C365.852 245.175 370.657 241.076 376.729 235.891C381.778 231.258 387.636 227.592 394.01 225.077C404.571 220.862 414.342 224.59 423.738 229.502C423.799 228.729 423.855 227.956 423.903 227.182C414.517 222.377 404.215 218.688 393.201 223.089C386.614 225.698 380.555 229.483 375.321 234.258C369.414 239.302 365.15 242.948 350.954 241.495C343.941 240.779 337.567 239.819 331.407 238.893C310.671 235.774 292.767 233.079 267.878 243.479C262.352 245.789 256.889 248.133 251.475 250.457C208.102 269.088 167.112 286.691 117.614 273.991C107.275 270.915 97.329 266.65 87.9742 261.281C72.0773 252.943 57.0626 245.067 38.2953 247.923C22.4813 250.331 15.2688 250.779 2.83203 247.465C2.95874 248.238 3.09032 249.012 3.22677 249.785C15.4394 252.933 22.842 252.441 38.617 250.038"
    fill="url(#paint18_linear_5306_22396)" />
  <path
    d="M37.447 242.684C57.2621 238.839 74.4065 246.008 92.5548 253.595C101.076 257.356 109.817 260.596 118.729 263.298C131.923 267.096 145.581 269.04 159.31 269.073C192.483 269.073 222.035 257.572 254.827 244.819C261.523 242.211 268.443 239.516 275.485 236.895C294.214 229.916 308.668 231.724 323.97 233.634C333.447 235.043 343.021 235.687 352.601 235.559C361.007 235.448 369.138 232.551 375.72 227.323C379.093 225.007 382.594 222.883 386.208 220.964C402.143 212.679 411.032 213.985 424.307 220.257C424.333 219.484 424.356 218.709 424.376 217.932C411.174 211.836 401.593 210.544 385.218 219.068C381.536 221.023 377.968 223.185 374.531 225.544C368.285 230.556 360.54 233.328 352.533 233.42C343.064 233.545 333.6 232.907 324.233 231.514C308.639 229.565 293.95 227.738 274.735 234.896C267.678 237.523 260.748 240.223 254.048 242.83C208.94 260.374 169.978 275.545 119.329 261.247C110.499 258.566 101.84 255.353 93.3979 251.627C74.9425 243.912 57.5057 236.622 37.0572 240.588C25.3353 243.198 13.1357 242.706 1.66211 239.161C1.75633 239.921 1.85542 240.681 1.95938 241.441C13.4973 244.854 25.7126 245.284 37.4617 242.689"
    fill="url(#paint19_linear_5306_22396)" />
  <path
    d="M37.6502 234.765C59.8775 229.652 82.4021 237.455 104.181 244.999C109.201 246.738 114.415 248.537 119.508 250.15C137.592 256.607 156.557 260.265 175.746 260.998C183.62 261.037 191.469 260.092 199.109 258.186C217.089 253.203 234.732 247.076 251.931 239.843C260.547 236.431 269.475 232.908 278.247 229.75C294.743 223.839 308.291 224.769 322.633 225.754C332.443 226.695 342.319 226.741 352.137 225.89C360.151 224.917 367.74 221.748 374.067 216.733C377.626 214.238 381.348 211.981 385.207 209.979C401.187 201.933 410.588 203.751 424.408 210.335C424.408 209.535 424.395 208.739 424.369 207.947C410.456 201.421 400.724 199.769 384.247 208.068C380.308 210.11 376.51 212.412 372.878 214.959C366.832 219.759 359.582 222.804 351.922 223.761C342.227 224.597 332.476 224.55 322.789 223.619C308.213 222.62 294.456 221.67 277.536 227.737C268.69 230.905 259.762 234.438 251.132 237.854C234.018 245.053 216.463 251.152 198.573 256.115C171.404 263.015 143.855 255.603 120.166 248.118C115.083 246.509 109.902 244.706 104.897 242.981C82.8358 235.34 60.0189 227.43 37.1873 232.684C25.2218 235.596 12.701 235.31 0.880859 231.855C0.949086 232.606 1.02056 233.356 1.09529 234.107C13.0143 237.499 25.6112 237.727 37.6453 234.77"
    fill="url(#paint20_linear_5306_22396)" />
  <path
    d="M383.389 197.109C379.102 199.286 374.993 201.797 371.099 204.619C365.319 209.219 358.576 212.455 351.372 214.088C341.345 215.687 331.183 216.261 321.04 215.803C307.18 214.878 293.266 216.434 279.953 220.398C271.556 223.24 262.989 226.437 254.704 229.526C236.754 236.715 218.317 242.625 199.533 247.212C172.934 252.987 149.118 244.629 123.904 235.779L121.369 234.892C96.3058 226.12 64.0151 217.041 36.5733 224.838C24.8223 228.301 12.3889 228.752 0.417969 226.149C0.463453 226.883 0.513811 227.618 0.569042 228.352C12.6966 230.921 25.2742 230.419 37.1581 226.89C64.0199 219.253 95.8867 228.23 120.653 236.905L123.182 237.791C142.788 244.673 161.55 251.261 181.531 251.256C187.731 251.271 193.916 250.617 199.976 249.307C218.862 244.702 237.398 238.764 255.445 231.539C263.729 228.454 272.268 225.262 280.63 222.431C293.71 218.522 307.387 217.005 321.006 217.952C331.291 218.413 341.596 217.825 351.762 216.198C359.262 214.523 366.285 211.169 372.303 206.388C376.108 203.629 380.125 201.173 384.315 199.044C400.685 191.085 410.729 193.785 424.058 200.252C424.012 199.437 423.96 198.624 423.902 197.816C410.851 191.621 400.11 188.99 383.375 197.123"
    fill="url(#paint21_linear_5306_22396)" />
  <path
    d="M36.0728 218.883C59.9522 210.901 93.6318 212.787 121.907 223.698C125.221 224.98 128.491 226.286 131.732 227.597C149.568 234.726 166.605 241.539 185.767 241.539C190.701 241.539 195.625 241.084 200.475 240.18C220.078 235.976 239.338 230.307 258.092 223.22C266.172 220.399 274.53 217.48 282.62 214.936C294.507 211.695 306.782 210.101 319.102 210.199C330.157 210.215 341.177 208.954 351.943 206.441C358.838 204.249 365.258 200.777 370.866 196.207C374.951 193.088 379.317 190.355 383.908 188.045C399.756 180.569 409.824 183.313 423.206 189.814C423.115 188.979 423.021 188.144 422.923 187.309C409.887 181.129 399.151 178.488 382.996 186.11C378.286 188.472 373.807 191.27 369.619 194.468C364.209 198.873 358.022 202.227 351.378 204.356C340.774 206.84 329.915 208.076 319.024 208.04C306.514 207.946 294.052 209.574 281.986 212.879C273.867 215.452 265.495 218.376 257.4 221.203C238.749 228.252 219.595 233.893 200.1 238.079C175.246 242.685 154.505 234.395 132.541 225.613C129.29 224.317 126.015 223.006 122.692 221.715C93.9827 210.633 59.7231 208.732 35.41 216.841C24.0991 220.751 12.0439 222.023 0.166016 220.56C0.190382 221.286 0.224496 222.022 0.258609 222.728C12.3397 224.178 24.5923 222.858 36.0874 218.868"
    fill="url(#paint22_linear_5306_22396)" />
  <path
    d="M34.2791 210.657C57.2131 199.794 96.9503 199.765 122.862 210.598C127.511 212.548 132.048 214.585 136.439 216.563C153.286 224.156 169.358 231.398 188.501 231.398C192.655 231.394 196.803 231.057 200.904 230.389C220.985 226.575 240.76 221.296 260.071 214.595C268.019 212.056 276.236 209.434 284.126 207.134C294.762 204.47 305.642 202.893 316.597 202.426C328.748 202.039 340.795 200.058 352.43 196.534C358.678 193.98 364.495 190.479 369.677 186.154C374.067 182.586 378.84 179.516 383.907 177.002C398.922 170.179 409.171 172.859 421.758 178.902C421.622 178.048 421.481 177.193 421.334 176.339C409.088 170.642 398.259 168.108 383.025 175.052C377.818 177.629 372.914 180.779 368.405 184.443C363.4 188.645 357.772 192.043 351.724 194.517C340.274 197.996 328.412 199.938 316.45 200.291C305.348 200.767 294.323 202.372 283.546 205.082C275.626 207.387 267.4 210.014 259.437 212.558C240.226 219.225 220.554 224.479 200.577 228.279C176.337 232.178 157.389 223.649 137.331 214.634C132.945 212.65 128.378 210.598 123.685 208.644C97.2914 197.616 56.7745 197.655 33.3629 208.747C22.9718 213.655 11.4736 215.747 0.0195312 214.814C0.0195313 215.519 0.0309024 216.224 0.0536446 216.929C11.8144 217.828 23.6075 215.666 34.284 210.652"
    fill="url(#paint23_linear_5306_22396)" />
  <path
    d="M31.4867 202.197C45.7469 195.545 61.1783 191.769 76.8989 191.084C92.6194 190.399 108.321 192.819 123.105 198.206C127.379 199.882 131.566 201.617 135.61 203.289C153.744 210.798 171.001 217.948 191.654 217.948C194.719 217.94 197.782 217.777 200.83 217.46C220.18 214.749 239.192 210.013 257.551 203.328C267.488 200.106 277.761 196.773 287.766 194.21C298.272 191.935 308.986 190.763 319.735 190.711C331.089 190.731 342.403 189.362 353.424 186.632C359.752 184.459 365.712 181.337 371.1 177.372C375.402 174.313 379.989 171.677 384.799 169.502C390.358 167.018 396.389 165.764 402.477 165.827C408.566 165.889 414.57 167.266 420.077 169.862C419.905 169.024 419.728 168.188 419.546 167.353C413.939 164.872 407.871 163.605 401.739 163.635C395.608 163.666 389.553 164.992 383.971 167.528C379.033 169.754 374.325 172.455 369.911 175.593C364.711 179.458 358.948 182.502 352.825 184.619C341.978 187.313 330.839 188.653 319.662 188.61C308.761 188.665 297.896 189.861 287.244 192.177C277.152 194.76 266.85 198.103 256.879 201.334C238.661 207.963 219.799 212.664 200.601 215.36C176.264 217.826 157.789 210.18 136.405 201.32C132.35 199.643 128.154 197.908 123.861 196.217C108.792 190.73 92.7902 188.265 76.7689 188.964C60.7475 189.663 45.0209 193.512 30.4876 200.292C21.0274 205.045 10.624 207.622 0.0389867 207.835C0.0389867 208.552 0.00974668 209.268 0 209.985C10.939 209.774 21.6911 207.11 31.4623 202.187"
    fill="url(#paint24_linear_5306_22396)" />
  <path
    d="M31.9579 192.884C54.809 180.55 93.128 172.479 123.27 183.912C127.417 185.486 131.462 187.09 135.375 188.635C155.146 196.466 172.617 203.386 194.425 203.386C198.333 203.382 202.237 203.166 206.121 202.738C222.773 200.364 239.158 196.395 255.05 190.886C264.85 187.835 274.982 184.677 285.035 182.358C296.992 179.967 309.184 178.961 321.371 179.361C330.44 179.525 339.509 179.089 348.52 178.054C356.822 176.615 364.739 173.485 371.781 168.858C376.452 166.022 381.366 163.605 386.464 161.636C396.659 157.766 407.901 157.662 418.165 161.344C417.964 160.528 417.758 159.716 417.546 158.907C407.183 155.448 395.94 155.701 385.743 159.624C380.526 161.633 375.498 164.102 370.718 167.002C363.912 171.48 356.262 174.52 348.238 175.935C339.317 176.954 330.339 177.384 321.361 177.221C309.015 176.819 296.664 177.842 284.553 180.272C274.421 182.611 264.251 185.779 254.416 188.839C238.655 194.304 222.406 198.245 205.892 200.608C178.87 203.557 159.069 195.735 136.155 186.641C132.256 185.091 128.187 183.483 124.02 181.904C93.2499 170.238 54.1998 178.435 30.9394 190.993C21.4456 196.072 11.0605 199.271 0.354274 200.413C0.312039 201.138 0.274676 201.864 0.242188 202.592C11.3448 201.449 22.1179 198.152 31.9579 192.884Z"
    fill="url(#paint25_linear_5306_22396)" />
  <path
    d="M385.797 152.43C380.921 154.029 376.162 155.967 371.557 158.229C364.249 162.198 356.218 164.658 347.94 165.461C339.708 165.794 331.463 165.653 323.247 165.037C310.502 163.815 297.652 164.256 285.021 166.348C274.092 168.676 263.292 171.566 252.662 175.008C236.762 180.552 220.258 184.183 203.5 185.822C177.539 187.323 157.895 180.344 135.131 172.269C131.871 171.114 128.557 169.935 125.156 168.761C87.4945 155.749 49.3654 171.884 29.989 182.659C20.942 187.641 11.111 191.041 0.919562 192.713C0.854584 193.421 0.792855 194.131 0.734375 194.843C11.3533 193.178 21.6039 189.688 31.0319 184.526C50.0965 173.926 87.5627 158.044 124.459 170.783C127.87 171.957 131.164 173.132 134.42 174.287C157.403 182.44 177.247 189.477 203.621 187.957C220.553 186.313 237.227 182.653 253.29 177.055C263.857 173.635 274.592 170.762 285.454 168.449C297.911 166.373 310.586 165.943 323.155 167.172C331.45 167.792 339.775 167.933 348.087 167.596C356.636 166.789 364.934 164.262 372.483 160.169C376.994 157.953 381.655 156.055 386.43 154.486C396.035 151.404 406.312 151.085 416.089 153.565C415.862 152.779 415.63 151.995 415.392 151.212C405.599 148.922 395.366 149.348 385.797 152.445"
    fill="url(#paint26_linear_5306_22396)" />
  <path
    d="M29.4184 176.382C64.599 155.076 94.0779 149.345 124.994 157.81C130.141 159.219 135.141 160.681 139.975 162.099C159.429 167.796 177.812 173.185 200.209 173.185H201.014C218.191 172.282 235.134 168.802 251.277 162.864C262.292 159.134 273.554 156.177 284.981 154.014C298.01 152.216 311.243 152.514 324.178 154.896C331.767 156.049 339.413 156.791 347.082 157.118C355.935 157.078 364.677 155.138 372.716 151.431C376.784 149.789 380.934 148.356 385.148 147.137C394.423 144.521 404.174 144.067 413.652 145.812C413.399 145.045 413.139 144.279 412.872 143.512C403.443 141.932 393.781 142.465 384.583 145.071C380.299 146.309 376.081 147.764 371.946 149.433C364.169 153.027 355.713 154.916 347.146 154.974C339.543 154.649 331.964 153.914 324.441 152.771C311.296 150.354 297.849 150.059 284.611 151.899C273.085 154.075 261.725 157.055 250.614 160.817C234.673 166.688 217.943 170.138 200.979 171.051C178.484 171.163 160.082 165.773 140.55 160.057C135.706 158.639 130.701 157.172 125.535 155.758C93.9999 147.128 64.0094 152.927 28.2829 174.565C20.0751 179.453 11.1207 182.961 1.77679 184.95C1.67933 185.7 1.58511 186.451 1.49414 187.201C11.3315 185.183 20.7606 181.53 29.3891 176.392"
    fill="url(#paint27_linear_5306_22396)" />
  <path
    d="M26.6477 168.931C58.6265 148.951 84.3285 135.598 123.978 145.237C127.802 146.166 131.572 147.102 135.289 148.044C156.054 154.012 177.397 157.744 198.954 159.175C217.039 159.887 233.599 154.404 249.637 149.102C260.925 145.004 272.555 141.915 284.389 139.872C298.034 138.259 311.863 139.294 325.115 142.922C331.646 144.326 338.395 145.778 346.003 146.665C355.092 147.474 364.248 146.251 372.806 143.083C376.139 142.109 379.585 141.061 383.415 140.159C392.561 138.002 402.034 137.617 411.325 139.024C411.042 138.26 410.756 137.498 410.467 136.738C401.287 135.483 391.954 135.936 382.938 138.073C379.039 138.97 375.564 140.023 372.216 140.997C363.945 144.096 355.082 145.293 346.285 144.501C338.78 143.624 332.079 142.182 325.598 140.793C312.1 137.099 298.016 136.054 284.121 137.713C272.16 139.771 260.407 142.889 248.999 147.031C233.151 152.269 216.747 157.674 199.076 156.997C177.667 155.566 156.471 151.854 135.849 145.924C132.12 144.989 128.345 144.053 124.524 143.117C84.0751 133.273 57.9833 146.841 25.5512 167.075C18.5484 171.38 10.9578 174.647 3.01684 176.773C2.88364 177.546 2.75693 178.321 2.63672 179.097C11.1005 176.916 19.1904 173.482 26.6379 168.907"
    fill="url(#paint28_linear_5306_22396)" />
  <path
    d="M22.2025 161.451L27.3829 158.151C59.1668 137.893 80.1612 124.525 120.922 133.244L124.172 133.941C148.439 139.718 173.066 143.865 197.886 146.353C216.493 147.815 232.975 141.84 248.94 136.036C260.322 131.429 272.175 128.083 284.286 126.06C298.502 124.452 312.897 126.21 326.309 131.192C332.157 132.927 338.195 134.715 345.115 136.143C357.602 138.048 370.328 137.74 382.708 135.232C391.381 133.738 400.165 132.985 408.966 132.98C408.673 132.259 408.377 131.541 408.079 130.826C399.474 130.906 390.889 131.672 382.406 133.117C370.273 135.611 357.793 135.928 345.549 134.053C338.726 132.649 332.722 130.865 326.918 129.145C313.22 124.109 298.537 122.329 284.033 123.945C271.767 125.985 259.763 129.368 248.238 134.033C231.776 140.022 216.225 145.69 198.086 144.228C173.343 141.751 148.793 137.621 124.601 131.864L121.351 131.168C79.7323 122.249 58.4455 135.822 26.2181 156.363L21.0426 159.657C15.9417 162.867 10.4965 165.494 4.80954 167.489C4.6341 168.301 4.46191 169.113 4.29297 169.925C10.5716 167.825 16.5774 164.983 22.183 161.46"
    fill="url(#paint29_linear_5306_22396)" />
  <path
    d="M14.7229 153.147L17.5056 151.421C52.1063 129.979 77.0919 114.481 118.808 124.954C142.679 131.224 166.906 136.049 191.357 139.404C212.483 142.069 229.774 134.331 246.489 126.845C259.871 120.851 273.707 114.662 289.648 113.633C302.203 113.387 314.659 115.897 326.139 120.987C333.74 123.993 341.595 126.314 349.609 127.922C360.489 129.319 371.514 129.127 382.338 127.352C390.145 126.264 398.02 125.749 405.901 125.812C405.576 125.087 405.251 124.366 404.926 123.648C397.294 123.662 389.671 124.189 382.109 125.227C371.492 126.992 360.674 127.191 349.999 125.817C342.109 124.232 334.375 121.948 326.89 118.994C315.125 113.825 302.378 111.275 289.531 111.518C273.205 112.566 259.189 118.828 245.636 124.91C228.434 132.615 212.186 139.891 191.645 137.298C167.272 133.957 143.123 129.15 119.329 122.903C76.741 112.215 50.1034 128.751 16.3799 149.628L13.5972 151.353C11.7892 152.474 9.95192 153.507 8.09518 154.472C7.83202 155.401 7.57373 156.335 7.32031 157.274C9.82521 156.04 12.2927 154.673 14.7229 153.176"
    fill="url(#paint30_linear_5306_22396)" />
  <path
    d="M14.6444 142.722C47.4663 121.207 75.7902 105.656 116.258 117.132C119.91 118.166 123.546 119.212 127.165 120.271C147.657 126.936 168.744 131.608 190.133 134.223C211.362 136.173 228.365 127.284 244.817 118.658C258.463 111.509 272.561 104.116 289.077 102.907C303.107 101.889 314.564 106.343 326.689 111.07C334.192 114.239 341.957 116.745 349.896 118.56C360.201 120.178 370.679 120.374 381.037 119.145C388.155 118.472 395.31 118.262 402.455 118.517C402.091 117.779 401.721 117.045 401.344 116.314C394.514 116.149 387.679 116.382 380.876 117.011C370.712 118.221 360.43 118.037 350.315 116.465C342.498 114.673 334.852 112.202 327.464 109.082C315.651 104.476 303.429 99.72 288.921 100.797C271.962 102.04 257.658 109.535 243.828 116.786C226.908 125.656 210.943 134.043 190.333 132.113C169.078 129.508 148.123 124.86 127.759 118.234C124.13 117.181 120.49 116.133 116.838 115.091C75.4978 103.395 46.7548 119.135 13.4699 140.953C13.0264 141.241 12.5829 141.519 12.1395 141.796C11.7658 142.852 11.4003 143.911 11.043 144.974C12.2516 144.257 13.4553 143.512 14.6444 142.742"
    fill="url(#paint31_linear_5306_22396)" />
  <path
    d="M17.5198 132.211C48.8359 110.018 77.267 97.6929 114.192 109.662C119.304 111.319 124.509 113.117 129.538 114.857C148.423 121.392 167.955 128.146 188.355 129.423C209.798 130.739 226.62 120.622 242.902 110.817C256.767 102.469 271.109 93.8332 288.224 92.4053C302.596 91.2113 314.842 96.148 327.81 101.377C335.211 104.588 342.855 107.206 350.671 109.204C361.509 111.25 372.546 112.052 383.566 111.592C388.649 111.567 393.8 111.548 398.985 111.787C398.589 111.056 398.188 110.326 397.782 109.598C392.996 109.413 388.24 109.433 383.552 109.452C372.695 109.906 361.823 109.122 351.144 107.118C343.44 105.144 335.905 102.561 328.61 99.3936C315.978 94.2961 302.903 89.028 288.044 90.2756C270.451 91.7376 255.88 100.51 241.82 108.984C225.08 119.062 209.276 128.59 188.506 127.284C168.398 126.031 149.007 119.321 130.255 112.834C125.216 111.09 120.021 109.287 114.87 107.625C77.2183 95.4414 48.3437 107.815 16.628 130.232C16.1212 131.431 15.6339 132.635 15.166 133.843C15.9652 133.314 16.7612 132.77 17.554 132.211"
    fill="url(#paint32_linear_5306_22396)" />
  <path
    d="M21.4921 122.288C53.8511 96.7861 81.9848 90.4946 112.716 101.888C118.418 104.003 124.315 106.44 130.017 108.799C148.111 116.284 166.82 124.018 186.308 124.783C208.087 125.627 224.866 114.213 241.099 103.17C255.188 93.5843 269.76 83.6768 287.46 82.015C302.08 80.6358 315.827 86.3522 329.092 91.8737C336.419 95.1366 343.975 97.8583 351.7 100.017C364.366 102.747 377.277 104.178 390.233 104.286L394.819 104.486C394.381 103.748 393.939 103.014 393.494 102.283L390.321 102.147C377.511 102.039 364.746 100.629 352.221 97.9362C344.6 95.8006 337.145 93.1115 329.916 89.8903C316.407 84.2713 302.465 78.4672 287.26 79.8756C269.009 81.5813 254.209 91.6544 239.896 101.391C223.95 112.239 207.42 123.434 186.391 122.634C167.288 121.884 148.755 114.223 130.835 106.811C125.114 104.447 119.203 102.001 113.462 99.8709C82.3503 88.3357 53.9144 94.4323 21.4385 119.618C20.7529 121.021 20.0821 122.433 19.4258 123.853C20.1178 123.336 20.8098 122.815 21.4921 122.274"
    fill="url(#paint33_linear_5306_22396)" />
  <path
    d="M110.422 92.644C117.201 95.4218 123.995 98.8722 131.183 102.522C150.32 112.24 170.101 122.303 191.125 120.125C210.131 118.175 225.311 107.05 240.014 96.299C252.797 86.9471 266.018 77.293 281.516 73.9353C299.449 70.0366 313.465 75.9918 328.3 82.2687C334.574 85.0444 340.988 87.4941 347.515 89.6079C361.386 93.5615 375.65 95.9786 390.05 96.8156C389.556 96.0586 389.057 95.3033 388.554 94.5495C374.872 93.679 361.323 91.336 348.144 87.5611C341.688 85.467 335.344 83.0417 329.138 80.295C313.982 73.8817 299.669 67.8339 281.062 71.8397C265.117 75.2803 251.715 85.0855 238.747 94.569C224.278 105.154 209.312 116.095 190.901 117.995C170.515 120.086 151.017 110.198 132.157 100.612C124.925 96.9424 118.098 93.4725 111.236 90.6606C83.5702 79.3154 55.5972 84.8613 28.0774 107.123C27.1028 108.828 26.146 110.55 25.207 112.288C25.977 111.639 26.7681 110.971 27.5803 110.286C55.0465 87.298 82.922 81.3574 110.427 92.6343"
    fill="url(#paint34_linear_5306_22396)" />
  <path
    d="M110.52 83.9161C117.838 87.4481 124.957 91.3787 131.845 95.6901C149.94 106.528 168.654 117.737 189.195 115.145C208.532 112.708 223.669 100.456 238.308 88.614C251.247 78.1461 264.624 67.3224 280.706 63.5992C298.86 59.3935 313.543 65.8312 329.089 72.6441C335.421 75.5435 341.896 78.1183 348.49 80.3586C360.221 84.1007 372.24 86.8716 384.426 88.6433C383.838 87.8278 383.243 87.0156 382.642 86.2066C371.29 84.4603 360.091 81.8305 349.148 78.341C342.622 76.121 336.213 73.5706 329.947 70.6996C314.064 63.7405 299.064 57.1615 280.239 61.528C263.669 65.3633 250.107 76.343 236.978 86.962C222.572 98.619 207.679 110.666 188.941 113.029C169.131 115.53 150.744 104.516 132.956 93.8626C126.001 89.5089 118.812 85.5408 111.421 81.9765C87.1471 70.9141 60.2852 74.6665 37.7947 91.7963C36.3847 93.8269 35.0104 95.8818 33.6719 97.9611C56.5425 77.5856 85.032 72.303 110.529 83.9259"
    fill="url(#paint35_linear_5306_22396)" />
  <path
    d="M348.819 70.4749C342.074 68.4622 335.72 65.894 329.569 63.4086C313.599 56.9563 298.516 50.8597 279.281 55.3188C263.126 59.0664 249.432 69.5003 236.186 79.5881C221.454 90.7968 206.22 102.415 187.77 104.491C169.105 106.591 151.522 95.9235 134.519 85.6067C127.292 80.9988 119.777 76.8609 112.019 73.2186C102.513 69.1321 92.2629 67.0595 81.9159 67.1316C71.569 67.2038 61.3492 69.4191 51.9011 73.6377C50.8322 74.8691 49.7779 76.1134 48.7383 77.3707C58.3502 72.4641 68.921 69.7248 79.7062 69.3459C90.4913 68.967 101.228 70.9577 111.161 75.1777C118.833 78.7918 126.265 82.8938 133.413 87.4585C150.723 97.9606 168.627 108.813 187.994 106.635C207.034 104.491 222.507 92.7071 237.468 81.2938C250.534 71.3424 264.038 61.0499 279.749 57.4144C298.317 53.1063 313.102 59.0811 328.751 65.4067C334.945 67.9067 341.348 70.4993 348.191 72.5364C357.55 75.2819 367.098 77.3358 376.758 78.6816C376.082 77.8532 375.402 77.0296 374.716 76.2109C365.957 74.8945 357.298 72.9796 348.8 70.4798"
    fill="url(#paint36_linear_5306_22396)" />
  <path
    d="M112.368 66.2205C120.407 69.7952 128.148 74.0061 135.517 78.8132C151.326 88.4868 167.681 98.4918 185.546 96.7374C204.226 94.9098 220.147 83.9156 235.527 73.2819C248.905 64.0226 262.735 54.4855 278.242 51.0985C297.151 46.9708 310.708 52.2876 326.41 58.4378C332.507 60.8257 338.813 63.3111 345.743 65.2945C353.499 67.4914 361.41 69.0977 369.408 70.0997C368.654 69.2712 367.894 68.4476 367.127 67.6289C360.103 66.6461 353.155 65.1807 346.333 63.2429C339.51 61.2935 333.238 58.8179 327.185 56.4494C311.829 50.4309 297.321 44.7534 277.779 49.0127C261.863 52.4874 247.852 62.1707 234.304 71.5227C219.138 82.0004 203.456 92.8338 185.327 94.6077C168.173 96.2695 152.13 86.479 136.623 76.9906C129.156 72.1204 121.311 67.8572 113.163 64.2419C97.7103 58.0933 80.7705 56.7133 64.5267 60.2799C63.5715 61.2058 62.6245 62.1415 61.6855 63.0869C78.4878 58.7597 96.2283 59.8582 112.368 66.2254"
    fill="url(#paint37_linear_5306_22396)" />
  <path
    d="M113.953 57.229C122.381 60.6468 130.45 64.8911 138.042 69.8998C152.101 78.4817 166.624 87.3609 183.086 86.1475C201.39 84.8024 217.779 74.6318 233.632 64.7925C247.278 56.3324 261.362 47.5847 276.552 44.5535C295.689 40.7425 308.487 45.7328 323.307 51.5224C329.218 53.8275 335.329 56.2154 342.264 58.2135C348.659 60.026 355.184 61.3409 361.782 62.1463C360.931 61.3015 360.073 60.4633 359.209 59.6316C353.685 58.8424 348.22 57.6799 342.854 56.152C336.031 54.2027 329.944 51.8148 324.082 49.5243C308.95 43.613 295.88 38.5057 276.133 42.4482C260.562 45.5574 246.298 54.4074 232.507 62.9699C216.878 72.6727 200.713 82.702 182.935 84.0081C167.16 85.1728 152.935 76.4739 139.158 68.0723C131.443 62.9917 123.241 58.6916 114.674 55.2359C102.213 50.8866 88.9918 49.1401 75.8287 50.1042C74.9027 50.8807 73.9833 51.6653 73.0703 52.4581C86.884 51.0666 100.835 52.7014 113.953 57.2486"
    fill="url(#paint38_linear_5306_22396)" />
  <path
    d="M139.822 60.3972C153.082 68.1946 166.796 76.3038 182.078 75.2902C199.851 74.1303 216.362 64.9294 232.327 56.0258C246.07 48.3649 260.281 40.4312 275.213 37.7118C294.531 34.1835 306.68 38.9399 320.749 44.4517C326.451 46.6837 332.343 48.9936 339.219 50.9966C343.797 52.3179 348.458 53.329 353.172 54.0229C352.158 53.1197 351.133 52.2279 350.097 51.3474C346.629 50.7264 343.197 49.9245 339.814 48.9449C333.03 46.9663 327.182 44.6758 321.524 42.4585C307.148 36.8298 294.721 31.9613 274.823 35.6065C259.56 38.399 245.193 46.4108 231.294 54.1545C215.534 62.9265 199.237 72.025 181.947 73.1605C167.327 74.1108 153.896 66.2062 140.913 58.5405C133.197 53.6002 124.977 49.4964 116.391 46.2987C106.892 43.2604 97.0123 41.5739 87.0433 41.2889C86.1044 41.9744 85.172 42.6697 84.2461 43.3747C94.9305 43.4219 105.546 45.093 115.728 48.3308C124.169 51.4841 132.252 55.524 139.841 60.3826"
    fill="url(#paint39_linear_5306_22396)" />
  <path
    d="M141.492 50.7433C154.436 57.761 167.808 65.0271 182.185 64.0865C199.344 62.9754 215.747 54.8272 231.61 46.9616C244.976 39.4717 259.36 33.9641 274.31 30.6116C293.828 27.3708 305.012 31.713 319.145 37.215C324.686 39.3738 330.422 41.601 337.24 43.6039C338.867 44.0912 340.51 44.5055 342.162 44.8856C340.683 43.7387 339.189 42.6114 337.678 41.5035C331.021 39.5542 325.378 37.3465 319.92 35.2218C306.045 29.8221 294.091 25.1632 273.959 28.5014C258.798 31.8809 244.211 37.4547 230.66 45.0464C214.987 52.8437 198.778 60.8701 182.048 61.952C168.305 62.8244 155.191 55.7385 142.516 48.8622C134.77 44.293 126.57 40.5446 118.046 37.6779C111.521 35.7931 104.846 34.4708 98.0951 33.7256C97.1204 34.3397 96.1668 34.9602 95.2344 35.5873C102.756 36.2527 110.197 37.6415 117.452 39.7345C125.827 42.5616 133.885 46.251 141.497 50.7433"
    fill="url(#paint40_linear_5306_22396)" />
  <path
    d="M118.964 31.5762C127.259 34.1671 135.274 37.5774 142.893 41.7566C155.661 48.1845 168.921 54.8707 182.464 54.0325C199.219 52.9848 215.671 45.6942 231.582 38.6474C245.03 31.9672 259.279 27.0407 273.981 23.9884C293.815 20.8743 304.824 24.9143 318.757 30.0216L322.602 31.4251C319.077 29.2711 315.484 27.221 311.822 25.2749C299.634 20.7339 286.449 19.5556 273.649 21.8636C258.764 24.9407 244.338 29.9216 230.725 36.6834C214.984 43.6572 198.712 50.8697 182.337 51.8931C169.374 52.7313 156.382 46.1767 143.838 39.8608C136.091 35.6114 127.938 32.1486 119.5 29.5245C116.034 28.6018 112.571 27.8123 109.111 27.1561C108.136 27.6986 107.169 28.246 106.211 28.7984C110.454 29.5326 114.699 30.4634 118.945 31.5908"
    fill="url(#paint41_linear_5306_22396)" />
  <path
    d="M121.474 24.417C129.147 26.5812 136.631 29.3665 143.852 32.7455C154.397 38.1207 165.812 41.5855 177.566 42.9795C196.513 43.9006 215.821 36.2689 234.477 28.8858C248.921 22.3834 264.16 17.8135 279.799 15.2941C282.974 14.9552 286.168 14.8331 289.36 14.9286C287.512 14.2073 285.652 13.512 283.78 12.8428C282.406 12.911 281.002 13.0182 279.574 13.1693C263.74 15.7043 248.311 20.322 233.687 26.9024C215.246 34.2124 196.162 41.7612 177.668 40.8499C166.174 39.457 155.015 36.054 144.7 30.7962C137.37 27.3665 129.771 24.5419 121.98 22.3507C121.142 22.1411 120.299 21.9559 119.461 21.7659C118.444 22.2597 117.43 22.7633 116.42 23.2766C118.101 23.6372 119.782 24.0173 121.464 24.4316"
    fill="url(#paint42_linear_5306_22396)" />
  <path
    d="M178.352 35.1336C179.71 35.2181 181.066 35.2587 182.421 35.2555C200.506 35.2555 218.679 28.0917 236.291 21.152C247.991 16.1518 260.088 12.1353 272.456 9.14411C271.026 8.72175 269.592 8.31401 268.153 7.9209C257.032 10.9405 246.125 14.6947 235.501 19.1588C216.788 26.5371 197.441 34.1638 178.483 32.9894C167.264 31.5928 156.325 28.4866 146.046 23.7788C140.359 21.5321 134.521 19.2368 128.751 17.5165C127.718 17.9584 126.689 18.4083 125.666 18.8664C132.322 20.7981 138.864 23.1019 145.262 25.7671C155.746 30.5677 166.907 33.7252 178.352 35.1288"
    fill="url(#paint43_linear_5306_22396)" />
  <path
    d="M179.77 26.854C168.752 25.3299 157.987 22.3387 147.762 17.9601C144.268 16.6541 140.711 15.3285 137.158 14.1151C136.112 14.5114 135.069 14.9159 134.029 15.3285C138.357 16.7321 142.733 18.3646 147.012 19.968C157.422 24.4188 168.382 27.4496 179.6 28.9788C181.338 29.125 183.075 29.1964 184.81 29.1932C203.031 29.1932 221.174 21.6005 238.767 14.2418C245.765 11.3178 252.9 8.34017 260.005 5.85477C258.706 5.55262 257.393 5.26509 256.067 4.99219C249.981 7.23392 243.918 9.76806 237.944 12.2681C218.913 20.2311 199.21 28.4476 179.78 26.8491"
    fill="url(#paint44_linear_5306_22396)" />
  <path
    d="M148.685 14.2417C159.24 18.4622 170.262 21.4071 181.516 23.0137C183.443 23.1957 185.365 23.285 187.282 23.2818C205.756 23.2818 223.671 15.2456 241.044 7.44826C243.837 6.19581 246.649 4.93362 249.475 3.70554C248.195 3.47811 246.912 3.26369 245.625 3.06226C243.799 3.87123 241.981 4.68345 240.172 5.49893C221.249 13.9883 201.673 22.7798 181.721 20.8841C170.644 19.2838 159.796 16.3718 149.406 12.2095L145.96 11.0009C144.856 11.3648 143.754 11.7368 142.656 12.1169C144.64 12.7992 146.648 13.5058 148.689 14.2271"
    fill="url(#paint45_linear_5306_22396)" />
  <path
    d="M184.499 13.5496C175.365 12.4135 166.36 10.4062 157.608 7.55536C156.308 7.89974 155.022 8.25387 153.748 8.61775C163.674 11.9668 173.905 14.332 184.294 15.6792C186.341 15.8774 188.37 15.9749 190.381 15.9716C207.438 15.9716 223.33 9.23179 238.754 2.10696C237.389 1.93802 236.021 1.77558 234.65 1.61963C218.661 8.88578 202.121 15.265 184.504 13.5349"
    fill="url(#paint46_linear_5306_22396)" />
  <path
    d="M190.039 5.48909C191.868 5.63529 193.673 5.70677 195.453 5.70352C204.764 5.56855 213.987 3.88368 222.744 0.718089C220.639 0.614124 218.527 0.542649 216.409 0.503662C207.916 3.03401 199.033 4.00001 190.195 3.35457C187.632 3.14989 185.054 2.86723 182.466 2.5261C180.123 2.85099 177.792 3.21811 175.473 3.62747C180.346 4.45107 185.219 5.08948 190.024 5.48909"
    fill="url(#paint47_linear_5306_22396)" />
  <defs>
    <linearGradient id="paint0_linear_5306_22396" x1="219.869" y1="406.12" x2="328.444" y2="425.404"
      gradientUnits="userSpaceOnUse">
      <stop stop-color="#FB5757" />
      <stop offset="0.663541" stop-color="#31347C" />
    </linearGradient>
    <linearGradient id="paint1_linear_5306_22396" x1="64.2486" y1="387.917" x2="391.95" y2="486.357"
      gradientUnits="userSpaceOnUse">
      <stop stop-color="#FB5757" />
      <stop offset="0.663541" stop-color="#31347C" />
    </linearGradient>
    <linearGradient id="paint2_linear_5306_22396" x1="49.8767" y1="378.877" x2="412.116" y2="491.858"
      gradientUnits="userSpaceOnUse">
      <stop stop-color="#FB5757" />
      <stop offset="0.663541" stop-color="#31347C" />
    </linearGradient>
    <linearGradient id="paint3_linear_5306_22396" x1="39.1714" y1="369.827" x2="429.405" y2="491.853"
      gradientUnits="userSpaceOnUse">
      <stop stop-color="#FB5757" />
      <stop offset="0.663541" stop-color="#31347C" />
    </linearGradient>
    <linearGradient id="paint4_linear_5306_22396" x1="30.338" y1="360.917" x2="443.713" y2="490.359"
      gradientUnits="userSpaceOnUse">
      <stop stop-color="#FB5757" />
      <stop offset="0.663541" stop-color="#31347C" />
    </linearGradient>
    <linearGradient id="paint5_linear_5306_22396" x1="22.9713" y1="352.378" x2="453.535" y2="485.961"
      gradientUnits="userSpaceOnUse">
      <stop stop-color="#FB5757" />
      <stop offset="0.663541" stop-color="#31347C" />
    </linearGradient>
    <linearGradient id="paint6_linear_5306_22396" x1="15.9672" y1="345.781" x2="463.063" y2="487.109"
      gradientUnits="userSpaceOnUse">
      <stop stop-color="#FB5757" />
      <stop offset="0.663541" stop-color="#31347C" />
    </linearGradient>
    <linearGradient id="paint7_linear_5306_22396" x1="9.38641" y1="339.998" x2="463.292" y2="499.981"
      gradientUnits="userSpaceOnUse">
      <stop stop-color="#FB5757" />
      <stop offset="0.663541" stop-color="#31347C" />
    </linearGradient>
    <linearGradient id="paint8_linear_5306_22396" x1="2.85948" y1="330.277" x2="470.885" y2="497.952"
      gradientUnits="userSpaceOnUse">
      <stop stop-color="#FB5757" />
      <stop offset="0.663541" stop-color="#31347C" />
    </linearGradient>
    <linearGradient id="paint9_linear_5306_22396" x1="-3.07346" y1="320.177" x2="479.44" y2="492.653"
      gradientUnits="userSpaceOnUse">
      <stop stop-color="#FB5757" />
      <stop offset="0.663541" stop-color="#31347C" />
    </linearGradient>
    <linearGradient id="paint10_linear_5306_22396" x1="-9.48638" y1="309.616" x2="486.893" y2="488.506"
      gradientUnits="userSpaceOnUse">
      <stop stop-color="#FB5757" />
      <stop offset="0.663541" stop-color="#31347C" />
    </linearGradient>
    <linearGradient id="paint11_linear_5306_22396" x1="-15.0521" y1="298.576" x2="499.586" y2="475.02"
      gradientUnits="userSpaceOnUse">
      <stop stop-color="#FB5757" />
      <stop offset="0.663541" stop-color="#31347C" />
    </linearGradient>
    <linearGradient id="paint12_linear_5306_22396" x1="-20.9761" y1="289.513" x2="505.444" y2="473.151"
      gradientUnits="userSpaceOnUse">
      <stop stop-color="#FB5757" />
      <stop offset="0.663541" stop-color="#31347C" />
    </linearGradient>
    <linearGradient id="paint13_linear_5306_22396" x1="-25.8546" y1="280.317" x2="510.524" y2="469.287"
      gradientUnits="userSpaceOnUse">
      <stop stop-color="#FB5757" />
      <stop offset="0.663541" stop-color="#31347C" />
    </linearGradient>
    <linearGradient id="paint14_linear_5306_22396" x1="-30.3364" y1="269.627" x2="517.668" y2="459.236"
      gradientUnits="userSpaceOnUse">
      <stop stop-color="#FB5757" />
      <stop offset="0.663541" stop-color="#31347C" />
    </linearGradient>
    <linearGradient id="paint15_linear_5306_22396" x1="-35.0152" y1="258.033" x2="525.721" y2="445.557"
      gradientUnits="userSpaceOnUse">
      <stop stop-color="#FB5757" />
      <stop offset="0.663541" stop-color="#31347C" />
    </linearGradient>
    <linearGradient id="paint16_linear_5306_22396" x1="-38.868" y1="246.759" x2="531.76" y2="432.932"
      gradientUnits="userSpaceOnUse">
      <stop stop-color="#FB5757" />
      <stop offset="0.663541" stop-color="#31347C" />
    </linearGradient>
    <linearGradient id="paint17_linear_5306_22396" x1="-41.5425" y1="234.791" x2="536.788" y2="418.964"
      gradientUnits="userSpaceOnUse">
      <stop stop-color="#FB5757" />
      <stop offset="0.663541" stop-color="#31347C" />
    </linearGradient>
    <linearGradient id="paint18_linear_5306_22396" x1="-43.4005" y1="223.976" x2="535.445" y2="413.192"
      gradientUnits="userSpaceOnUse">
      <stop stop-color="#FB5757" />
      <stop offset="0.663541" stop-color="#31347C" />
    </linearGradient>
    <linearGradient id="paint19_linear_5306_22396" x1="-44.7507" y1="215.715" x2="529.169" y2="415.111"
      gradientUnits="userSpaceOnUse">
      <stop stop-color="#FB5757" />
      <stop offset="0.663541" stop-color="#31347C" />
    </linearGradient>
    <linearGradient id="paint20_linear_5306_22396" x1="-45.6213" y1="205.252" x2="534.423" y2="398.511"
      gradientUnits="userSpaceOnUse">
      <stop stop-color="#FB5757" />
      <stop offset="0.663541" stop-color="#31347C" />
    </linearGradient>
    <linearGradient id="paint21_linear_5306_22396" x1="-46.0965" y1="194.876" x2="535.369" y2="386.483"
      gradientUnits="userSpaceOnUse">
      <stop stop-color="#FB5757" />
      <stop offset="0.663541" stop-color="#31347C" />
    </linearGradient>
    <linearGradient id="paint22_linear_5306_22396" x1="-46.2826" y1="184.328" x2="536.161" y2="373.204"
      gradientUnits="userSpaceOnUse">
      <stop stop-color="#FB5757" />
      <stop offset="0.663541" stop-color="#31347C" />
    </linearGradient>
    <linearGradient id="paint23_linear_5306_22396" x1="-46.2863" y1="173.763" x2="535.512" y2="360.466"
      gradientUnits="userSpaceOnUse">
      <stop stop-color="#FB5757" />
      <stop offset="0.663541" stop-color="#31347C" />
    </linearGradient>
    <linearGradient id="paint24_linear_5306_22396" x1="-46.1233" y1="166.249" x2="521.043" y2="368.352"
      gradientUnits="userSpaceOnUse">
      <stop stop-color="#FB5757" />
      <stop offset="0.663541" stop-color="#31347C" />
    </linearGradient>
    <linearGradient id="paint25_linear_5306_22396" x1="-45.6446" y1="158.742" x2="498.543" y2="382.153"
      gradientUnits="userSpaceOnUse">
      <stop stop-color="#FB5757" />
      <stop offset="0.663541" stop-color="#31347C" />
    </linearGradient>
    <linearGradient id="paint26_linear_5306_22396" x1="-44.8705" y1="151.93" x2="490.64" y2="379.242"
      gradientUnits="userSpaceOnUse">
      <stop stop-color="#FB5757" />
      <stop offset="0.663541" stop-color="#31347C" />
    </linearGradient>
    <linearGradient id="paint27_linear_5306_22396" x1="-43.7597" y1="144.769" x2="487.054" y2="370.885"
      gradientUnits="userSpaceOnUse">
      <stop stop-color="#FB5757" />
      <stop offset="0.663541" stop-color="#31347C" />
    </linearGradient>
    <linearGradient id="paint28_linear_5306_22396" x1="-42.2361" y1="138.117" x2="479.768" y2="366.421"
      gradientUnits="userSpaceOnUse">
      <stop stop-color="#FB5757" />
      <stop offset="0.663541" stop-color="#31347C" />
    </linearGradient>
    <linearGradient id="paint29_linear_5306_22396" x1="-40.139" y1="125.607" x2="490.513" y2="338.103"
      gradientUnits="userSpaceOnUse">
      <stop stop-color="#FB5757" />
      <stop offset="0.663541" stop-color="#31347C" />
    </linearGradient>
    <linearGradient id="paint30_linear_5306_22396" x1="-36.4428" y1="113.705" x2="485.949" y2="323.287"
      gradientUnits="userSpaceOnUse">
      <stop stop-color="#FB5757" />
      <stop offset="0.663541" stop-color="#31347C" />
    </linearGradient>
    <linearGradient id="paint31_linear_5306_22396" x1="-31.933" y1="102.776" x2="479.076" y2="310.647"
      gradientUnits="userSpaceOnUse">
      <stop stop-color="#FB5757" />
      <stop offset="0.663541" stop-color="#31347C" />
    </linearGradient>
    <linearGradient id="paint32_linear_5306_22396" x1="-26.9763" y1="92.1957" x2="475.036" y2="295.09"
      gradientUnits="userSpaceOnUse">
      <stop stop-color="#FB5757" />
      <stop offset="0.663541" stop-color="#31347C" />
    </linearGradient>
    <linearGradient id="paint33_linear_5306_22396" x1="-21.7914" y1="81.8354" x2="476.357" y2="272.591"
      gradientUnits="userSpaceOnUse">
      <stop stop-color="#FB5757" />
      <stop offset="0.663541" stop-color="#31347C" />
    </linearGradient>
    <linearGradient id="paint34_linear_5306_22396" x1="-14.8517" y1="72.9523" x2="483.66" y2="240.97"
      gradientUnits="userSpaceOnUse">
      <stop stop-color="#FB5757" />
      <stop offset="0.663541" stop-color="#31347C" />
    </linearGradient>
    <linearGradient id="paint35_linear_5306_22396" x1="-4.83995" y1="62.7886" x2="487.012" y2="206.261"
      gradientUnits="userSpaceOnUse">
      <stop stop-color="#FB5757" />
      <stop offset="0.663541" stop-color="#31347C" />
    </linearGradient>
    <linearGradient id="paint36_linear_5306_22396" x1="12.7226" y1="56.3479" x2="474.467" y2="187.701"
      gradientUnits="userSpaceOnUse">
      <stop stop-color="#FB5757" />
      <stop offset="0.663541" stop-color="#31347C" />
    </linearGradient>
    <linearGradient id="paint37_linear_5306_22396" x1="27.8985" y1="49.908" x2="460.506" y2="174.041"
      gradientUnits="userSpaceOnUse">
      <stop stop-color="#FB5757" />
      <stop offset="0.663541" stop-color="#31347C" />
    </linearGradient>
    <linearGradient id="paint38_linear_5306_22396" x1="41.3706" y1="43.2341" x2="445.659" y2="162.208"
      gradientUnits="userSpaceOnUse">
      <stop stop-color="#FB5757" />
      <stop offset="0.663541" stop-color="#31347C" />
    </linearGradient>
    <linearGradient id="paint39_linear_5306_22396" x1="54.7188" y1="36.3205" x2="429.718" y2="149.559"
      gradientUnits="userSpaceOnUse">
      <stop stop-color="#FB5757" />
      <stop offset="0.663541" stop-color="#31347C" />
    </linearGradient>
    <linearGradient id="paint40_linear_5306_22396" x1="68.1224" y1="29.1492" x2="411.053" y2="135.192"
      gradientUnits="userSpaceOnUse">
      <stop stop-color="#FB5757" />
      <stop offset="0.663541" stop-color="#31347C" />
    </linearGradient>
    <linearGradient id="paint41_linear_5306_22396" x1="82.4518" y1="22.32" x2="384.76" y2="112.581"
      gradientUnits="userSpaceOnUse">
      <stop stop-color="#FB5757" />
      <stop offset="0.663541" stop-color="#31347C" />
    </linearGradient>
    <linearGradient id="paint42_linear_5306_22396" x1="97.4316" y1="14.2967" x2="343.464" y2="79.181"
      gradientUnits="userSpaceOnUse">
      <stop stop-color="#FB5757" />
      <stop offset="0.663541" stop-color="#31347C" />
    </linearGradient>
    <linearGradient id="paint43_linear_5306_22396" x1="109.549" y1="9.23636" x2="320.019" y2="61.3092"
      gradientUnits="userSpaceOnUse">
      <stop stop-color="#FB5757" />
      <stop offset="0.663541" stop-color="#31347C" />
    </linearGradient>
    <linearGradient id="paint44_linear_5306_22396" x1="120.197" y1="6.15684" x2="301.456" y2="49.6268"
      gradientUnits="userSpaceOnUse">
      <stop stop-color="#FB5757" />
      <stop offset="0.663541" stop-color="#31347C" />
    </linearGradient>
    <linearGradient id="paint45_linear_5306_22396" x1="130.928" y1="4.0353" x2="284.372" y2="41.383"
      gradientUnits="userSpaceOnUse">
      <stop stop-color="#FB5757" />
      <stop offset="0.663541" stop-color="#31347C" />
    </linearGradient>
    <linearGradient id="paint46_linear_5306_22396" x1="144.415" y1="2.31031" x2="264.794" y2="35.1595"
      gradientUnits="userSpaceOnUse">
      <stop stop-color="#FB5757" />
      <stop offset="0.663541" stop-color="#31347C" />
    </linearGradient>
    <linearGradient id="paint47_linear_5306_22396" x1="170.282" y1="0.753905" x2="231.475" y2="26.3833"
      gradientUnits="userSpaceOnUse">
      <stop stop-color="#FB5757" />
      <stop offset="0.663541" stop-color="#31347C" />
    </linearGradient>
  </defs>
</svg>