<svg width="425" height="279" viewBox="0 0 425 279" fill="none" xmlns="http://www.w3.org/2000/svg">
  <path
    d="M0.924062 78.8213C0.969168 81.9512 1.47892 85.0403 2.42531 87.9188C3.37086 90.7838 4.61675 93.465 6.12755 95.886C7.62937 98.3101 9.2941 100.556 11.102 102.596C12.0039 103.622 12.9313 104.607 13.884 105.551L16.8144 108.264C20.7813 111.77 24.9463 114.881 29.274 117.571L30.8897 118.597C31.4241 118.949 31.9669 119.286 32.5182 119.589L35.8133 121.469C36.3646 121.778 36.9117 122.103 37.4673 122.401L39.1424 123.261L42.4884 124.976C51.483 129.364 60.6554 133.11 69.9647 136.196C79.2691 139.322 88.6752 141.93 98.128 144.185C102.848 145.36 107.598 146.352 112.339 147.367L119.472 148.745C120.66 148.982 121.851 149.192 123.043 149.39L126.618 150.002L130.193 150.609L133.776 151.16C136.164 151.507 138.552 151.888 140.943 152.213C145.731 152.814 150.511 153.481 155.303 153.988C160.095 154.496 164.896 154.964 169.692 155.427L176.901 155.979L180.506 156.249L184.111 156.453L191.32 156.883L198.53 157.181L202.138 157.33L205.747 157.412L212.957 157.605L205.747 157.661H202.134L198.525 157.605L191.316 157.495L184.107 157.247L180.498 157.104L176.889 156.894L169.679 156.459C164.87 156.073 160.061 155.758 155.26 155.246C145.651 154.369 136.066 153.04 126.508 151.491L122.92 150.901C121.728 150.708 120.532 150.504 119.341 150.272L112.186 148.932C107.432 147.935 102.67 146.975 97.9329 145.806C88.4589 143.502 79.0358 140.844 69.706 137.652C60.3597 134.535 51.1648 130.697 42.1703 126.156L38.8201 124.38L37.145 123.487C36.5936 123.178 36.0466 122.848 35.4953 122.522L32.1959 120.582C31.6446 120.273 31.1018 119.92 30.5674 119.561L28.9517 118.503C24.6159 115.728 20.4505 112.524 16.4921 108.92L13.5787 106.114C12.6372 105.138 11.7127 104.118 10.8179 103.059C9.0202 100.954 7.37101 98.6436 5.89006 96.1561C4.40039 93.6731 3.1843 90.9321 2.27689 88.0124C1.37142 85.0919 0.91193 81.9701 0.924062 78.8213Z"
    fill="url(#paint0_linear_5306_22482)" />
  <path
    d="M1.20117 74.7661C1.53022 78.015 2.34876 81.1478 3.60996 83.985C4.83519 86.8348 6.27418 89.5202 7.90592 92.0018C8.73087 93.2306 9.60722 94.3995 10.531 95.503L13.2833 98.8497C15.1408 101.055 17.1594 102.996 19.1441 105.019C20.1407 106.012 21.1203 107.06 22.1127 108.024C23.105 108.989 24.1568 109.888 25.2212 110.742C26.2857 111.597 27.3968 112.397 28.4824 113.196C29.5681 113.996 30.6579 114.85 31.7606 115.6C33.9658 117.127 36.2643 118.44 38.5459 119.785L41.9937 121.803C43.1302 122.486 44.2752 123.137 45.4372 123.755C46.5992 124.372 47.757 124.979 48.9444 125.513L52.5024 127.118C54.8561 128.221 57.2691 129.164 59.6694 130.128C62.0697 131.093 64.4955 131.975 66.9128 132.885L74.1773 135.559C76.5946 136.469 79.0288 137.285 81.4588 138.112L85.1102 139.353L88.7827 140.455L92.4553 141.558L93.3713 141.834L94.2958 142.054L96.149 142.501C98.6214 143.085 101.073 143.714 103.562 144.26L111.009 145.969C113.486 146.52 115.962 147.099 118.443 147.568C120.924 148.037 123.43 148.417 125.92 148.842L129.664 149.47C130.917 149.669 132.165 149.852 133.409 150.022C134.656 150.181 135.907 150.319 137.154 150.43C138.4 150.54 139.656 150.595 140.915 150.733L148.472 151.427C153.498 151.929 158.493 152.53 163.523 153.054C166.034 153.319 168.548 153.605 171.059 153.859L178.582 154.548C183.603 154.984 188.646 155.221 193.671 155.612L201.211 156.197L208.756 156.715L212.53 156.974C213.802 157.051 215.045 157.09 216.304 157.151L223.853 157.509C213.777 157.465 203.705 156.958 193.641 156.406L186.093 156.009L182.318 155.816L180.431 155.717L178.544 155.574L170.991 154.995C168.472 154.796 165.966 154.532 163.455 154.306L148.383 152.839L140.873 152.172C139.626 152.045 138.358 151.99 137.094 151.885C135.83 151.78 134.55 151.648 133.311 151.494C132.073 151.339 130.797 151.168 129.541 150.975L125.792 150.363C123.29 149.944 120.797 149.564 118.286 149.117C115.776 148.671 113.29 148.114 110.805 147.551L103.371 145.897C100.895 145.346 98.4052 144.69 95.9243 144.089L94.0583 143.631L93.1296 143.405L92.2051 143.124L88.5198 142.021L84.8345 140.919L81.1747 139.656C78.7362 138.812 76.2935 138.002 73.8762 137.059L66.6117 134.346C64.1944 133.425 61.7644 132.56 59.3599 131.551C56.9553 130.542 54.5296 129.643 52.1505 128.474L48.5839 126.82C47.3965 126.269 46.226 125.629 45.0598 124.995C43.8936 124.361 42.7401 123.678 41.595 122.966L38.1727 120.904C35.8911 119.526 33.5884 118.147 31.3577 116.587C30.2424 115.798 29.1694 114.933 28.0753 114.117C26.9812 113.301 25.8955 112.463 24.8226 111.603C23.7496 110.742 22.7022 109.789 21.6886 108.791C20.675 107.793 19.7124 106.74 18.72 105.72C16.7692 103.652 14.7761 101.634 12.9271 99.379L10.2129 95.9496C9.29605 94.8163 8.42953 93.6161 7.61754 92.3548C6.00865 89.8176 4.59799 87.0785 3.40641 84.178C2.20144 81.2604 1.452 78.0616 1.20117 74.7661Z"
    fill="url(#paint1_linear_5306_22482)" />
  <path
    d="M2.02148 70.7664C2.64064 74.1131 3.93834 77.1621 5.4396 79.9575C5.81561 80.6559 6.20152 81.3488 6.59733 82.0362L7.82717 84.0486C8.64989 85.3829 9.45141 86.7502 10.325 88.0239C12.0214 90.6153 13.9849 92.9366 15.8635 95.3351C16.8092 96.5205 17.8058 97.6453 18.777 98.8031C19.7481 99.961 20.7278 101.108 21.7116 102.243L24.659 105.684C25.6344 106.836 26.614 107.956 27.6276 109.02C29.6773 111.149 31.8211 113.121 34.0482 114.925C34.6136 115.377 35.1791 115.822 35.7445 116.259C36.3128 116.689 36.8938 117.092 37.4663 117.511L40.9141 119.997C42.0506 120.852 43.2466 121.585 44.4128 122.379L47.9327 124.717C50.277 126.256 52.6836 127.629 55.1421 128.83C57.5933 130.038 60.0742 131.157 62.5974 132.138C65.1207 133.12 67.6355 134.107 70.1715 135.033L77.805 137.823C80.3495 138.76 82.8728 139.731 85.4131 140.64L93.0466 143.342L100.727 145.663C103.271 146.43 105.875 147.003 108.466 147.521C111.057 148.04 113.687 148.431 116.295 148.894L120.218 149.567L124.14 150.168L128.063 150.774L130.022 151.072L131.986 151.32C134.607 151.635 137.227 151.872 139.853 152.043C142.478 152.214 145.103 152.269 147.728 152.214L151.68 152.081C153.003 152.048 154.326 152.042 155.65 152.048C156.973 152.054 158.296 152.075 159.615 152.109L163.576 152.291C166.214 152.434 168.856 152.533 171.489 152.704L179.39 153.217C182.028 153.399 184.657 153.493 187.29 153.63C189.924 153.768 192.558 153.889 195.2 154.049C197.842 154.209 200.475 154.32 203.113 154.524C213.643 155.478 224.152 156.597 234.694 157.187C224.143 156.972 213.609 156.012 203.075 155.334C200.445 155.18 197.812 155.097 195.178 154.976C192.545 154.854 189.911 154.761 187.269 154.678C184.627 154.595 181.989 154.518 179.352 154.375L171.447 153.978C168.809 153.845 166.18 153.779 163.546 153.675L159.594 153.52C158.279 153.491 156.964 153.476 155.65 153.476C154.335 153.476 153.02 153.494 151.706 153.531L147.749 153.68C145.098 153.752 142.448 153.68 139.802 153.548C137.155 153.415 134.513 153.162 131.88 152.853L129.908 152.616L127.936 152.324L124 151.739L120.061 151.155L116.138 150.499C113.521 150.047 110.909 149.655 108.28 149.153C105.65 148.652 103.046 148.051 100.468 147.24L92.7412 144.869L85.1077 142.112C82.5632 141.186 80.0399 140.205 77.5082 139.257L69.9001 136.428C67.3556 135.491 64.8324 134.465 62.3006 133.489C57.2085 131.537 52.2666 128.975 47.5383 125.836L44.0311 123.443C42.8691 122.633 41.6817 121.883 40.5409 121.006L37.0931 118.454C36.5206 118.024 35.9396 117.61 35.3713 117.169C34.8031 116.728 34.2433 116.265 33.675 115.796C31.4368 113.943 29.2857 111.918 27.2332 109.731C26.2069 108.628 25.2146 107.482 24.2646 106.313L21.3554 102.834C20.3857 101.668 19.4216 100.496 18.4632 99.3157C17.5047 98.1303 16.5293 96.9836 15.5921 95.7706C13.7389 93.3171 11.822 90.9462 10.1299 88.2942C9.28178 86.9929 8.48451 85.6091 7.67875 84.2472L6.47434 82.2017C6.08843 81.507 5.70676 80.8011 5.34205 80.0843C3.82384 77.2448 2.57703 74.1352 2.02148 70.7664Z"
    fill="url(#paint2_linear_5306_22482)" />
  <path
    d="M3.37109 66.8245C3.86208 68.5076 4.51315 70.1043 5.30915 71.5773C6.0725 73.0715 6.80192 74.5987 7.67129 75.9882C8.54066 77.3776 9.42276 78.745 10.3261 80.1234C11.2293 81.5018 12.1157 82.88 13.0487 84.1867L15.8094 88.2008C16.7551 89.513 17.7221 90.792 18.6762 92.0877L20.1139 94.0285L21.577 95.9362L24.5116 99.7516L30.3852 107.361C32.3472 109.867 34.4026 112.246 36.5513 114.495C38.7 116.745 40.9165 118.867 43.2009 120.863C44.3417 121.867 45.4995 122.837 46.6657 123.791C47.2509 124.265 47.8362 124.734 48.4299 125.191L50.2237 126.526L53.8157 129.189C55.0074 130.093 56.216 130.931 57.4543 131.703C58.6927 132.475 59.9352 133.225 61.2032 133.909C61.8309 134.267 62.4755 134.587 63.1201 134.907L65.0497 135.871L68.9088 137.801C70.1811 138.441 71.4957 139.009 72.8061 139.554C74.1165 140.1 75.4312 140.619 76.7586 141.115L80.7492 142.57C83.4124 143.537 86.0714 144.518 88.7262 145.515C91.3852 146.507 94.0399 147.522 96.7074 148.409C98.039 148.856 99.3749 149.28 100.719 149.672C102.064 150.063 103.421 150.4 104.769 150.775L108.823 151.877L110.851 152.429L112.886 152.903C115.596 153.51 118.314 154.039 121.054 154.364L129.302 155.301L130.333 155.417L131.368 155.483L133.433 155.621L137.564 155.897C140.32 156.123 143.077 156.189 145.833 156.178C148.59 156.167 151.346 156.062 154.09 155.853C155.464 155.748 156.838 155.621 158.208 155.456L162.334 154.904C165.094 154.563 167.859 154.3 170.629 154.116L178.933 153.769L181.011 153.68C181.702 153.653 182.393 153.68 183.085 153.653L187.236 153.614C190.006 153.586 192.749 153.559 195.536 153.581L203.835 153.609C206.608 153.647 209.378 153.78 212.138 153.962C223.186 154.745 234.225 155.781 245.264 156.68L236.973 156.239C234.208 156.09 231.46 155.886 228.686 155.687L224.547 155.417L220.4 155.186L212.113 154.745C209.352 154.612 206.6 154.507 203.831 154.513L195.54 154.596C192.775 154.596 190.027 154.678 187.249 154.745L183.106 154.838C182.415 154.838 181.723 154.838 181.032 154.893L178.962 155.009L170.689 155.472C167.936 155.682 165.176 155.946 162.44 156.299L158.314 156.851C156.927 157.022 155.545 157.16 154.158 157.27C151.387 157.494 148.614 157.615 145.837 157.634C143.064 157.634 140.286 157.634 137.521 157.391L133.365 157.132L131.287 157.005L130.252 156.939L129.213 156.829L120.944 155.957C118.174 155.638 115.431 155.125 112.678 154.513L110.63 154.022L108.599 153.471L104.528 152.368C103.17 151.993 101.818 151.651 100.461 151.265C99.1035 150.879 97.7549 150.427 96.4148 149.975C93.7261 149.066 91.0714 148.04 88.4166 147.036C85.7618 146.033 83.1071 145.029 80.4439 144.054L76.4532 142.576C75.1216 142.074 73.7943 141.55 72.4711 140.988C71.148 140.426 69.8291 139.847 68.5356 139.196L64.6553 137.233L62.7172 136.257C62.0726 135.932 61.4238 135.607 60.7876 135.243C59.5154 134.526 58.2431 133.776 56.9963 132.966C55.7495 132.155 54.5197 131.312 53.3323 130.363L49.7403 127.606L47.9422 126.245C47.3527 125.776 46.7675 125.291 46.1822 124.805C45.0118 123.835 43.8554 122.837 42.7132 121.812C40.4274 119.761 38.201 117.594 36.0594 115.294C33.9178 112.995 31.8567 110.569 29.8975 108.011L24.079 100.292L21.1995 96.4324L19.7576 94.4916L18.3455 92.5123C17.404 91.189 16.454 89.8822 15.5211 88.5534L12.8069 84.468C11.8909 83.1172 11.0215 81.7111 10.1352 80.3382C9.24888 78.9653 8.35831 77.5815 7.53135 76.1314C6.70439 74.6813 5.97921 73.1486 5.23706 71.6268C4.46441 70.1327 3.83762 68.5196 3.37109 66.8245Z"
    fill="url(#paint3_linear_5306_22482)" />
  <path
    d="M5.23633 62.9504C5.56711 63.7885 5.92758 64.6046 6.30926 65.4041C6.50151 65.8048 6.69659 66.2018 6.89449 66.5951C7.09805 66.9866 7.31857 67.3614 7.52637 67.7474L8.79862 70.0411C9.01066 70.4216 9.22271 70.8129 9.43899 71.1824L10.1218 72.2851L11.4831 74.4905C11.9368 75.2238 12.3864 75.9682 12.8656 76.696L15.7112 80.9744C19.5703 86.5928 23.5143 92.1175 27.5007 97.5925L33.459 105.835C35.448 108.592 37.4072 111.349 39.4895 113.951C43.6335 119.188 48.0795 124.004 52.7887 128.359C57.5007 132.705 62.4422 136.614 67.5765 140.058C72.7107 143.5 78.0116 146.504 83.4456 149.051C86.1654 150.33 88.9092 151.505 91.6771 152.574C92.3683 152.839 93.0596 153.126 93.7593 153.352L95.8585 154.052L100.057 155.447L102.156 156.142L104.277 156.693L108.517 157.796C111.342 158.623 114.213 159.064 117.067 159.648C118.5 159.924 119.925 160.238 121.354 160.486C122.784 160.735 124.225 160.933 125.663 161.12C128.538 161.488 131.419 161.788 134.306 162.019C140.078 162.444 145.866 162.526 151.638 162.212C157.414 161.908 163.171 161.172 168.881 160.007C170.31 159.72 171.723 159.378 173.16 159.053C174.598 158.728 176.031 158.435 177.469 158.16C178.907 157.884 180.348 157.636 181.79 157.404L186.124 156.853L190.463 156.301L192.63 156.015L194.801 155.844L203.499 155.144L212.201 154.807L214.377 154.725H216.552H220.908C232.515 154.763 244.109 155.276 255.682 156.059C244.088 155.634 232.489 155.298 220.908 155.508L216.561 155.596L214.39 155.634L212.218 155.745L203.533 156.197L194.869 157.002L192.702 157.206L190.543 157.515L186.252 158.093L181.939 158.722C180.505 158.976 179.073 159.246 177.643 159.533C176.214 159.819 174.789 160.117 173.364 160.442C171.939 160.768 170.51 161.121 169.072 161.418C163.315 162.613 157.509 163.373 151.685 163.695C145.871 164.037 140.044 163.976 134.234 163.574C131.33 163.375 128.431 163.087 125.536 162.708C124.085 162.521 122.639 162.317 121.197 162.085C119.756 161.854 118.318 161.534 116.88 161.258C114.009 160.657 111.117 160.205 108.28 159.362L104.005 158.22L101.885 157.669L99.7643 156.963L95.5235 155.541L93.4031 154.829C92.6991 154.576 92.0036 154.306 91.3081 154.035C88.5176 152.933 85.7555 151.736 83.0215 150.446C72.0929 145.247 61.6054 138.316 52.1907 129.373C47.4797 124.921 43.0366 120.009 38.9 114.679C36.822 112.022 34.8712 109.215 32.9035 106.447L27.0172 98.1218C23.0987 92.5641 19.2353 86.9367 15.427 81.2393L12.6323 76.9C12.1616 76.1833 11.7205 75.4334 11.2753 74.6946L9.9394 72.456L9.27783 71.3533C9.05731 70.9784 8.85375 70.5814 8.65443 70.1954L7.42035 67.8632C7.21679 67.4717 6.99627 67.0858 6.80967 66.6888C6.62307 66.2918 6.428 65.8894 6.24565 65.4814C5.90214 64.6268 5.55439 63.7995 5.23633 62.9504Z"
    fill="url(#paint4_linear_5306_22482)" />
  <path
    d="M7.59961 59.1389L8.91427 61.5649C9.33835 62.3754 9.78364 63.1859 10.2586 63.9633C11.1916 65.5237 12.0991 67.1116 13.0533 68.6499L15.9032 73.2867L18.7869 77.8852L20.233 80.1843L21.7216 82.4283L24.6901 86.9218L30.7545 95.7988L42.9723 113.442C47.0706 119.266 51.4277 124.773 56.0214 129.934C60.6206 135.08 65.4571 139.856 70.5038 144.236C75.5019 148.682 80.7466 152.641 86.1948 156.079C91.6482 159.51 97.3124 162.343 103.128 164.548C108.971 166.637 114.924 168.16 120.94 169.102C126.954 170.1 133.011 170.603 139.074 170.608H141.347L143.624 170.536L148.179 170.387C149.697 170.321 151.215 170.315 152.733 170.21C154.252 170.106 155.761 169.979 157.271 169.825C158.781 169.67 160.291 169.483 161.796 169.273C163.302 169.064 164.803 168.722 166.308 168.479L170.82 167.674L173.102 167.255L175.345 166.759C178.335 166.07 181.283 165.248 184.251 164.278C187.22 163.308 190.214 162.552 193.212 161.824L202.224 159.834C205.222 159.15 208.25 158.588 211.274 158.103C214.297 157.617 217.33 157.242 220.358 156.84L224.904 156.244C226.418 156.051 227.94 155.914 229.458 155.759C235.527 155.048 241.621 154.778 247.694 154.607C250.739 154.607 253.784 154.607 256.829 154.64L265.976 155.125C253.808 154.536 241.623 155.017 229.505 156.564C227.991 156.757 226.477 156.901 224.963 157.116L220.43 157.766C217.406 158.202 214.378 158.604 211.367 159.139C208.356 159.674 205.354 160.242 202.364 160.975L193.386 163.076C190.417 163.837 187.449 164.669 184.48 165.623C181.512 166.577 178.543 167.459 175.528 168.165L173.272 168.678L171.007 169.097L166.474 169.924C164.964 170.194 163.458 170.475 161.94 170.74C160.422 171.004 158.9 171.164 157.377 171.324C155.855 171.484 154.332 171.622 152.805 171.732C151.279 171.843 149.756 171.859 148.234 171.931L143.662 172.096L141.372 172.179H139.082C132.967 172.199 126.856 171.717 120.787 170.734C114.713 169.753 108.703 168.188 102.806 166.053C96.9438 163.798 91.2358 160.914 85.7411 157.43C80.244 153.938 74.9539 149.92 69.9143 145.41C64.8311 140.982 59.9776 136.123 55.3852 130.865C50.8047 125.615 46.4632 120.022 42.3829 114.115L30.2965 96.306L24.3381 87.3079L21.4077 82.7481L19.9447 80.4654L18.524 78.1388L15.6953 73.4797L12.9006 68.7821C11.9719 67.2162 11.0898 65.6008 10.1823 64.0129C9.72002 63.2244 9.30018 62.3974 8.8761 61.5759L7.59961 59.1389Z"
    fill="url(#paint5_linear_5306_22482)" />
  <path
    d="M10.459 55.3989L16.57 65.0313C18.5886 68.2678 20.603 71.5041 22.5793 74.7792L28.5673 84.5495L30.0686 86.9864L31.5995 89.3903L34.6571 94.2037C38.7481 100.603 42.8674 106.975 47.0149 113.32C51.12 119.71 55.382 125.902 59.8816 131.801C64.3811 137.701 69.0799 143.336 73.9865 148.645C78.8702 153.986 84.0323 158.881 89.4359 163.295C94.8332 167.697 100.54 171.423 106.48 174.421C112.429 177.365 118.615 179.431 124.919 180.58C131.224 181.774 137.595 182.27 143.964 182.063C147.154 181.968 150.334 181.709 153.506 181.286C156.678 180.863 159.848 180.36 163.014 179.775C169.339 178.584 175.611 177.031 181.831 175.116C184.941 174.157 188.028 173.096 191.093 171.935C192.628 171.383 194.146 170.738 195.681 170.137L200.295 168.367C212.603 163.679 225.095 159.847 237.716 156.888C244.03 155.439 250.401 154.452 256.8 153.933C263.197 153.4 269.614 153.44 276.007 154.054C263.218 153.261 250.403 154.481 237.839 157.688C225.268 160.794 212.832 164.766 200.584 169.586L195.999 171.405C194.468 172.023 192.937 172.674 191.402 173.263C188.323 174.454 185.219 175.524 182.098 176.505C175.855 178.463 169.541 180.04 163.192 181.264C160.015 181.874 156.828 182.392 153.633 182.819C150.439 183.245 147.228 183.521 144.003 183.646C137.562 183.88 131.118 183.4 124.741 182.212C118.348 181.024 112.079 178.905 106.051 175.893C100.049 172.839 94.2839 169.048 88.8337 164.574C83.3966 160.103 78.2034 155.149 73.2911 149.748C68.3655 144.389 63.6602 138.696 59.1945 132.694C54.7162 126.717 50.4754 120.438 46.4127 113.998C42.35 107.558 38.2237 101.184 34.1864 94.7001L31.1797 89.8316L29.6784 87.3946L28.2026 84.9245L22.3248 75.0439C18.4317 68.433 14.4411 61.9436 10.459 55.3989Z"
    fill="url(#paint6_linear_5306_22482)" />
  <path
    d="M13.7871 51.7422C18.5241 58.0001 22.5995 65.0244 26.7471 71.9275C30.8946 78.8305 34.8471 85.9375 39.0115 92.824C47.2303 106.713 55.572 120.502 64.3802 133.746C66.5995 137.032 68.8613 140.261 71.1655 143.433C73.5149 146.565 75.9067 149.642 78.2773 152.751L80.0585 155.073L81.9202 157.333C83.1501 158.827 84.3884 160.3 85.6479 161.744C88.1613 164.644 90.7482 167.427 93.4086 170.092C96.069 172.757 98.81 175.271 101.632 177.634C104.456 179.994 107.335 182.238 110.313 184.218C116.265 188.213 122.608 191.135 129.167 192.901C132.441 193.789 135.756 194.391 139.091 194.704C142.434 194.986 145.786 195.041 149.133 194.87C152.483 194.716 155.824 194.361 159.154 193.806C162.475 193.254 165.774 192.433 169.061 191.512C170.7 191.049 172.337 190.555 173.972 190.029L178.844 188.32C182.089 187.168 185.35 186.114 188.552 184.747C191.753 183.38 194.955 182.073 198.106 180.529C201.257 178.985 204.442 177.568 207.597 176.024C220.171 169.739 232.894 163.795 245.871 158.987L248.301 158.067C249.119 157.78 249.937 157.515 250.756 157.245C252.396 156.716 254.043 156.227 255.697 155.779C259 154.885 262.333 154.124 265.675 153.545C269.017 152.913 272.384 152.529 275.76 152.393C279.133 152.278 282.509 152.42 285.87 152.818C279.142 152.195 272.381 152.585 265.722 153.981C262.394 154.639 259.086 155.442 255.798 156.39C254.153 156.868 252.517 157.385 250.892 157.94C250.077 158.215 249.266 158.502 248.457 158.8L246.044 159.77C233.123 164.732 220.468 170.797 207.932 177.232C204.785 178.809 201.609 180.314 198.45 181.858L196.075 183.005L193.679 184.08C192.081 184.785 190.477 185.471 188.865 186.137C185.647 187.498 182.373 188.59 179.111 189.759L174.23 191.518C172.589 192.069 170.944 192.554 169.29 193.023C165.986 193.966 162.657 194.804 159.294 195.377C155.931 195.951 152.547 196.326 149.163 196.48C145.771 196.669 142.373 196.627 138.985 196.353C135.593 196.05 132.221 195.448 128.892 194.55C122.228 192.729 115.787 189.738 109.744 185.657C106.721 183.633 103.807 181.351 100.974 178.958C98.1414 176.565 95.3679 173.995 92.6877 171.316C90.0075 168.636 87.4078 165.802 84.8803 162.874C83.6194 161.404 82.374 159.919 81.1441 158.42L79.3079 156.142L77.5267 153.799C75.1561 150.673 72.7558 147.58 70.4149 144.426C68.0739 141.272 65.8517 137.942 63.6295 134.623C59.2996 127.885 54.9655 121.153 50.835 114.222L47.7095 109.051L44.6264 103.835L41.5433 98.6243L38.5026 93.3643C34.423 86.3841 30.5426 79.1999 26.4672 72.2252C24.4655 68.702 22.379 65.256 20.3265 61.7825L17.1416 56.6767C16.6242 55.8111 16.0432 55.0226 15.4792 54.2066L13.7871 51.7422Z"
    fill="url(#paint7_linear_5306_22482)" />
  <path
    d="M17.5859 48.166C20.2831 51.1875 22.3653 54.9698 24.6554 58.482C25.7495 60.2959 26.8012 62.1485 27.8784 63.9956C28.9556 65.8426 30.02 67.6675 31.059 69.5367L43.5822 91.8889C51.9239 106.776 60.3716 121.591 69.4173 135.766C71.6098 139.383 73.9762 142.807 76.2832 146.297L79.7522 151.524C80.9099 153.261 82.1101 154.954 83.306 156.652C88.0981 163.417 93.0599 169.967 98.3101 176.137C103.512 182.35 109.066 188.046 114.926 193.174C120.795 198.219 127.076 202.547 133.78 205.243C140.485 207.94 147.576 208.75 154.59 208.254C161.604 207.758 168.585 206.048 175.396 203.661C182.213 201.225 188.924 198.307 195.497 194.922L205.327 189.701C208.588 187.914 211.824 186.034 215.081 184.187C228.045 176.755 240.874 168.848 254.126 162.215C255.785 161.388 257.434 160.561 259.097 159.739C260.759 158.918 262.447 158.218 264.135 157.534C267.527 156.111 270.92 154.838 274.389 153.785C281.289 151.701 288.435 150.477 295.504 151.419C291.971 151.059 288.42 151.157 284.902 151.712C281.385 152.25 277.899 153.086 274.465 154.215C271.03 155.317 267.642 156.652 264.287 158.124C262.611 158.859 260.943 159.631 259.283 160.44C257.634 161.267 255.997 162.143 254.351 162.992C241.179 169.763 228.406 177.785 215.48 185.367C212.236 187.236 209.008 189.149 205.747 190.974L195.904 196.256C189.298 199.682 182.554 202.64 175.701 205.117C168.835 207.526 161.799 209.307 154.658 209.831C147.516 210.354 140.281 209.572 133.411 206.82C126.541 204.069 120.188 199.614 114.256 194.492C108.359 189.298 102.771 183.537 97.5382 177.256C92.2796 171.026 87.2966 164.426 82.5002 157.622C81.3043 155.913 80.1042 154.209 78.9422 152.467L75.4859 147.207C73.1916 143.678 70.8422 140.221 68.6667 136.577C59.6931 122.269 51.3259 107.355 43.0818 92.3632L30.7834 69.8016C29.7613 67.9159 28.7139 66.0576 27.6621 64.205C26.6104 62.3525 25.5714 60.4833 24.5027 58.6473C22.2678 55.0744 20.2407 51.2481 17.5859 48.166Z"
    fill="url(#paint8_linear_5306_22482)" />
  <path
    d="M21.834 44.6768C23.2921 46.1856 24.6214 47.8935 25.7992 49.7712C27.0163 51.6072 28.174 53.4985 29.3233 55.4062C29.9085 56.3491 30.4471 57.336 30.9984 58.3119L32.6481 61.2451C33.738 63.2079 34.866 65.1431 35.9263 67.128L48.742 90.9192L55.1372 102.823L61.6087 114.656C62.1515 115.637 62.6816 116.629 63.2329 117.605L64.8911 120.522L68.2074 126.361C69.3185 128.302 70.3999 130.265 71.5365 132.183L74.9546 137.912C79.4498 145.631 84.2505 153.014 88.9493 160.518C93.7414 167.906 98.7484 175.042 103.97 181.927C109.148 188.846 114.634 195.363 120.399 201.445C123.292 204.445 126.302 207.246 129.419 209.837C132.52 212.448 135.763 214.761 139.122 216.756C142.461 218.761 145.976 220.224 149.589 221.112C153.214 221.945 156.9 222.244 160.577 222.005C162.417 221.906 164.266 221.708 166.09 221.416C167.913 221.123 169.737 220.704 171.544 220.202C175.16 219.17 178.733 217.893 182.247 216.376C189.309 213.39 196.216 209.817 202.926 205.68C206.289 203.64 209.588 201.385 212.917 199.234C214.575 198.132 216.255 197.095 217.9 195.965L222.853 192.623L227.807 189.271L232.734 185.869L237.667 182.467L242.582 179.021C245.86 176.722 249.13 174.412 252.442 172.184C255.754 169.957 259.019 167.625 262.399 165.568C269.095 161.323 275.855 157.187 282.925 154.061C286.457 152.497 290.077 151.287 293.751 150.439C297.42 149.534 301.169 149.321 304.884 149.805C301.173 149.416 297.438 149.722 293.794 150.714C290.142 151.627 286.549 152.895 283.043 154.508C276.033 157.739 269.324 161.979 262.687 166.329C261.029 167.432 259.337 168.424 257.709 169.599L252.789 173.017C249.503 175.278 246.242 177.621 242.98 179.953L238.082 183.449L233.171 186.906L228.256 190.363L223.32 193.765L218.384 197.167C216.742 198.308 215.067 199.372 213.413 200.475L208.43 203.783C206.771 204.886 205.097 205.957 203.409 206.997C196.668 211.183 189.727 214.8 182.629 217.826C179.079 219.374 175.47 220.678 171.815 221.735C169.979 222.248 168.13 222.673 166.264 222.987C164.398 223.301 162.528 223.494 160.649 223.61C156.881 223.862 153.103 223.566 149.385 222.728C145.67 221.831 142.055 220.338 138.622 218.284C135.211 216.243 131.918 213.883 128.771 211.221C125.621 208.58 122.582 205.724 119.666 202.664C113.873 196.527 108.365 189.95 103.169 182.969C97.9413 176.048 92.9286 168.867 88.1308 161.428C83.4193 153.912 78.6526 146.464 74.1997 138.684C65.154 123.284 56.63 107.377 48.2501 91.3769L35.6676 67.3816C34.6243 65.3692 33.5217 63.4285 32.4488 61.4491L30.833 58.4939C30.2944 57.507 29.7601 56.5145 29.1918 55.5551C28.068 53.6309 26.9315 51.6955 25.744 49.8485C24.585 47.9496 23.2743 46.2161 21.834 44.6768Z"
    fill="url(#paint9_linear_5306_22482)" />
  <path
    d="M26.5195 41.2847C27.3394 41.9764 28.1088 42.7645 28.8181 43.639C29.5305 44.5046 30.2133 45.42 30.8749 46.3573C32.1938 48.2374 33.4193 50.2167 34.6492 52.1961L35.5483 53.7013L36.3964 55.2397L38.1267 58.3163C39.2759 60.3729 40.4464 62.4072 41.5787 64.4803L48.2283 77.0405L54.7592 89.7218C63.3765 106.671 72.0278 123.592 81.1753 140.05L88.1133 152.323L95.2591 164.381L97.0445 167.398L98.9062 170.336L102.634 176.203L106.362 182.069C107.613 184.01 108.906 185.929 110.204 187.803C115.359 195.404 120.834 202.629 126.603 209.444C132.396 216.187 138.558 222.462 145.314 227.408C148.67 229.917 152.225 231.95 155.916 233.473C159.605 234.925 163.435 235.693 167.289 235.755C171.157 235.797 175.017 235.287 178.799 234.234C182.594 233.176 186.327 231.772 189.969 230.032C193.625 228.312 197.225 226.371 200.741 224.215C204.257 222.059 207.709 219.689 211.106 217.213C212.802 215.974 214.498 214.706 216.195 213.409C217.891 212.13 219.524 210.768 221.195 209.45C224.524 206.798 227.857 204.168 231.178 201.477C237.831 196.135 244.447 190.759 251.02 185.262C257.594 179.765 264.103 174.146 270.732 168.754L275.77 164.834C277.466 163.544 279.107 162.187 280.829 160.974C284.256 158.515 287.742 156.188 291.325 154.143C294.9 152.065 298.61 150.405 302.411 149.181C306.227 148.023 310.176 147.449 314.056 148.144C310.167 147.538 306.227 148.188 302.457 149.423C298.683 150.712 295.004 152.436 291.465 154.573C287.911 156.668 284.455 159.039 281.067 161.542C279.37 162.777 277.721 164.155 276.05 165.473L271.067 169.399C264.485 174.863 257.98 180.487 251.461 186.1C244.943 191.713 238.315 197.127 231.699 202.519C228.404 205.238 225.071 207.906 221.754 210.597C218.438 213.287 215.084 215.917 211.67 218.421C208.256 220.924 204.795 223.311 201.25 225.5C197.705 227.689 194.079 229.657 190.389 231.411C186.697 233.185 182.913 234.62 179.066 235.706C175.2 236.795 171.254 237.327 167.298 237.294C163.327 237.246 159.38 236.468 155.576 234.983C151.802 233.444 148.166 231.379 144.733 228.825C137.862 223.769 131.658 217.406 125.827 210.597C120.032 203.718 114.533 196.429 109.356 188.763C108.062 186.855 106.764 184.947 105.509 182.996L101.781 177.102L98.0538 171.202L96.1963 168.252L94.4109 165.225L87.2778 153.095L80.4035 140.794C71.3366 124.22 62.7701 107.211 54.2588 90.1684L47.8466 77.3878L41.32 64.7065C40.2089 62.6168 39.0597 60.5714 37.9274 58.4983L36.231 55.3939L35.3829 53.8446L34.5008 52.3229C33.3176 50.3105 32.1005 48.3201 30.807 46.4179C30.1582 45.4695 29.4924 44.5432 28.7884 43.6611C28.0911 42.7781 27.3315 41.9825 26.5195 41.2847Z"
    fill="url(#paint10_linear_5306_22482)" />
  <path
    d="M31.6211 37.9805C32.5114 38.635 33.3483 39.4056 34.1189 40.2799C34.8992 41.14 35.6372 42.0663 36.3496 43.0367C37.7788 44.9444 39.1104 46.9677 40.3911 49.0408L41.3411 50.6012L42.2528 52.2058L44.0722 55.4146L47.7065 61.8435L54.6191 75.0156L61.2772 88.4026C70.0599 106.322 78.8045 124.285 87.9944 141.851L94.996 154.924C96.1452 157.13 97.3581 159.253 98.5583 161.397L102.163 167.832L105.768 174.272L109.529 180.552L113.291 186.832C114.563 188.921 115.78 191.039 117.086 193.079C122.212 201.322 127.675 209.201 133.452 216.682C136.353 220.399 139.351 223.988 142.459 227.395C145.553 230.82 148.8 234.003 152.184 236.928C155.549 239.853 159.125 242.346 162.862 244.372C166.587 246.382 170.525 247.65 174.541 248.132C178.563 248.58 182.613 248.301 186.577 247.305C190.556 246.287 194.459 244.822 198.243 242.927C202.038 241.035 205.743 238.85 209.337 236.382C211.131 235.147 212.899 233.841 214.647 232.484C215.52 231.806 216.39 231.111 217.25 230.411L218.523 229.347L219.795 228.244L224.884 223.833L227.428 221.628C228.277 220.895 229.125 220.167 229.973 219.384L239.943 210.143L249.901 200.82L259.773 191.413L279.247 172.039C285.748 165.604 292.415 159.357 299.603 154.235C301.401 152.956 303.225 151.754 305.091 150.657C306.951 149.543 308.863 148.58 310.816 147.773C314.717 146.196 318.873 145.397 322.932 146.224C318.869 145.48 314.734 146.367 310.875 148.01C307.018 149.747 303.299 151.963 299.768 154.626C292.657 159.848 286.071 166.161 279.633 172.689L260.269 192.246L250.418 201.774L240.528 211.147L230.584 220.52C229.765 221.319 228.913 222.053 228.039 222.791L225.495 224.997L220.406 229.446L219.133 230.549L217.836 231.624C216.966 232.33 216.097 233.03 215.215 233.719C213.459 235.092 211.674 236.421 209.859 237.673C206.228 240.182 202.486 242.406 198.65 244.333C194.799 246.27 190.826 247.769 186.776 248.816C182.704 249.853 178.54 250.15 174.405 249.698C170.268 249.214 166.211 247.922 162.37 245.866C158.556 243.807 154.905 241.268 151.471 238.285C148.051 235.316 144.771 232.083 141.649 228.603C138.515 225.157 135.5 221.529 132.587 217.779C126.793 210.244 121.315 202.307 116.179 194.005C105.981 177.365 96.3135 160.21 87.1759 142.541C78.0836 124.859 69.428 106.829 60.7513 88.8161L54.2204 75.3298L47.4351 62.0697L43.8644 55.5966L42.0747 52.3657L41.1799 50.7501L40.2469 49.1733C38.9747 47.0781 37.7024 45.0325 36.286 43.1083C35.5863 42.1434 34.8611 41.2061 34.0935 40.3515C33.3343 39.4527 32.5058 38.6581 31.6211 37.9805Z"
    fill="url(#paint11_linear_5306_22482)" />
  <path
    d="M37.1387 34.7854C38.0911 35.3999 38.9826 36.1625 39.7934 37.0568C40.6122 37.9386 41.395 38.8755 42.1386 39.8634C43.6314 41.8318 45.0139 43.9325 46.354 46.0773C49.0257 50.3779 51.5066 54.8659 53.9323 59.4036L61.006 73.1877C63.3173 77.8191 65.5819 82.4892 67.8719 87.1427C76.9218 105.834 85.8276 124.635 95.1404 143.095C104.534 161.483 114.161 179.672 124.487 197.172C129.682 205.889 135.089 214.375 140.865 222.447C146.641 230.519 152.739 238.171 159.495 244.766C162.842 248.09 166.41 251.02 170.156 253.521C173.881 256.033 177.889 257.76 182.031 258.638C186.177 259.441 190.395 259.373 194.524 258.439C198.669 257.496 202.721 255.962 206.606 253.863C214.418 249.717 221.678 243.939 228.659 237.697C232.14 234.565 235.55 231.285 238.921 227.949C242.293 224.614 245.609 221.151 248.955 217.76L258.925 207.505C259.774 206.645 260.596 205.795 261.419 204.924L263.879 202.305L268.798 197.062L271.258 194.437L273.662 191.725L278.467 186.294L288.064 175.399L290.464 172.681L292.916 170.023L297.814 164.719C298.636 163.842 299.434 162.938 300.273 162.089C301.113 161.24 301.97 160.385 302.792 159.547C304.489 157.871 306.211 156.25 307.958 154.684C311.439 151.494 315.163 148.78 319.073 146.585C321.037 145.512 323.084 144.719 325.18 144.22C327.274 143.718 329.42 143.696 331.52 144.153C329.419 143.731 327.278 143.787 325.193 144.319C323.11 144.85 321.079 145.673 319.132 146.772C315.258 149.031 311.573 151.802 308.136 155.043C306.401 156.625 304.701 158.279 303.047 159.977C302.199 160.821 301.38 161.681 300.558 162.547C299.735 163.412 298.938 164.333 298.128 165.221L293.268 170.564L290.85 173.254L288.475 176.011C285.299 179.677 282.135 183.349 278.942 186.994L274.158 192.469L271.767 195.226L269.315 197.878L264.409 203.176L261.958 205.829C261.139 206.705 260.304 207.56 259.477 208.425L249.54 218.786C246.207 222.215 242.899 225.683 239.545 229.079C236.19 232.476 232.759 235.746 229.257 238.905C222.268 245.201 214.956 251.035 207.03 255.291C203.068 257.445 198.935 259.022 194.707 259.994C190.452 260.965 186.106 261.047 181.831 260.237C177.567 259.342 173.439 257.574 169.601 254.999C165.781 252.469 162.143 249.498 158.732 246.122C151.904 239.418 145.763 231.665 139.974 223.549C134.186 215.433 128.766 206.882 123.575 198.126C118.512 189.244 113.329 180.483 108.563 171.319C103.635 162.31 99.0208 153.03 94.3262 143.822C85.1024 125.258 76.2815 106.38 67.3461 87.5836C65.1027 82.9026 62.8847 78.2104 60.6159 73.5293L53.6736 59.6462C51.2988 55.0754 48.8603 50.5542 46.2352 46.2205C44.9163 44.0592 43.555 41.9419 42.0835 39.9515C41.3502 38.9531 40.5774 38.0054 39.768 37.112C38.9672 36.2009 38.0843 35.4198 37.1387 34.7854Z"
    fill="url(#paint12_linear_5306_22482)" />
  <path
    d="M43.0488 31.6951C44.0521 32.2764 44.9895 33.0333 45.8351 33.9447C46.6876 34.8436 47.5016 35.8026 48.2735 36.8172C49.8214 38.8352 51.2421 40.9965 52.6543 43.1964C55.4533 47.6073 58.0147 52.2332 60.4913 56.9363C62.968 61.6394 65.3174 66.4582 67.7304 71.2165C70.1435 75.9747 72.4378 80.838 74.7957 85.6458C84.0915 104.988 93.1118 124.533 102.543 143.743C103.701 146.163 104.914 148.534 106.101 150.91L109.681 158.078L113.256 165.246L116.937 172.325L120.614 179.405C121.843 181.759 123.048 184.135 124.316 186.462C126.824 191.127 129.385 195.742 132 200.307C137.225 209.443 142.704 218.32 148.501 226.844C154.298 235.368 160.346 243.616 167.11 250.762C170.467 254.386 174.029 257.676 177.767 260.604C181.503 263.454 185.481 265.831 189.692 266.983C193.932 268.088 198.291 268.178 202.555 267.247C204.701 266.811 206.825 266.207 208.916 265.439C211.003 264.669 213.052 263.736 215.052 262.644C219.058 260.416 222.943 257.837 226.681 254.925C230.452 252.054 234.115 248.966 237.669 245.662C241.227 242.354 244.683 238.875 248.076 235.285C249.772 233.495 251.45 231.668 253.11 229.805L258.101 224.247C261.443 220.564 264.734 216.798 268.037 213.054L272.986 207.43C274.628 205.55 276.248 203.632 277.851 201.696C281.069 197.837 284.178 193.823 287.316 189.842L296.718 177.888C298.296 175.904 299.852 173.897 301.442 171.934C303.033 169.971 304.644 168.03 306.277 166.128C307.91 164.226 309.581 162.368 311.256 160.532C312.931 158.696 314.614 156.865 316.345 155.084C319.775 151.539 323.325 148.104 327.256 145.54C329.2 144.204 331.249 143.145 333.367 142.381C335.487 141.595 337.717 141.452 339.885 141.962C337.716 141.484 335.492 141.662 333.384 142.48C331.282 143.273 329.252 144.358 327.328 145.716C323.435 148.335 319.932 151.809 316.54 155.398C314.843 157.201 313.181 159.048 311.523 160.912C309.865 162.776 308.215 164.645 306.608 166.575C305 168.504 303.406 170.462 301.837 172.446C300.268 174.431 298.728 176.46 297.172 178.467L287.842 190.504C284.725 194.517 281.633 198.564 278.423 202.463C276.829 204.414 275.213 206.344 273.576 208.252L268.648 213.925C265.366 217.697 262.096 221.49 258.767 225.212L253.797 230.819C252.147 232.694 250.472 234.546 248.776 236.333C245.383 239.961 241.91 243.467 238.335 246.809C234.76 250.15 231.066 253.276 227.279 256.182C223.502 259.149 219.575 261.778 215.523 264.05C213.482 265.173 211.39 266.134 209.26 266.928C207.128 267.712 204.963 268.335 202.775 268.791C198.369 269.758 193.864 269.676 189.48 268.549C185.091 267.358 180.999 264.91 177.182 262.015C173.391 259.067 169.777 255.749 166.372 252.091C162.965 248.458 159.71 244.593 156.618 240.512C153.518 236.449 150.545 232.242 147.645 227.947C141.843 219.373 136.351 210.435 131.105 201.266C128.49 196.679 125.93 192.044 123.425 187.361C122.153 185.023 120.957 182.641 119.727 180.281L116.059 173.18L112.386 166.078L108.824 158.883L105.249 151.644C104.07 149.24 102.87 146.852 101.725 144.421L94.7827 129.893C92.4714 125.046 90.2238 120.15 87.938 115.287L81.1187 100.665C78.8372 95.8018 76.598 90.9 74.274 86.0701C71.9501 81.2402 69.6897 76.3553 67.3445 71.542C64.9993 66.7286 62.633 61.9317 60.2411 57.1624C57.8493 52.3931 55.2921 47.7561 52.5398 43.3232C51.1658 41.1177 49.7493 38.9123 48.2226 36.8888C47.4612 35.8638 46.657 34.8938 45.8139 33.9832C44.9766 33.0604 44.0463 32.2907 43.0488 31.6951Z"
    fill="url(#paint13_linear_5306_22482)" />
  <path
    d="M49.3457 28.7183C50.3956 29.2532 51.3855 29.9689 52.2888 30.8464C53.1981 31.7104 54.0636 32.6497 54.88 33.6584C56.5144 35.6748 58.0565 37.8139 59.4982 40.0651C62.399 44.5476 65.0622 49.2785 67.6449 54.0809C70.2275 58.8832 72.6194 63.8342 75.113 68.7138C75.7448 69.9268 76.3386 71.173 76.928 72.419L78.7092 76.1461L82.2715 83.6062L84.0484 87.3389L85.7871 91.1047L89.2561 98.6362L96.1856 113.705C98.4969 118.728 100.783 123.767 103.115 128.774L110.125 143.771C111.283 146.279 112.475 148.761 113.671 151.236L117.25 158.68L120.821 166.123C122.012 168.604 123.259 171.035 124.48 173.495L131.83 188.205C134.338 193.064 136.889 197.876 139.484 202.64C144.696 212.167 150.137 221.468 156.002 230.318C161.868 239.167 168.008 247.713 174.789 255.322C178.155 259.148 181.744 262.631 185.523 265.737C189.306 268.781 193.343 271.356 197.622 272.817C201.921 274.252 206.392 274.608 210.794 273.864C215.212 273.103 219.536 271.6 223.656 269.393C227.799 267.195 231.808 264.594 235.649 261.613C237.579 260.136 239.492 258.597 241.358 256.993C243.224 255.388 245.047 253.685 246.841 251.948C254.012 244.94 260.696 237.1 267.197 229.033L272.112 223.029L276.968 216.931C280.199 212.851 283.473 208.842 286.62 204.674C288.192 202.59 289.747 200.484 291.285 198.356C292.82 196.222 294.33 194.049 295.856 191.899L305 178.986L309.597 172.546C311.128 170.402 312.709 168.317 314.308 166.244C317.497 162.103 320.873 158.216 324.261 154.362C327.65 150.508 331.17 146.814 335.029 143.76C336.943 142.202 339.001 140.962 341.153 140.071C343.308 139.163 345.609 139.001 347.828 139.602C345.611 139.031 343.317 139.221 341.174 140.154C339.039 141.073 337.002 142.336 335.11 143.914C331.293 147.013 327.841 150.795 324.469 154.655C321.098 158.514 317.777 162.478 314.639 166.658C313.066 168.747 311.505 170.848 309.974 173.015L305.441 179.516L296.365 192.516C294.851 194.678 293.35 196.861 291.819 199.012C290.288 201.162 288.736 203.285 287.154 205.385C284.016 209.603 280.755 213.656 277.549 217.747L272.761 223.906L267.867 229.971L262.969 236.036C261.34 238.059 259.648 240.005 257.965 241.952C254.572 245.811 251.103 249.582 247.494 253.117C245.687 254.881 243.847 256.59 241.981 258.222C240.115 259.854 238.164 261.404 236.23 262.898C232.344 265.927 228.289 268.572 224.097 270.81C219.887 273.079 215.468 274.628 210.951 275.419C206.4 276.198 201.778 275.842 197.329 274.372C192.885 272.861 188.742 270.231 184.878 267.132C181.028 263.99 177.374 260.46 173.95 256.574C167.105 248.855 160.926 240.254 155.069 231.344C149.213 222.434 143.738 213.077 138.53 203.511C135.926 198.732 133.382 193.901 130.897 189.016L123.56 174.267C122.343 171.802 121.096 169.359 119.909 166.873L116.355 159.407L112.81 151.931C111.626 149.444 110.443 146.969 109.294 144.432L102.356 129.364C100.049 124.335 97.7887 119.279 95.5028 114.24L88.6497 99.1105L85.2146 91.5514L83.4971 87.7745L81.7499 84.0251L78.2554 76.5157L76.5082 72.7663C75.9272 71.5092 75.3462 70.2578 74.727 69.0393C72.2801 64.1321 69.8671 59.1918 67.3947 54.3068C64.8502 49.4768 62.2421 44.7132 59.3837 40.1975C57.9656 37.9278 56.4462 35.7682 54.8333 33.7301C54.0238 32.7141 53.167 31.7639 52.2676 30.8849C51.373 29.9951 50.3902 29.2664 49.3457 28.7183Z"
    fill="url(#paint14_linear_5306_22482)" />
  <path
    d="M56.0078 25.8669C57.095 26.3463 58.1288 27.01 59.0824 27.8409C60.0423 28.6605 60.9576 29.5649 61.822 30.5479C63.5422 32.5184 65.1575 34.6388 66.6565 36.8942C69.6675 41.3988 72.4156 46.1792 75.0746 51.0422C77.7336 55.9052 80.2653 60.8785 82.7292 65.9289C85.1932 70.9794 87.5087 76.1014 89.9005 81.1904C99.2982 101.662 108.327 122.421 117.674 142.943L119.417 146.802L121.194 150.629L124.756 158.216L128.301 165.869C129.463 168.438 130.723 170.925 131.936 173.45L139.264 188.552C141.808 193.514 144.395 198.415 146.961 203.35C148.233 205.804 149.505 208.312 150.833 210.722C152.16 213.131 153.5 215.557 154.866 217.945C157.593 222.72 160.408 227.395 163.347 231.955C169.212 241.069 175.429 249.835 182.312 257.615C185.73 261.527 189.377 265.086 193.22 268.262C197.035 271.455 201.174 273.94 205.518 275.645C209.873 277.236 214.414 277.782 218.919 277.255C223.437 276.698 227.875 275.338 232.108 273.213C236.361 271.1 240.467 268.517 244.381 265.494C246.343 263.994 248.27 262.412 250.161 260.747C252.044 259.093 253.88 257.323 255.674 255.492C259.271 251.837 262.71 247.917 266.09 243.914C269.47 239.911 272.807 235.831 276.026 231.607C277.643 229.497 279.241 227.365 280.818 225.212L285.542 218.722L290.267 212.227C291.844 210.066 293.409 207.904 294.932 205.693C298.006 201.282 300.988 196.761 303.982 192.246C306.976 187.73 309.953 183.203 312.981 178.726L317.518 172.011C319.024 169.761 320.546 167.534 322.103 165.339C323.659 163.145 325.237 160.984 326.869 158.883C328.502 156.782 330.169 154.742 331.852 152.713C335.245 148.683 338.697 144.729 342.577 141.526C344.503 139.893 346.577 138.576 348.752 137.606C349.852 137.14 350.991 136.849 352.145 136.74C353.285 136.637 354.43 136.771 355.537 137.137C354.427 136.79 353.283 136.673 352.145 136.79C351.004 136.918 349.879 137.224 348.794 137.7C346.637 138.698 344.582 140.04 342.679 141.697C338.862 144.944 335.415 148.936 332.077 153.011C330.419 155.056 328.773 157.135 327.158 159.241C325.542 161.347 323.99 163.536 322.459 165.747C320.928 167.958 319.427 170.208 317.938 172.474L313.473 179.25C310.474 183.76 307.535 188.309 304.546 192.847C301.556 197.384 298.608 201.933 295.551 206.383C294.024 208.588 292.459 210.794 290.886 212.971L286.196 219.511L281.501 226.039C279.923 228.205 278.337 230.361 276.726 232.49C273.515 236.763 270.182 240.876 266.815 244.923C263.448 248.97 259.975 252.912 256.357 256.612C254.551 258.464 252.697 260.251 250.793 261.938C248.889 263.625 246.942 265.246 244.954 266.751C240.989 269.832 236.829 272.466 232.519 274.625C228.19 276.811 223.649 278.212 219.025 278.787C214.376 279.348 209.688 278.799 205.192 277.166C200.739 275.43 196.494 272.895 192.579 269.635C188.676 266.425 184.973 262.823 181.502 258.861C174.552 250.977 168.318 242.138 162.419 232.947C159.475 228.36 156.648 223.659 153.937 218.843C152.571 216.443 151.227 214.024 149.904 211.587C148.585 209.145 147.325 206.625 146.032 204.188C143.488 199.226 140.875 194.313 138.348 189.34L131.028 174.189C128.551 169.16 126.223 164.027 123.874 158.91L120.328 151.269L118.568 147.409L116.842 143.549L109.951 128.067L103.128 112.541C100.866 107.362 98.5857 102.194 96.2872 97.0367L92.8521 89.2899L91.1558 85.4304L89.4001 81.5709C87.0549 76.4597 84.7352 71.3211 82.3645 66.221C79.9939 61.1209 77.4579 56.1643 74.8498 51.2627C72.2417 46.3611 69.5318 41.5587 66.5675 37.021C65.0895 34.7486 63.4941 32.6099 61.7923 30.6197C60.0536 28.679 58.1749 26.8373 56.0078 25.8669Z"
    fill="url(#paint15_linear_5306_22482)" />
  <path
    d="M63.0312 23.1206C65.2577 23.9587 67.2169 25.69 69.0023 27.5756C70.7723 29.5102 72.4306 31.611 73.9641 33.8611C77.0174 38.3733 79.865 43.114 82.4924 48.0587C85.1514 52.9768 87.6789 57.9832 90.1259 63.0833L97.3353 78.4719C106.75 99.1369 115.753 120.111 125.032 140.864L126.758 144.762L128.531 148.622L132.068 156.341C134.434 161.485 136.733 166.701 139.209 171.779L146.529 187.046C148.993 192.118 151.55 197.108 154.162 202.065C159.357 211.99 164.764 221.677 170.608 230.951C176.452 240.225 182.661 249.096 189.607 256.915C193.056 260.846 196.743 264.408 200.633 267.567C204.501 270.732 208.677 273.21 213.05 274.933C217.43 276.577 221.996 277.221 226.545 276.835C231.102 276.411 235.59 275.147 239.874 273.08C244.174 271.012 248.312 268.415 252.231 265.323C256.165 262.236 259.948 258.835 263.559 255.139C267.18 251.456 270.666 247.536 274.051 243.478C277.435 239.42 280.721 235.208 283.936 230.918C285.539 228.768 287.126 226.595 288.698 224.401C290.259 222.195 291.781 219.94 293.325 217.718C296.404 213.247 299.512 208.819 302.481 204.221C305.45 199.622 308.499 195.124 311.467 190.52L315.933 183.639L318.168 180.198L320.432 176.791L324.966 169.981L327.239 166.579L329.55 163.222C332.65 158.772 335.822 154.4 339.151 150.226C342.48 146.052 345.975 142.077 349.868 138.813C351.797 137.146 353.888 135.818 356.085 134.865C358.278 133.961 360.686 133.652 362.913 134.507C360.666 133.782 358.305 133.94 356.127 134.959C353.947 135.94 351.876 137.293 349.97 138.984C346.119 142.292 342.68 146.328 339.368 150.518C336.056 154.709 332.956 159.136 329.898 163.63L327.616 167.01L325.377 170.444L320.907 177.314L318.668 180.744L316.45 184.201L312.014 191.121C309.071 195.741 306.077 200.306 303.109 204.905C300.14 209.503 297.065 213.991 294.008 218.496C292.468 220.74 290.954 223.006 289.402 225.233C287.85 227.461 286.256 229.644 284.657 231.806C278.253 240.484 271.548 248.826 264.254 256.27C260.612 260.011 256.797 263.458 252.829 266.591C248.852 269.741 244.651 272.388 240.285 274.497C235.9 276.62 231.305 277.92 226.638 278.357C221.951 278.77 217.244 278.119 212.728 276.433C208.248 274.683 203.969 272.16 200.006 268.929C196.049 265.744 192.299 262.145 188.793 258.166C181.779 250.238 175.532 241.278 169.684 231.954C163.836 222.631 158.416 212.861 153.225 202.92C150.634 197.957 148.077 192.929 145.621 187.84L138.31 172.529C135.834 167.456 133.539 162.24 131.19 157.09L127.687 149.322L125.935 145.462L124.239 141.548C115.058 120.701 106.152 99.6442 96.8518 78.9295L89.7866 63.4529C87.3651 58.3418 84.8842 53.2857 82.2719 48.34C79.6877 43.3489 76.8811 38.5585 73.8666 33.9936C72.3544 31.7282 70.7174 29.609 68.9684 27.6529C67.1873 25.7452 65.2534 23.9918 63.0312 23.1206Z"
    fill="url(#paint16_linear_5306_22482)" />
  <path
    d="M70.3945 20.5122C72.6294 21.251 74.593 22.9383 76.3656 24.8019C78.1247 26.715 79.7745 28.7917 81.3019 31.0158C84.3605 35.4558 87.2059 40.1365 89.8218 45.0314C92.4214 49.933 94.9659 54.8842 97.5401 59.8134C100.114 64.7426 102.519 69.8204 104.885 74.915C107.252 80.0096 109.525 85.1871 111.844 90.3203L118.753 105.758C121.055 110.903 123.329 116.074 125.652 121.196L132.696 136.513L134.461 140.34C135.046 141.613 135.661 142.87 136.263 144.139L139.88 151.725C142.302 156.781 144.668 161.881 147.149 166.877L154.52 181.929C155.122 183.191 155.762 184.421 156.407 185.651L158.332 189.345L162.183 196.733L166.034 204.116C167.348 206.549 168.681 208.962 170.033 211.355C172.734 216.152 175.546 220.844 178.442 225.409C184.273 234.551 190.44 243.35 197.246 251.235C200.622 255.198 204.229 258.814 208.035 262.053C211.81 265.304 215.909 267.87 220.219 269.678C224.545 271.377 229.074 272.028 233.581 271.597C238.099 271.145 242.547 269.878 246.796 267.831C251.067 265.798 255.192 263.281 259.124 260.31C263.078 257.369 266.874 254.083 270.485 250.474C274.103 246.868 277.563 242.992 280.952 239.006C284.34 235.019 287.677 230.956 290.901 226.743C292.516 224.643 294.107 222.509 295.688 220.364C297.27 218.219 298.814 216.014 300.379 213.842C303.483 209.475 306.651 205.174 309.649 200.686L314.204 194.009L316.477 190.668L318.72 187.288C321.719 182.789 324.683 178.251 327.711 173.785L332.24 167.07C333.75 164.831 335.26 162.598 336.807 160.398C338.355 158.198 339.912 155.987 341.515 153.881C343.118 151.775 344.759 149.674 346.43 147.634C349.78 143.571 353.245 139.628 357.07 136.331C358.97 134.653 361.021 133.285 363.177 132.257C364.259 131.757 365.384 131.435 366.527 131.297C367.671 131.166 368.824 131.329 369.92 131.777C368.822 131.346 367.669 131.199 366.527 131.347C365.39 131.502 364.272 131.839 363.198 132.351C361.06 133.409 359.029 134.803 357.151 136.502C353.368 139.843 349.941 143.824 346.642 147.926C344.991 149.989 343.374 152.091 341.79 154.234C340.209 156.379 338.669 158.579 337.151 160.801C335.633 163.023 334.136 165.278 332.647 167.538L328.173 174.315C325.179 178.819 322.236 183.368 319.267 187.895L317.041 191.296L314.781 194.66L310.251 201.381C307.283 205.907 304.119 210.236 301.032 214.613C299.475 216.819 297.949 219.024 296.367 221.175C294.785 223.325 293.208 225.498 291.596 227.62C288.377 231.877 285.048 235.979 281.668 240.009C278.288 244.04 274.798 247.932 271.155 251.588C267.508 255.244 263.676 258.576 259.684 261.562C255.701 264.597 251.52 267.171 247.19 269.253C242.841 271.358 238.288 272.668 233.662 273.146C229.01 273.601 224.334 272.939 219.867 271.194C215.444 269.358 211.236 266.742 207.36 263.42C203.495 260.147 199.831 256.488 196.402 252.475C189.541 244.492 183.349 235.62 177.509 226.424C174.583 221.825 171.78 217.089 169.074 212.27C167.72 209.863 166.387 207.437 165.075 204.992L161.229 197.576L157.387 190.166L155.465 186.461C154.821 185.231 154.193 183.996 153.578 182.728L146.216 167.638C143.74 162.62 141.377 157.526 138.981 152.453L135.398 144.839C134.804 143.565 134.194 142.303 133.613 141.023L131.865 137.164L124.885 121.764C122.582 116.615 120.339 111.432 118.061 106.266L111.229 90.7777C108.935 85.6224 106.679 80.4452 104.355 75.3395C102.031 70.2339 99.6902 65.1118 97.1457 60.155C94.6012 55.1983 92.1203 50.2305 89.5631 45.2683C86.997 40.3428 84.1968 35.6307 81.1789 31.159C79.6755 28.9166 78.0483 26.8196 76.3105 24.8846C74.5633 22.9989 72.621 21.2841 70.3945 20.5122Z"
    fill="url(#paint17_linear_5306_22482)" />
  <path
    d="M78.1055 18.043C80.3065 18.677 82.2827 20.2042 84.0723 21.941C85.8497 23.7246 87.5119 25.6941 89.0426 27.8296C92.0893 32.1088 94.9466 36.6095 97.6005 41.3103C98.9576 43.637 100.23 46.03 101.536 48.3953L105.438 55.5188C108.067 60.2385 110.561 65.0905 112.986 69.9921C115.412 74.8937 117.719 79.889 120.06 84.8788L127.049 99.8097L134.021 114.741C136.37 119.696 138.765 124.614 141.205 129.495L156.048 158.612L163.503 173.146C164.729 175.583 166.047 177.943 167.32 180.314L171.175 187.482L175.025 194.65C176.323 197.02 177.663 199.347 179.007 201.668C181.705 206.311 184.484 210.865 187.345 215.331C193.079 224.246 199.041 232.941 205.58 240.82C208.828 244.781 212.286 248.44 215.928 251.77C219.535 255.115 223.472 257.813 227.633 259.793C231.808 261.667 236.226 262.453 240.635 262.108C245.059 261.737 249.422 260.57 253.599 258.641C257.799 256.723 261.867 254.351 265.762 251.55C269.679 248.777 273.472 245.717 277.123 242.386C280.77 239.078 284.273 235.439 287.683 231.684C291.092 227.93 294.426 224.053 297.632 219.995C304.15 212.028 310.511 203.808 316.716 195.432L321.342 189.103L323.654 185.938L325.914 182.707L334.955 169.777L339.501 163.343L341.775 160.123L344.086 156.947C345.638 154.841 347.203 152.752 348.806 150.712C350.409 148.672 352.037 146.67 353.687 144.696C356.946 140.685 360.424 136.985 364.094 133.625C365.933 131.947 367.917 130.555 370.006 129.479C371.053 128.948 372.149 128.604 373.267 128.453C374.387 128.296 375.519 128.471 376.579 128.966C375.518 128.488 374.387 128.33 373.271 128.503C372.16 128.671 371.07 129.031 370.031 129.572C367.962 130.68 365.998 132.095 364.179 133.79C360.552 137.201 357.117 140.943 353.899 144.988C352.271 146.99 350.659 149.013 349.082 151.053C347.504 153.093 345.956 155.222 344.417 157.344L342.139 160.553L339.896 163.806L335.409 170.307L326.436 183.319L324.188 186.566L321.889 189.759L317.288 196.116C311.105 204.57 304.773 212.826 298.293 220.883C295.096 224.974 291.771 228.906 288.361 232.705C284.952 236.503 281.419 240.137 277.759 243.517C274.08 246.889 270.257 249.989 266.309 252.801C262.362 255.652 258.238 258.068 253.981 260.024C249.704 262.013 245.235 263.219 240.703 263.608C236.139 263.978 231.564 263.176 227.238 261.249C222.969 259.232 218.928 256.478 215.224 253.061C211.528 249.699 208.019 246.001 204.724 241.995C198.125 234.022 192.146 225.267 186.408 216.302C183.532 211.819 180.755 207.221 178.058 202.556C176.713 200.224 175.373 197.886 174.075 195.504L170.225 188.336L166.378 181.169C165.106 178.77 163.791 176.405 162.562 173.957L155.123 159.396C150.17 149.681 145.249 139.94 140.361 130.173C137.935 125.266 135.562 120.32 133.24 115.336L126.336 100.334L119.424 85.3475C117.117 80.3577 114.835 75.3458 112.439 70.4277C110.043 65.5095 107.622 60.619 105.035 55.8828L101.218 48.7151C99.9457 46.3333 98.6735 43.9183 97.3461 41.5806C94.7416 36.8456 91.9295 32.3095 88.9238 27.9949C87.4172 25.843 85.7776 23.8553 84.0214 22.0514C82.236 20.265 80.281 18.7101 78.1055 18.043Z"
    fill="url(#paint18_linear_5306_22482)" />
  <path
    d="M86.0996 15.707C88.2234 16.3365 90.2299 17.5078 92.0028 19.153C93.7948 20.7461 95.4879 22.5197 97.0664 24.4572C98.6581 26.3833 100.188 28.3865 101.655 30.467C103.122 32.5511 104.53 34.7014 105.896 36.8903C106.583 37.993 107.261 39.0957 107.931 40.1985L109.899 43.5729L113.818 50.327C115.12 52.5876 116.447 54.8208 117.719 57.1089C118.991 59.3971 120.264 61.6963 121.494 64.012C122.723 66.3277 123.949 68.6653 125.162 71.0031L128.758 78.0607L135.938 92.1753L143.122 106.279C144.301 108.65 145.564 110.933 146.794 113.259L150.497 120.201L154.203 127.148L157.994 134.024L165.56 147.808L173.104 161.592L174.992 165.038L176.917 168.44L180.78 175.243C183.359 179.77 185.895 184.346 188.579 188.763C191.264 193.179 193.965 197.585 196.76 201.885C202.349 210.486 208.04 219.005 214.338 226.696C215.913 228.615 217.53 230.47 219.189 232.26C220.848 234.052 222.54 235.794 224.278 237.443C227.71 240.797 231.437 243.607 235.381 245.812C237.349 246.874 239.397 247.665 241.492 248.172C243.59 248.669 245.721 248.9 247.853 248.861C252.145 248.725 256.405 247.86 260.525 246.286C264.653 244.701 268.653 242.602 272.471 240.017C276.313 237.47 280.05 234.62 283.697 231.615C287.344 228.61 290.855 225.313 294.299 221.894C297.742 218.476 301.084 214.931 304.341 211.192L309.218 205.607L311.656 202.812L312.878 201.417L314.074 199.989L318.853 194.249L321.241 191.382L322.432 189.943L323.603 188.476L328.268 182.582L330.596 179.638L331.762 178.16L332.899 176.649L342 164.564L346.567 158.532L348.848 155.51C349.599 154.501 350.401 153.542 351.177 152.555C354.315 148.657 357.385 144.66 360.634 140.916C362.245 139.03 363.878 137.167 365.553 135.369C367.221 133.557 368.965 131.867 370.778 130.308C372.592 128.747 374.526 127.437 376.549 126.398C377.562 125.884 378.623 125.546 379.705 125.395C380.789 125.231 381.888 125.42 382.902 125.946C381.887 125.432 380.79 125.254 379.709 125.428C378.633 125.597 377.58 125.949 376.575 126.475C374.571 127.543 372.656 128.878 370.863 130.456C369.072 132.043 367.349 133.754 365.702 135.584C364.048 137.403 362.436 139.289 360.841 141.197C354.48 148.883 348.429 156.938 342.449 165.11L333.408 177.295L332.275 178.816L331.118 180.305L328.798 183.277L324.158 189.221L322.996 190.704L321.809 192.154L319.434 195.043L314.68 200.832L313.476 202.271L312.263 203.683L309.833 206.506L304.973 212.146C298.494 219.706 291.581 226.612 284.295 232.806C280.618 235.849 276.873 238.727 272.984 241.313C269.106 243.956 265.04 246.103 260.843 247.725C256.628 249.344 252.268 250.241 247.874 250.394C245.665 250.441 243.458 250.209 241.284 249.699C239.105 249.178 236.973 248.363 234.923 247.268C230.891 245.022 227.08 242.159 223.57 238.738C221.802 237.084 220.084 235.314 218.405 233.506C216.726 231.697 215.08 229.834 213.49 227.893C207.129 220.108 201.442 211.54 195.852 202.9C193.053 198.577 190.325 194.179 187.667 189.706C184.979 185.267 182.451 180.68 179.873 176.137L176.014 169.311L174.088 165.898L172.205 162.446L164.682 148.635L157.155 134.851L153.397 127.942L149.704 120.945L146.027 113.954C144.81 111.616 143.55 109.312 142.384 106.935L135.276 92.7598L128.152 78.5843L124.598 71.4993C123.402 69.1505 122.189 66.8127 120.976 64.4804C119.763 62.1482 118.525 59.827 117.274 57.5278C116.023 55.2287 114.729 52.9737 113.457 50.7021L109.598 43.8927L107.668 40.4908C107.007 39.3881 106.341 38.2578 105.667 37.1827C104.314 34.9772 102.931 32.8047 101.49 30.7096C100.048 28.6144 98.521 26.5854 96.9646 24.6446C95.4071 22.686 93.7355 20.887 91.9647 19.2634C90.2097 17.5857 88.2162 16.3768 86.0996 15.707Z"
    fill="url(#paint19_linear_5306_22482)" />
  <path
    d="M94.4121 13.51C96.4699 14.0061 98.4511 14.9374 100.277 16.2668C102.109 17.5747 103.854 19.0797 105.493 20.766C108.751 24.1707 111.802 27.896 114.62 31.909C117.465 35.8843 120.167 40.0251 122.8 44.243C124.111 46.3547 125.417 48.4664 126.685 50.6222L130.459 57.1117C140.557 74.4024 150.031 92.272 160.196 109.447C165.225 118.087 170.344 126.66 175.412 135.284C180.48 143.907 185.437 152.624 190.569 161.165L194.385 167.593L196.298 170.808L198.24 173.989C200.844 178.218 203.482 182.409 206.183 186.533C211.525 194.823 217.24 202.694 223.299 210.103C226.338 213.785 229.543 217.228 232.896 220.414C236.218 223.61 239.785 226.35 243.541 228.591C245.415 229.686 247.353 230.584 249.338 231.276C251.322 231.959 253.348 232.413 255.394 232.632C259.503 233.046 263.636 232.674 267.663 231.529C271.705 230.39 275.652 228.739 279.448 226.6C283.255 224.462 286.956 222.016 290.529 219.278C294.117 216.521 297.594 213.588 301 210.456C304.405 207.325 307.743 204.11 311.021 200.774C314.299 197.439 317.48 193.932 320.707 190.508C323.934 187.084 327.068 183.484 330.236 179.977C333.404 176.47 336.445 172.754 339.566 169.143L348.65 157.961L353.179 152.354L355.443 149.547C356.194 148.61 356.953 147.678 357.729 146.763L362.339 141.249L364.646 138.493C365.426 137.594 366.215 136.701 367.008 135.824C370.152 132.242 373.503 128.981 377.033 126.07C378.807 124.623 380.712 123.466 382.703 122.624C383.704 122.221 384.743 122.002 385.791 121.974C386.839 121.948 387.878 122.236 388.827 122.817C387.875 122.256 386.836 121.988 385.791 122.035C384.75 122.083 383.719 122.323 382.729 122.746C380.76 123.621 378.881 124.808 377.135 126.28C373.643 129.237 370.331 132.538 367.229 136.155C366.444 137.042 365.668 137.947 364.892 138.851L362.615 141.608L358.056 147.177C357.292 148.099 356.54 149.037 355.8 149.989L353.561 152.828L349.082 158.502L340.053 169.777C336.962 173.427 333.887 177.099 330.775 180.721C327.662 184.344 324.477 187.84 321.296 191.352C318.116 194.864 314.876 198.293 311.64 201.728C305.101 208.482 298.328 214.911 291.102 220.436C287.493 223.223 283.752 225.709 279.902 227.879C276.041 230.068 272.026 231.762 267.913 232.935C263.776 234.119 259.529 234.511 255.305 234.099C253.191 233.878 251.096 233.415 249.045 232.715C246.997 232.006 244.996 231.084 243.062 229.958C239.223 227.684 235.576 224.9 232.18 221.649C228.79 218.432 225.551 214.954 222.481 211.234C216.396 203.763 210.66 195.828 205.301 187.47C202.601 183.324 199.954 179.124 197.358 174.872L195.416 171.673L193.457 168.525L189.64 162.08C184.517 153.506 179.551 144.795 174.521 136.166C169.492 127.537 164.398 118.947 159.407 110.252C149.322 92.9501 139.933 75.0035 129.954 57.6356L126.235 51.0963C124.993 48.9239 123.691 46.7958 122.419 44.6676C119.827 40.4221 117.168 36.2537 114.361 32.2453C111.587 28.2035 108.58 24.4434 105.366 20.9975C103.753 19.2862 102.032 17.7536 100.222 16.4157C98.4213 15.0388 96.4584 14.0571 94.4121 13.51Z"
    fill="url(#paint20_linear_5306_22482)" />
  <path
    d="M103.014 11.4553C104.983 11.8537 106.901 12.5955 108.718 13.6608C110.538 14.7155 112.291 15.9581 113.959 17.3768C117.273 20.2544 120.407 23.4679 123.331 26.9871C126.3 30.4662 129.091 34.1548 131.813 37.8986C133.179 39.7806 134.526 41.6845 135.855 43.6106C137.174 45.5459 138.446 47.5363 139.743 49.4936L143.615 55.4043L145.549 58.3595C146.19 59.352 146.821 60.3609 147.436 61.3589L154.977 73.3841L162.483 85.4368L166.24 91.4576L170.057 97.4179L177.669 109.36L185.239 121.364C187.784 125.361 190.239 129.402 192.741 133.416L196.481 139.448C197.754 141.461 199.026 143.44 200.269 145.436L207.877 157.389C210.421 161.337 213.025 165.246 215.692 169.062C221.018 176.704 226.645 183.983 232.55 190.868C238.487 197.683 244.742 204.101 251.82 208.617C255.33 210.904 259.072 212.529 262.935 213.441C266.807 214.302 270.753 214.45 274.657 213.882C278.57 213.285 282.428 212.188 286.175 210.607C289.946 209.042 293.63 207.143 297.201 204.922C300.773 202.71 304.245 200.234 307.6 197.507C310.992 194.805 314.262 191.921 317.519 188.966C320.776 186.011 323.99 182.995 327.137 179.841C330.284 176.687 333.401 173.478 336.535 170.297C338.095 168.692 339.669 167.115 341.2 165.5C342.731 163.884 344.27 162.231 345.788 160.565C348.816 157.219 351.797 153.8 354.808 150.426L363.803 140.242L368.379 135.252C369.914 133.598 371.403 131.895 373.002 130.345C376.136 127.146 379.464 124.282 382.955 121.783C384.7 120.52 386.567 119.565 388.506 118.943C389.478 118.647 390.478 118.534 391.475 118.607C392.472 118.682 393.444 119.043 394.32 119.665C393.438 119.065 392.465 118.724 391.47 118.667C390.471 118.614 389.472 118.748 388.502 119.064C386.583 119.722 384.74 120.71 383.023 122.003C379.568 124.553 376.277 127.459 373.18 130.693C371.602 132.258 370.131 134.001 368.617 135.655L364.096 140.7L355.19 151.027C352.222 154.44 349.253 157.88 346.225 161.26C344.715 162.947 343.197 164.618 341.653 166.255C340.11 167.893 338.541 169.492 336.988 171.108C333.871 174.322 330.784 177.569 327.638 180.745C324.491 183.921 321.276 187.014 318.041 189.997C311.552 195.974 304.894 201.752 297.629 206.202C294.024 208.462 290.303 210.396 286.493 211.991C282.675 213.617 278.743 214.747 274.754 215.365C270.743 215.964 266.687 215.825 262.706 214.952C258.728 214.027 254.872 212.367 251.256 210.022C244.013 205.43 237.647 198.946 231.676 192.092C225.752 185.149 220.107 177.814 214.764 170.115C212.088 166.255 209.492 162.335 206.939 158.371L199.395 146.395C198.123 144.394 196.85 142.409 195.616 140.391L191.884 134.326C189.387 130.296 186.914 126.238 184.404 122.24L169.323 98.2118L165.545 92.2077L161.821 86.1427L154.383 74.0128L146.898 61.9434C146.274 60.9399 145.659 59.9198 145.023 58.9273L143.111 55.9557L139.294 50.0175C138.022 48.0381 136.749 46.0311 135.477 44.0793C134.205 42.1275 132.844 40.2197 131.499 38.3175C128.806 34.5186 126.033 30.819 123.124 27.2903C120.243 23.7381 117.15 20.4878 113.874 17.5698C112.231 16.1207 110.501 14.8449 108.701 13.7545C106.894 12.6577 104.98 11.8843 103.014 11.4553Z"
    fill="url(#paint21_linear_5306_22482)" />
  <path
    d="M111.893 9.56885C115.637 10.1809 119.191 12.0666 122.495 14.3437C125.807 16.6964 128.973 19.3805 131.964 22.3716C134.967 25.3324 137.846 28.4972 140.65 31.7447C142.049 33.3768 143.433 35.0308 144.801 36.707L146.837 39.2487L148.822 41.8566L156.744 52.3325L164.441 63.0619C169.572 70.2296 174.597 77.4967 179.708 84.6644L187.341 95.4323L194.945 106.289C200.034 113.5 204.957 120.889 210.017 128.117C215.076 135.345 220.093 142.629 225.407 149.521C228.049 152.984 230.763 156.352 233.502 159.693C236.242 163.035 239.016 166.31 241.878 169.464C247.574 175.782 253.532 181.776 260.088 186.407C263.341 188.746 266.792 190.584 270.372 191.882C273.97 193.11 277.679 193.703 281.398 193.646C288.845 193.575 296.207 191.237 303.222 187.929C310.248 184.538 317.023 180.325 323.463 175.341C325.083 174.11 326.689 172.849 328.281 171.559C329.871 170.263 331.432 168.901 333.009 167.578L337.725 163.57C339.29 162.224 340.829 160.813 342.39 159.445L347.055 155.299L351.631 151.021C353.149 149.581 354.693 148.192 356.19 146.715L360.689 142.304L369.692 133.482C371.181 131.988 372.729 130.587 374.255 129.159C375.782 127.731 377.305 126.287 378.857 124.903C381.951 122.103 385.213 119.628 388.611 117.503C390.317 116.448 392.122 115.687 393.98 115.237C394.911 115.03 395.861 114.998 396.8 115.144C397.738 115.29 398.639 115.706 399.437 116.362C398.632 115.727 397.728 115.332 396.791 115.204C395.857 115.081 394.914 115.135 393.992 115.364C392.154 115.85 390.372 116.645 388.691 117.729C385.328 119.906 382.103 122.426 379.048 125.266C377.512 126.672 376.015 128.15 374.497 129.589C372.979 131.028 371.461 132.462 369.989 134L361.083 142.982L356.609 147.459C355.121 148.947 353.581 150.359 352.067 151.815L347.509 156.154L342.878 160.35C341.33 161.739 339.799 163.161 338.238 164.529L333.535 168.592C331.962 169.938 330.405 171.316 328.815 172.634C327.225 173.952 325.617 175.225 323.997 176.493C320.757 178.997 317.45 181.379 314.061 183.545C310.665 185.707 307.186 187.639 303.637 189.335C296.551 192.704 289.078 195.108 281.445 195.212C277.626 195.284 273.818 194.687 270.122 193.437C266.449 192.117 262.906 190.245 259.567 187.857C252.879 183.159 246.844 177.128 241.106 170.765C238.244 167.567 235.453 164.27 232.709 160.918C229.966 157.565 227.247 154.163 224.601 150.673C219.275 143.732 214.296 136.387 209.215 129.17C204.135 121.953 199.245 114.509 194.182 107.287L186.62 96.4193L179.025 85.563C173.936 78.3402 168.97 71.0125 163.885 63.8117L156.252 53.0106L148.415 42.4796L146.46 39.8442L144.449 37.2748C143.101 35.5729 141.737 33.893 140.357 32.2352C137.596 28.9271 134.755 25.7293 131.791 22.7299C128.848 19.6991 125.729 16.9706 122.461 14.5696C119.14 12.2153 115.629 10.258 111.893 9.56885Z"
    fill="url(#paint22_linear_5306_22482)" />
  <path
    d="M121.039 7.82861C124.572 8.31381 127.986 9.76944 131.242 11.5834C134.491 13.4444 137.633 15.6057 140.644 18.0509C143.664 20.4879 146.582 23.1399 149.41 25.9078C152.239 28.6756 155.029 31.5429 157.743 34.5147L165.801 43.546C167.158 45.0291 168.443 46.6224 169.749 48.1827L173.655 52.8749L177.561 57.5726L181.403 62.3474L189.083 71.9023L196.742 81.4905C199.287 84.6774 201.831 87.9249 204.376 91.1394L219.545 110.509C229.689 123.355 240.16 135.744 251.139 147.356C253.887 150.245 256.69 153.035 259.587 155.627C262.483 158.218 265.477 160.683 268.535 162.943C271.576 165.225 274.759 167.17 278.051 168.755C281.346 170.292 284.777 171.277 288.263 171.688C291.761 172.085 295.28 172.074 298.776 171.655C302.279 171.266 305.75 170.495 309.154 169.35C312.546 168.247 315.939 166.841 319.264 165.331C322.589 163.82 325.884 162.127 329.111 160.275C335.591 156.614 341.749 152.054 347.949 147.593C354.092 143.028 360.161 138.288 366.155 133.374C372.151 128.483 378.135 123.499 384.314 118.972C385.852 117.833 387.407 116.739 388.979 115.692C390.559 114.634 392.186 113.698 393.851 112.891C395.52 112.086 397.262 111.568 399.034 111.352C399.921 111.254 400.815 111.319 401.688 111.545C402.561 111.78 403.384 112.255 404.101 112.94C403.377 112.274 402.552 111.819 401.68 111.606C400.81 111.401 399.922 111.359 399.042 111.479C397.284 111.734 395.56 112.29 393.915 113.133C392.269 113.97 390.661 114.93 389.102 116.011C387.537 117.081 385.989 118.217 384.462 119.369C378.338 124.001 372.431 129.056 366.473 134.068C360.514 139.08 354.463 143.866 348.33 148.514C342.151 153.024 336.002 157.672 329.493 161.433C323.009 165.261 316.289 168.373 309.404 170.734C305.944 171.908 302.415 172.705 298.853 173.116C295.289 173.551 291.703 173.574 288.136 173.182C284.553 172.772 281.025 171.771 277.636 170.205C274.274 168.602 271.024 166.63 267.92 164.311C264.812 162.033 261.809 159.563 258.862 156.95C255.914 154.336 253.09 151.525 250.325 148.624C239.333 136.936 228.854 124.464 218.718 111.556C208.647 98.5884 198.544 85.6663 188.409 72.7902L180.775 63.1524L176.959 58.339L173.091 53.6137L169.219 48.883C167.947 47.3116 166.675 45.7127 165.309 44.2185L157.328 35.1046C154.648 32.0978 151.907 29.1884 149.105 26.3765C146.302 23.5756 143.431 20.8628 140.449 18.3982C137.473 15.9074 134.364 13.6964 131.145 11.7818C127.943 9.92926 124.563 8.39652 121.039 7.82861Z"
    fill="url(#paint23_linear_5306_22482)" />
  <path
    d="M130.43 6.26025C133.763 6.67721 137.049 7.58349 140.226 8.96187C143.405 10.3337 146.507 11.9918 149.509 13.9241C155.495 17.8222 161.254 22.2836 166.74 27.2726C169.5 29.7371 172.206 32.3012 174.878 34.9146C177.549 37.5281 180.149 40.2738 182.774 42.9699C188.054 48.3181 193.113 53.9971 198.253 59.5713C203.321 65.2393 208.397 70.9018 213.423 76.6304L220.98 85.1932L228.575 93.6952L230.475 95.818L232.396 97.9077L236.247 102.07C238.821 104.827 241.336 107.667 244.003 110.302L251.883 118.33C254.54 120.951 257.236 123.5 259.97 125.977C265.396 130.989 271.061 135.545 276.933 139.618C282.824 143.61 288.998 146.968 295.483 148.727C301.988 150.451 308.66 150.858 315.262 149.934C318.567 149.493 321.849 148.802 325.092 147.866C328.341 146.951 331.551 145.815 334.727 144.509C337.904 143.202 341.038 141.752 344.133 140.136C345.69 139.359 347.212 138.482 348.739 137.6L353.323 134.992L354.468 134.336L355.596 133.63L357.848 132.213L362.356 129.374L371.262 123.441C374.23 121.462 377.199 119.427 380.193 117.503L384.684 114.597L389.256 111.907C390.77 110.98 392.326 110.175 393.921 109.436C395.495 108.689 397.106 108.077 398.742 107.606C400.38 107.115 402.065 106.94 403.742 107.088C405.43 107.229 407.038 108.07 408.331 109.486C407.025 108.109 405.414 107.313 403.734 107.215C402.069 107.108 400.402 107.322 398.785 107.849C397.164 108.351 395.571 108.99 394.014 109.762C392.453 110.523 390.91 111.355 389.408 112.309L384.879 115.066L380.426 118.054C377.458 120.028 374.523 122.123 371.571 124.158L362.666 130.223L358.166 133.118L355.919 134.568L354.791 135.284L353.645 135.957L349.095 138.587C347.568 139.48 346.046 140.39 344.49 141.19C341.381 142.844 338.239 144.349 335.045 145.699C328.668 148.485 322.08 150.374 315.393 151.335C308.679 152.301 301.889 151.911 295.266 150.177C288.638 148.407 282.353 145.01 276.395 141.002C270.462 136.918 264.736 132.343 259.253 127.306C256.508 124.807 253.804 122.234 251.141 119.587L243.257 111.499C240.602 108.847 238.07 105.985 235.496 103.228L231.65 99.0378L229.729 96.9428L227.833 94.8089L220.25 86.2682L212.706 77.678L197.626 60.5031C192.537 54.8847 187.515 49.1451 182.282 43.7528C179.678 41.0346 177.121 38.2391 174.458 35.6256C171.795 33.0122 169.123 30.4097 166.4 27.9066C160.979 22.8418 155.281 18.2958 149.352 14.3045C146.383 12.3257 143.312 10.6143 140.162 9.18236C137.013 7.73503 133.748 6.75485 130.43 6.26025Z"
    fill="url(#paint24_linear_5306_22482)" />
  <path
    d="M140.059 4.83447C143.215 5.12605 146.349 5.72877 149.435 6.63744C152.52 7.56216 155.555 8.74448 158.523 10.1771C164.464 13.0354 170.233 16.4633 175.783 20.4325C178.561 22.4064 181.296 24.5125 183.972 26.6738C185.315 27.7765 186.653 28.8793 187.984 29.982L191.92 33.4226L195.859 36.863C197.166 38.0208 198.501 39.1291 199.765 40.3642L207.454 47.6091C208.09 48.2211 208.726 48.811 209.371 49.4285L211.249 51.3087L215.007 55.0689L222.504 62.6117L229.99 70.1598C232.504 72.6409 235.049 75.0723 237.576 77.5259C247.754 87.2298 258.038 96.8236 268.785 105.342C274.196 109.516 279.785 113.359 285.455 116.888C291.157 120.332 297.065 123.163 303.123 125.351C309.174 127.557 315.374 129.1 321.651 129.348C327.929 129.772 334.223 129.246 340.408 127.783C343.504 127.055 346.578 126.129 349.628 125.12C352.677 124.111 355.709 122.964 358.69 121.663C360.183 121.006 361.659 120.356 363.143 119.595L367.541 117.34L369.738 116.237C370.471 115.857 371.196 115.443 371.926 115.052L376.294 112.659C377.744 111.848 379.228 111.126 380.696 110.354L382.901 109.218C383.635 108.838 384.368 108.458 385.119 108.116C388.088 106.737 391.056 105.248 394.088 104.091C397.106 102.818 400.247 102.107 403.418 101.979C405.006 101.9 406.594 102.151 408.121 102.723C409.644 103.331 411.023 104.431 412.129 105.921C411.006 104.468 409.618 103.408 408.096 102.839C406.575 102.32 405.001 102.113 403.431 102.227C400.281 102.42 397.167 103.188 394.182 104.51C391.171 105.723 388.245 107.266 385.276 108.7C384.534 109.047 383.804 109.444 383.075 109.841L380.904 111.016C379.449 111.815 377.982 112.559 376.536 113.397L372.189 115.845C371.464 116.253 370.743 116.673 370.009 117.059L367.812 118.222L363.41 120.543C361.943 121.321 360.442 121.999 358.949 122.677C355.951 124.022 352.91 125.186 349.852 126.261C346.795 127.336 343.707 128.284 340.59 129.056C337.47 129.87 334.312 130.422 331.138 130.71C327.965 130.961 324.784 131 321.608 130.826C315.247 130.6 308.924 129.056 302.813 126.851C296.686 124.659 290.708 121.817 284.938 118.354C279.204 114.815 273.598 110.988 268.132 106.776C257.313 98.1469 247.063 88.5147 236.885 78.7446C234.341 76.2745 231.796 73.8318 229.298 71.3341L221.826 63.7475L214.354 56.1717L210.626 52.373L208.764 50.4707C208.137 49.8476 207.492 49.2466 206.864 48.6346L199.231 41.318C197.98 40.0719 196.652 38.9584 195.359 37.784L191.453 34.2992L187.547 30.8201C186.233 29.7173 184.905 28.5761 183.574 27.4844C180.908 25.279 178.203 23.1691 175.461 21.1548C169.976 17.0981 164.267 13.5728 158.383 10.6073C152.511 7.58455 146.344 5.64145 140.059 4.83447Z"
    fill="url(#paint25_linear_5306_22482)" />
  <path
    d="M149.916 3.59326C155.902 4.06756 161.838 5.30498 167.638 7.28749C173.445 9.25058 179.141 11.7282 184.687 14.7031C190.234 17.686 195.641 21.0603 200.971 24.6276C206.302 28.195 211.527 32.0324 216.662 36.0794C219.227 38.1048 221.764 40.1834 224.275 42.3154C226.789 44.4436 229.253 46.6711 231.722 48.8765C236.7 53.1771 241.598 57.6323 246.73 61.6297C256.853 69.9001 267.302 77.5199 277.815 84.8806C288.399 92.0923 299.472 98.0188 310.893 102.585C316.59 104.855 322.4 106.618 328.281 107.861C334.16 109.103 340.117 109.624 346.071 109.416C349.04 109.212 352.008 108.925 355.002 108.666C357.971 108.302 360.939 107.812 363.878 107.167C366.817 106.521 369.739 105.728 372.619 104.73C374.061 104.233 375.49 103.682 376.906 103.075C378.335 102.524 379.777 101.94 381.211 101.377C384.065 100.164 387.008 99.3704 389.921 98.4331C390.282 98.3063 390.651 98.2234 391.024 98.1407L392.131 97.8817L394.344 97.3688C395.087 97.2089 395.82 97.0104 396.562 96.8781C397.305 96.7457 398.051 96.6245 398.797 96.5197C400.29 96.3212 401.766 96.1502 403.293 96.1447C404.798 96.1299 406.3 96.3036 407.779 96.6632C409.257 97.0199 410.686 97.6569 412.02 98.5542C413.357 99.4554 414.534 100.71 415.477 102.237C414.513 100.744 413.322 99.5274 411.978 98.6646C410.638 97.8121 409.209 97.2195 407.737 96.9058C406.267 96.5808 404.775 96.4423 403.284 96.4923C401.796 96.5253 400.316 96.7293 398.827 96.9553C398.085 97.0766 397.347 97.2089 396.609 97.3578C395.871 97.5067 395.142 97.7162 394.408 97.9092L392.207 98.4605L391.109 98.7419C390.744 98.8301 390.375 98.9181 390.015 99.0504C387.127 100.048 384.213 100.898 381.384 102.16L377.11 103.919C375.696 104.544 374.26 105.116 372.801 105.634C369.9 106.676 366.966 107.519 364.006 108.203C361.046 108.887 358.068 109.416 355.1 109.824L350.613 110.276C349.112 110.414 347.644 110.601 346.118 110.695C340.097 110.996 334.068 110.522 328.12 109.278C322.179 108.053 316.31 106.299 310.554 104.029C299.053 99.4878 287.9 93.5703 277.238 86.3527C266.687 78.9093 256.267 71.2343 246.123 62.9088C240.992 58.8783 236.085 54.3848 231.098 50.0511C226.2 45.5961 221.242 41.2623 216.162 37.1657C206.02 28.9278 195.426 21.6707 184.466 15.4532C178.976 12.3792 173.329 9.80009 167.566 7.73413C164.683 6.70859 161.769 5.84469 158.826 5.14262C155.879 4.42199 152.905 3.90479 149.916 3.59326Z"
    fill="url(#paint26_linear_5306_22482)" />
  <path
    d="M159.955 2.53687C165.666 2.88662 171.354 3.72083 176.982 5.03441C182.62 6.30926 188.2 7.98802 193.695 10.0629C199.208 12.0809 204.569 14.6944 209.971 17.1259C212.673 18.3554 215.328 19.7558 217.97 21.1948C219.288 21.9226 220.599 22.667 221.901 23.4444L225.768 25.8593L229.64 28.2799C230.913 29.0904 232.227 29.8623 233.491 30.7389C236.036 32.4592 238.54 34.2695 241.006 36.1699C245.883 40.057 250.827 43.674 255.933 47.0208L263.567 52.1042C266.111 53.7583 268.656 55.3739 271.264 56.9232C273.872 58.4725 276.472 59.9556 279.084 61.4553C281.696 62.955 284.3 64.4879 286.934 65.9049L294.801 70.255L302.786 74.2192L304.784 75.2118L306.806 76.1105L310.852 77.9135C312.205 78.5034 313.541 79.1431 314.906 79.6889L318.99 81.343L323.074 82.9971L327.205 84.4194L331.335 85.8476L335.504 87.0715L339.673 88.2846C341.068 88.6595 342.463 88.9959 343.867 89.3157C346.666 89.9553 349.482 90.4735 352.315 90.8704C355.139 91.2729 357.989 91.4879 360.835 91.7801C363.669 92.1049 366.514 92.2429 369.359 92.1937C370.067 92.1937 370.775 92.133 371.479 92.0779L373.599 91.918C375.02 91.7967 376.445 91.7251 377.861 91.5707C379.278 91.4163 380.682 91.1516 382.077 90.8263C383.472 90.501 384.855 90.0323 386.275 89.7236C387.696 89.4148 389.112 89.1282 390.542 88.9628L394.825 88.5546C397.689 88.2675 400.569 88.3896 403.412 88.9186C404.829 89.1777 406.245 89.4699 407.653 89.8614C409.056 90.2677 410.426 90.8437 411.746 91.5817C413.06 92.3341 414.296 93.2974 415.427 94.4489C416.564 95.5853 417.542 96.967 418.319 98.5343C417.512 96.9944 416.508 95.6461 415.35 94.548C414.212 93.4296 412.97 92.5033 411.652 91.7912C410.337 91.0879 408.974 90.5472 407.581 90.1759C406.19 89.7954 404.774 89.5582 403.34 89.3321C400.517 88.8654 397.662 88.8064 394.829 89.1558L390.588 89.652C389.172 89.8504 387.768 90.1481 386.373 90.4954C385.677 90.6719 384.982 90.8648 384.291 91.0468C383.599 91.2287 382.887 91.4603 382.17 91.6313C380.758 91.9786 379.333 92.2379 377.904 92.4419C376.475 92.6459 375.05 92.7065 373.621 92.8444L371.475 93.0374C370.762 93.1036 370.046 93.1642 369.325 93.1863C366.458 93.2712 363.591 93.1681 360.733 92.8775C357.879 92.6238 355.02 92.4473 352.166 92.0779C346.454 91.366 340.786 90.1409 335.203 88.4114L331.013 87.1983L326.857 85.787L322.701 84.3699L318.596 82.7435L314.487 81.1169C313.117 80.5655 311.772 79.9369 310.415 79.3524L306.353 77.5605L304.317 76.6675L302.311 75.6859L294.254 71.7381L286.344 67.3934C283.698 65.9654 281.111 64.4052 278.495 62.9055C275.878 61.4058 273.27 59.906 270.675 58.3291C268.079 56.7522 265.497 55.1533 262.948 53.4551L255.314 48.3273C250.225 44.964 245.217 41.2756 240.365 37.372C237.923 35.4753 235.433 33.6777 232.918 31.9354C231.667 31.0477 230.374 30.2814 229.102 29.4378L225.285 26.9788L221.468 24.5251C220.219 23.7422 218.939 22.9832 217.63 22.248C215.018 20.7814 212.384 19.359 209.704 18.0964C204.335 15.5932 199.005 12.9245 193.534 10.8294C188.081 8.64549 182.54 6.85257 176.935 5.45897C174.132 4.76426 171.316 4.15789 168.488 3.66166C165.659 3.16544 162.822 2.77395 159.955 2.53687Z"
    fill="url(#paint27_linear_5306_22482)" />
  <path
    d="M170.23 1.6521C181.249 2.16874 192.23 3.61283 203.105 5.97496C213.986 8.43649 224.689 12.0694 235.107 16.8366C240.317 19.2363 245.424 21.997 250.408 25.107C252.91 26.6508 255.335 28.3601 257.795 29.9314C260.255 31.5028 262.731 33.0688 265.246 34.5079L272.812 38.7532L274.703 39.8174C275.339 40.1593 275.975 40.4681 276.624 40.7934L280.471 42.7285L284.313 44.6583L285.276 45.1434L286.247 45.5847L288.193 46.4723C290.789 47.6467 293.376 48.8598 295.979 50.0066C306.408 54.5608 316.963 58.6023 327.548 62.5611C338.133 66.5199 348.693 70.6109 359.354 74.0183L363.362 75.2645C364.702 75.6449 366.055 75.959 367.399 76.3064C368.744 76.6537 370.092 77.0178 371.445 77.31C372.798 77.6022 374.155 77.8613 375.516 78.0708C378.236 78.5189 380.972 78.7802 383.714 78.8537C385.079 78.8813 386.449 78.8539 387.815 78.7546C388.499 78.7032 389.181 78.6368 389.863 78.556C390.541 78.4677 391.237 78.3742 391.928 78.319C397.441 77.8338 403.09 78.5781 408.277 81.1585C410.876 82.4258 413.309 84.2116 415.486 86.4516C417.667 88.6806 419.446 91.5036 420.698 94.722C419.393 91.5626 417.574 88.8115 415.367 86.6611C413.181 84.4942 410.749 82.7828 408.158 81.5884C402.997 79.1514 397.416 78.5395 391.975 79.1404C390.618 79.2893 389.244 79.543 387.857 79.6423C386.47 79.7415 385.088 79.8077 383.705 79.8022C380.937 79.7657 378.173 79.5411 375.423 79.1294C374.049 78.9272 372.679 78.6901 371.313 78.4181C369.948 78.1369 368.595 77.7785 367.238 77.4643C365.881 77.15 364.515 76.8357 363.167 76.4663L359.13 75.2699L357.111 74.6744L356.102 74.3766L355.101 74.0403L351.093 72.7004C348.417 71.8238 345.771 70.8315 343.116 69.8777L327.217 64.0275C316.615 60.1129 306.013 56.1157 295.564 51.5891C292.956 50.4257 290.36 49.2015 287.761 48.0106L285.81 47.1119L284.835 46.6597L283.872 46.1745L280.017 44.2173L276.162 42.2544C275.522 41.9236 274.89 41.6148 274.241 41.2675L272.337 40.1647L264.746 35.8642C262.227 34.4086 259.746 32.8315 257.273 31.2326C254.801 29.6336 252.384 27.9245 249.911 26.3807C244.969 23.2784 239.919 20.4941 234.759 18.0276C224.422 13.1427 213.792 9.377 202.978 6.76888L200.951 6.27244L198.915 5.85354L194.84 5.01546L190.76 4.17738C189.399 3.92926 188.029 3.76392 186.664 3.5544L182.563 2.95324L180.51 2.6501C179.827 2.53982 179.136 2.51218 178.453 2.43499L170.23 1.6521Z"
    fill="url(#paint28_linear_5306_22482)" />
  <path
    d="M180.672 0.9646C186.015 1.04179 191.35 1.01436 196.694 1.24593C198.03 1.30658 199.365 1.38374 200.697 1.4885L204.696 1.85787L212.69 2.62434C215.353 2.94413 218.012 3.35767 220.659 3.88698C221.982 4.14612 223.301 4.43814 224.611 4.79102L228.547 5.77259C233.814 6.96904 239.009 8.63399 244.238 10.1558C249.445 11.7957 254.583 13.7852 259.632 16.116C262.151 17.2849 264.657 18.5917 267.108 19.9481C269.56 21.3044 272.045 22.5339 274.543 23.7414C275.785 24.3589 277.053 24.8992 278.308 25.4671L282.091 27.1543L285.87 28.8415L289.687 30.4019C292.231 31.4329 294.776 32.4971 297.32 33.5006L304.983 36.5331C310.072 38.6117 315.242 40.1718 320.437 41.8259L324.33 43.0611L328.219 44.2632L336.009 46.6503C338.613 47.4553 341.217 48.3045 343.778 49.3797C346.34 50.4548 348.867 51.5852 351.378 52.732L366.509 59.5357C367.781 60.0871 369.054 60.6 370.326 61.0686C371.598 61.5373 372.9 61.9506 374.189 62.3972L378.061 63.7097L381.941 64.9446C384.528 65.7937 387.128 66.538 389.749 67.0838C391.063 67.354 392.378 67.5801 393.697 67.7345C394.359 67.8172 395.02 67.8724 395.682 67.9165C396.343 67.9606 397.026 67.9936 397.692 68.0818C403.073 68.7379 408.239 71.2246 412.84 74.7644C413.417 75.211 413.998 75.6409 414.536 76.1482C415.088 76.6545 415.614 77.207 416.11 77.8022C417.093 78.9905 417.999 80.2813 418.82 81.6618C420.479 84.4027 421.748 87.5084 422.564 90.8311C421.69 87.5489 420.371 84.496 418.671 81.8163C417.837 80.4715 416.921 79.2159 415.932 78.0615C415.436 77.4897 414.912 76.961 414.363 76.479C413.82 76.0049 413.235 75.5859 412.666 75.1558C408.044 71.7429 402.912 69.4216 397.632 68.8978C396.971 68.8316 396.318 68.7931 395.648 68.771C394.978 68.749 394.303 68.6884 393.633 68.6168C392.293 68.4789 390.957 68.2693 389.634 68.0102C386.98 67.4974 384.35 66.7916 381.755 65.9701L377.845 64.7903L373.96 63.5277C372.663 63.1031 371.373 62.7005 370.067 62.2484C368.761 61.7962 367.484 61.2892 366.208 60.7598C361.119 58.5875 356.089 56.3488 351.026 54.0937C348.481 52.991 345.988 51.8056 343.448 50.7855C340.907 49.7655 338.359 48.9055 335.75 48.117L327.943 45.7684L324.037 44.5827L320.144 43.3642C314.966 41.7377 309.737 40.1939 304.614 38.1153L296.934 35.0443C294.39 34.0298 291.845 32.949 289.301 31.9014L285.484 30.3246L281.693 28.6099L277.906 26.9007C276.633 26.3493 275.361 25.7978 274.123 25.1472C271.621 23.9232 269.133 22.6367 266.659 21.2877C264.199 19.9148 261.752 18.6246 259.246 17.4282C256.74 16.2317 254.216 15.1787 251.672 14.1642C249.127 13.1497 246.583 12.1959 243.983 11.3468C238.797 9.76437 233.636 8.03871 228.39 6.75955L224.467 5.72844C223.156 5.37557 221.855 5.04462 220.54 4.76894C217.915 4.21758 215.273 3.76546 212.622 3.39054L204.654 2.44235L200.667 1.98467C199.341 1.84867 198.011 1.73663 196.677 1.64842C194.009 1.46647 191.346 1.3616 188.674 1.26236L180.672 0.9646Z"
    fill="url(#paint29_linear_5306_22482)" />
  <path
    d="M191.285 0.461182C196.463 0.461182 201.637 0.461085 206.819 0.49968L210.7 0.532794H212.642L214.584 0.626482L222.353 0.990467C223.651 1.02906 224.945 1.16679 226.238 1.29361C227.531 1.42042 228.821 1.57485 230.114 1.75128C232.697 2.08761 235.267 2.57822 237.828 3.0193L245.525 4.35921L253.218 5.81488C258.35 6.74668 263.464 7.97057 268.519 9.54195C271.064 10.3304 273.561 11.196 276.042 12.2436C278.523 13.2912 280.966 14.2561 283.455 15.1603C285.945 16.0645 288.455 16.8586 290.962 17.6691C293.468 18.4797 295.97 19.3231 298.497 20.0509L306.063 22.3447L313.612 24.7981L321.135 27.2297C322.386 27.6266 323.637 28.0512 324.897 28.4261L328.688 29.4847L336.279 31.6131C338.824 32.3409 341.368 32.9913 343.874 33.7908C348.936 35.3377 353.916 37.3027 358.785 39.6738C361.211 40.8537 363.658 42.006 366.067 43.2135L369.688 45.0221L371.499 45.9318L373.327 46.7535L380.659 50.0616L384.34 51.7157L387.979 53.4856C390.405 54.693 392.839 55.7846 395.269 56.9149C396.486 57.4662 397.72 57.9569 398.958 58.398C399.582 58.613 400.205 58.8117 400.829 58.9881C401.452 59.1646 402.101 59.3629 402.737 59.6055C405.241 60.5944 407.631 62.0149 409.845 63.829C410.956 64.7167 412.024 65.676 413.072 66.6795C414.119 67.6829 415.116 68.7582 416.138 69.7892C418.232 71.8302 419.954 74.4448 421.185 77.4477C422.431 80.4113 423.349 83.5893 423.911 86.8871C423.29 83.6195 422.316 80.4823 421.019 77.5689C419.761 74.6373 418.024 72.1002 415.93 70.1365C414.895 69.1275 413.882 68.0856 412.83 67.1097C411.778 66.1338 410.71 65.213 409.599 64.3529C407.401 62.6232 405.035 61.2861 402.563 60.3776C401.948 60.157 401.329 59.9696 400.697 59.8262C400.065 59.6829 399.425 59.4623 398.789 59.2749C397.517 58.8503 396.274 58.387 395.048 57.8356C392.597 56.7329 390.129 55.6634 387.703 54.5L384.056 52.7853L380.379 51.2082L373.005 48.0104C363.196 43.5996 353.705 38.1742 343.607 35.3291C341.097 34.5462 338.556 33.9067 336.029 33.1899L328.429 31.1002L324.612 30.0581C323.34 29.6942 322.068 29.2696 320.825 28.8781C318.306 28.0731 315.766 27.2904 313.268 26.4689L305.758 23.9877L298.205 21.5946C295.686 20.8448 293.175 19.9849 290.656 19.1744C288.137 18.3639 285.622 17.5588 283.129 16.616C280.635 15.6731 278.142 14.7028 275.686 13.6497C273.231 12.5966 270.754 11.7364 268.248 10.9424C265.741 10.1485 263.222 9.44818 260.686 8.8086C258.15 8.16902 255.597 7.57374 253.053 7.07752L245.39 5.51147L237.718 4.05042C235.173 3.57624 232.599 3.05232 230.034 2.6774C227.468 2.30247 224.898 1.96623 222.315 1.80082L214.572 1.24946L212.633 1.11727L210.691 1.05643L206.811 0.929623L191.285 0.461182Z"
    fill="url(#paint30_linear_5306_22482)" />
  <path
    d="M202.053 0.15739C207.061 0.15739 212.07 0.0581451 217.082 0.15739C219.589 0.190472 222.095 0.157476 224.597 0.245694L232.116 0.532413C234.622 0.582035 237.12 0.863229 239.626 1.08377C242.133 1.30432 244.635 1.51371 247.128 1.77836L254.614 2.55021C257.107 2.80935 259.609 3.03565 262.111 3.34441C264.613 3.65317 267.107 4.05566 269.592 4.44713L277.052 5.66562C279.537 6.11222 282.026 6.61375 284.499 7.24782C285.737 7.55658 286.967 7.93169 288.18 8.26251C289.393 8.59332 290.622 8.90758 291.852 9.20531L306.653 12.6236L314.04 14.3385C316.504 14.8899 318.981 15.4411 321.445 16.1248C326.368 17.5308 331.199 19.0194 336.114 20.3978C338.561 21.1036 341.012 21.7762 343.455 22.526L347.119 23.6287C348.34 23.9926 349.561 24.3566 350.774 24.7867L354.421 26.0329C355.63 26.4629 356.86 26.8213 358.051 27.345L361.648 28.8118L363.446 29.5505L364.341 29.9199L365.231 30.328C367.593 31.4307 369.972 32.4728 372.318 33.6362L379.349 37.0932L382.86 38.8133C384.022 39.3922 385.218 39.9492 386.38 40.5888C388.708 41.8569 390.956 43.2959 393.221 44.6688C395.485 46.0417 397.741 47.5029 400.006 48.9364C401.134 49.6532 402.237 50.4194 403.36 51.1142C403.924 51.467 404.489 51.8034 405.057 52.1232C405.625 52.443 406.219 52.7848 406.779 53.1707C409.047 54.687 410.99 56.7821 413.03 58.6843C414.038 59.6726 414.989 60.7565 415.875 61.9265C416.766 63.0844 417.572 64.3029 418.458 65.4883C418.882 66.0838 419.306 66.6681 419.73 67.2967C420.154 67.9252 420.519 68.5757 420.879 69.2539C421.589 70.605 422.213 72.0286 422.745 73.5105C423.811 76.4668 424.484 79.6357 424.738 82.8836C424.424 79.6521 423.691 76.513 422.571 73.5988C422.024 72.144 421.386 70.7499 420.663 69.4305C420.302 68.7722 419.914 68.1391 419.501 67.5338C419.077 66.9273 418.653 66.3593 418.229 65.7694C417.355 64.6115 416.503 63.4096 415.608 62.2849C414.717 61.1574 413.764 60.1144 412.758 59.1641C410.706 57.328 408.734 55.3045 406.511 53.871C405.956 53.5071 405.4 53.1874 404.815 52.8786C404.23 52.5699 403.653 52.2278 403.081 51.886C401.94 51.1968 400.824 50.447 399.688 49.7468C397.432 48.3574 395.193 46.9348 392.903 45.6005C390.613 44.2662 388.352 42.8439 386.049 41.6419C384.896 41.0244 383.73 40.5004 382.547 39.938L379.014 38.284L371.953 34.9263C369.599 33.8235 367.233 32.7705 364.875 31.6843L363.993 31.2818L363.098 30.9235L361.308 30.2012L357.733 28.7619C356.546 28.2437 355.325 27.8964 354.12 27.4718L350.494 26.2534C349.29 25.8288 348.069 25.4759 346.851 25.1175L343.192 24.0148C340.757 23.2815 338.302 22.6198 335.855 21.9251C330.965 20.5743 326.05 19.0966 321.186 17.7237C318.748 17.0565 316.288 16.4941 313.82 15.9097L306.419 14.1565L291.636 10.6664C290.406 10.3631 289.172 10.0435 287.942 9.6961C286.712 9.34874 285.499 8.97914 284.278 8.67037C281.835 8.0308 279.371 7.52373 276.899 7.0661L269.452 5.7978C266.967 5.36774 264.499 4.91566 262.014 4.59036C259.529 4.26505 257.039 3.97827 254.541 3.68605L247.052 2.79843C244.554 2.49518 242.065 2.24709 239.571 1.99347C237.078 1.73984 234.588 1.44199 232.086 1.32069L224.584 0.852245C222.082 0.725432 219.58 0.670296 217.078 0.576565C214.576 0.482833 212.07 0.405427 209.567 0.355805L202.053 0.15739Z"
    fill="url(#paint31_linear_5306_22482)" />
  <path
    d="M212.963 0.05519L220.172 0H223.785L227.394 0.0498056L234.604 0.16557L241.813 0.408137L245.422 0.551361L249.031 0.760814L256.241 1.19641C261.05 1.58236 265.859 1.90226 270.659 2.40951C280.269 3.29169 289.853 4.61499 299.412 6.16432L303 6.75418C304.192 6.94715 305.387 7.15123 306.579 7.3828L313.733 8.72809C318.487 9.72054 323.25 10.6855 327.987 11.8489C337.461 14.1481 346.884 16.8112 356.214 20.0035L363.186 22.4957L370.111 25.2137C372.397 26.2117 374.691 27.182 376.973 28.191L380.365 29.8451L382.062 30.6611C382.63 30.9313 383.194 31.2125 383.758 31.5102L387.108 33.2911L388.804 34.179C389.36 34.4878 389.903 34.8241 390.454 35.1439L393.754 37.0847C394.305 37.399 394.848 37.7461 395.382 38.1045L397.002 39.1687C401.335 41.9438 405.499 45.1456 409.457 48.7459L412.371 51.5523C413.318 52.5337 414.238 53.5539 415.132 54.6125C416.93 56.7165 418.579 59.0268 420.059 61.5156C421.549 63.9997 422.766 66.7403 423.677 69.6592C424.571 72.5829 425.02 75.7042 425 78.8503C424.955 75.7204 424.445 72.6313 423.499 69.7529C422.553 66.8878 421.307 64.2066 419.796 61.7856C418.292 59.3596 416.622 57.114 414.809 55.0756C413.91 54.05 412.981 53.0687 412.031 52.1203L409.101 49.4131C405.134 45.9051 400.969 42.792 396.642 40.1005L395.026 39.075C394.491 38.7277 393.949 38.3859 393.397 38.0827L390.098 36.2079C389.551 35.8936 389.004 35.5738 388.448 35.2761L386.752 34.4159L383.406 32.6959C374.411 28.3098 365.238 24.5641 355.93 21.4756C346.625 18.3494 337.219 15.7413 327.766 13.4863C323.046 12.3064 318.297 11.3195 313.555 10.2995L306.422 8.92651C305.235 8.68391 304.043 8.47443 302.851 8.28146L299.276 7.66952L295.701 7.05759L292.118 6.50623C289.73 6.15887 287.343 5.77821 284.951 5.45842C280.163 4.85193 275.384 4.18479 270.591 3.67754C265.799 3.17028 260.999 2.7017 256.202 2.23856L248.993 1.6872L245.388 1.42256L241.788 1.21849L234.578 0.78289L227.369 0.485133L223.76 0.341909L220.151 0.259258L212.963 0.05519Z"
    fill="url(#paint32_linear_5306_22482)" />
  <defs>
    <linearGradient id="paint0_linear_5306_22482" x1="-22.3568" y1="82.6153" x2="295.391" y2="121.987"
      gradientUnits="userSpaceOnUse">
      <stop offset="0.398958" stop-color="#382647" />
      <stop offset="1" stop-color="#4344A2" />
    </linearGradient>
    <linearGradient id="paint1_linear_5306_22482" x1="-23.2454" y1="78.748" x2="310.411" y2="120.113"
      gradientUnits="userSpaceOnUse">
      <stop offset="0.398958" stop-color="#382647" />
      <stop offset="1" stop-color="#4344A2" />
    </linearGradient>
    <linearGradient id="paint2_linear_5306_22482" x1="-23.5254" y1="74.9253" x2="325.142" y2="118.175"
      gradientUnits="userSpaceOnUse">
      <stop offset="0.398958" stop-color="#382647" />
      <stop offset="1" stop-color="#4344A2" />
    </linearGradient>
    <linearGradient id="paint3_linear_5306_22482" x1="-23.188" y1="71.1946" x2="339.411" y2="115.694"
      gradientUnits="userSpaceOnUse">
      <stop offset="0.398958" stop-color="#382647" />
      <stop offset="1" stop-color="#4344A2" />
    </linearGradient>
    <linearGradient id="paint4_linear_5306_22482" x1="-22.262" y1="67.8094" x2="353.901" y2="110.797"
      gradientUnits="userSpaceOnUse">
      <stop offset="0.398958" stop-color="#382647" />
      <stop offset="1" stop-color="#4344A2" />
    </linearGradient>
    <linearGradient id="paint5_linear_5306_22482" x1="-20.7694" y1="64.5789" x2="368.061" y2="105.525"
      gradientUnits="userSpaceOnUse">
      <stop offset="0.398958" stop-color="#382647" />
      <stop offset="1" stop-color="#4344A2" />
    </linearGradient>
    <linearGradient id="paint6_linear_5306_22482" x1="-18.6974" y1="61.5734" x2="381.716" y2="99.7546"
      gradientUnits="userSpaceOnUse">
      <stop offset="0.398958" stop-color="#382647" />
      <stop offset="1" stop-color="#4344A2" />
    </linearGradient>
    <linearGradient id="paint7_linear_5306_22482" x1="-16.0869" y1="58.7131" x2="394.834" y2="94.2737"
      gradientUnits="userSpaceOnUse">
      <stop offset="0.398958" stop-color="#382647" />
      <stop offset="1" stop-color="#4344A2" />
    </linearGradient>
    <linearGradient id="paint8_linear_5306_22482" x1="-12.9287" y1="55.9533" x2="407.317" y2="89.2066"
      gradientUnits="userSpaceOnUse">
      <stop offset="0.398958" stop-color="#382647" />
      <stop offset="1" stop-color="#4344A2" />
    </linearGradient>
    <linearGradient id="paint9_linear_5306_22482" x1="-9.2441" y1="53.2919" x2="419.167" y2="84.4995"
      gradientUnits="userSpaceOnUse">
      <stop offset="0.398958" stop-color="#382647" />
      <stop offset="1" stop-color="#4344A2" />
    </linearGradient>
    <linearGradient id="paint10_linear_5306_22482" x1="-5.0512" y1="50.7175" x2="430.471" y2="80.1524"
      gradientUnits="userSpaceOnUse">
      <stop offset="0.398958" stop-color="#382647" />
      <stop offset="1" stop-color="#4344A2" />
    </linearGradient>
    <linearGradient id="paint11_linear_5306_22482" x1="-0.364042" y1="48.179" x2="441.12" y2="76.1388"
      gradientUnits="userSpaceOnUse">
      <stop offset="0.398958" stop-color="#382647" />
      <stop offset="1" stop-color="#4344A2" />
    </linearGradient>
    <linearGradient id="paint12_linear_5306_22482" x1="4.81641" y1="45.6616" x2="451.136" y2="72.4458"
      gradientUnits="userSpaceOnUse">
      <stop offset="0.398958" stop-color="#382647" />
      <stop offset="1" stop-color="#4344A2" />
    </linearGradient>
    <linearGradient id="paint13_linear_5306_22482" x1="10.457" y1="43.1373" x2="460.63" y2="69.0306"
      gradientUnits="userSpaceOnUse">
      <stop offset="0.398958" stop-color="#382647" />
      <stop offset="1" stop-color="#4344A2" />
    </linearGradient>
    <linearGradient id="paint14_linear_5306_22482" x1="16.5732" y1="40.6098" x2="469.337" y2="65.807"
      gradientUnits="userSpaceOnUse">
      <stop offset="0.398958" stop-color="#382647" />
      <stop offset="1" stop-color="#4344A2" />
    </linearGradient>
    <linearGradient id="paint15_linear_5306_22482" x1="23.1203" y1="38.0487" x2="477.53" y2="62.8216"
      gradientUnits="userSpaceOnUse">
      <stop offset="0.398958" stop-color="#382647" />
      <stop offset="1" stop-color="#4344A2" />
    </linearGradient>
    <linearGradient id="paint16_linear_5306_22482" x1="30.1051" y1="35.4094" x2="485.069" y2="60.0254"
      gradientUnits="userSpaceOnUse">
      <stop offset="0.398958" stop-color="#382647" />
      <stop offset="1" stop-color="#4344A2" />
    </linearGradient>
    <linearGradient id="paint17_linear_5306_22482" x1="37.5075" y1="32.6766" x2="491.907" y2="57.484"
      gradientUnits="userSpaceOnUse">
      <stop offset="0.398958" stop-color="#382647" />
      <stop offset="1" stop-color="#4344A2" />
    </linearGradient>
    <linearGradient id="paint18_linear_5306_22482" x1="45.3339" y1="29.8648" x2="498.069" y2="55.2083"
      gradientUnits="userSpaceOnUse">
      <stop offset="0.398958" stop-color="#382647" />
      <stop offset="1" stop-color="#4344A2" />
    </linearGradient>
    <linearGradient id="paint19_linear_5306_22482" x1="53.5115" y1="27.0014" x2="503.595" y2="53.2254"
      gradientUnits="userSpaceOnUse">
      <stop offset="0.398958" stop-color="#382647" />
      <stop offset="1" stop-color="#4344A2" />
    </linearGradient>
    <linearGradient id="paint20_linear_5306_22482" x1="62.0861" y1="24.1332" x2="508.379" y2="51.5568"
      gradientUnits="userSpaceOnUse">
      <stop offset="0.398958" stop-color="#382647" />
      <stop offset="1" stop-color="#4344A2" />
    </linearGradient>
    <linearGradient id="paint21_linear_5306_22482" x1="71.029" y1="21.2858" x2="512.372" y2="50.2827"
      gradientUnits="userSpaceOnUse">
      <stop offset="0.398958" stop-color="#382647" />
      <stop offset="1" stop-color="#4344A2" />
    </linearGradient>
    <linearGradient id="paint22_linear_5306_22482" x1="80.3209" y1="18.503" x2="515.629" y2="49.5664"
      gradientUnits="userSpaceOnUse">
      <stop offset="0.398958" stop-color="#382647" />
      <stop offset="1" stop-color="#4344A2" />
    </linearGradient>
    <linearGradient id="paint23_linear_5306_22482" x1="89.9596" y1="15.7995" x2="518.01" y2="49.5028"
      gradientUnits="userSpaceOnUse">
      <stop offset="0.398958" stop-color="#382647" />
      <stop offset="1" stop-color="#4344A2" />
    </linearGradient>
    <linearGradient id="paint24_linear_5306_22482" x1="99.9169" y1="13.2667" x2="519.523" y2="50.1675"
      gradientUnits="userSpaceOnUse">
      <stop offset="0.398958" stop-color="#382647" />
      <stop offset="1" stop-color="#4344A2" />
    </linearGradient>
    <linearGradient id="paint25_linear_5306_22482" x1="110.186" y1="10.9028" x2="520.114" y2="51.6519"
      gradientUnits="userSpaceOnUse">
      <stop offset="0.398958" stop-color="#382647" />
      <stop offset="1" stop-color="#4344A2" />
    </linearGradient>
    <linearGradient id="paint26_linear_5306_22482" x1="120.758" y1="8.75165" x2="519.635" y2="54.2807"
      gradientUnits="userSpaceOnUse">
      <stop offset="0.398958" stop-color="#382647" />
      <stop offset="1" stop-color="#4344A2" />
    </linearGradient>
    <linearGradient id="paint27_linear_5306_22482" x1="131.587" y1="7.15664" x2="518.758" y2="55.1646"
      gradientUnits="userSpaceOnUse">
      <stop offset="0.398958" stop-color="#382647" />
      <stop offset="1" stop-color="#4344A2" />
    </linearGradient>
    <linearGradient id="paint28_linear_5306_22482" x1="142.73" y1="6.131" x2="518.068" y2="52.6685"
      gradientUnits="userSpaceOnUse">
      <stop offset="0.398958" stop-color="#382647" />
      <stop offset="1" stop-color="#4344A2" />
    </linearGradient>
    <linearGradient id="paint29_linear_5306_22482" x1="154.113" y1="5.28933" x2="516.599" y2="50.2419"
      gradientUnits="userSpaceOnUse">
      <stop offset="0.398958" stop-color="#382647" />
      <stop offset="1" stop-color="#4344A2" />
    </linearGradient>
    <linearGradient id="paint30_linear_5306_22482" x1="165.743" y1="4.62034" x2="514.344" y2="47.85"
      gradientUnits="userSpaceOnUse">
      <stop offset="0.398958" stop-color="#382647" />
      <stop offset="1" stop-color="#4344A2" />
    </linearGradient>
    <linearGradient id="paint31_linear_5306_22482" x1="177.602" y1="4.09652" x2="511.311" y2="45.4606"
      gradientUnits="userSpaceOnUse">
      <stop offset="0.398958" stop-color="#382647" />
      <stop offset="1" stop-color="#4344A2" />
    </linearGradient>
    <linearGradient id="paint32_linear_5306_22482" x1="189.682" y1="3.79459" x2="507.438" y2="43.1625"
      gradientUnits="userSpaceOnUse">
      <stop offset="0.398958" stop-color="#382647" />
      <stop offset="1" stop-color="#4344A2" />
    </linearGradient>
  </defs>
</svg>