<svg width="101" height="41" viewBox="0 0 101 41" fill="none" xmlns="http://www.w3.org/2000/svg">
  <path
    d="M45.134 19.3228C45.134 20.5477 44.256 21.5471 42.4792 21.5471H40.6123V23.8791C40.6117 23.9165 40.5966 23.9522 40.5704 23.9787C40.5442 24.0051 40.5087 24.0203 40.4716 24.0209H39.8276C39.7906 24.0203 39.7552 24.0051 39.7289 23.9787C39.7027 23.9522 39.6877 23.9165 39.6871 23.8791V17.2407C39.6877 17.2032 39.7027 17.1675 39.7289 17.141C39.7551 17.1144 39.7905 17.0992 39.8276 17.0986H42.4795C44.2564 17.0986 45.134 18.0973 45.134 19.3228ZM44.164 19.3228C44.164 18.537 43.6945 17.8933 42.2968 17.8933H40.6133V20.7524H42.2968C43.6943 20.7524 44.164 20.1113 44.164 19.3228Z"
    fill="white" />
  <path
    d="M56.3595 20.5592C56.3704 21.0162 56.2918 21.4709 56.1284 21.8973C55.965 22.3237 55.72 22.7134 55.4074 23.0443C55.0948 23.3751 54.7205 23.6405 54.3061 23.8256C53.8918 24.0105 53.4454 24.1113 52.9924 24.1222C52.9487 24.1231 52.9048 24.1233 52.8611 24.1222C52.161 24.1291 51.4748 23.9259 50.8895 23.5385C50.304 23.1511 49.8459 22.597 49.5734 21.9465C49.3008 21.296 49.2259 20.5783 49.3583 19.8848C49.4907 19.1913 49.8244 18.553 50.317 18.0512C50.8096 17.5493 51.4389 17.2066 52.125 17.0662C52.8111 16.9258 53.5231 16.9944 54.1705 17.263C54.8179 17.5317 55.3716 17.9884 55.7612 18.5752C56.151 19.1619 56.3591 19.8523 56.3591 20.5585L56.3595 20.5592ZM55.3887 20.5585C55.3887 18.919 54.3287 17.7898 52.8609 17.7898C51.3932 17.7898 50.3331 18.9195 50.3331 20.5585C50.3331 22.1976 51.3932 23.3276 52.8611 23.3276C54.3291 23.3276 55.3887 22.1985 55.3887 20.5585Z"
    fill="white" />
  <path
    d="M66.1754 23.7391C66.1975 23.7652 66.2112 23.7975 66.2148 23.8316C66.2184 23.8658 66.2118 23.9003 66.1957 23.9306C66.1796 23.9609 66.1551 23.9857 66.1246 24.0015C66.0947 24.0173 66.06 24.0236 66.0266 24.0197H65.3656C65.3441 24.0191 65.3231 24.0131 65.304 24.0022C65.2855 23.9915 65.27 23.9761 65.2586 23.9576L63.5996 21.4327H61.8162V23.8782C61.8162 23.9157 61.8007 23.9513 61.7744 23.9778C61.7487 24.0043 61.7128 24.0194 61.6758 24.0198H61.0309C60.9939 24.0192 60.9586 24.0042 60.9323 23.9778C60.906 23.9513 60.8911 23.9157 60.8905 23.8782V17.2395C60.8911 17.202 60.906 17.1664 60.9323 17.1399C60.9586 17.1135 60.9939 17.0983 61.0309 17.0977H63.5703C65.3477 17.0977 66.225 18.0396 66.225 19.2653C66.225 20.2381 65.6746 21.0327 64.5576 21.319L66.1754 23.7391ZM63.3874 20.6377C64.7853 20.6377 65.2544 20.0533 65.2544 19.2646C65.2544 18.4787 64.7853 17.8912 63.3874 17.8912H61.8174V20.6377H63.3874Z"
    fill="white" />
  <path
    d="M76.3208 17.2404V17.751C76.3202 17.788 76.3052 17.8234 76.2795 17.8499C76.2538 17.8763 76.2192 17.8916 76.1827 17.8927H73.8029V23.8789C73.8023 23.9164 73.7874 23.9521 73.7611 23.9786C73.7348 24.005 73.6995 24.0202 73.6625 24.0208H73.0188C72.9812 24.0202 72.9459 24.0051 72.9196 23.9786C72.8933 23.9522 72.8784 23.9164 72.8778 23.8789V17.8927H70.4998C70.4622 17.8922 70.4269 17.8772 70.4006 17.8507C70.3743 17.8242 70.3594 17.7884 70.3588 17.751V17.2404C70.3594 17.203 70.3743 17.1672 70.4006 17.1408C70.4269 17.1143 70.4622 17.0992 70.4998 17.0986H76.1827C76.2198 17.0998 76.2544 17.1152 76.2801 17.1416C76.3058 17.168 76.3202 17.2034 76.3208 17.2404Z"
    fill="white" />
  <path
    d="M85.9879 24.078H85.2152C85.1805 24.0808 85.1459 24.072 85.1172 24.053C85.0879 24.034 85.0664 24.0058 85.0544 23.9728L84.3068 22.2285H81.0843L80.2835 23.9728C80.271 24.005 80.2483 24.0323 80.2196 24.0513C80.1909 24.0701 80.1574 24.0795 80.1234 24.078H79.4367C79.3357 24.078 79.2765 24.0159 79.3249 23.9106L82.4966 17.1472C82.5085 17.115 82.5312 17.0874 82.5599 17.0686C82.5886 17.0497 82.6221 17.0405 82.6567 17.0422H82.8814C82.9155 17.0412 82.9496 17.0506 82.9782 17.0694C83.0069 17.0882 83.029 17.1154 83.0422 17.1472L86.0925 23.9106C86.1379 24.0156 86.0901 24.078 85.9891 24.078H85.9879ZM83.9841 21.4794L82.7494 18.5998L81.4274 21.4794H83.9841Z"
    fill="white" />
  <path
    d="M95.1604 23.3683V23.8789C95.161 23.8964 95.1586 23.914 95.1533 23.9306C95.1473 23.9473 95.1383 23.9626 95.127 23.9758C95.1156 23.9889 95.1013 23.9997 95.0857 24.0074C95.0702 24.015 95.0529 24.0196 95.0355 24.0206C95.0302 24.021 95.0248 24.021 95.0194 24.0206H90.4445C90.4075 24.02 90.3722 24.0048 90.3459 23.9784C90.3196 23.952 90.3047 23.9162 90.3041 23.8789V17.2404C90.3047 17.203 90.3196 17.1673 90.3459 17.1409C90.3722 17.1144 90.4075 17.0993 90.4445 17.0986H91.0882C91.1252 17.0992 91.1611 17.1144 91.1874 17.1409C91.2131 17.1673 91.2286 17.203 91.2286 17.2404V23.2263H95.02C95.0553 23.2242 95.0893 23.2363 95.1162 23.26C95.1425 23.2835 95.1581 23.3168 95.1604 23.3523C95.1604 23.3578 95.1604 23.3628 95.1604 23.3683Z"
    fill="white" />
  <path
    d="M20.3073 0C9.09585 0 0 9.17664 0 20.4877C0 31.7989 9.09585 40.9755 20.3073 40.9755C31.5189 40.9755 40.6147 31.7989 40.6147 20.4877C40.6147 9.17664 31.5189 0 20.3073 0ZM20.3073 29.3114C15.4763 29.3114 11.5613 25.3618 11.5613 20.4877C11.5613 15.6138 15.4763 11.664 20.3073 11.664C25.1385 11.664 29.0534 15.6138 29.0534 20.4877C29.0534 25.3618 25.1385 29.3114 20.3073 29.3114Z"
    fill="url(#paint0_radial_7204_10592)" />
  <defs>
    <radialGradient id="paint0_radial_7204_10592" cx="0" cy="0" r="1" gradientUnits="userSpaceOnUse"
      gradientTransform="translate(20.3055 20.485) scale(17.0206 17.1718)">
      <stop offset="0.2254" stop-color="white" />
      <stop offset="0.5444" stop-color="white" stop-opacity="0.44" />
      <stop offset="0.6859" stop-color="white" stop-opacity="0.23" />
      <stop offset="0.8568" stop-color="white" stop-opacity="0.07" />
      <stop offset="1" stop-color="white" stop-opacity="0" />
    </radialGradient>
  </defs>
</svg>