<svg
  xmlns="http://www.w3.org/2000/svg"
  width="365"
  height="220"
  fill="none"
  xmlns:v="https://vecta.io/nano"
>
  <g stroke-width="1.5" stroke-miterlimit="10">
    <path
      opacity=".25"
      d="M12.925 167.754C-22.5506 116.832 24.6529 49.6822 118.357 17.7714C212.061 -14.1393 316.782 1.27271 352.257 52.1952C387.733 103.118 340.529 170.267 246.825 202.178C153.121 234.089 48.4005 218.677 12.925 167.754Z"
      stroke="url(#A)"
      stroke-opacity=".5"
    />
    <path
      opacity=".25"
      d="M66.9268 143.522C38.5939 102.871 76.2779 49.2594 151.096 23.7783C225.915 -1.70275 309.536 10.5954 337.869 51.2471C366.202 91.8988 328.518 145.51 253.699 170.991C178.881 196.472 95.2597 184.174 66.9268 143.522Z"
      stroke="url(#B)"
      stroke-opacity=".5"
    />
    <path
      opacity=".25"
      d="M115.503 115.238C94.3215 84.8473 122.493 44.7686 178.426 25.7194C234.359 6.67026 296.872 15.8642 318.053 46.2546C339.235 76.645 311.063 116.724 255.13 135.773C199.197 154.822 136.684 145.628 115.503 115.238Z"
      stroke="url(#C)"
      stroke-opacity=".5"
    />
    <path
      opacity=".25"
      d="M303.775 44.7153C319.281 66.3734 299.387 95.2085 259.339 109.12C219.291 123.032 174.255 116.752 158.749 95.0944C143.242 73.4363 163.137 44.6012 203.185 30.6894C243.233 16.7776 288.268 23.0572 303.775 44.7153Z"
      stroke="url(#D)"
      stroke-opacity=".5"
    />
  </g>
  <defs>
    <linearGradient
      id="A"
      x1="352.257"
      y1="52.195"
      x2="69.602"
      y2="249.109"
      gradientUnits="userSpaceOnUse"
    >
      <stop stop-color="#fff" />
      <stop offset="1" stop-color="#fff" stop-opacity="0" />
    </linearGradient>
    <linearGradient
      id="B"
      x1="337.869"
      y1="51.247"
      x2="112.224"
      y2="208.514"
      gradientUnits="userSpaceOnUse"
    >
      <stop stop-color="#fff" />
      <stop offset="1" stop-color="#fff" stop-opacity="0" />
    </linearGradient>
    <linearGradient
      id="C"
      x1="318.053"
      y1="46.255"
      x2="149.366"
      y2="163.824"
      gradientUnits="userSpaceOnUse"
    >
      <stop stop-color="#fff" />
      <stop offset="1" stop-color="#fff" stop-opacity="0" />
    </linearGradient>
    <linearGradient
      id="D"
      x1="297.137"
      y1="19.516"
      x2="238.472"
      y2="162.009"
      gradientUnits="userSpaceOnUse"
    >
      <stop stop-color="#fff" />
      <stop offset="1" stop-color="#fff" stop-opacity="0" />
    </linearGradient>
  </defs>
</svg>
