<svg
  xmlns="http://www.w3.org/2000/svg"
  width="285"
  height="303"
  fill="none"
  xmlns:v="https://vecta.io/nano"
>
  <path
    d="M284.351 57.948v-.052a.61.61 0 0 0-.02-.12c0-.023 0-.045-.022-.065-.014-.035-.03-.068-.049-.1l-.039-.058a.57.57 0 0 0-.078-.081l-.055-.049-.026-.023a.63.63 0 0 0-.078-.039l-.042-.026-18.409-7.455-18.195-7.367-17.994-7.283-17.786-7.195-17.573-7.118-17.384-7.033-17.192-6.956L142.43.047l-.087-.023-.088-.023h-.071c-.034-.003-.068-.003-.101 0h-.071c-.03.005-.059.013-.088.023l-16.992 6.901-17.192 6.956-17.368 7.037-17.579 7.131-17.78 7.199-17.987 7.283-18.211 7.351L.422 57.332l-.042.039a.62.62 0 0 0-.081.039l-.026.023-.055.049a.65.65 0 0 0-.075.081l-.039.058a.65.65 0 0 0-.049.1.58.58 0 0 0-.023.065.65.65 0 0 0-.032.11v.052L.594 80.5l.59 22.365.584 22.176.581 21.995.571 21.832.571 21.632.571 21.476.561 21.279v.022.033c.008.02.016.039.026.058a.56.56 0 0 0 0 .062c.014.04.033.08.055.117 0 0 0 .029.023.042a.68.68 0 0 0 .117.133h.019c.036.03.075.056.117.077l16.43 8.32 16.615 8.389 16.807 8.485 17.001 8.583 17.193 8.683 17.403 8.787 17.608 8.89 17.819 8.995c.026.011.053.021.081.029l.055.019a.64.64 0 0 0 .325 0l.055-.019c.027-.008.054-.018.081-.029l17.815-8.995 17.608-8.89 17.404-8.787 17.192-8.683 17.002-8.583 16.806-8.485 16.651-8.389 16.428-8.294a.67.67 0 0 0 .113-.078h.023a.7.7 0 0 0 .117-.132l.022-.043c.022-.035.041-.073.055-.113v-.062a.57.57 0 0 0 .02-.084v-.032-.023l.564-21.282.568-21.453.571-21.632.574-21.813.581-21.995.584-22.176.59-22.364.594-22.552.016-.042zM195.39 274.706l-2.702-7.918 15.058-7.548 3.568 7.428-15.924 8.038zM20.625 50.61l16.544-6.703 4.931 3.656-15.668 6.379-.791-.454-5.015-2.878zm34.486-13.963l4.058 3.971-15.593 6.346-1.946-1.455-2.965-2.198 16.447-6.664zm35.2-14.261l.217.421 2.154 4.152-6.559 2.671-8.807 3.585-2.52-3.364-.681-.911 16.197-6.554zm52.539-20.711l15.57 6.304-.324 2.204-.441 2.94-14.805-6.025V1.675zm16.868 6.823l15.798 6.414-1.557 4.862-15.023-6.126.782-5.15zm85.986 34.814l-2.965 2.198-1.962 1.455-15.591-6.346 4.058-3.971 16.46 6.664zm18.026 7.299l-4.976 2.842-.85.486-15.668-6.379 4.931-3.656 16.563 6.706zm18.695 29.391l-7.017 2.003.494-19.852 7.087-3.151-.564 21zm-2.319 87.921l-.889-.308-5.891-2.039.48-19.256 6.838 1.297-.538 20.306zm-.61 22.987l-.519 19.803-6.663-4.414.467-18.799.178.091 6.537 3.319zm-23.749 42.783l-1.528-1.533-4.541-4.537 1.622-.801 11.743-5.834 6.851 5.594-8.269 4.146-5.878 2.965zm-227.144 0l-5.894-2.965-8.252-4.146 6.864-5.633 11.743 5.834 1.622.801-4.723 4.732-1.359 1.377zm-17.193-46.073l.175-.091.467 18.799-6.673 4.385-.513-19.803 6.543-3.29zm-7.695-40.016l6.838-1.297.477 19.266-5.891 2.039-.889.308-.535-20.316zM1.375 59.008l7.088 3.15.493 19.846-7.01-2.006-.571-20.99zm220.073 185.866l-1.557-2.46 13.728-6.829 5.265 6.534-14.555 7.296-2.881-4.541zm-161.436 4.548l-14.546-7.303 5.265-6.54 13.728 6.829-1.557 2.46-2.89 4.554zM204.249 39.195l3.244-4.324 15.279 6.22-4.1 4.009-1.489-.609-12.934-5.296zm69.264 64.153l-7.02.901.428-18.407L274 83.813l-.487 19.535zm-.516 20.766l-1.398-.042-5.566-.165.425-18.294 7.019-.901-.48 19.402zm-82.742 135.55l-.73-2.142 1.492-.743 12.557-6.232 3.591 7.49-14.922 7.477-1.988-5.85zM13.41 207.008l6.734-4.464.402 17.292-2.744 2.25-3.938 3.241-.454-18.319zm-1.547-62.309l-.477-19.237 6.961-.207.422 18.151-3.017.567-3.889.726zm-.509-20.585l-.48-19.402 7.02.901.425 18.294-5.554.165-1.411.042zm-1.002-40.298l7.078 2.029.412 18.404-7.02-.901-.47-19.532zM203.416 40.31l14.208 5.818-1.739 1.702-2.4 2.347-11.276-4.641-2.07-.852.649-.878 2.628-3.494zm20.715 1.335l15.376 6.259-4.973 3.688-14.5-5.938 3.646-3.565.451-.444zm16.836 6.855l15.447 6.288-5.874 3.358-14.549-5.961 3.97-2.943 1.006-.742zm31.012 116.609l-6.848-2.373.418-17.972 3.244.612 3.65.687-.464 19.046zm-.503 20.238l-6.773-3.426.412-17.769 6.844 2.373-.483 18.822zM138.969 277.98l-11.743-5.834.934-9.05 13.339 6.574v9.561l-2.53-1.251zm-56.548-30.876l2.569-5.341 4.022 1.987 9.005 4.447-2.744 8.038-13.913-6.92 1.061-2.211zm-70.016-80.579l6.845-2.369.415 17.768-6.793 3.423-.467-18.822zM97.586 33.493l13.969-5.721 1.602 4.991-9.067 3.734-4.077 1.679-2.089-4.029-.337-.655zm30.311-12.423l13.602-5.559v5.581l-1.508.622-11.302 4.651-.37-2.463-.422-2.833zm29.844.528l13.803 5.662-1.602 4.988-6.368-2.622-6.627-2.723.373-2.483.421-2.823zm-42.907 11.937l12.784-5.264.545 3.64.26 1.721-6.42 2.658-5.547 2.282-.525-1.637-1.097-3.4zm148.133 90.281l-5.304-.159.37-16.961 7.078-.908-.421 18.08-1.723-.052zm-.052 76.259l-6.812-4.512.354-16.281 1.33.671 5.514 2.791-.386 17.331zM19.665 123.864l-.422-18.079 7.078.908.367 16.932v.029l-5.32.159-1.703.051zm149.019-87.719l-.785 2.441-5.622-2.327-6.345-2.629.231-1.527.574-3.834 12.784 5.264-.837 2.612zm2.089-2.094l12.934 5.325-1.798 3.462-.648 1.274-.367-.152-11.733-4.862.324-1.021 1.288-4.026zm62.413 177.034l-5.139-5.144 1.129-.548 9.353-4.537 7.1 5.834-11.314 5.546-1.129-1.151zm-141.37 16.407l1.658-3.458 6.64 3.241 4.315 2.1-2.787 8.161-11.853-5.811 2.028-4.233zm-3.244 3.63l-2.044-.995-9.683-4.745 3.893-6.158.649-1.034 10.861 5.283-1.982 4.136-1.693 3.513zm-38.544-18.903l-11.315-5.545 7.101-5.834 10.29 5.004.191.094-4.717 4.713-1.551 1.568zm-29.03-30.972l-.409-17.565.873-.301 6.043-2.091.324 14.615.039 1.877-6.598 3.328-.272.137zm5.884-110.911l7.24 3.219.324 15.742-7.198-2.045-.367-16.916zm201.554-12.547l13.215 5.442-5.975 3.416-9.9-4.09-2.407-.995 5.063-3.753.004-.02zm28.666 29.463l-7.192 2.061.325-15.742 7.234-3.235-.367 16.916zm-2.329 107.423l-.937-.619-5.95-3.942.302-15.006 6.932 3.484-.023 1.057-.324 15.026zm-47.267 30.691l-11.74 5.756-3.678-7.678 10.86-5.283.649 1.033 3.909 6.172zm-78.11 25.761l.114-1.115.83-8.042 1.492.726 9.667 4.703v9.662l-12.103-5.934zm.506-216.655l11.597-4.803v5.74l-3.38 1.407-7.406 3.086-.425-2.833-.386-2.596zm126.804 71.034l-7.136.918.324-15.698 7.189-2.061-.377 16.841zm-.392 18.109l-7.088-.211.324-15.619 7.137-.914-.373 16.744zm-.046 1.987l-.347 15.982-7.036-1.322.13-6.518.182-8.995 7.071.214v.639zm-1.115 51.509l-6.936-3.497.305-15.198 6.984 2.417-.353 16.278zm-29.981 25.929l-4.454-4.45 6.618-3.196 2.874-1.387 7.182 5.896-10.341 5.03-1.879-1.893zm-60.829 32.399l-9.19 4.47-.545-5.244-.409-3.955 10.02-4.839 1.665 7.679.223 1.037-1.764.852zm-93.282-25.116l4.723-5.869 9.271 4.476.457.22-.149.237-4.451 7.03-10.604-5.16.753-.934zM57.3 204.93l-10.342-5.03 7.182-5.896 2.842 1.371 6.65 3.212-4.454 4.463-1.878 1.88zm-29.234-79.967l7.085-.211.185 9.225.127 6.285-7.036 1.322-.347-15.982-.013-.639zm-.393-18.095l7.137.914.324 15.619-7.088.211-.373-16.744zm-.393-18.203l7.189 2.061.324 15.698-7.137-.918-.376-16.841zM219.71 197.569l-2.063-2.064-4.338-4.344 4.399-2.106 4.087-1.945.114.094 7.137 5.87-1.931.93-7.405 3.565zm-17.491 19.447l-10.705 5.212-3.711-7.74 5.514-2.657 4.318-2.085 1.297 2.059 3.287 5.211zM64.641 197.569l-8.694-4.197-.649-.324 6.757-5.546.506-.418 4.217 2.019 4.276 2.049-4.337 4.343-2.076 2.074zm-35.796-36.736l6.984-2.417.305 15.198-6.939 3.497-.35-16.278zM130.924 41.275l10.578-4.405v5.834l-9.754 4.087-.49-3.277-.334-2.24zm84.792 25.93l9.823 4.103 1.148.48-6.082 3.475-10.056-4.214 1.622-1.196 3.545-2.648zM72.054 190.157l-4.383-2.101-3.964-1.899 7.334-6.029 1.791.853 5.677 2.7-4.347 4.353-2.108 2.123zm176.16-83.562l-7.198.924.266-14.329 7.243-2.074-.311 15.48zm-.672 33.427l-7.104-1.336v-.794l.26-13.396 7.136.214-.292 15.312zm-.648 32.93l-7.011-3.536.257-13.898 1.028.356 6.027 2.088-.301 14.99zm-70.718 45.481l-2.776-8.136 8.846-4.239 3.743 7.811-9.764 4.713-.049-.149zM36.5 124.71l7.137-.214.224 12.106.039 2.071-7.104 1.336-.295-15.299zm16.56-30.065l-.049-2.817-.169-9.937 7.399 3.29.175 11.571-3.244-.927-4.113-1.18zm185.474 74.087l-2.423-1.222-4.658-2.35.21-12.579 1.457.503 5.667 1.964-.211 11.464-.042 2.22zm-193.82-59.677l7.257.931.217 12.906-7.214.214-.169-9.121-.091-4.93zm168.359-27.939l8.654 3.646-7.136 3.167-7.724-3.274 3.403-1.945 2.803-1.595zm8.161 103.783l-7.166-5.882v-1.073l.117-8.531 4.866 3.241 2.329 1.543-.032 3.423-.114 7.279zm-41.492 20.854l-6.777 3.241-.847-2.476-2.004-5.87 7.785-3.695 3.76 7.893-1.917.907zM63.003 177.62l-.052-3.43 2.329-1.542 4.866-3.242.117 8.538v1.073l-7.166 5.882-.094-7.279zm-10.338-26.455l-7.137 2.467-.256-13.84 7.169-1.349.123 7.293.101 5.429zM133 55.102l8.499-3.565v5.99l-4.331 1.834-3.328 1.41-.516-3.543-.324-2.126zm105.813 98.533l-7.137-2.467.091-5.341.124-7.377 6.487 1.218.685.13-.237 12.8-.013 1.037zm-184.808-2.917l-.136-8.103-.075-4.425 7.237-1.361.123 8.187.049 3.19-6.611 2.288-.587.224zm46.557-74.386l5.164-2.188.065 9.944-7.717 3.3-.107-9.964 2.595-1.092zm129.782 74.363l-.59-.204-6.608-2.288.049-3.19.123-8.187 7.237 1.361-.075 4.489-.136 8.019zm-88.169 61.742l-7.516-3.566 7.516-3.565 7.516 3.565-5.7 2.71-1.816.856zM70.542 99.154l-.126-9.169v-.875l7.902-3.348.065 5.474.055 4.538-.626.269-7.27 3.111zm65.556 100.507l6.076-2.852 7.461 3.5-7.461 3.52-7.461-3.52 1.385-.648zm79.038-98.98l7.415-2.126-.116 7.711-.056 3.643-7.38.946.137-10.174zm6.488 59.515l-7.247-3.643.136-9.905 7.27 2.515-.023 1.381-.136 9.652zm-106.391 30.898l-7.286-3.426 7.439-3.432.613.288 6.672 3.135-.648.301-6.79 3.134zm-8.664-12.501l-7.169-3.368 1.829-.833 5.544-2.528 7.169 3.348-6.189 2.84-1.184.541zM98.073 88.85l7.714-3.299.052 7.455v2.441l-7.698 3.322-.045-5.494-.023-4.424zm11.539-4.933l5.19-2.217.032 9.866-7.354 3.173-.288.126-.052-7.494v-2.395l2.472-1.06zm24.39-10.43l7.5-3.209v9.782l-3.263 1.407-4.217 1.822v-3.523l-.02-6.278zm52.227 19.771l-.029 5.507-7.698-3.322.017-2.564.048-7.328 7.717 3.299-.055 4.408zm35.946 29.326l-7.344-.22.117-8.444.022-1.714 7.38-.947-.175 11.325zm-6.163 23.136l-1.476-.512.136-10.022 7.305 1.374-.169 11.163-5.796-2.003zm-65.673-64.869v2.45l-4.376-1.886-3.108-1.342v-9.788l7.5 3.209-.016 7.358zm-26.072 106.051l-7.279-3.419 7.383-3.407 7.28 3.4-.283.133-7.101 3.293zm-53.199-49.185l-.026-2.881 7.821-3.433.117 9.821-7.805 3.452-.107-6.959zm62.952-52.954l7.48-3.241v9.724l-7.461 3.241v-3.138l-.019-6.586zm24.066 94.711l-6.981 3.26-7.107-3.299-.221-.101.996-.46 6.28-2.917 7.328 3.38-.295.137zm-32.114-.137l7.324-3.38 5.547 2.573 1.729.804-.22.101-7.108 3.299-5.333-2.489-1.939-.908zm-55.076-54.189l-.023-1.679 7.841-3.413.117 9.869-7.824 3.433-.11-8.21zm79.423-33.764v3.137l-7.461-3.241v-9.724l7.481 3.241-.02 6.586zm63.023 41.977l-7.824-3.432v-.046l.116-9.824 7.841 3.413-.023 1.679-.11 8.21zm-106.056-25.732l7.623-3.316.048 9.766-7.606 3.339-.039-5.967-.026-3.822zm-1.298 6.645l.026 3.73-6.54 2.869-1.119.492-.081-9.814 7.675-3.338.039 6.061zm26.714-14.816v6.833l-7.487 3.293-.033-9.724 7.494-3.27.026 2.869zm1.343-3.468l7.461-3.241v9.675l-3.731 1.62-3.717 1.621v-2.69l-.013-6.985zm16.265 6.982v2.729l-4.059-1.78-3.402-1.497v-9.678l7.461 3.241v6.985zm7.853 60.033l-7.166 3.303-4.236-1.945-2.972-1.361 7.156-3.283 2.083.949 5.135 2.337zm-27.22-2.162l2.469-1.124 7.146 3.283-2.027.93-5.19 2.376-7.153-3.303 4.755-2.162zm-14.688-57.123l7.568-3.293.033 9.74-7.552 3.313-.049-9.76zm35.407-7.13l7.516 3.27-.032 9.724-7.5-3.29v-6.833l.016-2.872zm25.377 14.874l-.039 5.967-7.607-3.339.049-9.766 7.623 3.316-.026 3.822zm-27.712 47.516l-1.755.803-5.398 2.477-5.395-2.467-1.755-.804 4.782-2.181 2.368-1.079 2.371 1.079 4.782 2.172zm-41.954-40.094l7.591-3.335.049 9.723-7.588 3.355-.052-5.539v-4.204zm42.92-4.295v2.243l-7.428-3.286v-9.64l7.461 3.267-.033 7.416zm17.813-10.521l-.072 9.419-7.552-3.312.033-9.74 7.581 3.283.01.35zm-42.755 49.863l-.032-9.542 4.489-2.019 2.952-1.329v.684 8.838l-7.409 3.368zm26.276-46.168l7.496 3.29-.032 9.685-7.464-3.309V110.2v-2.435zm25.334 15.078l-.038 5.779-7.591-3.354.048-9.724 7.604 3.335-.023 3.964zm-42.887-4.537l7.425-3.287v9.591l-7.412 3.306v-3.682l-.013-5.928zm16.19 6.686v2.917l-7.412-3.306v-9.581l7.425 3.284-.013 6.686zm17.725-.324l-7.536-3.332.033-9.691 7.548 3.313-.045 9.71zm-33.867 24.935v-9.166l4.448-2 2.942-1.323v9.497l-7.373 3.342-.017-.35zm17.501-30.701l7.481 3.309-.033 9.64-6.251-2.788-1.213-.541v-6.56l.016-3.06zm-4.093 9.276l2.728 1.219v8.482 1.08l-.062-.03-7.331-3.296v-9.548l4.665 2.093zm-6.031 7.455l-6.251 2.81-1.142.512v-1.079-8.482l2.79-1.245 4.603-2.064v9.548zm1.35 10.975v-9.503l2.66 1.196 4.729 2.126v9.166.35l-7.389-3.335zm8.758-15.263v-1.352l7.461 3.329-.032 9.591-7.445-3.345.016-8.223zm-18.873-8.677v5.851l-1.317.586-6.147 2.742-.033-9.639 7.481-3.309.016 3.769zm0 7.325v1.352 8.22l-7.445 3.348-.032-9.591 7.477-3.329zm-8.849-8.66l-7.526 3.338-.049-9.723 7.552-3.313.023 9.698zm-7.468 14.475l-.048-9.662.386-.168 7.136-3.164.033 9.643-7.439 3.319-.068.032zm18.666 15.198l7.091-3.215 7.091 3.215-7.091 3.241-1.947-.888-5.144-2.353zm16.488-.437v-8.839-.684l2.952 1.329 4.49 2.019-.033 9.542-7.409-3.367zm8.847-18.115l.032-9.643 7.137 3.163.382.169v.324l-.035 9.341-.078-.035-7.438-3.319zm-52.983-2.36l7.587-3.361.049 9.668-7.568 3.378-.032-4.998-.036-4.687zm60.444 16.799l-7.497-3.371.032-9.594 7.513 3.352v1.186l-.048 8.427zm1.404-11.14l.049-9.02.973.424 6.624 2.918-.036 5.247-.029 4.44-7.568-3.377-.013-.632zm16.709-12.91l-.081 9.763-7.639-3.381.026-3.834.039-5.909 2.689 1.18 4.966 2.181zm-44.493-18.935v9.643l-7.428 3.286v-.282-9.376l.373-.162 7.055-3.109zm-8.794 3.857v.671 8.995l-7.481 3.309-.032-9.685 7.231-3.173.282-.117zm-26.691 11.711l.039 5.721.026 4.022-7.639 3.38-.081-9.756 4.967-2.178 2.689-1.189zm10.442 27.417l-.042-8.427v-1.186l7.513-3.352.032 9.594-6.413 2.885-1.09.486zm7.503-1.896l.033 9.545-7.477 3.391-.049-9.565 1.288-.567 6.205-2.804zm2.333 9.983l6.922-3.138.224-.1 7.098 3.241-5.995 2.736-1.152.525-5.245-2.405-1.852-.859zm15.869 8.751l6.913 3.17.295.136-7.211 3.326-7.212-3.326 7.215-3.306zm8.758-5.51l-1.151-.525-5.995-2.736 7.098-3.241.36.162 6.786 3.076-1.852.849-5.246 2.415zm9.43-13.24l6.358 2.859 1.136.512-.049 9.564-7.448-3.37.003-9.565zm25.627-23.632l-1.122-.492-6.54-2.869.026-3.731.075-6.041 7.675 3.338-.114 9.795zm-88.99 2.055l.081 9.769-7.695 3.403-.101-9.788 7.487-3.283.227-.101zm.175 20.958l-7.646 3.439-.1-9.724 7.691-3.403.055 9.688zm1.262-10.314l7.653-3.361.035 5.186.03 4.512-7.624 3.4-.094-9.737zm9.061 7.186l6.812-3.034.765-.343.042 8.242v1.378l-7.548 3.393-.01-4.366-.061-5.27zm69.263 9.639l-7.548-3.393v-1.378l.042-8.242.234.104 7.331 3.27-.013 5.27-.046 4.369zm1.454-15.441l.032-4.764 7.639 3.38-.081 9.724-7.623-3.4.033-4.94zm8.972 8.949l.081-9.723 7.692 3.403-.111 9.74-7.662-3.42zm7.889-17.574l-.1 9.789-7.695-3.403.081-9.769.228.1 7.486 3.283zm-17.974-20.646l-4.029-1.754-3.597-1.565.048-9.818 7.643 3.296-.065 9.84zm-8.973-3.889l-7.571-3.294.033-9.788 7.587 3.274-.049 9.808zm-71.122 19.687l-2.712 1.209-4.992 2.191-.101-9.841 7.73-3.371.039 4.713.036 5.099zm-16.81 8.845l7.766-3.407.101 9.795-7.75 3.429-.117-9.817zM97.2 145.856l.081 9.668-7.656 3.443-.097-9.692 7.672-3.419zm27.476 9.866l7.104 3.258-7.214 3.28-7.088-3.277 7.198-3.261zm13.42 18.008l4.081-1.883 7.27 3.355-7.273 3.39-7.27-3.374 3.192-1.488zm14.475-14.77l7.104-3.257 7.201 3.264-7.101 3.276-7.204-3.283zm34.58-13.104l7.671 3.423-.097 9.691-7.656-3.442.082-9.672zm9.245-18.455l7.766 3.406-.12 9.814-7.75-3.429.104-9.791zm7.785 1.944l-7.769-3.406.1-9.844 7.786 3.387-.117 9.863zm-9.011-13.836l-.101 9.84-4.999-2.181-2.722-1.193.043-5.154.039-4.667 4.797 2.087 2.943 1.268zm-35.949-26.902l-.033 9.785-7.519-3.27v-6.482-3.277l2.066.891 5.486 2.353zm-35.398 10.372l-7.574 3.284-.049-9.811 7.587-3.274.036 9.801zm-35.881 26.954l-7.785 3.407-.117-9.866 7.785-3.387.062 6.177.055 3.669zm10.673 28.999l-.081-9.665 5.093-2.269 2.527-1.128.032 4.703.032 4.94-3.6 1.62-4.003 1.799zm9.021 7.04l-.006-3.15-.043-6.454 7.546-3.393.045 8.9v.671l-.785.357-6.757 3.069zm16.927 1.786l7.162 3.306-7.26 3.329-7.159-3.322 6.455-2.947.802-.366zm8.758 4.048l7.215 3.329-7.267 3.351-7.185-3.348 7.237-3.332zm8.827 12.288l7.331 3.403-7.331 3.423-7.331-3.423 7.331-3.403zm8.93 4.145l7.387 3.429-7.299 3.426-7.396-3.448 7.308-3.407zm-.103-16.429l7.266 3.331-7.215 3.349-7.266-3.352 7.215-3.328zm16.034-.736l-7.162 3.322-7.26-3.329 7.159-3.306.649.305 6.614 3.008zm2.135-8.512l.048-9.571 7.546 3.394-.017 6.437-.022 3.137-6.744-3.056-.811-.341zm8.95-7.046l.032-4.94.032-4.703 2.527 1.128 5.093 2.269-.055 9.662-3.999-1.799-3.63-1.617zm27.381-20.095l7.847 3.416-.039 2.891-.094 6.952-7.804-3.452.09-9.807zm-19.32-31.168l-.046 5.387-.039 4.476-7.655-3.367.065-9.844 4.178 1.802 3.497 1.546zm-53.479-14.906v3.277 6.482l-7.52 3.27-.032-9.785 5.469-2.359 2.083-.885zm-17.767 17.502l-3.598 1.566-4.029 1.753-.064-9.837 7.636-3.306.055 9.824zm-9.044-5.934l.065 9.843-7.679 3.342-.039-4.476-.045-5.387 3.416-1.475 4.282-1.848zm-25.539 45.182l7.746-3.436.101 9.743-7.724 3.449-.11-9.16-.013-.596zm16.969 14.91l.081 9.62-7.636 3.461-.097-9.639 7.652-3.442zm1.424 9.01l-.081-9.616 5.366-2.412 2.235-1.005.023 3.608.039 5.986-2.193.995-5.388 2.444zm17.134-6.288l7.107 3.277-7.253 3.303-7.108-3.3 7.254-3.28zm17.39 24.504l7.335 3.422-7.383 3.439-7.332-3.442 7.38-3.419zm19.464-.746l4.493-2.097 2.786-1.296 7.383 3.406-7.279 3.42-7.383-3.433zm23.262-12.349l-7.166 3.345-7.315-3.354 7.166-3.326 4.571 2.084 2.744 1.251zm-14.575-8.129l7.107-3.277 7.257 3.29-7.114 3.287-7.25-3.3zm16.657-.431l.039-5.986.023-3.608 2.235 1.005 5.366 2.412-.082 9.616-5.391-2.444-2.19-.995zm9.009-5.571l7.649 3.435-.097 9.64-7.637-3.462.085-9.613zm9.222-18.336l7.76 3.416v.606l-.107 9.16-7.731-3.449.078-9.733zm18.49-12.021l.039-2.918 7.341.221-.172 11.26-7.308-1.374.1-7.189zm-1.151-14.586v1.076l-.12 8.868-7.837-3.41v-1.037l.103-8.884 4.568 1.971 3.286 1.416zm-18.338-7.915l-.045 4.564-.052 5.325-7.734-3.364.049-5.731.036-4.135 4.492 1.944 3.254 1.397zm-18.133-9.286l-7.646-3.296.048-9.866 7.662 3.277-.016 2.45-.048 7.435zm-8.941-13.74l-.048 9.863-7.588-3.277.033-9.84 7.529 3.219.074.036zm-8.956-3.828l-.032 9.834-7.539-3.241v-7.173-2.651l3.094 1.322 4.477 1.909zm-62.429 23.508l.036 4.136.049 5.73-7.734 3.365-.055-5.614-.042-4.278 3.244-1.407 4.503-1.932zm-18.244 7.87l.097 8.181.019 1.74-7.844 3.413-.136-8.864v-1.077l3.296-1.419 4.567-1.974zm-9.054 15.049l.039 2.917.097 7.192-7.309 1.374-.169-11.26 7.341-.223zm46.173 44.08l7.166 3.326-7.315 3.354-7.166-3.345 3.818-1.74 3.497-1.595zm26.474 20.598l7.393 3.452-7.393 3.471-7.39-3.481 7.39-3.442zm17.3.285l.613-.288 3.633 1.685 3.811 1.77-7.341 3.468-7.444-3.475 6.728-3.16zm44.954-80.589l-.023 1.886-.094 8.032-7.786-3.387.049-4.914.049-4.981 1.706.735 6.099 2.629zm-9.083-10.421l-.062 5.011-6.345-2.735-1.411-.609.036-4.298.048-5.62 7.786 3.322-.052 4.93zm-62.692-23.612v3.633 6.181l-7.539 3.241-.032-9.834 5.381-2.301 2.19-.921zm-8.901 3.805l.032 9.84-7.591 3.274-.061-9.86.078-.032 7.542-3.222zM96.779 95.047l.036 4.298-1.411.609-6.345 2.736-.052-5.011-.049-4.93 7.785-3.322.036 5.62zm-9.047 9.685l.055 5.406.045 4.489-7.785 3.387-.117-9.915 6.099-2.632 1.703-.735zm-16.495 45.532l-.055-4.129 7.802-3.452.1 8.592v1.177l-7.785 3.474-.062-5.662zm9.213 3.047l7.727-3.446.097 9.695-7.701 3.474-.123-9.153v-.57zm.133 11.188l7.707-3.468.097 9.646-7.691 3.488-.075-6.318-.039-3.348zm19.077 2.551l7.312-3.316 2.248 1.044 4.866 2.269-.772.353-6.537 2.982-1.819-.849-5.298-2.483zm17.485 8.161l7.321-3.357 7.238 3.361-7.332 3.377-5.08-2.373-2.147-1.008zm7.111 13.169l.613.289 6.727 3.16-7.441 3.475-7.341-3.468 3.812-1.77 3.63-1.686zm44.853 2.704l-6.79-3.151-.648-.301 6.672-3.135.614-.288 7.444 3.458-7.292 3.417zm-9.128-12.492l-7.322-3.377 7.221-3.352 7.322 3.358-2.138.998-5.083 2.373zm24.978-3.368l-7.192 3.368-1.181-.541-6.189-2.84 7.169-3.348 4.408 2.01 2.985 1.351zm-7.38-4.861l-7.312-3.332 4.95-2.298 2.161-1.002 7.311 3.316-5.3 2.47-1.81.846zm18.49-9.335l7.708 3.468-.059 3.361-.074 6.317-7.692-3.487.117-9.659zm7.724 1.997l-7.711-3.469.097-9.694 7.714 3.449v.557l-.1 9.157zm1.489-11.763l.1-8.592 7.786 3.452-.042 4.142-.078 5.662-7.786-3.474.02-1.19zm18.247-27.291l7.276.217-.214 12.618-7.237-1.361.175-11.474zm-9.732-23.372l-.136 9.993-7.863-3.394.042-3.406.068-6.554 1.739.742 6.15 2.619zm-36.569-17.088l-7.665-3.277v-1.277l.042-8.641 7.682 3.241-.059 9.954zm-9.011-3.854l-7.61-3.241.032-9.889 7.627 3.241-.049 9.889zm-8.957-3.831l-7.555-3.241v-8.239-1.621l7.572 3.209-.017 9.892zM78.444 97.238l.075 6.411.042 3.565-7.863 3.394-.136-9.993 6.374-2.726 1.508-.651zm-16.453 14.034l7.38.947.023 1.714.113 8.444-7.344.22-.146-9.545-.026-1.78zm-1.155 12.712l.175 11.474-7.237 1.361-.214-12.618 7.276-.217zm1.541 12.589l7.305-1.374.136 10.022-1.476.512-5.797 2.006-.052-3.442-.117-7.724zm.191 12.582l7.27-2.515.136 9.905-7.237 3.65-.146-9.659-.023-1.381zm28.115 21.976l7.367-3.339 6.812 3.173.325.15-7.367 3.357-3.747-1.756-3.39-1.585zm17.485 8.21l7.377-3.384 2.222 1.037 5.002 2.337-7.377 3.403-6.322-2.969-.902-.424zm35.595 16.715l7.38-3.465 7.461 3.478-7.396 3.494-7.445-3.507zm25.196-13.322l-7.377-3.403 5.002-2.337 2.222-1.037 7.377 3.384-.902.424-6.322 2.969zm17.591-8.262l-6.964-3.176-.402-.185.324-.149 6.812-3.173 7.341 3.348-1.55.73-5.561 2.605zm19.762-78.53l-.402-.172.062-5.137.058-4.885 7.902 3.348v.875l-.123 9.169-7.497-3.199zm-1.764.713l-.039 3.241-.065 6.741-7.808-3.37.052-5.241.048-4.703 5.265 2.253 2.547 1.079zm-9.112-9.506l-.043 4.126h-.035l-7.737-3.309.084-9.97 7.786 3.303-.055 5.85zm-45.091-24.999v8.579 1.296l-7.503-3.209v-9.824l3.179 1.348 4.324 1.809zm-17.734 2.197v8.239l-7.558 3.241-.033-9.886 7.571-3.209.02 1.614zm-8.892 12.044l-7.61 3.241-.049-9.912 7.627-3.241.032 9.912zm-8.956 3.831l-7.665 3.277-.049-9.921 7.681-3.241.043 8.641-.01 1.245zm-25.809 11.02h-.036l-.042-4.126-.058-5.867 7.785-3.303.084 9.97-7.733 3.325zm-1.366 2.052l.049 4.703.052 5.241-7.782 3.4-.078-6.676-.029-3.293 3.893-1.663 3.896-1.711zm-18.263 17.535l-7.367-.917-.058-3.776-.114-7.578 7.416 2.126.123 10.145zm-6.566 50.868l7.234-3.65.133 9.766-7.195 4.771-.172-10.887zm8.707 5.438l-.058-4.353-.075-5.39 5.962-2.661 1.82-.813.097 8.067.019 1.653-2.001.901-5.764 2.596zm17.605 4.729l6.03 2.833 1.09.512-7.425 3.384-7.117-3.364 7.422-3.365zm17.491 8.213l5.035 2.363 2.196 1.031-7.432 3.429-7.231-3.413 6.813-3.121.619-.289zm26.629 12.505l7.397 3.475-7.461 3.497-7.397-3.494 7.461-3.478zm18.072 15.535l-7.509-3.549 7.461-3.523 7.509 3.526-7.461 3.546zm18.014-8.563l-7.5-3.501 7.344-3.471 7.5 3.481-5.288 2.515-2.056.976zm1.43-7.721l7.289-3.442 7.497 3.458-7.289 3.465-7.497-3.481zm-.152-8.362l2.196-1.031 5.034-2.363.63.289 6.812 3.121-7.234 3.416-7.438-3.432zm16.255-.739l-1.723-.791-5.699-2.612 7.172-3.368 7.429 3.387-6.949 3.284-.23.1zm8.467-10.871l7.422 3.364-7.114 3.368-7.439-3.387 7.131-3.345zm9.838-8.223l.02-1.653.097-8.067 1.82.813 5.962 2.661-.071 5.39-.059 4.353-5.761-2.593-2.008-.904zm9.239-5.594l7.234 3.649-.166 10.888-7.201-4.771.133-9.766zm8.71-4.603l.058-3.821 7.195 2.492-.207 12.369-7.156-3.608.11-7.432zm7.75-30.597l-7.28-.217.029-1.974.146-9.564 7.315-.94-.21 12.695zM204.69 85.19l-.055 4.697-.065 5.325-5.209-2.227-2.618-1.121.065-6.405.035-3.591 5.778 2.45 2.069.872zm-18.324-7.779l-.085 9.963-7.717-3.3.065-9.944 5.164 2.188 2.573 1.092zm-8.626-5.121l-.454-.191-7.416-3.141 2.595-4.972 8.759 3.688-1.648 2.198-1.836 2.418zm-18.195-7.711l-2.845-1.206-4.914-2.084.538-3.588.324-2.068 8.619 3.633-1.722 5.312zm-8.671-6.272l-.367 2.45-3.328-1.41-4.33-1.835v-5.977l8.505 3.565-.48 3.205zm-9.375.668v9.837l-7.503 3.209v-1.296-8.579l4.34-1.841 3.163-1.329zM87.498 81.865l.036 3.591.052 6.405-2.595 1.109-5.239 2.24-.068-5.679-.052-4.34 2.066-.875 5.8-2.45zm-26.859 29.232l.172 11.215v.324l-7.286.207-.214-12.692 7.328.946zm-8.214 25.975l-7.169 1.349-.256-13.957 7.211-.214.214 12.822zm8.859 16.372l.114 7.428-7.159 3.611-.045-2.638-.166-9.724 7.195-2.492.062 3.815zm10.202 15.159l.993-.448 6.77-3.043.075 6.353.039 3.319-7.746 3.51-.042-3.125-.088-6.566zm18.876 10.741l7.429-3.387 7.172 3.368-5.706 2.618-1.723.791-.217-.107-6.955-3.283zm13.91 8.064l.49.23-7.49 3.455-7.234-3.426 7.49-3.435 6.744 3.176zm2.079.972l7.289 3.443-7.496 3.477-7.289-3.452 7.496-3.468zm1.376 7.676l7.5-3.481 7.344 3.471-7.5 3.5-2.057-.972-5.287-2.518zm32.87 8.504l-7.513 3.559-7.461-3.546 7.51-3.526 7.464 3.513zm64.418-33.099l.074-6.352 6.77 3.043.99.447-.088 6.567-.042 3.125-7.743-3.511.039-3.319zm34.061-33.06l-7.137-1.329.218-12.828 7.211.214-.292 13.943zm-16.502-41.254l-7.419 2.126.026-1.961.11-8.204 7.461-3.316-.178 11.354zm-17.235-13.153l-6.063-2.57-1.735-.736 5.268-3.906 8.716 3.672-6.186 3.539zm-3.977-7.824l-5.265 3.889-7.85-3.326 4.36-4.265 3.286 1.384 5.469 2.317zm-30.168-12.705l-2.579 4.969-7.818-3.316 1.706-5.316 7.747 3.264.944.399zm-38.648-2.168l-4.791 2.029-2.972 1.258-1.706-5.312 8.626-3.627.077.525.766 5.128zm-18.088 7.665l-7.409 3.147-.454.191-1.986-2.648-1.476-1.971 8.759-3.688 2.566 4.969zm-22.73 3.52l4.36 4.265-7.85 3.325-5.268-3.889 5.469-2.304 3.289-1.397zm-4.931 8.203l-1.735.736-6.063 2.57-6.186-3.536 8.713-3.672 5.271 3.902zM69.18 99.267l-7.419-2.126-.172-11.344 7.461 3.316.11 8.203.02 1.951zm-14.711 78.917l-.107-6.308-.1-5.896 7.159-3.594.123 8.194.045 2.917-3.023 2.003-4.097 2.684zm88.381 35.413l7.843-3.727.974 9.324-8.808 4.214-.009-9.811zm9.134-4.343l7.838-3.724 1.914 8.835-8.788 4.214-.269-2.593-.695-6.732zm8.315-5.445l-5.904-2.772-1.606-.729 7.402-3.497 7.52 3.497-6.773 3.219-.639.282zm19.291-16.184l.49-.23 6.744-3.186 7.487 3.458-7.231 3.439-7.49-3.481zm9.424-3.889l-.597-.276 7.191-3.384 7.461 3.413-7.175 3.41-6.88-3.163zm33.736-10.275l.046-2.917.123-8.194 7.156 3.611-.081 5.915-.107 6.308-4.467-2.96-2.67-1.763zm16.615-50.358l-7.214-.214.217-12.907 7.257-.93-.26 14.051zm-8.327-14.31l-7.318.94.175-11.571 7.357-2.107v.363l-.214 12.375zm-42.005-34.694l-2.131 2.084-7.876-3.338 3.007-4.009.457-.612 8.759 3.695-2.216 2.181zM161.673 57.99l-4.097-1.724-4.73-1.993.837-5.578 9.677 4.055-1.687 5.241zm-9.754-6.641l-.357 2.382-7.533-3.167-1.167-.493v-5.919l9.546 4-.489 3.196zm-30.075 8.453l1.71 5.316-7.834 3.319-2.579-4.969.957-.402 7.746-3.264zm-19.985 8.427l3.464 4.622-7.873 3.319-2.131-2.084-2.229-2.178.376-.159 8.392-3.52zM74.052 82.717l3.403 1.945-7.711 3.267-7.136-3.167 8.655-3.646 2.79 1.601zM60.428 98.175l.175 11.571-7.318-.94-.191-11.302-.023-1.436 7.357 2.107zm-2.102 79.085l3.273-2.168.165 10.926-7.081 5.811-.185-12.044 3.828-2.525zm21.695-1.28l7.137 3.364-7.48 3.41-7.137-3.384 7.48-3.39zm15.895 7.509l-1.129.519-6.358 2.917-7.175-3.41 7.484-3.413 7.179 3.387zm6.767 21.357l3.775-7.876 7.786 3.695-2.005 5.856-.847 2.477-6.776-3.242-1.933-.91zm13.968-4.538l7.506-3.504 7.4 3.504-1.603.752-5.904 2.771-.629-.298-6.77-3.225zm7.879 5.238l7.821 3.724-.807 7.824-.156 1.494-8.788-4.213 1.93-8.829zm8.34 11.966l.789-7.626 7.84 3.711v9.814l-8.807-4.213.178-1.686zm30.117-3.73l-1.914-8.833 3.007-1.429 4.807-2.269 2.852 8.353-6.686 3.202-2.066.976zm19.898-9.533l-3.773-7.873 7.737-3.672 1.534 2.425 3.153 4.981-8.651 4.139zm21.429-28.289l7.477 3.39-7.136 3.384-7.481-3.409 7.14-3.365zm18.422-.888l2.488 1.65 4.629 3.066-.204 12.022-7.081-5.812.168-10.926zm1.194-78.31l.175-11.571 7.399-3.29-.171 10.132-.043 2.612-7.36 2.117zm-15.723-23.985l1.077-.797 9.845 4.123-6.134 3.514-8.931-3.769 4.143-3.07zm-5.586 2.46l-8.96-3.773 4.318-4.214 9.868 4.136-5.226 3.85zm-20.58-8.67l-8.962-3.776 2.549-4.91 9.839 4.12-3.426 4.567zm-7.986-8.579l-2.222 4.285-8.911-3.753 1.687-5.248 9.77 4.1-.324.616zm-32.556-7.928l-1.414.596-7.296 3.073-.357-2.382-.48-3.196 9.547-4v5.909zm-9.994 4.213l-4.73 1.993-4.097 1.724-1.68-5.247 9.673-4.055.834 5.584zM102.31 66.589l-3.426-4.583 9.835-4.12 2.55 4.91-8.959 3.792zm-1.921-.324l.649.849-4.892 2.061-4.087 1.721-4.314-4.213 9.858-4.126 2.786 3.708zm-9.693 5.202l-8.969 3.779-5.216-3.867 9.868-4.136 4.318 4.223zm-47.072 51.681l-7.137.214-.042-2.081-.266-13.324 7.195.923.25 14.268zm-6.79 18.225l7.101-1.335.26 14.051-1.567.541-5.489 1.899-.305-15.156zm8.729 13.668l6.692-2.317.431-.149.211 12.579-3.649 1.841-3.435 1.734-.042-2.223-.208-11.465zm.279 15.182l3.568-1.799 3.52-1.776.127 7.52.081 4.897-7.042 4.668-.162-8.544-.091-4.966zm37.201 25.201l5.586-6.943 7.652 3.637-4.684 7.402-3.834-1.837-4.72-2.259zm12.93-.295l1.534-2.425 7.724 3.672-3.772 7.873-8.636-4.135 3.15-4.985zm16.632 14.455l2.851-8.352 4.808 2.269 3.007 1.429-1.914 8.832-2.067-.988-6.685-3.19zm30.239 15.334l1.042-.499 7.928-3.789.973 9.27-9.91 4.784-.033-9.766zm10.267-4.907l8.934-4.278 1.901 8.774-9.894 4.771-.941-9.267zm39.651-20.491l-4.685-7.402h.023l7.63-3.627 5.586 6.942-4.749 2.269-3.805 1.818zm38.469-20.455l.084-4.897.127-7.52 2.653 1.339 4.428 2.233-.107 5.802-.142 7.707-7.043-4.664zm8.94-24.98l.26-14.05 7.101 1.335-.305 15.159-5.489-1.899-1.567-.545zm.571-30.94l.023-1.148.24-13.12 7.195-.924-.266 13.325-.042 2.081-7.15-.214zm-1.064-15.457l-.162.019-7.098.911.218-12.965 7.302-2.091-.26 14.126zm-25.101-27.421l6.137-3.51 9.8 4.103-7.065 3.141-8.872-3.734zm-22.257-9.377l-4.006-1.689-4.973-2.097 3.426-4.57 9.868 4.133-4.315 4.223zm-70.872-12.381l-8.911 3.753-2.245-4.275-.325-.626 9.774-4.094 1.707 5.241zM80.283 75.846l-8.918 3.769-6.134-3.507 9.845-4.123 1.048.778 4.159 3.082zm-19.366 8.158l-7.068-3.134 9.8-4.103 6.138 3.51-8.869 3.727zm-8.973 24.614l-7-.898-.259-.032-.26-14.116 7.302 2.091.217 12.955zm-14.776 49.334l6.024-2.087 1.028-.357.256 13.898-7.01 3.533-.298-14.987zm15.992 22.718l.065 3.759.143 8.473-6.997 5.743-.246-13.311 7.036-4.664zm48.941 25.378l8.84 4.236-2.829 8.285-9.758-4.713 3.747-7.808zm20.222 9.688l8.934 4.278-.973 9.264-9.875-4.768 1.914-8.774zm10.225 4.898l7.912 3.789 1.041.499v9.765l-9.913-4.787.96-9.266zm32.631 3.27l-1.901-8.771 8.898-4.262 2.828 8.291-5.037 2.431-4.788 2.311zm22.029-10.631l-3.74-7.805 8.781-4.214 3.27 5.167 1.375 2.172-2.27 1.105-7.416 3.575zm15.34-18.443l-5.582-6.939 7.568-3.598 2.141 2.146 4.333 4.34-2.997 1.436-5.463 2.615zm9.732-4.67l-2.131-2.133-4.324-4.35 5.677-2.699 1.79-.853 7.348 6.032-3.536 1.695-4.824 2.308zm18.815-5.731l.065-3.759 7.039 4.664-.247 13.311-7-5.743.143-8.473zM198.981 66.22l4.269-4.178 10.981 4.573-5.168 3.831-10.082-4.227zm-22.766-9.536l.493-.953 2.025-3.889 10.915 4.538-3.386 4.515-10.047-4.21zm-1.249-.522l-9.984-4.181 1.664-5.186 10.834 4.512-2.514 4.855zm-11.233-4.706l-9.845-4.132.376-2.512.448-2.992 10.727 4.457-1.706 5.179zm-10.64-7.957l-.49 3.277-9.754-4.087v-5.834l10.588 4.421-.344 2.224zM98.05 60.891l-1.424-1.899-1.946-2.619 10.916-4.538 2.517 4.862-10.063 4.194zM44.526 172.858l.217 11.759-6.965 4.613-.029-1.521-.266-13.288 7.007-3.533.036 1.97zm28.799 17.918l4.337-4.344 2.135-2.139 7.568 3.598-5.583 6.939-5.443-2.625-3.014-1.429zm3.309 12.601l5.531-6.871 8.697 4.168-4.642 7.335-4.541-2.184-5.044-2.448zm10.809 5.219l1.064-1.679 3.568-5.659 8.781 4.213-3.714 7.802-7.75-3.741-1.95-.936zm21.445 11.85l9.991 4.819-1.888 8.713-10.893-5.3 2.79-8.232zm.438-1.297l2.829-8.291 8.898 4.262-1.898 8.771-4.619-2.23-5.21-2.512zm56.146 6.116l9.975-4.813 2.806 8.226-10.893 5.3-1.888-8.713zm11.95-3.196l-.752-2.21 1.745-.852 8.145-3.935 3.711 7.743-10.812 5.26-2.037-6.006zm20.69-14.06l-4.642-7.335 8.697-4.168 5.53 6.871-5.102 2.464-4.483 2.168zm41.661-33.203l.072-3.905 7.006 3.533-.233 11.551-.065 3.241-6.965-4.612.185-9.808zm9.083-33.18l7.033 1.323-.357 16.465-6.987-2.418.311-15.37zm-8.645-63.602l-.259 14.141-.841.24-6.461 1.851.029-1.65.191-11.318.993-.441 6.348-2.823zm-42.547-12.372l-10.082-4.214 3.387-4.518 10.961 4.567-4.266 4.165zm-67.583-20.851l.376 2.512-9.884 4.142-1.664-5.186 10.73-4.457.442 2.988zM93.83 55.261l-3.348-4.466 11.986-4.962 2.489 4.797-11.127 4.632zm2.936 6.158l-10.082 4.213-4.269-4.175 10.961-4.567 3.39 4.528zm-11.432 4.8l-10.082 4.214-5.168-3.831 10.981-4.573 4.269 4.191zM51.487 81.291l.214 12.673v.298l-6.462-1.851-.84-.24-.259-14.141 6.355 2.826.993.434zM43.073 93.19l.049 2.612.217 11.717-7.198-.924-.324-15.48 5.823 1.669 1.434.405zm-7.581 48.452l.324 15.37-6.987 2.418-.357-16.465 7.02-1.323zm30.438 56.559l4.344-4.349 2.06-2.065 2.796 1.339 5.803 2.777-5.515 6.868-5.884-2.839-3.604-1.731zm20.806 11.542l9.826 4.742-3.711 7.74-10.705-5.212 4.59-7.27zm11.029 5.329l7.785 3.766 2.105 1.018-.587 1.721-2.219 6.502-10.776-5.261 3.692-7.746zm32.715 25.466l.95-9.215 4.464 2.155 5.592 2.7v9.724l-1.002-.489-10.004-4.875zm12.359 5.357v-9.723l10.056-4.862.95 9.212-9.128 4.44-1.878.933zm59.444-38.404l6.287-3.034 5.476 6.806-10.605 5.16-4.59-7.27 3.432-1.662zm6.667-4.716l-5.515-6.869 8.6-4.119 2.059 2.065 4.344 4.349-3.393 1.64-6.095 2.934zm39.916-128.598l-.325 15.525-7.246 2.078.249-13.513v-.849l4.698-2.091 2.624-1.151zM239.202 77l-3.892 1.728-3.128 1.39-10.017-4.197 6.086-3.478.402.168L239.202 77zm-5.008-9.503l-6.028 3.445-.21-.087-10.974-4.57 1.096-.813 4.022-2.982 5.664 2.337 6.43 2.671zm-56.052-17.389l-9.667-4.026-1.378-.574 1.644-5.118 6.569 2.719 5.32 2.204-2.488 4.794zm-24.086-13.039l-.425 2.833-7.461-3.115-3.308-1.377v-5.74l11.597 4.804-.403 2.596zm-34.726 14.91l-9.984 4.181-2.518-4.862 10.835-4.512 1.667 5.192zM68.635 67.212l3.568 2.638 1.622 1.196-10.056 4.214-6.082-3.478 10.948-4.57zm-12.541 5.231l6.086 3.478-10.017 4.197-3.127-1.39L45.142 77l10.744-4.476.208-.081zm-13.3 4.978l.032 1.727.234 12.641-3.017-.865-4.217-1.212-.324-15.525 2.595 1.154 4.697 2.081zm-4.95 113.41l6.961-4.612.25 13.519-6.919 5.678-.256-12.764-.036-1.821zm20.761 14.728l4.438-4.447 1.898-1.899 6.163 2.975 3.455 1.669-5.472 6.807-3.604-1.754-6.877-3.351zm47.076 24.403l7.656 3.724 3.383 1.646-1.875 8.654-11.951-5.86 2.787-8.164zm12.58 4.622l.224-1.037 1.664-7.679 10.02 4.839-.412 3.958-.542 5.254-9.19-4.48-1.764-.855zm52.775-.892l7.655-3.724 2.787 8.165-11.951 5.847-1.875-8.654 3.384-1.634zm8.878-4.32l4.351-2.117 6.607-3.215 3.682 7.682-11.853 5.811-2.787-8.161zm35.375-18.708l-5.476-6.807 3.244-1.562 6.381-3.079 1.898 1.899 4.441 4.441-6.874 3.344-3.614 1.764zm30.941-5.241l-6.92-5.679.25-13.519 1.739 1.154 5.239 3.449-.036 1.821-.272 12.774zm1.622-132.264l-3.601 1.601-3.354 1.491-10.705-4.453-.471-.198 6.034-3.449 6.131 2.538 5.966 2.47zm-27.207-11.266l-5.119 3.792-11.191-4.667 4.217-4.136 5.959 2.467 6.134 2.544zm-26.779-11.088l-3.347 4.466-11.13-4.641 1.758-3.384.733-1.41 1.856.768 10.13 4.201zm-26.372-10.936l-1.645 5.115-10.929-4.538.607-4.038.207-1.391 6.271 2.593 5.489 2.259zm-71.418 7.153l-6.426 2.661-3.312-4.418 13.05-5.374 2.459 4.739-5.771 2.392zm-6.867 4.307l1.375 1.835 1.975 2.635-2.021.843-9.158 3.815-.649-.648-3.568-3.497 3.666-1.517 8.379-3.465zM62.251 62.486l4.866 3.598.269.201-10.601 4.408-.6.249-6.027-3.445 6.429-2.671 5.664-2.34zm-13.67 5.662l6.03 3.449-1.025.428-10.134 4.214-3.354-1.491-3.601-1.601 5.953-2.463 6.131-2.535zm-19.003 126.53l-.324-15.013-.026-1.073 6.932-3.497.11 5.536.191 9.471-5.946 3.954-.937.622zm39.861 17.661l1.531.746 9.216 4.486-2.835 4.476-1.726 2.726-11.61-5.698.457-.571 4.966-6.165zm73.41 44.729v-9.672l11.155-5.429.811 7.841.137 1.316-12.103 5.944zm13.124-9.176l-.674-6.544 11.113-5.413 1.875 8.657-12.035 5.899-.279-2.599zm52.75-23.116l-1.726-2.726-2.832-4.476 9.362-4.554 1.385-.674.72.894 4.7 5.835-11.609 5.701zm39.131-33.06l2.618 1.734 4.265 2.826-.344 15.843-6.838-5.611.299-14.792zm9.388-48.511l.801.149 6.163 1.16-.412 17.762-6.916-2.395.364-16.676zm-7.688-70.811l-12.301-5.095 5.978-3.419 13.222 5.445-6.899 3.069zm-27.645-11.458l-6.313-2.593-5.988-2.48 4.185-4.094 13.186 5.429-5.07 3.737zm-14.705-4.628l-3.568 3.497-.649.648-11.175-4.654 3.351-4.47 9.012 3.734 3.029 1.245zm-12.502-6.638l-6.332-2.622-5.865-2.431 2.459-4.739 13.05 5.374-3.312 4.418zm-39.643-19.285l-.406 2.713-10.014-4.149-1.79-.749v-5.65l12.605 5.186-.395 2.648zm-13.56-2.184l-2.05.849-9.754 4.038-.37-2.47-.432-2.885 12.606-5.186v5.653zm-12.881 6.806l.207 1.39.607 4.039-10.932 4.538-1.642-5.105 5.515-2.288 6.245-2.574zm-13.012 5.387l1.645 5.118-1.651.687-9.408 3.912-2.488-4.794 5.356-2.217 6.546-2.706zM75.791 56.879l4.217 4.136-11.195 4.661-5.119-3.792 6.125-2.538 5.972-2.467zm-14.805 4.671l-2.407.995-9.904 4.103-5.975-3.416 13.216-5.442 5.07 3.76zm-13.884 5.753l-12.301 5.095-6.903-3.073L41.12 63.88l5.982 3.423zM25.922 88.276l.354 17.065-7.078-.908-.409-18.215 7.133 2.058zm1.161 53.561l-6.971 1.296v-.395l-.409-17.538 7.023-.211.357 16.848zm.029 1.368l.36 16.676-6.916 2.395-.412-17.762 6.968-1.309zm-6.079 39.536l5.515-2.791 1.33-.671.354 16.281-6.812 4.511-.386-17.33zm8.924 29.375l-.344-15.843 4.266-2.827 2.618-1.734.298 14.793-5.881 4.823-.957.788zm21.351.729l6.271-6.281 10.62 5.166-.616.765-4.807 5.964-2.569-1.261-8.898-4.353zm51.127 26.578l12.097 5.928-1.862 8.592-13.002-6.42 2.767-8.1zm13.624 5.186l1.875-8.658 11.104 5.404-.551 5.351-.393 3.802-4.908-2.405-7.127-3.494zm12.236 17.065l.734-7.112.204-1.993 12.252 6.006v9.613l-3.292-1.62-9.898-4.894zm41.522-16.32l4.467-2.191 7.63-3.74 2.764 8.103-13.002 6.421-1.252-5.773-.607-2.82zm16.084 1.569l-.325-.921-2.449-7.179 2.9-1.423 9.083-4.46 3.649 7.617-11.762 5.808-1.096.558zm10.445-14.585l3.523-1.728 8.359-4.097 3.345 5.283 1.174 1.857-12.752 6.295-3.649-7.61zm25.228-13.879l-5.421-6.735 10.621-5.167 6.27 6.282-8.891 4.369-2.579 1.251zm34.914-40.674l.023-1.07.324-15.418 6.235 2.159.681.236-.409 17.558-.272-.136-6.582-3.329zm7.75-34.639l-6.971-1.296.363-16.835 7.023.211-.415 17.92zm-5.81-54.87l7.136-2.042-.421 18.19-7.078.907.363-17.055zm7.166-3.455l-7.137 2.045.227-10.427.146-6.693 7.189-3.196-.425 18.271zm-22.464-22.439l-13.43-5.529 5.025-3.724 14.331 5.867-5.926 3.387zM115.194 39.104l-11.224 4.654-.872.363-.649-1.274-1.797-3.462 12.92-5.351 1.557 4.862.065.207zm-22.59 2.123L85.5 44.144l-3.276-4.369 14.121-5.769 2.43 4.684-6.17 2.538zm-7.555 4.57l3.312 4.421-12.265 5.079-4.181-4.084 7.273-2.995 5.862-2.421zM74.743 55.845l-5.988 2.499-6.313 2.612-5.07-3.757 13.187-5.429 4.185 4.074zm-20.093.998l-13.433 5.529-5.923-3.381 14.332-5.866 5.025 3.718zM25.89 86.866l-7.137-2.045-.425-18.271 7.189 3.196.152 7.092.221 10.028zm31.888 139.962l5.369-6.671 11.756 5.756-4.509 7.131-1.56-.771-11.055-5.445zm15.363 4.388l2.975-4.703 11.882 5.834-.091.188-3.565 7.413-12.752-6.298 1.551-2.434zm12.421 9.335l3.649-7.617 9.083 4.46 2.901 1.423-2.45 7.179-.324.92-2.024-.998-10.835-5.367zm13.605 8.427l.058-.169 13.144 6.483-1.849 8.537-14.043-6.988 2.689-7.863zm16.609-3.018l1.187.584 10.994 5.39-.351 3.403-.587 5.695-13.102-6.483 1.859-8.589zm27.074 22.222v-9.623l12.252-6.006.204 1.993.737 7.111-10.391 5.138-2.802 1.387zm13.893-12.848l-.35-3.403 10.523-5.157 1.658-.814 1.862 8.599-13.102 6.483-.591-5.708zm29.601-7.131l1.946-.972 11.081-5.468 3.621 7.552-13.904 6.92-2.744-8.032zm27.622-15.159l-4.516-7.131 11.753-5.759 5.369 6.67-11.03 5.455-1.576.765zM258.156 68.57l-13.442-5.536 5.926-3.394 14.361 5.88-6.845 3.05zm-45.722-17.357l-4.175 4.081-12.262-5.079 3.312-4.421 5.858 2.411 7.267 3.008zm-13.583-7.063l-7.104-2.917-6.163-2.535 2.429-4.684 14.108 5.776-3.27 4.359zm-14.513-5.977l-4.077-1.679-9.067-3.734 1.602-4.991 13.969 5.721-2.427 4.684zm-28.676-11.808l-10.319-4.246-2.494-1.027v-5.581l13.605 5.559-.792 5.296zM83.553 43.8l.649.878-2.07.852-11.266 4.645-4.139-4.048 14.208-5.818 2.618 3.491zM39.637 63.034L26.195 68.57l-6.848-3.047 14.364-5.883 5.927 3.394zM21.87 218.75l-.396-17.084 3.484-2.308 3.325-2.204.347 16.051-1.187.972-5.573 4.573zm8.677-5.377l7.02-5.763 11.451 5.614-6.199 6.207-5.839-2.891-6.433-3.167zm19.752.48l11.61 5.692-5.369 6.667-12.444-6.159 6.202-6.2zm6.614 14.047l12.745 6.295-4.477 7.072-13.589-6.761 4.253-5.283 1.067-1.323zm116.911 35.936l-1.849-8.538 13.144-6.482 2.744 8.041-.324.169-13.715 6.81zm58.928-29.32l-13.588 6.761-4.477-7.073 12.745-6.294 1.064 1.322 4.256 5.284zm-10.312-14.965l11.61-5.692 6.206 6.22-12.447 6.159-5.369-6.687zm19.09-.107l-6.199-6.21 11.451-5.614 7.02 5.763-6.42 3.17-5.852 2.891zm14.189-6.233l.347-16.05 3.325 2.204 3.484 2.308-.395 17.084-5.642-4.632-1.119-.914zM218.983 46.675l14.273 5.834-4.752 3.523-.269.201-13.401-5.51 2.203-2.155 1.946-1.893zM126.61 21.608l.794 5.296-6.695 2.758-6.3 2.593-1.602-4.995 13.595-5.565.208-.087zM65.368 46.675l4.142 4.051-10.828 4.46-2.572 1.06-.107-.081-4.915-3.643 11.772-4.82 2.508-1.027zm-15.548 4.91l-4.976-3.689 15.376-6.259 4.1 4.013-14.5 5.935zm-5.359-2.295l3.893 2.891-14.552 5.957-3.516-2.01-2.352-1.352 15.447-6.288 1.08.8zM17.397 84.432l-7.081-2.029-.487-19.635 7.137 3.173.431 18.491zm1.418 60.335l.419 17.972-6.848 2.373-.474-19.045 3.627-.681 3.276-.619zm-5.907 42.071l6.634-3.349.156-.077.415 17.544-6.741 4.46-.464-18.578zM29.4 214.313l12.411 6.129-6.128 6.146-13.222-6.577 6.939-5.698zm39.644 23.373l1.829-2.888 12.895 6.369-3.62 7.548-13.754-6.842 2.65-4.187zm42.726 26.759l1.849-8.541 2.692 1.329 10.559 5.215-.934 9.043-8.34-4.149-5.826-2.897zm31.08 14.793v-9.568l13.339-6.59.934 9.05-11.743 5.834-2.53 1.274zm15.57-7.744l-.934-9.042 10.549-5.216 2.693-1.328 1.849 8.54-5.781 2.875-8.376 4.171zm42.171-30.331l12.895-6.369 1.829 2.888 2.65 4.185-13.754 6.842-3.62-7.546zm41.957-20.721l12.411-6.129 6.942 5.698-13.219 6.577-6.134-6.146zm21.267-.606l.402-17.292 6.734 4.464-.454 18.312-6.682-5.484zm.846-36.424l6.79 3.426-.461 18.578-6.744-4.46.415-17.544zm7.828-38.713l-6.906-1.297.421-18.15 6.962.207-.477 19.24zm1.544-62.296l-7.078 2.029.428-18.475 7.137-3.173-.484 19.447-.003.172zM171.956 25.971l-14.01-5.734.781-5.218 14.822 6.029-1.593 4.923zm-76.261 6.832L81.39 38.666l-3.244-4.321 15.155-6.158 2.394 4.615zm-23.512 9.626l-6.52 2.668-4.097-4.009 15.279-6.22 3.244 4.324-7.905 3.238zM36.951 227.21l4.47-4.476 1.667-1.673 4.272 2.11 8.311 4.104-5.313 6.602-8.836-4.398-4.571-2.269zm43.822 23.337l12.81 6.375 1.236.616-.73 2.142-1.992 5.834-14.922-7.477 3.597-7.49zm15.266 7.597l14.186 7.059-1.483 6.842-.353 1.621-15.068-7.562 2.718-7.96zm14.046 14.076l1.385-6.398 12.217 6.078 2.095 1.043-.927 8.991-15.211-7.646.441-2.068zm16.057 10.372l.15-1.432.781-7.559 14.423 7.176v9.513l-15.354-7.698zm32.414-9.636l2.306-1.147 12.002-5.974 1.386 6.398.45 2.085-15.22 7.629-.924-8.991zm17.04-.898l-1.483-6.842 14.186-7.059 2.725 7.98-15.075 7.555-.353-1.634zm58.39-38.136l-5.313-6.602 8.31-4.103 4.273-2.11 1.553 1.556 4.591 4.547-4.97 2.473-8.444 4.239zm39.511-172.149l-5.538 2.463-1.255.558-14.597-5.97 5.897-3.397 10.705 4.356 4.788 1.99zm-70.542-23.077l-14.312-5.893 2.404-4.628 15.155 6.158-3.247 4.363zm-13.17-11.004l-2.401 4.628-14.159-5.834 1.583-4.927 6.792 2.765 8.185 3.368zm-32.342-13.198l-.341 2.269-.441 2.936-13.812-5.643v-5.51l2.958 1.206 11.636 4.742zm-15.944-5.938v5.51l-13.809 5.643-.441-2.937-.341-2.269 12.028-4.904 2.563-1.044zm-15.876 6.463l.782 5.218-14.01 5.737-1.583-4.927 6.371-2.593 8.44-3.436zm-16.063 6.541l1.437 4.47.146.457-14.183 5.805-2.401-4.628 8.272-3.351 6.728-2.752zM26.347 55.427l.574.324 5.304 3.034-14.597 5.97-1.255-.558-5.537-2.463 4.798-1.945 10.715-4.363zM10.001 124.14l-6.903.204-.545-20.698 6.961.894.487 19.6zm.516 20.799l-6.841 1.296-.538-20.53 6.9-.204.48 19.438zm-5.845 24.254l6.394-2.214.474 19.032-6.721 3.4-.529-20.076.383-.142zm56.564 80.835l4.438-7.011 9.261 4.613 4.645 2.31-3.588 7.488-9.333-4.677-5.424-2.723zm81.614 40.23v-9.513l14.422-7.186.74 7.157.191 1.837-15.353 7.705zm65.526-32.84l-3.587-7.487 4.496-2.237 9.407-4.677 4.425 7.011-5.33 2.671-9.411 4.719zm64.437-71.397l.471-19.032 6.397 2.213.382.133-.528 20.076-6.722-3.39zm7.86-39.783l-6.841-1.296.483-19.447 6.9.204-.542 20.539zm.578-21.878l-6.903-.22.486-19.616 6.962-.894-.545 20.73zm-90.83-97.884l-15.207-6.191 1.564-4.862 16.018 6.482-2.375 4.57zm-65.004-12.829L110.4 19.773l-1.557-4.862 15.807-6.398.766 5.134zm-17.842 1.76l1.564 4.862-15.208 6.191-2.374-4.573 16.018-6.479zM7.899 83.113l1.093.324.49 19.749-6.965-.905-.551-20.867 5.933 1.698zM5.421 212.3l6.66-4.411.461 18.52-6.605 5.42-.516-19.529zm5.07 17.535l2.809-2.301 14.273 7.16-5.982 6.003-15.065-7.607 3.964-3.255zm19.382 4.476l6.073-6.083 13.546 6.741-2.919 3.614-2.355 2.917-11.13-5.578-3.215-1.611zm14.727 8.891l5.813 2.917 8.885 4.454-4.395 6.945-15.516-7.834 5.213-6.482zm48.279 24.199l9.408 4.713 5.816 2.917-1.823 8.427-16.1-8.139 2.699-7.918zm16.467 8.252l15.366 7.701-.925 8.936-16.268-8.213 1.827-8.424zm16.657 8.349l15.499 7.779v9.464l-16.424-8.304.925-8.939zm33.639-.648l15.367-7.701 1.826 8.427-16.262 8.21-.931-8.936zm18.435.094l-1.823-8.427 5.839-2.917 9.378-4.703 2.703 7.921-16.097 8.126zm51.374-25.93l-4.395-6.945 14.698-7.368 5.213 6.483-15.516 7.83zm10.669-16.005l-5.261-6.544 13.546-6.741 6.073 6.083-1.586.795-12.772 6.407zm22.643-.81l-6.011-6.038 14.273-7.16 2.89 2.372 3.893 3.2-15.045 7.626zm9.05-14.287l.461-18.52 6.656 4.404-.515 19.529-6.602-5.413zm10.021-124.138l-6.965.895.49-19.749.791-.227 6.232-1.786-.548 20.867zm-5.898-41.617l-.723.324-15.723-6.401.094-.055 5.732-3.277 16.634 6.735-6.014 2.674zm-52.107-20.598l-15.492-6.307.648-.878 2.547-3.397 16.343 6.615-4.046 3.967zm-16.787-6.832l-9.083-3.702-6.277-2.557 2.375-4.573 16.197 6.557-3.212 4.275zM141.499 7.097l-14.795 6.025-.442-2.94-.324-2.204 15.561-6.304v5.423zm-68.68 22.38l3.205 4.275-15.496 6.311-4.055-3.967 16.346-6.618zM19.032 51.252l1.823 1.044 4.003 2.288-15.72 6.401-.756-.324L2.4 57.987l16.632-6.735zm9.839 184.061l8.989 4.505 5.515 2.762-3.854 4.79-1.356 1.686-15.305-7.721 6.011-6.022zm31.641 15.859l14.886 7.455-3.568 7.425-15.71-7.927 4.392-6.953zm16.093 8.064l15.058 7.549-2.702 7.918-15.918-8.038 3.562-7.429zm66.244 32.532l15.499-7.779.928 8.952-16.424 8.291-.003-9.464zm69.662-25.706l-3.568-7.425 14.886-7.462 4.399 6.95-15.717 7.937zm33.682-17.003l-1.486-1.848-3.724-4.628 5.901-2.959 8.596-4.308 6.011 6.019-15.298 7.724z"
    fill="url(#A)"
  />
  <circle cx="146.376" cy="133.844" r="51.829" fill="#010014" fill-opacity=".4" />
  <g fill-rule="evenodd" fill="#e4e5ee">
    <path
      d="M118.95 172.862a6.09 6.09 0 0 1 1.676 8.444l-26.321 39.358a6.09 6.09 0 0 1-8.444 1.676 6.09 6.09 0 0 1-1.676-8.444l26.322-39.358a6.09 6.09 0 0 1 8.444-1.676z"
    />
    <path
      d="M190.998 164.902c-17.029 25.463-51.476 32.3-76.938 15.271s-32.301-51.475-15.272-76.938 51.475-32.3 76.938-15.272 32.301 51.476 15.272 76.938zm-70.17 5.15c19.872 13.291 46.758 7.955 60.049-11.919s7.955-46.758-11.919-60.049-46.758-7.955-60.05 11.919-7.954 46.759 11.92 60.049zm14.201-46.413a2.1 2.1 0 0 0 0 2.97l20.965 20.965a2.1 2.1 0 1 0 2.97-2.97l-20.965-20.965a2.1 2.1 0 0 0-2.97 0z"
    />
    <path
      d="M158.964 123.639a2.1 2.1 0 0 1 0 2.97l-20.965 20.965a2.1 2.1 0 1 1-2.97-2.97l20.965-20.965a2.1 2.1 0 0 1 2.97 0z"
    />
  </g>
  <defs>
    <linearGradient
      id="A"
      x1="286.128"
      y1="269.136"
      x2="-39.281"
      y2="62.498"
      gradientUnits="userSpaceOnUse"
    >
      <stop stop-color="#9a52bc" />
      <stop offset="1" stop-color="#262769" />
    </linearGradient>
  </defs>
</svg>
