<svg width="285" height="303" viewBox="0 0 285 303" fill="none" xmlns="http://www.w3.org/2000/svg">
  <path
    d="M284.351 57.9482C284.351 57.932 284.351 57.9157 284.351 57.8963C284.348 57.8558 284.342 57.8157 284.331 57.7764C284.331 57.7537 284.331 57.731 284.309 57.7116C284.295 57.6768 284.279 57.6432 284.26 57.6111L284.221 57.5527C284.198 57.5235 284.172 57.4964 284.143 57.4717L284.088 57.4231L284.062 57.4004C284.037 57.3857 284.011 57.3727 283.984 57.3615L283.942 57.3356L265.533 49.8808L247.338 42.5136L229.344 35.2306L211.558 28.0352L193.985 20.9175L176.601 13.8841L159.409 6.92848L142.43 0.0474186L142.343 0.0247302L142.255 0.00204184H142.184C142.15 -0.000680614 142.116 -0.000680614 142.083 0.00204184L142.012 0.00204184C141.982 0.00748408 141.953 0.0150667 141.924 0.0247302L124.932 6.92524L107.74 13.8808L90.3719 20.9175L72.7932 28.0481L55.0134 35.2468L37.0259 42.5298L18.8146 49.8808L0.421708 57.3323L0.379537 57.3712C0.351583 57.3822 0.324477 57.3952 0.298439 57.4101L0.272488 57.4328L0.217342 57.4814C0.190217 57.5063 0.165257 57.5334 0.142732 57.5625L0.103805 57.6208C0.0847243 57.6528 0.0684444 57.6865 0.0551464 57.7213C0.0463028 57.7424 0.0387204 57.7641 0.032439 57.7861C0.0183836 57.8218 0.00752797 57.8587 0 57.8963C0 57.9125 0 57.9287 0 57.9482C0 57.9482 0 57.9676 0 57.9482L0.593634 80.5004L1.18403 102.865L1.76793 125.041L2.34859 147.036L2.91951 168.868L3.49044 190.5L4.06137 211.976L4.62256 233.255C4.62256 233.255 4.62256 233.255 4.62256 233.277C4.62256 233.3 4.62256 233.3 4.62256 233.31C4.63025 233.33 4.63891 233.349 4.64851 233.368C4.64736 233.389 4.64736 233.409 4.64851 233.43C4.66297 233.47 4.68144 233.51 4.70366 233.547C4.70366 233.547 4.70366 233.576 4.72637 233.589C4.75926 233.638 4.79852 233.683 4.84315 233.722H4.86261C4.89861 233.752 4.93777 233.778 4.97939 233.799L21.4098 242.119L38.025 250.508L54.8317 258.993L71.833 267.576L89.0257 276.259L106.429 285.046L124.037 293.936L141.856 302.931C141.882 302.942 141.909 302.952 141.937 302.96L141.992 302.979C142.099 303.007 142.21 303.007 142.317 302.979L142.372 302.96C142.399 302.952 142.426 302.942 142.453 302.931L160.268 293.936L177.876 285.046L195.28 276.259L212.472 267.576L229.474 258.993L246.28 250.508L262.931 242.119L279.359 233.825C279.399 233.803 279.437 233.777 279.472 233.747H279.495C279.539 233.708 279.579 233.664 279.612 233.615L279.634 233.572C279.656 233.537 279.675 233.499 279.689 233.459C279.689 233.44 279.689 233.417 279.689 233.397C279.698 233.37 279.704 233.342 279.709 233.313C279.709 233.313 279.709 233.29 279.709 233.281C279.709 233.271 279.709 233.281 279.709 233.258L280.273 211.976L280.841 190.523L281.412 168.891L281.986 147.078L282.567 125.083L283.151 102.907L283.741 80.5425L284.335 57.9903L284.351 57.9482ZM195.39 274.706L192.688 266.788L207.746 259.24L211.314 266.668L195.39 274.706ZM20.6247 50.6101L37.1687 43.9073L42.0994 47.5634L26.4313 53.942L25.6398 53.4883L20.6247 50.6101ZM55.1107 36.647L59.1688 40.6175L43.5754 46.9637L41.629 45.5084L38.6641 43.3109L55.1107 36.647ZM90.3103 22.3857L90.5276 22.8071L92.6816 26.9591L86.1224 29.6298L77.3152 33.2146L74.7947 29.8502L74.1135 28.9395L90.3103 22.3857ZM142.849 1.6745L158.419 7.97863L158.095 10.1826L157.654 13.1224L142.849 7.09702V1.6745ZM159.717 8.49722L175.515 14.9115L173.958 19.7733L158.935 13.6475L159.717 8.49722ZM245.703 43.3109L242.738 45.5084L240.776 46.9637L225.185 40.6175L229.243 36.647L245.703 43.3109ZM263.729 50.6101L258.753 53.4526L257.903 53.9388L242.235 47.5601L247.166 43.9041L263.729 50.6101ZM282.424 80.0013L275.407 82.0043L275.901 62.152L282.988 59.0015L282.424 80.0013ZM280.105 167.922L279.216 167.614L273.325 165.575L273.805 146.319L280.643 147.616L280.105 167.922ZM279.495 190.909L278.976 210.712L272.313 206.298L272.78 187.499L272.958 187.59L279.495 190.909ZM255.746 233.692L254.218 232.159L249.677 227.622L251.299 226.821L263.042 220.987L269.893 226.581L261.624 230.727L255.746 233.692ZM28.6015 233.692L22.7073 230.727L14.4548 226.581L21.3189 220.948L33.0619 226.782L34.6838 227.583L29.9607 232.315L28.6015 233.692ZM11.4088 187.619L11.584 187.528L12.0511 206.327L5.37839 210.712L4.86586 190.909L11.4088 187.619ZM3.71427 147.603L10.5524 146.306L11.0293 165.572L5.13834 167.611L4.24951 167.919L3.71427 147.603ZM1.37542 59.008L8.46335 62.1585L8.95642 82.0043L1.94634 79.998L1.37542 59.008ZM221.448 244.874L219.891 242.414L233.619 235.585L238.884 242.119L224.329 249.415L221.448 244.874ZM60.0122 249.422L45.4666 242.119L50.7314 235.579L64.4596 242.408L62.9026 244.868L60.0122 249.422ZM204.249 39.1946L207.493 34.8708L222.772 41.0907L218.672 45.1001L217.183 44.4907L204.249 39.1946ZM273.513 103.348L266.493 104.249L266.921 85.8419L274 83.8129L273.513 103.348ZM272.997 124.114L271.599 124.072L266.033 123.907L266.458 105.613L273.477 104.712L272.997 124.114ZM190.255 259.664L189.525 257.522L191.017 256.779L203.574 250.547L207.165 258.037L192.243 265.514L190.255 259.664ZM13.4103 207.008L20.1446 202.544L20.5469 219.836L17.8025 222.086L13.8644 225.327L13.4103 207.008ZM11.863 144.699L11.3861 125.462L18.3475 125.255L18.7692 143.406L15.7524 143.973L11.863 144.699ZM11.3537 124.114L10.8736 104.712L17.8934 105.613L18.3183 123.907L12.7648 124.072L11.3537 124.114ZM10.3513 83.8162L17.4295 85.8451L17.8415 104.249L10.8217 103.348L10.3513 83.8162ZM203.416 40.3096L217.624 46.1275L215.885 47.8291L213.485 50.1758L202.209 45.5344L200.139 44.6819L200.788 43.8036L203.416 40.3096ZM224.131 41.6449L239.507 47.9037L234.534 51.5922L220.034 45.6543L223.68 42.089L224.131 41.6449ZM240.967 48.5001L256.414 54.788L250.54 58.1459L235.991 52.1853L239.961 49.2423L240.967 48.5001ZM271.979 165.109L265.131 162.736L265.549 144.764L268.793 145.376L272.443 146.063L271.979 165.109ZM271.476 185.347L264.703 181.921L265.115 164.152L271.959 166.525L271.476 185.347ZM138.969 277.98L127.226 272.146L128.16 263.096L141.499 269.67V279.231L138.969 277.98ZM82.4211 247.104L84.9903 241.763L89.0127 243.75L98.0178 248.197L95.2735 256.235L81.3604 249.315L82.4211 247.104ZM12.4047 166.525L19.2493 164.156L19.6645 181.924L12.8718 185.347L12.4047 166.525ZM97.5864 33.4933L111.555 27.7726L113.157 32.7641L104.09 36.4979L100.013 38.1769L97.9237 34.1481L97.5864 33.4933ZM127.897 21.0698L141.499 15.5112V21.0925L139.991 21.7148L128.689 26.3659L128.319 23.9026L127.897 21.0698ZM157.741 21.5981L171.544 27.2605L169.942 32.2487L163.574 29.6266L156.947 26.904L157.32 24.4212L157.741 21.5981ZM114.834 33.5355L127.618 28.2718L128.163 31.9116L128.423 33.6327L122.003 36.2905L116.456 38.5723L115.931 36.9355L114.834 33.5355ZM262.967 123.816L257.663 123.657L258.033 106.696L265.111 105.788L264.69 123.868L262.967 123.816ZM262.915 200.075L256.103 195.563L256.457 179.282L257.787 179.953L263.301 182.744L262.915 200.075ZM19.6645 123.864L19.2428 105.785L26.321 106.693L26.6876 123.625V123.654L21.3676 123.813L19.6645 123.864ZM168.683 36.1446L167.898 38.5853L162.276 36.2581L155.931 33.6295L156.162 32.1029L156.736 28.2685L169.52 33.5322L168.683 36.1446ZM170.772 34.0508L183.706 39.3761L181.908 42.8377L181.26 44.1115L180.893 43.9592L169.16 39.0974L169.484 38.0764L170.772 34.0508ZM233.185 211.085L228.046 205.941L229.175 205.393L238.528 200.856L245.628 206.69L234.314 212.236L233.185 211.085ZM91.8155 227.492L93.4731 224.034L100.113 227.275L104.428 229.375L101.641 237.536L89.788 231.725L91.8155 227.492ZM88.5716 231.122L86.5279 230.127L76.8448 225.382L80.7375 219.224L81.3863 218.19L92.2469 223.473L90.2649 227.609L88.5716 231.122ZM50.0275 212.219L38.7128 206.674L45.8137 200.84L56.1033 205.844L56.2947 205.938L51.5781 210.651L50.0275 212.219ZM20.9978 181.247L20.5891 163.682L21.4617 163.381L27.5051 161.29L27.8295 175.905L27.8684 177.782L21.2703 181.11L20.9978 181.247ZM26.8822 70.336L34.1226 73.5545L34.447 89.297L27.2488 87.2518L26.8822 70.336ZM228.436 57.7893L241.651 63.2313L235.676 66.6475L225.776 62.5571L223.369 61.5621L228.432 57.8088L228.436 57.7893ZM257.102 87.2518L249.91 89.3132L250.235 73.5707L257.469 70.336L257.102 87.2518ZM254.773 194.675L253.836 194.056L247.886 190.114L248.188 175.108L255.12 178.592L255.097 179.649L254.773 194.675ZM207.506 225.366L195.766 231.122L192.088 223.444L202.948 218.161L203.597 219.194L207.506 225.366ZM129.396 251.127L129.51 250.012L130.34 241.97L131.832 242.696L141.499 247.399V257.061L129.396 251.127ZM129.902 34.4722L141.499 29.6687V35.4089L138.119 36.8156L130.713 39.9012L130.288 37.0684L129.902 34.4722ZM256.706 105.506L249.57 106.424L249.894 90.7264L257.083 88.665L256.706 105.506ZM256.314 123.615L249.226 123.404L249.55 107.785L256.687 106.871L256.314 123.615ZM256.268 125.602L255.921 141.584L248.885 140.262L249.015 133.744L249.197 124.749L256.268 124.963V125.602ZM255.153 177.111L248.217 173.614L248.522 158.416L255.506 160.833L255.153 177.111ZM225.172 203.04L220.718 198.59L227.336 195.394L230.21 194.007L237.392 199.903L227.051 204.933L225.172 203.04ZM164.343 235.439L155.153 239.909L154.608 234.665L154.199 230.71L164.219 225.871L165.884 233.55L166.107 234.587L164.343 235.439ZM71.061 210.323L75.7841 204.454L85.0552 208.93L85.5126 209.15L85.3633 209.387L80.9127 216.417L70.3084 211.257L71.061 210.323ZM57.3003 204.93L46.9588 199.9L54.1408 194.004L56.9824 195.375L63.6324 198.587L59.1785 203.05L57.3003 204.93ZM28.0663 124.963L35.1509 124.752L35.3358 133.977L35.4624 140.262L28.4263 141.584L28.0792 125.602L28.0663 124.963ZM27.6737 106.868L34.8103 107.782L35.1347 123.401L28.0468 123.612L27.6737 106.868ZM27.2812 88.665L34.4697 90.7264L34.7941 106.424L27.6575 105.506L27.2812 88.665ZM219.71 197.569L217.647 195.505L213.309 191.161L217.708 189.055L221.795 187.11L221.909 187.204L229.046 193.074L227.115 194.004L219.71 197.569ZM202.219 217.016L191.514 222.228L187.803 214.488L193.317 211.831L197.635 209.746L198.932 211.805L202.219 217.016ZM64.6413 197.569L55.9476 193.372L55.2988 193.048L62.0559 187.502L62.5619 187.084L66.779 189.103L71.0545 191.152L66.7174 195.495L64.6413 197.569ZM28.8448 160.833L35.8289 158.416L36.1339 173.614L29.1951 177.111L28.8448 160.833ZM130.924 41.2754L141.502 36.8707V42.7048L131.748 46.792L131.258 43.5151L130.924 41.2754ZM215.716 67.205L225.539 71.3084L226.687 71.7881L220.605 75.2626L210.549 71.0491L212.171 69.8531L215.716 67.205ZM72.0536 190.157L67.6711 188.056L63.707 186.157L71.0415 180.128L72.8321 180.981L78.509 183.681L74.1621 188.034L72.0536 190.157ZM248.214 106.595L241.016 107.519L241.282 93.1897L248.525 91.1153L248.214 106.595ZM247.542 140.022L240.438 138.686V137.892L240.698 124.496L247.834 124.71L247.542 140.022ZM246.894 172.952L239.883 169.416L240.14 155.518L241.168 155.874L247.195 157.962L246.894 172.952ZM176.176 218.433L173.4 210.297L182.246 206.058L185.989 213.869L176.225 218.582L176.176 218.433ZM36.5004 124.71L43.637 124.496L43.8608 136.602L43.8998 138.673L36.7956 140.009L36.5004 124.71ZM53.0605 94.645L53.0119 91.8284L52.8432 81.8909L60.2425 85.1807L60.4177 96.7518L57.1738 95.8248L53.0605 94.645ZM238.534 168.732L236.111 167.51L231.453 165.16L231.663 152.581L233.12 153.084L238.787 155.048L238.576 166.512L238.534 168.732ZM44.714 109.055L51.9706 109.986L52.1879 122.892L44.9735 123.106L44.8048 113.985L44.714 109.055ZM213.073 81.1162L221.727 84.7626L214.591 87.9292L206.867 84.6556L210.27 82.7109L213.073 81.1162ZM221.234 184.899L214.068 179.017V177.944L214.185 169.413L219.051 172.654L221.38 174.197L221.348 177.62L221.234 184.899ZM179.742 205.753L172.965 208.994L172.118 206.518L170.114 200.648L177.899 196.953L181.659 204.846L179.742 205.753ZM63.0031 177.62L62.9512 174.19L65.2803 172.648L70.1462 169.406L70.263 177.944V179.017L63.0972 184.899L63.0031 177.62ZM52.6648 151.165L45.5282 153.632L45.2719 139.792L52.441 138.443L52.5642 145.736L52.6648 151.165ZM133 55.1024L141.499 51.5371V57.5268L137.168 59.3613L133.84 60.7712L133.324 57.2286L133 55.1024ZM238.813 153.635L231.676 151.168L231.767 145.827L231.891 138.45L238.378 139.668L239.063 139.798L238.826 152.598L238.813 153.635ZM54.0045 150.718L53.8683 142.615L53.7937 138.19L61.0308 136.829L61.1541 145.016L61.2027 148.206L54.5917 150.494L54.0045 150.718ZM100.561 76.3322L105.725 74.1444L105.79 84.0884L98.073 87.388L97.9659 77.4245L100.561 76.3322ZM230.343 150.695L229.753 150.491L223.145 148.203L223.194 145.013L223.317 136.826L230.554 138.187L230.479 142.676L230.343 150.695ZM142.174 212.437L134.658 208.871L142.174 205.306L149.69 208.871L143.99 211.581L142.174 212.437ZM70.5419 99.1535L70.4154 89.9842V89.109L78.3176 85.7609L78.3825 91.2353L78.4376 95.7729L77.8115 96.042L70.5419 99.1535ZM136.098 199.66L142.174 196.808L149.635 200.308L142.174 203.828L134.713 200.308L136.098 199.66ZM215.136 100.68L222.551 98.5539L222.435 106.265L222.379 109.908L214.999 110.854L215.136 100.68ZM221.624 160.195L214.377 156.552L214.513 146.647L221.783 149.162L221.76 150.543L221.624 160.195ZM115.233 191.093L107.947 187.667L115.386 184.235L115.999 184.523L122.671 187.658L122.023 187.959L115.233 191.093ZM106.569 178.592L99.3997 175.224L101.229 174.391L106.773 171.863L113.942 175.211L107.753 178.051L106.569 178.592ZM98.073 88.8497L105.787 85.5502L105.839 93.005V95.4456L98.1411 98.7678L98.0957 93.274L98.073 88.8497ZM109.612 83.9166L114.802 81.6997L114.834 91.5659L107.48 94.739L107.192 94.8654L107.14 87.3717V84.9765L109.612 83.9166ZM134.002 73.4865L141.502 70.2777V80.0596L138.239 81.4663L134.022 83.2878V79.7647L134.002 73.4865ZM186.229 93.2578L186.2 98.7646L178.502 95.4423L178.519 92.8785L178.567 85.5502L186.284 88.8497L186.229 93.2578ZM222.175 122.584L214.831 122.364L214.948 113.92L214.97 112.206L222.35 111.259L222.175 122.584ZM216.012 145.72L214.536 145.208L214.672 135.186L221.977 136.56L221.808 147.723L216.012 145.72ZM150.339 80.8505V83.3008L145.963 81.4144L142.855 80.0726V70.2842L150.355 73.4929L150.339 80.8505ZM124.267 186.902L116.988 183.483L124.371 180.076L131.651 183.476L131.368 183.609L124.267 186.902ZM71.0675 137.717L71.0415 134.836L78.8626 131.403L78.9793 141.224L71.1745 144.676L71.0675 137.717ZM134.019 84.7626L141.499 81.5214V91.245L134.038 94.4862V91.3487L134.019 84.7626ZM158.085 179.474L151.104 182.734L143.997 179.435L143.776 179.334L144.772 178.874L151.052 175.957L158.38 179.337L158.085 179.474ZM125.971 179.337L133.295 175.957L138.842 178.53L140.571 179.334L140.351 179.435L133.243 182.734L127.91 180.245L125.971 179.337ZM70.8955 125.148L70.8728 123.469L78.7133 120.056L78.8301 129.925L71.0058 133.358L70.8955 125.148ZM150.319 91.3844V94.5218L142.858 91.2806V81.557L150.339 84.7982L150.319 91.3844ZM213.342 133.361L205.518 129.929V129.883L205.634 120.059L213.475 123.472L213.452 125.151L213.342 133.361ZM107.286 107.629L114.909 104.313L114.957 114.079L107.351 117.418L107.312 111.451L107.286 107.629ZM105.988 114.274L106.014 118.004L99.4743 120.873L98.3552 121.365L98.2741 111.551L105.949 108.213L105.988 114.274ZM132.702 99.4582V106.291L125.215 109.584L125.182 99.8601L132.676 96.5897L132.702 99.4582ZM134.045 95.9901L141.506 92.7489V102.424L137.775 104.044L134.058 105.665V102.975L134.045 95.9901ZM150.31 102.972V105.701L146.251 103.921L142.849 102.424V92.7457L150.31 95.9869V102.972ZM158.163 163.005L150.997 166.308L146.761 164.363L143.789 163.002L150.945 159.719L153.028 160.668L158.163 163.005ZM130.943 160.843L133.412 159.719L140.558 163.002L138.531 163.932L133.341 166.308L126.188 163.005L130.943 160.843ZM116.255 103.72L123.823 100.427L123.856 110.167L116.304 113.48L116.255 103.72ZM151.662 96.5897L159.178 99.8601L159.146 109.584L151.646 106.294V99.4614L151.662 96.5897ZM177.039 111.464L177 117.431L169.393 114.092L169.442 104.326L177.065 107.642L177.039 111.464ZM149.327 158.98L147.572 159.783L142.174 162.26L136.779 159.793L135.024 158.989L139.806 156.808L142.174 155.729L144.545 156.808L149.327 158.98ZM107.373 118.886L114.964 115.551L115.013 125.274L107.425 128.629L107.373 123.09V118.886ZM150.293 114.591V116.834L142.865 113.548V103.908L150.326 107.175L150.293 114.591ZM168.106 104.07L168.034 113.489L160.482 110.177L160.515 100.437L168.096 103.72L168.106 104.07ZM125.351 153.933L125.319 144.391L129.808 142.372L132.76 141.043V141.727V150.565L125.351 153.933ZM151.627 107.765L159.123 111.055L159.091 120.74L151.627 117.431V110.2V107.765ZM176.961 122.843L176.923 128.622L169.332 125.268L169.38 115.544L176.984 118.879L176.961 122.843ZM134.074 118.306L141.499 115.019V124.61L134.087 127.916V124.234L134.074 118.306ZM150.264 124.992V127.909L142.852 124.603V115.022L150.277 118.306L150.264 124.992ZM167.989 124.668L160.453 121.336L160.486 111.645L168.034 114.958L167.989 124.668ZM134.122 149.603V140.437L138.57 138.437L141.512 137.114V146.611L134.139 149.953L134.122 149.603ZM151.623 118.902L159.104 122.211L159.071 131.851L152.82 129.063L151.607 128.522V121.962L151.623 118.902ZM147.53 128.178L150.258 129.397V137.879V138.959L150.196 138.929L142.865 135.633V126.085L147.53 128.178ZM141.499 135.633L135.248 138.443L134.106 138.955V137.876V129.394L136.896 128.149L141.499 126.085V135.633ZM142.849 146.608V137.105L145.509 138.301L150.238 140.427V149.593V149.943L142.849 146.608ZM151.607 131.345V129.993L159.068 133.322L159.036 142.913L151.591 139.568L151.607 131.345ZM132.734 122.668V128.519L131.417 129.105L125.27 131.847L125.237 122.208L132.718 118.899L132.734 122.668ZM132.734 129.993V131.345V139.565L125.289 142.913L125.257 133.322L132.734 129.993ZM123.885 121.333L116.359 124.671L116.31 114.948L123.862 111.635L123.885 121.333ZM116.417 135.808L116.369 126.146L116.755 125.978L123.891 122.814L123.924 132.457L116.485 135.776L116.417 135.808ZM135.083 151.006L142.174 147.791L149.265 151.006L142.174 154.247L140.227 153.359L135.083 151.006ZM151.571 150.569V141.73V141.046L154.523 142.375L159.013 144.394L158.98 153.936L151.571 150.569ZM160.418 132.454L160.45 122.811L167.587 125.974L167.969 126.143V126.467L167.934 135.808L167.856 135.773L160.418 132.454ZM107.435 130.094L115.022 126.733L115.071 136.401L107.503 139.779L107.471 134.781L107.435 130.094ZM167.879 146.893L160.382 143.522L160.414 133.928L167.927 137.28V138.466L167.879 146.893ZM169.283 135.753L169.332 126.733L170.305 127.157L176.929 130.075L176.893 135.322L176.864 139.762L169.296 136.385L169.283 135.753ZM185.992 122.843L185.911 132.606L178.272 129.225L178.298 125.391L178.337 119.482L181.026 120.662L185.992 122.843ZM141.499 103.908V113.551L134.071 116.837V116.555V107.179L134.444 107.017L141.499 103.908ZM132.705 107.765V108.436V117.431L125.224 120.74L125.192 111.055L132.423 107.882L132.705 107.765ZM106.014 119.476L106.053 125.197L106.079 129.219L98.4395 132.599L98.3584 122.843L103.325 120.665L106.014 119.476ZM116.456 146.893L116.414 138.466V137.28L123.927 133.928L123.959 143.522L117.546 146.407L116.456 146.893ZM123.959 144.997L123.992 154.542L116.515 157.933L116.466 148.368L117.754 147.801L123.959 144.997ZM126.292 154.98L133.214 151.842L133.438 151.742L140.536 154.983L134.541 157.719L133.389 158.244L128.144 155.839L126.292 154.98ZM142.161 163.731L149.074 166.901L149.369 167.037L142.158 170.363L134.946 167.037L142.161 163.731ZM150.919 158.221L149.768 157.696L143.773 154.96L150.871 151.719L151.231 151.881L158.017 154.957L156.165 155.806L150.919 158.221ZM160.349 144.981L166.707 147.84L167.843 148.352L167.794 157.916L160.346 154.546L160.349 144.981ZM185.976 121.349L184.854 120.857L178.314 117.988L178.34 114.257L178.415 108.216L186.09 111.554L185.976 121.349ZM96.9863 123.404L97.0674 133.173L89.3728 136.576L89.2722 126.788L96.7592 123.505L96.9863 123.404ZM97.1614 144.362L89.5155 147.801L89.415 138.077L97.1063 134.674L97.1614 144.362ZM98.4233 134.048L106.076 130.687L106.111 135.873L106.141 140.385L98.5174 143.785L98.4233 134.048ZM107.484 141.234L114.296 138.2L115.061 137.857L115.103 146.099V147.477L107.555 150.87L107.545 146.504L107.484 141.234ZM176.747 150.873L169.199 147.48V146.102L169.241 137.86L169.475 137.964L176.806 141.234L176.793 146.504L176.747 150.873ZM178.201 135.432L178.233 130.668L185.872 134.048L185.791 143.772L178.168 140.372L178.201 135.432ZM187.173 144.381L187.254 134.658L194.946 138.061L194.835 147.801L187.173 144.381ZM195.062 126.807L194.962 136.596L187.267 133.193L187.348 123.424L187.576 123.524L195.062 126.807ZM177.088 106.161L173.059 104.407L169.462 102.842L169.51 93.0244L177.153 96.3207L177.088 106.161ZM168.115 102.272L160.544 98.9785L160.577 89.1901L168.164 92.4637L168.115 102.272ZM96.9927 121.959L94.2808 123.168L89.2885 125.359L89.1879 115.518L96.9181 112.147L96.9571 116.86L96.9927 121.959ZM80.1828 130.804L87.9487 127.397L88.0493 137.192L80.2996 140.621L80.1828 130.804ZM97.2004 145.856L97.2814 155.524L89.6258 158.967L89.5285 149.275L97.2004 145.856ZM124.676 155.722L131.78 158.98L124.566 162.26L117.478 158.983L124.676 155.722ZM138.096 173.73L142.177 171.847L149.447 175.202L142.174 178.592L134.904 175.218L138.096 173.73ZM152.571 158.96L159.675 155.703L166.876 158.967L159.775 162.243L152.571 158.96ZM187.151 145.856L194.822 149.279L194.725 158.97L187.069 155.528L187.151 145.856ZM196.396 127.401L204.162 130.807L204.042 140.621L196.292 137.192L196.396 127.401ZM204.181 129.345L196.412 125.939L196.512 116.095L204.298 119.482L204.181 129.345ZM195.17 115.509L195.069 125.349L190.07 123.168L187.348 121.975L187.391 116.821L187.43 112.154L192.227 114.241L195.17 115.509ZM159.221 88.6066L159.188 98.3918L151.669 95.1215V88.6391V85.3622L153.735 86.2535L159.221 88.6066ZM123.823 98.9785L116.249 102.262L116.2 92.4507L123.787 89.1771L123.823 98.9785ZM87.9422 125.932L80.1569 129.339L80.0401 119.473L87.8255 116.086L87.8871 122.263L87.9422 125.932ZM98.6147 154.931L98.5336 145.266L103.627 142.997L106.154 141.869L106.186 146.572L106.218 151.512L102.618 153.132L98.6147 154.931ZM107.636 161.971L107.63 158.821L107.587 152.367L115.133 148.974L115.178 157.874V158.545L114.393 158.902L107.636 161.971ZM124.563 163.757L131.725 167.063L124.465 170.392L117.306 167.07L123.761 164.123L124.563 163.757ZM133.321 167.805L140.536 171.134L133.269 174.485L126.084 171.137L133.321 167.805ZM142.148 180.093L149.479 183.496L142.148 186.919L134.817 183.496L142.148 180.093ZM151.078 184.238L158.465 187.667L151.166 191.093L143.77 187.645L151.078 184.238ZM150.975 167.809L158.241 171.14L151.026 174.489L143.76 171.137L150.975 167.809ZM167.009 167.073L159.847 170.395L152.587 167.066L159.746 163.76L160.395 164.065L167.009 167.073ZM169.144 158.561L169.192 148.99L176.738 152.384L176.721 158.821L176.699 161.958L169.955 158.902L169.144 158.561ZM178.094 151.515L178.126 146.575L178.158 141.872L180.685 143L185.778 145.269L185.723 154.931L181.724 153.132L178.094 151.515ZM205.475 131.42L213.322 134.836L213.283 137.727L213.189 144.679L205.385 141.227L205.475 131.42ZM186.155 100.252L186.109 105.639L186.07 110.115L178.415 106.748L178.48 96.9041L182.658 98.7062L186.155 100.252ZM132.676 85.346V88.6228V95.1052L125.156 98.3756L125.124 88.5904L130.593 86.2309L132.676 85.346ZM114.909 102.848L111.311 104.414L107.282 106.167L107.218 96.3304L114.854 93.0244L114.909 102.848ZM105.865 96.9138L105.93 106.757L98.2514 110.099L98.2124 105.623L98.167 100.236L101.583 98.7613L105.865 96.9138ZM80.3256 142.096L88.072 138.66L88.1726 148.403L80.4488 151.852L80.3385 142.692L80.3256 142.096ZM97.2944 157.006L97.3755 166.626L89.7394 170.087L89.6421 160.448L97.2944 157.006ZM98.7185 166.016L98.6374 156.4L104.003 153.988L106.238 152.983L106.261 156.591L106.3 162.577L104.107 163.572L98.7185 166.016ZM115.853 159.728L122.96 163.005L115.707 166.308L108.599 163.008L115.853 159.728ZM133.243 184.232L140.578 187.654L133.195 191.093L125.863 187.651L133.243 184.232ZM152.707 183.486L157.2 181.389L159.986 180.093L167.369 183.499L160.09 186.919L152.707 183.486ZM175.969 171.137L168.803 174.482L161.488 171.128L168.654 167.802L173.225 169.886L175.969 171.137ZM161.394 163.008L168.501 159.731L175.758 163.021L168.644 166.308L161.394 163.008ZM178.051 162.577L178.09 156.591L178.113 152.983L180.348 153.988L185.714 156.4L185.632 166.016L180.241 163.572L178.051 162.577ZM187.06 157.006L194.709 160.441L194.612 170.081L186.975 166.619L187.06 157.006ZM196.282 138.67L204.042 142.086V142.692L203.935 151.852L196.204 148.403L196.282 138.67ZM214.772 126.649L214.811 123.731L222.152 123.952L221.98 135.212L214.672 133.838L214.772 126.649ZM213.621 112.063V113.139L213.501 122.007L205.664 118.597V117.56L205.767 108.676L210.335 110.647L213.621 112.063ZM195.283 104.148L195.238 108.712L195.186 114.037L187.452 110.673L187.501 104.942L187.537 100.807L192.029 102.751L195.283 104.148ZM177.15 94.8622L169.504 91.5659L169.552 81.6997L177.214 84.9765L177.198 87.4268L177.15 94.8622ZM168.209 81.1227L168.161 90.9857L160.573 87.7088L160.606 77.8686L168.135 81.0871L168.209 81.1227ZM159.253 77.2949L159.221 87.1287L151.682 83.8875V76.7147V74.0634L154.776 75.3858L159.253 77.2949ZM96.8241 100.803L96.8597 104.939L96.9084 110.669L89.1749 114.034L89.1198 108.42L89.0776 104.142L92.3215 102.735L96.8241 100.803ZM78.5803 108.673L78.6777 116.854L78.6971 118.594L70.8534 122.007L70.7171 113.143V112.066L74.0129 110.647L78.5803 108.673ZM69.5266 123.722L69.5655 126.639L69.6628 133.831L62.3543 135.205L62.1856 123.945L69.5266 123.722ZM115.7 167.802L122.866 171.128L115.551 174.482L108.385 171.137L112.203 169.397L115.7 167.802ZM142.174 188.4L149.567 191.852L142.174 195.323L134.784 191.842L142.174 188.4ZM159.474 188.685L160.087 188.397L163.72 190.082L167.531 191.852L160.19 195.32L152.746 191.845L159.474 188.685ZM204.428 108.096L204.405 109.982L204.311 118.014L196.525 114.627L196.574 109.713L196.623 104.732L198.329 105.467L204.428 108.096ZM195.345 97.6755L195.283 102.686L188.938 99.9508L187.527 99.3415L187.563 95.0437L187.611 89.4234L195.397 92.7457L195.345 97.6755ZM132.653 74.0634V77.6968V83.8777L125.114 87.1189L125.082 77.2851L130.463 74.9839L132.653 74.0634ZM123.752 77.8686L123.784 87.7088L116.193 90.9824L116.132 81.1227L116.21 81.0903L123.752 77.8686ZM96.7786 95.0469L96.8143 99.3447L95.4032 99.9541L89.0582 102.69L89.0062 97.6788L88.9576 92.7489L96.743 89.4267L96.7786 95.0469ZM87.7314 104.732L87.7865 110.138L87.832 114.627L80.0466 118.014L79.9298 108.099L86.0283 105.467L87.7314 104.732ZM71.2361 150.264L71.181 146.135L78.9826 142.683L79.0831 151.275V152.452L71.2978 155.926L71.2361 150.264ZM80.4488 153.311L88.1758 149.865L88.2731 159.56L80.5721 163.034L80.4488 153.881V153.311ZM80.5818 164.499L88.2893 161.031L88.3867 170.677L80.6954 174.165L80.6208 167.847L80.5818 164.499ZM99.6592 167.05L106.971 163.734L109.219 164.778L114.085 167.047L113.313 167.4L106.776 170.382L104.957 169.533L99.6592 167.05ZM117.144 175.211L124.465 171.854L131.703 175.215L124.371 178.592L119.291 176.219L117.144 175.211ZM124.255 188.38L124.868 188.669L131.595 191.829L124.154 195.304L116.813 191.836L120.625 190.066L124.255 188.38ZM169.108 191.084L162.318 187.933L161.67 187.632L168.342 184.497L168.956 184.209L176.4 187.667L169.108 191.084ZM159.98 178.592L152.658 175.215L159.879 171.863L167.201 175.221L165.063 176.219L159.98 178.592ZM184.958 175.224L177.766 178.592L176.585 178.051L170.396 175.211L177.565 171.863L181.973 173.873L184.958 175.224ZM177.578 170.363L170.266 167.031L175.216 164.733L177.377 163.731L184.688 167.047L179.388 169.517L177.578 170.363ZM196.068 161.028L203.776 164.496L203.717 167.857L203.643 174.174L195.951 170.687L196.068 161.028ZM203.792 163.025L196.081 159.556L196.178 149.862L203.892 153.311V153.868L203.792 163.025ZM205.281 151.262L205.381 142.67L213.167 146.122L213.125 150.264L213.047 155.926L205.261 152.452L205.281 151.262ZM223.528 123.971L230.804 124.188L230.59 136.806L223.353 135.445L223.528 123.971ZM213.796 100.599L213.66 110.592L205.797 107.198L205.839 103.792L205.907 97.238L207.646 97.9802L213.796 100.599ZM177.227 83.5115L169.562 80.2346V78.9576L169.604 70.3166L177.286 73.5578L177.227 83.5115ZM168.216 79.6577L160.606 76.4165L160.638 66.5276L168.265 69.7688L168.216 79.6577ZM159.259 75.8266L151.704 72.5854V64.3463V62.7257L159.276 65.9345L159.259 75.8266ZM78.4441 97.238L78.5187 103.649L78.5609 107.214L70.6977 110.608L70.5614 100.615L76.9357 97.8894L78.4441 97.238ZM61.991 111.272L69.3709 112.219L69.3936 113.933L69.5071 122.377L62.1629 122.597L62.017 113.052L61.991 111.272ZM60.8362 123.984L61.0114 135.458L53.7742 136.819L53.5601 124.201L60.8362 123.984ZM62.377 136.573L69.6823 135.199L69.8186 145.221L68.3426 145.733L62.5457 147.739L62.4938 144.297L62.377 136.573ZM62.5684 149.155L69.838 146.64L69.9743 156.545L62.7371 160.195L62.5911 150.536L62.5684 149.155ZM90.6833 171.131L98.0503 167.792L104.862 170.965L105.187 171.115L97.8199 174.472L94.0732 172.716L90.6833 171.131ZM108.168 179.341L115.545 175.957L117.767 176.994L122.769 179.331L115.392 182.734L109.07 179.765L108.168 179.341ZM143.763 196.056L151.143 192.591L158.604 196.069L151.208 199.563L143.763 196.056ZM168.959 182.734L161.582 179.331L166.584 176.994L168.806 175.957L176.183 179.341L175.281 179.765L168.959 182.734ZM186.55 174.472L179.586 171.296L179.184 171.111L179.508 170.962L186.32 167.789L193.661 171.137L192.111 171.867L186.55 174.472ZM206.312 95.9415L205.91 95.7697L205.972 90.6324L206.03 85.7479L213.932 89.0961V89.9712L213.809 99.1405L206.312 95.9415ZM204.548 96.6545L204.509 99.8957L204.444 106.637L196.636 103.267L196.688 98.0256L196.736 93.3226L202.001 95.5752L204.548 96.6545ZM195.436 87.1481L195.393 91.2741H195.358L187.621 87.9649L187.705 77.995L195.491 81.2977L195.436 87.1481ZM150.345 62.1488V70.7282V72.0247L142.842 68.8159V58.9918L146.021 60.3402L150.345 62.1488ZM132.611 64.3463V72.5854L125.053 75.8266L125.02 65.941L132.591 62.7322L132.611 64.3463ZM123.719 76.3906L116.109 79.6318L116.06 69.7202L123.687 66.479L123.719 76.3906ZM114.763 80.2217L107.098 83.4985L107.049 73.5772L114.73 70.336L114.773 78.977L114.763 80.2217ZM88.9543 91.2417H88.9187L88.8765 87.1157L88.8181 81.2491L96.6035 77.9464L96.6878 87.9163L88.9543 91.2417ZM87.5887 93.2934L87.6373 97.9964L87.6892 103.237L79.9071 106.637L79.8292 99.9606L79.8 96.6675L83.6927 95.0048L87.5887 93.2934ZM69.3255 110.828L61.9586 109.911L61.9002 106.135L61.7866 98.5571L69.2022 100.683L69.3255 110.828ZM62.7598 161.696L69.9937 158.046L70.1267 167.812L62.9317 172.583L62.7598 161.696ZM71.4665 167.134L71.4081 162.781L71.3335 157.391L77.2958 154.73L79.1156 153.917L79.2129 161.984L79.2324 163.637L77.2309 164.538L71.4665 167.134ZM89.0711 171.863L95.1015 174.696L96.1915 175.208L88.7662 178.592L81.6491 175.228L89.0711 171.863ZM106.562 180.076L111.597 182.439L113.793 183.47L106.361 186.899L99.1305 183.486L105.943 180.365L106.562 180.076ZM133.191 192.581L140.588 196.056L133.127 199.553L125.73 196.059L133.191 192.581ZM151.263 208.116L143.754 204.567L151.215 201.044L158.724 204.57L151.263 208.116ZM169.277 199.553L161.777 196.052L169.121 192.581L176.621 196.062L171.333 198.577L169.277 199.553ZM170.707 191.832L177.996 188.39L185.493 191.848L178.204 195.313L170.707 191.832ZM170.555 183.47L172.751 182.439L177.785 180.076L178.415 180.365L185.227 183.486L177.993 186.902L170.555 183.47ZM186.81 182.731L185.087 181.94L179.388 179.328L186.56 175.96L193.989 179.347L187.04 182.631L186.81 182.731ZM195.277 171.86L202.699 175.224L195.585 178.592L188.146 175.205L195.277 171.86ZM205.115 163.637L205.135 161.984L205.232 153.917L207.052 154.73L213.014 157.391L212.943 162.781L212.884 167.134L207.123 164.541L205.115 163.637ZM214.354 158.043L221.588 161.692L221.422 172.58L214.221 167.809L214.354 158.043ZM223.064 153.44L223.122 149.619L230.317 152.111L230.11 164.48L222.954 160.872L223.064 153.44ZM230.814 122.843L223.534 122.626L223.563 120.652L223.709 111.088L231.024 110.148L230.814 122.843ZM204.69 85.1904L204.635 89.8869L204.57 95.2122L199.361 92.9855L196.743 91.864L196.808 85.4594L196.843 81.8682L202.621 84.3185L204.69 85.1904ZM186.366 77.4116L186.281 87.375L178.564 84.0754L178.629 74.1315L183.793 76.3193L186.366 77.4116ZM177.74 72.2905L177.286 72.0992L169.87 68.9585L172.465 63.9865L181.224 67.675L179.576 69.8725L177.74 72.2905ZM159.545 64.5797L156.7 63.3739L151.786 61.2898L152.324 57.7018L152.648 55.6339L161.267 59.2673L159.545 64.5797ZM150.874 58.3079L150.507 60.7583L147.179 59.3484L142.849 57.5138V51.5371L151.354 55.1024L150.874 58.3079ZM141.499 58.9756V68.8127L133.996 72.0214V70.725V62.1455L138.336 60.3045L141.499 58.9756ZM87.4978 81.865L87.5335 85.4562L87.5854 91.8608L84.9903 92.9693L79.7514 95.209L79.6833 89.5304L79.6314 85.1904L81.6977 84.3153L87.4978 81.865ZM60.6383 111.097L60.8102 122.312V122.636L53.5244 122.843L53.3103 110.151L60.6383 111.097ZM52.4247 137.072L45.2557 138.421L44.9994 124.464L52.2106 124.25L52.4247 137.072ZM61.2838 153.444L61.3974 160.872L54.2381 164.483L54.1927 161.845L54.0272 152.121L61.2222 149.629L61.2838 153.444ZM71.4859 168.603L72.4786 168.155L79.2486 165.112L79.3232 171.465L79.3621 174.784L71.6157 178.294L71.5735 175.169L71.4859 168.603ZM90.3622 179.344L97.7907 175.957L104.963 179.325L99.257 181.943L97.5345 182.734L97.3171 182.627L90.3622 179.344ZM104.272 187.408L104.762 187.638L97.2717 191.093L90.0378 187.667L97.528 184.232L104.272 187.408ZM106.351 188.38L113.64 191.823L106.144 195.3L98.8547 191.848L106.351 188.38ZM107.727 196.056L115.227 192.575L122.571 196.046L115.071 199.546L113.014 198.574L107.727 196.056ZM140.597 204.56L133.084 208.119L125.623 204.573L133.133 201.047L140.597 204.56ZM205.015 171.461L205.089 165.109L211.859 168.152L212.849 168.599L212.761 175.166L212.719 178.291L204.976 174.78L205.015 171.461ZM239.076 138.401L231.939 137.072L232.157 124.244L239.368 124.458L239.076 138.401ZM222.574 97.1472L215.155 99.2734L215.181 97.3125L215.291 89.109L222.752 85.7933L222.574 97.1472ZM205.339 83.9944L199.276 81.4242L197.541 80.6884L202.809 76.7828L211.525 80.455L205.339 83.9944ZM201.362 76.1702L196.097 80.0596L188.247 76.7341L192.607 72.4687L195.893 73.8527L201.362 76.1702ZM171.194 63.4647L168.615 68.4334L160.797 65.1177L162.503 59.8021L170.25 63.066L171.194 63.4647ZM132.546 61.2963L127.755 63.3253L124.783 64.5829L123.077 59.2706L131.703 55.6437L131.78 56.1687L132.546 61.2963ZM114.458 68.9617L107.049 72.1089L106.595 72.3002L104.609 69.6521L103.133 67.6815L111.892 63.993L114.458 68.9617ZM91.7279 72.4817L96.0877 76.7471L88.2374 80.0726L82.9693 76.1831L88.4386 73.8786L91.7279 72.4817ZM86.7971 80.6852L85.0617 81.4209L78.9988 83.9912L72.8127 80.455L81.5258 76.7828L86.7971 80.6852ZM69.1795 99.2669L61.7607 97.1407L61.5888 85.7965L69.0497 89.1123L69.16 97.3157L69.1795 99.2669ZM54.4684 178.184L54.3613 171.876L54.2608 165.98L61.4201 162.386L61.5434 170.58L61.5888 173.497L58.5655 175.5L54.4684 178.184ZM142.849 213.597L150.692 209.87L151.666 219.194L142.858 223.408L142.849 213.597ZM151.983 209.254L159.821 205.53L161.735 214.365L152.947 218.579L152.678 215.986L151.983 209.254ZM160.298 203.809L154.394 201.037L152.788 200.308L160.19 196.811L167.71 200.308L160.937 203.527L160.298 203.809ZM179.589 187.625L180.079 187.395L186.823 184.209L194.31 187.667L187.079 191.106L179.589 187.625ZM189.013 183.736L188.416 183.46L195.607 180.076L203.068 183.489L195.893 186.899L189.013 183.736ZM222.749 173.461L222.795 170.544L222.918 162.35L230.074 165.961L229.993 171.876L229.886 178.184L225.419 175.224L222.749 173.461ZM239.364 123.103L232.15 122.889L232.367 109.982L239.624 109.052L239.364 123.103ZM231.037 108.793L223.719 109.733L223.894 98.1617L231.251 96.0549V96.4179L231.037 108.793ZM189.032 74.099L186.901 76.1831L179.025 72.8447L182.032 68.8353L182.489 68.2228L191.248 71.9177L189.032 74.099ZM161.673 57.9903L157.576 56.266L152.846 54.2726L153.683 48.6945L163.36 52.7493L161.673 57.9903ZM151.919 51.3491L151.562 53.7314L144.029 50.5647L142.862 50.0721V44.1536L152.408 48.1533L151.919 51.3491ZM121.844 59.8021L123.554 65.1177L115.72 68.4367L113.141 63.4679L114.098 63.066L121.844 59.8021ZM101.859 68.2292L105.323 72.8512L97.4501 76.1702L95.3189 74.0861L93.0903 71.908L93.4666 71.7492L101.859 68.2292ZM74.0518 82.7174L77.4547 84.6621L69.7439 87.9292L62.6074 84.7626L71.2621 81.1162L74.0518 82.7174ZM60.4275 98.1747L60.6026 109.746L53.2844 108.806L53.093 97.5037L53.0703 96.0679L60.4275 98.1747ZM58.3254 177.26L61.5985 175.092L61.7639 186.018L54.6825 191.829L54.4976 179.785L58.3254 177.26ZM80.0206 175.98L87.1572 179.344L79.6768 182.754L72.5402 179.37L80.0206 175.98ZM95.9158 183.489L94.7869 184.008L88.4288 186.925L81.2533 183.515L88.737 180.102L95.9158 183.489ZM102.683 204.846L106.458 196.97L114.244 200.665L112.239 206.521L111.392 208.998L104.616 205.756L102.683 204.846ZM116.651 200.308L124.157 196.804L131.557 200.308L129.954 201.06L124.05 203.831L123.421 203.533L116.651 200.308ZM124.53 205.546L132.351 209.27L131.544 217.094L131.388 218.588L122.6 214.375L124.53 205.546ZM132.87 217.512L133.659 209.886L141.499 213.597V223.411L132.692 219.198L132.87 217.512ZM162.987 213.782L161.073 204.949L164.08 203.52L168.887 201.251L171.739 209.604L165.053 212.806L162.987 213.782ZM182.885 204.249L179.112 196.376L186.849 192.704L188.383 195.129L191.536 200.11L182.885 204.249ZM204.314 175.96L211.791 179.35L204.655 182.734L197.174 179.325L204.314 175.96ZM222.736 175.072L225.224 176.722L229.853 179.788L229.649 191.81L222.568 185.998L222.736 175.072ZM223.93 96.7615L224.105 85.1904L231.504 81.9006L231.333 92.0326L231.29 94.645L223.93 96.7615ZM208.207 72.7766L209.284 71.9793L219.129 76.1021L212.995 79.6156L204.064 75.8461L208.207 72.7766ZM202.621 75.2367L193.661 71.464L197.979 67.2504L207.847 71.3862L202.621 75.2367ZM182.041 66.5665L173.079 62.7905L175.628 57.8801L185.467 61.9997L182.041 66.5665ZM174.055 57.9871L171.833 62.2719L162.922 58.5186L164.609 53.2711L174.379 57.3712L174.055 57.9871ZM141.499 50.0591L140.085 50.6555L132.789 53.7281L132.432 51.3458L131.952 48.15L141.499 44.1504V50.0591ZM131.505 54.2726L126.775 56.266L122.678 57.9903L120.998 52.7428L130.671 48.6881L131.505 54.2726ZM102.31 66.5892L98.8839 62.0061L108.719 57.8866L111.269 62.797L102.31 66.5892ZM100.389 66.2651L101.038 67.1143L96.1461 69.1757L92.0588 70.8967L87.7444 66.6832L97.6026 62.5571L100.389 66.2651ZM90.6963 71.4672L81.7269 75.2464L76.5107 71.3797L86.3787 67.2439L90.6963 71.4672ZM43.624 123.148L36.4874 123.362L36.4453 121.281L36.1793 107.957L43.3742 108.88L43.624 123.148ZM36.8345 141.373L43.9354 140.038L44.195 154.089L42.6281 154.63L37.1395 156.529L36.8345 141.373ZM45.5639 155.041L52.2561 152.724L52.6875 152.575L52.8983 165.154L49.249 166.995L45.8137 168.729L45.7715 166.506L45.5639 155.041ZM45.8429 170.223L49.4112 168.424L52.9308 166.648L53.0573 174.168L53.1384 179.065L46.0959 183.733L45.9337 175.189L45.8429 170.223ZM83.044 195.424L88.63 188.481L96.2823 192.118L91.5981 199.52L87.7638 197.683L83.044 195.424ZM95.9742 195.129L97.5085 192.704L105.232 196.376L101.46 204.249L92.8243 200.114L95.9742 195.129ZM112.606 209.584L115.457 201.232L120.265 203.501L123.272 204.93L121.358 213.762L119.291 212.774L112.606 209.584ZM142.845 224.918L143.887 224.419L151.815 220.63L152.788 229.9L142.878 234.684L142.845 224.918ZM153.112 220.011L162.046 215.733L163.947 224.507L154.053 229.278L153.112 220.011ZM192.763 199.52L188.078 192.118H188.101L195.731 188.491L201.317 195.433L196.568 197.702L192.763 199.52ZM231.232 179.065L231.316 174.168L231.443 166.648L234.096 167.987L238.524 170.22L238.417 176.022L238.275 183.729L231.232 179.065ZM240.172 154.085L240.432 140.035L247.533 141.37L247.228 156.529L241.739 154.63L240.172 154.085ZM240.743 123.145L240.766 121.997L241.006 108.877L248.201 107.953L247.935 121.278L247.893 123.359L240.743 123.145ZM239.679 107.688L239.517 107.707L232.419 108.618L232.637 95.653L239.939 93.5624L239.679 107.688ZM214.578 80.267L220.715 76.7568L230.515 80.8602L223.45 84.0009L214.578 80.267ZM192.321 70.8903L188.315 69.2016L183.342 67.1045L186.768 62.5345L196.636 66.667L192.321 70.8903ZM121.449 58.5089L112.538 62.2622L110.293 57.9871L109.968 57.3615L119.742 53.2679L121.449 58.5089ZM80.2834 75.8461L71.3659 79.6156L65.2317 76.1086L75.0769 71.9858L76.1247 72.7637L80.2834 75.8461ZM60.9173 84.0041L53.8488 80.8699L63.6486 76.7666L69.7861 80.2768L60.9173 84.0041ZM51.9446 108.618L44.9443 107.72L44.6848 107.688L44.4253 93.5722L51.7273 95.6627L51.9446 108.618ZM37.1687 157.952L43.1926 155.865L44.2209 155.508L44.4772 169.406L37.4671 172.939L37.1687 157.952ZM53.1611 180.67L53.226 184.429L53.3687 192.902L46.3716 198.645L46.1251 185.334L53.1611 180.67ZM102.102 206.048L110.942 210.284L108.113 218.569L98.3552 213.856L102.102 206.048ZM122.324 215.736L131.258 220.014L130.285 229.278L120.41 224.51L122.324 215.736ZM132.549 220.634L140.461 224.423L141.502 224.922V234.687L131.589 229.9L132.549 220.634ZM165.18 223.904L163.279 215.133L172.177 210.871L175.005 219.162L169.968 221.593L165.18 223.904ZM187.209 213.273L183.469 205.468L192.25 201.254L195.52 206.421L196.895 208.593L194.625 209.698L187.209 213.273ZM202.549 194.83L196.967 187.891L204.535 184.293L206.676 186.439L211.009 190.779L208.012 192.215L202.549 194.83ZM212.281 190.16L210.15 188.027L205.826 183.677L211.503 180.978L213.293 180.125L220.641 186.157L217.105 187.852L212.281 190.16ZM231.096 184.429L231.161 180.67L238.2 185.334L237.953 198.645L230.953 192.902L231.096 184.429ZM198.981 66.2197L203.25 62.0418L214.231 66.6151L209.063 70.4462L198.981 66.2197ZM176.215 56.6841L176.708 55.7312L178.733 51.8418L189.648 56.3794L186.262 60.8944L176.215 56.6841ZM174.966 56.1623L164.982 51.9811L166.646 46.7952L177.48 51.307L174.966 56.1623ZM163.733 51.456L153.888 47.3235L154.264 44.8116L154.712 41.82L165.439 46.2766L163.733 51.456ZM153.093 43.4989L152.603 46.7758L142.849 42.6886V36.8545L153.437 41.2754L153.093 43.4989ZM98.0503 60.8912L96.6262 58.9918L94.6798 56.3729L105.596 51.8353L108.113 56.6971L98.0503 60.8912ZM44.5258 172.858L44.7432 184.617L37.7785 189.23L37.7493 187.709L37.4833 174.421L44.4902 170.888L44.5258 172.858ZM73.3252 190.776L77.6623 186.432L79.7968 184.293L87.3648 187.891L81.7821 194.83L76.3388 192.205L73.3252 190.776ZM76.634 203.377L82.1649 196.506L90.8618 200.674L86.2197 208.009L81.6783 205.825L76.634 203.377ZM87.4427 208.596L88.5067 206.917L92.075 201.258L100.856 205.471L97.142 213.273L89.3923 209.532L87.4427 208.596ZM108.888 220.446L118.879 225.265L116.991 233.978L106.098 228.678L108.888 220.446ZM109.326 219.149L112.155 210.858L121.053 215.12L119.155 223.891L114.536 221.661L109.326 219.149ZM165.472 225.265L175.447 220.452L178.253 228.678L167.36 233.978L165.472 225.265ZM177.422 222.069L176.67 219.859L178.415 219.007L186.56 215.072L190.271 222.815L179.459 228.075L177.422 222.069ZM198.112 208.009L193.47 200.674L202.167 196.506L207.697 203.377L202.595 205.841L198.112 208.009ZM239.773 174.806L239.845 170.901L246.851 174.434L246.618 185.985L246.553 189.226L239.588 184.614L239.773 174.806ZM248.856 141.626L255.889 142.949L255.532 159.414L248.545 156.996L248.856 141.626ZM240.211 78.0241L239.952 92.1655L239.111 92.4053L232.65 94.2561L232.679 92.6063L232.87 81.288L233.863 80.8472L240.211 78.0241ZM197.664 65.6525L187.582 61.4389L190.969 56.9207L201.93 61.4875L197.664 65.6525ZM130.081 44.8019L130.457 47.3138L120.573 51.456L118.909 46.2701L129.639 41.8135L130.081 44.8019ZM93.8299 55.2612L90.4822 50.7948L102.468 45.8326L104.957 50.6295L93.8299 55.2612ZM96.7657 61.4195L86.6836 65.633L82.4146 61.4584L93.3758 56.8915L96.7657 61.4195ZM85.3341 66.2197L75.2521 70.4333L70.0845 66.6022L81.0652 62.0288L85.3341 66.2197ZM51.4872 81.2913L51.7013 93.9643V94.2625L45.2395 92.4118L44.3993 92.172L44.1398 78.0306L50.4946 80.8569L51.4872 81.2913ZM43.0726 93.1897L43.1212 95.8021L43.3386 107.519L36.1403 106.595L35.8159 91.1153L41.6388 92.7845L43.0726 93.1897ZM35.4916 141.642L35.8159 157.012L28.8286 159.43L28.4718 142.965L35.4916 141.642ZM65.9291 198.201L70.2727 193.852L72.3326 191.787L75.1288 193.126L80.9322 195.903L75.4175 202.771L69.5331 199.932L65.9291 198.201ZM86.7355 209.743L96.5613 214.485L92.8503 222.225L82.1454 217.013L86.7355 209.743ZM97.7648 215.072L105.55 218.838L107.655 219.856L107.068 221.577L104.849 228.079L94.0732 222.818L97.7648 215.072ZM130.48 240.538L131.43 231.323L135.894 233.478L141.486 236.178V245.902L140.484 245.413L130.48 240.538ZM142.839 245.895V236.172L152.895 231.31L153.845 240.522L144.717 244.962L142.839 245.895ZM202.283 207.491L208.57 204.457L214.046 211.263L203.441 216.423L198.851 209.153L202.283 207.491ZM208.95 202.775L203.435 195.906L212.035 191.787L214.094 193.852L218.438 198.201L215.045 199.841L208.95 202.775ZM248.866 74.1768L248.541 89.7022L241.295 91.7798L241.544 78.2672V77.418L246.242 75.3275L248.866 74.1768ZM239.202 76.9999L235.31 78.7275L232.182 80.118L222.165 75.9206L228.251 72.4428L228.653 72.6113L239.202 76.9999ZM234.194 67.4967L228.166 70.9421L227.956 70.8546L216.982 66.2845L218.078 65.471L222.1 62.4891L227.764 64.826L234.194 67.4967ZM178.142 50.1077L168.475 46.0821L167.097 45.5084L168.741 40.3906L175.31 43.11L180.63 45.314L178.142 50.1077ZM154.056 37.0684L153.631 39.9012L146.17 36.7864L142.862 35.4089V29.6687L154.459 34.4722L154.056 37.0684ZM119.33 51.9779L109.346 56.159L106.828 51.2972L117.663 46.7855L119.33 51.9779ZM68.6345 67.2115L72.2028 69.8498L73.8248 71.0458L63.7687 75.2594L57.6864 71.7816L68.6345 67.2115ZM56.0936 72.4428L62.1792 75.9206L52.162 80.118L49.0349 78.7275L45.1422 76.9999L55.886 72.5238L56.0936 72.4428ZM42.7936 77.4213L42.826 79.1488L43.0596 91.7895L40.0428 90.9241L35.8257 89.7119L35.5013 74.1866L38.0964 75.3404L42.7936 77.4213ZM37.8434 190.831L44.8048 186.219L45.0546 199.738L38.1353 205.416L37.8791 192.652L37.8434 190.831ZM58.6044 205.559L63.042 201.112L64.9397 199.213L71.1031 202.188L74.5579 203.857L69.0854 210.664L65.4815 208.91L58.6044 205.559ZM105.68 229.962L113.336 233.686L116.719 235.332L114.844 243.986L102.893 238.126L105.68 229.962ZM118.26 234.584L118.484 233.547L120.148 225.868L130.168 230.707L129.756 234.665L129.214 239.919L120.024 235.439L118.26 234.584ZM171.035 233.692L178.69 229.968L181.477 238.133L169.526 243.98L167.651 235.326L171.035 233.692ZM179.913 229.372L184.264 227.255L190.871 224.04L194.553 231.722L182.7 237.533L179.913 229.372ZM215.288 210.664L209.812 203.857L213.056 202.295L219.437 199.216L221.335 201.115L225.776 205.556L218.902 208.9L215.288 210.664ZM246.229 205.423L239.309 199.744L239.559 186.225L241.298 187.379L246.537 190.828L246.501 192.649L246.229 205.423ZM247.851 73.1591L244.25 74.7603L240.896 76.2512L230.191 71.7978L229.72 71.6001L235.754 68.1515L241.885 70.6893L247.851 73.1591ZM220.644 61.8927L215.525 65.6849L204.334 61.0176L208.551 56.8818L214.51 59.3484L220.644 61.8927ZM193.865 50.8046L190.518 55.2709L179.388 50.6295L181.146 47.2457L181.879 45.8358L183.735 46.604L193.865 50.8046ZM167.493 39.8688L165.848 44.9834L154.919 40.4457L155.526 36.4072L155.733 35.0167L162.004 37.6097L167.493 39.8688ZM96.0747 47.0221L89.6485 49.6831L86.3365 45.2654L99.3867 39.8915L101.846 44.6301L96.0747 47.0221ZM89.2074 51.3296L90.5828 53.1642L92.5583 55.7992L90.5374 56.642L81.3798 60.4568L80.731 59.8086L77.1628 56.3114L80.8284 54.7945L89.2074 51.3296ZM62.2505 62.4858L67.1164 66.0836L67.3856 66.2845L56.7845 70.6926L56.1844 70.9421L50.1572 67.4967L56.5867 64.826L62.2505 62.4858ZM48.5807 68.1482L54.6111 71.5968L53.5861 72.0247L43.4521 76.2382L40.0979 74.7473L36.4972 73.1461L42.4497 70.6828L48.5807 68.1482ZM29.5779 194.678L29.2535 179.665L29.2276 178.592L36.1598 175.095L36.2701 180.631L36.4615 190.102L30.5154 194.056L29.5779 194.678ZM69.439 212.339L70.9701 213.085L80.1861 217.571L77.3509 222.047L75.6251 224.773L64.0152 219.075L64.4726 218.504L69.439 212.339ZM142.849 257.068V247.396L154.004 241.967L154.815 249.808L154.952 251.124L142.849 257.068ZM155.973 247.892L155.299 241.348L166.412 235.935L168.287 244.592L156.252 250.491L155.973 247.892ZM208.723 224.776L206.997 222.05L204.165 217.574L213.527 213.02L214.912 212.346L215.632 213.24L220.332 219.075L208.723 224.776ZM247.854 191.716L250.472 193.45L254.737 196.276L254.393 212.119L247.555 206.508L247.854 191.716ZM257.242 143.205L258.043 143.354L264.206 144.514L263.794 162.276L256.878 159.881L257.242 143.205ZM249.554 72.3942L237.253 67.299L243.231 63.8796L256.453 69.3248L249.554 72.3942ZM221.909 60.9365L215.596 58.3436L209.608 55.8641L213.793 51.7704L226.979 57.1994L221.909 60.9365ZM207.204 56.3081L203.636 59.8054L202.987 60.4536L191.812 55.7992L195.163 51.3296L204.175 55.0635L207.204 56.3081ZM194.702 49.6701L188.37 47.048L182.505 44.6171L184.964 39.8785L198.014 45.2524L194.702 49.6701ZM155.059 30.385L154.653 33.0979L144.639 28.9492L142.849 28.2005V22.551L155.454 27.737L155.059 30.385ZM141.499 28.2005L139.449 29.0497L129.695 33.0882L129.325 30.6184L128.893 27.7337L141.499 22.5478V28.2005ZM128.618 35.007L128.825 36.3974L129.432 40.436L118.5 44.9737L116.858 39.8688L122.373 37.5805L128.618 35.007ZM115.606 40.3938L117.251 45.5117L115.6 46.1988L106.192 50.111L103.704 45.3172L109.06 43.1002L115.606 40.3938ZM75.7906 56.8786L80.0077 61.0143L68.8129 65.6752L63.6941 61.883L69.8186 59.3451L75.7906 56.8786ZM60.9854 61.5491L58.5784 62.5442L48.6748 66.6475L42.6995 63.2313L55.9152 57.7893L60.9854 61.5491ZM47.1015 67.3023L34.8006 72.3974L27.8976 69.3248L41.1197 63.8796L47.1015 67.3023ZM25.922 88.276L26.2756 105.341L19.1974 104.433L18.7887 86.2179L25.922 88.276ZM27.0834 141.837L20.1122 143.133V142.738L19.7035 125.2L26.7265 124.989L27.0834 141.837ZM27.1126 143.205L27.4726 159.881L20.5566 162.276L20.1446 144.514L27.1126 143.205ZM21.0335 182.741L26.5481 179.95L27.8781 179.279L28.2317 195.56L21.4195 200.071L21.0335 182.741ZM29.9575 212.116L29.6136 196.273L33.8793 193.446L36.4972 191.712L36.7956 206.505L30.9144 211.328L29.9575 212.116ZM51.3088 212.845L57.5793 206.564L68.1998 211.73L67.5835 212.495L62.776 218.459L60.2069 217.198L51.3088 212.845ZM102.436 239.423L114.533 245.351L112.671 253.943L99.669 247.523L102.436 239.423ZM116.06 244.609L117.935 235.951L129.039 241.355L128.488 246.706L128.095 250.508L123.187 248.103L116.06 244.609ZM128.296 261.674L129.03 254.562L129.234 252.569L141.486 258.575V268.188L138.194 266.568L128.296 261.674ZM169.818 245.354L174.285 243.163L181.915 239.423L184.679 247.526L171.677 253.947L170.425 248.174L169.818 245.354ZM185.902 246.923L185.577 246.002L183.128 238.823L186.028 237.4L195.111 232.94L198.76 240.557L186.998 246.365L185.902 246.923ZM196.347 232.338L199.87 230.61L208.229 226.513L211.574 231.796L212.748 233.653L199.996 239.948L196.347 232.338ZM221.575 218.459L216.154 211.724L226.775 206.557L233.045 212.839L224.154 217.208L221.575 218.459ZM256.489 177.785L256.512 176.715L256.836 161.297L263.071 163.456L263.752 163.692L263.343 181.25L263.071 181.114L256.489 177.785ZM264.239 143.146L257.268 141.85L257.631 125.015L264.654 125.226L264.239 143.146ZM258.429 88.276L265.565 86.2341L265.144 104.424L258.066 105.331L258.429 88.276ZM265.595 84.8209L258.458 86.8661L258.685 76.4392L258.831 69.7461L266.02 66.5503L265.595 84.8209ZM243.131 62.3821L229.701 56.8526L234.726 53.1285L249.057 58.9951L243.131 62.3821ZM115.194 39.1038L103.97 43.7582L103.098 44.1212L102.449 42.8474L100.652 39.3858L113.572 34.0346L115.129 38.8964L115.194 39.1038ZM92.6037 41.2268L85.4996 44.1439L82.2232 39.7748L96.344 34.0054L98.7736 38.689L92.6037 41.2268ZM85.0487 45.7969L88.3607 50.2179L76.0955 55.2969L71.9141 51.213L79.1869 48.2181L85.0487 45.7969ZM74.7428 55.8446L68.7546 58.3436L62.4419 60.956L57.3717 57.1994L70.5582 51.7704L74.7428 55.8446ZM54.6501 56.8429L41.217 62.3724L35.2937 58.9918L49.6253 53.1253L54.6501 56.8429ZM25.8896 86.8661L18.753 84.8209L18.3281 66.5503L25.5166 69.7461L25.669 76.8379L25.8896 86.8661ZM57.7772 226.828L63.1458 220.157L74.9017 225.913L70.3927 233.044L68.8324 232.273L57.7772 226.828ZM73.1403 231.216L76.115 226.513L87.9974 232.347L87.9066 232.535L84.3415 239.948L71.5897 233.65L73.1403 231.216ZM85.5612 240.551L89.2106 232.934L98.2935 237.394L101.194 238.817L98.7445 245.996L98.4201 246.916L96.3959 245.918L85.5612 240.551ZM99.1662 248.978L99.2245 248.809L112.369 255.292L110.52 263.829L96.477 256.841L99.1662 248.978ZM115.775 245.96L116.962 246.544L127.956 251.934L127.605 255.337L127.018 261.032L113.916 254.549L115.775 245.96ZM142.849 268.182V258.559L155.101 252.553L155.305 254.546L156.042 261.657L145.651 266.795L142.849 268.182ZM156.742 255.334L156.392 251.931L166.915 246.774L168.573 245.96L170.435 254.559L157.333 261.042L156.742 255.334ZM186.343 248.203L188.289 247.231L199.37 241.763L202.991 249.315L189.087 256.235L186.343 248.203ZM213.965 233.044L209.449 225.913L221.202 220.154L226.571 226.824L215.541 232.279L213.965 233.044ZM258.156 68.5696L244.714 63.0336L250.64 59.6401L265.001 65.5196L258.156 68.5696ZM212.434 51.213L208.259 55.2936L195.997 50.2147L199.309 45.7937L205.167 48.2051L212.434 51.213ZM198.851 44.1504L191.747 41.2333L185.584 38.6987L188.013 34.0152L202.121 39.791L198.851 44.1504ZM184.338 38.1736L180.261 36.4947L171.194 32.7608L172.796 27.7694L186.765 33.4901L184.338 38.1736ZM155.662 26.3659L145.343 22.12L142.849 21.0925V15.5112L156.454 21.0698L155.662 26.3659ZM83.5532 43.8003L84.202 44.6787L82.1324 45.5311L70.8663 50.1758L66.7271 46.1275L80.9354 40.3096L83.5532 43.8003ZM39.6373 63.0336L26.1945 68.5696L19.3466 65.5228L33.7107 59.6401L39.6373 63.0336ZM21.8704 218.75L21.4746 201.666L24.9586 199.358L28.2836 197.154L28.6307 213.205L27.4434 214.177L21.8704 218.75ZM30.5478 213.373L37.5677 207.61L49.0186 213.224L42.8195 219.431L36.9805 216.54L30.5478 213.373ZM50.3 213.853L61.9099 219.545L56.5413 226.212L44.0976 220.053L50.3 213.853ZM56.9143 227.9L69.6596 234.195L65.183 241.267L51.5943 234.506L55.8471 229.223L56.9143 227.9ZM173.825 263.836L171.976 255.298L185.12 248.816L187.864 256.857L187.54 257.026L173.825 263.836ZM232.753 234.516L219.165 241.277L214.688 234.204L227.433 227.91L228.497 229.232L232.753 234.516ZM222.441 219.551L234.051 213.859L240.257 220.079L227.81 226.238L222.441 219.551ZM241.531 219.444L235.332 213.234L246.783 207.62L253.803 213.383L247.383 216.553L241.531 219.444ZM255.72 213.211L256.067 197.161L259.392 199.365L262.876 201.673L262.481 218.757L256.839 214.125L255.72 213.211ZM218.983 46.6753L233.256 52.5094L228.504 56.0326L228.235 56.2336L214.834 50.7235L217.037 48.5681L218.983 46.6753ZM126.61 21.6079L127.404 26.904L120.709 29.6622L114.409 32.2552L112.807 27.2605L126.402 21.6954L126.61 21.6079ZM65.3679 46.6753L69.5104 50.7268L58.6822 55.1867L56.1098 56.2465L56.0028 56.1655L51.0882 52.5224L62.8604 47.7027L65.3679 46.6753ZM49.8199 51.5857L44.8437 47.8972L60.2198 41.6385L64.3201 45.6511L49.8199 51.5857ZM44.461 49.2909L48.3536 52.1821L33.8015 58.1394L30.2851 56.1298L27.9333 54.7783L43.3807 48.4904L44.461 49.2909ZM17.3971 84.432L10.3156 82.403L9.82903 62.7678L16.9656 65.941L17.3971 84.432ZM18.8146 144.767L19.2331 162.739L12.3852 165.112L11.9116 146.067L15.5383 145.386L18.8146 144.767ZM12.9075 186.838L19.5413 183.489L19.697 183.412L20.1122 200.956L13.3714 205.416L12.9075 186.838ZM29.3995 214.313L41.8107 220.442L35.6829 226.588L22.4608 220.011L29.3995 214.313ZM69.0433 237.686L70.8728 234.798L83.7673 241.167L80.1471 248.715L66.393 241.873L69.0433 237.686ZM111.769 264.445L113.618 255.904L116.31 257.233L126.869 262.448L125.935 271.491L117.595 267.342L111.769 264.445ZM142.849 279.238V269.67L156.188 263.08L157.122 272.13L145.379 277.964L142.849 279.238ZM158.419 271.494L157.485 262.452L168.034 257.236L170.727 255.908L172.576 264.448L166.795 267.323L158.419 271.494ZM200.59 241.163L213.485 234.794L215.314 237.682L217.964 241.867L204.21 248.709L200.59 241.163ZM242.547 220.442L254.958 214.313L261.9 220.011L248.681 226.588L242.547 220.442ZM263.814 219.836L264.216 202.544L270.95 207.008L270.496 225.32L263.814 219.836ZM264.66 183.412L271.45 186.838L270.989 205.416L264.245 200.956L264.66 183.412ZM272.488 144.699L265.582 143.402L266.003 125.252L272.965 125.459L272.488 144.699ZM274.032 82.403L266.954 84.432L267.382 65.9572L274.519 62.784L274.035 82.2312L274.032 82.403ZM171.956 25.9705L157.946 20.2368L158.727 15.0185L173.549 21.0471L171.956 25.9705ZM95.6952 32.803L81.3896 38.6663L78.1457 34.3458L93.3012 28.1875L95.6952 32.803ZM72.1834 42.4293L65.6631 45.0968L61.5661 41.0875L76.8448 34.8676L80.0888 39.1914L72.1834 42.4293ZM36.9513 227.21L41.4214 222.734L43.0888 221.061L47.361 223.171L55.6719 227.275L50.3584 233.877L41.522 229.479L36.9513 227.21ZM80.7732 250.547L93.5834 256.922L94.8193 257.538L94.0894 259.68L92.0977 265.514L77.1757 258.037L80.7732 250.547ZM96.039 258.144L110.225 265.203L108.742 272.045L108.389 273.666L93.3206 266.104L96.039 258.144ZM110.085 272.22L111.47 265.822L123.687 271.9L125.782 272.943L124.855 281.934L109.644 274.288L110.085 272.22ZM126.142 282.592L126.292 281.16L127.073 273.601L141.496 280.777V290.29L126.142 282.592ZM158.556 272.956L160.862 271.809L172.864 265.835L174.25 272.233L174.7 274.318L159.48 281.947L158.556 272.956ZM175.596 272.058L174.113 265.216L188.299 258.157L191.024 266.137L175.949 273.692L175.596 272.058ZM233.986 233.922L228.673 227.32L236.983 223.217L241.256 221.107L242.809 222.663L247.4 227.21L242.43 229.683L233.986 233.922ZM273.497 61.7728L267.959 64.2361L266.704 64.7936L252.107 58.8233L258.004 55.4265L268.709 59.7827L273.497 61.7728ZM202.955 38.6955L188.643 32.803L191.047 28.1745L206.202 34.3328L202.955 38.6955ZM189.785 27.6916L187.384 32.32L173.225 26.4859L174.808 21.5592L181.6 24.324L189.785 27.6916ZM157.443 14.4934L157.102 16.7623L156.661 19.6988L142.849 14.0559V8.54584L145.807 9.75156L157.443 14.4934ZM141.499 8.55556V14.0656L127.69 19.7085L127.249 16.772L126.908 14.5032L138.936 9.59923L141.499 8.55556ZM125.623 15.0185L126.405 20.2368L112.395 25.9738L110.812 21.0471L117.183 18.4542L125.623 15.0185ZM109.56 21.5592L110.997 26.0289L111.143 26.4859L96.9603 32.2908L94.5598 27.6624L102.832 24.311L109.56 21.5592ZM26.347 55.4265L26.9212 55.7506L32.2249 58.7844L17.6274 64.7547L16.372 64.1972L10.8346 61.7339L15.6324 59.7892L26.347 55.4265ZM10.001 124.14L3.09793 124.344L2.55295 103.646L9.51437 104.54L10.001 124.14ZM10.5167 144.939L3.67534 146.235L3.13686 125.705L10.0366 125.501L10.5167 144.939ZM4.67122 169.193L11.065 166.979L11.5386 186.011L4.8172 189.411L4.28844 169.335L4.67122 169.193ZM61.2352 250.028L65.6728 243.017L74.9342 247.63L79.5795 249.94L75.9917 257.428L66.659 252.751L61.2352 250.028ZM142.849 290.258V280.745L157.271 273.559L158.011 280.716L158.202 282.553L142.849 290.258ZM208.375 257.418L204.788 249.931L209.284 247.694L218.691 243.017L223.116 250.028L217.786 252.699L208.375 257.418ZM272.812 186.021L273.283 166.989L279.68 169.202L280.062 169.335L279.534 189.411L272.812 186.021ZM280.672 146.238L273.831 144.942L274.314 125.495L281.214 125.699L280.672 146.238ZM281.25 124.36L274.347 124.14L274.833 104.524L281.795 103.63L281.25 124.36ZM190.42 26.4761L175.213 20.2855L176.777 15.4237L192.795 21.9061L190.42 26.4761ZM125.416 13.6475L110.4 19.7733L108.843 14.9115L124.65 8.51342L125.416 13.6475ZM107.574 15.4075L109.138 20.2692L93.9305 26.4599L91.556 21.8866L107.574 15.4075ZM7.89891 83.1128L8.9921 83.4369L9.48193 103.186L2.51727 102.281L1.96581 81.4144L7.89891 83.1128ZM5.42056 212.3L12.0803 207.889L12.5409 226.409L5.93635 231.829L5.42056 212.3ZM10.4908 229.835L13.3 227.534L27.5732 234.694L21.5914 240.697L6.52674 233.09L10.4908 229.835ZM29.8731 234.311L35.9457 228.228L49.4922 234.969L46.5727 238.583L44.2177 241.5L33.0878 235.922L29.8731 234.311ZM44.6004 243.202L50.4135 246.119L59.2986 250.573L54.9031 257.518L39.3875 249.684L44.6004 243.202ZM92.8795 267.401L102.287 272.114L108.103 275.031L106.28 283.458L90.1805 275.319L92.8795 267.401ZM109.346 275.653L124.712 283.354L123.787 292.29L107.519 284.077L109.346 275.653ZM126.003 284.002L141.502 291.781V301.245L125.078 292.941L126.003 284.002ZM159.642 283.354L175.009 275.653L176.835 284.08L160.573 292.29L159.642 283.354ZM178.077 283.448L176.254 275.021L182.093 272.104L191.471 267.401L194.174 275.322L178.077 283.448ZM229.451 257.518L225.056 250.573L239.754 243.205L244.967 249.688L229.451 257.518ZM240.12 241.513L234.859 234.969L248.405 228.228L254.478 234.311L252.892 235.106L240.12 241.513ZM262.763 240.703L256.752 234.665L271.025 227.505L273.915 229.877L277.808 233.077L262.763 240.703ZM271.813 226.416L272.274 207.896L278.93 212.3L278.415 231.829L271.813 226.416ZM281.834 102.278L274.869 103.173L275.359 83.424L276.15 83.1971L282.382 81.4112L281.834 102.278ZM275.936 60.661L275.213 60.9852L259.49 54.5838L259.584 54.5287L265.316 51.2519L281.95 57.9871L275.936 60.661ZM223.829 40.0632L208.337 33.7559L208.985 32.8775L211.532 29.4807L227.875 36.096L223.829 40.0632ZM207.042 33.2308L197.959 29.5293L191.682 26.972L194.057 22.3987L210.254 28.9557L207.042 33.2308ZM141.499 7.09702L126.704 13.1224L126.262 10.1826L125.938 7.97863L141.499 1.6745V7.09702ZM72.8192 29.4775L76.0241 33.7526L60.528 40.0632L56.4731 36.096L72.8192 29.4775ZM19.032 51.2519L20.8551 52.2955L24.858 54.5838L9.13808 60.9852L8.38225 60.661L2.40049 57.9871L19.032 51.2519ZM28.8707 235.313L37.8596 239.818L43.3742 242.58L39.5205 247.37L38.1645 249.056L22.8598 241.335L28.8707 235.313ZM60.5118 251.172L75.3981 258.627L71.8298 266.052L56.1195 258.125L60.5118 251.172ZM76.6048 259.236L91.663 266.785L88.9608 274.703L73.043 266.665L76.6048 259.236ZM142.849 291.768L158.348 283.989L159.276 292.941L142.852 301.232L142.849 291.768ZM212.511 266.062L208.943 258.637L223.829 251.175L228.228 258.125L212.511 266.062ZM246.193 249.059L244.707 247.211L240.983 242.583L246.884 239.624L255.48 235.316L261.491 241.335L246.193 249.059Z"
    fill="url(#paint0_linear_2862_25989)"
  />
  <circle cx="146.376" cy="133.844" r="51.8288" fill="#010014" fill-opacity="0.4" />
  <path
    fill-rule="evenodd"
    clip-rule="evenodd"
    d="M118.95 172.862C121.745 174.731 122.494 178.512 120.626 181.306L94.3048 220.664C92.4352 223.459 88.6555 224.209 85.8606 222.34C83.0657 220.471 82.3149 216.691 84.1845 213.896L110.506 174.538C112.374 171.743 116.155 170.993 118.95 172.862Z"
    fill="#E4E5EE"
  />
  <path
    fill-rule="evenodd"
    clip-rule="evenodd"
    d="M190.998 164.902C173.969 190.365 139.522 197.202 114.06 180.173C88.5959 163.144 81.7589 128.698 98.788 103.235C115.817 77.7719 150.263 70.9347 175.726 87.9635C201.19 104.992 208.027 139.439 190.998 164.902ZM120.828 170.052C140.7 183.343 167.586 178.007 180.877 158.133C194.167 138.26 188.832 111.375 168.958 98.0841C149.084 84.7932 122.2 90.1296 108.908 110.003C95.617 129.877 100.954 156.762 120.828 170.052Z"
    fill="#E4E5EE"
  />
  <path
    fill-rule="evenodd"
    clip-rule="evenodd"
    d="M135.029 123.639C134.209 124.459 134.209 125.788 135.029 126.609L155.994 147.574C156.814 148.394 158.144 148.394 158.964 147.574C159.784 146.754 159.784 145.424 158.964 144.604L137.999 123.639C137.179 122.818 135.849 122.818 135.029 123.639Z"
    fill="#E4E5EE"
  />
  <path
    fill-rule="evenodd"
    clip-rule="evenodd"
    d="M158.964 123.639C159.784 124.459 159.784 125.788 158.964 126.609L137.999 147.574C137.179 148.394 135.849 148.394 135.029 147.574C134.209 146.754 134.209 145.424 135.029 144.604L155.994 123.639C156.814 122.818 158.144 122.818 158.964 123.639Z"
    fill="#E4E5EE"
  />
  <defs>
    <linearGradient
      id="paint0_linear_2862_25989"
      x1="286.128"
      y1="269.136"
      x2="-39.2811"
      y2="62.498"
      gradientUnits="userSpaceOnUse"
    >
      <stop stop-color="#9A52BC" />
      <stop offset="1" stop-color="#262769" />
    </linearGradient>
  </defs>
</svg>
