<svg width="130" height="23" viewBox="0 0 130 23" fill="none" xmlns="http://www.w3.org/2000/svg">
  <path
    d="M42.181 6.91378L39.2074 15.2579C39.1938 15.2982 39.1669 15.3328 39.1312 15.3562C39.0954 15.3796 39.0528 15.3905 39.0101 15.3872H38.7848C38.742 15.3889 38.6996 15.3773 38.6636 15.3542C38.6277 15.331 38.5998 15.2974 38.5838 15.2579L36.3546 9.40583L34.129 15.2579C34.1142 15.2974 34.0871 15.3313 34.0516 15.3545C34.0162 15.3778 33.9741 15.3892 33.9317 15.3872H33.7027C33.6602 15.3896 33.618 15.3782 33.5825 15.355C33.5469 15.3317 33.5199 15.2976 33.5054 15.2579L30.5318 6.9167C30.4862 6.78738 30.5355 6.70702 30.6622 6.70702H31.5824C31.6257 6.70267 31.6693 6.71311 31.7058 6.73662C31.7424 6.76013 31.7697 6.79531 31.7834 6.83633L33.903 13.1538L36.0579 7.36821C36.0734 7.32837 36.1011 7.29441 36.1372 7.27118C36.1733 7.24795 36.2159 7.23665 36.2589 7.23889H36.4525C36.495 7.23676 36.537 7.24815 36.5725 7.27142C36.608 7.29468 36.6351 7.32859 36.6498 7.36821L38.8687 13.1538L40.939 6.83633C40.9527 6.79531 40.98 6.76013 41.0166 6.73662C41.0531 6.71311 41.0967 6.70267 41.14 6.70702H42.0463C42.1766 6.70702 42.2259 6.78738 42.1802 6.91378"
    fill="white" />
  <path
    d="M55.1227 10.9775C55.1144 11.8368 54.85 12.6746 54.3629 13.3851C53.8757 14.0957 53.1876 14.6473 52.3851 14.9705C51.5826 15.2937 50.7017 15.374 49.8534 15.2013C49.005 15.0286 48.2271 14.6107 47.6176 14.0001C47.0082 13.3895 46.5944 12.6136 46.4285 11.7701C46.2625 10.9266 46.3518 10.0532 46.6851 9.26C47.0184 8.46678 47.5808 7.78917 48.3015 7.31252C49.0221 6.83588 49.8688 6.58152 50.7348 6.58148C51.3169 6.57336 51.8946 6.68183 52.4334 6.90041C52.9722 7.11898 53.4611 7.44316 53.8707 7.85356C54.2803 8.26396 54.6024 8.75215 54.8175 9.2889C55.0326 9.82566 55.1364 10.4 55.1227 10.9775V10.9775ZM53.9057 10.9775C53.9057 8.95444 52.5761 7.5612 50.7348 7.5612C48.8935 7.5612 47.5639 8.95444 47.5639 10.9775C47.5639 13.0005 48.8935 14.3937 50.7348 14.3937C52.5761 14.3937 53.9057 13.0005 53.9057 10.9775Z"
    fill="white" />
  <path
    d="M66.7426 14.9014C66.7706 14.9336 66.7882 14.9734 66.7929 15.0157C66.7976 15.058 66.7893 15.1008 66.769 15.1383C66.7488 15.1758 66.7175 15.2063 66.6794 15.2259C66.6413 15.2454 66.5981 15.253 66.5556 15.2477H65.7266C65.6996 15.2468 65.6733 15.2394 65.6499 15.226C65.6265 15.2126 65.6068 15.1937 65.5926 15.1709L63.5121 12.0557H61.2762V15.073C61.2756 15.1194 61.2568 15.1636 61.2238 15.1964C61.1908 15.2292 61.1462 15.2478 61.0995 15.2484H60.2897C60.2431 15.2476 60.1987 15.2289 60.1658 15.1961C60.133 15.1634 60.1143 15.1192 60.1137 15.073V6.88237C60.1145 6.83623 60.1332 6.79217 60.166 6.75947C60.1989 6.72677 60.2432 6.70797 60.2897 6.70703H63.4745C65.7038 6.70703 66.8045 7.8694 66.8045 9.381C66.818 9.98165 66.6146 10.5673 66.231 11.0321C65.8474 11.4969 65.3089 11.8102 64.7129 11.9154L66.7426 14.9014ZM63.2471 11.076C65 11.076 65.589 10.3549 65.589 9.38173C65.589 8.40858 65 7.68749 63.2471 7.68749H61.2755V11.076H63.2471Z"
    fill="white" />
  <path
    d="M80.4385 6.56943H80.7028C80.7264 6.56793 80.75 6.57143 80.7722 6.57971C80.7943 6.58799 80.8144 6.60086 80.8311 6.61745C80.8478 6.63404 80.8608 6.65398 80.8691 6.67593C80.8775 6.69789 80.881 6.72135 80.8795 6.74477V15.0735C80.881 15.0969 80.8775 15.1204 80.8691 15.1424C80.8608 15.1643 80.8478 15.1843 80.8311 15.2008C80.8144 15.2174 80.7943 15.2303 80.7722 15.2386C80.75 15.2469 80.7264 15.2504 80.7028 15.2489H79.893C79.8694 15.2504 79.8457 15.2469 79.8236 15.2386C79.8015 15.2303 79.7814 15.2174 79.7646 15.2008C79.7479 15.1843 79.735 15.1643 79.7266 15.1424C79.7183 15.1204 79.7147 15.0969 79.7163 15.0735V9.16084L76.4534 13.8476C76.4427 13.8708 76.4255 13.8904 76.4039 13.9042C76.3823 13.9179 76.3572 13.9252 76.3315 13.9252C76.3058 13.9252 76.2807 13.9179 76.2591 13.9042C76.2375 13.8904 76.2203 13.8708 76.2097 13.8476L72.9475 9.16084V15.0728C72.949 15.0962 72.9455 15.1197 72.9371 15.1416C72.9288 15.1636 72.9158 15.1835 72.8991 15.2001C72.8824 15.2167 72.8623 15.2296 72.8402 15.2379C72.818 15.2461 72.7944 15.2496 72.7708 15.2481H71.961C71.9374 15.2496 71.9137 15.2461 71.8916 15.2379C71.8695 15.2296 71.8494 15.2167 71.8327 15.2001C71.816 15.1835 71.803 15.1636 71.7946 15.1416C71.7863 15.1197 71.7828 15.0962 71.7843 15.0728V6.74404C71.7828 6.72062 71.7863 6.69716 71.7946 6.6752C71.803 6.65325 71.816 6.63331 71.8327 6.61672C71.8494 6.60013 71.8695 6.58726 71.8916 6.57898C71.9137 6.5707 71.9374 6.5672 71.961 6.5687H72.2223C72.2662 6.56886 72.3093 6.57982 72.3479 6.6006C72.3864 6.62139 72.4192 6.65135 72.4432 6.68778L76.3304 12.0744L80.2206 6.68778C80.2433 6.65152 80.275 6.62158 80.3126 6.60076C80.3502 6.57993 80.3925 6.5689 80.4356 6.5687"
    fill="white" />
  <path
    d="M93.9686 6.88237V15.0723C93.9679 15.1186 93.949 15.1627 93.916 15.1955C93.883 15.2282 93.8385 15.2469 93.7919 15.2477H92.9821C92.9355 15.2469 92.8909 15.2282 92.858 15.1955C92.825 15.1627 92.8061 15.1186 92.8054 15.0723V11.3412H87.448V15.0723C87.4472 15.1186 87.4283 15.1627 87.3954 15.1955C87.3624 15.2282 87.3179 15.2469 87.2713 15.2477H86.4614C86.4148 15.2469 86.3703 15.2282 86.3373 15.1955C86.3044 15.1627 86.2855 15.1186 86.2847 15.0723V6.88237C86.2855 6.8361 86.3044 6.79194 86.3373 6.75922C86.3703 6.7265 86.4148 6.70778 86.4614 6.70703H87.2713C87.3179 6.70778 87.3624 6.7265 87.3954 6.75922C87.4283 6.79194 87.4472 6.8361 87.448 6.88237V10.3615H92.8054V6.88237C92.8061 6.8361 92.825 6.79194 92.858 6.75922C92.8909 6.7265 92.9355 6.70778 92.9821 6.70703H93.7919C93.8385 6.70778 93.883 6.7265 93.916 6.75922C93.949 6.79194 93.9679 6.8361 93.9686 6.88237Z"
    fill="white" />
  <path
    d="M107.735 10.9775C107.727 11.8368 107.462 12.6746 106.975 13.3851C106.488 14.0957 105.8 14.6473 104.998 14.9705C104.195 15.2937 103.314 15.374 102.466 15.2013C101.617 15.0286 100.84 14.6107 100.23 14.0001C99.6206 13.3895 99.2068 12.6136 99.0409 11.7701C98.875 10.9266 98.9643 10.0532 99.2976 9.26C99.6309 8.46678 100.193 7.78917 100.914 7.31252C101.635 6.83588 102.481 6.58152 103.347 6.58148C103.929 6.57336 104.507 6.68183 105.046 6.90041C105.585 7.11898 106.073 7.44316 106.483 7.85356C106.893 8.26396 107.215 8.75215 107.43 9.2889C107.645 9.82566 107.749 10.4 107.735 10.9775V10.9775ZM106.518 10.9775C106.518 8.95444 105.189 7.5612 103.347 7.5612C101.506 7.5612 100.176 8.95444 100.176 10.9775C100.176 13.0005 101.506 14.3937 103.347 14.3937C105.189 14.3937 106.518 13.0005 106.518 10.9775Z"
    fill="white" />
  <path
    d="M118.819 14.4425V15.0723C118.82 15.0957 118.817 15.1192 118.808 15.1411C118.8 15.1631 118.787 15.183 118.77 15.1996C118.754 15.2162 118.734 15.2291 118.711 15.2374C118.689 15.2457 118.666 15.2492 118.642 15.2477H112.904C112.857 15.2469 112.813 15.2282 112.78 15.1955C112.747 15.1627 112.728 15.1186 112.727 15.0723V6.88237C112.728 6.8361 112.747 6.79194 112.78 6.75922C112.813 6.7265 112.857 6.70778 112.904 6.70703H113.714C113.76 6.70797 113.805 6.72677 113.837 6.75947C113.87 6.79217 113.889 6.83623 113.89 6.88237V14.2672H118.644C118.668 14.2657 118.692 14.2692 118.714 14.2775C118.736 14.2858 118.756 14.2986 118.773 14.3152C118.789 14.3318 118.802 14.3518 118.811 14.3737C118.819 14.3957 118.822 14.4191 118.821 14.4425"
    fill="white" />
  <path
    d="M129.999 14.4419V15.0717C130.001 15.0951 129.997 15.1186 129.989 15.1405C129.98 15.1625 129.967 15.1824 129.951 15.199C129.934 15.2156 129.914 15.2285 129.892 15.2367C129.87 15.245 129.846 15.2485 129.822 15.247H123.626C123.579 15.2463 123.534 15.2275 123.502 15.1948C123.469 15.1621 123.45 15.1179 123.449 15.0717V6.88174C123.45 6.83547 123.469 6.7913 123.502 6.75858C123.534 6.72586 123.579 6.70715 123.626 6.70639H129.682C129.705 6.70489 129.729 6.7084 129.751 6.71668C129.773 6.72496 129.793 6.73782 129.81 6.75442C129.827 6.77101 129.84 6.79095 129.848 6.8129C129.856 6.83485 129.86 6.85832 129.858 6.88174V7.51151C129.86 7.53492 129.856 7.55839 129.848 7.58034C129.84 7.6023 129.827 7.62223 129.81 7.63883C129.793 7.65542 129.773 7.66828 129.751 7.67656C129.729 7.68484 129.705 7.68835 129.682 7.68685H124.61V10.3608H129.118C129.141 10.3594 129.164 10.3628 129.186 10.3708C129.208 10.3789 129.228 10.3915 129.244 10.4077C129.261 10.4239 129.274 10.4434 129.282 10.4649C129.291 10.4864 129.295 10.5094 129.294 10.5325V11.1659C129.295 11.1892 129.292 11.2125 129.283 11.2344C129.275 11.2562 129.262 11.276 129.245 11.2925C129.229 11.309 129.209 11.3218 129.187 11.3301C129.165 11.3384 129.141 11.3419 129.118 11.3405H124.61V14.2666H129.823C129.847 14.2651 129.87 14.2686 129.892 14.2768C129.915 14.2851 129.935 14.298 129.951 14.3146C129.968 14.3312 129.981 14.3511 129.989 14.3731C129.998 14.395 130.001 14.4185 130 14.4419"
    fill="white" />
  <path
    d="M11.3333 22.6477C8.32989 22.6458 5.44987 21.4526 3.32517 19.3298C1.20047 17.207 0.00461709 14.328 0 11.3246C0.00461644 8.32105 1.2004 5.44195 3.32506 3.31892C5.44972 1.1959 8.32975 0.00230511 11.3333 0C14.3369 0.00230511 17.2169 1.1959 19.3415 3.31892C21.4662 5.44195 22.662 8.32105 22.6666 11.3246C22.662 14.328 21.4662 17.207 19.3415 19.3298C17.2168 21.4526 14.3368 22.6458 11.3333 22.6477ZM11.3333 0.871794C8.56085 0.873715 5.90234 1.97534 3.94109 3.93496C1.97984 5.89457 0.876026 8.55214 0.871794 11.3246C0.87449 14.0974 1.97787 16.7557 3.9395 18.7155C5.90112 20.6752 8.56051 21.776 11.3333 21.776C14.1061 21.776 16.7655 20.6752 18.7271 18.7155C20.6888 16.7557 21.7921 14.0974 21.7948 11.3246C21.7906 8.55214 20.6868 5.89457 18.7255 3.93496C16.7643 1.97534 14.1058 0.873715 11.3333 0.871794V0.871794Z"
    fill="white" />
  <path
    d="M12.766 20.8567C10.2777 20.8548 7.89175 19.8659 6.13155 18.1071C4.37136 16.3483 3.38068 13.9631 3.37683 11.4747C3.38068 8.98641 4.37136 6.6012 6.13155 4.84237C7.89175 3.08354 10.2777 2.09469 12.766 2.09277C15.2544 2.09469 17.6403 3.08354 19.4005 4.84237C21.1607 6.6012 22.1514 8.98641 22.1552 11.4747C22.1514 13.9631 21.1607 16.3483 19.4005 18.1071C17.6403 19.8659 15.2544 20.8548 12.766 20.8567ZM12.766 2.76987C10.4574 2.77179 8.24382 3.68935 6.61083 5.32124C4.97785 6.95314 4.05883 9.16612 4.05537 11.4747C4.05921 13.7831 4.97842 15.9957 6.61136 17.6273C8.24431 19.2589 10.4577 20.1762 12.766 20.1781C15.0744 20.1762 17.2878 19.2589 18.9207 17.6273C20.5536 15.9957 21.4729 13.7831 21.4767 11.4747C21.4729 9.16637 20.5536 6.95375 18.9207 5.32216C17.2878 3.69058 15.0744 2.77325 12.766 2.77133V2.76987Z"
    fill="white" />
  <path
    d="M14.1987 19.0661C12.2256 19.0646 10.3337 18.2805 8.93792 16.8858C7.54219 15.4912 6.75662 13.5999 6.75354 11.6268C6.75662 9.65371 7.54219 7.76241 8.93792 6.36777C10.3337 4.97312 12.2256 4.18904 14.1987 4.1875C16.1719 4.18865 18.064 4.97262 19.4598 6.36734C20.8556 7.76206 21.641 9.65359 21.6437 11.6268C21.6407 13.5999 20.8551 15.4912 19.4594 16.8858C18.0636 18.2805 16.1717 19.0646 14.1987 19.0661V19.0661ZM14.1987 4.67134C12.3538 4.67249 10.5847 5.40548 9.2796 6.70946C7.97452 8.01345 7.24005 9.78192 7.23736 11.6268C7.24044 13.4714 7.9751 15.2395 9.28013 16.5432C10.5852 17.8469 12.354 18.5797 14.1987 18.5808C16.0433 18.5797 17.8122 17.8469 19.1172 16.5432C20.4222 15.2395 21.1569 13.4714 21.16 11.6268C21.1573 9.78192 20.4228 8.01345 19.1177 6.70946C17.8126 5.40548 16.0435 4.67249 14.1987 4.67134V4.67134Z"
    fill="white" />
  <path
    d="M15.6312 17.275C14.1733 17.2739 12.7755 16.6945 11.7442 15.6641C10.7129 14.6337 10.1325 13.2362 10.1302 11.7784C10.1321 10.3203 10.7124 8.92249 11.7437 7.89172C12.775 6.86096 14.1731 6.28143 15.6312 6.28027C17.0893 6.28143 18.4874 6.86096 19.5187 7.89172C20.55 8.92249 21.1303 10.3203 21.1322 11.7784C21.1299 13.2362 20.5495 14.6337 19.5182 15.6641C18.487 16.6945 17.089 17.2739 15.6312 17.275V17.275ZM15.6312 6.57087C14.2502 6.57202 12.926 7.12094 11.9492 8.0972C10.9724 9.07347 10.4227 10.3973 10.4208 11.7784C10.4231 13.1592 10.9729 14.4827 11.9497 15.4586C12.9265 16.4346 14.2504 16.9833 15.6312 16.9844C17.012 16.9833 18.3359 16.4346 19.3127 15.4586C20.2895 14.4827 20.8393 13.1592 20.8416 11.7784C20.8397 10.3973 20.2901 9.07347 19.3133 8.0972C18.3364 7.12094 17.0122 6.57202 15.6312 6.57087Z"
    fill="white" />
</svg>