<svg width="127" height="12" viewBox="0 0 127 12" fill="none" xmlns="http://www.w3.org/2000/svg">
  <path
    d="M96.4304 0H90.4759C88.1873 0 86.3336 1.87043 86.3336 4.17973V7.82027C86.3336 10.1296 88.1873 12 90.4759 12H96.5713V11.9937C98.7936 11.9185 100.573 10.0815 100.573 7.82027V4.17973C100.573 1.87043 98.719 0 96.4304 0ZM95.7884 10.0063H91.118V1.99373H95.7884V10.0063Z"
    fill="#CCCCCC" />
  <path
    d="M30.2857 0H24.3311C22.0425 0 20.1889 1.87043 20.1889 4.17973V7.82027C20.1889 10.1296 22.0425 12 24.3311 12H30.4265V11.9937C32.6488 11.9185 34.4279 10.0815 34.4279 7.82027V4.17973C34.4279 1.87043 32.5743 0 30.2857 0ZM29.6436 10.0063H24.9732V1.99373H29.6436V10.0063Z"
    fill="#CCCCCC" />
  <path
    d="M63.6122 2.08986L60.1534 8.13375V0H57.7571C56.2763 0 54.9093 0.796238 54.1699 2.08986L49.1578 10.8485L46.952 6.99478C48.5364 6.97597 49.8164 5.67398 49.8164 4.07106V2.92581C49.8164 1.31034 48.5178 0 46.9168 0H35.5773V12H40.3617V6.99686H41.4304L44.2927 12H50.709L55.3691 3.85371V12H60.1534V11.9958L64.7928 3.88715V12H69.5771V0H67.1974C65.7165 0 64.3496 0.796238 63.6102 2.08986H63.6122ZM45.0321 5.00313H40.3617V1.99373H45.0321V5.00313Z"
    fill="#CCCCCC" />
  <path d="M80.3691 5.00314H75.6987V0H70.9144V12H75.6987V6.99687H80.3691V12H85.1534V0H80.3691V5.00314Z"
    fill="#CCCCCC" />
  <path d="M106.536 0H101.752V7.82027C101.752 10.1296 103.606 12 105.894 12H112.712V10.0063H106.536V0Z"
    fill="#CCCCCC" />
  <path d="M127 1.99373V0H113.944V12H127V10.0063H118.728V6.99687H125.275V5.00314H118.728V1.99373H127Z" fill="#CCCCCC" />
  <path
    d="M18.8701 0L14.2101 8.14629V0H9.42574V0.00417973L4.7864 8.11285V0H0V12H2.37974C3.8606 12 5.22755 11.2038 5.96694 9.91014L9.42574 3.86625V12H11.822C13.3029 12 14.6699 11.2038 15.4093 9.91014L21.08 0H18.8701Z"
    fill="#CCCCCC" />
</svg>