<svg id="Layer_1" data-name="Layer 1" xmlns="http://www.w3.org/2000/svg" viewBox="0 0 864 81.1202">
  <path id="fullLogo"
    d="m656.0298,0h-40.5121c-15.5664,0-28.176,12.6442-28.176,28.255v24.6099c0,15.6111,12.6096,28.2553,28.176,28.2553h41.4721v-.0422c15.1152-.5088,27.2209-12.9269,27.2209-28.213v-24.6099c0-15.6109-12.6096-28.255-28.1809-28.255Zm-4.368,67.6427h-31.7761V13.4777h31.7761v54.1651ZM206.0282,0h-40.5097c-15.5698,0-28.1804,12.6442-28.1804,28.255v24.6099c0,15.6111,12.6106,28.2553,28.1804,28.2553h41.4678v-.0422c15.1191-.5088,27.2223-12.9269,27.2223-28.213v-24.6099c0-15.6109-12.6106-28.255-28.1804-28.255Zm-4.368,67.6427h-31.7737V13.4777h31.7737v54.1651ZM432.7549,14.1275h.0144l-23.5311,40.8566V0h-16.3023c-10.0748,0-19.3743,5.3826-24.4047,14.1275l-34.0983,59.2085-15.0063-26.0512c10.7794-.1272,19.4871-8.9286,19.4871-19.7645v-7.7418c0-10.9206-8.8344-19.7785-19.7266-19.7785h-77.1439v81.1202h32.5484v-33.8213h7.2706l19.4727,33.8213h43.6518l31.7031-55.0691v55.0691h32.5484v-.0283l31.5625-54.8147v54.843h32.5484V0h-16.1895c-10.0748,0-19.3743,5.3826-24.4047,14.1275Zm-126.3896,19.6937h-31.7737V13.4777h31.7737v20.3436ZM546.7575,0h32.5489v81.1202h-32.5489v-33.8213h-31.7713v33.8213h-32.5489V0h32.5489v33.8213h31.7713V0Zm178.0325,67.6427h42.0193v13.4775h-46.3873c-15.5712,0-28.1809-12.6442-28.1809-28.2553V0h32.5489v67.6427Zm82.9346-54.1651v20.3436h44.5393v13.4777h-44.5393v20.3438h56.2753v13.4775h-88.8242V0h88.8242v13.4777h-56.2753ZM143.4111,0l-38.5796,66.9928c-5.0299,8.7447-14.3295,14.1274-24.4042,14.1274h-16.3023V26.1359l-23.5309,40.8569c-5.0302,8.7447-14.3298,14.1274-24.4044,14.1274H0V0h32.5627v54.843L64.125.0282v-.0282h32.5484v55.0691L128.3765,0h15.0346Z"
    style="fill: #fff; stroke-width: 0px;" />
</svg>