<svg
  xmlns="http://www.w3.org/2000/svg"
  width="24"
  height="24"
  fill="none"
  xmlns:v="https://vecta.io/nano"
>
  <rect width="24" height="24" rx="12" fill="#080530" />
  <mask id="A" maskUnits="userSpaceOnUse" x="4" y="4" width="16" height="16" mask-type="alpha">
    <path fill="#d9d9d9" d="M4 4h16v16H4z" />
  </mask>
  <g mask="url(#A)">
    <path
      fill-rule="evenodd"
      d="M11.461 5l7.256 12.595.783-1.35L13.017 5h-1.556zM4.5 16.218l6.212-10.779.011.022.011-.022 7.367 12.779h-1.556l-1.861-3.228a8.88 8.88 0 0 0-2.678-.411c-.483 0-.95.033-1.406.1l.895-1.556.511-.011c.572 0 1.128.045 1.678.133l-2.956-5.128-5.45 9.451-.778-1.35zm4.223-.162l2.795-4.845-.778-1.35-4.817 8.356h1.556l.017-.028c1.333-.806 2.867-1.211 4.539-1.211a8.88 8.88 0 0 1 3.039.533l-1.044-1.806a10.52 10.52 0 0 0-2-.194 10.31 10.31 0 0 0-3.306.545z"
      fill="#fff"
    />
  </g>
</svg>
