<svg width="24" height="24" viewBox="0 0 24 24" fill="none" xmlns="http://www.w3.org/2000/svg">
  <rect width="24" height="24" rx="12" fill="#080530" />
  <mask
    id="mask0_1131_18497"
    style="mask-type: alpha"
    maskUnits="userSpaceOnUse"
    x="4"
    y="4"
    width="16"
    height="16"
  >
    <rect x="4" y="4" width="16" height="16" fill="#D9D9D9" />
  </mask>
  <g mask="url(#mask0_1131_18497)">
    <path
      d="M7.42764 18.5503L9.46069 15.0316L11.492 11.5252L13.5118 8.0064L13.8472 7.44848L13.9946 8.0064L14.6144 10.3228L13.9205 11.5252L11.8892 15.0316L9.86941 18.5503H12.2971L14.3292 15.0316L15.3824 13.2104L15.8785 15.0316L16.8195 18.5503H19L18.059 15.0316L17.117 11.5252L16.8699 10.6203L18.3812 8.0064H16.176L16.101 7.74598L15.3329 4.87165L15.2341 4.5H13.1154L13.066 4.57415L11.0832 8.0064L9.05108 11.5252L7.03216 15.0316L5 18.5503H7.42764Z"
      fill="white"
    />
  </g>
</svg>
