<svg
  xmlns="http://www.w3.org/2000/svg"
  width="24"
  height="24"
  fill="none"
  xmlns:v="https://vecta.io/nano"
>
  <rect width="24" height="24" rx="12" fill="#080530" />
  <g clip-path="url(#A)">
    <path
      d="M15.837 11.998l1.579 1.581L19 11.998l-1.579-1.577-1.583 1.577zM12 8.162L9.29 10.87 7.709 9.292 12 5l4.294 4.292-1.582 1.578L12 8.162zm-5.421 2.259l1.58 1.577-1.579 1.579L5 11.998l1.579-1.577zM12 15.838l2.707-2.709 1.58 1.579L11.998 19l-4.289-4.292 1.579-1.579L12 15.838zm0-2.259l-1.582-1.581L12 10.421l1.582 1.577L12 13.579z"
      fill="#fff"
    />
  </g>
  <defs>
    <clipPath id="A"><path fill="#fff" transform="translate(5 5)" d="M0 0h14v14H0z" /></clipPath>
  </defs>
</svg>
