<svg
  xmlns="http://www.w3.org/2000/svg"
  width="200"
  height="200"
  preserveAspectRatio="xMidYMid meet"
  xmlns:v="https://vecta.io/nano"
>
  <rect width="175" height="175" rx="100" fill="#080530" />
  <path
    d="M72.3 30.175C58.8 33.85 46.95 42.55 39 54.7c-3.675 5.55-7.65 15.375-8.625 21.075l-.525 3.075 3.675-1.05c4.575-1.425 11.55-.975 16.05 1.05 1.8.825 5.1 3 7.275 4.875 7.125 6.225 11.1 5.775 21.15-2.1 7.875-6.225 11.925-7.95 18.375-7.95 8.25 0 10.95 1.575 26.625 15.675l4.05 3.675-3.675 4.575c-2.1 2.55-3.975 4.65-4.275 4.65s-3.825-2.925-7.725-6.6C102.75 87.85 100.5 86.5 96 86.5c-3.675 0-5.925 1.2-13.5 7.425-6.075 4.95-9.825 6.375-16.5 6.375-6.75 0-11.85-2.025-17.475-7.05-5.475-4.875-10.875-5.1-15.9-.675-3.15 2.775-3.225 4.125-1.05 11.925 2.025 7.5 6.075 15.525 10.95 21.675.075.15 3.225-2.55 6.825-6.075 5.1-4.95 7.65-6.75 10.95-8.025 8.175-3.075 16.725-1.5 23.625 4.275 4.65 3.9 6.225 4.65 9.825 4.65 3.525 0 5.25-.75 9.3-4.2 1.575-1.35 4.425-3.225 6.375-4.125 7.125-3.45 19.2-1.725 24.15 3.525.9.975 1.95 1.8 2.25 1.8s1.575-2.475 2.85-5.55c7.5-18 6.675-36.975-2.25-53.775-1.35-2.55-2.925-4.725-3.45-4.95-1.575-.6-4.8 1.05-9.3 4.65-5.325 4.425-9.825 5.925-16.725 5.475-5.925-.375-8.925-1.65-13.95-5.85-4.5-3.675-6.15-4.5-9.3-4.5-4.2 0-5.925 1.05-13.5 8.325l-7.275 6.9-3.375-3.3c-5.7-5.55-5.775-5.025 2.7-13.2 9.45-9.15 13.8-11.475 21.375-11.475 6.225 0 10.875 1.875 16.35 6.6 1.95 1.725 4.425 3.375 5.475 3.6 3 .75 7.575-.15 9.825-1.95 1.2-.825 3.525-2.625 5.325-3.975l3.225-2.4-2.475-2.025c-4.425-3.675-11.325-7.35-17.475-9.375-8.25-2.7-23.55-3.225-31.575-1.05zM58.575 128.65c-3.375 3-6.075 5.85-6.075 6.3 0 1.35 3.6 3.75 10.8 7.125L69.6 145h16.725c15.975 0 17.025-.15 21.15-1.8 6.225-2.55 12-6.225 16.875-10.65l4.275-3.9-1.5-1.65c-2.175-2.4-5.175-3.75-8.25-3.75-3.15 0-4.875.75-9 4.125-6 4.8-9.15 6-16.125 6-7.575 0-11.025-1.35-17.1-6.675-3.675-3.15-4.35-3.45-8.025-3.45-3.975 0-4.2.15-10.05 5.4z"
    fill="#fff"
  />
</svg>
