<svg xmlns="http://www.w3.org/2000/svg" width="24" height="24" fill="none" xmlns:v="https://vecta.io/nano">
  <mask id="A" maskUnits="userSpaceOnUse" x="4" y="4" width="16" height="16" mask-type="alpha">
    <path fill="#d9d9d9" d="M4 4h16v16H4z" />
  </mask>
  <g mask="url(#A)">
    <path fill-rule="evenodd"
      d="M16.95 16.79c-1.313 1.27-3.093 1.983-4.95 1.983s-3.637-.713-4.95-1.983S5 13.798 5 12.002s.737-3.518 2.05-4.788S10.144 5.23 12 5.23s3.637.713 4.95 1.983S19 10.206 19 12.002s-.738 3.518-2.05 4.788zm-4.44-3.827l.496-.479 3.403 3.292-.496.479-3.403-3.292zM7.592 8.221l.495-.479 3.403 3.292-.495.479-3.403-3.292zm4.915 2.822l3.399-3.296v.002l.495.479-3.4 3.293-.495-.478zm-4.904 4.743l3.401-3.294.496.479-3.401 3.293-.496-.479z"
      fill="#fff" />
  </g>
</svg>