<svg
  xmlns="http://www.w3.org/2000/svg"
  width="24"
  height="24"
  fill="none"
  xmlns:v="https://vecta.io/nano"
>
  <rect width="24" height="24" rx="12" fill="#fff" />
  <mask id="A" maskUnits="userSpaceOnUse" x="4" y="4" width="16" height="16" mask-type="alpha">
    <path fill="#d9d9d9" d="M4 4h16v16H4z" />
  </mask>
  <g mask="url(#A)">
    <path
      d="M5 11.38l.381-1.587c.025-.063.19-.14.292-.14h2.881 3.3c.419.013.749-.114 1.015-.457.47-.584.609-.584 1.092-.013a1.18 1.18 0 0 0 1.041.47l3.325-.013c.203 0 .317.051.355.254L19 11.368h-.393c-1.549 0-3.084-.013-4.633.013a.88.88 0 0 1-.762-.355c-.47-.597-.647-.761-1.256-.038-.254.305-.533.393-.901.381l-5.61-.013c-.102.025-.216.025-.444.025zm.102 1.879h.47 3.833c.393 0 .723-.089.965-.432.063-.089.14-.152.216-.241.267-.292.508-.317.736 0 .381.559.863.685 1.511.673l5.635-.013h.457l-.584 1.637c-.025.051-.152.089-.241.089h-6.816c-.152 0-.317-.102-.432-.203-.165-.14-.292-.33-.444-.482-.19-.19-.406-.203-.609-.013l-.025.025c-.406.673-1.028.749-1.752.711-.673-.051-1.345-.025-2.031 0-.216 0-.33-.076-.393-.267l-.495-1.485zm1.346-5.471c2.653-3.655 8.326-3.77 11.106-.025-.495 0-.977.051-1.447-.025-.203-.025-.381-.279-.533-.457-.444-.482-.571-.508-.99-.013-.33.381-.685.533-1.206.533l-6.524-.013h-.406zm.483 8.91c.419-.013.609-.317.838-.571.355-.406.571-.431.888 0 .33.47.749.584 1.295.571l6.752-.013h.355c-2.259 2.767-7.286 3.186-10.129.013z"
      fill="#000"
    />
  </g>
</svg>
