<svg
  xmlns="http://www.w3.org/2000/svg"
  width="24"
  height="24"
  fill="none"
  xmlns:v="https://vecta.io/nano"
>
  <rect width="24" height="24" rx="12" fill="#e84142" />
  <mask id="A" maskUnits="userSpaceOnUse" x="4" y="4" width="16" height="16" mask-type="alpha">
    <path fill="#d9d9d9" d="M4 4h16v16H4z" />
  </mask>
  <g mask="url(#A)">
    <path
      fill-rule="evenodd"
      d="M8.471 17.276H6.146c-.489 0-.73 0-.877-.094A.59.59 0 0 1 5 16.72c-.009-.174.112-.386.353-.81l5.743-10.122c.244-.43.368-.645.524-.724.168-.085.368-.085.536 0 .156.079.28.294.524.724l1.181 2.061.006.011c.264.461.398.695.456.94a1.75 1.75 0 0 1 0 .818c-.059.247-.191.483-.459.951l-3.016 5.332-.008.014c-.266.465-.4.701-.587.878a1.76 1.76 0 0 1-.715.415c-.244.068-.518.068-1.066.068zm5.873 0h3.332c.492 0 .739 0 .886-.097a.59.59 0 0 0 .268-.465c.009-.168-.11-.372-.341-.771l-.024-.041-1.669-2.856-.019-.032c-.235-.397-.353-.597-.505-.674-.168-.085-.365-.085-.533 0-.153.08-.277.289-.521.71l-1.663 2.856-.006.01c-.244.42-.365.63-.356.803.012.189.109.362.268.465.144.094.391.094.883.094z"
      fill="#fff"
    />
  </g>
</svg>
