<?xml version="1.0" encoding="utf-8"?>
<!DOCTYPE svg PUBLIC "-//W3C//DTD SVG 20010904//EN" "http://www.w3.org/TR/2001/REC-SVG-20010904/DTD/svg10.dtd">
<svg
  version="1.0"
  xmlns="http://www.w3.org/2000/svg"
  width="252pt"
  height="252pt"
  viewBox="0 0 252 252"
  style=""
  preserveAspectRatio="xMidYMid meet"
>
  <g fill="#24201FFF" stroke="#24201FFF">
    <path
      d="M 1.000 126.000 L 1.000 251.000 126.000 251.000 L 251.000 251.000 251.000 126.000 L 251.000 1.000 126.000 1.000 L 1.000 1.000 1.000 126.000 M 138.628 50.738 C 143.969 53.556 150.330 60.820 151.824 65.807 C 153.348 70.894 153.324 79.186 151.770 84.373 C 150.954 87.096 148.212 90.929 143.624 95.759 C 137.353 102.361 136.382 104.257 139.083 104.625 C 139.588 104.694 139.678 104.806 139.284 104.875 C 138.200 105.064 149.266 116.000 150.542 116.000 C 151.152 116.000 152.708 114.875 154.000 113.500 C 155.292 112.125 156.045 111.000 155.674 111.000 C 155.303 111.000 155.254 111.031 155.563 111.069 C 156.137 111.139 165.144 103.095 164.728 102.885 C 164.602 102.821 164.950 102.690 165.500 102.593 C 166.050 102.497 168.525 101.824 171.000 101.099 C 183.940 97.306 199.599 105.708 203.137 118.341 C 206.126 129.016 203.504 139.384 196.055 146.352 C 187.584 154.276 176.554 155.896 166.048 150.759 C 163.547 149.536 161.163 148.471 160.750 148.393 C 160.338 148.314 160.322 148.194 160.716 148.125 C 161.110 148.056 158.989 145.527 156.004 142.504 L 150.576 137.008 146.839 140.657 C 144.784 142.664 143.132 144.575 143.169 144.903 C 143.207 145.231 143.184 145.332 143.118 145.128 C 143.053 144.923 142.330 145.311 141.511 145.991 C 140.692 146.671 140.312 147.695 140.666 148.268 C 141.019 148.840 140.840 149.019 140.268 148.666 C 139.695 148.312 138.695 148.663 138.044 149.447 C 137.085 150.602 138.157 152.267 143.723 158.271 C 148.107 162.999 151.021 167.127 151.792 169.702 C 153.326 174.821 153.340 183.132 151.824 188.193 C 150.319 193.216 143.932 200.480 138.628 203.202 C 134.814 205.159 121.000 207.344 121.000 205.990 C 121.000 205.666 119.373 204.814 117.385 204.095 C 112.284 202.250 106.286 196.498 103.277 190.563 C 101.302 186.670 100.709 183.998 100.709 179.000 C 100.709 170.884 103.548 165.001 111.523 156.590 L 117.126 150.681 110.813 144.117 C 107.341 140.506 104.376 137.341 104.224 137.083 C 104.072 136.825 101.271 139.263 98.000 142.500 C 94.729 145.737 92.303 148.636 92.609 148.943 C 92.916 149.249 92.679 149.556 92.083 149.625 C 91.487 149.694 90.523 149.806 89.941 149.875 C 89.359 149.944 89.157 150.445 89.493 150.989 C 89.857 151.578 89.376 151.716 88.302 151.329 C 87.311 150.973 86.840 151.056 87.257 151.514 C 87.673 151.972 86.998 152.439 85.757 152.551 C 84.515 152.663 81.475 153.072 79.000 153.459 C 76.393 153.867 72.607 153.679 70.000 153.011 C 67.525 152.378 64.600 151.704 63.500 151.513 C 62.400 151.323 61.827 151.129 62.228 151.083 C 62.628 151.038 60.963 149.163 58.527 146.919 C 52.169 141.058 50.132 136.190 49.982 126.500 C 49.914 122.100 49.891 118.708 49.929 118.961 C 49.968 119.215 50.885 117.686 51.968 115.564 C 53.050 113.441 53.655 111.251 53.313 110.698 C 52.971 110.144 53.139 109.968 53.687 110.307 C 54.235 110.645 56.193 109.365 58.038 107.461 C 59.883 105.557 60.967 103.963 60.446 103.917 C 59.926 103.871 60.400 103.683 61.500 103.500 C 62.600 103.316 65.525 102.409 68.000 101.483 C 71.350 100.231 74.033 99.968 78.500 100.457 C 87.335 101.424 88.093 101.574 87.442 102.224 C 86.944 102.722 89.364 103.906 92.250 104.576 C 92.663 104.672 92.678 104.806 92.284 104.875 C 91.225 105.060 102.250 116.000 103.495 116.000 C 104.079 116.000 107.457 113.075 111.000 109.500 L 117.442 103.000 111.265 96.750 C 103.593 88.988 100.764 82.957 100.813 74.470 C 100.857 66.820 103.966 60.070 109.925 54.687 C 112.170 52.659 113.892 50.948 113.753 50.885 C 113.441 50.743 115.050 50.357 116.809 50.152 C 117.529 50.069 117.904 49.654 117.643 49.232 C 117.382 48.809 121.068 48.485 125.834 48.512 C 132.743 48.550 135.337 49.001 138.628 50.738 "
    />
  </g>
  <g fill="#F2E1D4FF" stroke="#F2E1D4FF">
    <path
      d="M 120.500 48.876 C 109.089 51.878 100.882 62.543 100.813 74.462 C 100.764 82.957 103.591 88.985 111.265 96.750 L 117.442 103.000 111.000 109.500 C 107.457 113.075 104.079 116.000 103.495 116.000 C 102.910 116.000 99.972 113.489 96.966 110.421 C 89.116 102.408 85.163 100.546 76.000 100.546 C 67.105 100.546 62.396 102.606 56.585 109.038 C 51.450 114.722 50.000 118.676 50.000 127.000 C 50.000 135.324 51.450 139.278 56.585 144.962 C 63.756 152.900 73.181 155.543 83.557 152.527 C 88.385 151.123 90.642 149.614 96.692 143.748 C 100.710 139.852 104.111 136.864 104.249 137.108 C 104.387 137.353 107.353 140.519 110.840 144.144 L 117.180 150.735 111.226 157.117 C 103.307 165.607 100.757 170.777 100.701 178.460 C 100.515 203.551 130.201 215.347 146.612 196.703 C 151.224 191.464 153.000 186.543 153.000 179.000 C 153.000 170.333 151.212 166.348 143.680 158.224 L 136.775 150.777 143.567 143.932 L 150.360 137.087 157.625 143.989 C 163.225 149.309 166.090 151.246 170.127 152.445 C 176.703 154.398 179.308 154.395 185.942 152.425 C 203.921 147.085 210.470 123.144 197.732 109.325 C 191.495 102.558 186.972 100.546 178.000 100.546 C 168.837 100.546 164.884 102.408 157.034 110.421 C 154.028 113.489 151.090 116.000 150.505 116.000 C 149.921 116.000 146.565 113.097 143.048 109.548 L 136.654 103.097 143.597 95.787 C 148.208 90.933 150.953 87.099 151.770 84.373 C 153.324 79.186 153.348 70.894 151.824 65.807 C 150.325 60.803 143.933 53.517 138.701 50.847 C 134.290 48.597 125.274 47.621 120.500 48.876 M 185.102 116.283 C 187.287 117.750 189.025 120.071 189.969 122.783 C 191.261 126.492 191.261 127.508 189.969 131.217 C 187.938 137.048 183.364 140.000 176.361 140.000 C 171.159 140.000 170.841 139.831 164.259 133.570 L 157.500 127.141 162.000 122.454 C 164.475 119.876 167.850 116.921 169.500 115.887 C 173.756 113.221 180.811 113.400 185.102 116.283 M 81.800 115.422 C 83.285 116.203 86.667 119.061 89.315 121.772 L 94.131 126.702 89.382 131.920 C 86.770 134.790 83.388 137.782 81.866 138.569 C 70.804 144.290 58.792 132.038 64.549 120.906 C 67.656 114.897 75.853 112.291 81.800 115.422 M 134.067 64.266 C 135.945 65.532 138.049 68.161 138.834 70.223 C 141.107 76.196 139.731 80.184 132.950 87.277 L 127.000 93.500 121.050 87.277 C 114.269 80.184 112.893 76.196 115.166 70.223 C 118.043 62.665 127.342 59.734 134.067 64.266 M 132.728 166.250 C 140.140 173.791 141.456 178.129 138.330 184.717 C 133.785 194.294 120.215 194.294 115.670 184.717 C 112.567 178.179 113.737 174.273 121.142 166.444 C 123.973 163.450 126.578 161.000 126.929 161.000 C 127.281 161.000 129.890 163.363 132.728 166.250 M 134.415 120.617 L 140.331 127.000 134.415 133.383 C 131.162 136.893 128.037 139.818 127.471 139.883 C 126.905 139.947 123.543 137.075 120.000 133.500 L 113.558 127.000 120.000 120.500 C 123.543 116.925 126.905 114.053 127.471 114.117 C 128.037 114.182 131.162 117.107 134.415 120.617 "
    />
  </g>
  <g fill="#24201FFF" stroke="#24201FFF">
    <path
      d="M 169.500 115.887 C 167.850 116.921 164.506 119.831 162.069 122.355 C 157.720 126.859 157.673 126.981 159.480 128.978 C 160.493 130.097 161.586 130.747 161.911 130.423 C 162.235 130.099 162.500 130.433 162.500 131.167 C 162.500 131.900 163.175 132.520 164.000 132.545 C 164.825 132.570 165.394 133.115 165.264 133.755 C 165.133 134.395 166.526 136.062 168.358 137.459 C 175.061 142.572 186.469 139.910 189.560 132.510 C 191.209 128.565 191.489 123.580 190.011 124.493 C 189.456 124.836 189.271 124.458 189.588 123.630 C 190.420 121.463 188.313 118.162 184.686 115.950 C 180.557 113.433 173.465 113.403 169.500 115.887 "
    />
  </g>
  <g fill="#24201FFF" stroke="#24201FFF">
    <path
      d="M 69.299 115.960 C 58.262 122.689 63.088 140.000 76.000 140.000 C 80.439 140.000 83.965 137.872 89.375 131.927 L 94.117 126.716 90.809 123.234 C 82.127 114.097 75.840 111.971 69.299 115.960 "
    />
  </g>
  <g fill="#24201FFF" stroke="#24201FFF">
    <path
      d="M 120.528 167.143 C 116.638 171.345 114.995 173.873 115.327 175.144 C 115.595 176.166 115.405 176.751 114.907 176.442 C 113.390 175.505 113.894 180.975 115.670 184.717 C 122.088 198.242 142.301 191.077 139.521 176.262 C 139.067 173.838 137.066 170.824 133.274 166.848 C 130.206 163.632 127.363 161.000 126.955 161.000 C 126.548 161.000 123.656 163.764 120.528 167.143 "
    />
  </g>
  <g fill="#24201FFF" stroke="#24201FFF">
    <path
      d="M 122.000 63.000 C 121.175 63.533 120.725 64.030 121.000 64.103 C 121.275 64.177 121.106 64.165 120.625 64.077 C 119.076 63.793 115.912 67.329 116.453 68.739 C 116.741 69.490 116.583 69.861 116.102 69.563 C 115.621 69.266 114.957 70.030 114.627 71.261 C 113.724 74.633 113.882 78.191 114.907 77.558 C 115.405 77.249 115.597 77.827 115.331 78.841 C 115.000 80.108 116.750 82.684 120.939 87.092 L 127.029 93.500 132.964 87.277 C 139.730 80.183 141.104 76.189 138.834 70.223 C 136.394 63.812 126.989 59.776 122.000 63.000 "
    />
  </g>
  <g fill="#24201FFF" stroke="#24201FFF">
    <path
      d="M 120.000 120.500 L 113.558 127.000 120.000 133.500 C 123.543 137.075 126.905 139.947 127.471 139.883 C 128.037 139.818 131.162 136.893 134.415 133.383 L 140.331 127.000 134.415 120.617 C 131.162 117.107 128.037 114.182 127.471 114.117 C 126.905 114.053 123.543 116.925 120.000 120.500 "
    />
  </g>
</svg>
