<svg
  xmlns="http://www.w3.org/2000/svg"
  width="24"
  height="24"
  fill="none"
  xmlns:v="https://vecta.io/nano"
>
  <rect width="24" height="24" rx="12" fill="#1969ff" />
  <g clip-path="url(#A)">
    <path
      d="M7.322 17.563l1.122.581 3.429 1.797c.153.08.306.077.458-.003l2.436-1.278 2.133-1.115c.201-.104.302-.253.302-.478l-.001-9.983a.52.52 0 0 0-.294-.495l-4.394-2.497c-.121-.069-.244-.103-.382-.091l-.189.087-.481.239-2.004 1.044-1.231.637-.889.46a1.07 1.07 0 0 0-.26.184.78.78 0 0 0-.076.346l.001 9.751.001.38c.002.162.081.282.217.37l.103.064h0zm8.31-.368l-.002.006-.006-.002-.043.017c-.203.123-.417.229-.63.334l-.096.054-2.64 1.388c-.087.046-.15.043-.234-.002l-2.738-1.439-.01-.001-.003-.009-.006-.005-.985-.517c-.031.001-.04-.019-.045-.044-.211-.029-.284-.109-.284-.308v-3.828c0-.037.004-.075.006-.121.109.052.21.089.298.15l.072.028 1.788.863 1.17.559.603.301c.17.092.338.091.509-.004l.807-.44 1.45-.786.602-.328c.144-.087.287-.175.443-.239.195-.131.409-.229.63-.354v.146 3.651l-.001.521c0 .03.012.063-.03.083l-.592.301h.001l-.022.018-.011.006zM8.437 6.915l.096-.057 1.073-.556 2.429-1.265c.167-.09.271-.042.397.035l.056.035 2.987 1.697.337.197-.062.04-3.398 1.826c-.057.031-.101.024-.155-.004L9.261 7.344l-.824-.429h0zm-.518 4.331V7.653l3.408 1.762-3.408 1.831zm7.874.478l-3.231 1.762v-3.432l3.231 1.67zm-4.152-1.465v.131l.001 1.683.018 1.397c.005.058-.025.059-.068.038l-.21-.101-2.25-1.087-.692-.342 3.201-1.718h0zm1.605-.857l.101-.058 1.039-.558 1.797-.964c.086-.047.108-.042.108.059v2.985c0 .092-.016.104-.102.059l-1.29-.667-1.652-.856h0z"
      fill="#fff"
    />
  </g>
  <defs>
    <clipPath id="A">
      <path fill="#fff" transform="translate(7 4)" d="M0 0h10.202v16H0z" />
    </clipPath>
  </defs>
</svg>
