<svg
  xmlns="http://www.w3.org/2000/svg"
  width="24"
  height="24"
  fill="none"
  xmlns:v="https://vecta.io/nano"
>
  <rect width="24" height="24" rx="12" fill="#fff" />
  <mask id="A" maskUnits="userSpaceOnUse" x="4" y="4" width="16" height="16" mask-type="alpha">
    <path fill="#d9d9d9" d="M4 4h16v16H4z" />
  </mask>
  <g mask="url(#A)">
    <path
      d="M6.697 7.42l.271-.32c.004-.005.013-.006.018-.011.008-.01.022-.017.03-.027l.008-.01.211-.18a3.15 3.15 0 0 1 .873-.478c.978-.343 2.067-.132 2.921.674 1.192 1.118 1.086 2.918.134 4.115-1.203 1.784-3.27 4.273-.408 6.503.515.401.896.732 2.518 1.2-1.06.195-2.043.135-3.137-.145-.774-.437-1.991-1.372-2.405-2.636-.626-1.916 1.102-4.78 1.936-5.883 1.146-1.527-.708-3.179-2.074-1.334-.714.961-1.962 3.682-1.528 5.7.254 1.144.592 1.979 1.933 3.125-.249-.147-.49-.313-.724-.499-3.115-2.902-2.754-7.389-.576-9.794z"
      fill="url(#B)"
    />
    <path
      d="M17.302 16.58l-.271.319c-.004.005-.014.006-.018.012-.008.01-.022.017-.03.027l-.008.01-.211.18c-.279.212-.568.372-.873.478-.978.344-2.067.132-2.921-.674-1.192-1.118-1.086-2.919-.134-4.115 1.203-1.784 3.27-4.274.408-6.503-.515-.401-.896-.732-2.517-1.2 1.06-.195 2.043-.135 3.137.145.774.437 1.991 1.372 2.405 2.636.626 1.916-1.102 4.78-1.937 5.883-1.146 1.527.708 3.179 2.074 1.334.714-.961 1.962-3.682 1.529-5.7-.254-1.144-.592-1.979-1.933-3.125a6.35 6.35 0 0 1 .724.499c3.115 2.902 2.754 7.389.576 9.794z"
      fill="url(#C)"
    />
  </g>
  <defs>
    <linearGradient id="B" x1="5" y1="12.001" x2="19" y2="12.001" gradientUnits="userSpaceOnUse">
      <stop stop-color="#0082fa" />
      <stop offset="1" stop-color="#00f2fe" />
    </linearGradient>
    <linearGradient id="C" x1="4.999" y1="12" x2="18.999" y2="12" gradientUnits="userSpaceOnUse">
      <stop stop-color="#0082fa" />
      <stop offset="1" stop-color="#00f2fe" />
    </linearGradient>
  </defs>
</svg>
