<svg width="395" height="395" viewBox="0 0 395 395" fill="none" xmlns="http://www.w3.org/2000/svg">
  <circle cx="197.5" cy="197.5" r="197.5" fill="#958FDC" />
  <path
    d="M335.528 197.669C335.528 122.211 274.08 61.0424 198.292 61.0424C122.504 61.0424 61.0405 122.211 61.0405 197.669C61.0405 213.27 63.6731 228.254 68.5047 242.22C68.5356 242.282 68.7989 243.083 68.7989 243.083C70.7501 249.265 61.0714 251.685 61.0714 255.385C61.0714 261.181 81.4819 260.395 81.4819 267.131C81.4819 273.005 61.2882 274.824 61.2882 280.743C61.2882 288.929 105.996 286.077 106.569 293.106C107.003 298.533 91.1915 298.872 91.0986 304.668C90.9438 313.933 152.113 310.896 152.113 317.062C152.113 321.733 124.285 320.037 124.285 325.556C124.285 331.075 160.909 334.559 201.281 334.559C241.653 334.559 269.496 330.088 269.496 325.263C269.496 320.438 243.511 321.425 244.053 317.077C244.982 309.478 302.667 313.362 302.667 304.56C302.667 299.92 286.81 298.841 287.321 293.846C288.049 286.786 335.528 287.834 335.528 280.497C335.528 274.731 311.99 273.313 312.036 267.316C312.067 261.196 335.528 261.459 335.373 255.724C335.25 251.315 324.874 251.423 328.126 242.081C332.927 228.161 335.559 213.224 335.559 197.669H335.528ZM291.92 236.47C287.15 247.215 276.434 245.057 275.226 249.573C273.972 254.244 288.436 254.922 288.436 259.809C288.436 265.744 244.347 263.37 244.781 271.201C245.06 276.134 276.093 276.966 275.505 282.115C274.653 289.576 227.421 285.846 226.957 292.999C226.616 298.24 250.015 298.425 250.062 303.204C250.108 307.227 231.695 309.416 196.418 309.416C156.248 309.416 136.705 307.258 138.935 302.772C141.01 298.579 176.581 299.35 176.225 292.752C175.869 286.17 113.058 288.096 111.168 281.699C109.589 276.381 131.811 275.286 131.672 270.23C131.532 265.081 103.224 266.253 102.605 260.01C102.202 255.924 117.394 256.171 116.743 251.022C116.263 247.276 109.991 247.8 106.275 240.077C100.282 227.175 96.9058 212.807 96.9058 197.654C96.9058 141.912 142.311 96.7138 198.308 96.7138C254.305 96.7138 299.709 141.912 299.709 197.654C299.709 211.405 296.937 224.508 291.935 236.455L291.92 236.47Z"
    fill="#2B1D3C" />
  <path fill-rule="evenodd" clip-rule="evenodd"
    d="M68.5047 242.22C63.6731 228.254 61.0405 213.27 61.0405 197.669C61.0405 122.211 122.504 61.0424 198.292 61.0424C274.08 61.0424 335.528 122.211 335.528 197.669H335.559C335.559 198.037 335.558 198.405 335.555 198.772C335.434 213.93 332.813 228.491 328.126 242.081C326.11 247.874 329.333 250.033 332.102 251.889C333.799 253.026 335.326 254.049 335.373 255.724C335.45 258.55 329.79 259.92 324.026 261.315C318.094 262.75 312.052 264.213 312.036 267.316C312.013 270.346 318.009 272.207 323.949 274.05C329.766 275.856 335.528 277.644 335.528 280.497C335.528 284.213 323.348 285.778 311.232 287.335C299.426 288.853 287.68 290.362 287.321 293.846C287.058 296.413 291.119 297.946 295.129 299.459C298.921 300.891 302.667 302.305 302.667 304.56C302.667 309.133 287.1 310.282 272.009 311.395C258.051 312.426 244.499 313.426 244.053 317.077C243.788 319.204 249.869 320.054 256.152 320.932C262.714 321.85 269.496 322.798 269.496 325.263C269.496 330.088 241.653 334.559 201.281 334.559C160.909 334.559 124.285 331.075 124.285 325.556C124.285 322.682 131.834 321.764 139.068 320.885C145.724 320.077 152.113 319.3 152.113 317.062C152.113 314.293 139.774 313.38 126.194 312.375C109.537 311.142 91.0133 309.772 91.0986 304.668C91.1454 301.748 95.1807 300.213 99.1189 298.715C102.999 297.239 106.784 295.799 106.569 293.106C106.294 289.733 95.8546 288.635 85.0699 287.501C73.3818 286.272 61.2882 285.001 61.2882 280.743C61.2882 277.778 66.3565 275.841 71.4148 273.909C76.4533 271.984 81.4819 270.062 81.4819 267.131C81.4819 263.637 75.9887 262.166 70.7018 260.752C65.7979 259.439 61.0714 258.174 61.0714 255.385C61.0714 253.873 62.6875 252.575 64.4658 251.146C67.0395 249.079 69.9528 246.739 68.7989 243.083C68.7989 243.083 68.5356 242.282 68.5047 242.22ZM67.751 243.422C68.1368 244.649 67.9517 245.647 67.4497 246.562C66.9192 247.529 66.0247 248.419 64.9566 249.322C64.6087 249.616 64.2274 249.923 63.8399 250.235C63.1194 250.814 62.3778 251.411 61.7905 251.976C60.8858 252.846 59.9704 253.972 59.9704 255.385C59.9704 256.476 60.4643 257.367 61.1789 258.066C61.8728 258.746 62.8065 259.281 63.8157 259.727C65.6682 260.547 68.0666 261.188 70.3956 261.811C70.5949 261.864 70.7937 261.918 70.9916 261.971C73.566 262.662 76.0034 263.35 77.798 264.254C79.6362 265.181 80.3809 266.116 80.3809 267.131C80.3809 267.521 80.2206 267.942 79.7906 268.428C79.3505 268.925 78.6762 269.431 77.7783 269.947C75.9764 270.984 73.5437 271.915 70.9927 272.89L70.9598 272.902C68.4716 273.853 65.8696 274.847 63.893 275.99C62.8972 276.566 61.9939 277.216 61.3299 277.971C60.6556 278.737 60.1872 279.662 60.1872 280.743C60.1872 282.354 61.3056 283.496 62.6532 284.288C64.0202 285.091 65.8967 285.709 68.0298 286.213C72.3111 287.226 77.991 287.863 83.5983 288.455C84.0465 288.503 84.4943 288.55 84.941 288.597C90.1253 289.142 95.1618 289.672 99.0379 290.442C101.149 290.862 102.834 291.338 103.985 291.888C105.207 292.472 105.452 292.954 105.472 293.196C105.528 293.903 105.102 294.619 103.767 295.45C102.456 296.266 100.636 296.958 98.6489 297.714L98.6404 297.717C96.7133 298.451 94.6311 299.244 93.0326 300.244C91.4519 301.233 90.0306 302.623 89.9978 304.65C89.9667 306.508 91.4791 307.756 93.1905 308.598C94.9815 309.479 97.4735 310.166 100.356 310.729C106.142 311.857 113.836 312.542 121.464 313.127C123.027 313.246 124.588 313.362 126.13 313.476C132.148 313.921 137.885 314.346 142.42 314.921C145.274 315.283 147.582 315.697 149.156 316.192C149.95 316.441 150.479 316.687 150.789 316.908C150.911 316.995 150.972 317.057 151.001 317.094C150.994 317.108 150.979 317.131 150.954 317.161C150.872 317.26 150.704 317.404 150.394 317.571C149.77 317.909 148.803 318.221 147.525 318.507C145.19 319.03 142.124 319.403 138.922 319.792C138.637 319.827 138.352 319.861 138.066 319.896C134.605 320.319 131.048 320.778 128.352 321.491C127.011 321.846 125.791 322.286 124.885 322.871C123.981 323.454 123.184 324.324 123.184 325.556C123.184 326.896 124.269 327.837 125.388 328.483C126.59 329.177 128.286 329.795 130.35 330.355C134.497 331.48 140.404 332.441 147.523 333.223C161.778 334.79 181.07 335.661 201.281 335.661C221.501 335.661 238.609 334.542 250.684 332.812C256.713 331.948 261.532 330.925 264.868 329.796C266.528 329.234 267.885 328.624 268.849 327.954C269.768 327.315 270.597 326.43 270.597 325.263C270.597 324.09 269.793 323.287 268.964 322.769C268.115 322.238 266.977 321.831 265.731 321.495C263.224 320.819 259.919 320.346 256.724 319.899L256.34 319.845C253.237 319.411 250.266 318.996 248.068 318.442C246.915 318.152 246.074 317.846 245.56 317.535C245.306 317.382 245.196 317.264 245.155 317.206C245.152 317.202 245.15 317.198 245.148 317.195C245.166 317.088 245.243 316.898 245.565 316.632C245.909 316.348 246.454 316.047 247.232 315.749C248.784 315.154 251.019 314.662 253.769 314.244C258.831 313.474 265.391 312.99 272.103 312.494C272.664 312.453 273.227 312.411 273.79 312.37C281.044 311.831 288.346 311.251 293.837 310.246C296.574 309.745 298.946 309.124 300.659 308.31C302.294 307.532 303.768 306.358 303.768 304.56C303.768 303.636 303.365 302.86 302.807 302.236C302.259 301.625 301.525 301.113 300.737 300.669C299.264 299.841 297.359 299.122 295.546 298.438C295.427 298.393 295.309 298.349 295.191 298.304C293.216 297.558 291.389 296.846 290.082 296.037C288.718 295.192 288.359 294.519 288.416 293.959C288.442 293.71 288.739 293.188 290.08 292.54C291.331 291.935 293.145 291.39 295.398 290.891C299.784 289.919 305.553 289.177 311.407 288.425L311.838 288.369C317.8 287.603 323.82 286.819 328.349 285.759C330.605 285.231 332.574 284.618 334.001 283.863C335.354 283.147 336.629 282.082 336.629 280.497C336.629 279.362 336.041 278.438 335.269 277.715C334.503 276.998 333.464 276.389 332.319 275.85C330.089 274.801 327.162 273.893 324.321 273.011L324.091 272.94C321.127 272.02 318.277 271.125 316.167 270.102C315.112 269.591 314.317 269.082 313.801 268.578C313.293 268.083 313.134 267.675 313.137 267.325V267.322C313.139 266.955 313.304 266.562 313.797 266.111C314.306 265.644 315.092 265.189 316.144 264.747C318.247 263.862 321.083 263.162 324.033 262.448L324.33 262.376C327.132 261.698 330.015 261 332.208 260.117C333.342 259.66 334.38 259.12 335.145 258.445C335.926 257.754 336.505 256.842 336.474 255.694L336.474 255.693C336.429 254.094 335.435 253.002 334.421 252.186C333.908 251.773 333.331 251.385 332.781 251.016L332.725 250.979C332.181 250.614 331.654 250.261 331.154 249.877C330.12 249.084 329.311 248.237 328.899 247.145C328.495 246.073 328.414 244.603 329.166 242.444L329.167 242.441C334.006 228.408 336.66 213.349 336.66 197.669V196.567H336.625C336.03 121 274.312 59.9395 198.292 59.9395C121.903 59.9395 59.9395 121.595 59.9395 197.669C59.9395 213.395 62.5933 228.501 67.4644 242.581L67.4883 242.65L67.4979 242.67C67.5045 242.688 67.5131 242.712 67.5235 242.743C67.5507 242.821 67.5851 242.923 67.6196 243.026C67.6538 243.128 67.6872 243.229 67.7121 243.304L67.742 243.394L67.7491 243.416M151.025 317.13C151.025 317.13 151.022 317.128 151.02 317.12C151.024 317.126 151.025 317.13 151.025 317.13ZM291.935 236.455C296.937 224.508 299.709 211.405 299.709 197.654C299.709 141.912 254.305 96.7138 198.308 96.7138C142.311 96.7138 96.9058 141.912 96.9058 197.654C96.9058 212.807 100.282 227.175 106.275 240.077C108.345 244.379 111.208 246.122 113.421 247.47C115.181 248.541 116.531 249.363 116.743 251.022C117.088 253.751 112.984 254.964 109.11 256.11C105.673 257.126 102.415 258.089 102.605 260.01C102.928 263.273 110.816 264.51 118.292 265.683C125.12 266.755 131.605 267.772 131.672 270.23C131.739 272.678 126.563 274.198 121.385 275.718C115.87 277.337 110.354 278.956 111.168 281.699C112.102 284.861 127.919 285.989 143.721 287.117C159.89 288.27 176.045 289.423 176.225 292.752C176.426 296.479 165.162 297.855 154.948 299.102C147.081 300.063 139.837 300.948 138.935 302.772C136.705 307.258 156.248 309.416 196.418 309.416C231.695 309.416 250.108 307.227 250.062 303.204C250.039 300.879 244.492 299.642 238.839 298.38C232.869 297.049 226.782 295.691 226.957 292.999C227.187 289.457 238.885 288.583 250.74 287.698C262.826 286.796 275.075 285.882 275.505 282.115C275.805 279.493 267.899 277.99 260.033 276.495C252.457 275.054 244.918 273.621 244.781 271.201C244.549 267.009 257.074 265.741 268.765 264.558C278.915 263.531 288.436 262.567 288.436 259.809C288.436 257.4 284.919 256.013 281.504 254.667C277.994 253.283 274.59 251.941 275.226 249.573C275.712 247.757 277.736 247.02 280.292 246.089C284.092 244.705 289.069 242.893 291.92 236.47L291.935 236.455ZM291.004 235.827C295.898 224.066 298.608 211.178 298.608 197.654C298.608 142.527 253.703 97.8166 198.308 97.8166C142.912 97.8166 98.0069 142.527 98.0069 197.654C98.0069 212.639 101.344 226.845 107.27 239.605C108.999 243.194 111.297 244.855 113.304 246.105C113.514 246.236 113.729 246.366 113.944 246.497C114.725 246.972 115.513 247.451 116.134 247.972C116.984 248.684 117.669 249.585 117.835 250.882L117.836 250.884C118.085 252.856 116.741 254.15 115.301 254.98C113.844 255.82 111.893 256.432 110.081 256.972C109.859 257.038 109.639 257.103 109.422 257.167C107.797 257.648 106.315 258.087 105.199 258.606C104.57 258.899 104.156 259.175 103.92 259.423C103.711 259.642 103.689 259.782 103.7 259.9C103.733 260.226 103.95 260.638 104.651 261.122C105.349 261.604 106.383 262.051 107.713 262.463C110.367 263.284 113.887 263.873 117.489 264.441C117.817 264.492 118.145 264.544 118.473 264.595C121.708 265.103 124.941 265.61 127.44 266.273C128.811 266.636 130.051 267.069 130.974 267.622C131.87 268.16 132.739 268.983 132.772 270.2M132.772 270.2C132.802 271.284 132.217 272.142 131.496 272.782C130.778 273.418 129.806 273.951 128.747 274.417C126.769 275.287 124.198 276.042 121.718 276.769C121.542 276.821 121.366 276.873 121.19 276.924C118.493 277.717 115.971 278.484 114.217 279.361C113.335 279.802 112.759 280.218 112.448 280.592C112.178 280.917 112.152 281.142 112.224 281.385L112.224 281.386C112.223 281.382 112.234 281.427 112.319 281.516C112.406 281.608 112.549 281.725 112.773 281.859C113.225 282.131 113.899 282.41 114.809 282.685C116.622 283.231 119.161 283.697 122.226 284.106C128.21 284.904 135.994 285.46 143.823 286.018L144.35 286.056C152.329 286.625 160.315 287.204 166.329 288.056C169.328 288.48 171.9 288.981 173.755 289.604C174.676 289.914 175.491 290.276 176.103 290.721C176.705 291.158 177.276 291.803 177.324 292.692C177.4 294.099 176.486 295.123 175.413 295.827C174.327 296.54 172.828 297.104 171.134 297.574C167.73 298.519 163.176 299.181 158.63 299.758C157.432 299.91 156.235 300.056 155.056 300.2C151.718 300.608 148.525 300.998 145.872 301.452C144.078 301.76 142.586 302.088 141.497 302.454C140.952 302.637 140.547 302.817 140.268 302.985C139.974 303.163 139.917 303.27 139.921 303.262L139.92 303.264C139.858 303.388 139.863 303.445 139.865 303.458C139.867 303.472 139.876 303.533 139.968 303.646C140.184 303.91 140.703 304.278 141.725 304.674C143.731 305.453 147.1 306.132 151.901 306.68C161.464 307.773 176.34 308.313 196.418 308.313C214.045 308.313 227.416 307.766 236.359 306.723C240.841 306.201 244.148 305.56 246.307 304.827C247.392 304.459 248.112 304.091 248.539 303.757C248.962 303.425 248.961 303.242 248.961 303.216L248.961 303.214C248.96 303.122 248.911 302.88 248.39 302.497C247.878 302.121 247.082 301.744 246.019 301.371C244.008 300.664 241.345 300.07 238.569 299.45L238.124 299.351C235.239 298.706 232.258 298.026 230.02 297.161C228.905 296.731 227.884 296.221 227.137 295.587C226.378 294.941 225.784 294.056 225.858 292.927C225.96 291.359 227.312 290.392 228.693 289.776C230.159 289.121 232.155 288.633 234.433 288.243C238.905 287.476 244.78 287.037 250.62 286.601L251.004 286.573C257.008 286.124 262.944 285.671 267.433 284.872C269.683 284.471 271.491 283.996 272.738 283.428C274.055 282.827 274.376 282.298 274.411 281.99C274.413 281.968 274.419 281.922 274.347 281.814C274.261 281.687 274.085 281.507 273.758 281.29C273.098 280.853 272.054 280.416 270.666 279.985C267.907 279.128 264.141 278.399 260.263 277.661L259.8 277.573C256.109 276.871 252.356 276.158 249.476 275.323C247.981 274.889 246.646 274.403 245.655 273.831C244.734 273.298 243.751 272.484 243.682 271.263L243.682 271.262C243.593 269.665 244.677 268.532 245.968 267.76C247.278 266.976 249.096 266.372 251.164 265.879C255.319 264.888 260.863 264.259 266.333 263.697C267.112 263.617 267.889 263.538 268.66 263.46C273.355 262.985 277.861 262.529 281.361 261.906C283.406 261.542 285.024 261.134 286.108 260.668C286.651 260.434 286.99 260.215 287.178 260.034C287.267 259.948 287.306 259.887 287.321 259.855C287.334 259.828 287.335 259.817 287.335 259.809C287.335 259.203 286.894 258.53 285.618 257.744C284.403 256.995 282.773 256.353 281.043 255.67L280.957 255.636C279.262 254.968 277.446 254.249 276.145 253.37C275.488 252.927 274.875 252.386 274.482 251.708C274.066 250.99 273.926 250.167 274.163 249.287C274.593 247.682 275.861 246.78 277.197 246.137C277.874 245.812 278.631 245.523 279.403 245.24C279.576 245.176 279.75 245.113 279.925 245.049C280.544 244.824 281.177 244.593 281.83 244.333C285.124 243.017 288.694 241.023 290.914 236.022L290.998 235.833L291.004 235.827"
    fill="#2B1D3C" />
</svg>