<svg
  xmlns="http://www.w3.org/2000/svg"
  width="24"
  height="24"
  fill="none"
  xmlns:v="https://vecta.io/nano"
>
  <rect width="24" height="24" rx="12" fill="#df42ab" />
  <g clip-path="url(#A)">
    <path
      fill-rule="evenodd"
      d="M19 12a7 7 0 1 1-14 0 7 7 0 1 1 14 0zM9.293 9.026l2.619 2.619V9.157c0-.025.005-.049.014-.072s.023-.043.041-.061.038-.031.061-.04.047-.014.072-.014h2.944.012.003c.024 0 .047.005.069.014s.043.023.061.041.031.038.041.061.014.047.014.072v2.925a.19.19 0 0 1 .001.021v2.947c0 .025-.005.049-.014.072a.19.19 0 0 1-.04.061c-.017.018-.038.031-.061.041s-.047.014-.072.014-.052-.005-.076-.014-.046-.024-.064-.043h-.001l-2.619-2.619v2.488c0 .025-.004.049-.014.072s-.023.044-.04.061-.038.031-.061.041-.047.014-.072.014H9.16h-.007c-.025 0-.049-.005-.072-.014s-.044-.023-.061-.041-.031-.038-.041-.061-.014-.047-.014-.072v-2.947c0-.015.002-.03.005-.045V9.157c0-.037.012-.074.032-.104s.05-.055.085-.069.072-.018.109-.01.07.026.096.052z"
      fill="#fff"
    />
  </g>
  <defs>
    <clipPath id="A"><path fill="#fff" transform="translate(5 5)" d="M0 0h14v14H0z" /></clipPath>
  </defs>
</svg>
