<svg
  version="1.1"
  id="Layer_1"
  xmlns="http://www.w3.org/2000/svg"
  xmlns:xlink="http://www.w3.org/1999/xlink"
  x="0"
  y="0"
  viewBox="0 0 30 30"
  style="enable-background: new 0 0 30 30"
  xml:space="preserve"
>
  <style>
    .st4 {
      fill: #ff86ff;
    }
    .st5 {
      fill: #e200f1;
    }
    .st6 {
      fill: #ff59ff;
    }
    .st7 {
      fill: #f41afa;
    }
    .st8 {
      fill: #bc00de;
    }
    .st9 {
      fill: #90c;
    }
  </style>
  <defs>
    <filter
      id="Adobe_OpacityMaskFilter"
      filterUnits="userSpaceOnUse"
      x="-.4"
      y="0"
      width="30.4"
      height="29.8"
    >
      <feColorMatrix values="1 0 0 0 0 0 1 0 0 0 0 0 1 0 0 0 0 0 1 0" />
    </filter>
  </defs>
  <mask
    maskUnits="userSpaceOnUse"
    x="-.4"
    y="0"
    width="30.4"
    height="29.8"
    id="mask0_768_1596_00000153695393871286289990000009587312287868146357_"
  >
    <path d="M30 0H0v30h30V0z" style="fill: none; filter: url(#Adobe_OpacityMaskFilter)" />
  </mask>
  <g style="mask: url(#mask0_768_1596_00000153695393871286289990000009587312287868146357_)">
    <path style="fill: #fff" d="M-.4 0H30v29.8H-.4z" />
  </g>
  <defs><path id="SVGID_1_" d="M0 0h30v30H0z" /></defs>
  <clipPath id="SVGID_00000096760210609691170410000007317984451683689893_">
    <use xlink:href="#SVGID_1_" style="overflow: visible" />
  </clipPath>
  <g style="clip-path: url(#SVGID_00000096760210609691170410000007317984451683689893_)">
    <path class="st4" d="m12.8 14.1-11-11v11h11z" />
    <path
      class="st4"
      d="m1.5.3 14.1 14.1c.2.2.3.4.3.6 0 .2-.1.5-.3.6-.1.1-.2.2-.3.2-.1 0-.2.1-.4.1H.9c-.1 0-.2 0-.3-.1-.1 0-.2-.1-.3-.2-.1-.1-.2-.2-.2-.3-.1-.1-.1-.2-.1-.3V.9C0 .7.1.5.2.4.3.3.4.1.6.1c.1-.1.3-.1.5-.1.2.1.3.1.4.3z"
    />
    <path class="st5" d="m17.2 15.9 11 11v-11h-11z" />
    <path
      class="st5"
      d="M28.5 29.7 14.4 15.6c-.2-.2-.3-.4-.3-.6 0-.2.1-.5.3-.6.1-.1.2-.2.3-.2.1 0 .2-.1.4-.1h14.1c.2 0 .5.1.6.3.2.2.3.4.3.6v14.1c0 .1 0 .2-.1.3 0 .1-.1.2-.2.3-.1.1-.2.2-.3.2-.1 0-.2.1-.3.1-.1 0-.2 0-.4-.1-.1 0-.2-.1-.3-.2"
    />
    <path
      class="st6"
      d="M15.6 15.6 1.5 29.7c-.1.1-.2.2-.3.2-.1.1-.2.1-.3.1-.1 0-.2 0-.3-.1s-.2-.1-.3-.2c-.1-.1-.2-.2-.2-.3-.1-.1-.1-.2-.1-.3V15c0-.1 0-.2.1-.3 0-.1.1-.2.2-.3.1-.1.2-.1.3-.2.1 0 .2-.1.3-.1H15c.2 0 .4 0 .5.1.2.1.3.2.3.4.1.2.1.3.1.5s-.1.4-.3.5"
    />
    <path class="st6" d="m1.8 26.9 11-11h-11v11z" />
    <path
      class="st7"
      d="m.3 28.5 14.1-14.1c.1-.1.2-.2.3-.2.1 0 .2-.1.4-.1s.5.1.6.3c.2.2.3.4.3.6v14.1c0 .1 0 .2-.1.3 0 .1-.1.2-.2.3-.1.1-.2.2-.3.2-.1.1-.3.1-.4.1H.9c-.1 0-.2 0-.3-.1-.1 0-.2-.1-.3-.2-.1-.1-.2-.2-.2-.3-.1-.1-.1-.2-.1-.3 0-.1 0-.2.1-.3 0-.2.1-.3.2-.3z"
    />
    <path class="st7" d="m14.1 17.2-11 11h11v-11z" />
    <path
      class="st8"
      d="M14.4 14.4 28.5.3c.1-.1.2-.2.3-.2.1-.1.2-.1.3-.1.1 0 .2 0 .3.1.1 0 .2.1.3.2s.1.2.2.3.1.2.1.3V15c0 .1 0 .2-.1.3s-.1.2-.2.3c-.1.1-.2.2-.3.2s-.2.1-.3.1H15c-.2 0-.4 0-.5-.1-.2-.1-.3-.2-.3-.4-.1-.2-.1-.3-.1-.5s.1-.4.3-.5"
    />
    <path class="st8" d="m28.2 3.1-11 11h11v-11z" />
    <path
      class="st9"
      d="M29.7 1.5 15.6 15.6c-.1.1-.2.2-.3.2-.1 0-.2.1-.4.1-.1 0-.2 0-.3-.1-.1 0-.2-.1-.3-.2-.1-.1-.2-.2-.2-.3 0-.1-.1-.2-.1-.3V.9c0-.1 0-.2.1-.3 0-.1.1-.2.2-.3.1-.1.2-.1.3-.2.1-.1.3-.1.4-.1h14.1c.1 0 .2 0 .4.1.1 0 .2.1.3.2.1.1.2.4.2.6 0 .2-.1.5-.3.6"
    />
    <path class="st9" d="m15.9 12.8 11-11h-11v11z" />
  </g>
</svg>
