<svg
  xmlns="http://www.w3.org/2000/svg"
  width="24"
  height="24"
  fill="none"
  xmlns:v="https://vecta.io/nano"
>
  <rect width="24" height="24" rx="12" fill="#ff2a57" />
  <path
    d="M11.5 4.289a1 1 0 0 1 1 0l5.928 3.422a1 1 0 0 1 .5.866v6.846a1 1 0 0 1-.5.866L12.5 19.71a1 1 0 0 1-1 0L5.572 16.29a1 1 0 0 1-.5-.866V8.577a1 1 0 0 1 .5-.866L11.5 4.29z"
    fill="#fff"
  />
  <path
    fill-rule="evenodd"
    d="M15.772 9.332 12 7.154 8.228 9.332 12 11.428l3.772-2.096zm.424.908L12.5 12.294v4.262l3.696-2.134V10.24zm-8.392 4.182v-4.181l3.696 2.053v4.262l-3.696-2.134zM12.5 6.288a1 1 0 0 0-1 0L7.304 8.711a1 1 0 0 0-.5.866v4.845a1 1 0 0 0 .5.866l4.196 2.423a1 1 0 0 0 1 0l4.196-2.423a1 1 0 0 0 .5-.866V9.577a1 1 0 0 0-.5-.866L12.5 6.288z"
    fill="#ff2a57"
  />
</svg>
