<svg
  xmlns="http://www.w3.org/2000/svg"
  width="24"
  height="24"
  fill="none"
  xmlns:v="https://vecta.io/nano"
>
  <rect width="24" height="24" rx="12" fill="#ff0420" />
  <mask id="A" maskUnits="userSpaceOnUse" x="4" y="4" width="16" height="16" mask-type="alpha">
    <path fill="#d9d9d9" d="M4 4h16v16H4z" />
  </mask>
  <g mask="url(#A)">
    <path
      fill-rule="evenodd"
      d="M12 19.203c3.866 0 7-3.179 7-7.102S15.866 5 12 5s-7 3.179-7 7.102 3.134 7.102 7 7.102zm-2.04-5.214c-.417 0-.758-.1-1.025-.299s-.394-.49-.394-.864c0-.078.009-.174.026-.288l.194-.922c.238-.977.853-1.466 1.844-1.466a1.81 1.81 0 0 1 .725.139c.214.089.382.224.504.405s.184.391.184.64a1.91 1.91 0 0 1-.026.283l-.189.922c-.123.487-.335.851-.636 1.093s-.704.357-1.208.357zm.074-.768a.74.74 0 0 0 .499-.176c.14-.117.24-.297.3-.538l.184-.874a1.24 1.24 0 0 0 .021-.229c0-.323-.166-.485-.499-.485a.76.76 0 0 0-.504.176c-.137.117-.235.297-.294.538l-.189.874c-.014.071-.021.146-.021.224 0 .327.168.49.504.49zm2.138.677c.021.025.051.037.089.037h.715c.035 0 .068-.012.1-.037s.051-.057.058-.096l.242-1.167h.709c.459 0 .82-.098 1.082-.293s.443-.498.531-.906c.021-.096.031-.188.031-.277 0-.309-.119-.545-.357-.709s-.546-.245-.935-.245h-1.398c-.035 0-.068.012-.1.037s-.051.057-.058.096l-.725 3.465c-.007.036-.002.068.016.096zm2.333-2.121a.62.62 0 0 1-.383.123h-.604l.2-.954h.63c.144 0 .245.028.305.085s.089.131.089.234c0 .046-.005.1-.016.16-.035.153-.109.27-.221.352z"
      fill="#fff"
    />
  </g>
</svg>
