<svg xmlns="http://www.w3.org/2000/svg" width="24" height="24" viewBox="0 0 24 24" fill="none">
  <rect width="24" height="24" rx="12" fill="#080530" />
  <svg xmlns="http://www.w3.org/2000/svg" width="24" height="24" viewBox="-5 -5 34 34" fill="none">

    <path
      d="M11.9451 24C15.3622 24 18.4472 22.5847 20.6409 20.3109L20.5987 20.2646C19.6759 19.2509 18.1098 19.1641 17.0804 20.0697L16.8602 20.2635C14.801 22.0751 11.6831 21.9607 9.76252 20.0029C8.90593 19.1297 7.50837 19.0992 6.61444 19.9342L4.77791 21.6496C6.78129 23.1266 9.26075 24 11.9451 24Z"
      fill="url(#paint0_linear_31_564)" />
    <path
      d="M15.1583 17.8889C17.2567 16.0428 20.3887 16.1078 22.4076 17.9649C23.4207 16.2078 24 14.1712 24 12C24 9.49679 23.23 7.1726 21.913 5.24931C21.3214 5.24821 20.7273 5.45475 20.2491 5.87548L20.0288 6.06928C17.9697 7.88093 14.8517 7.76646 12.9312 5.80871C12.0746 4.93552 10.6771 4.90502 9.78313 5.74001L6.97716 8.36094L4.99092 6.23831L7.79688 3.61738C9.84466 1.70464 13.0461 1.77452 15.0083 3.77476C15.8467 4.62939 17.2078 4.67936 18.1067 3.88851L18.327 3.6947C18.7487 3.32368 19.2122 3.02985 19.7 2.81224C17.6038 1.05723 14.8985 0 11.9451 0C5.96238 0 0.99755 4.33846 0.0523777 10.0273C1.99646 9.19547 4.33089 9.58928 5.89475 11.1834C6.73592 12.0409 8.0871 12.1315 9.0354 11.394L10.6899 10.1073C12.7335 8.51804 15.6168 8.59506 17.5724 10.2911L20.705 13.0079L18.7984 15.2023L15.6659 12.4855C14.7596 11.6995 13.4234 11.6638 12.4764 12.4003L10.8219 13.687C8.70699 15.3318 5.69359 15.1297 3.81762 13.2174C2.91887 12.3012 1.45252 12.2692 0.514587 13.1453L0 13.626C0.309201 15.8982 1.25731 17.9684 2.65833 19.6515L4.62819 17.8116C6.67596 15.8989 9.87742 15.9687 11.8396 17.969C12.678 18.8236 14.0391 18.8736 14.938 18.0827L15.1583 17.8889Z"
      fill="url(#paint1_linear_31_564)" />
    <defs>
      <linearGradient id="paint0_linear_31_564" x1="12" y1="1.40606e-07" x2="16.7179" y2="24"
        gradientUnits="userSpaceOnUse">
        <stop stop-color="#780000" />
        <stop offset="1" stop-color="#C1121F" />
      </linearGradient>
      <linearGradient id="paint1_linear_31_564" x1="12" y1="1.40606e-07" x2="16.7179" y2="24"
        gradientUnits="userSpaceOnUse">
        <stop stop-color="#780000" />
        <stop offset="1" stop-color="#C1121F" />
      </linearGradient>
    </defs>
  </svg>
</svg>