<svg
  version="1.0"
  xmlns="http://www.w3.org/2000/svg"
  width="204"
  height="212"
  viewBox="0 0 153 159"
>
  <defs>
    <linearGradient id="a" x2="0%" y2="100%">
      <stop offset="80%" stop-color="red" />
      <stop offset="100%" />
    </linearGradient>
    <linearGradient id="b" x2="0%" y2="100%">
      <stop offset="0%" stop-color="#0f0f0f" />
      <stop offset="80%" stop-color="red" />
    </linearGradient>
  </defs>
  <path
    d="M564 1531c-180-49-338-165-444-327C71 1130 18 999 5 923l-7-41 49 14c61 19 154 13 214-14 24-11 68-40 97-65 95-83 148-77 282 28 105 83 159 106 245 106 110 0 146-21 355-209l54-49-49-61c-28-34-53-62-57-62s-51 39-103 88C970 762 940 780 880 780c-49 0-79-16-180-99-81-66-131-85-220-85-90 0-158 27-233 94-73 65-145 68-212 9-42-37-43-55-14-159 27-100 81-207 146-289 1-2 43 34 91 81 68 66 102 90 146 107 109 41 223 20 315-57 62-52 83-62 131-62 47 0 70 10 124 56 21 18 59 43 85 55 95 46 256 23 322-47 12-13 26-24 30-24s21 33 38 74c100 240 89 493-30 717-18 34-39 63-46 66-21 8-64-14-124-62-71-59-131-79-223-73-79 5-119 22-186 78-60 49-82 60-124 60-56 0-79-14-180-111l-97-92-45 44c-76 74-77 67 36 176 126 122 184 153 285 153 83 0 145-25 218-88 26-23 59-45 73-48 40-10 101 2 131 26 16 11 47 35 71 53l43 32-33 27c-59 49-151 98-233 125-110 36-314 43-421 14z"
    fill="url(#a)"
    transform="matrix(.1 0 0 -.1 0 159)"
  />
  <path
    d="M381 218c-45-40-81-78-81-84 0-18 48-50 144-95l84-39h223c213 0 227 2 282 24 83 34 160 83 225 142l57 52-20 22c-29 32-69 50-110 50-42 0-65-10-120-55-80-64-122-80-215-80-101 0-147 18-228 89-49 42-58 46-107 46-53 0-56-2-134-72z"
    fill="url(#b)"
    transform="matrix(.1 0 0 -.1 0 159)"
  />
</svg>
